<svg width="60" height="60" fill="none" xmlns="http://www.w3.org/2000/svg"><path d="M12.212 28.783l.02.026.054-.093-.074.067zM26.49 4.54L22.5.55l-1.185 1.186a10.019 10.019 0 01-7.13 2.953c-5.754 0-10.435 4.68-10.435 10.435 0 3.187 1.427 6.156 3.917 8.149l.18.145a8.56 8.56 0 011.502 1.548l2.838 3.785v-8.125a1.874 1.874 0 110-3.75c0-2.18 1.54-4.057 3.677-4.485l.402-.08v-.001a1.87 1.87 0 001.547.816h3.75v.938h.984a5.584 5.584 0 005.578-5.578c0-1.49-.58-2.89-1.634-3.945z" fill="#FFDD4D"/><path d="M17.813 17.813a.937.937 0 100-1.875.937.937 0 000 1.874z" fill="#273142"/><path d="M50.625 18.75v-1.875h-11.25v1.875h-8.438v15h-3.36c-.667-1.117-1.875-1.875-3.268-1.875h-.437A5.57 5.57 0 0019.688 30a.938.938 0 01-.937-.938v-.006a3.817 3.817 0 003.75-3.81V21.53a2.266 2.266 0 001.875-2.23c0-.595-.242-1.178-.662-1.6l-.389-.39a2.829 2.829 0 01-.825-1.988v-3.134h-4.688a.938.938 0 010-1.876h.938V8.438h-.938A2.816 2.816 0 0015 11.25c0 .138.022.27.04.402a5.53 5.53 0 00-3.733 4.427 2.815 2.815 0 00-1.932 2.671c0 1.223.784 2.265 1.875 2.652v7.66c0 .517-.42.938-.938.938-2.42 0-4.54 1.571-5.308 3.813-2.289.307-4.066 2.253-4.066 4.624a4.696 4.696 0 003.75 4.593v.448c0 3.144 1.468 5.947 3.75 7.774v7.81h16.874V45.148l.252-.408c.321-.523.604-1.065.868-1.615h4.506v11.25h28.125V18.75h-8.438zM36.562 43.125h2.068l3.557-1.524v5.274h9.376V37.5h-5.845c-.236-.538-.648-.99-1.21-1.23l-1.504-.645h8.559V26.25h-9.376v9.025L38.63 33.75h-2.068v-9.375h16.876V48.75H36.561v-5.625zm9.156-3.75h3.97V45h-5.626v-4.204l.445-.19c.562-.24.975-.693 1.211-1.231zm-1.948-.492l-4.395 1.883V36.11l4.395 1.884a.484.484 0 010 .889zm.292-5.133v-5.625h5.626v5.625h-5.626zm4.688-15v3.75h-7.5v-3.75h7.5zm-15.938 1.875h6.563V22.5h-4.688v11.25h-1.874V20.625zm4.688 15V37.5h-9.48c.063-.6.105-1.202.105-1.81 0-.022-.007-.042-.007-.065H37.5zm-11.25.066a15.35 15.35 0 01-.532 3.99l-3.389-.846-1.379-2.068a1.943 1.943 0 011.615-3.017h1.743c1.071 0 1.942.87 1.942 1.94zm-12 9.672l-1.344-2.238h3.58l-2.237 2.238zm4.112-4.113h-8.05v-1.875h9.925l-1.875 1.875zm.395-5.625c0 .023-.007.043-.007.066 0 .637.166 1.253.467 1.809h-8.904v-1.875h8.444zm.93-3.75c.497 0 .968.115 1.41.295a3.824 3.824 0 00-1.799 1.58h-2.781l1.301-2.602c.498.447 1.15.727 1.87.727zm-.774-8.438h1.712v1.708a2.846 2.846 0 01-1.712-1.707zm-6.726-5.625h.938v-.937a3.642 3.642 0 012.822-3.536 2.792 2.792 0 001.866.723h2.812v1.26a4.66 4.66 0 001.372 3.314l.389.389a.388.388 0 01-.274.663h-1.487v1.875h-3.75v.937c0 1.933 1.217 3.617 2.933 4.323a1.921 1.921 0 01-2.2.038L15.52 25.47l-1.04 1.56 2.087 1.391c.1.066.205.118.309.175v.244L15 32.59l-1.875-3.75v-9.152h-.938a.938.938 0 010-1.875zm-1.874 14.063c.72 0 1.371-.28 1.869-.727l1.301 2.602h-6.41a3.759 3.759 0 013.24-1.875zm-7.5 6.563a2.816 2.816 0 012.812-2.813h2.813v5.625H5.624a2.816 2.816 0 01-2.813-2.813zm3.75 5.04v-.353h4.156l2.163 3.605-1.357 1.357 1.325 1.326 8.813-8.813 3.454.864c-.321.791-.7 1.56-1.15 2.293l-2.436 3.959a8.03 8.03 0 01-6.884 3.846c-4.458 0-8.085-3.626-8.085-8.084zm16.875 13.71H10.313V52.43a9.877 9.877 0 004.334 1.007 9.895 9.895 0 008.481-4.74l.31-.502v8.992zm4.285-17.813H37.5v1.875H27.198c.209-.615.387-1.24.525-1.875zM57.188 52.5H32.811v-9.375h1.876v7.5h20.624V22.5h-4.687v-1.875h6.563V52.5z" fill="#273142"/><path d="M44.33 32.15l3.75-3.75 1.325 1.327-3.75 3.75-1.326-1.326zm-.002 11.25l3.75-3.75 1.326 1.326-3.75 3.75-1.326-1.326z" fill="#273142"/></svg>