<svg width="60" height="60" fill="none" xmlns="http://www.w3.org/2000/svg"><path d="M38.438 14.063h-18.75a3.75 3.75 0 00-3.75 3.75v35.624a3.75 3.75 0 003.75 3.75h18.75a3.75 3.75 0 003.75-3.75V17.813a3.75 3.75 0 00-3.75-3.75z" fill="#fff"/><path d="M42.188 17.813v35.624a3.75 3.75 0 01-3.75 3.75h-3.75a3.75 3.75 0 003.75-3.75V17.813a3.75 3.75 0 00-3.75-3.75h3.75a3.75 3.75 0 013.75 3.75z" fill="#FFF5D5"/><path d="M57.188 32.813v2.812a4.688 4.688 0 01-9.376 0v-2.813h9.376z" fill="#FEE9AB"/><path d="M52.5 40.313H42.187v-22.5a3.75 3.75 0 00-3.75-3.75V7.5a4.688 4.688 0 019.376 0v28.125a4.688 4.688 0 004.687 4.688z" fill="#FFC80A"/><path d="M23.438 2.813h19.687A4.673 4.673 0 0038.437 7.5v14.063h-18.75v-15a3.75 3.75 0 013.75-3.75z" fill="#FEE9AB"/><path d="M34.688 49.688h3.75v3.75h-3.75v-3.75zm0-7.5h3.75v3.75h-3.75v-3.75zm0-7.5h3.75v3.75h-3.75v-3.75z" fill="#FFDE55"/><path d="M19.688 27.188h18.75v3.75h-18.75v-3.75z" fill="#FFFCF1"/><path d="M34.688 27.188h3.75v3.75h-3.75v-3.75z" fill="#FFF3CB"/><path d="M27.188 49.688h3.75v3.75h-3.75v-3.75zm0-7.5h3.75v3.75h-3.75v-3.75zm0-7.5h3.75v3.75h-3.75v-3.75zm-7.5 15h3.75v3.75h-3.75v-3.75zm0-7.5h3.75v3.75h-3.75v-3.75zm0-7.5h3.75v3.75h-3.75v-3.75z" fill="#FFDE55"/><path d="M12.188 25.313h3.75v26.25h-3.75v-26.25z" fill="#FFDD4D"/><path d="M8.438 25.313h3.75v26.25h-3.75v-26.25z" fill="#fff"/><path d="M2.813 25.313h5.624v26.25H2.814v-26.25z" fill="#FEE9AB"/><path d="M57.188 31.875H48.75V7.5a5.625 5.625 0 00-5.625-5.625H23.437a4.688 4.688 0 00-4.687 4.688v6.656A4.703 4.703 0 0015 17.813v6.562H2.812a.938.938 0 00-.937.938v26.25a.937.937 0 00.938.937H15v.938a4.688 4.688 0 004.688 4.687h18.75a4.688 4.688 0 004.687-4.688V41.25H52.5a5.625 5.625 0 005.625-5.625v-2.813a.938.938 0 00-.938-.937zM7.5 50.625H3.75V26.25H7.5v24.375zm3.75 0H9.375V26.25h1.875v24.375zm3.75 0h-1.875V26.25H15v24.375zm5.625-44.063a2.821 2.821 0 012.813-2.812h15.496A5.598 5.598 0 0037.5 7.5v13.125H20.625V6.562zM41.25 53.438a2.821 2.821 0 01-2.813 2.812h-18.75a2.821 2.821 0 01-2.812-2.813V17.813a2.822 2.822 0 011.875-2.644v6.393a.938.938 0 00.938.938h18.75a.938.938 0 00.937-.938V15.17a2.821 2.821 0 011.875 2.643v35.626zm1.875-14.063V17.812a4.703 4.703 0 00-3.75-4.593V7.5a3.75 3.75 0 017.5 0v28.125a5.605 5.605 0 001.444 3.75h-5.194zm13.125-3.75a3.75 3.75 0 11-7.5 0V33.75h7.5v1.875z" fill="#525A68"/><path d="M23.438 33.75h-3.75a.938.938 0 00-.938.938v3.75a.938.938 0 00.938.937h3.75a.938.938 0 00.937-.938v-3.75a.938.938 0 00-.938-.937zM22.5 37.5h-1.875v-1.875H22.5V37.5zm8.438-3.75h-3.75a.938.938 0 00-.938.938v3.75a.938.938 0 00.938.937h3.75a.938.938 0 00.937-.938v-3.75a.938.938 0 00-.938-.937zM30 37.5h-1.875v-1.875H30V37.5zm8.438-3.75h-3.75a.938.938 0 00-.938.938v3.75a.938.938 0 00.938.937h3.75a.938.938 0 00.937-.938v-3.75a.938.938 0 00-.938-.937zM37.5 37.5h-1.875v-1.875H37.5V37.5zm-14.062 3.75h-3.75a.938.938 0 00-.938.938v3.75a.938.938 0 00.938.937h3.75a.938.938 0 00.937-.938v-3.75a.938.938 0 00-.938-.937zM22.5 45h-1.875v-1.875H22.5V45zm8.438-3.75h-3.75a.938.938 0 00-.938.938v3.75a.938.938 0 00.938.937h3.75a.938.938 0 00.937-.938v-3.75a.938.938 0 00-.938-.937zM30 45h-1.875v-1.875H30V45zm8.438-3.75h-3.75a.938.938 0 00-.938.938v3.75a.938.938 0 00.938.937h3.75a.938.938 0 00.937-.938v-3.75a.938.938 0 00-.938-.937zM37.5 45h-1.875v-1.875H37.5V45zm-14.062 3.75h-3.75a.938.938 0 00-.938.938v3.75a.938.938 0 00.938.937h3.75a.938.938 0 00.937-.938v-3.75a.938.938 0 00-.938-.937zM22.5 52.5h-1.875v-1.875H22.5V52.5zm8.438-3.75h-3.75a.938.938 0 00-.938.938v3.75a.938.938 0 00.938.937h3.75a.938.938 0 00.937-.938v-3.75a.938.938 0 00-.938-.937zM30 52.5h-1.875v-1.875H30V52.5zm8.438-3.75h-3.75a.938.938 0 00-.938.938v3.75a.938.938 0 00.938.937h3.75a.938.938 0 00.937-.938v-3.75a.938.938 0 00-.938-.937zM37.5 52.5h-1.875v-1.875H37.5V52.5zm.938-26.25h-18.75a.938.938 0 00-.938.938v3.75a.938.938 0 00.938.937h18.75a.938.938 0 00.937-.938v-3.75a.938.938 0 00-.938-.937zM37.5 30H20.625v-1.875H37.5V30zm-5.625-15.937A2.822 2.822 0 0130 16.706v1.107h-1.875v-1.107a2.821 2.821 0 01-1.875-2.643h1.875a.937.937 0 10.938-.938 2.813 2.813 0 01-.938-5.456V6.563H30v1.106a2.822 2.822 0 011.875 2.644H30a.938.938 0 10-.938.937 2.821 2.821 0 012.813 2.813zm-30-12.188H3.75V3.75H1.875V1.875zm3.75 0h7.5V3.75h-7.5V1.875zM1.875 7.5H3.75v1.875H1.875V7.5zm3.75 0h7.5v1.875h-7.5V7.5zm-3.75 5.625H3.75V15H1.875v-1.875zm3.75 0h7.5V15h-7.5v-1.875zM56.25 45h1.875v1.875H56.25V45zm-9.375 0h7.5v1.875h-7.5V45zm9.375 5.625h1.875V52.5H56.25v-1.875zm-9.375 0h7.5V52.5h-7.5v-1.875zm9.375 5.625h1.875v1.875H56.25V56.25zm-9.375 0h7.5v1.875h-7.5V56.25z" fill="#525A68"/></svg>