<svg width="60" height="60" fill="none" xmlns="http://www.w3.org/2000/svg"><g clip-path="url(#clip0)"><path d="M30.963 8.508l-5.634.041a41.213 41.213 0 00-23.465 7.544l-.049.034a2.21 2.21 0 00-.275 3.382l.035.034a2.26 2.26 0 002.429.495c1.037-.415 2.46-.985 3.528-1.411.343-.137.628.291.37.555L5.368 21.78a2.508 2.508 0 00.288 3.756l.04.03a2.512 2.512 0 002.507.306l4.415-1.9a.43.43 0 01.526.634l-2.857 4.265a2.06 2.06 0 002.446 3.072l5.39-2.056L35.934 19.07 30.963 8.508z" fill="#fff"/><path d="M34.575 16.185l-3.612-7.677-5.437.04-14.085 23.45c.421.12.874.104 1.291-.055l5.39-2.056 12.945-7.86 3.508-5.842zm17.254 4.855l2.61 4.992a41.214 41.214 0 014.365 24.258l-.008.06a2.21 2.21 0 01-2.856 1.832l-.047-.015a2.26 2.26 0 01-1.578-1.912l-.411-3.778c-.04-.366-.553-.417-.665-.066l-1.101 3.46a2.508 2.508 0 01-3.452 1.51l-.045-.022a2.512 2.512 0 01-1.448-2.07l-.397-4.789c-.035-.426-.604-.544-.806-.167l-2.423 4.526a2.06 2.06 0 01-3.862-.716l-.717-5.724 1.181-20.805 11.66-.574z" fill="#fff"/><path d="M43.355 21.457l8.474-.417 2.519 4.818-14.085 23.45a2.058 2.058 0 01-.558-1.165l-.717-5.724.858-15.12 3.509-5.842z" fill="#fff"/><path d="M7.985 44.73a1.22 1.22 0 01-.418-1.672L32.183 2.073a1.22 1.22 0 011.673-.417l22.662 13.61a1.22 1.22 0 01.417 1.674L32.32 57.924a1.22 1.22 0 01-1.674.418L7.985 44.73z" fill="#FFD831"/><path d="M56.935 16.94a1.22 1.22 0 00-.417-1.673l-2.07-1.244a1.22 1.22 0 01.417 1.674L30.249 56.68a1.22 1.22 0 01-1.673.418l2.07 1.243a1.22 1.22 0 001.673-.417L56.935 16.94z" fill="#FFC80A"/><path d="M16.395 45.605l9.53 5.724a5.298 5.298 0 017.268-1.814l16.729-27.852a5.298 5.298 0 01-1.814-7.27l-9.53-5.723a5.298 5.298 0 01-7.269 1.814L14.581 38.336a5.298 5.298 0 011.814 7.27z" fill="#FFEFB6"/><path d="M48.108 14.393l-2.493-1.497a5.298 5.298 0 00.077 5.581 4.258 4.258 0 01.06 4.482L32.378 45.224a4.261 4.261 0 01-3.984 2.053 5.298 5.298 0 00-4.963 2.554l2.492 1.497a5.298 5.298 0 017.27-1.814l16.728-27.852a5.298 5.298 0 01-1.814-7.269z" fill="#FFC600"/><path d="M34.399 33.958a.879.879 0 00.944 1.483 6.838 6.838 0 001.682-1.624l.435.26a.879.879 0 10.905-1.507l-.54-.324a3.63 3.63 0 00.06-.217c.28-1.104-.098-2.282-.989-3.074-.815-.725-1.883-.962-2.787-.617-.44.168-.902.42-1.456.802l-3.484-2.093c.287-.37.584-.585 1.162-.864a.879.879 0 10-.766-1.583c-.968.468-1.462.906-1.91 1.537l-.546-.327a.88.88 0 00-.906 1.507l.616.37c-.48 1.53.138 3.068 1.143 3.927 1.3 1.111 3.009 1.11 4.355 0 .144-.12.292-.24.442-.36l2.753 1.653a5.18 5.18 0 01-1.113 1.05zm-5.294-3.68a1.99 1.99 0 01-.692-1.634l2.742 1.647c-.98.773-1.816.188-2.05-.013zm5.631-.297c.284-.109.673.004.992.288.25.223.483.588.49 1.012L34.35 30.16c.134-.07.263-.131.387-.178zm-7.193 7.859a.88.88 0 00-1.206.3l-1.277 2.127a.88.88 0 001.507.905l1.277-2.127a.879.879 0 00-.301-1.206zm10.623-15.982l1.277-2.127a.879.879 0 00-1.507-.905l-1.277 2.127a.879.879 0 001.507.905zm-7.841 30.421a.88.88 0 00-.906 1.507l.205.123a.879.879 0 10.906-1.507l-.205-.123zM13.489 42.166l-.205-.122a.879.879 0 10-.905 1.507l.205.123a.879.879 0 10.905-1.507zm37.525-24.335l.205.123a.879.879 0 10.906-1.507l-.205-.123a.88.88 0 00-.906 1.507zM34.178 7.719a.879.879 0 10.905-1.507l-.205-.124a.879.879 0 10-.904 1.508l.204.123z" fill="#525A68"/><path d="M48.56 13.64l-9.53-5.724a.88.88 0 00-1.205.301A4.424 4.424 0 0131.76 9.73a.88.88 0 00-1.206.301L13.827 37.883a.88.88 0 00.301 1.206 4.424 4.424 0 011.513 6.064.879.879 0 00.301 1.206l9.53 5.723a.88.88 0 001.205-.3 4.39 4.39 0 012.718-2.013 4.39 4.39 0 013.345.5.88.88 0 001.207-.302l3.304-5.502a.88.88 0 00-1.507-.905l-2.884 4.802a6.13 6.13 0 00-3.89-.299 6.13 6.13 0 00-3.294 2.091l-8.129-4.882a6.19 6.19 0 00-1.792-7.183l15.887-26.452a6.191 6.191 0 007.184-1.793l8.129 4.883a6.19 6.19 0 001.792 7.183L37.554 40.547a.88.88 0 001.507.905l11.614-19.337a.879.879 0 00-.301-1.206 4.424 4.424 0 01-1.513-6.063.88.88 0 00-.301-1.206z" fill="#525A68"/><path d="M55.218 25.625l-1.151-2.201 3.622-6.032a2.1 2.1 0 00-.718-2.879l-14.185-8.52a.88.88 0 00-.905 1.508l14.184 8.52a.34.34 0 01.117.466L31.566 57.472a.34.34 0 01-.467.116L8.438 43.978a.34.34 0 01-.117-.467L32.936 2.526a.342.342 0 01.468-.117l5.429 3.262c.413.247.963.146 1.224-.26a.879.879 0 00-.287-1.229L34.309.902a2.101 2.101 0 00-2.88.719l-3.622 6.03-2.485.02a42.343 42.343 0 00-18.259 4.317.879.879 0 10.776 1.578 40.576 40.576 0 0117.496-4.138l1.412-.01-11.749 19.56a5.076 5.076 0 01-2.542 2.13 1.227 1.227 0 01-1.09-.092 1.17 1.17 0 01-.521-.74 1.17 1.17 0 01.171-.916l2.858-4.265a1.3 1.3 0 00-.081-1.565 1.3 1.3 0 00-1.523-.365l-4.415 1.9c-1.035.445-2.232-.3-2.317-1.41a1.607 1.607 0 01.458-1.261l2.536-2.598a1.211 1.211 0 00.142-1.53 1.21 1.21 0 00-1.468-.456l-3.528 1.412c-.953.381-1.995-.406-1.915-1.397.056-.692.594-1 .608-1.015a40.565 40.565 0 012.29-1.5c.383-.234.56-.714.378-1.123a.88.88 0 00-1.262-.397c-1.349.82-2.197 1.434-2.468 1.619A3.082 3.082 0 00.01 17.682c-.186 2.285 2.154 4.039 4.32 3.172l1.168-.468-.76.78a3.386 3.386 0 00-.954 2.624c.177 2.31 2.625 3.81 4.765 2.89l3.015-1.298-2.009 3a2.926 2.926 0 00-.33 2.615c.174.505.49.956.905 1.293a2.95 2.95 0 001.864.669c.22 0 .441-.028.66-.079l-5.841 9.725a2.1 2.1 0 00.718 2.88l22.662 13.61a2.097 2.097 0 002.88-.718l5.839-9.723a2.938 2.938 0 005.429.62l1.703-3.183.271 3.271c.197 2.367 2.708 3.76 4.79 2.85a3.386 3.386 0 001.869-2.075l.33-1.038.136 1.25c.25 2.294 2.878 3.576 4.83 2.325a3.083 3.083 0 001.397-2.215c-.026-.984 2.181-12.148-4.45-24.834zm2.706 24.615a1.332 1.332 0 01-1.72 1.104c-.011-.008-.91-.226-1.015-1.184-.12-1.11-.287-2.635-.412-3.778a1.211 1.211 0 00-1.091-1.082 1.21 1.21 0 00-1.285.844l-1.101 3.46c-.542 1.703-3.085 1.38-3.231-.387l-.397-4.79a1.3 1.3 0 00-1.038-1.172 1.3 1.3 0 00-1.42.663l-2.422 4.526a1.18 1.18 0 01-1.688.432 1.223 1.223 0 01-.531-.879v-.003c-.142-1.127.1-2.27.685-3.244l11.748-19.56.654 1.25c6.399 12.24 4.246 23.132 4.264 23.8z" fill="#525A68"/><path d="M12.785 17.235c.043-.027 4.335-2.689 8.353-1.67a.879.879 0 10.432-1.705c-4.74-1.202-9.52 1.76-9.722 1.888a.88.88 0 00.937 1.487zM49.541 32.93a.879.879 0 00-.268 1.215c2.217 3.472 1.056 8.39 1.04 8.455a.88.88 0 001.706.421c.058-.23 1.367-5.7-1.264-9.822a.879.879 0 00-1.214-.268z" fill="#525A68"/></g><defs><clipPath id="clip0"><path fill="#fff" d="M0 0h60v60H0z"/></clipPath></defs></svg>