<svg width="31" height="30" fill="none" xmlns="http://www.w3.org/2000/svg"><g clip-path="url(#clip0)"><rect x=".361" width="30" height="30" rx="2" fill="url(#paint0_linear)"/><path d="M15.362 6.009c-3.687 0-7.187-.328-8.525 3.1-.552 1.417-.472 3.256-.472 5.89 0 2.31-.074 4.483.472 5.888 1.335 3.43 4.864 3.102 8.523 3.102 3.53 0 7.17.367 8.523-3.102.553-1.43.472-3.243.472-5.888 0-3.512.194-5.78-1.511-7.482-1.726-1.724-4.06-1.508-7.487-1.508h.005zm-.807 1.62c7.69-.012 8.669-.867 8.129 11-.192 4.196-3.39 3.736-7.321 3.736-7.168 0-7.374-.205-7.374-7.37 0-7.249.568-7.362 6.566-7.368v.002zm5.609 1.492a1.079 1.079 0 10-.001 2.158 1.079 1.079 0 000-2.158zm-4.802 1.261a4.618 4.618 0 00-4.62 4.617 4.618 4.618 0 004.62 4.615 4.617 4.617 0 100-9.232zm0 1.62c3.964 0 3.97 5.993 0 5.993-3.964 0-3.97-5.993 0-5.993z" fill="#fff"/></g><defs><linearGradient id="paint0_linear" x1="2.376" y1="28.046" x2="30.173" y2="3.983" gradientUnits="userSpaceOnUse"><stop stop-color="#FD5"/><stop offset=".5" stop-color="#FF543E"/><stop offset="1" stop-color="#C837AB"/></linearGradient><clipPath id="clip0"><path fill="#fff" transform="translate(.361)" d="M0 0h30v30H0z"/></clipPath></defs></svg>