<svg width="30" height="30" fill="none" xmlns="http://www.w3.org/2000/svg"><g clip-path="url(#clip0)"><rect width="29.362" height="30" rx="2" fill="#4D76A1"/><path fill-rule="evenodd" clip-rule="evenodd" d="M14.477 20.95h1.23s.372-.042.562-.251c.175-.192.169-.552.169-.552s-.024-1.687.742-1.936c.756-.244 1.726 1.63 2.754 2.352.778.546 1.368.426 1.368.426l2.75-.04s1.438-.09.756-1.245c-.056-.095-.397-.855-2.044-2.417-1.724-1.635-1.493-1.37.583-4.198 1.265-1.722 1.77-2.774 1.613-3.224-.15-.43-1.081-.316-1.081-.316l-3.096.02s-.23-.032-.4.072c-.166.102-.273.34-.273.34s-.49 1.332-1.143 2.466c-1.378 2.391-1.93 2.517-2.155 2.369-.524-.346-.393-1.39-.393-2.132 0-2.318.344-3.284-.67-3.534-.337-.084-.584-.138-1.445-.147-1.104-.012-2.039.003-2.568.268-.353.176-.624.569-.459.592.205.028.668.127.914.469.317.44.306 1.431.306 1.431s.182 2.729-.426 3.068c-.417.232-.99-.243-2.218-2.412-.63-1.112-1.105-2.34-1.105-2.34s-.092-.23-.256-.353a1.275 1.275 0 00-.475-.196l-2.942.02s-.441.012-.604.209c-.144.174-.011.535-.011.535s2.303 5.505 4.91 8.28c2.392 2.543 5.107 2.376 5.107 2.376z" fill="#fff"/></g><defs><clipPath id="clip0"><path fill="#fff" d="M0 0h29.362v30H0z"/></clipPath></defs></svg>