<svg width="40" height="40" viewBox="0 0 40 40" fill="none" xmlns="http://www.w3.org/2000/svg">
<path d="M35.3768 15.8594C35.4486 15.8594 35.5198 15.8453 35.5861 15.8178C35.6525 15.7904 35.7128 15.7501 35.7636 15.6993C35.8144 15.6485 35.8547 15.5882 35.8821 15.5218C35.9096 15.4555 35.9237 15.3843 35.9237 15.3125V12.9687C35.9237 12.8969 35.9096 12.8258 35.8821 12.7594C35.8547 12.693 35.8144 12.6327 35.7636 12.582C35.7128 12.5312 35.6525 12.4909 35.5861 12.4634C35.5198 12.4359 35.4486 12.4218 35.3768 12.4219H32.3437V8.98437C32.3442 8.87475 32.3115 8.76754 32.2499 8.67687L29.2812 4.31562C29.2283 4.24578 29.16 4.18913 29.0816 4.15012C29.0032 4.11112 28.9169 4.09082 28.8293 4.09082C28.7417 4.09082 28.6553 4.11112 28.5769 4.15012C28.4985 4.18913 28.4302 4.24578 28.3774 4.31562L25.4062 8.67687C25.3446 8.76754 25.3119 8.87475 25.3124 8.98437V12.4219H23.5155V8.98437C23.5161 8.87475 23.4834 8.76754 23.4218 8.67687L20.453 4.31562C20.4002 4.24578 20.3319 4.18913 20.2535 4.15012C20.1751 4.11112 20.0887 4.09082 20.0012 4.09082C19.9136 4.09082 19.8272 4.11112 19.7488 4.15012C19.6704 4.18913 19.6021 4.24578 19.5493 4.31562L16.5805 8.67687C16.5189 8.76754 16.4862 8.87475 16.4868 8.98437V12.4219H14.6874V8.98437C14.688 8.87475 14.6553 8.76754 14.5937 8.67687L11.6249 4.31562C11.5721 4.24578 11.5038 4.18913 11.4254 4.15012C11.347 4.11112 11.2606 4.09082 11.173 4.09082C11.0855 4.09082 10.9991 4.11112 10.9207 4.15012C10.8423 4.18913 10.774 4.24578 10.7212 4.31562L7.74992 8.67687C7.6883 8.76754 7.65562 8.87475 7.65617 8.98437V12.4219H4.62305C4.55122 12.4218 4.48009 12.4359 4.41372 12.4634C4.34735 12.4909 4.28705 12.5312 4.23626 12.582C4.18547 12.6327 4.14519 12.693 4.11772 12.7594C4.09025 12.8258 4.07613 12.8969 4.07617 12.9687V15.3125C4.07613 15.3843 4.09025 15.4555 4.11772 15.5218C4.14519 15.5882 4.18547 15.6485 4.23626 15.6993C4.28705 15.7501 4.34735 15.7904 4.41372 15.8178C4.48009 15.8453 4.55122 15.8594 4.62305 15.8594H7.65617V27.7344H4.62305C4.55122 27.7343 4.48009 27.7485 4.41372 27.7759C4.34735 27.8034 4.28705 27.8437 4.23626 27.8945C4.18547 27.9452 4.14519 28.0056 4.11772 28.0719C4.09025 28.1383 4.07613 28.2094 4.07617 28.2812V30.625C4.07613 30.6968 4.09025 30.768 4.11772 30.8343C4.14519 30.9007 4.18547 30.961 4.23626 31.0118C4.28705 31.0626 4.34735 31.1029 4.41372 31.1303C4.48009 31.1578 4.55122 31.1719 4.62305 31.1719H7.65617V35.3769C7.65613 35.4487 7.67025 35.5198 7.69772 35.5862C7.72518 35.6526 7.76547 35.7129 7.81626 35.7637C7.86705 35.8145 7.92735 35.8547 7.99372 35.8822C8.06009 35.9097 8.13122 35.9238 8.20305 35.9238H14.1405C14.2124 35.9238 14.2835 35.9097 14.3499 35.8822C14.4162 35.8547 14.4765 35.8145 14.5273 35.7637C14.5781 35.7129 14.6184 35.6526 14.6459 35.5862C14.6733 35.5198 14.6875 35.4487 14.6874 35.3769V31.1719H16.4843V35.3769C16.4843 35.4487 16.4984 35.5198 16.5258 35.5862C16.5533 35.6526 16.5936 35.7129 16.6444 35.7637C16.6952 35.8145 16.7555 35.8547 16.8218 35.8822C16.8882 35.9097 16.9593 35.9238 17.0312 35.9238H22.9687C23.0405 35.9238 23.1116 35.9097 23.178 35.8822C23.2444 35.8547 23.3047 35.8145 23.3555 35.7637C23.4062 35.7129 23.4465 35.6526 23.474 35.5862C23.5015 35.5198 23.5156 35.4487 23.5155 35.3769V31.1719H25.3124V35.3769C25.3124 35.4487 25.3265 35.5198 25.354 35.5862C25.3814 35.6526 25.4217 35.7129 25.4725 35.7637C25.5233 35.8145 25.5836 35.8547 25.65 35.8822C25.7163 35.9097 25.7875 35.9238 25.8593 35.9238H31.7968C31.8686 35.9238 31.9398 35.9097 32.0061 35.8822C32.0725 35.8547 32.1328 35.8145 32.1836 35.7637C32.2344 35.7129 32.2747 35.6526 32.3021 35.5862C32.3296 35.5198 32.3437 35.4487 32.3437 35.3769V31.1719H35.3768C35.4486 31.1719 35.5198 31.1578 35.5861 31.1303C35.6525 31.1029 35.7128 31.0626 35.7636 31.0118C35.8144 30.961 35.8547 30.9007 35.8821 30.8343C35.9096 30.768 35.9237 30.6968 35.9237 30.625V28.2812C35.9237 28.2094 35.9096 28.1383 35.8821 28.0719C35.8547 28.0056 35.8144 27.9452 35.7636 27.8945C35.7128 27.8437 35.6525 27.8034 35.5861 27.7759C35.5198 27.7485 35.4486 27.7343 35.3768 27.7344H32.3437V15.8594H35.3768ZM34.8299 13.5156V14.7656H32.3437V13.5156H34.8299ZM23.5155 15.8594H25.3124V27.7344H23.5155V15.8594ZM25.3124 13.5156V14.7656H23.5155V13.5156H25.3124ZM14.6874 15.8594H16.4843V27.7344H14.6874V15.8594ZM16.4843 13.5156V14.7656H14.6874V13.5156H16.4843ZM5.16992 14.7656V13.5156H7.65617V14.7656H5.16992ZM5.16992 30.0781V28.8281H7.65617V30.0781H5.16992ZM13.5937 34.83H8.74992V9.15281L11.1718 5.59374L13.5937 9.15281V34.83ZM14.6874 30.0781V28.8281H16.4843V30.0781H14.6874ZM22.4218 34.83H17.578V9.15281L19.9999 5.59374L22.4218 9.15156V34.83ZM23.5155 30.0781V28.8281H25.3124V30.0781H23.5155ZM31.2499 34.83H26.4062V9.15281L28.828 5.59374L31.2499 9.15281V34.83ZM34.8299 28.8281V30.0781H32.3437V28.8281H34.8299Z" fill="#273142"/>
<path d="M11.1718 13.3008C11.0192 13.3008 10.87 13.346 10.7431 13.4308C10.6163 13.5156 10.5174 13.6361 10.459 13.7772C10.4006 13.9182 10.3853 14.0733 10.4151 14.223C10.4449 14.3727 10.5184 14.5101 10.6264 14.618C10.7343 14.7259 10.8718 14.7994 11.0215 14.8291C11.1712 14.8589 11.3263 14.8435 11.4673 14.7851C11.6083 14.7266 11.7288 14.6277 11.8135 14.5008C11.8983 14.3738 11.9435 14.2246 11.9434 14.072C11.9431 13.8675 11.8618 13.6714 11.7171 13.5268C11.5725 13.3822 11.3764 13.3009 11.1718 13.3008Z" fill="#273142"/>
<path d="M20 13.3008C19.8473 13.3008 19.6982 13.346 19.5713 13.4308C19.4444 13.5156 19.3455 13.6361 19.2871 13.7772C19.2287 13.9182 19.2134 14.0733 19.2432 14.223C19.273 14.3727 19.3466 14.5101 19.4545 14.618C19.5624 14.7259 19.6999 14.7994 19.8496 14.8291C19.9993 14.8589 20.1545 14.8435 20.2954 14.7851C20.4364 14.7266 20.5569 14.6277 20.6416 14.5008C20.7264 14.3738 20.7716 14.2246 20.7715 14.072C20.7713 13.8675 20.6899 13.6714 20.5452 13.5268C20.4006 13.3822 20.2045 13.3009 20 13.3008Z" fill="#273142"/>
<path d="M28.8281 13.3008C28.6755 13.3008 28.5263 13.346 28.3994 13.4308C28.2725 13.5156 28.1736 13.6361 28.1152 13.7772C28.0568 13.9182 28.0416 14.0733 28.0714 14.223C28.1012 14.3727 28.1747 14.5101 28.2826 14.618C28.3906 14.7259 28.5281 14.7994 28.6777 14.8291C28.8274 14.8589 28.9826 14.8435 29.1236 14.7851C29.2645 14.7266 29.385 14.6277 29.4698 14.5008C29.5545 14.3738 29.5997 14.2246 29.5996 14.072C29.5994 13.8675 29.518 13.6714 29.3734 13.5268C29.2287 13.3822 29.0326 13.3009 28.8281 13.3008Z" fill="#273142"/>
<path d="M11.1718 28.6816C11.0192 28.6816 10.8701 28.7269 10.7432 28.8117C10.6163 28.8965 10.5174 29.017 10.459 29.1579C10.4006 29.2989 10.3853 29.4541 10.4151 29.6037C10.4449 29.7534 10.5183 29.8909 10.6263 29.9988C10.7342 30.1067 10.8716 30.1802 11.0213 30.2099C11.171 30.2397 11.3261 30.2244 11.4671 30.166C11.6081 30.1076 11.7286 30.0087 11.8134 29.8819C11.8981 29.755 11.9434 29.6058 11.9434 29.4532C11.9431 29.2486 11.8618 29.0525 11.7171 28.9079C11.5725 28.7633 11.3764 28.6819 11.1718 28.6816Z" fill="#273142"/>
<path d="M20 28.6816C19.8474 28.6816 19.6982 28.7269 19.5713 28.8117C19.4444 28.8965 19.3455 29.017 19.2871 29.1579C19.2287 29.2989 19.2134 29.4541 19.2432 29.6037C19.273 29.7534 19.3465 29.8909 19.4544 29.9988C19.5623 30.1067 19.6998 30.1802 19.8494 30.2099C19.9991 30.2397 20.1542 30.2244 20.2952 30.166C20.4362 30.1076 20.5567 30.0087 20.6415 29.8819C20.7263 29.755 20.7715 29.6058 20.7715 29.4532C20.7713 29.2486 20.6899 29.0525 20.5453 28.9079C20.4006 28.7633 20.2045 28.6819 20 28.6816Z" fill="#273142"/>
<path d="M28.8281 28.6816C28.6755 28.6816 28.5263 28.7269 28.3994 28.8117C28.2725 28.8965 28.1736 29.017 28.1153 29.1579C28.0569 29.2989 28.0416 29.4541 28.0713 29.6037C28.1011 29.7534 28.1746 29.8909 28.2825 29.9988C28.3904 30.1067 28.5279 30.1802 28.6776 30.2099C28.8272 30.2397 28.9824 30.2244 29.1233 30.166C29.2643 30.1076 29.3848 30.0087 29.4696 29.8819C29.5544 29.755 29.5996 29.6058 29.5996 29.4532C29.5994 29.2486 29.518 29.0525 29.3734 28.9079C29.2287 28.7633 29.0326 28.6819 28.8281 28.6816Z" fill="#273142"/>
</svg>
