<svg width="80" height="80" viewBox="0 0 80 80" fill="none" xmlns="http://www.w3.org/2000/svg">
<path d="M73.75 12.5H63.75V17.5H60V25H63.75V27.5H16.25V25H20V17.5H16.25V12.5H6.25V17.5H2.5V25H6.25V60H2.5V67.5H20V60H16.25V57.5H63.75V60H60V67.5H77.5V60H73.75V25H77.5V17.5H73.75V12.5ZM66.25 15H71.25V17.5H66.25V15ZM8.75 15H13.75V17.5H8.75V15ZM17.5 62.5V65H5V62.5H17.5ZM8.75 60V25H13.75V60H8.75ZM5 22.5V20H17.5V22.5H5ZM16.25 55V40H35V37.5H16.25V30H63.75V42.5H52.5V45H63.75V55H16.25ZM75 62.5V65H62.5V62.5H75ZM66.25 60V25H71.25V60H66.25ZM75 20V22.5H62.5V20H75Z" fill="#273142"/>
<path d="M21.25 50H18.75V52.5H21.25V50Z" fill="#273142"/>
<path d="M61.25 50H58.75V52.5H61.25V50Z" fill="#273142"/>
<path d="M38.75 42.5H18.75V45H38.75V42.5Z" fill="#273142"/>
<path d="M51.25 47.5H31.25V50H51.25V47.5Z" fill="#273142"/>
<path d="M56.25 32.5H36.25V35H56.25V32.5Z" fill="#273142"/>
<path d="M51.25 37.5H41.25V40H51.25V37.5Z" fill="#273142"/>
<path d="M31.25 32.5H28.75V35H31.25V32.5Z" fill="#273142"/>
</svg>
