<svg width="80" height="80" viewBox="0 0 80 80" fill="none" xmlns="http://www.w3.org/2000/svg">
<path d="M80 17.3334V12C80 11.2637 79.403 10.6667 78.6667 10.6667H70.6667C69.9303 10.6667 69.3333 11.2637 69.3333 12V17.3334C69.3333 18.0697 69.9303 18.6667 70.6667 18.6667V24H63.0371C63.5098 23.1778 64.3848 22.6693 65.3333 22.6667C66.0697 22.6667 66.6667 22.0697 66.6667 21.3334V13.3334H64V20.168C62.1296 20.6608 60.6712 22.127 60.1882 24H51.0371C51.5098 23.1778 52.3848 22.6693 53.3333 22.6667C54.0697 22.6667 54.6667 22.0697 54.6667 21.3334V13.3334H52V20.168C50.1296 20.6608 48.6712 22.127 48.1882 24H39.0371C39.5098 23.1778 40.3848 22.6693 41.3333 22.6667C42.0697 22.6667 42.6667 22.0697 42.6667 21.3334V13.3334H40V20.168C38.1296 20.6608 36.6712 22.127 36.1882 24H28.3704C28.8431 23.1778 29.7181 22.6693 30.6667 22.6667C31.403 22.6667 32 22.0697 32 21.3334V13.3334H29.3333V20.168C27.4629 20.6608 26.0046 22.127 25.5215 24H16.3704C16.8431 23.1778 17.7181 22.6693 18.6667 22.6667C19.403 22.6667 20 22.0697 20 21.3334V13.3334H17.3333V20.168C15.4629 20.6608 14.0046 22.127 13.5215 24H9.33333V18.6667C10.0697 18.6667 10.6667 18.0697 10.6667 17.3334V12C10.6667 11.2637 10.0697 10.6667 9.33333 10.6667H1.33333C0.597005 10.6667 0 11.2637 0 12V17.3334C0 18.0697 0.597005 18.6667 1.33333 18.6667V61.3334C0.597005 61.3334 0 61.9304 0 62.6667V68C0 68.7364 0.597005 69.3334 1.33333 69.3334H9.33333C10.0697 69.3334 10.6667 68.7364 10.6667 68V62.6667C10.6667 61.9304 10.0697 61.3334 9.33333 61.3334V56H13.5215C14.0046 57.8731 15.4629 59.3392 17.3333 59.8321V66.6667H20V58.6667C20 57.9304 19.403 57.3334 18.6667 57.3334C17.7181 57.3307 16.8431 56.8223 16.3704 56H25.5215C26.0046 57.8731 27.4629 59.3392 29.3333 59.8321V66.6667H32V58.6667C32 57.9304 31.403 57.3334 30.6667 57.3334C29.7181 57.3307 28.8431 56.8223 28.3704 56H36.1882C36.6712 57.8731 38.1296 59.3392 40 59.8321V66.6667H42.6667V58.6667C42.6667 57.9304 42.0697 57.3334 41.3333 57.3334C40.3848 57.3307 39.5098 56.8223 39.0371 56H48.1882C48.6712 57.8731 50.1296 59.3392 52 59.8321V66.6667H54.6667V58.6667C54.6667 57.9304 54.0697 57.3334 53.3333 57.3334C52.3848 57.3307 51.5098 56.8223 51.0371 56H60.1882C60.6712 57.8731 62.1296 59.3392 64 59.8321V66.6667H66.6667V58.6667C66.6667 57.9304 66.0697 57.3334 65.3333 57.3334C64.3848 57.3307 63.5098 56.8223 63.0371 56H70.6667V61.3334C69.9303 61.3334 69.3333 61.9304 69.3333 62.6667V68C69.3333 68.7364 69.9303 69.3334 70.6667 69.3334H78.6667C79.403 69.3334 80 68.7364 80 68V62.6667C80 61.9304 79.403 61.3334 78.6667 61.3334V18.6667C79.403 18.6667 80 18.0697 80 17.3334ZM72 13.3334H77.3333V16H72V13.3334ZM70.6667 38.6667H63.0371C63.5098 37.8444 64.3848 37.336 65.3333 37.3334C66.0697 37.3334 66.6667 36.7363 66.6667 36V29.3334C66.6667 28.597 66.0697 28 65.3333 28C64.3848 27.9974 63.5098 27.489 63.0371 26.6667H70.6667V38.6667ZM64 45.1654V49.5013C62.1296 49.9942 60.6712 51.4603 60.1882 53.3334H51.0371C51.5098 52.5111 52.3848 52.0026 53.3333 52C54.0697 52 54.6667 51.403 54.6667 50.6667V44C54.6667 43.2637 54.0697 42.6667 53.3333 42.6667C52.3848 42.6641 51.5098 42.1556 51.0371 41.3334H60.1882C60.6712 43.2064 62.1296 44.6725 64 45.1654ZM18.6667 42.6667C17.7181 42.6641 16.8431 42.1556 16.3704 41.3334H25.5215C26.0046 43.2064 27.4629 44.6725 29.3333 45.1654V49.5013C27.4629 49.9942 26.0046 51.4603 25.5215 53.3334H16.3704C16.8431 52.5111 17.7181 52.0026 18.6667 52C19.403 52 20 51.403 20 50.6667V44C20 43.2637 19.403 42.6667 18.6667 42.6667ZM18.6667 28C17.7181 27.9974 16.8431 27.489 16.3704 26.6667H25.5215C26.0046 28.5397 27.4629 30.0059 29.3333 30.4987V34.8347C27.4629 35.3275 26.0046 36.7936 25.5215 38.6667H16.3704C16.8431 37.8444 17.7181 37.336 18.6667 37.3334C19.403 37.3334 20 36.7363 20 36V29.3334C20 28.597 19.403 28 18.6667 28ZM64 30.4987V34.8347C62.1296 35.3275 60.6712 36.7936 60.1882 38.6667H51.0371C51.5098 37.8444 52.3848 37.336 53.3333 37.3334C54.0697 37.3334 54.6667 36.7363 54.6667 36V29.3334C54.6667 28.597 54.0697 28 53.3333 28C52.3848 27.9974 51.5098 27.489 51.0371 26.6667H60.1882C60.6712 28.5397 62.1296 30.0059 64 30.4987ZM52 30.4987V34.8347C50.1296 35.3275 48.6712 36.7936 48.1882 38.6667H39.0371C39.5098 37.8444 40.3848 37.336 41.3333 37.3334C42.0697 37.3334 42.6667 36.7363 42.6667 36V29.3334C42.6667 28.597 42.0697 28 41.3333 28C40.3848 27.9974 39.5098 27.489 39.0371 26.6667H48.1882C48.6712 28.5397 50.1296 30.0059 52 30.4987ZM40 30.4987V34.8347C38.1296 35.3275 36.6712 36.7936 36.1882 38.6667H28.3704C28.8431 37.8444 29.7181 37.336 30.6667 37.3334C31.403 37.3334 32 36.7363 32 36V29.3334C32 28.597 31.403 28 30.6667 28C29.7181 27.9974 28.8431 27.489 28.3704 26.6667H36.1882C36.6712 28.5397 38.1296 30.0059 40 30.4987ZM30.6667 52C31.403 52 32 51.403 32 50.6667V44C32 43.2637 31.403 42.6667 30.6667 42.6667C29.7181 42.6641 28.8431 42.1556 28.3704 41.3334H36.1882C36.6712 43.2064 38.1296 44.6725 40 45.1654V49.5013C38.1296 49.9942 36.6712 51.4603 36.1882 53.3334H28.3704C28.8431 52.5111 29.7181 52.0026 30.6667 52ZM41.3333 52C42.0697 52 42.6667 51.403 42.6667 50.6667V44C42.6667 43.2637 42.0697 42.6667 41.3333 42.6667C40.3848 42.6641 39.5098 42.1556 39.0371 41.3334H48.1882C48.6712 43.2064 50.1296 44.6725 52 45.1654V49.5013C50.1296 49.9942 48.6712 51.4603 48.1882 53.3334H39.0371C39.5098 52.5111 40.3848 52.0026 41.3333 52ZM13.5215 26.6667C14.0046 28.5397 15.4629 30.0059 17.3333 30.4987V34.8347C15.4629 35.3275 14.0046 36.7936 13.5215 38.6667H9.33333V26.6667H13.5215ZM2.66667 13.3334H8V16H2.66667V13.3334ZM8 66.6667H2.66667V64H8V66.6667ZM4 61.3334V18.6667H6.66667V61.3334H4ZM9.33333 41.3334H13.5215C14.0046 43.2064 15.4629 44.6725 17.3333 45.1654V49.5013C15.4629 49.9942 14.0046 51.4603 13.5215 53.3334H9.33333V41.3334ZM63.0371 53.3334C63.5098 52.5111 64.3848 52.0026 65.3333 52C66.0697 52 66.6667 51.403 66.6667 50.6667V44C66.6667 43.2637 66.0697 42.6667 65.3333 42.6667C64.3848 42.6641 63.5098 42.1556 63.0371 41.3334H70.6667V53.3334H63.0371ZM77.3333 66.6667H72V64H77.3333V66.6667ZM76 61.3334H73.3333V18.6667H76V61.3334Z" fill="#273142"/>
</svg>
