<svg width="80" height="80" viewBox="0 0 80 80" fill="none" xmlns="http://www.w3.org/2000/svg">
<path fill-rule="evenodd" clip-rule="evenodd" d="M73.75 16.25H76.25C77.6288 16.25 78.75 17.3712 78.75 18.75V63.8281H1.25V18.75C1.25 17.3712 2.37125 16.25 3.75 16.25H6.25C7.62875 16.25 8.75 17.3712 8.75 18.75V21.3281H36.25H43.75H71.25V18.75C71.25 17.3712 72.3712 16.25 73.75 16.25ZM6.25 61.3281H3.75V18.75H6.25V61.3281ZM48.6175 45.0781L52.14 41.1144L55.7988 45.0781L52.14 49.0419L48.6175 45.0781ZM50.4362 50.8881L46.4563 55.2006L43.75 52.1081V50.5531L46.945 46.9594L50.4362 50.8881ZM62.895 37.3906L59.1725 33.2031L62.5537 29.3994L66.5675 33.4131L62.895 37.3906ZM68.3363 35.1819L71.25 38.0956V39.6019L68.055 43.1956L64.5638 39.2681L68.3363 35.1819ZM61.1912 39.2369L57.5 43.2356L53.8088 39.2369L57.5 35.0856L61.1912 39.2369ZM65.5175 28.8281H70.7988L68.2637 31.5744L65.5175 28.8281ZM57.5 31.3206L55.2838 28.8281H59.7162L57.5 31.3206ZM52.4463 29.3994L55.8275 33.2031L52.105 37.3906L48.4325 33.4131L52.4463 29.3994ZM46.7363 31.5744L44.2012 28.8281H49.4825L46.7363 31.5744ZM50.4362 39.2681L46.945 43.1956L43.75 39.6019V38.0956L46.6637 35.1819L50.4362 39.2681ZM57.5 46.9206L61.1912 50.9194L57.5 55.0706L53.8088 50.9181L57.5 46.9206ZM59.2012 45.0781L62.86 41.1144L66.3825 45.0781L62.86 49.0419L59.2012 45.0781ZM68.055 46.9606L71.25 50.5544V52.1094L68.545 55.2019L64.565 50.8894L68.055 46.9606ZM71.25 46.7894L69.7288 45.0781L71.25 43.3669V46.7894ZM71.25 34.5606L70.0325 33.3431L71.25 32.0256V34.5606ZM71.25 23.8281V26.3281H43.75V23.8281H71.25ZM44.9675 33.3431L43.75 34.5606V32.0256L44.9675 33.3431ZM45.2712 45.0781L43.75 46.7894V43.3656L45.2712 45.0781ZM44.75 57.0481L43.75 58.1306V55.9044L44.75 57.0481ZM46.4062 58.9394L48.495 61.3281H44.2012L46.4062 58.9394ZM51.8175 61.3281L48.1112 57.0919L52.105 52.7656L55.8275 56.9531L51.9387 61.3281H51.8175ZM57.5 58.8356L59.7162 61.3281H55.2838L57.5 58.8356ZM63.0613 61.3281L59.1725 56.9531L62.895 52.7656L66.8887 57.0919L63.1825 61.3281H63.0613ZM68.5938 58.9394L70.7988 61.3281H66.505L68.5938 58.9394ZM70.25 57.0481L71.25 55.9056V58.1319L70.25 57.0481ZM36.25 58.1306L35.25 57.0469L36.25 55.9044V58.1306ZM13.6175 45.0781L17.14 41.1144L20.7987 45.0781L17.14 49.0419L13.6175 45.0781ZM15.4362 50.8881L11.4563 55.2006L8.75 52.1081V50.5531L11.945 46.9594L15.4362 50.8881ZM27.895 37.3906L24.1725 33.2031L27.5537 29.3994L31.5675 33.4131L27.895 37.3906ZM33.3363 35.1819L36.25 38.0956V39.6019L33.055 43.1956L29.5637 39.2681L33.3363 35.1819ZM26.1912 39.2369L22.5 43.2356L18.8088 39.2369L22.5 35.0856L26.1912 39.2369ZM30.5175 28.8281H35.7988L33.2637 31.5744L30.5175 28.8281ZM22.5 31.3206L20.2837 28.8281H24.7163L22.5 31.3206ZM17.4462 29.3994L20.8275 33.2031L17.105 37.3906L13.4325 33.4131L17.4462 29.3994ZM11.7362 31.5744L9.20125 28.8281H14.4825L11.7362 31.5744ZM15.4362 39.2681L11.945 43.1956L8.75 39.6019V38.0956L11.6638 35.1819L15.4362 39.2681ZM22.5 46.9206L26.1912 50.9194L22.5 55.0706L18.8088 50.9181L22.5 46.9206ZM24.2013 45.0781L27.86 41.1144L31.3825 45.0781L27.86 49.0419L24.2013 45.0781ZM33.055 46.9606L36.25 50.5544V52.1094L33.545 55.2019L29.565 50.8894L33.055 46.9606ZM36.25 46.7894L34.7288 45.0781L36.25 43.3669V46.7894ZM36.25 34.5606L35.0325 33.3431L36.25 32.0256V34.5606ZM36.25 23.8281V26.3281H8.75V23.8281H36.25ZM9.9675 33.3431L8.75 34.5606V32.0256L9.9675 33.3431ZM10.2712 45.0781L8.75 46.7894V43.3656L10.2712 45.0781ZM9.75 57.0481L8.75 58.1306V55.9044L9.75 57.0481ZM11.4062 58.9394L13.495 61.3281H9.20125L11.4062 58.9394ZM16.8175 61.3281L13.1112 57.0919L17.105 52.7656L20.8275 56.9531L16.9387 61.3281H16.8175ZM22.5 58.8356L24.7163 61.3281H20.2837L22.5 58.8356ZM28.0612 61.3281L24.1725 56.9531L27.895 52.7656L31.8888 57.0919L28.1825 61.3281H28.0612ZM33.5938 58.9394L35.7988 61.3281H31.505L33.5938 58.9394ZM76.25 61.3281H73.75V18.75H76.25V61.3281ZM38.75 61.3281H41.25V23.8281H38.75V61.3281Z" fill="#273142"/>
</svg>
