<svg width="80" height="80" viewBox="0 0 80 80" fill="none" xmlns="http://www.w3.org/2000/svg">
<path d="M70.7537 31.7187C70.8974 31.7188 71.0396 31.6906 71.1724 31.6357C71.3051 31.5807 71.4257 31.5002 71.5273 31.3986C71.6289 31.297 71.7094 31.1764 71.7644 31.0436C71.8193 30.9109 71.8475 30.7686 71.8475 30.625V25.9375C71.8475 25.7938 71.8193 25.6516 71.7644 25.5188C71.7094 25.3861 71.6289 25.2655 71.5273 25.1639C71.4257 25.0623 71.3051 24.9818 71.1724 24.9268C71.0396 24.8719 70.8974 24.8437 70.7537 24.8437H64.6875V17.9687C64.6886 17.7495 64.6232 17.5351 64.5 17.3537L58.5625 8.63124C58.4568 8.49155 58.3202 8.37826 58.1634 8.30025C58.0066 8.22224 57.8339 8.18164 57.6587 8.18164C57.4836 8.18164 57.3108 8.22224 57.154 8.30025C56.9972 8.37826 56.8606 8.49155 56.755 8.63124L50.8125 17.3537C50.6892 17.5351 50.6239 17.7495 50.625 17.9687V24.8437H47.0312V17.9687C47.0323 17.7495 46.9669 17.5351 46.8437 17.3537L40.9062 8.63124C40.8006 8.49155 40.664 8.37826 40.5072 8.30025C40.3504 8.22224 40.1776 8.18164 40.0025 8.18164C39.8273 8.18164 39.6546 8.22224 39.4978 8.30025C39.341 8.37826 39.2044 8.49155 39.0987 8.63124L33.1612 17.3537C33.038 17.5351 32.9726 17.7495 32.9737 17.9687V24.8437H29.375V17.9687C29.3761 17.7495 29.3107 17.5351 29.1875 17.3537L23.25 8.63124C23.1443 8.49155 23.0077 8.37826 22.8509 8.30025C22.6941 8.22224 22.5214 8.18164 22.3462 8.18164C22.1711 8.18164 21.9983 8.22224 21.8415 8.30025C21.6847 8.37826 21.5481 8.49155 21.4425 8.63124L15.5 17.3537C15.3767 17.5351 15.3114 17.7495 15.3125 17.9687V24.8437H9.24622C9.10256 24.8437 8.9603 24.8719 8.82756 24.9268C8.69482 24.9818 8.57422 25.0623 8.47263 25.1639C8.37105 25.2655 8.29049 25.3861 8.23556 25.5188C8.18062 25.6516 8.15238 25.7938 8.15247 25.9375V30.625C8.15238 30.7686 8.18062 30.9109 8.23556 31.0436C8.29049 31.1764 8.37105 31.297 8.47263 31.3986C8.57422 31.5002 8.69482 31.5807 8.82756 31.6357C8.9603 31.6906 9.10256 31.7188 9.24622 31.7187H15.3125V55.4687H9.24622C9.10256 55.4687 8.9603 55.4969 8.82756 55.5518C8.69482 55.6068 8.57422 55.6873 8.47263 55.7889C8.37105 55.8905 8.29049 56.0111 8.23556 56.1438C8.18062 56.2766 8.15238 56.4188 8.15247 56.5625V61.25C8.15238 61.3937 8.18062 61.5359 8.23556 61.6687C8.29049 61.8014 8.37105 61.922 8.47263 62.0236C8.57422 62.1252 8.69482 62.2057 8.82756 62.2607C8.9603 62.3156 9.10256 62.3438 9.24622 62.3437H15.3125V70.7537C15.3124 70.8974 15.3406 71.0397 15.3956 71.1724C15.4505 71.3051 15.5311 71.4257 15.6326 71.5273C15.7342 71.6289 15.8548 71.7095 15.9876 71.7644C16.1203 71.8193 16.2626 71.8476 16.4062 71.8475H28.2812C28.4249 71.8476 28.5671 71.8193 28.6999 71.7644C28.8326 71.7095 28.9532 71.6289 29.0548 71.5273C29.1564 71.4257 29.2369 71.3051 29.2919 71.1724C29.3468 71.0397 29.375 70.8974 29.375 70.7537V62.3437H32.9687V70.7537C32.9686 70.8974 32.9969 71.0397 33.0518 71.1724C33.1067 71.3051 33.1873 71.4257 33.2889 71.5273C33.3905 71.6289 33.5111 71.7095 33.6438 71.7644C33.7765 71.8193 33.9188 71.8476 34.0625 71.8475H45.9375C46.0811 71.8476 46.2234 71.8193 46.3561 71.7644C46.4889 71.7095 46.6095 71.6289 46.711 71.5273C46.8126 71.4257 46.8932 71.3051 46.9481 71.1724C47.0031 71.0397 47.0313 70.8974 47.0312 70.7537V62.3437H50.625V70.7537C50.6249 70.8974 50.6531 71.0397 50.708 71.1724C50.763 71.3051 50.8435 71.4257 50.9451 71.5273C51.0467 71.6289 51.1673 71.7095 51.3001 71.7644C51.4328 71.8193 51.5751 71.8476 51.7187 71.8475H63.5937C63.7374 71.8476 63.8796 71.8193 64.0124 71.7644C64.1451 71.7095 64.2657 71.6289 64.3673 71.5273C64.4689 71.4257 64.5494 71.3051 64.6044 71.1724C64.6593 71.0397 64.6875 70.8974 64.6875 70.7537V62.3437H70.7537C70.8974 62.3438 71.0396 62.3156 71.1724 62.2607C71.3051 62.2057 71.4257 62.1252 71.5273 62.0236C71.6289 61.922 71.7094 61.8014 71.7644 61.6687C71.8193 61.5359 71.8475 61.3937 71.8475 61.25V56.5625C71.8475 56.4188 71.8193 56.2766 71.7644 56.1438C71.7094 56.0111 71.6289 55.8905 71.5273 55.7889C71.4257 55.6873 71.3051 55.6068 71.1724 55.5518C71.0396 55.4969 70.8974 55.4687 70.7537 55.4687H64.6875V31.7187H70.7537ZM69.66 27.0312V29.5312H64.6875V27.0312H69.66ZM47.0312 31.7187H50.625V55.4687H47.0312V31.7187ZM50.625 27.0312V29.5312H47.0312V27.0312H50.625ZM29.375 31.7187H32.9687V55.4687H29.375V31.7187ZM32.9687 27.0312V29.5312H29.375V27.0312H32.9687ZM10.34 29.5312V27.0312H15.3125V29.5312H10.34ZM10.34 60.1562V57.6562H15.3125V60.1562H10.34ZM27.1875 69.66H17.5V18.3056L22.3437 11.1875L27.1875 18.3056V69.66ZM29.375 60.1562V57.6562H32.9687V60.1562H29.375ZM44.8437 69.66H35.1562V18.3056L40 11.1875L44.8437 18.3031V69.66ZM47.0312 60.1562V57.6562H50.625V60.1562H47.0312ZM62.5 69.66H52.8125V18.3056L57.6562 11.1875L62.5 18.3056V69.66ZM69.66 57.6562V60.1562H64.6875V57.6562H69.66Z" fill="#273142"/>
<path d="M22.3437 26.6019C22.0384 26.6019 21.7401 26.6924 21.4863 26.862C21.2325 27.0316 21.0347 27.2726 20.9179 27.5546C20.8012 27.8366 20.7706 28.1469 20.8302 28.4463C20.8898 28.7456 21.0369 29.0206 21.2527 29.2364C21.4686 29.4521 21.7436 29.5991 22.043 29.6585C22.3424 29.718 22.6527 29.6874 22.9346 29.5705C23.2166 29.4536 23.4575 29.2557 23.627 29.0018C23.7965 28.748 23.8869 28.4496 23.8868 28.1444C23.8863 27.7353 23.7235 27.3432 23.4342 27.054C23.1449 26.7648 22.7527 26.6022 22.3437 26.6019Z" fill="#273142"/>
<path d="M39.9999 26.6019C39.6947 26.6019 39.3963 26.6924 39.1425 26.862C38.8888 27.0316 38.691 27.2726 38.5742 27.5546C38.4574 27.8366 38.4269 28.1469 38.4865 28.4463C38.5461 28.7456 38.6931 29.0206 38.909 29.2364C39.1249 29.4521 39.3999 29.5991 39.6992 29.6585C39.9986 29.718 40.3089 29.6874 40.5909 29.5705C40.8728 29.4536 41.1138 29.2557 41.2833 29.0018C41.4528 28.748 41.5432 28.4496 41.543 28.1444C41.5425 27.7353 41.3798 27.3432 41.0905 27.054C40.8012 26.7648 40.409 26.6022 39.9999 26.6019Z" fill="#273142"/>
<path d="M57.6562 26.6019C57.3509 26.6019 57.0526 26.6924 56.7988 26.862C56.545 27.0316 56.3472 27.2726 56.2304 27.5546C56.1137 27.8366 56.0831 28.1469 56.1427 28.4463C56.2023 28.7456 56.3494 29.0206 56.5652 29.2364C56.7811 29.4521 57.0561 29.5991 57.3555 29.6585C57.6549 29.718 57.9652 29.6874 58.2471 29.5705C58.5291 29.4536 58.77 29.2557 58.9395 29.0018C59.109 28.748 59.1994 28.4496 59.1993 28.1444C59.1988 27.7353 59.036 27.3432 58.7467 27.054C58.4574 26.7648 58.0652 26.6022 57.6562 26.6019Z" fill="#273142"/>
<path d="M22.3437 57.3631C22.0385 57.3631 21.7401 57.4536 21.4863 57.6232C21.2326 57.7927 21.0348 58.0337 20.918 58.3157C20.8012 58.5977 20.7706 58.9079 20.8302 59.2073C20.8897 59.5066 21.0367 59.7816 21.2525 59.9974C21.4683 60.2132 21.7433 60.3602 22.0426 60.4197C22.3419 60.4792 22.6522 60.4487 22.9342 60.3319C23.2162 60.2151 23.4572 60.0173 23.6267 59.7635C23.7963 59.5098 23.8868 59.2114 23.8868 58.9062C23.8863 58.4971 23.7235 58.1049 23.4343 57.8156C23.145 57.5263 22.7528 57.3636 22.3437 57.3631Z" fill="#273142"/>
<path d="M39.9999 57.3631C39.6947 57.3631 39.3964 57.4536 39.1426 57.6232C38.8888 57.7927 38.691 58.0337 38.5743 58.3157C38.4575 58.5977 38.4269 58.9079 38.4864 59.2073C38.546 59.5066 38.6929 59.7816 38.9088 59.9974C39.1246 60.2132 39.3995 60.3602 39.6989 60.4197C39.9982 60.4792 40.3085 60.4487 40.5904 60.3319C40.8724 60.2151 41.1134 60.0173 41.283 59.7635C41.4525 59.5098 41.543 59.2114 41.543 58.9062C41.5425 58.4971 41.3798 58.1049 41.0905 57.8156C40.8012 57.5263 40.409 57.3636 39.9999 57.3631Z" fill="#273142"/>
<path d="M57.6562 57.3631C57.351 57.3631 57.0526 57.4536 56.7989 57.6232C56.5451 57.7927 56.3473 58.0337 56.2305 58.3157C56.1137 58.5977 56.0831 58.9079 56.1427 59.2073C56.2022 59.5066 56.3492 59.7816 56.565 59.9974C56.7808 60.2132 57.0558 60.3602 57.3551 60.4197C57.6545 60.4792 57.9647 60.4487 58.2467 60.3319C58.5287 60.2151 58.7697 60.0173 58.9392 59.7635C59.1088 59.5098 59.1993 59.2114 59.1993 58.9062C59.1988 58.4971 59.0361 58.1049 58.7468 57.8156C58.4575 57.5263 58.0653 57.3636 57.6562 57.3631Z" fill="#273142"/>
</svg>
