<svg width="76" height="62" viewBox="0 0 76 62" fill="none" xmlns="http://www.w3.org/2000/svg">
<path d="M74.8747 26.4172C73.4298 25.5837 71.9716 24.777 70.5 23.9971V17.5H68V22.7025C66.7584 22.0753 65.5084 21.4669 64.25 20.8774V15H61.75V19.7352C60.5073 19.1821 59.2573 18.6472 58 18.1304V5C58 4.66848 57.8683 4.35054 57.6339 4.11612C57.3995 3.8817 57.0815 3.75 56.75 3.75H51.75C51.4185 3.75 51.1005 3.8817 50.8661 4.11612C50.6317 4.35054 50.5 4.66848 50.5 5V15.2937C49.2557 14.8629 48.0057 14.4497 46.75 14.0541V8.75H44.25V13.2905C43.0049 12.9231 41.7549 12.5729 40.5 12.2401V6.25H38V11.601C36.754 11.2944 35.504 11.0045 34.25 10.7315V5H31.75V10.2109C30.5035 9.96328 29.2535 9.73268 28 9.51912V3.75H25.5V9.11513C24.2527 8.92497 23.0027 8.7513 21.75 8.59413V2.5H19.25V8.30308C18.0022 8.16938 16.7522 8.05259 15.5 7.95268V1.25H13V7.77464C11.7515 7.69674 10.5015 7.63541 9.25 7.59065V0H6.75V7.52327C5.91019 7.50822 5.06994 7.50046 4.22925 7.5H1.75C1.41848 7.5 1.10054 7.6317 0.86612 7.86612C0.6317 8.10054 0.500003 8.41848 0.5 8.75V55C0.500003 55.3315 0.6317 55.6495 0.86612 55.8839C1.10054 56.1183 1.41848 56.25 1.75 56.25H25.715C25.4367 57.0351 25.4279 57.8904 25.6899 58.6811C25.9519 59.4717 26.4698 60.1526 27.1619 60.6161C27.8539 61.0796 28.6806 61.2994 29.5115 61.2407C30.3423 61.182 31.13 60.8482 31.75 60.2921C32.3701 60.848 33.1577 61.1815 33.9884 61.2401C34.8192 61.2986 35.6457 61.0788 36.3377 60.6154C37.0296 60.152 37.5475 59.4713 37.8096 58.6808C38.0717 57.8903 38.063 57.035 37.785 56.25H50.5V60C50.5 60.3315 50.6317 60.6495 50.8661 60.8839C51.1005 61.1183 51.4185 61.25 51.75 61.25H74.25C74.5815 61.25 74.8995 61.1183 75.1339 60.8839C75.3683 60.6495 75.5 60.3315 75.5 60V27.5C75.5 27.2805 75.4422 27.0649 75.3325 26.8748C75.2227 26.6847 75.0648 26.5269 74.8747 26.4172ZM64.25 38.75V28.75H68V38.75H64.25ZM61.75 38.75H60.5C60.2212 38.75 59.9505 38.8432 59.7308 39.0147C59.511 39.1863 59.355 39.4264 59.2874 39.6968L58 44.8463V28.75H61.75V38.75ZM61.476 41.25H69.524L72.6491 53.75H58.3509L61.476 41.25ZM71.7126 39.6968C71.645 39.4264 71.489 39.1863 71.2692 39.0147C71.0495 38.8432 70.7788 38.75 70.5 38.75V28.75H73V44.8463L71.7126 39.6968ZM68 25.5091V26.25H64.25V23.6435C65.5085 24.2463 66.7585 24.8682 68 25.5091ZM61.75 22.4764V26.25H58V20.8371C59.2575 21.3648 60.5075 21.9112 61.75 22.4764ZM55.5 26.25H53V18.8523C53.8363 19.1657 54.6696 19.4872 55.5 19.8168V26.25ZM53 6.25H55.5V17.131C54.6694 16.808 53.8361 16.4927 53 16.1851V6.25ZM50.5 17.9413V26.25H46.75V16.6777C48.0056 17.0814 49.2556 17.5026 50.5 17.9413ZM50.5 48.75H46.75V28.75H50.5V48.75ZM9.25 48.75V28.75H13V48.75H9.25ZM15.5 28.75H19.25V48.75H15.5V28.75ZM21.75 28.75H25.5V48.75H21.75V28.75ZM28 28.75H31.75V48.75H28V28.75ZM34.25 28.75H38V48.75H34.25V28.75ZM40.5 28.75H44.25V48.75H40.5V28.75ZM44.25 15.8991V26.25H40.5V14.8284C41.7548 15.168 43.0048 15.5249 44.25 15.8991ZM38 14.1768V26.25H34.25V13.2907C35.5042 13.5685 36.7542 13.8639 38 14.1768ZM31.75 12.7615V26.25H28V12.0557C29.2534 12.2737 30.5034 12.509 31.75 12.7615ZM25.5 11.6434V26.25H21.75V11.1144C23.0027 11.2741 24.2527 11.4504 25.5 11.6434ZM19.25 10.8187V26.25H15.5V10.46C16.7521 10.5623 18.0021 10.6818 19.25 10.8187ZM13 10.2792V26.25H9.25V10.0924C10.5014 10.1378 11.7514 10.2001 13 10.2792ZM3 10H4.22925C5.06993 10 5.91018 10.0079 6.75 10.0238V26.25H3V10ZM6.75 28.75V48.75H3V28.75H6.75ZM29.25 58.75C29.0028 58.75 28.7611 58.6767 28.5555 58.5393C28.35 58.402 28.1898 58.2068 28.0951 57.9784C28.0005 57.7499 27.9758 57.4986 28.024 57.2561C28.0723 57.0137 28.1913 56.7909 28.3661 56.6161C28.5409 56.4413 28.7637 56.3223 29.0061 56.274C29.2486 56.2258 29.4999 56.2505 29.7284 56.3452C29.9568 56.4398 30.152 56.6 30.2893 56.8055C30.4267 57.0111 30.5 57.2528 30.5 57.5C30.4996 57.8314 30.3678 58.1491 30.1335 58.3835C29.8991 58.6178 29.5814 58.7496 29.25 58.75ZM35.5 57.5C35.5 57.7472 35.4267 57.9889 35.2893 58.1945C35.152 58.4 34.9568 58.5602 34.7284 58.6548C34.4999 58.7495 34.2486 58.7742 34.0061 58.726C33.7637 58.6777 33.5409 58.5587 33.3661 58.3839C33.1913 58.2091 33.0723 57.9863 33.024 57.7439C32.9758 57.5014 33.0005 57.2501 33.0951 57.0216C33.1898 56.7932 33.35 56.598 33.5555 56.4607C33.7611 56.3233 34.0028 56.25 34.25 56.25C34.5814 56.2504 34.8991 56.3822 35.1335 56.6165C35.3678 56.8509 35.4996 57.1686 35.5 57.5ZM3 53.75V51.25H50.5V53.75H3ZM53 28.75H55.5V58.75H53V28.75ZM73 58.75H58V56.25H73V58.75Z" fill="#273142"/>
</svg>
