<svg width="80" height="80" viewBox="0 0 80 80" fill="none" xmlns="http://www.w3.org/2000/svg">
<g clip-path="url(#clip0)">
<path d="M79.9997 32.2827C79.9997 31.6357 79.4748 31.1108 78.8278 31.1108H1.17187C0.5249 31.1108 0 31.6357 0 32.2827C0 32.9303 0.5249 33.4546 1.17187 33.4546H1.45996C1.19079 33.6694 1.01806 34.0002 1.01806 34.3713C1.01806 35.0183 1.54296 35.5432 2.18993 35.5432C4.12779 35.5432 5.70432 37.1197 5.70432 39.0576C5.70432 40.9954 4.12779 42.572 2.18993 42.572C1.54296 42.572 1.01806 43.0963 1.01806 43.7438C1.01806 44.2193 1.30126 44.6282 1.70776 44.812H1.17187C0.5249 44.812 0 45.3369 0 45.9838C0 46.6308 0.5249 47.1557 1.17187 47.1557H8.55832C8.5693 47.1563 8.57968 47.1563 8.59066 47.1563C8.60165 47.1563 8.61203 47.1563 8.62301 47.1557H14.6612C14.6722 47.1563 14.6826 47.1563 14.6935 47.1563C14.7045 47.1563 14.7149 47.1563 14.7259 47.1557H27.4627C27.4736 47.1563 27.484 47.1563 27.495 47.1563C27.5054 47.1563 27.5164 47.1563 27.5274 47.1557H33.5655C33.5765 47.1563 33.5869 47.1563 33.5979 47.1563C33.6089 47.1563 33.6193 47.1563 33.6302 47.1557H46.3688C46.3792 47.1563 46.3902 47.1563 46.4012 47.1563C46.4116 47.1563 46.4225 47.1563 46.4329 47.1557H52.4717C52.4827 47.1563 52.4931 47.1563 52.5041 47.1563C52.5144 47.1563 52.5254 47.1563 52.5358 47.1557H65.2732C65.2836 47.1563 65.2945 47.1563 65.3049 47.1563C65.3159 47.1563 65.3269 47.1563 65.3373 47.1557H71.3761C71.387 47.1563 71.3974 47.1563 71.4084 47.1563C71.4188 47.1563 71.4298 47.1563 71.4401 47.1557H78.8278C79.4748 47.1557 79.9997 46.6308 79.9997 45.9838C79.9997 45.3369 79.4748 44.812 78.8278 44.812H78.2919C78.6984 44.6282 78.9816 44.2193 78.9816 43.7438C78.9816 43.0963 78.4567 42.572 77.8098 42.572C75.8719 42.572 74.2954 40.9954 74.2954 39.0576C74.2954 37.1197 75.8719 35.5432 77.8098 35.5432C78.4567 35.5432 78.9816 35.0183 78.9816 34.3713C78.9816 34.0002 78.8089 33.6694 78.5397 33.4546H78.8278C79.4748 33.4546 79.9997 32.9303 79.9997 32.2827ZM70.2372 44.812H66.478V33.4546H70.2372V44.812ZM9.76254 33.4546H13.5217V44.812H9.76254V33.4546ZM26.3231 36.4172C25.6084 35.0079 24.3401 33.9239 22.8063 33.4546H26.3231V36.4172ZM24.6093 39.0576C24.6093 40.9954 23.0327 42.572 21.0949 42.572C19.157 42.572 17.5805 40.9954 17.5805 39.0576C17.5805 37.1197 19.157 35.5432 21.0949 35.5432C23.0327 35.5432 24.6093 37.1197 24.6093 39.0576ZM15.8654 36.419V33.4546H19.3835C17.8491 33.9245 16.5801 35.0085 15.8654 36.419ZM15.8654 41.6961C16.6729 43.2904 18.1884 44.4677 19.995 44.812H15.8654V41.6961ZM26.3231 41.698V44.812H22.1947C24.0008 44.4677 25.5156 43.291 26.3231 41.698ZM28.6669 33.4546H32.4266V44.812H28.6669V33.4546ZM45.2293 36.4197C44.5152 35.0091 43.2463 33.9245 41.7113 33.4546H45.2293V36.4197ZM43.5142 39.0576C43.5142 40.9954 41.9377 42.572 39.9998 42.572C38.062 42.572 36.4855 40.9954 36.4855 39.0576C36.4855 37.1197 38.062 35.5432 39.9998 35.5432C41.9377 35.5432 43.5142 37.1197 43.5142 39.0576ZM34.7704 36.4197V33.4546H38.2884C36.7534 33.9245 35.4845 35.0091 34.7704 36.4197ZM34.7704 41.6955C35.5779 43.2897 37.0928 44.4671 38.9 44.812H34.7704V41.6955ZM45.2293 41.6955V44.812H41.0997C42.9069 44.4671 44.4224 43.2897 45.2293 41.6955ZM47.5731 33.4546H51.3328V44.812H47.5731V33.4546ZM64.1343 36.419C63.4196 35.0085 62.1506 33.9245 60.6162 33.4546H64.1343V36.419ZM62.4192 39.0576C62.4192 40.9954 60.8427 42.572 58.9048 42.572C56.9669 42.572 55.3904 40.9954 55.3904 39.0576C55.3904 37.1197 56.9669 35.5432 58.9048 35.5432C60.8427 35.5432 62.4192 37.1197 62.4192 39.0576ZM53.6765 36.4172V33.4546H57.1934C55.6596 33.9239 54.3913 35.0079 53.6765 36.4172ZM53.6765 41.698C54.484 43.291 55.9989 44.4677 57.805 44.812H53.6765V41.698ZM64.1343 41.6961V44.812H60.0046C61.8113 44.4677 63.3268 43.2904 64.1343 41.6961ZM3.90196 33.4546H7.41879V36.4172C6.70408 35.0079 5.43577 33.9239 3.90196 33.4546ZM7.41879 41.6973V44.812H3.28978C5.09642 44.4677 6.6113 43.291 7.41879 41.6973ZM76.7099 44.812H72.5809V41.6973C73.3884 43.291 74.9033 44.4677 76.7099 44.812ZM72.5809 36.4178V33.4546H76.0977C74.5639 33.9239 73.2956 35.0079 72.5809 36.4178Z" fill="#273142"/>
<path d="M1.17187 28.6908H56.5604C57.208 28.6908 57.7323 28.1659 57.7323 27.519C57.7323 26.872 57.208 26.3471 56.5604 26.3471H53.6765V23.6707C53.6765 22.5446 53.2377 21.4844 52.4381 20.6831C51.9242 20.1704 51.3023 19.806 50.6242 19.6113V15.6129C51.5202 16.5095 52.4735 17.0795 53.4782 17.3164C53.6869 17.3658 53.9005 17.3908 54.1136 17.3908C55.3996 17.3908 56.5043 16.5156 56.7997 15.2625C57.1452 13.7995 56.251 12.328 54.802 11.9544C54.6861 11.88 53.9256 11.3276 52.8636 9.08276C52.2202 7.72107 50.9129 6.87573 49.4523 6.87573C47.9918 6.87573 46.6844 7.72107 46.0405 9.08276C44.9791 11.3276 44.2186 11.88 44.1026 11.9544C42.653 12.328 41.7595 13.7995 42.1043 15.2625C42.4541 16.7439 43.9433 17.6655 45.4265 17.3164C46.4311 17.0795 47.3845 16.5095 48.2804 15.6129V19.6125C46.5202 20.1221 45.2293 21.7481 45.2293 23.6707V26.3471H34.7704V23.6707C34.7704 22.5446 34.3315 21.4844 33.5332 20.6843C33.0199 20.171 32.3979 19.806 31.7192 19.6113V15.6129C32.6152 16.5095 33.5692 17.0795 34.5738 17.3164C34.782 17.3658 34.9956 17.3908 35.2086 17.3908C36.4946 17.3908 37.5993 16.5156 37.8954 15.2625C38.2402 13.7995 37.3467 12.328 35.8971 11.9544C35.7811 11.88 35.0206 11.3276 33.9592 9.08276C33.3153 7.72107 32.0079 6.87573 30.5474 6.87573C29.0868 6.87573 27.7794 7.72107 27.1361 9.08276C26.0741 11.3276 25.3136 11.88 25.1977 11.9544C23.7487 12.328 22.8545 13.7995 23.2 15.2625C23.5491 16.7439 25.039 17.6655 26.5215 17.3164C27.5261 17.0795 28.4801 16.5089 29.3755 15.6129V19.6125C27.6146 20.1209 26.3237 21.7475 26.3237 23.6701V26.3471H15.8654V23.6701C15.8654 22.5422 15.4266 21.4814 14.6288 20.6843C14.1155 20.171 13.4936 19.806 12.8149 19.6113V15.6129C13.7103 16.5089 14.6642 17.0795 15.6689 17.3164C15.8776 17.3658 16.0912 17.3908 16.3043 17.3908C17.5897 17.3908 18.695 16.5156 18.9904 15.2625C19.3359 13.7995 18.4417 12.328 16.9921 11.9544C16.8762 11.88 16.1163 11.3276 15.0543 9.08276C14.4103 7.72107 13.103 6.87512 11.6424 6.87512C10.1818 6.87512 8.87509 7.72107 8.23117 9.08276C7.16916 11.3276 6.40867 11.88 6.2927 11.9544C4.84373 12.328 3.94957 13.7995 4.29503 15.2625C4.64415 16.7439 6.13401 17.6655 7.61655 17.3164C8.62118 17.0795 9.57516 16.5089 10.4705 15.6129V19.6125C8.70968 20.1215 7.41879 21.7481 7.41879 23.6707V26.3471H1.17187C0.5249 26.3471 0 26.872 0 27.519C0 28.1659 0.5249 28.6908 1.17187 28.6908ZM44.8887 15.0355C44.6641 15.088 44.4389 14.9488 44.3858 14.7248C44.3327 14.5002 44.4725 14.275 44.6965 14.2219C46.1717 13.874 47.4992 11.4808 48.1596 10.0843C48.4123 9.55089 48.9073 9.21886 49.4523 9.21886C49.9974 9.21886 50.4924 9.55089 50.745 10.0843C51.4048 11.4808 52.7329 13.874 54.2082 14.2219C54.4322 14.275 54.5719 14.5002 54.5188 14.7242C54.4688 14.936 54.2771 15.0471 54.1136 15.0471C54.0812 15.0471 54.0489 15.0428 54.0165 15.0355C52.8788 14.7669 51.7051 13.6006 50.6138 11.6566C50.5375 11.0829 50.0468 10.6404 49.4523 10.6404C48.8578 10.6404 48.3671 11.0829 48.2908 11.6566C47.1989 13.6006 46.0258 14.7669 44.8887 15.0355ZM47.5731 23.6701C47.5731 22.6392 48.408 21.7994 49.4377 21.7908H49.4523H49.4682C49.9638 21.7945 50.4301 21.9898 50.781 22.3401C51.1369 22.6966 51.3328 23.169 51.3328 23.6701V26.3471H47.5737V23.6701H47.5731ZM25.9838 15.0355C25.7592 15.088 25.534 14.9488 25.4809 14.7248C25.4278 14.5002 25.5675 14.275 25.7915 14.2219C27.2667 13.874 28.5942 11.4808 29.2546 10.0843C29.5073 9.55089 30.0023 9.21886 30.5474 9.21886C31.0924 9.21886 31.5874 9.55089 31.8401 10.0843C32.5005 11.4808 33.828 13.874 35.3032 14.2219C35.5272 14.275 35.667 14.5002 35.6139 14.7242C35.5638 14.936 35.3722 15.0471 35.2086 15.0471C35.1763 15.0471 35.1439 15.0428 35.1116 15.0355C33.9739 14.7669 32.8002 13.6006 31.7089 11.6566C31.6326 11.0829 31.1418 10.6404 30.5474 10.6404C29.9529 10.6404 29.4622 11.0829 29.3859 11.656C28.2946 13.6006 27.1209 14.7669 25.9838 15.0355ZM28.6669 23.6701C28.6669 22.6386 29.5024 21.7988 30.5321 21.7908H30.5474H30.5626C31.0588 21.7951 31.5245 21.9898 31.8743 22.3401C32.2301 22.6966 32.426 23.169 32.426 23.6701V26.3471H28.6669V23.6701ZM7.07944 15.0355C6.85422 15.088 6.629 14.9488 6.5759 14.7248C6.5228 14.5002 6.66257 14.275 6.88657 14.2219C8.36178 13.874 9.68929 11.4808 10.3497 10.0843C10.6024 9.55089 11.0974 9.21886 11.6424 9.21886C12.1875 9.21886 12.6831 9.55089 12.9351 10.0843C13.5955 11.4802 14.923 13.874 16.3983 14.2219C16.6229 14.275 16.762 14.5002 16.7089 14.7242C16.6589 14.936 16.4672 15.0465 16.3036 15.0465C16.2713 15.0465 16.2383 15.0428 16.2066 15.0349C15.0689 14.7669 13.8952 13.6006 12.8039 11.6566C12.7282 11.0829 12.2369 10.6404 11.6424 10.6404C11.0485 10.6404 10.5572 11.0829 10.4809 11.656C9.38961 13.6006 8.21652 14.7669 7.07944 15.0355ZM9.76253 23.6701C9.76253 22.6386 10.5975 21.7988 11.6272 21.7908H11.6424H11.6577C12.1539 21.7951 12.6202 21.9898 12.9711 22.3414C13.3264 22.696 13.5217 23.1684 13.5217 23.6701V26.3471H9.76253V23.6701Z" fill="#273142"/>
<path d="M61.2479 28.6909H78.8279C79.4749 28.6909 79.9998 28.166 79.9998 27.519C79.9998 26.8721 79.4749 26.3472 78.8279 26.3472H72.5809V23.6708C72.5809 22.5447 72.1421 21.4845 71.3425 20.6831C70.8286 20.1704 70.2067 19.806 69.5292 19.6113V15.6129C70.4246 16.5095 71.3785 17.0796 72.3832 17.3164C72.5919 17.3658 72.8055 17.3909 73.0186 17.3909C74.3046 17.3909 75.4093 16.5156 75.7047 15.2626C76.0502 13.7996 75.156 12.328 73.7064 11.9545C73.5905 11.88 72.8306 11.3276 71.7686 9.08276C71.1246 7.72107 69.8179 6.87573 68.3573 6.87573C66.8967 6.87573 65.5894 7.72107 64.9454 9.08276C63.884 11.3276 63.1235 11.88 63.0076 11.9545C61.558 12.328 60.6644 13.7996 61.0093 15.2626C61.359 16.7439 62.8495 17.6655 64.3314 17.3164C65.3361 17.0796 66.2894 16.5095 67.1854 15.6129V19.6125C65.4252 20.1222 64.1343 21.7482 64.1343 23.6702V26.3472H61.2479C60.601 26.3472 60.076 26.8715 60.076 27.519C60.076 28.166 60.601 28.6909 61.2479 28.6909ZM63.7937 15.0355C63.5691 15.088 63.3433 14.9489 63.2908 14.7249C63.2377 14.5002 63.3768 14.275 63.6014 14.2219C65.0767 13.874 66.4042 11.4808 67.0646 10.0844C67.3167 9.5509 67.8123 9.21887 68.3573 9.21887C68.9023 9.21887 69.3973 9.5509 69.65 10.0844C70.3098 11.4802 71.6373 13.874 73.1132 14.2219C73.3372 14.275 73.4769 14.5002 73.4238 14.7242C73.3738 14.936 73.1821 15.0471 73.0186 15.0471C72.9862 15.0471 72.9532 15.0428 72.9209 15.0355C71.7832 14.767 70.6101 13.6006 69.5188 11.6566C69.4425 11.0829 68.9512 10.6404 68.3573 10.6404C67.7628 10.6404 67.2715 11.0829 67.1958 11.6566C66.1039 13.6006 64.9308 14.767 63.7937 15.0355ZM66.478 23.6702C66.478 22.6393 67.313 21.7994 68.342 21.7909H68.3573H68.3726C68.8682 21.7946 69.3345 21.9905 69.6854 22.3402C70.0413 22.6967 70.2372 23.1691 70.2372 23.6702V26.3466H66.478V23.6702Z" fill="#273142"/>
<path d="M78.8278 49.5757H71.4457C71.4335 49.5751 71.4212 49.5751 71.409 49.5751C71.3968 49.5751 71.3846 49.5751 71.373 49.5757H65.3422C65.33 49.5751 65.3184 49.5751 65.3062 49.5751C65.294 49.5751 65.2817 49.5751 65.2695 49.5757H52.5407C52.5285 49.5751 52.5169 49.5751 52.5047 49.5751C52.4925 49.5751 52.4803 49.5751 52.4681 49.5757H46.4378C46.4256 49.5751 46.414 49.5751 46.4018 49.5751C46.3896 49.5751 46.3774 49.5751 46.3652 49.5757H33.6345C33.6229 49.5751 33.6107 49.5751 33.5985 49.5751C33.5863 49.5751 33.5741 49.5751 33.5625 49.5757H27.5317C27.5201 49.5751 27.5079 49.5751 27.4956 49.5751C27.4834 49.5751 27.4712 49.5751 27.459 49.5757H23.4393C22.7917 49.5757 22.2674 50.1 22.2674 50.7476C22.2674 51.3946 22.7917 51.9195 23.4393 51.9195H26.3238V72.05C26.3238 72.697 26.8481 73.2219 27.4956 73.2219C28.1426 73.2219 28.6675 72.697 28.6675 72.05V51.9195H32.4267V72.05C32.4267 72.697 32.9516 73.2219 33.5985 73.2219C34.2461 73.2219 34.7704 72.697 34.7704 72.05V51.9195H45.2299V72.05C45.2299 72.697 45.7542 73.2219 46.4018 73.2219C47.0488 73.2219 47.5737 72.697 47.5737 72.05V51.9195H51.3328V72.05C51.3328 72.697 51.8577 73.2219 52.5047 73.2219C53.1523 73.2219 53.6766 72.697 53.6766 72.05V51.9195H64.1343V72.05C64.1343 72.697 64.6592 73.2219 65.3062 73.2219C65.9537 73.2219 66.478 72.697 66.478 72.05V51.9195H70.2378V72.05C70.2378 72.697 70.7621 73.2219 71.4097 73.2219C72.0566 73.2219 72.5815 72.697 72.5815 72.05V51.9195H78.8284C79.4754 51.9195 80.0003 51.3946 80.0003 50.7476C80.0003 50.1 79.4748 49.5757 78.8278 49.5757Z" fill="#273142"/>
<path d="M18.7512 49.5757H14.7302C14.718 49.5751 14.7058 49.5751 14.6936 49.5751C14.6814 49.5751 14.6698 49.5751 14.6576 49.5757H8.62671C8.61511 49.5751 8.60291 49.5751 8.5907 49.5751C8.57849 49.5751 8.56628 49.5751 8.55408 49.5757H1.17188C0.524902 49.5757 0 50.1 0 50.7476C0 51.3946 0.524902 51.9195 1.17188 51.9195H7.41882V72.0501C7.41882 72.6971 7.94373 73.222 8.5907 73.222C9.23767 73.222 9.76257 72.6971 9.76257 72.0501V51.9195H13.5217V72.0501C13.5217 72.6971 14.0466 73.222 14.6936 73.222C15.3412 73.222 15.8655 72.6971 15.8655 72.0501V51.9195H18.7512C19.3982 51.9195 19.9231 51.3946 19.9231 50.7476C19.9231 50.1 19.3982 49.5757 18.7512 49.5757Z" fill="#273142"/>
</g>
<defs>
<clipPath id="clip0">
<rect width="80" height="80" fill="white"/>
</clipPath>
</defs>
</svg>
