<svg width="60" height="60" viewBox="0 0 60 60" fill="none" xmlns="http://www.w3.org/2000/svg">
<path d="M26.2505 32.8125C27.0286 32.8125 27.7317 33.1313 28.238 33.6375C28.7442 34.1438 29.063 34.8469 29.063 35.625C29.063 37.1813 27.8067 38.4375 26.2505 38.4375H20.6255C19.8474 38.4375 19.1442 38.1187 18.638 37.6125C18.1317 37.1062 17.813 36.4031 17.813 35.625C17.813 34.8656 18.113 34.1813 18.5911 33.6844C19.1067 33.15 19.8286 32.8125 20.6255 32.8125H26.2505Z" fill="#FFEAA7"/>
<path d="M17.813 53.5875C18.9567 54.0937 20.2317 54.375 21.563 54.375H26.2505H29.063V55.3125C29.063 56.8687 27.8067 58.125 26.2505 58.125H23.438H20.6255C19.0692 58.125 17.813 56.8687 17.813 55.3125V53.5968V53.5875Z" fill="#E6E9ED"/>
<path d="M20.6255 38.4375H26.2505C27.8067 38.4375 29.063 37.1812 29.063 35.625V46.875H28.9036C28.4067 46.875 27.9286 47.0719 27.5724 47.4281L26.2505 48.75H22.5005C20.8317 48.75 19.2192 48.3094 17.813 47.4937V44.1469V35.625C17.813 36.4031 18.1317 37.1062 18.638 37.6125C19.1442 38.1187 19.8474 38.4375 20.6255 38.4375Z" fill="#E6E9ED"/>
<path d="M18.1782 32.4094L18.5907 33.6844C18.1126 34.1813 17.8126 34.8656 17.8126 35.625V44.1469L13.7438 38.0625L7.02197 27.9938C7.8751 28.9313 9.80635 29.325 11.8782 28.8844C14.3626 28.3594 16.1345 26.8125 15.9188 25.3875L18.1782 32.4094Z" fill="#E6E9ED"/>
<path d="M15.9191 25.3875C16.1347 26.8125 14.3628 28.3594 11.8784 28.8844C9.80657 29.325 7.87531 28.9312 7.02219 27.9937L6.71281 27.5344C6.66594 27.4406 6.63782 27.3375 6.60969 27.2344C6.26282 25.7812 8.06282 24.1594 10.6222 23.6156C12.9659 23.1187 15.1409 23.6906 15.7597 24.9L15.7691 24.9281L15.9191 25.3875Z" fill="#F0D0B4"/>
<path d="M39.338 11.25H30.938V2.05314V2.04376C32.888 2.40001 34.6411 3.30939 36.038 4.59376C37.8755 6.28126 39.0942 8.62501 39.338 11.25Z" fill="#FFDD4D"/>
<path d="M27.1881 2.05314V11.25H18.7881C19.21 6.61876 22.6881 2.86876 27.1881 2.04376V2.05314Z" fill="#FFDD4D"/>
<path d="M30.938 2.05313V11.25H27.188V2.05313V2.04375C27.7974 1.93125 28.4255 1.875 29.063 1.875C29.7005 1.875 30.3286 1.93125 30.938 2.04375V2.05313Z" fill="#FFC80A"/>
<path d="M18.788 11.25H27.188H30.938H39.338H40.313C40.8286 11.25 41.2505 11.6719 41.2505 12.1875V14.0625C41.2505 14.5781 40.8286 15 40.313 15H39.3755H35.6255H22.5005H18.7505H17.813C17.2974 15 16.8755 14.5781 16.8755 14.0625V12.1875C16.8755 11.6719 17.2974 11.25 17.813 11.25H18.788Z" fill="#FFC80A"/>
<path d="M39.3755 15V20.625C39.3755 19.8469 39.0567 19.1437 38.5505 18.6375C38.0442 18.1312 37.3411 17.8125 36.563 17.8125H35.6255V15H39.3755Z" fill="#656D78"/>
<path d="M21.563 17.8125C20.0067 17.8125 18.7505 19.0687 18.7505 20.625V15H22.5005V17.8125H21.563Z" fill="#656D78"/>
<path d="M46.3973 40.1813L47.8129 28.125H53.4379V42.375C53.4379 44.1375 52.7254 45.7312 51.5723 46.8844C50.4191 48.0375 48.8254 48.75 47.0629 48.75C44.6535 48.75 42.441 47.3906 41.3629 45.225L40.3129 43.125V58.125H32.8129V54.375C33.8441 54.375 34.6879 53.5312 34.6879 52.5V50.625C34.6879 49.5938 33.8441 48.75 32.8129 48.75V30L32.3535 29.6344L32.8129 29.0625C35.7566 29.6531 38.466 30.9281 40.7535 32.7469C43.041 34.5563 44.9066 36.9 46.1441 39.6375L46.3973 40.1813Z" fill="#FCD770"/>
<path d="M28.2376 33.6375C27.7314 33.1313 27.0282 32.8125 26.2501 32.8125H20.6251C19.8282 32.8125 19.1063 33.15 18.5907 33.6844L18.1782 32.4094C20.1188 30.825 22.4439 29.6812 25.022 29.1281L25.3126 29.0625L29.0626 33.75V35.625C29.0626 34.8469 28.7439 34.1438 28.2376 33.6375Z" fill="#FCD770"/>
<path d="M13.7442 38.0625L17.813 44.1469V47.4937C19.2192 48.3094 20.8317 48.75 22.5005 48.75H26.2505V54.375H21.563C20.2317 54.375 18.9567 54.0937 17.813 53.5875C14.5036 52.1437 12.188 48.8437 12.188 45C12.188 42.5344 12.7411 40.1719 13.7442 38.0625Z" fill="#FCD770"/>
<path d="M32.813 54.375V58.125H26.2505C27.8067 58.125 29.063 56.8687 29.063 55.3125V54.375H32.813Z" fill="#BBD0DD"/>
<path d="M32.813 30V48.75H31.8755C31.8755 47.7187 31.0317 46.875 30.0005 46.875H29.063V35.625V33.75L32.3536 29.6343L32.813 30Z" fill="#BBD0DD"/>
<path d="M34.688 50.625V52.5C34.688 53.5312 33.8442 54.375 32.813 54.375H29.063H26.2505V48.75L27.5724 47.4281C27.9286 47.0719 28.4067 46.875 28.9036 46.875H29.063H30.0005C31.0317 46.875 31.8755 47.7188 31.8755 48.75H32.813C33.8442 48.75 34.688 49.5938 34.688 50.625Z" fill="#F0D0B4"/>
<path d="M53.438 21.5625V28.125H47.813L46.4911 26.8031C46.1349 26.4469 45.938 25.9688 45.938 25.4719V24.375C45.938 23.8594 46.1442 23.3906 46.4911 23.0531C46.8286 22.7063 47.2974 22.5 47.813 22.5V21.5625C47.813 20.5312 48.6567 19.6875 49.688 19.6875H51.563C52.5942 19.6875 53.438 20.5312 53.438 21.5625Z" fill="#F0D0B4"/>
<path d="M38.5503 18.6375C39.0565 19.1437 39.3753 19.8469 39.3753 20.625C39.3753 22.1813 38.119 23.4375 36.5628 23.4375H35.5034C35.5878 23.1375 35.6253 22.8281 35.6253 22.5V17.8125H36.5628C37.3409 17.8125 38.044 18.1312 38.5503 18.6375Z" fill="#F0D0B4"/>
<path d="M31.8755 26.25L32.813 29.0625L32.3536 29.6344L29.063 33.75L25.313 29.0625L26.2505 26.25H31.8755Z" fill="#F0D0B4"/>
<path d="M22.6224 23.4375C22.538 23.1375 22.5005 22.8281 22.5005 22.5V17.8125V15H35.6255V17.8125V22.5C35.6255 22.8281 35.588 23.1375 35.5036 23.4375C35.0911 25.0594 33.6192 26.25 31.8755 26.25H26.2505C24.5067 26.25 23.0349 25.0594 22.6224 23.4375Z" fill="#F0D0B4"/>
<path d="M22.6224 23.4375H21.563C20.7849 23.4375 20.0817 23.1188 19.5755 22.6125C19.0692 22.1063 18.7505 21.4031 18.7505 20.625C18.7505 19.0688 20.0067 17.8125 21.563 17.8125H22.5005V22.5C22.5005 22.8281 22.538 23.1375 22.6224 23.4375Z" fill="#F0D0B4"/>
<path d="M51.5626 18.75H49.6876C48.137 18.75 46.8751 20.0119 46.8751 21.5625V21.7228C45.7838 22.11 45.0001 23.1525 45.0001 24.375V25.4728C45.0001 26.2237 45.2935 26.9306 45.8241 27.4622L46.8282 28.4662L45.8176 37.0566C43.0763 32.6316 38.6513 29.4328 33.5326 28.2581L33.1135 27C34.4813 26.6222 35.6035 25.6556 36.1651 24.375H36.5626C38.6307 24.375 40.3126 22.6931 40.3126 20.625V15.9375C41.3466 15.9375 42.1876 15.0966 42.1876 14.0625V12.1875C42.1876 11.1534 41.3466 10.3125 40.3126 10.3125H40.1495C39.2532 4.9125 34.6341 0.9375 29.0626 0.9375C23.491 0.9375 18.872 4.9125 17.9757 10.3125H17.8126C16.7785 10.3125 15.9376 11.1534 15.9376 12.1875V14.0625C15.9376 15.0966 16.7785 15.9375 17.8126 15.9375V20.625C17.8126 22.6931 19.4945 24.375 21.5626 24.375H21.9601C22.5226 25.6556 23.6448 26.6231 25.0116 27L24.5916 28.2591C22.472 28.7447 20.4516 29.6428 18.6657 30.8747L16.8188 25.14C16.8132 25.1091 16.8141 25.0781 16.8076 25.0472C16.337 23.0719 13.5423 22.0387 10.4298 22.6987C8.49758 23.1084 6.88321 24.0825 6.11071 25.3022C5.66915 25.9997 5.52477 26.7422 5.69352 27.4509C5.79008 27.8578 5.98977 28.2225 6.26633 28.5422L12.6901 38.1637C11.7479 40.3294 11.2501 42.6216 11.2501 45C11.2501 48.9975 13.5413 52.4634 16.8751 54.1744V55.3125C16.8751 57.3806 18.557 59.0625 20.6251 59.0625H23.4376H26.2501H41.2501V46.7878C42.6151 48.5963 44.7357 49.6875 47.0635 49.6875C51.0948 49.6875 54.3751 46.4072 54.3751 42.3769V21.5625C54.3751 20.0119 53.1132 18.75 51.5626 18.75ZM46.8751 24.375C46.8751 23.8584 47.2951 23.4375 47.8126 23.4375H48.7501V21.5625C48.7501 21.0459 49.1701 20.625 49.6876 20.625H51.5626C52.0801 20.625 52.5001 21.0459 52.5001 21.5625V27.1875H48.2007L47.1498 26.1366C46.9726 25.9594 46.8751 25.7231 46.8751 25.4728V24.375ZM31.8751 55.3125V57.1875H29.4788C29.8013 56.6334 30.0001 55.9987 30.0001 55.3125H31.8751ZM32.8126 53.4375H27.1876V49.1381L28.2385 48.0872C28.4138 47.9128 28.6548 47.8125 28.9013 47.8125H30.0001C30.5176 47.8125 30.9376 48.2334 30.9376 48.75V49.6875H32.8126C33.3301 49.6875 33.7501 50.1084 33.7501 50.625V52.5C33.7501 53.0166 33.3301 53.4375 32.8126 53.4375ZM31.1991 27.1875L31.7616 28.875L29.0626 32.2491L26.3626 28.8741L26.9251 27.1866H31.1991V27.1875ZM26.372 31.8872C26.3307 31.8862 26.2913 31.875 26.2501 31.875H20.6251C20.6157 31.875 20.6073 31.8778 20.5979 31.8778C21.9498 31.0734 23.4198 30.4725 24.9545 30.1153L26.372 31.8872ZM20.6251 33.75H23.0035C22.6829 34.3022 22.5001 34.9425 22.5001 35.625V36.5625H24.3751V35.625C24.3751 34.5909 25.216 33.75 26.2501 33.75C27.2841 33.75 28.1251 34.5909 28.1251 35.625C28.1251 36.6591 27.2841 37.5 26.2501 37.5H20.6251C19.591 37.5 18.7501 36.6591 18.7501 35.625C18.7501 34.5909 19.591 33.75 20.6251 33.75ZM18.7501 38.8538C19.3041 39.1763 19.9388 39.375 20.6251 39.375H26.2501C26.9363 39.375 27.571 39.1763 28.1251 38.8538V46.0594C27.6732 46.1897 27.2541 46.4194 26.9129 46.7616L25.862 47.8125H22.5001C21.1876 47.8125 19.9041 47.4994 18.7501 46.9266V38.8538ZM31.8751 46.6641C31.3763 46.2159 30.722 45.9375 30.0001 45.9375V35.625C30.0001 35.1825 29.9091 34.7634 29.7676 34.3688L31.8751 31.7353V46.6641ZM36.5626 22.5V18.75C37.5966 18.75 38.4376 19.5909 38.4376 20.625C38.4376 21.6591 37.5966 22.5 36.5626 22.5ZM38.4376 17.3962C37.8835 17.0737 37.2488 16.875 36.5626 16.875V15.9375H38.4376V17.3962ZM38.2463 10.3125H31.8751V3.24187C35.0954 4.23937 37.5657 6.91125 38.2463 10.3125ZM30.0001 2.85938V10.3125H28.1251V2.85938C28.4335 2.82937 28.7457 2.8125 29.0626 2.8125C29.3795 2.8125 29.6916 2.82937 30.0001 2.85938ZM26.2501 3.24187V10.3125H19.8788C20.5595 6.91125 23.0298 4.23937 26.2501 3.24187ZM17.8116 12.1875H40.3126V14.0625H17.8126L17.8116 12.1875ZM21.5626 15.9375V16.875C20.8763 16.875 20.2416 17.0737 19.6876 17.3962V15.9375H21.5626ZM19.6876 20.625C19.6876 19.5909 20.5285 18.75 21.5626 18.75V22.5C20.5285 22.5 19.6876 21.6591 19.6876 20.625ZM23.4376 22.5V15.9375H34.6876V22.5C34.6876 24.0506 33.4257 25.3125 31.8751 25.3125H26.2501C24.6995 25.3125 23.4376 24.0506 23.4376 22.5ZM7.69415 26.3062C8.18727 25.5281 9.41352 24.8325 10.8198 24.5334C11.3551 24.42 11.8557 24.3703 12.3113 24.3703C13.6379 24.3703 14.5829 24.7903 14.8904 25.2703L14.9823 25.5553C15.0048 25.7475 14.9551 25.9594 14.806 26.1947C14.3129 26.9728 13.0866 27.6684 11.6804 27.9675C9.7454 28.3772 8.28383 27.9506 7.74102 27.3778L7.55727 27.1022C7.54602 27.0741 7.52352 27.0478 7.51602 27.0197C7.46727 26.8097 7.52727 26.5706 7.69415 26.3062ZM10.2235 29.9991C10.8141 29.9991 11.4357 29.9353 12.0704 29.8003C13.577 29.4806 14.8848 28.8159 15.7566 27.9609L17.5407 33.5006C17.1226 34.1053 16.8751 34.8356 16.8751 35.625V41.0569L9.46508 29.9587C9.71165 29.9831 9.96383 29.9991 10.2235 29.9991ZM13.1251 45C13.1251 43.2947 13.4016 41.6353 13.9463 40.0481L16.8751 44.4347V45.645C16.4663 45.2794 16.0838 44.8819 15.7501 44.4375L14.2501 45.5625C16.187 48.1453 19.2713 49.6875 22.5001 49.6875H25.3126V53.4375H21.5626C16.9098 53.4375 13.1251 49.6519 13.1251 45ZM23.4376 57.1875H20.6251C19.591 57.1875 18.7501 56.3466 18.7501 55.3125V54.9131C19.6454 55.1672 20.5866 55.3125 21.5626 55.3125H28.1251C28.1251 56.3466 27.2841 57.1875 26.2501 57.1875H23.4376ZM47.0635 47.8125C44.9916 47.8125 43.1288 46.6612 42.2016 44.8078L41.2501 42.9038V39.375H39.3751V57.1875H33.7501V55.14C34.8385 54.7519 35.6251 53.7206 35.6251 52.5V50.625C35.6251 49.4044 34.8385 48.3731 33.7501 47.985V30.2475C38.8341 31.6162 43.097 35.205 45.2907 40.0303L45.4323 40.3406L45.0076 43.9538L46.8695 44.1722L48.646 29.0625H52.5001V42.3769C52.5001 45.3741 50.0607 47.8125 47.0635 47.8125Z" fill="black"/>
</svg>
