<svg width="60" height="60" viewBox="0 0 60 60" fill="none" xmlns="http://www.w3.org/2000/svg">
<path d="M40.5747 0.878906H19.425C18.5204 0.878906 17.7719 1.56221 17.6649 2.46056C17.0115 7.94425 12.9822 12.3118 7.34017 13.1524C6.18496 13.3246 5.87207 15.0111 5.87207 16.1791L6.32089 27.399C6.32089 39.2229 11.9904 49.5474 22.4376 55.0847L26.9057 57.3985C28.4562 58.2202 30.4224 59.3398 32.0539 58.7761C32.3581 58.671 32.6562 58.5419 32.9453 58.3886L37.6856 55.8752C48.1304 50.3371 54.6614 39.4821 54.6614 27.6599V15.4995C54.6614 14.3316 53.8146 13.3245 52.6593 13.1526C47.0141 12.3123 42.9876 7.9446 42.3347 2.46079C42.2278 1.56233 41.4794 0.878906 40.5747 0.878906Z" fill="#FFDD4D"/>
<path d="M38.4585 4.5553H21.3474C21.0384 4.5553 20.779 4.7919 20.756 5.10009C20.4 9.85981 15.4818 14.6794 11.2479 16.1176C10.6272 16.3284 10.55 17.2585 9.97519 17.3132C9.66828 17.3423 9.43262 17.5963 9.43262 17.9045L9.91132 27.1995C9.91132 37.9921 15.2156 47.0784 24.7514 52.1326L28.5187 54.3266C29.3287 54.756 30.2988 54.7559 31.1088 54.3264L32.6379 54.4117L35.6743 52.8017C45.1629 47.7707 51.0959 37.9096 51.0959 27.1696V17.1125C51.0959 16.8042 50.8601 16.5502 50.5532 16.5211C46.0404 16.0944 39.4677 10.5569 39.0497 5.09857C39.0263 4.79119 38.7671 4.5553 38.4585 4.5553Z" fill="#FFC80A"/>
<path d="M41.2281 17.7016C35.0272 11.5007 24.9735 11.5007 18.7726 17.7016C12.5717 23.9026 13.2067 33.7263 19.4075 39.9273C25.6084 46.1283 35.0272 46.3582 41.2281 40.1572C47.4291 33.9562 47.4291 23.9026 41.2281 17.7016Z" fill="#F7F9FA"/>
<path d="M41.9445 39.3906C41.7171 39.6514 41.4774 39.9072 41.2277 40.1568C35.0271 46.3587 24.9737 46.3587 18.773 40.1568C12.5711 33.9561 12.5711 23.9027 18.773 17.7021C19.0226 17.4525 19.2784 17.2127 19.5392 16.9854C14.0639 23.2218 14.3036 32.723 20.2559 38.674C26.2069 44.6262 35.7081 44.866 41.9445 39.3906Z" fill="#E9EDF1"/>
<path d="M38.6118 20.318C33.8558 15.562 26.1448 15.562 21.3888 20.318C16.6328 25.0739 17.1754 32.2057 21.9314 36.9617C26.6874 41.7177 33.8557 42.2969 38.6118 37.5409C43.3679 32.785 43.3678 25.074 38.6118 20.318Z" fill="#E9EDF1"/>
<path d="M39.3779 36.7006C39.1381 36.9897 38.8823 37.2702 38.6117 37.5408C33.8556 42.2969 26.1449 42.2969 21.3888 37.5408C16.6328 32.7847 16.6328 25.074 21.3888 20.3179C21.6594 20.0473 21.94 19.7915 22.2291 19.5518C18.2539 24.3363 18.5097 31.4489 22.9952 35.9344C27.4807 40.4199 34.5933 40.6757 39.3779 36.7006Z" fill="#DCE6EB"/>
<path d="M32.0543 58.7768C30.4219 59.3393 28.6138 59.2104 27.0634 58.3889L22.3185 55.8741C11.8715 50.3371 5.33838 39.4811 5.33838 27.657V15.4991C5.33838 14.3354 6.18094 13.33 7.33053 13.1542V27.657C7.33053 38.7709 13.4312 48.9086 23.2513 54.114L27.9962 56.6288C28.2423 56.76 29.9942 57.6975 32.0543 58.7768Z" fill="#FFC80A"/>
<path d="M32.6379 54.4115L31.2996 55.1217C30.4899 55.5506 29.5196 55.5506 28.7098 55.1217L24.4032 52.8389C14.8667 47.7847 8.9043 37.8755 8.9043 27.0827V17.1126C8.9043 16.8044 9.13984 16.5501 9.44687 16.5208C10.0211 16.4657 10.6269 16.3286 11.248 16.1177V27.0827C11.248 37.0329 16.7088 46.1089 25.5001 50.7682L29.8067 53.051C29.836 53.0662 31.2129 53.7295 32.6379 54.4115Z" fill="#FFC600"/>
<path d="M52.7887 12.2833C47.6742 11.522 43.8238 7.53291 43.2075 2.35683C43.0475 1.01319 41.9156 0 40.5746 0H19.425C18.0842 0 16.9523 1.01319 16.7922 2.35648C16.5361 4.50508 15.7149 6.51094 14.4171 8.15704C14.1166 8.53825 14.182 9.09089 14.5632 9.39136C14.9444 9.69194 15.4971 9.62643 15.7975 9.24534C17.2957 7.34483 18.2433 5.03464 18.5377 2.56449C18.5925 2.10453 18.9739 1.75766 19.4251 1.75766H40.5747C41.0259 1.75766 41.4073 2.10453 41.4622 2.5646C42.1734 8.53813 46.6213 13.1423 52.5301 14.0218C53.2441 14.1281 53.7826 14.7634 53.7826 15.4995V27.6597C53.7826 39.1854 47.4569 49.6994 37.274 55.0986L32.5336 57.6119C30.9499 58.4516 29.0588 58.4517 27.4748 57.6122L22.73 55.0974C12.5444 49.6989 6.21714 39.1841 6.21714 27.6565V15.4994C6.21714 14.7634 6.7556 14.1281 7.46973 14.0218C9.30298 13.7487 11.007 13.1262 12.5341 12.1719C12.9458 11.9147 13.071 11.3725 12.8137 10.9608C12.5565 10.5493 12.0142 10.4238 11.6027 10.6812C10.2815 11.5068 8.80377 12.0458 7.21087 12.2833C5.64234 12.5168 4.45947 13.8995 4.45947 15.4994V27.6565C4.45947 33.6176 6.08401 39.4683 9.15767 44.5759C12.2312 49.6836 16.6398 53.859 21.9069 56.6507L26.6517 59.1655C27.7013 59.7218 28.8526 60 30.0039 60C31.1556 59.9999 32.3073 59.7216 33.3571 59.1649L38.0973 56.6517C43.3632 53.8597 47.7707 49.6844 50.8435 44.5772C53.9162 39.47 55.5404 33.6201 55.5404 27.6599V15.4996C55.5404 13.8994 54.3574 12.5167 52.7887 12.2833Z" fill="black"/>
<path d="M45.9078 43.7498C46.3143 44.0149 46.8589 43.9002 47.1239 43.4934C50.2973 38.6248 51.9747 32.9802 51.9747 27.1698V17.1128C51.9747 16.3489 51.3991 15.7187 50.6359 15.6463C46.375 15.2434 40.3005 9.92179 39.926 5.03152C39.8677 4.27169 39.223 3.67639 38.4583 3.67639H21.3472C20.5811 3.67639 19.9363 4.27298 19.8794 5.03457C19.5133 9.92917 13.5482 15.2483 9.36316 15.6463C8.60028 15.7188 8.0249 16.3493 8.0249 17.1128V27.0832C8.0249 38.2292 14.1428 48.396 23.9911 53.6159L28.2978 55.8986C28.832 56.1817 29.418 56.3232 30.0041 56.3232C30.5903 56.3232 31.1766 56.1816 31.711 55.8982L36.086 53.5785C39.3282 51.8594 42.1942 49.5874 44.6041 46.8255C44.9232 46.4597 44.8855 45.9046 44.5197 45.5854C44.154 45.2664 43.5988 45.3039 43.2796 45.6699C41.0116 48.2692 38.3142 50.4076 35.2626 52.0256L30.8876 54.3453C30.3344 54.6385 29.674 54.6387 29.1209 54.3454L24.8142 52.0627C15.5423 47.1483 9.78257 37.5767 9.78257 27.0831V17.3676C12.1389 17.0604 14.9061 15.5672 17.2413 13.3319C19.7437 10.9367 21.3229 8.07389 21.6076 5.43417H38.1985C38.4897 8.07155 40.1049 10.9364 42.6645 13.3379C45.0434 15.57 47.8455 17.0612 50.2169 17.368V27.17C50.2169 32.6388 48.6382 37.9514 45.6514 42.5336C45.3864 42.9403 45.5012 43.4848 45.9078 43.7498Z" fill="black"/>
<path d="M44.3872 22.1631C44.8143 21.9324 44.9734 21.3991 44.7427 20.972C44.0345 19.6611 43.1484 18.4452 42.1091 17.3578C35.7312 10.6857 25.1101 10.4484 18.4327 16.8291C15.1982 19.9199 13.3605 24.0845 13.2579 28.5555C13.1554 33.0268 14.8006 37.2693 17.8904 40.5016C21.1732 43.9358 25.5791 45.6652 29.9938 45.665C40.5689 45.6385 48.1409 36.1788 46.5295 26.2273C46.4518 25.748 46 25.4233 45.5212 25.5004C45.042 25.5781 44.7166 26.0295 44.7943 26.5087C46.3081 36.0808 38.7439 43.9534 29.9933 43.9083C26.043 43.9079 22.0984 42.3601 19.1609 39.2871C16.3957 36.3943 14.9234 32.5975 15.0152 28.596C15.107 24.5942 16.7519 20.8666 19.6471 18.0999C25.6237 12.389 35.1303 12.6008 40.8384 18.5725C41.7692 19.5464 42.5624 20.6348 43.1961 21.8077C43.427 22.2346 43.9602 22.3941 44.3872 22.1631Z" fill="black"/>
<path d="M21.6593 36.9065C21.3249 36.5544 20.7685 36.5405 20.4168 36.8749C20.065 37.2094 20.051 37.7657 20.3854 38.1176C22.843 40.7057 26.3471 42.2286 29.9964 42.2379C35.8627 42.3273 41.5648 37.9946 42.8929 32.1694C45.6486 20.3798 33.1879 11.6696 23.1649 17.5714C17.9476 20.7064 15.529 26.9609 17.2835 32.7814C17.4235 33.2463 17.914 33.5096 18.3786 33.3693C18.8434 33.2293 19.1066 32.739 18.9664 32.2742C17.4444 27.2247 19.5432 21.7983 24.0703 19.0782C33.3055 13.7228 43.5723 22.1844 41.1873 31.7442C40.4428 34.7309 38.5795 37.249 35.941 38.8343C31.35 41.5928 25.3438 40.7821 21.6593 36.9065Z" fill="black"/>
<path d="M23.4667 22.3831C22.4291 23.4208 22.4291 25.1094 23.4667 26.1473C24.3766 27.0887 26.1726 27.2329 27.2309 26.1473C28.2687 25.1094 28.2687 23.4208 27.2309 22.383V22.3831C26.3212 21.4414 24.5253 21.2973 23.4667 22.3831ZM25.988 23.626C26.3404 23.9784 26.3404 24.5518 25.988 24.9043C25.719 25.1612 25.165 25.3139 24.7099 24.9043C24.3575 24.5518 24.3575 23.9784 24.7099 23.626C24.9792 23.3691 25.5328 23.216 25.988 23.626Z" fill="black"/>
<path d="M32.7719 31.6881C31.8304 32.5978 31.6862 34.3941 32.7719 35.4523C33.6818 36.3939 35.4777 36.538 36.5362 35.4524C37.4777 34.5427 37.6217 32.7467 36.5362 31.6882C35.5645 30.6939 33.8064 30.659 32.7719 31.6881ZM35.2932 34.2094C35.024 34.4665 34.4702 34.6192 34.0148 34.2094C33.7578 33.9403 33.6051 33.3864 34.0148 32.9312C34.297 32.6709 34.8242 32.5219 35.2931 32.9312C35.5501 33.2003 35.7029 33.7543 35.2932 34.2094Z" fill="black"/>
<path d="M35.06 22.6768L23.7691 33.9677C23.4259 34.3111 23.4259 34.8675 23.7691 35.2107C23.9407 35.3823 24.1657 35.468 24.3906 35.468C24.6155 35.468 24.8405 35.3823 25.012 35.2107L36.3028 23.9198C36.6461 23.5764 36.6461 23.02 36.3028 22.6768C35.9597 22.3337 35.4032 22.3337 35.06 22.6768Z" fill="black"/>
</svg>
