<svg width="60" height="60" viewBox="0 0 60 60" fill="none" xmlns="http://www.w3.org/2000/svg">
<path d="M38.4375 38.4375H2.8125V45.7031C2.8125 46.0139 2.93596 46.312 3.15574 46.5318C3.3755 46.7515 3.67357 46.875 3.98438 46.875H38.4375V38.4375Z" fill="#FFC80A"/>
<path d="M54.8438 31.875H38.4375V46.875H56.0156C56.3264 46.875 56.6245 46.7515 56.8443 46.5318C57.064 46.312 57.1875 46.0139 57.1875 45.7031V34.2188C57.1875 33.5971 56.9406 33.001 56.501 32.5615C56.0615 32.1219 55.4654 31.875 54.8438 31.875Z" fill="#FFC80A"/>
<path d="M38.4375 31.875H55.3125L48.8654 23.0104C48.5393 22.5619 48.1117 22.1969 47.6175 21.9453C47.1234 21.6937 46.5767 21.5625 46.0222 21.5625H38.4375V31.875Z" fill="#FFF9F7"/>
<path d="M47.8125 53.4375C44.7059 53.4375 42.1875 50.9191 42.1875 47.8125C42.1875 44.7059 44.7059 42.1875 47.8125 42.1875C50.9191 42.1875 53.4375 44.7059 53.4375 47.8125C53.4375 50.9191 50.9191 53.4375 47.8125 53.4375Z" fill="white"/>
<path d="M12.1875 53.4375C9.0809 53.4375 6.5625 50.9191 6.5625 47.8125C6.5625 44.7059 9.0809 42.1875 12.1875 42.1875C15.2941 42.1875 17.8125 44.7059 17.8125 47.8125C17.8125 50.9191 15.2941 53.4375 12.1875 53.4375Z" fill="white"/>
<path d="M38.4375 21.5625H45.9375L42.5354 16.4593C42.4284 16.2988 42.2834 16.1672 42.1133 16.0761C41.9432 15.9851 41.7532 15.9375 41.5603 15.9375H38.4375V21.5625Z" fill="#FFC80A"/>
<path d="M45 34.6875H41.25V36.5625H45V34.6875Z" fill="#525A68"/>
<path d="M54.8438 39.375H57.1875V34.2188C57.1875 33.5971 56.9406 33.001 56.501 32.5615C56.0615 32.1219 55.4654 31.875 54.8438 31.875H52.5V37.0312C52.5 37.6529 52.7469 38.249 53.1865 38.6885C53.626 39.1281 54.2221 39.375 54.8438 39.375Z" fill="#FFDD4D"/>
<path d="M1.875 19.6875V13.3594C1.87565 12.8001 2.0981 12.264 2.49354 11.8685C2.88898 11.4731 3.42513 11.2507 3.98438 11.25H37.2656C37.8249 11.2507 38.361 11.4731 38.7565 11.8685C39.1519 12.264 39.3743 12.8001 39.375 13.3594V15H41.5603C41.9076 14.9996 42.2497 15.0852 42.5559 15.2491C42.8622 15.413 43.1231 15.6502 43.3154 15.9394L46.4531 20.6461C47.0794 20.708 47.6856 20.9014 48.232 21.2138C48.7783 21.5262 49.2525 21.9505 49.6235 22.4589L51.3832 24.8782L49.8668 25.9812L48.1073 23.5618C47.8677 23.2334 47.554 22.9661 47.1918 22.7816C46.8295 22.5971 46.4288 22.5006 46.0222 22.5H39.375V30.9375H53.4715L50.8043 27.2702L52.3207 26.1673L55.9219 31.1196C56.565 31.3442 57.1224 31.7631 57.5171 32.3183C57.9117 32.8735 58.1242 33.5376 58.125 34.2188V45.7031C58.1243 46.2624 57.9019 46.7985 57.5065 47.194C57.111 47.5894 56.5749 47.8118 56.0156 47.8125H54.375C54.375 49.553 53.6836 51.2222 52.4529 52.4529C51.2222 53.6836 49.553 54.375 47.8125 54.375C46.072 54.375 44.4028 53.6836 43.1721 52.4529C41.9414 51.2222 41.25 49.553 41.25 47.8125H18.75C18.75 49.553 18.0586 51.2222 16.8279 52.4529C15.5972 53.6836 13.928 54.375 12.1875 54.375C10.447 54.375 8.77782 53.6836 7.54711 52.4529C6.3164 51.2222 5.625 49.553 5.625 47.8125H3.98438C3.42513 47.8118 2.88898 47.5894 2.49354 47.194C2.0981 46.7985 1.87565 46.2624 1.875 45.7031V21.5625H3.75V37.5H37.5V13.3594C37.5 13.2972 37.4753 13.2376 37.4314 13.1936C37.3874 13.1497 37.3278 13.125 37.2656 13.125H3.98438C3.92221 13.125 3.8626 13.1497 3.81865 13.1936C3.77469 13.2376 3.75 13.2972 3.75 13.3594V19.6875H1.875ZM44.1858 20.625L41.7553 16.9794C41.7339 16.9473 41.7049 16.921 41.6709 16.9028C41.6369 16.8845 41.5989 16.875 41.5603 16.875H39.375V20.625H44.1858ZM56.25 34.2188C56.2496 33.8459 56.1013 33.4885 55.8377 33.2248C55.574 32.9612 55.2166 32.8129 54.8438 32.8125H53.4375V37.0312C53.4379 37.4041 53.5862 37.7615 53.8498 38.0252C54.1135 38.2888 54.4709 38.4371 54.8438 38.4375H56.25V34.2188ZM47.8125 52.5C48.7396 52.5 49.6459 52.2251 50.4167 51.71C51.1876 51.1949 51.7884 50.4629 52.1432 49.6063C52.498 48.7498 52.5908 47.8073 52.4099 46.898C52.2291 45.9887 51.7826 45.1535 51.1271 44.4979C50.4715 43.8424 49.6363 43.3959 48.727 43.2151C47.8177 43.0342 46.8752 43.127 46.0187 43.4818C45.1621 43.8366 44.4301 44.4374 43.915 45.2083C43.3999 45.9791 43.125 46.8854 43.125 47.8125C43.1264 49.0553 43.6207 50.2467 44.4995 51.1255C45.3783 52.0043 46.5697 52.4986 47.8125 52.5ZM41.5228 45.9375C41.9268 44.5832 42.7572 43.3954 43.8904 42.5509C45.0236 41.7063 46.3992 41.2501 47.8125 41.2501C49.2258 41.2501 50.6014 41.7063 51.7346 42.5509C52.8678 43.3954 53.6982 44.5832 54.1022 45.9375H56.0156C56.0778 45.9375 56.1374 45.9128 56.1814 45.8689C56.2253 45.8249 56.25 45.7653 56.25 45.7031V40.3125H54.8438C53.9738 40.3115 53.1398 39.9655 52.5247 39.3503C51.9095 38.7352 51.5635 37.9012 51.5625 37.0312V32.8125H39.375V45.9375H41.5228ZM12.1875 52.5C13.1146 52.5 14.0209 52.2251 14.7917 51.71C15.5626 51.1949 16.1634 50.4629 16.5182 49.6063C16.873 48.7498 16.9658 47.8073 16.7849 46.898C16.6041 45.9887 16.1576 45.1535 15.5021 44.4979C14.8465 43.8424 14.0113 43.3959 13.102 43.2151C12.1927 43.0342 11.2502 43.127 10.3937 43.4818C9.53714 43.8366 8.80505 44.4374 8.28999 45.2083C7.77492 45.9791 7.5 46.8854 7.5 47.8125C7.5014 49.0553 7.9957 50.2467 8.87448 51.1255C9.75325 52.0043 10.9447 52.4986 12.1875 52.5ZM3.75 39.375V45.7031C3.75 45.7653 3.77469 45.8249 3.81865 45.8689C3.8626 45.9128 3.92221 45.9375 3.98438 45.9375H5.89781C6.30181 44.5832 7.13216 43.3954 8.2654 42.5509C9.39862 41.7063 10.7742 41.2501 12.1875 41.2501C13.6008 41.2501 14.9764 41.7063 16.1096 42.5509C17.2428 43.3954 18.0732 44.5832 18.4772 45.9375H37.5V39.375H3.75Z" fill="#525A68"/>
<path d="M22.6494 33.1824C25.6321 31.0097 27.6677 27.7755 28.3366 24.1464L29.0389 19.6877L20.6132 15.9307L12.1874 19.6877L12.8969 24.1836C13.5713 27.8437 15.636 31.1007 18.6584 33.2724L20.6057 34.6877L22.6494 33.1824Z" fill="#FFDD4D"/>
<path d="M20.6057 35.6251C20.8058 35.6252 21.0007 35.5612 21.1617 35.4424L23.2054 33.9376C26.3809 31.6234 28.5477 28.1791 29.2591 24.3147C29.2604 24.3073 29.2617 24.3 29.2627 24.2926L29.9652 19.8336C29.9972 19.63 29.9613 19.4215 29.8629 19.2403C29.7645 19.0592 29.6091 18.9155 29.4208 18.8316L20.995 15.0744C20.8749 15.0209 20.7448 14.9932 20.6132 14.9932C20.4817 14.9932 20.3516 15.0209 20.2314 15.0744L11.8057 18.8316C11.6173 18.9156 11.4619 19.0593 11.3636 19.2405C11.2652 19.4217 11.2293 19.6303 11.2614 19.834L11.971 24.3298C11.9722 24.337 11.9734 24.3443 11.9748 24.3516C12.6918 28.2491 14.8894 31.718 18.1072 34.0313L20.0545 35.4469C20.2148 35.563 20.4078 35.6254 20.6057 35.6251ZM27.4123 23.9893C26.7839 27.3788 24.8804 30.3985 22.0936 32.4274L20.6021 33.526L19.2097 32.5138C16.3858 30.4857 14.4551 27.4445 13.8213 24.026L13.2255 20.251L20.6132 16.9572L28.0012 20.2515L27.4123 23.9893Z" fill="#525A68"/>
<path d="M19.2036 28C19.0901 28.0001 18.9777 27.9767 18.8729 27.931C18.768 27.8853 18.6728 27.8184 18.5926 27.7339L16 25.0091L17.2221 23.7248L19.2036 25.8073L23.7779 21L25 22.2844L19.8147 27.7339C19.7346 27.8184 19.6393 27.8854 19.5345 27.931C19.4296 27.9767 19.3172 28.0001 19.2036 28Z" fill="#525A68"/>
<path d="M35.625 15H33.75V16.875H35.625V15Z" fill="#525A68"/>
<path d="M35.625 33.75H33.75V35.625H35.625V33.75Z" fill="#525A68"/>
<path d="M7.5 15H5.625V16.875H7.5V15Z" fill="#525A68"/>
<path d="M7.5 33.75H5.625V35.625H7.5V33.75Z" fill="#525A68"/>
<path d="M47.8125 49.6875C46.777 49.6875 45.9375 48.848 45.9375 47.8125C45.9375 46.777 46.777 45.9375 47.8125 45.9375C48.848 45.9375 49.6875 46.777 49.6875 47.8125C49.6875 48.848 48.848 49.6875 47.8125 49.6875Z" fill="#FEFEFE"/>
<path d="M47.8125 50.625C48.3688 50.625 48.9125 50.4601 49.375 50.151C49.8376 49.842 50.198 49.4027 50.4109 48.8888C50.6238 48.3749 50.6795 47.8094 50.571 47.2638C50.4624 46.7182 50.1946 46.2171 49.8012 45.8238C49.4079 45.4304 48.9068 45.1626 48.3612 45.054C47.8156 44.9455 47.2501 45.0012 46.7362 45.2141C46.2223 45.427 45.783 45.7874 45.474 46.25C45.165 46.7125 45 47.2562 45 47.8125C45.0008 48.5582 45.2974 49.2731 45.8247 49.8003C46.352 50.3276 47.0668 50.6242 47.8125 50.625ZM47.8125 46.875C47.9979 46.875 48.1792 46.93 48.3333 47.033C48.4875 47.136 48.6077 47.2824 48.6786 47.4537C48.7496 47.625 48.7682 47.8135 48.732 47.9954C48.6958 48.1773 48.6065 48.3443 48.4754 48.4754C48.3443 48.6065 48.1773 48.6958 47.9954 48.732C47.8135 48.7682 47.625 48.7496 47.4537 48.6786C47.2824 48.6077 47.136 48.4875 47.033 48.3334C46.93 48.1792 46.875 47.9979 46.875 47.8125C46.8753 47.5639 46.9741 47.3257 47.1499 47.1499C47.3257 46.9741 47.5639 46.8753 47.8125 46.875Z" fill="#525A68"/>
<path d="M12.1875 49.6875C11.152 49.6875 10.3125 48.848 10.3125 47.8125C10.3125 46.777 11.152 45.9375 12.1875 45.9375C13.223 45.9375 14.0625 46.777 14.0625 47.8125C14.0625 48.848 13.223 49.6875 12.1875 49.6875Z" fill="#FEFEFE"/>
<path d="M12.1875 50.625C12.7438 50.625 13.2875 50.4601 13.75 50.151C14.2126 49.842 14.573 49.4027 14.7859 48.8888C14.9988 48.3749 15.0545 47.8094 14.946 47.2638C14.8374 46.7182 14.5696 46.2171 14.1762 45.8238C13.7829 45.4304 13.2818 45.1626 12.7362 45.054C12.1906 44.9455 11.6251 45.0012 11.1112 45.2141C10.5973 45.427 10.158 45.7874 9.84899 46.25C9.53994 46.7125 9.37499 47.2562 9.37499 47.8125C9.37583 48.5582 9.67241 49.2731 10.1997 49.8003C10.7269 50.3276 11.4418 50.6242 12.1875 50.625ZM12.1875 46.875C12.3729 46.875 12.5542 46.93 12.7083 47.033C12.8625 47.136 12.9827 47.2824 13.0536 47.4537C13.1246 47.625 13.1432 47.8135 13.107 47.9954C13.0708 48.1773 12.9815 48.3443 12.8504 48.4754C12.7193 48.6065 12.5523 48.6958 12.3704 48.732C12.1885 48.7682 12 48.7496 11.8287 48.6786C11.6574 48.6077 11.511 48.4875 11.408 48.3334C11.305 48.1792 11.25 47.9979 11.25 47.8125C11.2503 47.5639 11.3491 47.3257 11.5249 47.1499C11.7006 46.9741 11.9389 46.8753 12.1875 46.875Z" fill="#525A68"/>
<path d="M58.125 15H50.625V16.875H58.125V15Z" fill="#525A68"/>
<path d="M48.75 15H46.875V16.875H48.75V15Z" fill="#525A68"/>
<path d="M49.6875 5.625H34.6875V7.5H49.6875V5.625Z" fill="#525A68"/>
<path d="M32.8125 5.625H30.9375V7.5H32.8125V5.625Z" fill="#525A68"/>
<path d="M24.375 7.5H9.375V9.375H24.375V7.5Z" fill="#525A68"/>
<path d="M7.5 7.5H5.625V9.375H7.5V7.5Z" fill="#525A68"/>
<path d="M40.3125 50.625H23.4375V52.5H40.3125V50.625Z" fill="#525A68"/>
<path d="M21.5625 50.625H19.6875V52.5H21.5625V50.625Z" fill="#525A68"/>
</svg>
