<svg width="60" height="60" viewBox="0 0 60 60" fill="none" xmlns="http://www.w3.org/2000/svg">
<g clip-path="url(#clip0)">
<path d="M56.538 13.6123C54.496 13.6045 53.4757 11.1335 54.9219 9.68742C55.9259 8.68336 55.9259 7.05551 54.9219 6.05145L53.9064 5.03602C52.9025 4.03207 51.3109 4.08211 50.3032 5.0823C48.8539 6.52078 46.3851 5.49492 46.3851 3.44988C46.3851 2.02992 45.234 0.878906 43.8141 0.878906H42.4339C41.0139 0.878906 39.8629 2.03004 39.8629 3.44988C39.8629 5.4982 37.3864 6.52395 35.9381 5.07562C34.934 4.07156 33.3062 4.07156 32.3021 5.07562L31.3262 6.05156C30.3221 7.05562 30.3221 8.68348 31.3262 9.68754C32.7723 11.1336 31.7519 13.6046 29.71 13.6124C28.2902 13.6178 27.1295 14.7077 27.1295 16.1276V17.5637C27.1295 18.9837 28.2806 20.1347 29.7004 20.1347C31.7488 20.1347 32.7745 22.6112 31.3262 24.0595C30.3221 25.0636 30.3221 26.6914 31.3262 27.6955L32.3021 28.6714C33.3062 29.6755 34.934 29.6755 35.9381 28.6714C37.3864 27.2231 39.8629 28.2489 39.8629 30.2972C39.8629 31.7171 41.0141 32.8683 42.434 32.8683H43.8143C45.2342 32.8683 46.3852 31.7171 46.3852 30.2973C46.3852 28.249 48.8618 27.2232 50.3101 28.6716C51.3141 29.6756 52.942 29.6756 53.9461 28.6716L54.922 27.6956C55.9261 26.6916 55.9261 25.0637 54.922 24.0596C53.4759 22.6136 54.4963 20.1425 56.5381 20.1348C57.958 20.1294 59.1187 19.0395 59.1187 17.6196V16.1277C59.1186 14.7076 57.9579 13.6177 56.538 13.6123ZM43.573 23.7728C39.4006 24.0364 35.9609 20.5966 36.2246 16.4244C36.442 12.9836 39.234 10.1917 42.6748 9.97418C46.8472 9.71051 50.2868 13.1503 50.0232 17.3225C49.8057 20.7634 47.0137 23.5553 43.573 23.7728Z" fill="#FFE073"/>
<path d="M56.538 13.6124C54.496 13.6046 53.4757 11.1336 54.9219 9.68754C55.9259 8.68348 55.9259 7.05562 54.9219 6.05156L53.9065 5.03613C52.9025 4.03219 51.3109 4.08223 50.3032 5.08242C48.8539 6.52078 46.3851 5.49504 46.3851 3.44988C46.3851 2.02992 45.234 0.878906 43.8142 0.878906H42.4339C41.7965 0.878906 41.2136 1.11141 40.7645 1.49555C47.2392 3.60773 51.9183 9.69375 51.9183 16.8737C51.9183 24.0537 47.2392 30.1397 40.7645 32.2519C41.2138 32.636 41.7965 32.8684 42.4339 32.8684H43.8142C45.2341 32.8684 46.3851 31.7173 46.3851 30.2974C46.3851 28.2491 48.8617 27.2234 50.31 28.6717C51.314 29.6757 52.9419 29.6757 53.9459 28.6717L54.9219 27.6957C55.9259 26.6917 55.9259 25.0638 54.9219 24.0598C53.4758 22.6137 54.4961 20.1425 56.538 20.1349C57.9579 20.1295 59.1186 19.0396 59.1186 17.6197V16.1278C59.1186 14.7077 57.9579 13.6178 56.538 13.6124Z" fill="#FFC80A"/>
<path d="M28.7871 37.5053C28.0021 37.4034 27.4144 36.7356 27.4144 35.944V28.7432H16.4121V35.944C16.4121 36.7356 15.8244 37.4034 15.0394 37.5053C15.0394 37.5053 12.9786 44.4401 21.9132 44.4401C30.8478 44.4401 28.7871 37.5053 28.7871 37.5053Z" fill="#FFECE3"/>
<path d="M20.2139 28.7432V38.9851C20.2139 39.7767 20.8016 40.4446 21.5866 40.5464C23.1991 40.7557 25.9569 41.1634 28.3395 41.7628C29.4718 39.8105 28.7871 37.5053 28.7871 37.5053C28.002 37.4034 27.4143 36.7356 27.4143 35.944V28.7432H20.2139Z" fill="#FFDDCE"/>
<path d="M32.3402 18.6967H31.6747V17.9152V16.0471C31.6747 13.4095 30.5918 10.8535 28.593 9.13236C27.026 7.78295 24.8231 6.60521 21.9132 6.57275C19.0033 6.60521 16.8006 7.78295 15.2334 9.13236C13.2346 10.8534 12.1517 13.4094 12.1517 16.0471V17.9152V18.6967H11.4862C10.5105 18.6967 9.71951 19.4878 9.71951 20.4635V22.4212C9.71951 23.3969 10.5105 24.1879 11.4862 24.1879H12.1544C12.2095 26.752 13.2869 29.2198 15.2335 30.896C16.8007 32.2453 19.0035 33.4231 21.9133 33.4556C24.8232 33.4231 27.026 32.2454 28.5932 30.896C30.5398 29.2199 31.6172 26.752 31.6723 24.1879H32.3405C33.3162 24.1879 34.1072 23.3969 34.1072 22.4212V20.4635C34.1069 19.4878 33.3159 18.6967 32.3402 18.6967Z" fill="#FFECE3"/>
<path d="M32.3402 18.6968H31.6747V17.9153V16.0472C31.6747 13.4095 30.5918 10.8536 28.593 9.13242C27.5285 8.21578 26.1703 7.37883 24.4969 6.92578L24.4952 24.188C24.4401 26.752 23.3627 29.2199 21.4161 30.896C20.5733 31.6216 19.5464 32.2973 18.3248 32.7723C19.3747 33.1805 20.5684 33.4405 21.9133 33.4556C24.8232 33.4232 27.026 32.2453 28.5932 30.896C30.5398 29.22 31.6172 26.752 31.6723 24.188H32.3405C33.3162 24.188 34.1072 23.397 34.1072 22.4212V20.4635C34.107 19.4877 33.3159 18.6968 32.3402 18.6968Z" fill="#FFDDCE"/>
<path d="M39.2119 59.1212C41.2737 59.1212 42.9451 57.4497 42.9451 55.3879V46.6494C42.9451 43.6241 41.1646 40.8821 38.4008 39.6517C35.8848 38.5315 31.1286 37.8092 28.7871 37.5054L21.9132 41.8046L15.0394 37.5054C12.698 37.8092 7.94178 38.5315 5.42577 39.6517C2.66202 40.8821 0.88147 43.6241 0.88147 46.6494V55.3879C0.88147 57.4497 2.55292 59.1212 4.61471 59.1212H39.2119Z" fill="#F6F9F9"/>
<path d="M38.4008 39.6517C35.8848 38.5315 31.1286 37.8092 28.7871 37.5054L23.4926 40.8169C25.9655 41.1976 29.2532 41.826 31.2001 42.6928C33.9639 43.9233 35.7444 46.6652 35.7444 49.6905V58.4292C35.7444 58.6658 35.7215 58.8969 35.6794 59.1213H39.2118C41.2736 59.1213 42.945 57.4499 42.945 55.3881V46.6494C42.9451 43.6241 41.1646 40.8821 38.4008 39.6517Z" fill="#E7ECF1"/>
<path d="M25.7148 5.99121H18.0417C16.641 5.99121 15.4506 6.8891 15.0135 8.14078C14.8496 8.61 14.4019 8.92008 13.9049 8.92008C12.1192 8.92008 10.6715 10.3677 10.6715 12.1534V18.8955C10.6715 18.8955 13.5086 18.8618 14.4683 19.8082C14.6701 20.0072 15.0109 19.8668 15.0109 19.5836V15.1514C15.0109 13.6125 16.2585 12.365 17.7972 12.365H17.8308C18.2918 12.365 18.7477 12.4362 19.1836 12.5734C20.0129 12.8346 20.8715 12.9912 21.741 12.9912H22.0852C22.9547 12.9912 23.8134 12.8346 24.6426 12.5734C25.0785 12.4362 25.5344 12.365 25.9954 12.365H26.029C27.5679 12.365 28.8153 13.6126 28.8153 15.1514V19.2625C28.8153 19.6775 29.1518 20.014 29.5669 20.014H29.57C30.207 20.014 30.8259 19.8288 31.3753 19.5063C32.235 19.0017 33.1547 18.8955 33.1547 18.8955V13.4313C33.1549 9.32227 29.8238 5.99121 25.7148 5.99121Z" fill="#AA8080"/>
<path d="M25.7148 5.99121H24.4969L24.4963 12.6169C24.5451 12.6022 24.5942 12.5886 24.6429 12.5733C25.0787 12.4361 25.5347 12.3649 25.9957 12.3649H26.0292C27.5681 12.3649 28.8156 13.6125 28.8156 15.1513V19.2623C28.8156 19.6774 29.152 20.0139 29.5671 20.0139H29.5703C30.2073 20.0139 30.8262 19.8287 31.3755 19.5062C32.2352 19.0016 33.1549 18.8954 33.1549 18.8954V13.4312C33.1549 9.32227 29.8239 5.99121 25.7148 5.99121Z" fill="#9D6B6B"/>
<path d="M12.905 40.5249L16.8558 43.916C17.4245 44.4042 18.2536 44.4396 18.8619 44.0015L21.9132 41.8046L15.0394 37.5054C14.6593 37.5547 14.2157 37.6151 13.7283 37.6863C12.35 37.8879 11.8481 39.6178 12.905 40.5249Z" fill="#E7ECF1"/>
<path d="M30.9214 40.5249L26.9707 43.916C26.402 44.4042 25.5729 44.4396 24.9646 44.0015L21.9132 41.8046L28.7871 37.5054C29.1671 37.5547 29.6108 37.6151 30.0982 37.6863C31.4764 37.8879 31.9784 39.6178 30.9214 40.5249Z" fill="#E7ECF1"/>
<path d="M21.9132 41.8047L18.8619 44.0017L20.3051 46.0291H23.5213L24.9646 44.0017L21.9132 41.8047Z" fill="#FFC80A"/>
<path d="M25.2927 59.1215L23.5213 46.0293H20.3051L18.5338 59.1215H25.2927Z" fill="#FFC80A"/>
<path d="M42.6195 9.09761C38.7202 9.34394 35.594 12.4701 35.3475 16.3694C35.051 21.0605 38.9243 24.9485 43.6284 24.6504C47.5276 24.4041 50.6538 21.2778 50.9003 17.3785C51.1968 12.6884 47.3248 8.7996 42.6195 9.09761ZM49.1462 17.2677C48.9554 20.2857 46.5358 22.7054 43.5176 22.8962C39.8569 23.1252 36.8726 20.1066 37.1017 16.4803C37.2925 13.4621 39.7122 11.0425 42.7303 10.8517C46.3715 10.6227 49.3764 13.6239 49.1462 17.2677Z" fill="#525A68"/>
<path d="M56.5414 12.7336C55.2748 12.7288 54.6478 11.2046 55.5434 10.309C56.195 9.65742 56.5539 8.79105 56.5539 7.86949C56.5539 6.94793 56.195 6.08168 55.5434 5.43012L54.5279 4.41469C53.1874 3.07418 51.0596 3.0934 49.6842 4.45852C48.7852 5.35066 47.2641 4.71645 47.2641 3.44977C47.2639 1.54758 45.7164 0 43.8141 0H42.4338C40.5315 0 38.9839 1.54758 38.9839 3.44988C38.9839 4.71773 37.4585 5.35336 36.5593 4.45418C35.9078 3.8025 35.0414 3.44367 34.12 3.44367C33.1984 3.44367 32.3321 3.8025 31.6806 4.45418L30.7046 5.43012C30.4366 5.69813 30.2183 6.00445 30.0539 6.33656C28.7898 5.56055 27.3039 5.11219 25.715 5.11219H18.0419C16.3064 5.11219 14.756 6.2127 14.1839 7.85074C14.1442 7.96453 14.0321 8.04105 13.905 8.04105C11.6375 8.04105 9.79277 9.88582 9.79277 12.1533C9.79277 12.6387 10.1863 13.0321 10.6716 13.0321C11.1569 13.0321 11.5503 12.6386 11.5503 12.1533C11.5503 10.855 12.6066 9.79875 13.9049 9.79875C14.7783 9.79875 15.5572 9.24891 15.8432 8.43035C16.1692 7.49695 17.0527 6.86988 18.0418 6.86988H25.7149C29.3328 6.86988 32.2762 9.81328 32.2762 13.4311V18.1847C30.9152 18.5671 30.7335 19.077 29.6946 19.1316V15.1512C29.6946 13.1302 28.0503 11.4859 26.0293 11.4859H25.9958C24.4909 11.4859 23.8762 12.112 22.0856 12.112H21.7413C19.9693 12.112 19.3241 11.4859 17.8311 11.4859H17.7976C15.7766 11.4859 14.1323 13.1302 14.1323 15.1512V18.5774C13.3003 18.2254 12.2844 18.0922 11.5507 18.0432V16.3113C11.5507 15.8259 11.1572 15.4325 10.6719 15.4325C10.1865 15.4325 9.79312 15.8261 9.79312 16.3113V18.432C9.19581 18.9282 8.84109 19.6659 8.84109 20.463V22.4208C8.84109 23.8268 9.94359 24.98 11.3294 25.0617C11.5929 27.6088 12.7801 29.9425 14.6604 31.5615C14.9451 31.8067 15.2366 32.0344 15.5335 32.2473V35.9439C15.5335 36.2921 15.2727 36.5886 14.9266 36.6336C14.9265 36.6336 14.9265 36.6336 14.9264 36.6336C12.3524 36.9676 7.64894 37.6996 5.06835 38.8486C1.99101 40.2188 0.00268557 43.2806 0.00268557 46.6492V55.3879C0.00245119 57.9311 2.0714 60 4.61448 60H39.2119C41.755 60 43.8239 57.9311 43.8239 55.388V52.4201C43.8239 51.9347 43.4304 51.5413 42.9451 51.5413C42.4598 51.5413 42.0663 51.9348 42.0663 52.4201V55.388C42.0663 56.9619 40.7858 58.2423 39.212 58.2423H36.9539V53.4499C36.9539 52.9645 36.5604 52.5711 36.0751 52.5711C35.5898 52.5711 35.1963 52.9646 35.1963 53.4499V58.2423H26.0607L24.439 46.2554L25.2619 45.0995C25.4757 45.1575 25.6946 45.1882 25.9138 45.1882C26.4953 45.1882 27.0749 44.9848 27.5433 44.5827L31.494 41.1916C32.1566 40.6229 32.4653 39.7855 32.3423 38.943C34.3687 39.3095 36.6157 39.8186 38.0436 40.4543C40.4875 41.5424 42.0666 43.974 42.0666 46.6492V48.3131C42.0666 48.7985 42.4601 49.1919 42.9454 49.1919C43.4306 49.1919 43.8241 48.7984 43.8241 48.3131V46.6492C43.8241 43.2806 41.8357 40.2188 38.7585 38.8486C36.1779 37.6997 31.4745 36.9677 28.9004 36.6336H28.9003C28.5543 36.5886 28.2934 36.2923 28.2934 35.9439V32.2473C28.5903 32.0344 28.8818 31.8067 29.1666 31.5615C30.0337 30.8148 30.7513 29.9148 31.301 28.9133L31.6806 29.2929C33.0288 30.6411 35.2111 30.6414 36.5594 29.2929C37.4561 28.3963 38.9841 29.0255 38.9841 30.2972C38.9841 32.1995 40.5316 33.7471 42.4339 33.7471H43.8142C45.7165 33.7471 47.2641 32.1995 47.2641 30.2972C47.2641 29.0288 48.7901 28.3942 49.6887 29.2929C50.3402 29.9446 51.2066 30.3034 52.1282 30.3034C53.0497 30.3034 53.916 29.9446 54.5675 29.293L55.5435 28.3171C56.8886 26.9719 56.8886 24.7833 55.5435 23.4382C54.6478 22.5425 55.275 21.0184 56.5416 21.0136C58.4796 21.0063 59.9977 19.5154 59.9977 17.6196V16.1277C59.9975 14.2318 58.4795 12.741 56.5414 12.7336ZM23.0682 45.15H20.7584L20.0849 44.2039L21.9134 42.8875L23.7418 44.2039L23.0682 45.15ZM18.3485 43.2884C18.0686 43.4902 17.6901 43.4739 17.4282 43.2491L13.4774 39.858C13.1402 39.5686 13.2162 39.1939 13.2475 39.086C13.2785 38.9789 13.413 38.6275 13.8435 38.5582C14.212 38.5041 14.5491 38.4571 14.8411 38.4179L20.3379 41.856L18.3485 43.2884ZM1.76015 55.388V46.6493C1.76015 43.9741 3.33925 41.5426 5.78308 40.4544C7.21101 39.8187 9.45796 39.3096 11.4844 38.9432C11.3613 39.7856 11.6701 40.623 12.3326 41.1918L16.2834 44.5828C16.7518 44.9849 17.3313 45.1883 17.9128 45.1883C18.1318 45.1883 18.3509 45.1576 18.5647 45.0996L19.3876 46.2555L17.7659 58.2424H8.63026V53.45C8.63026 52.9646 8.23675 52.5713 7.75148 52.5713C7.2662 52.5713 6.87269 52.9648 6.87269 53.45V58.2424H4.61448C3.04065 58.2423 1.76015 56.9618 1.76015 55.388ZM19.5395 58.2423L21.073 46.9077H22.7534L24.2869 58.2423H19.5395ZM30.579 39.0859C30.6103 39.1938 30.6861 39.5686 30.349 39.8579L26.3982 43.249C26.1363 43.4736 25.7579 43.4899 25.4781 43.2882L23.4886 41.8557L28.9854 38.4177C29.2774 38.4568 29.6146 38.5038 29.9832 38.558C30.4134 38.6275 30.548 38.9789 30.579 39.0859ZM27.1113 37.5168L21.9132 40.768L16.715 37.5168C17.0747 37.0879 17.2909 36.5379 17.2909 35.944V33.2856C20.2403 34.6835 23.5857 34.6836 26.5356 33.2856V35.944C26.5356 36.5379 26.7518 37.088 27.1113 37.5168ZM28.0196 30.2297C24.3907 33.3544 19.4365 33.355 15.8069 30.2297C14.0952 28.7558 13.0842 26.5466 13.0331 24.1688C13.0229 23.6909 12.6326 23.3088 12.1546 23.3088H11.4864C10.9967 23.3088 10.5984 22.9105 10.5984 22.4209V20.4632C10.5984 20.1923 10.7223 19.9431 10.9283 19.7762C11.9393 19.7989 13.4143 20.0029 13.8513 20.4339C14.1968 20.7745 14.7088 20.8739 15.1559 20.6869C15.6018 20.5003 15.8899 20.0672 15.8899 19.5834V15.1513C15.8899 14.0994 16.7456 13.2437 17.7975 13.2437C19.4135 13.3624 19.7912 13.8698 21.7412 13.8698H22.0855C24.1028 13.8698 24.8654 13.2437 25.9957 13.2437H26.0292C27.0811 13.2437 27.9368 14.0994 27.9368 15.1513V19.2625C27.9368 20.1614 28.6682 20.8928 29.5703 20.8928C31.2335 20.8928 31.6827 20.12 32.9564 19.8259C33.1276 19.9907 33.2282 20.2186 33.2282 20.4633V22.421C33.2282 22.9106 32.8298 23.3089 32.3402 23.3089H31.672C31.194 23.3089 30.8037 23.691 30.7935 24.1689C30.7424 26.5467 29.7314 28.7558 28.0196 30.2297ZM58.2398 17.6196C58.2398 18.5336 57.4909 19.2524 56.5348 19.256C53.7074 19.2667 52.303 22.6838 54.3005 24.6812C54.9602 25.341 54.9602 26.4145 54.3005 27.0744L53.3245 28.0504C53.005 28.3699 52.58 28.5461 52.1279 28.5461C51.6759 28.5461 51.251 28.37 50.9313 28.0504C48.93 26.049 45.5062 27.463 45.5062 30.2975C45.5062 31.2306 44.7471 31.9897 43.8141 31.9897H42.4338C41.5008 31.9897 40.7416 31.2306 40.7416 30.2975C40.7416 27.4665 37.3205 26.0464 35.3164 28.0504C34.655 28.7118 33.5848 28.7118 32.9234 28.0504L32.0495 27.1766C32.2696 26.4966 32.4223 25.7885 32.4974 25.0621C33.8832 24.9804 34.9857 23.8271 34.9857 22.4211V20.4634C34.9857 19.6664 34.631 18.9286 34.0337 18.4323V13.4314C34.0337 11.093 33.0623 8.9782 31.5036 7.46531C31.5762 7.16695 31.7271 6.89332 31.9472 6.67324L32.9232 5.6973C33.2428 5.37773 33.6677 5.2016 34.1197 5.2016C34.5717 5.2016 34.9968 5.37762 35.3163 5.6973C37.3178 7.69863 40.7414 6.28465 40.7414 3.45012C40.7414 2.51707 41.5005 1.75793 42.4336 1.75793H43.8138C44.7469 1.75793 45.506 2.51707 45.506 3.45012C45.506 6.27855 48.9179 7.69535 50.922 5.70633C51.6007 5.03297 52.6385 5.01152 53.2847 5.6577L54.3001 6.67324C54.6197 6.99281 54.7958 7.41773 54.7958 7.86973C54.7958 8.32172 54.6198 8.74676 54.3001 9.06633C52.3 11.0664 53.7108 14.4807 56.5344 14.4914C57.4905 14.495 58.2395 15.2139 58.2395 16.1278V17.6196H58.2398Z" fill="#525A68"/>
</g>
<defs>
<clipPath id="clip0">
<rect width="60" height="60" fill="white"/>
</clipPath>
</defs>
</svg>
