<svg width="60" height="60" viewBox="0 0 60 60" fill="none" xmlns="http://www.w3.org/2000/svg">
<g clip-path="url(#clip0)">
<path d="M38.1073 48.7365V54.1284C38.1073 55.599 36.9154 56.7909 35.4448 56.7909H3.55935C2.08876 56.7909 0.896851 55.599 0.896851 54.1284V48.7365C0.896851 47.2672 2.08876 46.0752 3.55935 46.0752H35.4448C36.9152 46.0752 38.1073 47.2672 38.1073 48.7365Z" fill="#FFF7EA"/>
<path d="M38.1074 48.737V54.1289C38.1074 55.5038 37.0649 56.636 35.7271 56.7771C35.6338 56.7867 35.5405 56.7914 35.4449 56.7914H10.1123C8.64296 56.7914 7.45093 55.5995 7.45093 54.1289V48.737C7.45093 47.2677 8.64284 46.0757 10.1123 46.0757H35.4449C36.9154 46.0757 38.1074 47.2677 38.1074 48.737Z" fill="white"/>
<path d="M38.1074 48.737V54.1289C38.1074 55.5038 37.0649 56.636 35.727 56.7771C35.4843 56.7867 35.2416 56.7914 34.999 56.7914C32.4261 56.7914 29.8532 56.2617 27.4573 55.2001C25.8493 54.4888 24.3238 53.5371 22.9298 52.3476C22.5568 52.0295 22.1957 51.6948 21.843 51.3433C20.2685 49.7687 19.0359 47.9826 18.144 46.0757H35.4449C36.9153 46.0757 38.1074 47.2677 38.1074 48.737Z" fill="#F4B74A"/>
<path d="M39.9007 38.0202V43.4121C39.9007 44.8827 38.7088 46.0746 37.2382 46.0746H5.35275C3.88216 46.0746 2.69025 44.8827 2.69025 43.4121V38.0202C2.69025 36.5509 3.88216 35.3589 5.35275 35.3589H37.2382C38.7086 35.3589 39.9007 36.5508 39.9007 38.0202Z" fill="#FFF7EA"/>
<path d="M38.1074 38.0202V43.4121C38.1074 44.8827 36.9155 46.0746 35.4449 46.0746H10.1123C8.64296 46.0746 7.45093 44.8827 7.45093 43.4121V38.0202C7.45093 36.5509 8.64284 35.3589 10.1123 35.3589H35.4449C36.9154 35.3589 38.1074 36.5508 38.1074 38.0202Z" fill="white"/>
<path d="M38.1074 38.0202V43.4121C38.1074 44.8827 36.9155 46.0746 35.4449 46.0746H19.9349C18.3603 42.7091 17.8486 38.9683 18.401 35.3589H35.4449C36.9153 35.3589 38.1074 36.5508 38.1074 38.0202Z" fill="#F4B74A"/>
<path d="M38.1073 5.8708V11.2627C38.1073 12.7333 36.9154 13.9252 35.4448 13.9252H3.55935C2.08876 13.9252 0.896851 12.7333 0.896851 11.2627V5.8708C0.896851 4.4015 2.08876 3.20947 3.55935 3.20947H35.4448C36.9152 3.20947 38.1073 4.40139 38.1073 5.8708Z" fill="#FFF7EA"/>
<path d="M38.1072 5.8708V11.2627C38.1072 12.7333 36.9153 13.9252 35.4447 13.9252H10.1121C8.64278 13.9252 7.45074 12.7333 7.45074 11.2627V5.8708C7.45074 4.4015 8.64266 3.20947 10.1121 3.20947H35.4447C36.9152 3.20947 38.1072 4.40139 38.1072 5.8708Z" fill="white"/>
<path d="M33.7307 3.20898H29.8255V13.9259H33.7307V3.20898Z" fill="#FFF7EA"/>
<path d="M26.9564 3.20898H25.0038V13.9259H26.9564V3.20898Z" fill="#FFF7EA"/>
<path d="M42.8897 16.5871V21.979C42.8897 23.4496 41.6978 24.6415 40.2272 24.6415H8.34176C6.87117 24.6415 5.67926 23.4496 5.67926 21.979V16.5871C5.67926 15.1178 6.87117 13.9258 8.34176 13.9258H40.2272C41.6979 13.9258 42.8897 15.1178 42.8897 16.5871Z" fill="#FFF7EA"/>
<path d="M42.8896 16.5871V21.979C42.8896 23.4496 41.6977 24.6415 40.2271 24.6415H14.8944C13.4251 24.6415 12.2331 23.4496 12.2331 21.979V16.5871C12.2331 15.1178 13.425 13.9258 14.8944 13.9258H40.2271C41.6977 13.9258 42.8896 15.1178 42.8896 16.5871Z" fill="white"/>
<path d="M38.434 13.9263H34.5288V24.6432H38.434V13.9263Z" fill="#FFF7EA"/>
<path d="M31.6586 13.9263H29.706V24.6432H31.6586V13.9263Z" fill="#FFF7EA"/>
<path d="M42.8896 20.2373V21.9792C42.8896 23.4498 41.6977 24.6417 40.2271 24.6417H25.2336C30.0983 20.0555 36.8293 18.5874 42.8896 20.2373Z" fill="#F4B74A"/>
<path d="M38.1073 27.3039V32.6958C38.1073 34.1664 36.9154 35.3583 35.4448 35.3583H3.55935C2.08876 35.3583 0.896851 34.1664 0.896851 32.6958V27.3039C0.896851 25.8346 2.08876 24.6426 3.55935 24.6426H35.4448C36.9152 24.6426 38.1073 25.8346 38.1073 27.3039Z" fill="#FFF7EA"/>
<path d="M38.1074 27.3039V32.6958C38.1074 34.1664 36.9155 35.3583 35.4449 35.3583H10.1123C8.64296 35.3583 7.45093 34.1664 7.45093 32.6958V27.3039C7.45093 25.8346 8.64284 24.6426 10.1123 24.6426H35.4449C36.9154 24.6427 38.1074 25.8346 38.1074 27.3039Z" fill="white"/>
<path d="M38.1074 27.3039V32.6958C38.1074 34.1664 36.9154 35.3583 35.4449 35.3583H16.6077C17.1852 31.578 18.9307 27.9423 21.8418 25.0312C21.9745 24.8985 22.1084 24.7694 22.2436 24.6426H35.4449C36.9153 24.6427 38.1074 25.8346 38.1074 27.3039Z" fill="#F4B74A"/>
<path d="M53.6541 51.343C48.0577 56.9384 39.7846 58.2247 32.9573 55.2002C31.3494 54.4886 29.823 53.5379 28.4298 52.3481C28.0566 52.0303 27.6948 51.6947 27.3421 51.343C20.0769 44.0768 20.0769 32.2972 27.3421 25.031C34.6084 17.7657 46.3879 17.7657 53.6541 25.031C54.0068 25.3836 54.3413 25.7455 54.6593 26.1186C55.8491 27.5109 56.7998 29.0381 57.5114 30.6461C60.536 37.4725 59.2496 45.7466 53.6541 51.343Z" fill="#FFC80A"/>
<path d="M57.5113 30.6461L32.9573 55.2001C31.3494 54.4886 29.8231 53.5378 28.4298 52.348L54.6593 26.1187C55.849 27.5108 56.7997 29.0381 57.5113 30.6461Z" fill="#F9C662"/>
<path d="M53.6541 38.1866C53.6541 45.4523 47.7639 51.3425 40.4982 51.3425C36.3968 51.3425 32.7344 49.4664 30.3211 46.5246C28.4589 44.2548 27.3423 41.3511 27.3423 38.1867C27.3423 30.921 33.2325 25.0308 40.4983 25.0308C43.6635 25.0308 46.5674 26.1491 48.8369 28.0113C51.7778 30.4235 53.6541 34.0861 53.6541 38.1866Z" fill="#FFD488"/>
<path d="M48.8369 28.0111L30.3229 46.525L30.3213 46.5242C29.7777 45.862 29.2977 45.1453 28.8912 44.384C28.4277 43.5189 28.0591 42.5969 27.7976 41.6294C27.5008 40.5317 27.3423 39.3771 27.3423 38.1862C27.3423 30.9205 33.2325 25.0303 40.4983 25.0303C41.69 25.0303 42.8446 25.1886 43.9415 25.4855C44.909 25.747 45.8309 26.1165 46.6961 26.58C47.4572 26.9867 48.1738 27.4675 48.8369 28.0111Z" fill="#F9C662"/>
<path d="M46.696 26.5809L28.8912 44.3847C28.4277 43.5196 28.0591 42.5976 27.7976 41.6301L43.9415 25.4863C44.9087 25.7478 45.8309 26.1174 46.696 26.5809Z" fill="#FFD488"/>
<path d="M30.9012 55.895H3.5591C2.58539 55.895 1.79344 55.103 1.79344 54.1295V48.7376C1.79344 47.764 2.58551 46.9719 3.5591 46.9719H5.35254H10.1122H20.8986C21.394 46.9719 21.7954 46.5704 21.7954 46.0752C21.7954 45.58 21.394 45.1785 20.8986 45.1785H10.1121H5.35254C4.37883 45.1785 3.58687 44.3864 3.58687 43.4128V38.0209C3.58687 37.0473 4.37895 36.2552 5.35254 36.2552H19.2647C19.76 36.2552 20.1614 35.8538 20.1614 35.3585C20.1614 34.8633 19.76 34.4618 19.2647 34.4618H3.5591C2.58539 34.4618 1.79344 33.6697 1.79344 32.6961V27.3042C1.79344 26.3306 2.58551 25.5386 3.5591 25.5386H8.34152H15.5188H24.3458C24.8412 25.5386 25.2425 25.1371 25.2425 24.6418C25.2425 24.1466 24.8412 23.7451 24.3458 23.7451H15.5188H8.34152C7.36781 23.7451 6.57586 22.953 6.57586 21.9795V16.5875C6.57586 15.6139 7.36793 14.8219 8.34152 14.8219H35.4446H40.2272C41.2009 14.8219 41.9929 15.6139 41.9929 16.5875V17.2563C41.9929 17.7516 42.3942 18.153 42.8896 18.153C43.3849 18.153 43.7863 17.7516 43.7863 17.2563V16.5875C43.7863 14.625 42.1897 13.0284 40.2272 13.0284H38.5328C38.8317 12.5077 39.0036 11.9051 39.0036 11.2628V5.87063C39.0036 3.90809 37.4071 2.31152 35.4445 2.31152H3.5591C1.59656 2.31223 0 3.90879 0 5.87121V11.2631C0 13.2257 1.59656 14.8222 3.5591 14.8222H5.25328C4.95434 15.343 4.78242 15.9456 4.78242 16.5879V21.9798C4.78242 22.6222 4.95434 23.2247 5.25328 23.7455H3.5591C1.59656 23.7454 0 25.3419 0 27.3043V32.6962C0 34.248 0.998789 35.5704 2.38687 36.056C2.01234 36.6195 1.79344 37.2949 1.79344 38.0209V43.4128C1.79344 44.1388 2.01234 44.8143 2.38687 45.3777C0.998789 45.8633 0 47.1857 0 48.7375V54.1294C0 56.0918 1.59656 57.6884 3.5591 57.6884H30.9012C31.3965 57.6884 31.7979 57.2869 31.7979 56.7916C31.7979 56.2964 31.3963 55.895 30.9012 55.895ZM1.79332 11.2631V5.87121C1.79332 4.89762 2.58539 4.10555 3.55898 4.10555H35.4445C36.4182 4.10555 37.2102 4.89762 37.2102 5.87121V11.2631C37.2102 12.2367 36.4181 13.0288 35.4445 13.0288H8.34152H3.5591C2.58539 13.0288 1.79332 12.2367 1.79332 11.2631Z" fill="#525A68"/>
<path d="M51.1324 21.8369C50.7177 21.5666 50.162 21.6837 49.8917 22.0986C49.6212 22.5135 49.7384 23.069 50.1532 23.3394C55.196 26.6257 58.2066 32.1762 58.2066 38.1868C58.2066 47.9512 50.2626 55.8953 40.4982 55.8953C30.7336 55.8953 22.7896 47.9512 22.7896 38.1868C22.7896 28.4224 30.7336 20.4784 40.4982 20.4784C43.0619 20.4784 45.5345 21.014 47.8471 22.0703C48.2979 22.2762 48.8296 22.0775 49.0353 21.6272C49.241 21.1767 49.0426 20.6448 48.5922 20.439C46.0441 19.2751 43.3208 18.6851 40.4982 18.6851C29.7449 18.6851 20.9963 27.4336 20.9963 38.1868C20.9963 48.9401 29.7449 57.6886 40.4982 57.6886C51.2514 57.6886 60 48.9402 60 38.1869C60 31.5676 56.6851 25.4554 51.1324 21.8369Z" fill="#525A68"/>
<path d="M29.6808 43.9628C29.4475 43.526 28.9044 43.361 28.4674 43.5947C28.0307 43.828 27.8658 44.3714 28.0993 44.8081C28.7494 46.0243 29.5778 47.1398 30.5617 48.1237C33.3013 50.8633 36.8999 52.2331 40.4984 52.2331C44.0968 52.2331 47.6954 50.8633 50.435 48.1237C55.9141 42.6446 55.9141 33.7294 50.435 28.2503C47.7807 25.596 44.2519 24.1343 40.4984 24.1343C36.7448 24.1343 33.2159 25.5961 30.5617 28.2503C27.0136 31.7982 25.6232 37.0146 26.933 41.8638C27.0621 42.3419 27.5541 42.6248 28.0324 42.4957C28.5104 42.3665 28.7933 41.8744 28.6642 41.3962C27.5214 37.1651 28.7344 32.6137 31.8299 29.5183C34.1453 27.2029 37.2239 25.9276 40.4985 25.9276C43.773 25.9276 46.8517 27.2028 49.1671 29.5183C53.947 34.2983 53.947 42.0757 49.1671 46.8556C44.3872 51.6355 36.6098 51.6355 31.8299 46.8556C30.9705 45.9965 30.2475 45.0232 29.6808 43.9628Z" fill="#525A68"/>
<path d="M37.3376 41.5677C37.3376 41.0725 36.9362 40.671 36.4408 40.671C35.9455 40.671 35.5441 41.0725 35.5441 41.5677C35.5441 43.6621 37.2967 45.4084 39.6016 45.774V46.3013C39.6016 46.7965 40.003 47.198 40.4983 47.198C40.9937 47.198 41.3951 46.7965 41.3951 46.3013V45.774C43.7 45.4084 45.4524 43.662 45.4524 41.5677C45.4524 39.4735 43.7 37.727 41.3951 37.3615V32.4235C42.7024 32.7281 43.6591 33.6803 43.6591 34.8056C43.6591 35.3008 44.0605 35.7023 44.5558 35.7023C45.0512 35.7023 45.4526 35.3008 45.4526 34.8056C45.4526 32.7112 43.7001 30.9649 41.3952 30.5994V30.072C41.3952 29.5768 40.9938 29.1753 40.4985 29.1753C40.0031 29.1753 39.6017 29.5768 39.6017 30.072V30.5994C37.2968 30.965 35.5442 32.7113 35.5442 34.8056C35.5442 36.8998 37.2968 38.6463 39.6017 39.0118V43.9498C38.2942 43.6451 37.3376 42.6929 37.3376 41.5677ZM43.6589 41.5677C43.6589 42.6929 42.7022 43.6451 41.3948 43.9498V39.1858C42.7022 39.4904 43.6589 40.4427 43.6589 41.5677ZM37.3376 34.8056C37.3376 33.6804 38.2943 32.7282 39.6017 32.4235V37.1875C38.2942 36.8829 37.3376 35.9307 37.3376 34.8056Z" fill="#525A68"/>
</g>
<defs>
<clipPath id="clip0">
<rect width="60" height="60" fill="white"/>
</clipPath>
</defs>
</svg>
