<svg width="60" height="60" viewBox="0 0 60 60" fill="none" xmlns="http://www.w3.org/2000/svg">
<path d="M25.3125 40.9762V34.0238L23.6006 33.42C23.5425 33.2728 23.4816 33.1256 23.4169 32.9784L24.2006 31.3388L19.2863 26.4234L17.6466 27.2072C17.5012 27.1425 17.3531 27.0816 17.205 27.0234L16.6012 25.3125H9.64875L9.045 27.0244C8.89687 27.0825 8.74969 27.1434 8.60344 27.2081L6.96375 26.4244L2.04938 31.3397L2.83313 32.9794C2.76844 33.1256 2.70656 33.2728 2.64937 33.4209L0.9375 34.0238V40.9762L2.64937 41.58C2.7075 41.7272 2.76844 41.8744 2.83313 42.0216L2.04938 43.6612L6.96375 48.5756L8.60344 47.7919C8.74969 47.8566 8.89687 47.9184 9.045 47.9756L9.64875 49.6875H16.6012L17.205 47.9756C17.3522 47.9175 17.4994 47.8566 17.6466 47.7919L19.2863 48.5756L24.2006 43.6612L23.4169 42.0216C23.4816 41.8753 23.5434 41.7281 23.6006 41.58L25.3125 40.9762ZM13.125 44.0625C9.50062 44.0625 6.5625 41.1244 6.5625 37.5C6.5625 33.8756 9.50062 30.9375 13.125 30.9375C16.7494 30.9375 19.6875 33.8756 19.6875 37.5C19.6875 41.1244 16.7494 44.0625 13.125 44.0625Z" fill="#FFC80A"/>
<path d="M15.9375 12.1875H25.3125V20.625H15.9375V12.1875Z" fill="#FFC80A"/>
<path d="M27.1875 39.375H44.0625V43.125H27.1875V39.375Z" fill="#FFC80A"/>
<path d="M32.8125 55.3125C33.8466 55.3125 34.6875 54.4716 34.6875 53.4375V51.5625C34.6875 50.5284 33.8466 49.6875 32.8125 49.6875H27.1875C26.1534 49.6875 25.3125 50.5284 25.3125 51.5625V53.4375C25.3125 54.4716 26.1534 55.3125 27.1875 55.3125H32.8125ZM27.1875 51.5625H32.8125L32.8144 53.4375H27.1875V51.5625Z" fill="#525A68"/>
<path d="M15.9375 51.5625V53.4375C15.9375 54.4716 16.7784 55.3125 17.8125 55.3125H19.6875C20.7216 55.3125 21.5625 54.4716 21.5625 53.4375V51.5625C21.5625 50.5284 20.7216 49.6875 19.6875 49.6875H17.8125C16.7784 49.6875 15.9375 50.5284 15.9375 51.5625ZM19.6894 53.4375H17.8125V51.5625H19.6875L19.6894 53.4375Z" fill="#525A68"/>
<path d="M42.1875 55.3125C43.2216 55.3125 44.0625 54.4716 44.0625 53.4375V51.5625C44.0625 50.5284 43.2216 49.6875 42.1875 49.6875H40.3125C39.2784 49.6875 38.4375 50.5284 38.4375 51.5625V53.4375C38.4375 54.4716 39.2784 55.3125 40.3125 55.3125H42.1875ZM40.3125 51.5625H42.1875L42.1894 53.4375H40.3125V51.5625Z" fill="#525A68"/>
<path d="M30 6.5625C30.5178 6.5625 30.9375 6.14277 30.9375 5.625C30.9375 5.10723 30.5178 4.6875 30 4.6875C29.4822 4.6875 29.0625 5.10723 29.0625 5.625C29.0625 6.14277 29.4822 6.5625 30 6.5625Z" fill="#525A68"/>
<path d="M43.125 6.5625C43.6428 6.5625 44.0625 6.14277 44.0625 5.625C44.0625 5.10723 43.6428 4.6875 43.125 4.6875C42.6072 4.6875 42.1875 5.10723 42.1875 5.625C42.1875 6.14277 42.6072 6.5625 43.125 6.5625Z" fill="#525A68"/>
<path d="M51.5625 18.75H43.2413C42.4941 18.75 41.7703 18.4462 41.2538 17.9175C40.0097 16.6406 38.3428 15.9375 36.5625 15.9375C34.2759 15.9375 32.2716 17.1328 31.0641 19.2178L30.9375 19.4353V21.5625H35.8303L36.2991 23.4375H30.9375V25.5647L31.0641 25.7831C32.2716 27.8672 34.2759 29.0625 36.5625 29.0625C38.3428 29.0625 40.0097 28.3594 41.2538 27.0825C41.7703 26.5538 42.4941 26.25 43.2413 26.25H51.5625C53.6306 26.25 55.3125 24.5681 55.3125 22.5C55.3125 20.4319 53.6306 18.75 51.5625 18.75ZM51.5625 24.375H43.2413C41.9916 24.375 40.7775 24.885 39.9112 25.7738C39.0225 26.685 37.8328 27.1875 36.5625 27.1875C35.1159 27.1875 33.8653 26.5266 32.9897 25.3125H38.7009L37.2947 19.6875H32.9897C33.8653 18.4734 35.1159 17.8125 36.5625 17.8125C37.8328 17.8125 39.0225 18.315 39.9112 19.2262C40.7775 20.115 41.9916 20.625 43.2413 20.625H51.5625C52.5966 20.625 53.4375 21.4659 53.4375 22.5C53.4375 23.5341 52.5966 24.375 51.5625 24.375Z" fill="#525A68"/>
<path d="M56.25 12.1875H47.8125V5.625C47.8125 3.04031 45.7097 0.9375 43.125 0.9375H16.875C14.2903 0.9375 12.1875 3.04031 12.1875 5.625V25.3125H14.0625V10.3125H45.9375V12.1875H30C28.4494 12.1875 27.1875 13.4494 27.1875 15V30C27.1875 31.5506 28.4494 32.8125 30 32.8125H32.8125V34.2994C32.8125 35.5472 33.8278 36.5625 35.0756 36.5625C35.6719 36.5625 36.255 36.3206 36.6759 35.8997L39.7631 32.8125H45.9375V45.9375H21.9234L20.0484 47.8125H45.9375V54.375C45.9375 55.9256 44.6756 57.1875 43.125 57.1875H16.875C15.3244 57.1875 14.0625 55.9256 14.0625 54.375V49.6875H12.1875V54.375C12.1875 56.9597 14.2903 59.0625 16.875 59.0625H43.125C45.7097 59.0625 47.8125 56.9597 47.8125 54.375V32.8125H56.25C57.8006 32.8125 59.0625 31.5506 59.0625 30V15C59.0625 13.4494 57.8006 12.1875 56.25 12.1875ZM30 8.4375C28.4494 8.4375 27.1875 7.17562 27.1875 5.625V2.8125H32.8125V5.625C32.8125 7.17562 31.5506 8.4375 30 8.4375ZM14.0625 5.625C14.0625 4.07437 15.3244 2.8125 16.875 2.8125H25.3125V5.625C25.3125 6.68437 25.6791 7.65188 26.2744 8.4375H14.0625V5.625ZM33.7256 8.4375C34.3209 7.65188 34.6875 6.68437 34.6875 5.625V2.8125H43.125C44.6756 2.8125 45.9375 4.07437 45.9375 5.625V8.4375H33.7256ZM57.1875 30C57.1875 30.5166 56.7675 30.9375 56.25 30.9375H38.9869L35.3503 34.5741C35.1263 34.7963 34.6875 34.6162 34.6875 34.2994V30.9375H30C29.4825 30.9375 29.0625 30.5166 29.0625 30V15C29.0625 14.4834 29.4825 14.0625 30 14.0625H56.25C56.7675 14.0625 57.1875 14.4834 57.1875 15V30Z" fill="#525A68"/>
<path d="M16.875 37.5C16.875 35.4319 15.1931 33.75 13.125 33.75C11.0569 33.75 9.375 35.4319 9.375 37.5C9.375 39.5681 11.0569 41.25 13.125 41.25C15.1931 41.25 16.875 39.5681 16.875 37.5ZM11.25 37.5C11.25 36.4659 12.0909 35.625 13.125 35.625C14.1591 35.625 15 36.4659 15 37.5C15 38.5341 14.1591 39.375 13.125 39.375C12.0909 39.375 11.25 38.5341 11.25 37.5Z" fill="#525A68"/>
<path d="M20.625 37.5C20.625 33.3647 17.2603 30 13.125 30C8.98969 30 5.625 33.3647 5.625 37.5C5.625 41.6353 8.98969 45 13.125 45C17.2603 45 20.625 41.6353 20.625 37.5ZM7.5 37.5C7.5 34.3978 10.0228 31.875 13.125 31.875C16.2272 31.875 18.75 34.3978 18.75 37.5C18.75 40.6022 16.2272 43.125 13.125 43.125C10.0228 43.125 7.5 40.6022 7.5 37.5Z" fill="#525A68"/>
<path d="M15.9375 12.1875H17.8125V14.0625H15.9375V12.1875Z" fill="#525A68"/>
<path d="M19.6875 12.1875H25.3125V14.0625H19.6875V12.1875Z" fill="#525A68"/>
<path d="M15.9375 15.9375H25.3125V17.8125H15.9375V15.9375Z" fill="#525A68"/>
<path d="M15.9375 19.6875H25.3125V21.5625H15.9375V19.6875Z" fill="#525A68"/>
<path d="M27.1875 42.1875H44.0625V44.0625H27.1875V42.1875Z" fill="#525A68"/>
<path d="M27.1875 38.4375H44.0625V40.3125H27.1875V38.4375Z" fill="#525A68"/>
</svg>
