<svg width="20" height="21" viewBox="0 0 20 21" fill="none" xmlns="http://www.w3.org/2000/svg">
<path d="M15.7158 12.8541C16.0554 12.9996 16.2009 13.4847 16.2009 13.7272C16.2494 14.1153 16.1524 14.3093 16.0069 14.3093C15.8613 14.3093 15.6673 14.1638 15.4733 13.8242C15.2793 13.4847 15.1823 13.1451 15.2793 12.9511C15.4248 12.8541 15.5703 12.8056 15.7158 12.8541Z" fill="#F28A1A"/>
<path d="M13.7273 14.3578C13.9213 14.3578 14.1639 14.4549 14.4064 14.6489C14.7944 14.9884 14.94 15.3765 14.7459 15.6675C14.6489 15.813 14.4064 15.91 14.2124 15.91C13.9698 15.91 13.7273 15.813 13.5818 15.6675C13.1937 15.328 13.0967 14.8429 13.3393 14.5519C13.3878 14.4549 13.5333 14.3578 13.7273 14.3578Z" fill="#F28A1A"/>
<path d="M9.11915 18.1898C4.07451 18.1898 0 14.1153 0 9.11915C0 4.12302 4.07451 0 9.11915 0C14.1638 0 18.2383 4.07451 18.2383 9.11915C18.2383 10.8169 17.7532 12.4176 16.9771 13.7757C16.9286 13.8242 16.8801 13.8242 16.8801 13.7272C16.5406 11.4959 15.1824 10.2833 13.2422 9.89525C13.0481 9.84674 13.0481 9.74973 13.2907 9.74973C13.9213 9.70122 14.7459 9.70122 15.2309 9.79824C15.2794 9.55571 15.2794 9.31317 15.2794 9.11915C15.2794 5.82073 12.5631 3.10439 9.26467 3.10439C5.96625 3.10439 3.24991 5.82073 3.24991 9.11915C3.24991 12.4176 5.96625 15.1339 9.26467 15.1339H9.55571C9.45869 14.6003 9.41019 14.0668 9.45869 13.4847C9.45869 13.0967 9.55571 13.0481 9.70122 13.3392C10.5258 14.7944 11.7385 16.0555 14.0668 16.5891C15.9585 17.0256 17.8503 17.5107 19.936 20.0815C20.13 20.3241 19.839 20.5666 19.645 20.3726C17.5592 18.5293 15.6675 17.8988 13.9213 17.8988C11.7385 17.9473 10.4288 18.1898 9.11915 18.1898Z" fill="#F28A1A"/>
</svg>
