<svg width="20" height="20" viewBox="0 0 20 20" fill="none" xmlns="http://www.w3.org/2000/svg">
<path d="M11.2252 6.42163H8.82324V9.80398H11.2252C11.7644 9.80398 12.2056 9.65692 12.4997 9.36281C12.8428 9.06869 12.9899 8.62751 12.9899 8.13732C12.9899 7.64712 12.8428 7.25496 12.4997 6.91183C12.2056 6.61771 11.7644 6.42163 11.2252 6.42163Z" fill="#4FAD50"/>
<path d="M9.99999 0C4.46078 0 0 4.46078 0 9.99999C0 15.5392 4.46078 20 9.99999 20C15.5392 20 20 15.5392 20 9.99999C19.951 4.46078 15.4902 0 9.99999 0ZM13.8235 10.4902C13.1863 11.0784 12.3529 11.4216 11.3726 11.4216H8.82353V12.3039H12.598C12.6471 12.3039 12.7451 12.3039 12.7941 12.3529C12.8431 12.402 12.8431 12.451 12.8431 12.549V13.5294C12.8431 13.5784 12.8431 13.6765 12.7941 13.7255C12.7451 13.7745 12.6961 13.7745 12.598 13.7745H8.82353V15.1961C8.82353 15.2451 8.82352 15.3431 8.7745 15.3921C8.72548 15.4412 8.67647 15.4412 8.62745 15.4412H7.35294C7.30392 15.4412 7.20588 15.4412 7.15686 15.3921C7.10784 15.3431 7.10784 15.2941 7.10784 15.1961V13.7745H5.44118C5.39216 13.7745 5.29412 13.7745 5.2451 13.7255C5.19608 13.6765 5.19608 13.6274 5.19608 13.5294V12.549C5.19608 12.5 5.19608 12.402 5.2451 12.3529C5.29412 12.3039 5.34314 12.3039 5.44118 12.3039H7.10784V11.4216H5.44118C5.39216 11.4216 5.29412 11.4216 5.2451 11.3726C5.19608 11.3235 5.19608 11.2745 5.19608 11.1765V10.049C5.19608 10 5.19608 9.95098 5.2451 9.90196C5.29412 9.85294 5.34314 9.85294 5.44118 9.85294H7.10784V5.14706C7.10784 5.09804 7.10784 5 7.15686 4.95098C7.20588 4.90196 7.2549 4.90196 7.35294 4.90196H11.4216C12.402 4.90196 13.2353 5.19608 13.8726 5.83334C14.5098 6.42157 14.8039 7.2549 14.8039 8.18628C14.8039 9.06863 14.4608 9.85293 13.8235 10.4902Z" fill="#4FAD50"/>
</svg>
