<svg width="20" height="19" viewBox="0 0 20 19" fill="none" xmlns="http://www.w3.org/2000/svg">
<path d="M19.9657 7.64642C19.8611 7.01923 19.2862 6.6011 18.5022 6.6011C18.2409 6.6011 18.0318 6.6011 17.7705 6.6011C17.3001 6.54883 17.1956 6.70564 17.1956 7.0715C17.1956 8.90082 17.1956 10.6779 17.1956 12.5072C17.1956 13.448 16.2548 14.441 15.1572 14.6501C11.7076 15.4341 8.25805 16.1658 4.80848 16.9498C4.44262 17.0543 4.02449 17.0543 3.60636 17.0543C3.44956 17.0543 3.18824 16.9498 3.13597 16.793C3.0837 16.6885 3.2405 16.4794 3.34503 16.3749C3.50183 16.2703 3.7109 16.1658 3.91996 16.0613C4.54716 15.8522 5.22661 15.6432 5.8538 15.4341C8.41485 14.5978 10.9759 13.7616 13.5369 12.873C14.6868 12.5072 15.314 11.7232 15.314 10.7301C15.3663 7.59416 15.314 4.40592 15.314 1.26995C15.314 0.747288 15.0527 0.32916 14.4777 0.120096C13.7983 -0.141235 13.1711 0.0678262 12.5961 0.329157C8.9375 2.05394 5.33114 3.77873 1.67251 5.50351C0.627185 6.02618 0 6.7579 0 7.80322C0 10.7824 0 13.7616 0 16.7407C0 16.8975 -1.27611e-05 17.0543 0.0522534 17.1589C0.418117 18.1519 1.35892 18.7791 2.61331 18.7791C5.17435 18.7791 7.73538 18.7791 10.2964 18.7791C12.8575 18.7791 15.3663 18.7791 17.9273 18.7791C18.5022 18.7791 18.9726 18.6746 19.3907 18.3087C19.9134 17.8906 19.9134 17.3157 19.9134 16.793C19.9134 13.8661 19.9134 10.9915 19.9134 8.06455C20.0179 8.01229 20.0179 7.80322 19.9657 7.64642ZM9.30337 6.70564C9.5647 6.02618 10.1396 5.60805 10.9759 5.50351C11.5508 5.45125 12.0212 5.76484 12.1257 6.28751C12.2303 7.0715 11.2895 8.01229 10.2964 8.01229C9.51243 8.01229 9.04204 7.43736 9.30337 6.70564Z" fill="#E47418"/>
</svg>
