<svg width="16" height="17" fill="none" xmlns="http://www.w3.org/2000/svg"><g clip-path="url(#clip0)" fill="#A5A9AF"><path d="M8 12.857c.838 0 1.524-.685 1.524-1.524 0-.838-.686-1.523-1.524-1.523s-1.524.685-1.524 1.523c0 .838.686 1.524 1.524 1.524z"/><path d="M12.572 6h-.762V4.476A3.81 3.81 0 008 .666a3.81 3.81 0 00-3.81 3.81V6h-.76c-.838 0-1.524.686-1.524 1.524v7.619c0 .838.685 1.523 1.524 1.523h9.142c.838 0 1.524-.685 1.524-1.523v-7.62c0-.837-.685-1.523-1.524-1.523zM5.638 4.476A2.364 2.364 0 018 2.114a2.364 2.364 0 012.362 2.362V6H5.638V4.476zm6.934 10.667H3.428v-7.62h9.142v7.62z"/></g><defs><clipPath id="clip0"><path fill="#fff" transform="translate(0 .667)" d="M0 0h16v16H0z"/></clipPath></defs></svg>