<svg width="20" height="20" fill="none" xmlns="http://www.w3.org/2000/svg"><rect width="20" height="20" rx="2" fill="url(#paint0_linear)"/><path d="M10 4.006c-2.457 0-4.791-.219-5.683 2.067-.368.944-.314 2.17-.314 3.926 0 1.54-.05 2.989.314 3.925.89 2.288 3.242 2.069 5.682 2.069 2.353 0 4.78.244 5.682-2.069.369-.953.315-2.161.315-3.925 0-2.341.129-3.853-1.008-4.988-1.15-1.15-2.706-1.005-4.99-1.005H10zm-.537 1.08c5.126-.008 5.779-.578 5.419 7.333-.128 2.798-2.26 2.49-4.881 2.49-4.779 0-4.916-.136-4.916-4.913 0-4.832.379-4.907 4.378-4.912v.002zm3.739.995a.72.72 0 100 1.438.72.72 0 000-1.438zM10 6.92a3.078 3.078 0 100 6.155 3.078 3.078 0 100-6.155zM10 8c2.643 0 2.647 3.996 0 3.996C7.358 11.997 7.354 8 10 8z" fill="#fff"/><defs><linearGradient id="paint0_linear" x1="1.343" y1="18.697" x2="19.874" y2="2.655" gradientUnits="userSpaceOnUse"><stop stop-color="#FD5"/><stop offset=".5" stop-color="#FF543E"/><stop offset="1" stop-color="#C837AB"/></linearGradient></defs></svg>