<svg width="232" height="60" fill="none" xmlns="http://www.w3.org/2000/svg"><g filter="url(#filter0_d)"><path d="M66.533 20.235v26.436l-36.097-6.593-16.188.849V9.595L30.436 0l36.097 20.235z" fill="url(#paint0_linear)"/><path d="M14.183 9.66L30.436 0l36.097 20.235v1.893L30.436 3.329 14.183 9.661zm0 14.818l16.253-7.246 36.097 14.752v2.546L30.436 20.953l-16.253 3.525z" fill="#333"/><path d="M14.183 16.58l16.253-8.03 36.097 17.56v2.35L30.436 11.88l-16.253 4.7zm0 15.404l16.253-5.874 36.097 11.814v2.154l-36.097-9.53-16.253 1.436zm0 8.943l16.253-4.373 36.097 7.767v2.35l-36.097-6.593-16.253.849zM4 51.828s18.212-5.157 26.436-5.157c42.82 0 50.522 5.157 50.522 5.157s-16.057-2.154-50.522-2.154C23.321 49.674 4 51.828 4 51.828zM105.255 29h-3.749v-6.531h-5.554V29h-3.77V13.36h3.77v6.208h5.554V13.36h3.749V29zm15.641-7.498c0 1.525-.283 2.875-.849 4.05-.566 1.174-1.372 2.08-2.417 2.718-1.039.63-2.224.945-3.556.945-1.332 0-2.513-.305-3.545-.913-1.031-.616-1.837-1.493-2.417-2.632-.573-1.139-.873-2.446-.902-3.921v-.88c0-1.533.279-2.883.838-4.05.566-1.175 1.371-2.081 2.417-2.718 1.053-.638 2.249-.957 3.588-.957 1.325 0 2.506.316 3.545.946 1.038.63 1.844 1.529 2.417 2.696.58 1.16.873 2.492.881 3.996v.72zm-3.835-.655c0-1.554-.262-2.732-.785-3.535-.515-.809-1.256-1.213-2.223-1.213-1.891 0-2.89 1.418-2.997 4.253l-.011 1.15c0 1.533.254 2.71.763 3.534.508.824 1.264 1.235 2.266 1.235.953 0 1.687-.404 2.202-1.213.516-.81.777-1.973.785-3.492v-.72zM122.84 29V13.36h5.618c2.012 0 3.541.368 4.587 1.106 1.053.738 1.579 1.808 1.579 3.212 0 .809-.186 1.5-.559 2.073-.372.573-.92.995-1.643 1.268.816.214 1.443.615 1.88 1.203.437.587.655 1.303.655 2.148 0 1.533-.487 2.686-1.461 3.46-.967.765-2.403 1.156-4.308 1.17h-6.348zm3.77-6.65v3.75h2.471c.68 0 1.203-.154 1.568-.462.366-.315.548-.756.548-1.322 0-1.303-.648-1.958-1.944-1.965h-2.643zm0-2.47h1.966c.824-.007 1.411-.158 1.762-.451.351-.294.526-.727.526-1.3 0-.659-.19-1.132-.569-1.418-.38-.294-.992-.44-1.837-.44h-1.848v3.609zm14.202-1.139h1.944c1.239 0 2.334.212 3.287.634.952.422 1.683 1.02 2.191 1.794.516.766.774 1.647.774 2.642 0 1.54-.573 2.79-1.719 3.75-1.139.96-2.671 1.439-4.598 1.439h-5.661V13.36h3.782v5.381zM153.906 29h-3.76V13.36h3.76V29zm-13.094-7.358V26.1h1.933c.766 0 1.372-.215 1.816-.645.451-.43.676-.985.676-1.665 0-.645-.222-1.164-.666-1.558-.444-.393-1.06-.59-1.847-.59h-1.912zm24.588-8.283h3.771V29H165.4v-9.861L159.782 29h-3.77V13.36h3.77v9.871l5.618-9.872zm1.193-4.21c0 .98-.362 1.776-1.085 2.384-.723.609-1.687.913-2.89.913s-2.166-.304-2.889-.913c-.724-.608-1.085-1.403-1.085-2.385h2.46c0 .43.132.767.397 1.01.272.237.645.355 1.117.355.473 0 .838-.115 1.096-.344.265-.236.397-.577.397-1.02h2.482zm24.997 23.697h-3.384V29h-8.518v3.835h-3.492l-.268-6.735h1.106c.58-.387 1.046-1.05 1.397-1.988.358-.945.612-2.298.762-4.06l.484-6.693h10.645V26.1h1.665l-.397 6.747zM181.299 26.1h5.263v-9.83h-3.33l-.29 3.91c-.214 2.536-.762 4.509-1.643 5.92zm24.975-4.598c0 1.525-.282 2.875-.848 4.05-.566 1.174-1.372 2.08-2.417 2.718-1.039.63-2.224.945-3.556.945-1.332 0-2.514-.305-3.545-.913-1.031-.616-1.837-1.493-2.417-2.632-.573-1.139-.873-2.446-.902-3.921v-.88c0-1.533.279-2.883.838-4.05.566-1.175 1.371-2.081 2.417-2.718 1.052-.638 2.248-.957 3.588-.957 1.325 0 2.506.316 3.545.946 1.038.63 1.844 1.529 2.417 2.696.58 1.16.873 2.492.88 3.996v.72zm-3.835-.655c0-1.554-.261-2.732-.784-3.535-.515-.809-1.257-1.213-2.223-1.213-1.891 0-2.89 1.418-2.997 4.253l-.011 1.15c0 1.533.254 2.71.763 3.534.508.824 1.264 1.235 2.266 1.235.953 0 1.687-.404 2.202-1.213.516-.81.777-1.973.784-3.492v-.72zm10.732-7.488l3.491 10.882 3.481-10.882h4.962V29h-3.781v-3.652l.365-7.477L217.908 29h-2.492l-3.792-11.14.365 7.488V29h-3.77V13.36h4.952zM95.92 37.28c0-.416-.152-.745-.457-.989-.3-.247-.725-.37-1.273-.37-.458 0-.843.127-1.154.381-.308.25-.462.562-.462.935h-1.031c0-.416.112-.788.338-1.117.229-.33.548-.586.956-.768.408-.187.86-.28 1.353-.28.874 0 1.553.197 2.036.591.484.39.725.935.725 1.633 0 .362-.11.691-.333.988-.222.297-.532.532-.929.704.92.308 1.38.918 1.38 1.831 0 .702-.261 1.259-.784 1.67-.523.413-1.22.618-2.095.618a3.56 3.56 0 01-1.418-.273 2.297 2.297 0 01-.988-.79c-.236-.34-.354-.745-.354-1.214h1.03c0 .412.164.756.49 1.031.326.273.74.409 1.24.409.563 0 1.01-.131 1.343-.393.337-.261.505-.607.505-1.036 0-.917-.567-1.384-1.703-1.402h-.966v-.849h.961c.523-.01.919-.129 1.187-.354.269-.226.403-.544.403-.956zm5.95 5.72c-.057-.115-.104-.319-.14-.612-.461.48-1.013.72-1.654.72-.573 0-1.044-.162-1.412-.484a1.584 1.584 0 01-.548-1.235c0-.606.229-1.075.687-1.408.462-.336 1.11-.504 1.945-.504h.966v-.457c0-.347-.104-.623-.311-.827-.208-.208-.514-.312-.919-.312-.354 0-.651.09-.891.269-.24.179-.36.396-.36.65h-1c0-.29.103-.57.307-.838a2.13 2.13 0 01.838-.645 2.836 2.836 0 011.165-.236c.67 0 1.195.168 1.574.505.38.333.577.793.591 1.38v2.675c0 .534.068.958.204 1.273V43h-1.042zm-1.649-.757c.312 0 .607-.08.886-.242.28-.161.482-.37.607-.628V40.18h-.778c-1.218 0-1.827.356-1.827 1.069 0 .311.104.555.312.73.208.176.474.264.8.264zm6.596-4.721c.73 0 1.314.245 1.751.735.44.487.66 1.13.66 1.928v.092c0 .548-.105 1.038-.316 1.471a2.37 2.37 0 01-.913 1.005c-.394.236-.849.354-1.365.354-.78 0-1.409-.26-1.885-.778-.476-.523-.714-1.223-.714-2.1v-.484c0-1.22.225-2.191.676-2.911.455-.72 1.125-1.158 2.009-1.316.501-.09.84-.199 1.015-.328a.623.623 0 00.264-.531h.816c0 .447-.102.796-.306 1.047-.201.25-.523.428-.967.532l-.741.166c-.591.14-1.035.376-1.332.71-.294.329-.485.77-.575 1.32.526-.608 1.167-.912 1.923-.912zm-.193.816c-.487 0-.874.165-1.161.494-.286.326-.429.779-.429 1.359v.086c0 .623.143 1.117.429 1.482.29.362.681.543 1.171.543.494 0 .885-.183 1.171-.548.287-.365.43-.899.43-1.6 0-.549-.145-.987-.435-1.317-.287-.333-.679-.5-1.176-.5zm3.458 1.703c0-.57.111-1.082.334-1.537.225-.454.537-.805.934-1.052a2.56 2.56 0 011.37-.37c.791 0 1.43.273 1.917.82.491.549.736 1.277.736 2.187v.07c0 .565-.109 1.074-.328 1.525a2.439 2.439 0 01-.929 1.047 2.56 2.56 0 01-1.386.376c-.787 0-1.426-.273-1.917-.821-.487-.548-.731-1.273-.731-2.176v-.07zm1 .118c0 .644.148 1.162.445 1.552.301.39.702.585 1.203.585.505 0 .906-.197 1.204-.59.297-.398.445-.953.445-1.666 0-.637-.152-1.152-.456-1.546a1.434 1.434 0 00-1.203-.596c-.491 0-.887.195-1.187.585-.301.39-.451.949-.451 1.676zm10.446 0c0 .884-.202 1.597-.607 2.137-.404.541-.952.811-1.643.811-.706 0-1.261-.223-1.665-.671v2.798h-.994v-8.046h.908l.048.645c.405-.501.967-.752 1.687-.752.698 0 1.249.263 1.654.79.408.526.612 1.258.612 2.196v.092zm-.993-.113c0-.655-.14-1.173-.419-1.552-.28-.38-.663-.57-1.15-.57-.601 0-1.052.267-1.353.8v2.778c.297.53.752.794 1.364.794.476 0 .854-.188 1.133-.564.283-.38.425-.941.425-1.686zm3.346-.854h1.509c.659.007 1.18.179 1.563.516.383.336.575.793.575 1.37 0 .58-.197 1.045-.591 1.396-.394.35-.924.526-1.59.526h-2.46v-5.812h.994v2.004zm5.72 3.808h-.999v-5.812h.999V43zm-5.72-2.997v2.186h1.477c.372 0 .661-.095.865-.285.204-.193.306-.456.306-.79 0-.322-.1-.585-.301-.789-.197-.208-.474-.315-.833-.322h-1.514zM138.813 43h-.993v-2.481h-2.67V43h-.999v-5.812h.999v2.52h2.67v-2.52h.993V43zm1.338-2.96c0-.569.111-1.08.333-1.536.225-.454.537-.805.934-1.052a2.56 2.56 0 011.37-.37c.791 0 1.431.273 1.918.82.49.549.735 1.277.735 2.187v.07c0 .565-.109 1.074-.327 1.525a2.451 2.451 0 01-.929 1.047 2.56 2.56 0 01-1.386.376c-.788 0-1.427-.273-1.918-.821-.487-.548-.73-1.273-.73-2.176v-.07zm.999.119c0 .644.149 1.162.446 1.552.3.39.702.585 1.203.585.505 0 .906-.197 1.203-.59.297-.398.446-.953.446-1.666 0-.637-.152-1.152-.457-1.546a1.434 1.434 0 00-1.203-.596c-.49 0-.886.195-1.187.585-.301.39-.451.949-.451 1.676zM146.779 43v-5.812h2.266c.774 0 1.366.136 1.778.409.416.268.623.664.623 1.187a1.2 1.2 0 01-.241.73c-.162.215-.4.38-.715.494.351.083.632.244.843.484.215.24.323.526.323.86 0 .533-.197.94-.591 1.224-.39.283-.944.424-1.66.424h-2.626zm.993-2.551v1.75h1.644c.415 0 .725-.076.929-.23.208-.154.312-.37.312-.65 0-.58-.426-.87-1.279-.87h-1.606zm0-.795h1.284c.931 0 1.397-.272 1.397-.817 0-.544-.441-.825-1.322-.843h-1.359v1.66zm4.936.386c0-.569.111-1.08.334-1.536.225-.454.537-.805.934-1.052a2.56 2.56 0 011.37-.37c.791 0 1.43.273 1.917.82.491.549.736 1.277.736 2.187v.07c0 .565-.109 1.074-.328 1.525a2.439 2.439 0 01-.929 1.047 2.56 2.56 0 01-1.386.376c-.787 0-1.426-.273-1.917-.821-.487-.548-.731-1.273-.731-2.176v-.07zm1 .119c0 .644.148 1.162.445 1.552.301.39.702.585 1.203.585.505 0 .906-.197 1.204-.59.297-.398.445-.953.445-1.666 0-.637-.152-1.152-.456-1.546a1.434 1.434 0 00-1.203-.596c-.491 0-.887.195-1.187.585-.301.39-.451.949-.451 1.676zM163 38.01h-2.681V43h-.999v-5.812H163v.822zm.494 2.03c0-.569.111-1.08.333-1.536.225-.454.537-.805.934-1.052a2.56 2.56 0 011.37-.37c.791 0 1.43.273 1.917.82.491.549.736 1.277.736 2.187v.07c0 .565-.109 1.074-.327 1.525a2.447 2.447 0 01-.93 1.047 2.556 2.556 0 01-1.385.376c-.788 0-1.427-.273-1.918-.821-.487-.548-.73-1.273-.73-2.176v-.07zm.999.119c0 .644.148 1.162.445 1.552.301.39.702.585 1.204.585.504 0 .906-.197 1.203-.59.297-.398.446-.953.446-1.666 0-.637-.153-1.152-.457-1.546a1.434 1.434 0 00-1.203-.596c-.491 0-.886.195-1.187.585-.301.39-.451.949-.451 1.676zM177.512 43h-.993v-4.99h-2.675V43h-.999v-5.812h4.667V43zm1.332-2.96c0-.569.111-1.08.333-1.536a2.53 2.53 0 01.935-1.052c.401-.247.857-.37 1.369-.37.792 0 1.431.273 1.918.82.49.549.736 1.277.736 2.187v.07c0 .565-.109 1.074-.328 1.525a2.445 2.445 0 01-.929 1.047 2.56 2.56 0 01-1.386.376c-.788 0-1.427-.273-1.917-.821-.487-.548-.731-1.273-.731-2.176v-.07zm.999.119c0 .644.149 1.162.446 1.552.301.39.702.585 1.203.585.505 0 .906-.197 1.203-.59.298-.398.446-.953.446-1.666 0-.637-.152-1.152-.456-1.546a1.434 1.434 0 00-1.204-.596c-.49 0-.886.195-1.187.585-.3.39-.451.949-.451 1.676zm7.348.365h-.725V43h-.999v-5.812h.999v2.46h.65l1.955-2.46h1.203l-2.299 2.793L190.467 43h-1.262l-2.014-2.476zm3.749-.483c0-.57.111-1.082.333-1.537a2.53 2.53 0 01.935-1.052c.401-.247.857-.37 1.369-.37.791 0 1.431.273 1.918.82.49.549.735 1.277.735 2.187v.07c0 .565-.109 1.074-.327 1.525a2.451 2.451 0 01-.929 1.047 2.56 2.56 0 01-1.386.376c-.788 0-1.427-.273-1.918-.821-.487-.548-.73-1.273-.73-2.176v-.07zm.999.118c0 .644.149 1.162.446 1.552.301.39.702.585 1.203.585.505 0 .906-.197 1.203-.59.297-.398.446-.953.446-1.666 0-.637-.152-1.152-.457-1.546a1.434 1.434 0 00-1.203-.596c-.49 0-.886.195-1.187.585-.301.39-.451.949-.451 1.676zm10.216-2.97V43h-.999v-4.99h-1.977l-.118 2.175c-.064 1-.233 1.714-.505 2.144-.268.43-.696.653-1.284.671h-.397v-.876l.285-.021c.322-.036.553-.222.693-.559.139-.336.229-.96.268-1.869l.108-2.486h3.926zm4.007 5.918c-.788 0-1.429-.257-1.923-.773-.494-.52-.741-1.212-.741-2.079v-.182c0-.577.109-1.09.327-1.542.222-.454.53-.809.924-1.063a2.323 2.323 0 011.289-.387c.756 0 1.343.249 1.762.747.419.497.628 1.21.628 2.137v.414h-3.937c.015.573.181 1.037.5 1.391.322.35.73.526 1.224.526.351 0 .648-.071.892-.215.243-.143.456-.333.639-.569l.607.473c-.487.748-1.217 1.122-2.191 1.122zm-.124-5.21c-.401 0-.738.147-1.01.44-.272.29-.44.7-.505 1.225h2.912v-.075c-.029-.505-.165-.895-.409-1.17-.243-.28-.573-.42-.988-.42zM214.331 43h-.994v-2.481h-2.669V43h-.999v-5.812h.999v2.52h2.669v-2.52h.994V43zm5.36-5.812h.994V43h-.994v-4.238L217.011 43h-.993v-5.812h.993v4.244l2.68-4.244zm7.031 0V43h-.999v-2.261h-1.498L222.855 43h-1.074l1.461-2.412c-.373-.136-.659-.345-.86-.628a1.72 1.72 0 01-.295-1c0-.529.199-.955.596-1.277.398-.326.929-.49 1.595-.495h2.444zm-3.636 1.784c0 .283.097.512.29.687.193.172.449.26.768.263h1.579v-1.928h-1.429c-.368 0-.662.091-.88.274a.864.864 0 00-.328.704z" fill="#333"/></g><defs><linearGradient id="paint0_linear" x1="14.183" y1="23.368" x2="66.533" y2="23.368" gradientUnits="userSpaceOnUse"><stop stop-color="#FFD831"/><stop offset=".309" stop-color="#fff" stop-opacity=".692"/><stop offset=".312" stop-color="#FFD831"/><stop offset="1" stop-color="#F2994A"/></linearGradient><filter id="filter0_d" x="0" y="0" width="230.722" height="59.828" filterUnits="userSpaceOnUse" color-interpolation-filters="sRGB"><feFlood flood-opacity="0" result="BackgroundImageFix"/><feColorMatrix in="SourceAlpha" values="0 0 0 0 0 0 0 0 0 0 0 0 0 0 0 0 0 0 127 0"/><feOffset dy="4"/><feGaussianBlur stdDeviation="2"/><feColorMatrix values="0 0 0 0 0 0 0 0 0 0 0 0 0 0 0 0 0 0 0.25 0"/><feBlend in2="BackgroundImageFix" result="effect1_dropShadow"/><feBlend in="SourceGraphic" in2="effect1_dropShadow" result="shape"/></filter></defs></svg>