<svg width="77" height="52" fill="none" xmlns="http://www.w3.org/2000/svg"><path d="M10.183 9.66L26.436 0l36.097 20.235v1.893L26.436 3.329 10.183 9.661zm0 14.818l16.253-7.246 36.097 14.752v2.546L26.436 20.953l-16.253 3.525z" fill="#333"/><path d="M10.183 16.58l16.253-8.03 36.097 17.56v2.35L26.436 11.88l-16.253 4.7zm0 15.404l16.253-5.874 36.097 11.814v2.154l-36.097-9.53-16.253 1.436zm0 8.943l16.253-4.373 36.097 7.767v2.35l-36.097-6.593-16.253.849zM0 51.828s18.212-5.157 26.436-5.157c42.82 0 50.522 5.157 50.522 5.157s-16.057-2.154-50.522-2.154C19.321 49.674 0 51.828 0 51.828z" fill="#333"/></svg>