<svg width="50" height="34" fill="none" xmlns="http://www.w3.org/2000/svg"><path d="M40.627 13.147v17.175L17.175 26.04l-10.517.551V6.234L17.175 0l23.452 13.147z" fill="url(#paint0_linear)"/><path d="M6.616 6.277L17.176 0l23.452 13.147v1.23L17.176 2.163 6.616 6.277zm0 9.626l10.56-4.707 23.452 9.584v1.654l-23.452-8.82-10.56 2.29z" fill="#333"/><path d="M6.616 10.772l10.56-5.216 23.452 11.407v1.527L17.176 7.718l-10.56 3.054zm0 10.008l10.56-3.817 23.452 7.677v1.399l-23.452-6.192-10.56.933zm0 5.81l10.56-2.841 23.452 5.047v1.526L17.176 26.04l-10.56.551zM0 33.673s11.832-3.35 17.176-3.35c27.82 0 32.824 3.35 32.824 3.35s-10.433-1.4-32.824-1.4c-4.623 0-17.176 1.4-17.176 1.4z" fill="#333"/><defs><linearGradient id="paint0_linear" x1="6.616" y1="15.182" x2="40.627" y2="15.182" gradientUnits="userSpaceOnUse"><stop stop-color="#FFD831"/><stop offset=".309" stop-color="#fff" stop-opacity=".692"/><stop offset=".312" stop-color="#FFD831"/><stop offset="1" stop-color="#F2994A"/></linearGradient></defs></svg>