<svg width="20" height="20" fill="none" xmlns="http://www.w3.org/2000/svg"><rect width="20" height="20" rx="2" fill="#4D76A1"/><path fill-rule="evenodd" clip-rule="evenodd" d="M9.861 13.966h.838s.253-.027.383-.167c.119-.128.115-.368.115-.368s-.016-1.125.506-1.29c.514-.163 1.175 1.087 1.875 1.568.53.363.932.284.932.284l1.873-.027s.98-.06.515-.83c-.038-.063-.27-.57-1.392-1.611-1.175-1.09-1.017-.914.397-2.8.862-1.147 1.206-1.848 1.098-2.148-.102-.286-.736-.21-.736-.21l-2.108.012s-.156-.021-.273.048c-.113.068-.186.227-.186.227s-.333.888-.779 1.644c-.938 1.594-1.314 1.678-1.467 1.58-.357-.231-.268-.928-.268-1.422 0-1.545.234-2.19-.456-2.356-.23-.056-.398-.092-.984-.098-.753-.008-1.39.002-1.75.179-.24.117-.425.379-.312.394.139.019.455.085.622.313.216.294.208.954.208.954s.124 1.819-.29 2.045c-.284.155-.674-.161-1.51-1.608-.43-.74-.753-1.56-.753-1.56s-.063-.153-.174-.235a.874.874 0 00-.324-.13l-2.004.013s-.3.008-.411.139c-.098.116-.008.357-.008.357s1.569 3.67 3.345 5.52c1.628 1.695 3.478 1.584 3.478 1.584z" fill="#fff"/></svg>