<svg width="60" height="60" viewBox="0 0 60 60" fill="none" xmlns="http://www.w3.org/2000/svg">
<path d="M59.1211 18.7275H0.878906V22.4846H59.1211V18.7275Z" fill="#FFC80A"/>
<path d="M31.8786 14.031H28.1216V49.7275H31.8786V14.031Z" fill="#FFC80A"/>
<path d="M31.8786 14.031H28.1216V16.8494H31.8786V14.031Z" fill="#FFC80A"/>
<path d="M30.9394 14.0304H29.0606C28.0231 14.0304 27.1819 13.1893 27.1819 12.1517C27.1819 11.1141 28.0231 10.2729 29.0606 10.2729H30.9394C31.977 10.2729 32.8181 11.1141 32.8181 12.1517C32.8181 13.1894 31.9771 14.0304 30.9394 14.0304Z" fill="#FFC80A"/>
<path d="M55.3628 14.031H51.6057V49.7275H55.3628V14.031Z" fill="#FFC80A"/>
<path d="M55.3628 14.031H51.6057V16.8494H55.3628V14.031Z" fill="#FFC80A"/>
<path d="M54.4242 14.0304H52.5455C51.5079 14.0304 50.6667 13.1893 50.6667 12.1517C50.6667 11.1141 51.5079 10.2729 52.5455 10.2729H54.4242C55.4618 10.2729 56.303 11.1141 56.303 12.1517C56.3031 13.1894 55.4619 14.0304 54.4242 14.0304Z" fill="#FFC80A"/>
<path d="M8.39375 14.031H4.63672V49.7275H8.39375V14.031Z" fill="#FFC80A"/>
<path d="M8.39375 14.031H4.63672V16.8494H8.39375V14.031Z" fill="#FFC80A"/>
<path d="M7.45452 14.0304H5.57577C4.53819 14.0304 3.69702 13.1893 3.69702 12.1517C3.69702 11.1141 4.53819 10.2729 5.57577 10.2729H7.45452C8.4921 10.2729 9.33327 11.1141 9.33327 12.1517C9.33327 13.1894 8.4921 14.0304 7.45452 14.0304Z" fill="#FFC80A"/>
<path d="M59.1211 23.3638C59.6065 23.3638 60 22.9703 60 22.4849C60 21.9995 59.6065 21.606 59.1211 21.606H56.2425V19.6063H59.1211C59.6065 19.6063 60 19.2128 60 18.7274C60 18.242 59.6065 17.8485 59.1211 17.8485H56.2425V14.2224C56.8178 13.7166 57.1819 12.9761 57.1819 12.1517C57.1819 10.6311 55.9447 9.39404 54.4242 9.39404H52.5455C51.0248 9.39404 49.7878 10.6312 49.7878 12.1517C49.7878 12.9761 50.1519 13.7166 50.7272 14.2224V17.8485H32.7577V14.2224C33.3329 13.7166 33.697 12.9761 33.697 12.1517C33.697 10.6311 32.4599 9.39404 30.9394 9.39404H29.0606C27.54 9.39404 26.303 10.6312 26.303 12.1517C26.303 12.9761 26.6671 13.7166 27.2423 14.2224V17.8485H9.27293V14.2224C9.8482 13.7166 10.2123 12.9761 10.2123 12.1517C10.2123 10.6311 8.97516 9.39404 7.45465 9.39404H5.5759C4.05527 9.39404 2.81824 10.6312 2.81824 12.1517C2.81824 12.9761 3.18234 13.7166 3.75762 14.2224V17.8485H0.878906C0.393516 17.8485 0 18.242 0 18.7274C0 19.2128 0.393516 19.6063 0.878906 19.6063H3.7575V21.606H0.878906C0.393516 21.606 0 21.9995 0 22.4849C0 22.9703 0.393516 23.3638 0.878906 23.3638H3.7575V48.8484H0.878906C0.393516 48.8484 0 49.2419 0 49.7273C0 50.2127 0.393516 50.6062 0.878906 50.6062H59.1211C59.6065 50.6062 60 50.2127 60 49.7273C60 49.2419 59.6065 48.8484 59.1211 48.8484H56.2425V23.3638H59.1211ZM52.5453 11.1519H54.4241C54.9755 11.1519 55.4239 11.6004 55.4239 12.1517C55.4239 12.7029 54.9754 13.1515 54.4241 13.1515H52.5453C51.994 13.1515 51.5455 12.7029 51.5455 12.1517C51.5455 11.6004 51.9941 11.1519 52.5453 11.1519ZM45.0302 37.5756C44.5448 37.5756 44.1513 37.9692 44.1513 38.4545V48.8485H39.3334V23.3638H44.1513V34.6967C44.1513 35.1821 44.5448 35.5756 45.0302 35.5756C45.5156 35.5756 45.9091 35.1821 45.9091 34.6967V23.3638H50.7271V48.8484H45.9091V38.4544C45.9091 37.9692 45.5156 37.5756 45.0302 37.5756ZM50.7271 19.6062V21.6059H32.7577V19.6062H50.7271ZM29.0606 11.1519H30.9394C31.4907 11.1519 31.9392 11.6004 31.9392 12.1517C31.9392 12.7029 31.4906 13.1515 30.9394 13.1515H29.0606C28.5093 13.1515 28.0608 12.7029 28.0608 12.1517C28.0608 11.6004 28.5093 11.1519 29.0606 11.1519ZM29.0606 14.9094H30.9394C30.9596 14.9094 30.9797 14.9083 30.9998 14.9078V24.3637C30.9998 24.8491 31.3934 25.2426 31.8788 25.2426C32.3641 25.2426 32.7577 24.8491 32.7577 24.3637V23.3638H37.5756V48.8484H32.7577V28.1215C32.7577 27.6361 32.3641 27.2426 31.8788 27.2426C31.3934 27.2426 30.9998 27.6361 30.9998 28.1215V48.8484H29.0002V14.9078C29.0203 14.9084 29.0404 14.9094 29.0606 14.9094ZM14.9698 45.091C14.4844 45.091 14.0909 45.4845 14.0909 45.9699V48.8485H9.27293V23.3638H14.0909V42.2119C14.0909 42.6973 14.4844 43.0908 14.9698 43.0908C15.4552 43.0908 15.8487 42.6973 15.8487 42.2119V23.3638H20.6666V48.8484H15.8487V45.9698C15.8487 45.4845 15.4552 45.091 14.9698 45.091ZM22.4244 23.3638H27.2423V48.8484H22.4244V23.3638ZM27.2423 19.6062V21.6059H9.27293V19.6062H27.2423ZM5.5759 11.1519H7.45465C8.00602 11.1519 8.45449 11.6004 8.45449 12.1517C8.45449 12.7029 8.0059 13.1515 7.45465 13.1515H5.5759C5.02453 13.1515 4.57605 12.7029 4.57605 12.1517C4.57605 11.6004 5.02453 11.1519 5.5759 11.1519ZM5.51531 14.9078C5.53547 14.9083 5.55551 14.9094 5.57578 14.9094H7.45453C7.4748 14.9094 7.49484 14.9083 7.51512 14.9078V48.8484H5.51531V14.9078ZM52.4849 48.8485V14.9078C52.505 14.9083 52.5251 14.9094 52.5453 14.9094H54.4241C54.4444 14.9094 54.4644 14.9083 54.4846 14.9078V48.8484L52.4849 48.8485Z" fill="black"/>
</svg>
