<svg width="60" height="60" viewBox="0 0 60 60" fill="none" xmlns="http://www.w3.org/2000/svg">
<path fill-rule="evenodd" clip-rule="evenodd" d="M25.6055 29.2382C26.5763 29.2382 27.3633 28.4512 27.3633 27.4803V15.8791V11.866L30 10.3067L55.4881 25.3801V35.3905C55.4881 36.3613 56.2751 37.1483 57.2459 37.1483C58.2167 37.1483 59.0037 36.3613 59.0037 35.3905V22.496L30 5.34351L0.996338 22.496V33.6327C0.996338 34.6035 1.78325 35.3905 2.75415 35.3905C3.72493 35.3905 4.51196 34.6035 4.51196 33.6327V25.3801L16.8165 18.1032V22.2069C16.8165 23.1777 17.6036 23.9647 18.5743 23.9647C19.5451 23.9647 20.3322 23.1778 20.3322 22.2069C20.3322 21.236 21.1192 20.4491 22.09 20.4491C23.0608 20.4491 23.8478 21.236 23.8478 22.2069V27.4803C23.8477 28.4512 24.6347 29.2382 25.6055 29.2382Z" fill="white"/>
<path fill-rule="evenodd" clip-rule="evenodd" d="M42.3044 12.6203L49.3357 16.7784V7.90991C48.3649 7.90991 47.5779 7.12288 47.5779 6.1521V4.39429H42.3044V12.6203Z" fill="white"/>
<path fill-rule="evenodd" clip-rule="evenodd" d="M47.5779 4.39453V6.15234C47.5779 7.12313 48.3649 7.91016 49.3357 7.91016C50.3065 7.91016 51.0935 7.12313 51.0935 6.15234V4.39453C52.0643 4.39453 52.8513 3.60762 52.8513 2.63672C52.8513 1.66957 52.0703 0.884883 51.1044 0.878906H40.5466C39.5748 0.881836 38.7888 1.66348 38.7888 2.63672C38.7888 3.6075 39.5758 4.39453 40.5466 4.39453H47.5779Z" fill="white"/>
<path fill-rule="evenodd" clip-rule="evenodd" d="M4.51196 30.1172H8.02759V27.4805L16.8165 22.2072V18.1035L4.51196 25.3802V30.1172ZM30 14.2972L51.9724 27.4805V30.1172H55.4881V25.3802L30 10.3069L27.3633 11.8662V15.8793L30 14.2972Z" fill="#FFC80A"/>
<path fill-rule="evenodd" clip-rule="evenodd" d="M23.8477 27.4806V22.2073C23.8477 21.2365 23.0606 20.4495 22.0899 20.4495C21.1191 20.4495 20.332 21.2364 20.332 22.2073C20.332 23.1782 19.5451 23.9651 18.5742 23.9651C17.6034 23.9651 16.8164 23.1782 16.8164 22.2074L8.02759 27.4806H23.8477ZM27.3633 27.4806H51.9724L30 14.2974L27.3633 15.8794V27.4806Z" fill="white"/>
<path fill-rule="evenodd" clip-rule="evenodd" d="M11.5432 32.7539C12.51 32.7539 13.301 31.9629 13.301 30.9961V29.2383C13.301 28.2751 12.516 27.4863 11.5541 27.4805H8.02759V30.9961C8.02759 31.9629 8.8186 32.7539 9.7854 32.7539C8.8186 32.7539 8.02759 33.5449 8.02759 34.5117V36.2695C8.02759 37.2363 8.8186 38.0273 9.7854 38.0273C8.8186 38.0273 8.02759 38.8184 8.02759 39.7852V41.543C8.02759 42.5098 8.8186 43.3008 9.7854 43.3008C8.8186 43.3008 8.02759 44.0918 8.02759 45.0586V46.8164C8.02759 47.7832 8.8186 48.5742 9.7854 48.5742C8.8186 48.5742 8.02759 49.3652 8.02759 50.332V52.0898C8.02759 53.0566 8.8186 53.8477 9.7854 53.8477C8.8186 53.8477 8.02759 54.6387 8.02759 55.6055V57.3633C8.02759 58.3301 8.8186 59.1211 9.7854 59.1211H11.5432C12.51 59.1211 13.301 58.3301 13.301 57.3633V55.6055C13.301 54.6387 12.51 53.8477 11.5432 53.8477C12.51 53.8477 13.301 53.0566 13.301 52.0898V50.332C13.301 49.3652 12.51 48.5742 11.5432 48.5742C12.51 48.5742 13.301 47.7832 13.301 46.8164V45.0586C13.301 44.0918 12.51 43.3008 11.5432 43.3008C12.51 43.3008 13.301 42.5098 13.301 41.543V39.7852C13.301 38.8184 12.51 38.0273 11.5432 38.0273C12.51 38.0273 13.301 37.2363 13.301 36.2695V34.5117C13.301 33.5449 12.51 32.7539 11.5432 32.7539ZM48.4568 32.7539C47.49 32.7539 46.699 31.9629 46.699 30.9961V29.2383C46.699 28.2751 47.484 27.4863 48.4459 27.4805H51.9724V30.9961C51.9724 31.9629 51.1814 32.7539 50.2146 32.7539C51.1814 32.7539 51.9724 33.5449 51.9724 34.5117V36.2695C51.9724 37.2363 51.1814 38.0273 50.2146 38.0273C51.1814 38.0273 51.9724 38.8184 51.9724 39.7852V41.543C51.9724 42.5098 51.1814 43.3008 50.2146 43.3008C51.1814 43.3008 51.9724 44.0918 51.9724 45.0586V46.8164C51.9724 47.7832 51.1814 48.5742 50.2146 48.5742C51.1814 48.5742 51.9724 49.3652 51.9724 50.332V52.0898C51.9724 53.0566 51.1814 53.8477 50.2146 53.8477C51.1814 53.8477 51.9724 54.6387 51.9724 55.6055V57.3633C51.9724 58.3301 51.1814 59.1211 50.2146 59.1211H48.4568C47.49 59.1211 46.699 58.3301 46.699 57.3633V55.6055C46.699 54.6387 47.49 53.8477 48.4568 53.8477C47.49 53.8477 46.699 53.0566 46.699 52.0898V50.332C46.699 49.3652 47.49 48.5742 48.4568 48.5742C47.49 48.5742 46.699 47.7832 46.699 46.8164V45.0586C46.699 44.0918 47.49 43.3008 48.4568 43.3008C47.49 43.3008 46.699 42.5098 46.699 41.543V39.7852C46.699 38.8184 47.49 38.0273 48.4568 38.0273C47.49 38.0273 46.699 37.2363 46.699 36.2695V34.5117C46.699 33.5449 47.4899 32.7539 48.4568 32.7539Z" fill="white"/>
<path fill-rule="evenodd" clip-rule="evenodd" d="M11.5432 32.754C12.51 32.754 13.301 33.545 13.301 34.5118V36.2697C13.301 37.2365 12.51 38.0275 11.5432 38.0275C12.51 38.0275 13.301 38.8185 13.301 39.7853V41.5431C13.301 42.5099 12.51 43.3009 11.5432 43.3009C12.51 43.3009 13.301 44.0919 13.301 45.0587V46.8165C13.301 47.7833 12.51 48.5743 11.5432 48.5743C12.51 48.5743 13.301 49.3654 13.301 50.3322V52.09C13.301 53.0568 12.51 53.8478 11.5433 53.8478C12.5101 53.8478 13.3011 54.6388 13.3011 55.6056V57.3634C13.3011 58.3252 12.5186 59.1128 11.5587 59.1211H16.8167V38.0275H29.1213V59.1212H48.4416C47.4817 59.1129 46.6991 58.3252 46.6991 57.3635V55.6057C46.6991 54.6389 47.4901 53.8479 48.4569 53.8479C47.4901 53.8479 46.6991 53.0569 46.6991 52.0901V50.3323C46.6991 49.3655 47.4901 48.5745 48.4569 48.5745C47.4901 48.5745 46.6991 47.7836 46.6991 46.8167V45.0588C46.6991 44.092 47.4901 43.301 48.4569 43.301C47.4901 43.301 46.6991 42.5101 46.6991 41.5432V39.7854C46.6991 38.8186 47.4901 38.0276 48.4569 38.0276C47.4901 38.0276 46.6991 37.2367 46.6991 36.2698V34.512C46.6991 33.5452 47.4901 32.7542 48.4569 32.7542C47.4901 32.7542 46.6991 31.9631 46.6991 30.9963V29.2385C46.6991 28.2754 47.4842 27.4866 48.446 27.4807H27.3633C27.3633 28.4515 26.5763 29.2385 25.6055 29.2385C24.6347 29.2385 23.8477 28.4516 23.8477 27.4807H11.554C12.5159 27.4867 13.3009 28.2754 13.3009 29.2385V30.9963C13.301 31.9631 12.51 32.754 11.5432 32.754ZM32.6369 38.0275H43.1837V48.5743H32.6369V38.0275ZM28.2422 32.754C28.2422 31.7872 29.0332 30.9962 30 30.9962C30.9668 30.9962 31.7578 31.7872 31.7578 32.754C31.7578 33.7208 30.9668 34.5118 30 34.5118C29.0332 34.5118 28.2422 33.7208 28.2422 32.754Z" fill="white"/>
<path fill-rule="evenodd" clip-rule="evenodd" d="M16.8164 38.0273H29.1211V59.121H16.8164V38.0273Z" fill="white"/>
<path fill-rule="evenodd" clip-rule="evenodd" d="M32.6367 38.0273H43.1836V48.5742H32.6367V38.0273Z" fill="white"/>
<path d="M30.2693 34.5201C31.2295 34.3735 31.889 33.4763 31.7424 32.5162C31.5958 31.5561 30.6986 30.8966 29.7385 31.0432C28.7783 31.1898 28.1188 32.0869 28.2654 33.0471C28.412 34.0072 29.3092 34.6667 30.2693 34.5201Z" fill="#FFC80A"/>
<path fill-rule="evenodd" clip-rule="evenodd" d="M25.6055 29.2384C26.5763 29.2384 27.3633 28.4515 27.3633 27.4806V24.8439C27.3633 25.8147 26.5763 26.6017 25.6055 26.6017C24.6347 26.6017 23.8477 25.8148 23.8477 24.8439V27.4806C23.8477 28.4515 24.6347 29.2384 25.6055 29.2384ZM55.4881 32.754V35.3908C55.4881 36.3615 56.2751 37.1486 57.2459 37.1486C58.2167 37.1486 59.0037 36.3615 59.0037 35.3908V32.754C59.0037 33.7248 58.2167 34.5118 57.2459 34.5118C56.275 34.5118 55.4881 33.7248 55.4881 32.754ZM0.996338 30.9962V33.6329C0.996338 34.6037 1.78325 35.3908 2.75415 35.3908C3.72493 35.3908 4.51196 34.6037 4.51196 33.6329V30.9962C4.51196 31.967 3.72493 32.754 2.75415 32.754C1.78337 32.754 0.996338 31.967 0.996338 30.9962ZM16.8165 20.4495V22.2073C16.8165 23.1781 17.6036 23.9651 18.5743 23.9651C19.5451 23.9651 20.3322 23.1782 20.3322 22.2073V20.4495C20.3322 21.7724 16.8165 21.7724 16.8165 20.4495Z" fill="white"/>
<path fill-rule="evenodd" clip-rule="evenodd" d="M4.51196 30.1172H8.02759V27.4805H4.51196V30.1172ZM51.9724 30.1172H55.4881V27.4805H51.9724V30.1172Z" fill="#FFC80A"/>
<path fill-rule="evenodd" clip-rule="evenodd" d="M10.6643 30.9961V27.4805H8.02759V30.9961C8.02759 31.9629 8.8186 32.7539 9.7854 32.7539C8.8186 32.7539 8.02759 33.5449 8.02759 34.5117V36.2695C8.02759 37.2363 8.8186 38.0273 9.7854 38.0273C8.8186 38.0273 8.02759 38.8184 8.02759 39.7852V41.543C8.02759 42.5098 8.8186 43.3008 9.7854 43.3008C8.8186 43.3008 8.02759 44.0918 8.02759 45.0586V46.8164C8.02759 47.7832 8.8186 48.5742 9.7854 48.5742C8.8186 48.5742 8.02759 49.3652 8.02759 50.332V52.0898C8.02759 53.0566 8.8186 53.8477 9.7854 53.8477C8.8186 53.8477 8.02759 54.6387 8.02759 55.6055V57.3633C8.02759 58.3301 8.8186 59.1211 9.7854 59.1211H11.5432C11.5804 59.121 10.6642 58.965 10.6642 57.3633V55.6055C10.6642 54.9941 10.9954 54.1663 11.5431 53.8477C11.0187 53.5426 10.6642 52.7371 10.6642 52.0898V50.332C10.6642 49.7207 10.9954 48.8929 11.5431 48.5742C11.0187 48.2692 10.6642 47.4636 10.6642 46.8164V45.0586C10.6642 44.4472 10.9954 43.6194 11.5431 43.3008C11.0187 42.9957 10.6642 42.1902 10.6642 41.543V39.7852C10.6642 39.1738 10.9954 38.346 11.5431 38.0273C11.0187 37.7223 10.6642 36.9168 10.6642 36.2695V34.5117C10.6642 33.3124 11.5431 32.7539 11.5431 32.7539C11.5432 32.7539 10.6643 32.1954 10.6643 30.9961ZM48.4567 32.7539C47.4899 32.7539 46.6989 33.5449 46.6989 34.5117V36.2695C46.6989 37.2363 47.4899 38.0273 48.4567 38.0273C47.4899 38.0273 46.6989 38.8184 46.6989 39.7852V41.543C46.6989 42.5098 47.4899 43.3008 48.4567 43.3008C47.4899 43.3008 46.6989 44.0918 46.6989 45.0586V46.8164C46.6989 47.7832 47.4899 48.5742 48.4567 48.5742C47.4899 48.5742 46.6989 49.3652 46.6989 50.332V52.0898C46.6989 53.0566 47.4899 53.8477 48.4567 53.8477C47.4899 53.8477 46.6989 54.6387 46.6989 55.6055V57.3633C46.6989 58.3301 47.4899 59.1211 48.4567 59.1211H50.2145C50.2517 59.121 49.3356 58.965 49.3356 57.3633V55.6055C49.3356 54.9941 49.6668 54.1663 50.2145 53.8477C49.6901 53.5426 49.3356 52.7371 49.3356 52.0898V50.332C49.3356 49.7207 49.6668 48.8929 50.2145 48.5742C49.6901 48.2692 49.3356 47.4636 49.3356 46.8164V45.0586C49.3356 44.4472 49.6668 43.6194 50.2145 43.3008C49.6901 42.9957 49.3356 42.1902 49.3356 41.543V39.7852C49.3356 39.1738 49.6668 38.346 50.2145 38.0273C49.6901 37.7223 49.3356 36.9168 49.3356 36.2695V34.5117C49.3356 33.3124 50.2145 32.7539 50.2145 32.7539C50.2146 32.7539 49.3356 32.5241 49.3356 30.9961V29.2383C49.3356 28.039 50.2145 27.4805 50.2145 27.4805H48.4567C47.4899 27.4805 46.6989 28.2715 46.6989 29.2383V30.9961C46.6989 31.963 47.4899 32.7539 48.4567 32.7539Z" fill="#FFC80A"/>
<path fill-rule="evenodd" clip-rule="evenodd" d="M13.3011 56.4844V57.3633C13.3011 58.325 12.5185 59.1127 11.5586 59.121H16.8166V56.4844H13.3011ZM29.1213 56.4844V59.1211H48.4415C47.4816 59.1128 46.699 58.325 46.699 57.3634V56.4844H29.1213Z" fill="#FFC80A"/>
<path fill-rule="evenodd" clip-rule="evenodd" d="M16.8164 59.1211H29.1211V56.4844H19.4531V38.0273H16.8164V59.1211Z" fill="#FFC80A"/>
<path fill-rule="evenodd" clip-rule="evenodd" d="M32.6367 45.9375H43.1836V48.5742H32.6367V45.9375Z" fill="white"/>
<path fill-rule="evenodd" clip-rule="evenodd" d="M42.3044 12.6204L49.3356 16.7786V13.4614L44.941 10.8626V4.39453H42.3044V12.6204Z" fill="#FFC80A"/>
<path fill-rule="evenodd" clip-rule="evenodd" d="M43.1828 0.878906H40.5466C39.5748 0.881836 38.7888 1.66348 38.7888 2.63672C38.7888 3.6075 39.5758 4.39453 40.5466 4.39453H43.1833C42.2126 4.39453 41.4255 3.60762 41.4255 2.63672C41.4255 1.66359 42.2112 0.882188 43.1828 0.878906Z" fill="white"/>
<path d="M36.6427 23.8781L35.1353 22.9738L36.0396 21.4665L37.547 22.3709L36.6427 23.8781ZM33.628 22.0695L32.1207 21.165L33.0251 19.6577L34.5323 20.5622L33.628 22.0695ZM22.9688 16.9338H21.2109V15.176H22.9688V16.9338Z" fill="white"/>
<path d="M38.7888 58.2422H40.5466V60H38.7888V58.2422Z" fill="black"/>
<path d="M60.0007 58.2422H52.701C52.7985 57.9671 52.8522 57.6715 52.8522 57.3634V55.6056C52.8522 54.9308 52.5971 54.3146 52.1786 53.8478C52.5971 53.3809 52.8522 52.7648 52.8522 52.09V50.3321C52.8522 49.6574 52.5971 49.0412 52.1786 48.5743C52.5971 48.1075 52.8522 47.4914 52.8522 46.8165V45.0587C52.8522 44.3839 52.5971 43.7678 52.1786 43.3009C52.5971 42.834 52.8522 42.218 52.8522 41.5431V39.7853C52.8522 39.1105 52.5971 38.4943 52.1786 38.0275C52.5971 37.5606 52.8522 36.9445 52.8522 36.2696V34.5118C52.8522 33.8371 52.5971 33.2209 52.1786 32.754C52.5971 32.2871 52.8522 31.6711 52.8522 30.9962H54.61V35.3906C54.61 36.8445 55.7929 38.0273 57.2467 38.0273C58.7005 38.0273 59.8833 36.8445 59.8833 35.3906V21.9947L50.2155 16.2772V8.63777C51.2384 8.27496 51.9732 7.29809 51.9732 6.15234V5.12285C52.9962 4.76004 53.731 3.78258 53.731 2.63672C53.731 1.18289 52.5481 0 51.0943 0H40.5475C39.0937 0 37.9108 1.18277 37.9108 2.63672C37.9108 4.09066 39.0937 5.27344 40.5475 5.27344H41.4264V11.0796L30.0009 4.32258L15.8083 12.716L16.7031 14.229L30.0009 6.3648L58.1255 22.9975V35.3906C58.1255 35.8753 57.7313 36.2695 57.2467 36.2695C56.762 36.2695 56.3678 35.8753 56.3678 35.3906V24.8789L30.0009 9.28582L26.4852 11.3648V27.4805C26.4852 27.965 26.091 28.3594 25.6063 28.3594C25.1216 28.3594 24.7274 27.9652 24.7274 27.4805V22.207C24.7274 20.7532 23.5446 19.5703 22.0907 19.5703C20.6368 19.5703 19.454 20.7532 19.454 22.207C19.454 22.6917 19.0598 23.0859 18.5751 23.0859C18.0905 23.0859 17.6962 22.6917 17.6962 22.207V16.5625L3.63391 24.8789V33.6328C3.63391 34.1175 3.23969 34.5117 2.755 34.5117C2.27031 34.5117 1.87609 34.1175 1.87609 33.6328V22.9975L15.1898 15.1239L14.2949 13.6109L0.118281 21.9947V33.6328C0.118281 35.0866 1.30117 36.2695 2.755 36.2695C4.20883 36.2695 5.39172 35.0866 5.39172 33.6328V30.9961H7.14953C7.14953 31.6709 7.40465 32.287 7.82312 32.7539C7.40465 33.2208 7.14953 33.837 7.14953 34.5117V36.2695C7.14953 36.9443 7.40465 37.5605 7.82312 38.0273C7.40465 38.4942 7.14953 39.1104 7.14953 39.7852V41.543C7.14953 42.2177 7.40465 42.8339 7.82312 43.3008C7.40465 43.7677 7.14953 44.3838 7.14953 45.0586V46.8164C7.14953 47.4912 7.40465 48.1073 7.82312 48.5742C7.40465 49.0411 7.14953 49.6573 7.14953 50.332V52.0898C7.14953 52.7646 7.40465 53.3808 7.82312 53.8477C7.40465 54.3145 7.14953 54.9307 7.14953 55.6055V57.3633C7.14953 57.6714 7.20309 57.967 7.3007 58.2421H0.000976562V59.9999H37.0319V58.2421H30.001V54.7264H45.9721C45.8745 55.0015 45.8209 55.2973 45.8209 55.6053V57.3632C45.8209 57.6712 45.8746 57.9669 45.9721 58.2419H42.3053V59.9998H60.0007V58.2422ZM39.6686 2.63672C39.6686 2.15215 40.0628 1.75781 40.5475 1.75781H51.0943C51.5789 1.75781 51.9732 2.15203 51.9732 2.63672C51.9732 3.12141 51.5789 3.51562 51.0943 3.51562H50.2153V6.15234C50.2153 6.63691 49.8211 7.03125 49.3366 7.03125C48.8519 7.03125 48.4576 6.63703 48.4576 6.15234V3.51562H40.5475C40.0628 3.51562 39.6686 3.12129 39.6686 2.63672ZM43.1842 5.27344H46.6998V6.15234C46.6998 7.29809 47.4347 8.27496 48.4576 8.63777V15.2378L43.1842 12.1191V5.27344ZM47.5787 52.0898V50.332C47.5787 49.8473 47.973 49.4531 48.4576 49.4531H50.2155C50.7001 49.4531 51.0944 49.8473 51.0944 50.332V52.0898C51.0944 52.5744 50.7001 52.9687 50.2155 52.9687H48.4578H48.4576C47.973 52.9687 47.5787 52.5745 47.5787 52.0898ZM14.0296 54.7266H15.9386V58.2422H14.0297C14.1272 57.9671 14.1809 57.6715 14.1809 57.3634V55.6056C14.1808 55.2974 14.1271 55.0016 14.0296 54.7266ZM8.90734 52.0898V50.332C8.90734 49.8473 9.30168 49.4531 9.78625 49.4531H11.5441C12.0286 49.4531 12.423 49.8473 12.423 50.332V52.0898C12.423 52.5744 12.0287 52.9687 11.5441 52.9687H9.78625C9.30156 52.9687 8.90734 52.5745 8.90734 52.0898ZM8.90734 46.8164V45.0586C8.90734 44.5739 9.30168 44.1797 9.78625 44.1797H11.5441C12.0286 44.1797 12.423 44.5739 12.423 45.0586V46.8164C12.423 47.301 12.0287 47.6953 11.5441 47.6953H9.78625C9.30156 47.6953 8.90734 47.3011 8.90734 46.8164ZM8.90734 41.543V39.7852C8.90734 39.3005 9.30168 38.9062 9.78625 38.9062H11.5441C12.0286 38.9062 12.423 39.3005 12.423 39.7852V41.543C12.423 42.0275 12.0287 42.4219 11.5441 42.4219H9.78625C9.30156 42.4219 8.90734 42.0277 8.90734 41.543ZM8.90734 36.2695V34.5117C8.90734 34.027 9.30168 33.6328 9.78625 33.6328H11.5441C12.0286 33.6328 12.423 34.027 12.423 34.5117V36.2695C12.423 36.7541 12.0287 37.1484 11.5441 37.1484H9.78625C9.30156 37.1484 8.90734 36.7542 8.90734 36.2695ZM8.90734 30.9961V28.3594H11.5452C12.0293 28.36 12.423 28.7539 12.423 29.2383V30.9961C12.423 31.4807 12.0287 31.875 11.5441 31.875H9.78625C9.30156 31.875 8.90734 31.4808 8.90734 30.9961ZM15.9385 52.9687H14.0296C14.1271 52.6937 14.1808 52.398 14.1808 52.0898V50.332C14.1808 50.0239 14.1271 49.7282 14.0296 49.4531H15.9386V52.9687H15.9385ZM15.9385 47.6953H14.0296C14.1271 47.4203 14.1808 47.1246 14.1808 46.8164V45.0586C14.1808 44.7505 14.1271 44.4547 14.0296 44.1797H15.9386V47.6953H15.9385ZM15.9385 42.4219H14.0296C14.1271 42.1468 14.1808 41.8512 14.1808 41.543V39.7852C14.1808 39.4771 14.1271 39.1813 14.0296 38.9062H15.9386V42.4219H15.9385ZM14.0296 37.1484C14.1271 36.8734 14.1808 36.5777 14.1808 36.2695V34.5117C14.1808 34.2036 14.1271 33.9078 14.0296 33.6328H27.5153C27.8781 34.6557 28.855 35.3906 30.0009 35.3906C31.1466 35.3906 32.1236 34.6557 32.4864 33.6328H45.9721C45.8745 33.9078 45.8209 34.2036 45.8209 34.5117V36.2695C45.8209 36.5776 45.8746 36.8733 45.9721 37.1484H14.0296ZM29.122 32.7539C29.122 32.2693 29.5162 31.875 30.0009 31.875C30.4855 31.875 30.8798 32.2692 30.8798 32.7539C30.8798 33.2386 30.4855 33.6328 30.0009 33.6328C29.5162 33.6328 29.122 33.2386 29.122 32.7539ZM47.5787 30.9961V29.2383C47.5787 28.7539 47.9724 28.3601 48.4565 28.3594H51.0944V30.9961C51.0944 31.4807 50.7001 31.875 50.2155 31.875H48.4576C47.973 31.875 47.5787 31.4808 47.5787 30.9961ZM28.243 16.3768L30.0009 15.3221L48.8001 26.6016H28.243V16.3768ZM51.0944 34.5117V36.2695C51.0944 36.7541 50.7001 37.1484 50.2155 37.1484H48.4576C47.973 37.1484 47.5787 36.7542 47.5787 36.2695V34.5117C47.5787 34.027 47.973 33.6328 48.4576 33.6328H50.2155C50.7001 33.6328 51.0944 34.027 51.0944 34.5117ZM51.0944 39.7852V41.543C51.0944 42.0275 50.7001 42.4219 50.2155 42.4219H48.4576C47.973 42.4219 47.5787 42.0277 47.5787 41.543V39.7852C47.5787 39.3005 47.973 38.9062 48.4576 38.9062H50.2155C50.7001 38.9062 51.0944 39.3005 51.0944 39.7852ZM51.0944 45.0586V46.8164C51.0944 47.301 50.7001 47.6953 50.2155 47.6953H48.4576C47.973 47.6953 47.5787 47.3011 47.5787 46.8164V45.0586C47.5787 44.5739 47.973 44.1797 48.4576 44.1797H50.2155C50.7001 44.1797 51.0944 44.5739 51.0944 45.0586ZM44.0635 38.9062H45.9721C45.8745 39.1813 45.8209 39.4771 45.8209 39.7852V41.543C45.8209 41.8511 45.8746 42.1467 45.9721 42.4219H44.0635V38.9062ZM31.7588 38.9062V42.4219H30.001V38.9062H31.7588ZM30.001 44.1797H31.7588V47.6953H30.001V44.1797ZM33.5166 38.9062H37.0322V47.6953H33.5166V38.9062ZM38.79 38.9062H42.3057V47.6953H38.79V38.9062ZM44.0635 44.1797H45.9721C45.8745 44.4547 45.8209 44.7505 45.8209 45.0586V46.8164C45.8209 47.1245 45.8746 47.4202 45.9721 47.6953H44.0635V44.1797ZM30.0009 11.328L54.61 25.8816V29.2383H52.8522V26.9829L30.0009 13.2723L28.243 14.327V12.3675L30.0009 11.328ZM25.6063 30.1172C26.7521 30.1172 27.7291 29.3823 28.0919 28.3594H45.9721C45.8745 28.6344 45.8209 28.9301 45.8209 29.2383V30.9961C45.8209 31.3042 45.8746 31.5998 45.9721 31.875H32.4864C32.1236 30.8521 31.1466 30.1172 30.0009 30.1172C28.8551 30.1172 27.8781 30.8521 27.5153 31.875H14.0296C14.1272 31.6 14.1808 31.3043 14.1808 30.9961V29.2383C14.1808 28.9302 14.1271 28.6345 14.0296 28.3594H23.1209C23.4837 29.3823 24.4606 30.1172 25.6063 30.1172ZM18.5752 24.8439C20.029 24.8439 21.2119 23.661 21.2119 22.2071C21.2119 21.7225 21.6061 21.3282 22.0908 21.3282C22.5754 21.3282 22.9697 21.7225 22.9697 22.2071V26.6016H11.2015L16.3022 23.5412C16.7611 24.3199 17.6078 24.8439 18.5752 24.8439ZM7.14953 29.2383H5.39172V25.8816L15.9385 19.6443V21.7096L7.14941 26.9829V29.2383H7.14953ZM8.90734 57.3633V55.6055C8.90734 55.1208 9.30168 54.7266 9.78625 54.7266H11.5441C12.0286 54.7266 12.423 55.1208 12.423 55.6055V57.3633C12.423 57.8475 12.0293 58.2415 11.5452 58.2421H9.78519C9.30098 58.2415 8.90734 57.8476 8.90734 57.3633ZM17.6963 58.2422V38.9062H28.2432V58.2422H17.6963ZM30.001 49.4531H45.9721C45.8745 49.7282 45.8209 50.0239 45.8209 50.332V52.0898C45.8209 52.3979 45.8746 52.6936 45.9721 52.9687H30.001V49.4531ZM47.5787 57.3633V55.6055C47.5787 55.1208 47.973 54.7266 48.4576 54.7266H48.4578H50.2155C50.7001 54.7266 51.0944 55.1208 51.0944 55.6055V57.3633C51.0944 57.8475 50.7007 58.2415 50.2166 58.2421H48.4566C47.9724 58.2415 47.5787 57.8476 47.5787 57.3633Z" fill="black"/>
<path d="M24.7268 47.6953H26.4846V49.4531H24.7268V47.6953Z" fill="black"/>
</svg>
