<svg width="60" height="60" viewBox="0 0 60 60" fill="none" xmlns="http://www.w3.org/2000/svg">
<path d="M58.8281 37.7344V44.7656C57.291 44.7656 26.0667 44.7656 22.9688 44.7656V37.7344H58.8281Z" fill="#FFC80A"/>
<path d="M55.3125 8.20312C57.2541 8.20312 58.8281 6.62913 58.8281 4.6875C58.8281 2.74587 57.2541 1.17188 55.3125 1.17188C53.3709 1.17188 51.7969 2.74587 51.7969 4.6875C51.7969 6.62913 53.3709 8.20312 55.3125 8.20312Z" fill="#FFC80A"/>
<path d="M55.3125 18.75C57.2543 18.75 58.8281 20.3238 58.8281 22.2656C58.8281 24.2074 57.2543 25.7812 55.3125 25.7812H44.7656C42.8238 25.7812 41.25 24.2074 41.25 22.2656C41.25 20.3238 42.8238 18.75 44.7656 18.75C44.7656 16.8082 46.3395 15.2344 48.2812 15.2344C50.223 15.2344 51.7969 16.8082 51.7969 18.75H55.3125Z" fill="white"/>
<path d="M41.25 4.6875C43.1918 4.6875 44.7656 6.26133 44.7656 8.20312C44.7656 10.1449 43.1918 11.7188 41.25 11.7188H30.7031C28.7613 11.7188 27.1875 10.1449 27.1875 8.20312C27.1875 6.26133 28.7613 4.6875 30.7031 4.6875H34.2188C34.2188 2.7457 35.7926 1.17188 37.7344 1.17188C39.6762 1.17188 41.25 2.7457 41.25 4.6875Z" fill="white"/>
<path d="M11.7188 32.8125C5.89336 32.8125 1.17188 29.2453 1.17188 20.5078C1.17188 11.7703 5.89336 1.17188 11.7188 1.17188C17.5441 1.17188 22.2656 11.7703 22.2656 20.5078C22.2656 29.2453 17.5441 32.8125 11.7188 32.8125Z" fill="white"/>
<path d="M58.8281 36.5625H22.9688C22.3215 36.5625 21.7969 37.0873 21.7969 37.7344V44.7656C21.7969 45.4127 22.3215 45.9375 22.9688 45.9375H25.3125V50.625H22.9688C22.3215 50.625 21.7969 51.1498 21.7969 51.7969C21.7969 52.444 22.3215 52.9688 22.9688 52.9688H25.3125V57.6562H12.8906V33.937C20.133 33.3592 23.4375 27.7421 23.4375 20.5078C23.4375 12.7736 19.1859 0 11.7188 0C4.29387 0 0 12.684 0 20.5078C0 27.7464 3.30762 33.3594 10.5469 33.937V57.6562H1.17188C0.524648 57.6562 0 58.181 0 58.8281C0 59.4752 0.524648 60 1.17188 60H58.8281C59.4754 60 60 59.4752 60 58.8281C60 58.181 59.4754 57.6562 58.8281 57.6562H56.4844V52.9688H58.8281C59.4754 52.9688 60 52.444 60 51.7969C60 51.1498 59.4754 50.625 58.8281 50.625H56.4844V45.9375H58.8281C59.4754 45.9375 60 45.4127 60 44.7656V37.7344C60 37.0873 59.4754 36.5625 58.8281 36.5625ZM2.34375 20.5078C2.34375 14.4002 5.85645 2.34375 11.7188 2.34375C17.5638 2.34375 21.0938 14.3571 21.0938 20.5078C21.0938 27.2082 18.1925 31.0978 12.8906 31.5868V22.7511L16.063 19.5788C16.5206 19.1211 16.5206 18.3791 16.063 17.9214C15.6054 17.4639 14.8634 17.4639 14.4056 17.9214L11.7188 20.6082L9.03176 17.9212C8.57414 17.4637 7.83211 17.4637 7.37438 17.9212C6.91676 18.3789 6.91676 19.1209 7.37438 19.5786L10.5469 22.7511V31.5868C5.24496 31.0978 2.34375 27.2082 2.34375 20.5078ZM54.1406 50.625H46.172C45.5248 50.625 45.0001 51.1498 45.0001 51.7969C45.0001 52.444 45.5248 52.9688 46.172 52.9688H54.1406V57.6562H27.6562V52.9688H35.625C36.2722 52.9688 36.7969 52.444 36.7969 51.7969C36.7969 51.1498 36.2722 50.625 35.625 50.625H27.6562V45.9375H54.1406V50.625ZM57.6562 43.5938H24.1406V38.9062H57.6562V43.5938Z" fill="black"/>
<path d="M55.3125 0C52.7278 0 50.625 2.10281 50.625 4.6875C50.625 7.27219 52.7278 9.375 55.3125 9.375C57.8972 9.375 60 7.27219 60 4.6875C60 2.10281 57.8972 0 55.3125 0ZM55.3125 7.03125C54.0202 7.03125 52.9688 5.97984 52.9688 4.6875C52.9688 3.39516 54.0202 2.34375 55.3125 2.34375C56.6048 2.34375 57.6562 3.39516 57.6562 4.6875C57.6562 5.97984 56.6048 7.03125 55.3125 7.03125Z" fill="black"/>
<path d="M55.3125 17.5781H52.8204C52.2988 15.5586 50.4614 14.0625 48.2812 14.0625C46.0584 14.0625 44.192 15.6178 43.7129 17.6973C41.6334 18.1764 40.0781 20.0428 40.0781 22.2656C40.0781 24.8503 42.1809 26.9531 44.7656 26.9531H55.3125C57.8972 26.9531 60 24.8503 60 22.2656C60 19.6809 57.8972 17.5781 55.3125 17.5781ZM55.3125 24.6094H44.7656C43.4733 24.6094 42.4219 23.558 42.4219 22.2656C42.4219 20.9733 43.4733 19.9219 44.7656 19.9219C45.4129 19.9219 45.9375 19.3971 45.9375 18.75C45.9375 17.4577 46.9889 16.4062 48.2812 16.4062C49.5736 16.4062 50.625 17.4577 50.625 18.75C50.625 19.3971 51.1496 19.9219 51.7969 19.9219H55.3125C56.6048 19.9219 57.6562 20.9733 57.6562 22.2656C57.6562 23.558 56.6048 24.6094 55.3125 24.6094Z" fill="black"/>
<path d="M41.25 12.8906C43.8347 12.8906 45.9375 10.7878 45.9375 8.20312C45.9375 5.98031 44.3822 4.11387 42.3027 3.6348C41.8236 1.55531 39.9572 0 37.7344 0C35.5542 0 33.7168 1.49613 33.1952 3.51562H30.7031C28.1184 3.51562 26.0156 5.61844 26.0156 8.20312C26.0156 10.7878 28.1184 12.8906 30.7031 12.8906H41.25ZM28.3594 8.20312C28.3594 6.91078 29.4108 5.85938 30.7031 5.85938H34.2188C34.866 5.85938 35.3906 5.33461 35.3906 4.6875C35.3906 3.39516 36.442 2.34375 37.7344 2.34375C39.0267 2.34375 40.0781 3.39516 40.0781 4.6875C40.0781 5.33461 40.6028 5.85938 41.25 5.85938C42.5423 5.85938 43.5938 6.91078 43.5938 8.20312C43.5938 9.49547 42.5423 10.5469 41.25 10.5469H30.7031C29.4108 10.5469 28.3594 9.49547 28.3594 8.20312Z" fill="black"/>
<path d="M40.8987 52.9688C41.5459 52.9688 42.0706 52.4441 42.0706 51.7969C42.0706 51.1497 41.5459 50.625 40.8987 50.625C40.2515 50.625 39.7268 51.1497 39.7268 51.7969C39.7268 52.4441 40.2515 52.9688 40.8987 52.9688Z" fill="black"/>
</svg>
