<svg width="60" height="60" viewBox="0 0 60 60" fill="none" xmlns="http://www.w3.org/2000/svg">
<path d="M35.1506 51.2339V58.8282H43.2114V58.7592" fill="#FFDD4D"/>
<path d="M43.2114 42.1973V37.2076L39.1753 34.0925L35.1506 37.2076V58.3984" fill="#FFDD4D"/>
<path d="M45.2848 30.6482C44.5768 30.6482 43.8837 30.5839 43.2112 30.4607V42.1974C44.508 40.2407 46.1502 38.9666 46.1502 38.9666C46.1502 38.9666 46.6709 39.3706 47.3574 40.0728V30.4609C46.6852 30.5839 45.9925 30.6482 45.2848 30.6482Z" fill="#FFDD4D"/>
<path d="M52.8008 10.5731C52.9124 10.0519 52.9711 9.51111 52.9711 8.9567C52.9711 4.71146 49.5299 1.27002 45.2849 1.27002C41.0399 1.27002 37.5986 4.71146 37.5986 8.9567C37.5986 9.51111 37.6573 10.0519 37.7688 10.5731C35.3619 12.6712 33.8408 15.7597 33.8408 19.2034C33.8408 25.5241 38.9645 30.648 45.2848 30.648C51.6052 30.648 56.7287 25.5241 56.7287 19.2034C56.7288 15.7597 55.2077 12.6712 52.8008 10.5731Z" fill="white"/>
<path d="M29.4723 10.9993C29.3324 8.81297 27.555 7.04332 25.3683 6.9102C25.0678 6.89191 24.7737 6.90457 24.4882 6.94418C24.4883 6.93246 24.489 6.92098 24.489 6.90926C24.489 5.37914 23.2486 4.13871 21.7186 4.13871C20.96 4.13871 20.273 4.44387 19.7727 4.9377C18.9388 2.73715 16.8137 1.17188 14.3209 1.17188C11.1878 1.17188 8.6325 3.64336 8.49644 6.74309C8.49632 6.74484 8.49562 6.7459 8.49562 6.74766C8.46375 7.155 7.98843 7.07555 7.98843 7.07555L7.98914 7.0766C7.63875 7.0118 7.27382 6.98812 6.89918 7.01332C4.75547 7.15711 3.01722 8.89324 2.87203 11.037C2.8623 11.1813 2.85961 11.3243 2.86359 11.4656C2.93062 13.8013 4.84511 15.6742 7.19718 15.6742H25.0959C27.4586 15.6743 29.385 13.8056 29.4782 11.4656C29.4841 11.312 29.4824 11.1565 29.4723 10.9993Z" fill="white"/>
<path d="M25.096 16.8461C25.0957 16.8461 25.0959 16.8461 25.0956 16.8461H7.197C4.19629 16.8461 1.77813 14.4975 1.692 11.4993C1.68684 11.3211 1.69036 11.139 1.70254 10.9582C1.8877 8.22574 4.08789 6.02731 6.82059 5.84402C7.0184 5.8309 7.2168 5.82832 7.41508 5.83617C7.97008 2.50207 10.854 0 14.3209 0C16.7332 0 18.9646 1.26527 20.2329 3.25559C20.6989 3.06609 21.2014 2.96684 21.7185 2.96684C23.4866 2.96684 24.9866 4.13695 25.485 5.74336C28.2513 5.93426 30.4643 8.15379 30.6418 10.9243C30.6542 11.1192 30.6566 11.3169 30.649 11.5118C30.5297 14.5031 28.0906 16.8461 25.096 16.8461ZM7.19114 8.17535C7.11989 8.17535 7.04864 8.17781 6.97762 8.18262C5.40954 8.28773 4.14708 9.54879 4.04102 11.1161C4.03375 11.2215 4.03176 11.3278 4.03481 11.4314C4.08426 13.1535 5.47317 14.5022 7.19688 14.5022H25.0956C26.8274 14.5023 28.238 13.1479 28.3068 11.4189C28.3114 11.3046 28.3099 11.1885 28.3026 11.0741V11.074C28.1996 9.46512 26.9075 8.17781 25.297 8.07973C25.0818 8.06672 24.8635 8.07504 24.649 8.10481C24.3101 8.15145 23.9699 8.04902 23.714 7.82402C23.4579 7.59891 23.3127 7.27348 23.316 6.9327C23.3163 6.92039 23.3165 6.90809 23.317 6.89602C23.3096 6.02063 22.5953 5.3107 21.7183 5.3107C21.2956 5.3107 20.8968 5.47441 20.5955 5.77184C20.3133 6.05039 19.9095 6.16699 19.5225 6.08273C19.1352 5.99813 18.817 5.72367 18.6765 5.35289C17.9947 3.55301 16.2442 2.34375 14.3209 2.34375C11.821 2.34375 9.77676 4.29879 9.66707 6.79441C9.66672 6.80332 9.66614 6.81211 9.66555 6.82102C9.66426 6.84117 9.66239 6.86145 9.65993 6.88172C9.61622 7.30125 9.41676 7.66887 9.09508 7.92023C8.65352 8.26547 8.14493 8.26934 7.89719 8.24496C7.85688 8.2418 7.81657 8.23652 7.77625 8.22902C7.5829 8.19328 7.38684 8.17535 7.19114 8.17535Z" fill="black"/>
<path d="M10.9228 58.8281H2.85083V37.2076L6.88677 34.0925L10.9228 37.2076V58.8281Z" fill="#FFDD4D"/>
<path d="M18.995 58.8281H10.9229V37.2076L14.9589 34.0925L18.995 37.2076V58.8281Z" fill="#FFDD4D"/>
<path d="M27.067 58.8281H18.9949V37.2076L23.0309 34.0925L27.067 37.2076V58.8281Z" fill="#FFDD4D"/>
<path d="M35.1504 58.8281H27.0669V37.2076L31.1029 34.0925L35.1504 37.2076V58.8281Z" fill="#FFDD4D"/>
<path d="M23.0303 40.7613C22.9542 40.7613 22.8779 40.7541 22.8018 40.739C22.7268 40.7238 22.6529 40.7015 22.5827 40.6722C22.5123 40.6429 22.4443 40.6066 22.38 40.5644C22.3167 40.521 22.2558 40.4718 22.2019 40.4179C21.9839 40.2 21.8584 39.8977 21.8584 39.5895C21.8584 39.5133 21.8666 39.437 21.8818 39.361C21.8971 39.286 21.9193 39.212 21.9486 39.1418C21.9779 39.0716 22.0143 39.0036 22.0564 38.9391C22.0985 38.8759 22.1479 38.8149 22.2018 38.761C22.2557 38.7071 22.3165 38.6579 22.3799 38.6157C22.4443 38.5736 22.5123 38.5372 22.5826 38.5079C22.6529 38.4786 22.7266 38.4564 22.8016 38.4411C22.9528 38.4106 23.1087 38.4106 23.2598 38.4411C23.335 38.4564 23.4088 38.4786 23.479 38.5079C23.5494 38.5372 23.6174 38.5736 23.6817 38.6157C23.745 38.6579 23.8059 38.7071 23.8598 38.761C23.9137 38.8149 23.963 38.8758 24.0052 38.9391C24.0473 39.0037 24.0837 39.0716 24.113 39.1418C24.1423 39.212 24.1645 39.286 24.1798 39.361C24.195 39.437 24.2032 39.5133 24.2032 39.5895C24.2032 39.6668 24.195 39.743 24.1798 39.8192C24.1645 39.8942 24.1423 39.9668 24.113 40.0383C24.0837 40.1086 24.0473 40.1766 24.0052 40.2399C23.963 40.3043 23.9137 40.3641 23.8598 40.418C23.8059 40.4719 23.7451 40.5211 23.6817 40.5645C23.6173 40.6067 23.5493 40.643 23.479 40.6723C23.4087 40.7016 23.335 40.7239 23.2598 40.7391C23.1839 40.7542 23.1076 40.7613 23.0303 40.7613Z" fill="black"/>
<path d="M6.8866 40.7614C6.81043 40.7614 6.73309 40.7542 6.65809 40.7391C6.58309 40.7239 6.50926 40.7016 6.43895 40.6723C6.36758 40.643 6.29961 40.6067 6.23633 40.5645C6.17188 40.5211 6.11199 40.4719 6.05809 40.418C6.00418 40.3641 5.95496 40.3043 5.91289 40.2399C5.8707 40.1766 5.83438 40.1086 5.80508 40.0383C5.77578 39.9668 5.75352 39.8942 5.73828 39.8192C5.72305 39.743 5.71484 39.6668 5.71484 39.5895C5.71484 39.5133 5.72305 39.437 5.73828 39.361C5.75352 39.286 5.77578 39.212 5.80508 39.1418C5.83438 39.0717 5.8707 39.0036 5.91289 38.9391C5.95496 38.8759 6.00418 38.8149 6.05809 38.761C6.11199 38.7071 6.17188 38.6579 6.23633 38.6157C6.29961 38.5736 6.36758 38.5372 6.43895 38.5079C6.50938 38.4786 6.58309 38.4564 6.65809 38.4411C6.80926 38.4106 6.96512 38.4106 7.11629 38.4411C7.19012 38.4564 7.26395 38.4786 7.33543 38.5079C7.40574 38.5372 7.47371 38.5736 7.53699 38.6157C7.60145 38.6579 7.66133 38.7071 7.71523 38.761C7.76914 38.8149 7.81836 38.8758 7.86172 38.9391C7.90379 39.0037 7.94023 39.0717 7.96953 39.1418C7.99883 39.212 8.02098 39.286 8.03621 39.361C8.05156 39.437 8.05848 39.5133 8.05848 39.5895C8.05848 39.8977 7.93309 40.2 7.71512 40.4179C7.66121 40.4718 7.60133 40.521 7.53688 40.5644C7.47359 40.6066 7.40563 40.6429 7.33531 40.6722C7.26383 40.7015 7.19 40.7238 7.11617 40.739C7.04012 40.7543 6.96289 40.7614 6.8866 40.7614Z" fill="black"/>
<path d="M41.3326 47.9279C42.4709 48.2169 43.5656 48.7251 44.3897 49.5839C44.9817 50.2007 45.3873 50.9497 45.6586 51.7485C45.8206 51.7641 45.9847 51.7721 46.1505 51.7721C46.3163 51.7721 46.4805 51.7641 46.6427 51.7485C46.914 50.9496 47.3196 50.2007 47.9115 49.5839C48.7366 48.7242 49.8329 48.2157 50.9727 47.9269C51.0113 47.6984 51.0315 47.4642 51.0315 47.2253V43.2878C48.3514 43.2878 46.1768 43.5848 46.1518 46.1651H46.1499C46.1252 43.5847 43.9502 43.2878 41.2698 43.2878L41.274 47.2253C41.274 47.4644 41.294 47.699 41.3326 47.9279Z" fill="white"/>
<path d="M46.1499 46.165H46.1517C46.1725 44.0126 47.6891 43.449 49.747 43.3212C48.4398 40.7424 46.1504 38.9666 46.1504 38.9666C46.1504 38.9666 43.8611 40.7425 42.554 43.3212C44.6122 43.449 46.1291 44.0125 46.1499 46.165Z" fill="#FFC600"/>
<path d="M55.3895 56.7616C52.554 59.716 46.5163 58.5221 46.5163 58.5221C46.5163 58.5221 45.0758 52.5382 47.9113 49.5837C50.7467 46.6293 56.7845 47.8232 56.7845 47.8232C56.7845 47.8232 58.225 53.8071 55.3895 56.7616Z" fill="white"/>
<path d="M36.9113 56.7616C39.7468 59.716 45.7845 58.5221 45.7845 58.5221C45.7845 58.5221 47.225 52.5382 44.3895 49.5837C41.554 46.6293 35.5163 47.8232 35.5163 47.8232C35.5163 47.8232 34.0757 53.8071 36.9113 56.7616Z" fill="white"/>
<path d="M57.924 47.5489C57.8169 47.1042 57.4608 46.7623 57.012 46.6736C56.8553 46.6426 54.6583 46.2234 52.2033 46.5173V43.2877C52.2033 42.6406 51.6785 42.1159 51.0314 42.1159C50.8459 42.1159 50.6414 42.1159 50.4232 42.1194C49.8362 41.1264 49.1454 40.2716 48.5295 39.6046V31.3973C53.9188 29.962 57.901 25.0392 57.901 19.2037C57.901 15.7798 56.5105 12.5146 54.0642 10.1432C54.1167 9.75101 54.1432 9.35421 54.1432 8.95694C54.1432 4.07233 50.1695 0.0983887 45.2851 0.0983887C40.4006 0.0983887 36.4269 4.07233 36.4269 8.95694C36.4269 9.35421 36.4535 9.75101 36.5059 10.1432C34.0596 12.5146 32.6692 15.78 32.6692 19.2037C32.6692 25.0387 36.6508 29.9613 42.0396 31.3969V34.8229L39.8915 33.165C39.469 32.8389 38.8799 32.8394 38.4581 33.1659L35.1488 35.7274L31.8182 33.164C31.3961 32.8393 30.8087 32.8396 30.3873 33.1651L27.0674 35.7275L23.7474 33.1651C23.3255 32.8394 22.7371 32.8394 22.3152 33.1651L18.9953 35.7275L15.6753 33.1651C15.2534 32.8394 14.665 32.8394 14.2431 33.1651L10.9232 35.7275L7.60314 33.1651C7.18127 32.8394 6.59287 32.8394 6.171 33.1651L2.13506 36.2801C1.8476 36.5021 1.6792 36.8446 1.6792 37.2078V58.8282C1.6792 59.4753 2.20396 60.0001 2.85107 60.0001H43.2115C43.361 60.0001 43.5041 59.9719 43.6356 59.9209C44.9588 59.8736 45.911 59.6917 46.0123 59.6717C46.0596 59.6623 46.1058 59.6501 46.1509 59.6354C46.1959 59.6501 46.2422 59.6623 46.2895 59.6717C46.4059 59.6948 47.6482 59.9321 49.286 59.9321C51.4785 59.9321 54.3797 59.5067 56.2355 57.573V57.5731C59.4772 54.1951 57.989 47.8188 57.924 47.5489ZM9.75107 57.6563H8.05865V44.2724C8.05865 43.6253 7.53389 43.1006 6.88678 43.1006C6.23967 43.1006 5.7149 43.6253 5.7149 44.2724V57.6563H4.02271V37.7835L6.88678 35.5729L9.75096 37.7835L9.75107 57.6563ZM17.8232 57.6563H12.0948V37.7835L14.9589 35.5729L17.8231 37.7835L17.8232 57.6563ZM25.8952 57.6563H24.2029V44.2724C24.2029 43.6253 23.6781 43.1006 23.031 43.1006C22.3839 43.1006 21.8591 43.6253 21.8591 44.2724V57.6563H20.1669V37.7835L23.031 35.5729L25.8952 37.7835V57.6563ZM33.9786 57.6563H28.2389V37.7835L31.104 35.5722L33.9785 37.7846V57.6563H33.9786ZM46.1856 37.7954C45.9205 37.7874 45.6532 37.8692 45.432 38.0408C45.3905 38.073 44.9665 38.4051 44.3831 38.9752V31.7882C44.681 31.8093 44.9817 31.8201 45.2849 31.8201C45.5877 31.8201 45.8881 31.8093 46.1856 31.7882V37.7954ZM46.1516 40.5276C46.6181 40.9717 47.2457 41.6294 47.8308 42.4371C47.2159 42.6116 46.6299 42.8809 46.1508 43.2964C45.6718 42.8811 45.086 42.6119 44.4714 42.4374C45.0561 41.6321 45.6847 40.973 46.1516 40.5276ZM35.0127 19.2037C35.0127 16.2337 36.298 13.4101 38.539 11.4567C38.8601 11.1767 39.004 10.7445 38.9148 10.3279C38.8191 9.88073 38.7706 9.41937 38.7706 8.95694C38.7706 5.36468 41.693 2.44214 45.285 2.44214C48.8769 2.44214 51.7993 5.36456 51.7993 8.95694C51.7993 9.41937 51.7508 9.88073 51.6551 10.3279C51.5659 10.7445 51.7098 11.1767 52.031 11.4567C54.2719 13.4101 55.5572 16.2338 55.5572 19.2037C55.5572 24.4719 51.5713 28.8266 46.457 29.4099V23.5053C46.4627 23.5003 46.4685 23.4951 46.4741 23.4898L50.9391 19.3763C51.4152 18.9378 51.4454 18.1965 51.0069 17.7205C50.5684 17.2443 49.8271 17.214 49.3511 17.6526L46.457 20.3189V17.2633L49.611 14.3387C50.0856 13.8985 50.1135 13.1571 49.6735 12.6825C49.2332 12.2078 48.4917 12.1803 48.0172 12.62L46.457 14.0668V11.4314C46.457 10.7842 45.9322 10.2595 45.2851 10.2595C44.638 10.2595 44.1133 10.7842 44.1133 11.4314V20.3191L41.2191 17.6527C40.7429 17.2141 40.0016 17.2447 39.5632 17.7206C39.1247 18.1966 39.1551 18.9379 39.6311 19.3764L44.096 23.49C44.1018 23.4952 44.1075 23.5004 44.1133 23.5055V29.41C38.9987 28.8266 35.0127 24.4719 35.0127 19.2037ZM36.3224 37.7825L39.1763 35.5736L42.0395 37.7834V41.853C41.9848 41.9407 41.9309 42.0294 41.8777 42.1192C41.6595 42.1157 41.4551 42.1157 41.2697 42.1157C40.9587 42.1157 40.6604 42.2394 40.4406 42.4594C40.2209 42.6795 40.0975 42.9779 40.0978 43.2889L40.1013 46.5175C38.6161 46.3393 37.225 46.4223 36.3224 46.5225V37.7825ZM44.7922 57.4903C44.3624 57.5415 43.8503 57.5809 43.296 57.5903C43.268 57.5884 43.2397 57.5873 43.2113 57.5873C43.1743 57.5873 43.1378 57.5891 43.1016 57.5924C41.2613 57.5998 39.0184 57.2649 37.7569 55.9503V55.9502C36.0713 54.194 36.2105 50.7301 36.5088 48.8552C38.3923 48.631 41.8515 48.6316 43.5442 50.3954C45.2298 52.1514 45.0906 55.6154 44.7922 57.4903ZM47.066 48.7722C46.7051 49.1483 46.4027 49.5616 46.1506 49.9994C45.8984 49.5615 45.5961 49.1483 45.2351 48.7722C44.4484 47.9526 43.4741 47.4041 42.4456 47.0439L42.4427 44.4911C44.7743 44.6328 44.9691 45.2452 44.978 46.1765C44.9843 46.8192 45.5088 47.337 46.1517 47.337C46.7946 47.337 47.3173 46.8193 47.3236 46.1765C47.3325 45.2451 47.5274 44.6327 49.8595 44.4911V47.0426C48.8295 47.4028 47.8536 47.9517 47.066 48.7722ZM54.5441 55.9501C52.8585 57.7066 49.392 57.7093 47.5068 57.4883C47.4061 56.8625 47.3233 56.0599 47.3208 55.2026C47.3209 55.17 47.3209 55.1371 47.3208 55.1042C47.3281 53.421 47.6513 51.5472 48.7569 50.3953C50.4424 48.639 53.9086 48.6357 55.7943 48.8571C56.0956 50.7297 56.2371 54.1862 54.5441 55.9501Z" fill="black"/>
</svg>
