<svg width="60" height="60" viewBox="0 0 60 60" fill="none" xmlns="http://www.w3.org/2000/svg">
<g clip-path="url(#clip0)">
<path d="M16.4516 35.8064V27.0968L13.5483 24.1935V22.2581H23.2258V24.1935L20.3225 27.0968V35.8064" fill="white"/>
<path d="M21.2903 24.1935V22.2581H13.5483V24.1935L16.4516 27.0968V35.8064H18.387V27.0968L21.2903 24.1935Z" fill="white"/>
<path d="M29.9113 9.76628C29.4968 7.51468 27.5325 5.80648 25.1614 5.80648C24.8041 5.80648 24.4587 5.8509 24.1251 5.92367C23.7117 3.12109 21.3041 0.967773 18.3872 0.967773C15.7925 0.967773 13.5967 2.66983 12.8524 5.01877C12.4541 4.9134 12.0444 4.83874 11.613 4.83874C8.94084 4.83874 6.77429 7.00529 6.77429 9.67745C6.77429 9.71053 6.78279 9.74124 6.78374 9.77432C4.57088 10.2185 2.90332 12.1724 2.90332 14.5162C2.90332 17.1883 5.06987 19.3549 7.74203 19.3549C8.07705 19.3549 8.40404 19.3208 8.71922 19.2561C8.71922 19.2901 8.70977 19.3208 8.70977 19.3549C8.70977 22.027 10.8763 24.1936 13.5485 24.1936C15.4755 24.1936 17.1251 23.0595 17.9033 21.4288C18.6816 23.0595 20.3312 24.1936 22.2582 24.1936C24.9303 24.1936 27.0969 22.027 27.0969 19.3549C27.0969 19.207 27.0657 19.0676 27.0534 18.9225C27.6592 19.1952 28.325 19.3549 29.0324 19.3549C31.7045 19.3549 33.8711 17.1883 33.8711 14.5162C33.8711 12.145 32.1629 10.1807 29.9113 9.76628Z" fill="white"/>
<path d="M39.6774 35.8064V27.0968L36.7742 24.1935V22.2581H46.4516V24.1935L43.5484 27.0968V35.8064" fill="white"/>
<path d="M44.5161 24.1935V22.2581H36.7742V24.1935L39.6774 27.0968V35.8064H41.6129V27.0968L44.5161 24.1935Z" fill="white"/>
<path d="M53.1371 9.76628C52.7227 7.51468 50.7584 5.80648 48.3872 5.80648C48.03 5.80648 47.6846 5.8509 47.351 5.92367C46.9375 3.12109 44.53 0.967773 41.613 0.967773C39.0184 0.967773 36.8225 2.66983 36.0783 5.01877C35.6799 4.9134 35.2702 4.83874 34.8388 4.83874C32.1667 4.83874 30.0001 7.00529 30.0001 9.67745C30.0001 9.71053 30.0086 9.74124 30.0096 9.77432C27.7967 10.2185 26.1292 12.1724 26.1292 14.5162C26.1292 17.1883 28.2957 19.3549 30.9679 19.3549C31.3029 19.3549 31.6299 19.3208 31.9451 19.2561C31.9451 19.2901 31.9356 19.3208 31.9356 19.3549C31.9356 22.027 34.1022 24.1936 36.7743 24.1936C38.7013 24.1936 40.3509 23.0595 41.1292 21.4288C41.9074 23.0595 43.557 24.1936 45.484 24.1936C48.1561 24.1936 50.3227 22.027 50.3227 19.3549C50.3227 19.207 50.2915 19.0676 50.2792 18.9225C50.885 19.1952 51.5508 19.3549 52.2582 19.3549C54.9303 19.3549 57.0969 17.1883 57.0969 14.5162C57.0969 12.145 55.3887 10.1807 53.1371 9.76628Z" fill="white"/>
<path d="M0 41.6128H60V45.4838H0V41.6128Z" fill="#FFDD4D"/>
<path d="M0 51.2903H60V55.1612H0V51.2903Z" fill="#FFDD4D"/>
<path d="M56.129 36.7741V59.0321H50.3225V36.7741L53.2257 33.8708L56.129 36.7741Z" fill="#FFDD4D"/>
<path d="M51.7741 35.3225L50.3225 36.7741V59.0322H53.2257V36.7741L51.7741 35.3225Z" fill="#FFC80A"/>
<path d="M44.5162 36.7741V59.0321H38.7097V36.7741L41.6129 33.8708L44.5162 36.7741Z" fill="#FFDD4D"/>
<path d="M40.1613 35.3225L38.7097 36.7741V59.0322H41.6129V36.7741L40.1613 35.3225Z" fill="#FFC80A"/>
<path d="M32.9031 36.7741V59.0321H27.0967V36.7741L29.9999 33.8708L32.9031 36.7741Z" fill="#FFDD4D"/>
<path d="M28.5483 35.3225L27.0967 36.7741V59.0322H29.9999V36.7741L28.5483 35.3225Z" fill="#FFC80A"/>
<path d="M21.2903 36.7741V59.0321H15.4839V36.7741L18.3871 33.8708L21.2903 36.7741Z" fill="#FFDD4D"/>
<path d="M16.9355 35.3225L15.4839 36.7741V59.0322H18.3871V36.7741L16.9355 35.3225Z" fill="#FFC80A"/>
<path d="M9.6773 36.7741V59.0321H3.87085V36.7741L6.77407 33.8708L9.6773 36.7741Z" fill="#FFDD4D"/>
<path d="M5.32246 35.3225L3.87085 36.7741V59.0322H6.77408V36.7741L5.32246 35.3225Z" fill="#FFC80A"/>
<path d="M22.2581 25.1613C20.5509 25.1613 18.9863 24.4298 17.9033 23.1823C16.8202 24.4298 15.2557 25.1613 13.5484 25.1613C10.6764 25.1613 8.28493 23.0651 7.82233 20.3226C4.6096 20.3594 1.93555 17.7445 1.93555 14.5161C1.93555 12.024 3.53931 9.82721 5.84243 9.03005C6.16564 6.13155 8.63035 3.87097 11.613 3.87097C11.8209 3.87097 12.0302 3.88467 12.2457 3.91161C13.3453 1.54045 15.715 0 18.3872 0C21.3948 0 24.0329 2.02668 24.875 4.84627C27.7735 4.67899 30.3389 6.74301 30.8634 9.59142L28.9595 9.94156C28.6222 8.10578 27.0241 6.77419 25.1614 6.77419C24.8963 6.77419 24.6241 6.80538 24.3302 6.86917C24.0679 6.92824 23.7938 6.87106 23.5741 6.71891C23.3534 6.56628 23.2065 6.33002 23.1677 6.06398C22.8204 3.71031 20.7659 1.93548 18.3872 1.93548C16.2688 1.93548 14.4146 3.29212 13.7748 5.31171C13.6193 5.80456 13.1043 6.08713 12.6039 5.95435C12.2235 5.8537 11.9092 5.80645 11.613 5.80645C9.47807 5.80645 7.742 7.54253 7.742 9.67742C7.74389 9.6434 7.74956 9.68687 7.75145 9.74594C7.76515 10.2175 7.43722 10.6296 6.97555 10.7227C5.17663 11.0846 3.87103 12.6803 3.87103 14.5161C3.87103 16.651 5.60711 18.3871 7.742 18.3871C8.00614 18.3871 8.26934 18.3611 8.52403 18.3077C8.81039 18.2477 9.1095 18.3224 9.33584 18.509C9.56218 18.6957 9.69118 18.9754 9.68693 19.2688C9.68693 19.3123 9.67843 19.403 9.67181 19.447C9.67748 21.4897 11.4136 23.2258 13.5484 23.2258C15.0435 23.2258 16.378 22.3781 17.0305 21.0115C17.1912 20.6746 17.5309 20.461 17.9033 20.461C18.2756 20.461 18.6154 20.6746 18.776 21.0115C19.4286 22.3781 20.763 23.2258 22.2581 23.2258C24.393 23.2258 26.1291 21.4897 26.1291 19.3548C26.1291 19.3066 26.1196 19.2589 26.1135 19.2126L26.0894 19.0085C26.0596 18.6659 26.2123 18.3337 26.4929 18.1343C26.7736 17.9344 27.1375 17.8994 27.4512 18.0407C28.2096 18.3824 29.0276 18.4674 29.8096 18.3096L30.1929 20.2063C29.4727 20.3514 28.7219 20.3623 27.9998 20.2276C27.5769 23.0169 25.1632 25.1613 22.2581 25.1613Z" fill="black"/>
<path d="M45.4837 25.1613C43.7765 25.1613 42.2119 24.4298 41.1289 23.1823C40.0458 24.4298 38.4813 25.1613 36.774 25.1613C33.902 25.1613 31.5105 23.0651 31.0479 20.3226C27.8342 20.3594 25.1611 17.7445 25.1611 14.5161C25.1611 12.024 26.7649 9.82721 29.068 9.03005C29.3912 6.13155 31.8559 3.87097 34.8386 3.87097C35.0465 3.87097 35.2558 3.88467 35.4713 3.91161C36.5708 1.54045 38.9406 0 41.6127 0C44.6204 0 47.2585 2.02668 48.1006 4.84627C50.7978 4.70404 53.1812 6.45004 53.9378 8.96626C56.3633 9.6949 58.0644 11.9352 58.0644 14.5161C58.0644 17.7185 55.4602 20.3226 52.2579 20.3226C51.9106 20.3226 51.5652 20.2904 51.2245 20.2276C50.8025 23.0169 48.3888 25.1613 45.4837 25.1613ZM41.1289 20.462C41.5012 20.462 41.841 20.676 42.0016 21.0125C42.6542 22.3781 43.9886 23.2258 45.4837 23.2258C47.6186 23.2258 49.3547 21.4897 49.3547 19.3548C49.3547 19.3066 49.3452 19.2589 49.3391 19.2126L49.315 19.0085C49.2852 18.6659 49.4378 18.3337 49.7185 18.1343C49.9992 17.9344 50.3631 17.8994 50.6768 18.0407C51.1876 18.2699 51.7197 18.3871 52.2579 18.3871C54.3928 18.3871 56.1289 16.651 56.1289 14.5161C56.1289 12.6534 54.7973 11.0553 52.9615 10.7179C52.5665 10.6452 52.2579 10.3366 52.1851 9.94156C51.8478 8.10578 50.2497 6.77419 48.3869 6.77419C48.1219 6.77419 47.8497 6.80538 47.5558 6.86917C47.2935 6.92824 47.0204 6.87106 46.7997 6.71891C46.579 6.56628 46.4321 6.33002 46.3933 6.06398C46.046 3.71031 43.9915 1.93548 41.6127 1.93548C39.4944 1.93548 37.6402 3.29212 37.0004 5.31171C36.8449 5.80456 36.3317 6.08713 35.8294 5.95435C35.4491 5.8537 35.1348 5.80645 34.8386 5.80645C32.7037 5.80645 30.9676 7.54253 30.9676 9.67742C30.9685 9.6434 30.9751 9.68687 30.977 9.74594C30.9907 10.2175 30.6628 10.6296 30.2011 10.7227C28.4022 11.0846 27.0966 12.6803 27.0966 14.5161C27.0966 16.651 28.8327 18.3871 30.9676 18.3871C31.2317 18.3871 31.4949 18.3611 31.7496 18.3077C32.035 18.2477 32.3351 18.3224 32.5614 18.509C32.7878 18.6957 32.9168 18.9754 32.9125 19.2688C32.9125 19.3123 32.904 19.403 32.8974 19.447C32.9031 21.4897 34.6391 23.2258 36.774 23.2258C38.2691 23.2258 39.6035 22.3781 40.2561 21.0115C40.4168 20.676 40.7565 20.462 41.1289 20.462Z" fill="black"/>
<path d="M44.5161 35.8064H42.5806V27.0967C42.5806 26.8401 42.6822 26.5935 42.8641 26.4125L45.7673 23.5093L47.1358 24.8777L44.5161 27.4974V35.8064Z" fill="black"/>
<path d="M40.6453 35.8064H38.7098V27.4974L36.0901 24.8777L37.4585 23.5093L40.3618 26.4125C40.5437 26.5935 40.6453 26.8401 40.6453 27.0967V35.8064Z" fill="black"/>
<path d="M21.2902 35.8064H19.3547V27.0967C19.3547 26.8401 19.4563 26.5935 19.6383 26.4125L22.5415 23.5093L23.9099 24.8777L21.2902 27.4974V35.8064Z" fill="black"/>
<path d="M17.4194 35.8064H15.484V27.4974L12.8643 24.8777L14.2327 23.5093L17.1359 26.4125C17.3179 26.5935 17.4194 26.8401 17.4194 27.0967V35.8064Z" fill="black"/>
<path d="M9.67751 60H3.87106C3.3371 60 2.90332 59.5662 2.90332 59.0322V36.7742C2.90332 36.5176 3.00491 36.2709 3.18684 36.0899L6.09006 33.1867C6.46856 32.8082 7.08001 32.8082 7.45851 33.1867L10.3617 36.0899C10.5437 36.2709 10.6453 36.5176 10.6453 36.7742V59.0322C10.6453 59.5662 10.2115 60 9.67751 60ZM4.8388 58.0645H8.70977V37.1749L6.77429 35.2394L4.8388 37.1749V58.0645Z" fill="black"/>
<path d="M21.2903 60H15.4839C14.9499 60 14.5161 59.5662 14.5161 59.0322V36.7742C14.5161 36.5176 14.6177 36.2709 14.7996 36.0899L17.7029 33.1867C18.0814 32.8082 18.6928 32.8082 19.0713 33.1867L21.9745 36.0899C22.1565 36.2709 22.2581 36.5176 22.2581 36.7742V59.0322C22.2581 59.5662 21.8243 60 21.2903 60ZM16.4516 58.0645H20.3226V37.1749L18.3871 35.2394L16.4516 37.1749V58.0645Z" fill="black"/>
<path d="M32.9033 60H27.0969C26.5629 60 26.1292 59.5662 26.1292 59.0322V36.7742C26.1292 36.5176 26.2307 36.2709 26.4127 36.0899L29.3159 33.1867C29.6944 32.8082 30.3058 32.8082 30.6843 33.1867L33.5876 36.0899C33.7695 36.2709 33.8711 36.5176 33.8711 36.7742V59.0322C33.8711 59.5662 33.4373 60 32.9033 60ZM28.0646 58.0645H31.9356V37.1749L30.0001 35.2394L28.0646 37.1749V58.0645Z" fill="black"/>
<path d="M44.5161 60H38.7097C38.1757 60 37.7419 59.5662 37.7419 59.0322V36.7742C37.7419 36.5176 37.8435 36.2709 38.0255 36.0899L40.9287 33.1867C41.3072 32.8082 41.9186 32.8082 42.2971 33.1867L45.2004 36.0899C45.3823 36.2709 45.4839 36.5176 45.4839 36.7742V59.0322C45.4839 59.5662 45.0501 60 44.5161 60ZM39.6774 58.0645H43.5484V37.1749L41.6129 35.2394L39.6774 37.1749V58.0645Z" fill="black"/>
<path d="M56.1289 60H50.3225C49.7885 60 49.3547 59.5662 49.3547 59.0322V36.7742C49.3547 36.5176 49.4563 36.2709 49.6383 36.0899L52.5415 33.1867C52.92 32.8082 53.5314 32.8082 53.9099 33.1867L56.8132 36.0899C56.9951 36.2709 57.0967 36.5176 57.0967 36.7742V59.0322C57.0967 59.5662 56.6629 60 56.1289 60ZM51.2902 58.0645H55.1612V37.1749L53.2257 35.2394L51.2902 37.1749V58.0645Z" fill="black"/>
<path d="M9.67749 40.6453H15.4839V42.5807H9.67749V40.6453Z" fill="black"/>
<path d="M0 40.6453H3.87097V42.5807H0V40.6453Z" fill="black"/>
<path d="M0 44.5161H3.87097V46.4516H0V44.5161Z" fill="black"/>
<path d="M9.67749 44.5161H15.4839V46.4516H9.67749V44.5161Z" fill="black"/>
<path d="M9.67749 50.3225H15.4839V52.258H9.67749V50.3225Z" fill="black"/>
<path d="M0 50.3225H3.87097V52.258H0V50.3225Z" fill="black"/>
<path d="M0 54.1936H3.87097V56.1291H0V54.1936Z" fill="black"/>
<path d="M56.1292 40.6453H60.0001V42.5807H56.1292V40.6453Z" fill="black"/>
<path d="M56.1292 44.5161H60.0001V46.4516H56.1292V44.5161Z" fill="black"/>
<path d="M56.1292 50.3225H60.0001V52.258H56.1292V50.3225Z" fill="black"/>
<path d="M56.1292 54.1936H60.0001V56.1291H56.1292V54.1936Z" fill="black"/>
<path d="M9.67749 54.1936H15.4839V56.1291H9.67749V54.1936Z" fill="black"/>
<path d="M21.2903 40.6453H27.0967V42.5807H21.2903V40.6453Z" fill="black"/>
<path d="M21.2903 44.5161H27.0967V46.4516H21.2903V44.5161Z" fill="black"/>
<path d="M21.2903 50.3225H27.0967V52.258H21.2903V50.3225Z" fill="black"/>
<path d="M21.2903 54.1936H27.0967V56.1291H21.2903V54.1936Z" fill="black"/>
<path d="M32.9033 40.6453H38.7098V42.5807H32.9033V40.6453Z" fill="black"/>
<path d="M32.9033 44.5161H38.7098V46.4516H32.9033V44.5161Z" fill="black"/>
<path d="M32.9033 50.3225H38.7098V52.258H32.9033V50.3225Z" fill="black"/>
<path d="M32.9033 54.1936H38.7098V56.1291H32.9033V54.1936Z" fill="black"/>
<path d="M44.5161 40.6453H50.3226V42.5807H44.5161V40.6453Z" fill="black"/>
<path d="M44.5161 44.5161H50.3226V46.4516H44.5161V44.5161Z" fill="black"/>
<path d="M44.5161 50.3225H50.3226V52.258H44.5161V50.3225Z" fill="black"/>
<path d="M44.5161 54.1936H50.3226V56.1291H44.5161V54.1936Z" fill="black"/>
<path d="M44.5162 6.77408H42.5807C42.5807 6.24106 42.146 5.80633 41.6129 5.80633C41.0799 5.80633 40.6452 6.24106 40.6452 6.77408H38.7097C38.7097 5.17362 40.0125 3.87085 41.6129 3.87085C43.2134 3.87085 44.5162 5.17362 44.5162 6.77408Z" fill="black"/>
</g>
<defs>
<clipPath id="clip0">
<rect width="60" height="60" fill="white"/>
</clipPath>
</defs>
</svg>
