<svg width="60" height="60" viewBox="0 0 60 60" fill="none" xmlns="http://www.w3.org/2000/svg">
<g clip-path="url(#clip0)">
<path d="M8.70972 38.7097H33.871V55.1613H8.70972V38.7097Z" fill="#F0BC5E"/>
<path d="M60 34.8388V29.7718L55.1613 20.0944V15.4839H39.1227L38.7097 14.3461V9.67749H30.9677V11.613H36.7742V13.5485H30V15.4839H32.1637L34.5396 24.1936H30.7556L29.0034 17.1841L27.1256 17.6538L28.7606 24.1936H24.9869L24.1751 20.1332L22.2774 20.5131L23.0127 24.1936H19.5679L20.3042 20.5121L18.4065 20.1322L17.5937 24.1936H13.8201L15.455 17.6547L13.5772 17.1851L11.8251 24.1936H8.04105L10.4169 15.4839H12.5806V13.5485H5.80645V11.613H11.6129V9.67749H3.87097V14.3461L0 24.9913V28.0646C0 29.8626 1.2385 31.3657 2.90323 31.7981V54.1936H0.967742V60.0001H41.6129V56.1291H60V50.3227H57.0968V34.8388H60ZM39.6774 32.9033V31.7981C40.2667 31.6454 40.7973 31.3567 41.2434 30.9678H58.0645V32.9033H39.6774ZM7.74194 26.1291H11.6129V28.0646C11.6129 29.132 10.7449 30.0001 9.67742 30.0001C8.60997 30.0001 7.74194 29.132 7.74194 28.0646V26.1291ZM13.5484 26.1291H17.4194V28.0646C17.4194 29.132 16.5513 30.0001 15.4839 30.0001C14.4164 30.0001 13.5484 29.132 13.5484 28.0646V26.1291ZM19.3548 26.1291H23.2258V28.0646C23.2258 29.132 22.3578 30.0001 21.2903 30.0001C20.2229 30.0001 19.3548 29.132 19.3548 28.0646V26.1291ZM25.1613 26.1291H29.0323V28.0646C29.0323 29.132 28.1642 30.0001 27.0968 30.0001C26.0293 30.0001 25.1613 29.132 25.1613 28.0646V26.1291ZM30.9677 26.1291H34.8387V28.0646C34.8387 29.132 33.9707 30.0001 32.9032 30.0001C31.8358 30.0001 30.9677 29.132 30.9677 28.0646V26.1291ZM36.7742 26.1291H40.6452V28.0646C40.6452 29.132 39.7771 30.0001 38.7097 30.0001C37.6422 30.0001 36.7742 29.132 36.7742 28.0646V26.1291ZM41.2344 21.2904H53.5944L57.4653 29.0323H42.4431C42.5244 28.7209 42.5806 28.4006 42.5806 28.0646V24.9913L41.2344 21.2904ZM53.2258 17.4194V19.3549H40.5308L39.8272 17.4194H53.2258ZM34.1701 15.4839H37.0634L40.2308 24.1936H36.546L34.1701 15.4839ZM6.03468 24.1936H2.34989L5.51632 15.4839H8.40962L6.03468 24.1936ZM1.93548 28.0646V26.1291H5.80645V28.0646C5.80645 29.132 4.93841 30.0001 3.87097 30.0001C2.80352 30.0001 1.93548 29.132 1.93548 28.0646ZM4.83871 31.7981C5.60326 31.5996 6.27 31.1757 6.77419 30.5983C7.48441 31.411 8.51594 31.9356 9.67742 31.9356C10.8389 31.9356 11.8704 31.411 12.5806 30.5983C13.2909 31.411 14.3224 31.9356 15.4839 31.9356C16.6453 31.9356 17.6769 31.411 18.3871 30.5983C19.0973 31.411 20.1288 31.9356 21.2903 31.9356C22.4518 31.9356 23.4833 31.411 24.1935 30.5983C24.9038 31.411 25.9353 31.9356 27.0968 31.9356C28.2583 31.9356 29.2898 31.411 30 30.5983C30.7102 31.411 31.7417 31.9356 32.9032 31.9356C34.0647 31.9356 35.0962 31.411 35.8064 30.5983C36.3106 31.1757 36.9774 31.5996 37.7419 31.7981V54.1936H22.2581V39.6775H35.8064V33.871H6.77419V39.6775H20.3226V54.1936H4.83871V31.7981ZM8.70968 37.742V35.8065H33.871V37.742H8.70968ZM39.6774 58.0646H2.90323V56.1291H39.6774V58.0646ZM58.0645 54.1936H39.6774V52.2581H58.0645V54.1936ZM55.1613 50.3227H39.6774V34.8388H55.1613V50.3227Z" fill="black"/>
<path d="M21.2904 21.2903C15.4211 21.2903 10.6453 16.5145 10.6453 10.6452C10.6453 4.77586 15.4211 0 21.2904 0C27.1597 0 31.9356 4.77586 31.9356 10.6452C31.9356 16.5145 27.1597 21.2903 21.2904 21.2903Z" fill="#F0BC5E"/>
<path d="M47.4192 48.3871C50.6216 48.3871 53.2257 45.783 53.2257 42.5806C53.2257 39.3783 50.6216 36.7742 47.4192 36.7742C44.2169 36.7742 41.6128 39.3783 41.6128 42.5806C41.6128 45.783 44.2169 48.3871 47.4192 48.3871ZM43.6858 43.5484H46.4515V46.3141C45.0977 45.962 44.0378 44.9022 43.6858 43.5484ZM48.387 46.3141V43.5484H51.1527C50.8007 44.9022 49.7408 45.962 48.387 46.3141ZM51.1527 41.6129H48.387V38.8472C49.7408 39.1992 50.8007 40.2591 51.1527 41.6129ZM46.4515 38.8472V41.6129H43.6858C44.0378 40.2591 45.0977 39.1992 46.4515 38.8472Z" fill="black"/>
<path d="M16.4516 14.5161H17.8295C18.5789 16.2224 20.2791 17.4194 22.258 17.4194C24.9259 17.4194 27.0967 15.2486 27.0967 12.5807V7.74194H17.4193V8.70969H16.4516C14.8511 8.70969 13.5483 10.0125 13.5483 11.6129C13.5483 13.2134 14.8511 14.5161 16.4516 14.5161ZM19.3548 9.67743H25.1612V12.5807C25.1612 14.1811 23.8585 15.4839 22.258 15.4839C20.6576 15.4839 19.3548 14.1811 19.3548 12.5807V9.67743ZM16.4516 10.6452H17.4193V12.5807H16.4516C15.9186 12.5807 15.4838 12.1459 15.4838 11.6129C15.4838 11.0799 15.9186 10.6452 16.4516 10.6452Z" fill="black"/>
<path d="M20.3225 3.87085H22.258V5.80633H20.3225V3.87085Z" fill="black"/>
<path d="M24.1936 3.87085H26.1291V5.80633H24.1936V3.87085Z" fill="black"/>
<path d="M16.4517 3.87085H18.3871V5.80633H16.4517V3.87085Z" fill="black"/>
</g>
<defs>
<clipPath id="clip0">
<rect width="60" height="60" fill="white"/>
</clipPath>
</defs>
</svg>
