<svg width="60" height="60" viewBox="0 0 60 60" fill="none" xmlns="http://www.w3.org/2000/svg">
<path d="M12.2119 28.7831L12.2325 28.8093L12.2859 28.7156L12.2119 28.7831Z" fill="#FFDD4D"/>
<path d="M26.4909 4.54046L22.5 0.548584L21.315 1.73452C19.41 3.63858 16.8787 4.68765 14.1853 4.68765C8.43094 4.68765 3.75 9.36858 3.75 15.123C3.75 18.3095 5.17688 21.2795 7.66688 23.2717L7.84781 23.417C8.41313 23.8689 8.9175 24.3901 9.34875 24.9648L12.1875 28.7505V20.6251C11.1516 20.6251 10.3125 19.7861 10.3125 18.7501C10.3125 17.7142 11.1516 16.8751 12.1875 16.8751C12.1875 14.6945 13.7269 12.8176 15.8644 12.3901L16.2656 12.3095L16.2666 12.3086C16.6041 12.8017 17.1703 13.1251 17.8125 13.1251H21.5625V14.0626H22.5469C25.6228 14.0626 28.125 11.5605 28.125 8.48452C28.125 6.99483 27.5447 5.59421 26.4909 4.54046Z" fill="#FFDD4D"/>
<path d="M17.8125 17.8125C18.3303 17.8125 18.75 17.3928 18.75 16.875C18.75 16.3572 18.3303 15.9375 17.8125 15.9375C17.2947 15.9375 16.875 16.3572 16.875 16.875C16.875 17.3928 17.2947 17.8125 17.8125 17.8125Z" fill="#273142"/>
<path d="M50.625 18.75V16.875H39.375V18.75H30.9375V33.75H27.5766C26.91 32.6325 25.7016 31.875 24.3094 31.875H23.8716C22.8056 30.6816 21.3094 30 19.6884 30C19.1709 30 18.7509 29.5791 18.7509 29.0625V29.0559C20.8237 29.0194 22.5009 27.3281 22.5009 25.2469V21.5297C23.565 21.345 24.3759 20.4159 24.3759 19.3003C24.3759 18.705 24.1341 18.1219 23.7141 17.7L23.325 17.3109C22.8 16.7869 22.5 16.0622 22.5 15.3216V12.1875H17.8125C17.295 12.1875 16.875 11.7666 16.875 11.25C16.875 10.7334 17.295 10.3125 17.8125 10.3125H18.75V8.4375H17.8125C16.2619 8.4375 15 9.69937 15 11.25C15 11.3878 15.0216 11.5191 15.0403 11.6522C13.0631 12.3056 11.61 14.025 11.3072 16.0791C10.1859 16.4484 9.375 17.5059 9.375 18.75C9.375 19.9725 10.1587 21.015 11.25 21.4022V29.0625C11.25 29.5791 10.83 30 10.3125 30C7.89281 30 5.77125 31.5713 5.00437 33.8128C2.715 34.1203 0.9375 36.0656 0.9375 38.4375C0.9375 40.7006 2.55094 42.5944 4.6875 43.0303V43.4784C4.6875 46.6219 6.15562 49.425 8.4375 51.2522V59.0625H25.3125V45.1481L25.5637 44.7403C25.8853 44.2172 26.1684 43.6753 26.4319 43.125H30.9375V54.375H59.0625V18.75H50.625ZM36.5625 43.125H38.6297L42.1875 41.6006V46.875H51.5625V37.5H45.7181C45.4819 36.9619 45.0703 36.51 44.5078 36.2691L43.0041 35.625H51.5625V26.25H42.1875V35.2753L38.6297 33.75H36.5625V24.375H53.4375V48.75H36.5625V43.125ZM45.7181 39.375H49.6875V45H44.0625V40.7962L44.5069 40.6059C45.0694 40.3659 45.4819 39.9131 45.7181 39.375ZM43.77 38.8828L39.375 40.7663V36.1097L43.77 37.9941C43.9481 38.0691 44.0625 38.2434 44.0625 38.4375C44.0625 38.6316 43.9481 38.8059 43.77 38.8828ZM44.0625 33.75V28.125H49.6875V33.75H44.0625ZM48.75 18.75V22.5H41.25V18.75H48.75ZM32.8125 20.625H39.375V22.5H34.6875V33.75H32.8125V20.625ZM37.5 35.625V37.5H28.02C28.0828 36.9 28.125 36.2981 28.125 35.6906C28.125 35.6681 28.1184 35.6475 28.1184 35.625H37.5ZM26.25 35.6906C26.25 37.0462 26.0662 38.3859 25.7175 39.6816L22.3294 38.835L20.9503 36.7669C20.7375 36.4481 20.625 36.075 20.625 35.6906C20.625 34.62 21.4959 33.75 22.5656 33.75H24.3084C25.3791 33.75 26.25 34.6209 26.25 35.6906ZM14.2491 45.3628L12.9056 43.125H16.4869L14.2491 45.3628ZM18.3619 41.25H10.3125V39.375H20.2369L18.3619 41.25ZM18.7566 35.625C18.7566 35.6475 18.75 35.6681 18.75 35.6906C18.75 36.3281 18.9159 36.9441 19.2169 37.5H10.3125V35.625H18.7566ZM19.6875 31.875C20.1844 31.875 20.655 31.9903 21.0975 32.1703C20.3391 32.4881 19.7156 33.0497 19.2984 33.75H16.5169L17.8181 31.1484C18.3159 31.5947 18.9675 31.875 19.6875 31.875ZM18.9131 23.4375H20.625V25.1447C19.83 24.8597 19.1972 24.2278 18.9131 23.4375ZM12.1875 17.8125H13.125V16.875C13.125 15.1838 14.3072 13.7175 15.9469 13.3387C16.4447 13.7831 17.0934 14.0625 17.8125 14.0625H20.625V15.3216C20.625 16.5731 21.1134 17.7506 21.9975 18.6356L22.3856 19.0247C22.4587 19.0969 22.5 19.1972 22.5 19.2994C22.5 19.5131 22.3256 19.6875 22.1119 19.6875H20.625V21.5625H16.875V22.5C16.875 24.4331 18.0919 26.1169 19.8084 26.8228C19.4906 27.0506 19.1044 27.1875 18.6844 27.1875C18.3 27.1875 17.9269 27.075 17.6081 26.8612L15.5203 25.47L14.4806 27.03L16.5675 28.4212C16.6669 28.4869 16.7719 28.5394 16.8759 28.5956V28.8403L15.0009 32.5903L13.1259 28.8403V19.6875H12.1884C11.6709 19.6875 11.2509 19.2666 11.2509 18.75C11.2509 18.2334 11.67 17.8125 12.1875 17.8125ZM10.3125 31.875C11.0325 31.875 11.6841 31.5947 12.1819 31.1484L13.4831 33.75H7.0725C7.72969 32.6203 8.95031 31.875 10.3125 31.875ZM2.8125 38.4375C2.8125 36.8869 4.07437 35.625 5.625 35.625H8.4375V41.25H5.625C4.07437 41.25 2.8125 39.9881 2.8125 38.4375ZM6.5625 43.4784V43.125H10.7194L12.8822 46.7297L11.5247 48.0872L12.8503 49.4128L21.6628 40.6003L25.1166 41.4637C24.7959 42.255 24.4172 43.0238 23.9662 43.7569L21.5306 47.7159C20.0484 50.1244 17.475 51.5625 14.6466 51.5625C10.1888 51.5625 6.5625 47.9362 6.5625 43.4784ZM23.4375 57.1875H10.3125V52.4306C11.625 53.0691 13.0922 53.4375 14.6466 53.4375C18.1303 53.4375 21.3019 51.6656 23.1281 48.6984L23.4375 48.1959V57.1875ZM27.7228 39.375H37.5V41.25H27.1978C27.4069 40.635 27.585 40.0097 27.7228 39.375ZM57.1875 52.5H32.8125V43.125H34.6875V50.625H55.3125V22.5H50.625V20.625H57.1875V52.5Z" fill="#273142"/>
<path d="M44.3293 32.1509L48.0794 28.4008L49.4052 29.7266L45.6551 33.4767L44.3293 32.1509Z" fill="#273142"/>
<path d="M44.3284 43.4001L48.0785 39.6501L49.4043 40.9759L45.6542 44.726L44.3284 43.4001Z" fill="#273142"/>
</svg>
