<svg width="60" height="60" viewBox="0 0 60 60" fill="none" xmlns="http://www.w3.org/2000/svg">
<path d="M11.8284 58.679L9.62995 49.8871L0.814636 52.0902L8.96995 38.7815L10.5684 39.7612L4.81026 49.1596L10.9949 47.6127L12.5465 53.8209L18.8971 43.1943L20.5068 44.1562L11.8284 58.679Z" fill="#525A68"/>
<path d="M31.2965 58.679L22.6181 44.1562L24.2278 43.1943L30.5784 53.8209L32.13 47.6127L38.3147 49.1596L32.5565 39.7612L34.155 38.7815L42.3103 52.0902L33.495 49.8871L31.2965 58.679Z" fill="#525A68"/>
<path d="M21.5625 38.4375C13.7962 38.4375 7.5 32.1413 7.5 24.375C7.5 16.6087 13.7962 10.3125 21.5625 10.3125C25.6369 10.3125 29.3062 12.045 31.875 14.8144V6.51281L31.8338 6.48937C30.1247 5.50219 28.0528 5.51625 26.3653 6.44906C25.3706 4.79719 23.5669 3.75 21.5156 3.75C19.5422 3.75 17.7516 4.79719 16.7587 6.44906C15.0722 5.51344 12.9994 5.50312 11.2912 6.48937L11.2088 6.53719C9.50063 7.52344 8.47406 9.32531 8.43937 11.2519C6.51281 11.2866 4.71094 12.3131 3.72469 14.0213L3.67687 14.1037C2.69062 15.8119 2.70375 17.8856 3.63656 19.5712C1.98469 20.565 0.9375 22.3547 0.9375 24.3272V24.4219C0.9375 26.3953 1.98469 28.1859 3.63656 29.1788C2.70281 30.8644 2.69062 32.9372 3.67687 34.6463L3.72469 34.7287C4.71187 36.4369 6.51375 37.4634 8.43937 37.4981C8.47406 39.4247 9.50063 41.2266 11.2088 42.2128L11.2912 42.2606C12.9994 43.2459 15.0741 43.2337 16.7597 42.3009C17.7544 43.9528 19.5581 45 21.6094 45C23.5828 45 25.3734 43.9528 26.3663 42.3009C28.0519 43.2337 30.1247 43.2459 31.8338 42.2606L31.9162 42.2128C33.6244 41.2256 34.6509 39.4238 34.6856 37.4981C36.6131 37.4634 38.415 36.4369 39.4003 34.7287L39.4481 34.6463C40.4353 32.9381 40.4222 30.8644 39.4884 29.1788C41.1403 28.1841 42.1875 26.3869 42.1875 24.375H35.625C35.625 32.1413 29.3288 38.4375 21.5625 38.4375Z" fill="#FFC80A"/>
<path d="M51.5625 8.4375H38.4375V1.875H51.5625V8.4375Z" fill="#FFC80A"/>
<path d="M15.9375 24.375H14.0625C14.0625 20.2397 17.4272 16.875 21.5625 16.875V18.75C18.4603 18.75 15.9375 21.2728 15.9375 24.375Z" fill="#525A68"/>
<path d="M55.3125 21.5625H45.9375V16.875H55.3125V21.5625Z" fill="#FFC80A"/>
<path d="M42.1875 4.6875H44.0625V8.4375H42.1875V4.6875Z" fill="#525A68"/>
<path d="M45.9375 4.6875H47.8125V8.4375H45.9375V4.6875Z" fill="#525A68"/>
<path d="M55.3125 21.5625H53.4375V19.6875H55.3125V21.5625ZM51.5625 21.5625H49.6875V19.6875H51.5625V21.5625ZM47.8125 21.5625H45.9375V19.6875H47.8125V21.5625Z" fill="#525A68"/>
<path d="M45.9375 15.9375H55.3125V17.8125H45.9375V15.9375Z" fill="#525A68"/>
<path d="M56.25 0.9375H33.75C32.1994 0.9375 30.9375 2.19937 30.9375 3.75V12.6928C28.2919 10.575 24.9834 9.375 21.5625 9.375C13.2919 9.375 6.5625 16.1044 6.5625 24.375C6.5625 32.6456 13.2919 39.375 21.5625 39.375C29.5172 39.375 36.0272 33.1463 36.5147 25.3125H56.25C57.8006 25.3125 59.0625 24.0506 59.0625 22.5V3.75C59.0625 2.19937 57.8006 0.9375 56.25 0.9375ZM21.5625 37.5C14.325 37.5 8.4375 31.6125 8.4375 24.375C8.4375 17.1375 14.325 11.25 21.5625 11.25C25.0856 11.25 28.4775 12.6956 30.9375 15.2091V18.1697C28.9209 15.1331 25.4737 13.125 21.5625 13.125C15.3591 13.125 10.3125 18.1716 10.3125 24.375C10.3125 30.5784 15.3591 35.625 21.5625 35.625C27.5119 35.625 32.3841 30.9806 32.7741 25.1278C33.0797 25.2412 33.4059 25.3125 33.75 25.3125H34.6397C34.1559 32.1122 28.4831 37.5 21.5625 37.5ZM30.9375 24.375C30.9375 29.5444 26.7319 33.75 21.5625 33.75C16.3931 33.75 12.1875 29.5444 12.1875 24.375C12.1875 19.2056 16.3931 15 21.5625 15C26.7319 15 30.9375 19.2056 30.9375 24.375ZM57.1875 22.5C57.1875 23.0175 56.7675 23.4375 56.25 23.4375H33.75C33.2325 23.4375 32.8125 23.0175 32.8125 22.5V3.75C32.8125 3.2325 33.2325 2.8125 33.75 2.8125H56.25C56.7675 2.8125 57.1875 3.2325 57.1875 3.75V22.5Z" fill="#525A68"/>
<path d="M19.6875 31.3256L16.2122 27.8503L17.5378 26.5247L19.6875 28.6743L27.4622 20.8997L28.7878 22.2253L19.6875 31.3256Z" fill="#525A68"/>
</svg>
