<svg width="60" height="60" viewBox="0 0 60 60" fill="none" xmlns="http://www.w3.org/2000/svg">
<g clip-path="url(#clip0)">
<path d="M44.006 59.1211H15.9939C14.7125 59.1211 13.6737 58.0823 13.6737 56.8009V45.2803C13.6737 38.8432 18.8921 33.6249 25.3291 33.6249H34.671C41.108 33.6249 46.3264 38.8432 46.3264 45.2803V56.8009C46.3262 58.0822 45.2875 59.1211 44.006 59.1211Z" fill="#FFDD4D"/>
<path d="M34.6709 33.6249H31.2461C37.6832 33.6249 42.9015 38.8432 42.9015 45.2803V56.8009C42.9015 58.0823 41.8628 59.1211 40.5813 59.1211H44.006C45.2875 59.1211 46.3262 58.0823 46.3262 56.8009V45.2803C46.3262 38.8432 41.108 33.6249 34.6709 33.6249Z" fill="#FFC80A"/>
<path d="M25.4289 59.1211H34.571L30 37.4655L25.4289 59.1211Z" fill="white"/>
<path d="M30 37.4655L29.011 42.1511L32.593 59.1211H34.571L30 37.4655Z" fill="white"/>
<path d="M26.0327 43.0861L29.9921 39.1266L33.9515 43.0861L29.9921 47.0455L26.0327 43.0861Z" fill="white"/>
<path d="M30 41.7817L35.8102 27.3889H24.1897L30 41.7817Z" fill="white"/>
<path d="M30 41.7817L26.1265 32.1865L23.5713 34.2805C22.8053 34.9082 22.5457 35.9663 22.9341 36.8772L26.1824 44.496L30 41.7817Z" fill="#F6F1F1"/>
<path d="M29.9999 41.7817L33.8734 32.1865L36.4286 34.2805C37.1946 34.9082 37.4542 35.9663 37.0658 36.8772L33.8175 44.496L29.9999 41.7817Z" fill="#F6F1F1"/>
<path d="M42.7594 47.9171H36.5984C36.2478 47.9171 35.9637 47.633 35.9637 47.2824V45.6677C35.9637 45.3171 36.2478 45.033 36.5984 45.033H42.7594C43.11 45.033 43.3942 45.3171 43.3942 45.6677V47.2824C43.3942 47.6329 43.11 47.9171 42.7594 47.9171Z" fill="#F6F1F1"/>
<path d="M36.0169 4.21052L36.8663 2.67903C37.4287 1.66487 36.3786 0.5176 35.3189 0.988414L29.6887 3.48919C28.6207 3.96351 27.4652 4.20865 26.2966 4.20865H24.0649C20.2174 4.20865 17.0983 7.32764 17.0983 11.1752V22.3279H42.9014V11.1749C42.9015 7.35494 39.8265 4.25458 36.0169 4.21052Z" fill="white"/>
<path d="M36.0169 4.21052L36.8663 2.67903C37.4287 1.66487 36.3786 0.5176 35.3188 0.988414L34.3275 1.42876C34.5588 1.77572 34.6181 2.23985 34.3744 2.67915L34.3692 2.6884C33.9874 3.37693 34.3737 4.22693 35.1376 4.41781C38.1661 5.17441 40.4097 7.91223 40.4097 11.1752V22.3279H42.9016V11.1749C42.9016 7.35494 39.8265 4.25458 36.0169 4.21052Z" fill="white"/>
<path d="M30 35.4218C24.2198 35.4218 19.5341 30.7361 19.5341 24.9559V15.4274C26.5113 20.0902 33.4886 20.0902 40.4659 15.4274V24.9559C40.4659 30.7361 35.7802 35.4218 30 35.4218Z" fill="#F1D0A5"/>
<path d="M38.0912 16.8336C31.9055 20.0295 25.7198 19.5611 19.5341 15.4274V17.4188C25.057 21.1097 30.58 21.8785 36.103 19.7261C37.0587 19.3537 38.0912 20.0462 38.0912 21.0719V24.9559C38.0912 30.3345 34.0337 34.7647 28.8127 35.3543C29.2024 35.3984 29.5984 35.4218 30 35.4218C35.7802 35.4218 40.4659 30.7361 40.4659 24.9559V15.4274C39.6737 15.9568 38.8654 16.4336 38.0912 16.8336Z" fill="#F1B986"/>
<path d="M19.5341 25.4246H18.6664C17.352 25.4246 16.2867 24.3592 16.2867 23.0449V22.5512C16.2867 21.2369 17.3521 20.1715 18.6664 20.1715H19.5341V25.4246Z" fill="#E2A770"/>
<path d="M40.4659 26.3819H41.913C43.6075 26.3819 44.9811 25.0082 44.9811 23.3137V22.2824C44.9811 20.5879 43.6075 19.2142 41.913 19.2142H40.4659V26.3819Z" fill="#FFDD4D"/>
<path d="M41.913 19.2142H40.4659V19.2484C41.9432 19.4694 43.0762 20.7435 43.0762 22.2824V23.3137C43.0762 24.8526 41.9432 26.1267 40.4659 26.3478V26.3819H41.913C43.6075 26.3819 44.9811 25.0082 44.9811 23.3137V22.2824C44.9811 20.5879 43.6075 19.2142 41.913 19.2142Z" fill="#FFC80A"/>
<path d="M38.6874 31.0379H35.631C34.9746 31.0379 34.4425 30.5058 34.4425 29.8494V29.4672C34.4425 28.8108 34.9746 28.2787 35.631 28.2787H38.6874C39.3439 28.2787 39.8759 28.8108 39.8759 29.4672V29.8494C39.8759 30.5057 39.3439 31.0379 38.6874 31.0379Z" fill="white"/>
<path d="M35.0848 45.6676V47.2822C35.0848 48.1167 35.7639 48.7958 36.5984 48.7958H42.7594C43.5939 48.7958 44.273 48.1167 44.273 47.2822V45.6676C44.273 44.8331 43.5939 44.1541 42.7594 44.1541H36.5984C35.7639 44.1541 35.0848 44.8331 35.0848 45.6676ZM36.8425 45.9117H42.5153V47.0381H36.8425V45.9117Z" fill="#525A68"/>
<path d="M34.7629 22.7858C34.2774 22.7858 33.884 23.1791 33.884 23.6646V24.7273C33.884 25.2127 34.2774 25.6061 34.7629 25.6061C35.2483 25.6061 35.6417 25.2127 35.6417 24.7273V23.6646C35.6417 23.1791 35.2483 22.7858 34.7629 22.7858Z" fill="#525A68"/>
<path d="M24.3583 23.6646V24.7273C24.3583 25.2127 24.7517 25.6061 25.2371 25.6061C25.7226 25.6061 26.1159 25.2127 26.1159 24.7273V23.6646C26.1159 23.1791 25.7226 22.7858 25.2371 22.7858C24.7517 22.7858 24.3583 23.1791 24.3583 23.6646Z" fill="#525A68"/>
<path d="M31.4466 28.2464C30.4463 29.0057 29.554 29.0059 28.5532 28.2464C28.1663 27.9531 27.6153 28.0287 27.3218 28.4151C27.0284 28.8018 27.1041 29.3531 27.4905 29.6465C28.3115 30.2693 29.1557 30.5809 30 30.5809C30.8441 30.5809 31.6883 30.2695 32.5092 29.6465C32.8959 29.353 32.9713 28.8018 32.6779 28.4151C32.3845 28.0285 31.8333 27.9529 31.4466 28.2464Z" fill="#525A68"/>
<path d="M43.922 36.8235C42.2744 35.0222 40.1613 33.7591 37.8379 33.154C38.2452 32.7655 38.6253 32.3449 38.9743 31.8943C39.732 31.7884 40.358 31.2715 40.6205 30.5757H41.9559C42.8638 30.5757 43.6024 29.8372 43.6024 28.9293V26.8799C44.9358 26.2457 45.8601 24.8857 45.8601 23.3135V22.2821C45.8601 20.7809 45.0175 19.4728 43.7805 18.8058V11.1749C43.7805 7.37852 41.0377 4.17879 37.4298 3.47492L37.6349 3.10511C38.0775 2.30702 37.9654 1.35649 37.3493 0.683313C36.7333 0.0102539 35.7962 -0.18543 34.9624 0.185081L29.3317 2.68562C27.2451 3.61272 25.7344 3.24537 24.0649 3.32938C22.807 3.32938 21.5537 3.63638 20.4406 4.21711C20.0104 4.44162 19.8435 4.97243 20.068 5.40281C20.2925 5.8332 20.8232 5.99983 21.2537 5.77543C22.1292 5.31868 23.0749 5.08702 24.0648 5.08702C25.6604 4.99797 27.5232 5.41231 30.0451 4.29199L35.6755 1.79133C35.8641 1.7072 35.9926 1.80445 36.0525 1.86996C36.1124 1.93546 36.1978 2.07197 36.0977 2.25254L35.2483 3.78403C35.0982 4.0547 35.1015 4.38432 35.257 4.65183C35.4123 4.91935 35.6972 5.08538 36.0065 5.0889C39.3238 5.12745 42.0226 7.85754 42.0226 11.1748V18.338C41.986 18.3369 41.9497 18.3352 41.9129 18.3352H41.3445V15.4273C41.3445 15.103 41.1659 14.8051 40.8799 14.6523C40.5941 14.4993 40.247 14.5165 39.9774 14.6968C39.2172 15.2048 38.4437 15.6626 37.6786 16.0574C37.2472 16.28 37.0781 16.8101 37.3006 17.2413C37.5233 17.6728 38.0535 17.8416 38.4846 17.6194C38.8512 17.4301 39.2194 17.2276 39.5867 17.0132V24.9558C39.5867 25.8166 39.4714 26.6611 39.2485 27.4793C39.0696 27.4288 38.8819 27.3998 38.6872 27.3998H35.6308C34.4908 27.3998 33.5633 28.3271 33.5633 29.4671V29.8495C33.5633 30.9895 34.4908 31.9168 35.6308 31.9168H36.5883C34.8226 33.5842 32.4656 34.5431 29.9996 34.5431C24.7134 34.5431 20.4126 30.2424 20.4126 24.956C20.4126 22.3027 20.4126 19.663 20.4126 17.0136C25.2626 19.8416 30.1791 20.5212 35.0478 19.0314C35.5119 18.8894 35.773 18.3981 35.6311 17.934C35.4892 17.4698 34.9982 17.2087 34.5336 17.3507C32.1381 18.0837 29.7104 18.2357 27.319 17.8024C24.9072 17.3656 22.4522 16.3207 20.0222 14.6969C19.7525 14.5167 19.4056 14.4994 19.1197 14.6525C18.8338 14.8053 18.6551 15.1032 18.6551 15.4275V19.2929C18.4226 19.2937 18.1959 19.3192 17.9771 19.3666V11.1749C17.9771 9.98534 18.3215 8.83185 18.9732 7.83937C19.2396 7.43371 19.1267 6.88884 18.721 6.62238C18.3155 6.35616 17.7706 6.46888 17.504 6.87466C16.6637 8.15446 16.2195 9.64131 16.2195 11.1748V20.4024C15.7147 20.9765 15.4076 21.7284 15.4076 22.5511V23.0447C15.4076 24.8415 16.8695 26.3034 18.6662 26.3034H18.7355C19.0541 28.9829 20.3096 31.379 22.165 33.1533C19.8404 33.758 17.7261 35.0215 16.0777 36.8236C13.9606 39.138 12.7946 42.1414 12.7946 45.2803V56.8009C12.7946 58.565 14.2296 60.0001 15.9937 60.0001H18.7435C19.2289 60.0001 19.6223 59.6067 19.6223 59.1212C19.6223 58.6358 19.2289 58.2424 18.7435 58.2424H15.9937C15.1989 58.2424 14.5522 57.5957 14.5522 56.8009V45.2803C14.5522 42.5816 15.5545 39.9996 17.3746 38.0099C18.657 36.608 20.267 35.5853 22.0415 35.0177C21.806 35.7232 21.8212 36.5087 22.1253 37.222L25.3735 44.8409C25.4779 45.0855 25.6874 45.2699 25.9433 45.342C26.4363 45.4808 26.75 45.1589 26.8258 45.1166L27.3714 45.6622L24.7164 58.2423H22.2575C21.772 58.2423 21.3786 58.6357 21.3786 59.1211C21.3786 59.6066 21.772 59.9999 22.2575 59.9999H44.0059C45.77 59.9999 47.2051 58.5649 47.2051 56.8008V45.2802C47.2052 42.1413 46.0392 39.1379 43.922 36.8235ZM17.1653 23.0447V22.5511C17.1653 21.7271 17.8327 21.056 18.6552 21.05V24.5456C17.8328 24.5398 17.1653 23.8688 17.1653 23.0447ZM33.4375 43.1475L31.0746 41.4675L33.3683 35.7859C34.1664 35.5369 34.9338 35.2 35.6568 34.784L35.8718 34.9601C36.3326 35.3379 36.4913 35.9844 36.2577 36.5325L33.4375 43.1475ZM40.6668 28.8182C40.8515 28.3086 40.9987 27.7888 41.1079 27.2606H41.8447V28.8182H40.6668ZM41.9132 20.0929C43.1203 20.0929 44.1025 21.0751 44.1025 22.2824V23.3138C44.1025 24.5209 43.1203 25.5031 41.9132 25.5031H41.3447V24.956V20.0931H41.9132V20.0929ZM35.3213 29.8495V29.4671C35.3213 29.2964 35.4603 29.1575 35.6311 29.1575H38.6875C38.8583 29.1575 38.9972 29.2964 38.9972 29.4671V29.8495C38.9972 30.0202 38.8583 30.1592 38.6875 30.1592H35.6311C35.4602 30.1591 35.3213 30.0202 35.3213 29.8495ZM31.2954 36.2252L30 39.4338L28.7051 36.2262C29.1302 36.2747 29.5621 36.3005 29.9999 36.3005C30.4353 36.3006 30.8677 36.2747 31.2954 36.2252ZM23.7424 36.5326C23.5088 35.9845 23.6674 35.338 24.1283 34.9602L24.3412 34.7858C25.0596 35.2009 25.8275 35.5398 26.6337 35.7909L28.9255 41.4675L26.5626 43.1475L23.7424 36.5326ZM30 42.86L31.7209 44.0836L30 45.8047L28.279 44.0836L30 42.86ZM26.5127 58.2423L28.8549 47.1454C29.2583 47.4877 29.4522 47.9262 30 47.9262C30.5477 47.9262 30.7418 47.4875 31.1451 47.1453L33.4874 58.2423H26.5127ZM45.4475 56.8009C45.4475 57.5957 44.8008 58.2424 44.006 58.2424H35.2836L32.6282 45.6622L33.1738 45.1166C33.2373 45.1467 33.5559 45.4829 34.0564 45.342C34.3124 45.2699 34.5219 45.0855 34.6262 44.8409L37.8744 37.222C38.1785 36.5087 38.1938 35.7231 37.9582 35.0177C39.7326 35.5853 41.3427 36.608 42.6251 38.0099C44.4452 39.9995 45.4475 42.5816 45.4475 45.2803V56.8009Z" fill="#525A68"/>
</g>
<defs>
<clipPath id="clip0">
<rect width="60" height="60" fill="white"/>
</clipPath>
</defs>
</svg>
