<svg width="60" height="60" viewBox="0 0 60 60" fill="none" xmlns="http://www.w3.org/2000/svg">
<path d="M26.25 32.8125C27.0281 32.8125 27.7313 33.1313 28.2375 33.6375C28.7438 34.1438 29.0625 34.8469 29.0625 35.625C29.0625 37.1813 27.8062 38.4375 26.25 38.4375H20.625C19.8469 38.4375 19.1437 38.1187 18.6375 37.6125C18.1312 37.1062 17.8125 36.4031 17.8125 35.625C17.8125 34.8656 18.1125 34.1813 18.5906 33.6844C19.1062 33.15 19.8281 32.8125 20.625 32.8125H26.25Z" fill="#FFC80A"/>
<path d="M17.8125 53.5875C18.9563 54.0938 20.2313 54.375 21.5625 54.375H26.25H29.0625V55.3125C29.0625 56.8688 27.8062 58.125 26.25 58.125H23.4375H20.625C19.0688 58.125 17.8125 56.8688 17.8125 55.3125V53.5969V53.5875Z" fill="#E6E9ED"/>
<path d="M20.625 38.4375H26.25C27.8062 38.4375 29.0625 37.1812 29.0625 35.625V46.875H28.9031C28.4062 46.875 27.9281 47.0719 27.5719 47.4281L26.25 48.75H22.5C20.8312 48.75 19.2188 48.3094 17.8125 47.4937V44.1469V35.625C17.8125 36.4031 18.1312 37.1062 18.6375 37.6125C19.1437 38.1187 19.8469 38.4375 20.625 38.4375Z" fill="white"/>
<path d="M18.1782 32.4093L18.5907 33.6843C18.1125 34.1812 17.8125 34.8656 17.8125 35.6249V44.1468L13.7438 38.0624L7.02191 27.9937C7.87504 28.9312 9.80629 29.3249 11.8782 28.8843C14.3625 28.3593 16.1344 26.8125 15.9188 25.3875L18.1782 32.4093Z" fill="white"/>
<path d="M15.9188 25.3876C16.1344 26.8126 14.3625 28.3595 11.8781 28.8845C9.80626 29.3251 7.87501 28.9314 7.02188 27.9939L6.71251 27.5345C6.66563 27.4407 6.63751 27.3376 6.60939 27.2345C6.26251 25.7814 8.06251 24.1595 10.6219 23.6157C12.9656 23.1189 15.1406 23.6907 15.7594 24.9001L15.7688 24.9282L15.9188 25.3876Z" fill="white"/>
<path d="M39.3375 11.2501H30.9375V2.0532V2.04382C32.8875 2.40007 34.6406 3.30945 36.0375 4.59382C37.875 6.28132 39.0937 8.62507 39.3375 11.2501Z" fill="white"/>
<path d="M27.1875 2.0532V11.2501H18.7875C19.2094 6.61882 22.6875 2.86882 27.1875 2.04382V2.0532Z" fill="white"/>
<path d="M30.9375 2.05313V11.25H27.1875V2.05313V2.04375C27.7969 1.93125 28.425 1.875 29.0625 1.875C29.7 1.875 30.3281 1.93125 30.9375 2.04375V2.05313Z" fill="white"/>
<path d="M18.7875 11.25H27.1875H30.9375H39.3375H40.3125C40.8281 11.25 41.25 11.6719 41.25 12.1875V14.0625C41.25 14.5781 40.8281 15 40.3125 15H39.375H35.625H22.5H18.75H17.8125C17.2969 15 16.875 14.5781 16.875 14.0625V12.1875C16.875 11.6719 17.2969 11.25 17.8125 11.25H18.7875Z" fill="white"/>
<path d="M39.375 15V20.625C39.375 19.8469 39.0562 19.1437 38.55 18.6375C38.0437 18.1312 37.3406 17.8125 36.5625 17.8125H35.625V15H39.375Z" fill="white"/>
<path d="M21.5625 17.8125C20.0063 17.8125 18.75 19.0687 18.75 20.625V15H22.5V17.8125H21.5625Z" fill="white"/>
<path d="M46.3969 40.1813L47.8125 28.125H53.4375V42.375C53.4375 44.1375 52.725 45.7312 51.5719 46.8844C50.4188 48.0375 48.825 48.75 47.0625 48.75C44.6532 48.75 42.4407 47.3906 41.3625 45.225L40.3125 43.125V58.125H32.8125V54.375C33.8438 54.375 34.6875 53.5312 34.6875 52.5V50.625C34.6875 49.5938 33.8438 48.75 32.8125 48.75V30L32.3531 29.6344L32.8125 29.0625C35.7563 29.6531 38.4657 30.9281 40.7532 32.7469C43.0407 34.5563 44.9063 36.9 46.1438 39.6375L46.3969 40.1813Z" fill="#FFC80A"/>
<path d="M28.2375 33.6375C27.7312 33.1313 27.0281 32.8125 26.25 32.8125H20.625C19.8281 32.8125 19.1062 33.15 18.5906 33.6844L18.1781 32.4094C20.1187 30.825 22.4437 29.6812 25.0219 29.1281L25.3125 29.0625L29.0625 33.75V35.625C29.0625 34.8469 28.7437 34.1438 28.2375 33.6375Z" fill="#FFC80A"/>
<path d="M13.7437 38.0625L17.8125 44.1469V47.4938C19.2188 48.3094 20.8313 48.75 22.5 48.75H26.25V54.375H21.5625C20.2312 54.375 18.9563 54.0938 17.8125 53.5875C14.5031 52.1438 12.1875 48.8438 12.1875 45C12.1875 42.5344 12.7406 40.1719 13.7437 38.0625Z" fill="#FFC80A"/>
<path d="M32.8125 54.375V58.125H26.25C27.8062 58.125 29.0625 56.8687 29.0625 55.3125V54.375H32.8125Z" fill="#75B1F2"/>
<path d="M32.8125 30V48.75H31.875C31.875 47.7188 31.0312 46.875 30 46.875H29.0625V35.625V33.75L32.3531 29.6344L32.8125 30Z" fill="white"/>
<path d="M34.6875 50.625V52.5C34.6875 53.5312 33.8438 54.375 32.8125 54.375H29.0625H26.25V48.75L27.5719 47.4281C27.9281 47.0719 28.4062 46.875 28.9031 46.875H29.0625H30C31.0312 46.875 31.875 47.7188 31.875 48.75H32.8125C33.8438 48.75 34.6875 49.5938 34.6875 50.625Z" fill="#F0D0B4"/>
<path d="M53.4375 21.5625V28.125H47.8125L46.4906 26.8031C46.1344 26.4469 45.9375 25.9688 45.9375 25.4719V24.375C45.9375 23.8594 46.1438 23.3906 46.4906 23.0531C46.8281 22.7063 47.2969 22.5 47.8125 22.5V21.5625C47.8125 20.5312 48.6562 19.6875 49.6875 19.6875H51.5625C52.5938 19.6875 53.4375 20.5312 53.4375 21.5625Z" fill="white"/>
<path d="M38.55 18.6375C39.0563 19.1437 39.375 19.8469 39.375 20.625C39.375 22.1813 38.1188 23.4375 36.5625 23.4375H35.5032C35.5875 23.1375 35.625 22.8281 35.625 22.5V17.8125H36.5625C37.3407 17.8125 38.0438 18.1312 38.55 18.6375Z" fill="white"/>
<path d="M31.875 26.25L32.8125 29.0625L32.3531 29.6344L29.0625 33.75L25.3125 29.0625L26.25 26.25H31.875Z" fill="white"/>
<path d="M22.6219 23.4375C22.5375 23.1375 22.5 22.8281 22.5 22.5V17.8125V15H35.625V17.8125V22.5C35.625 22.8281 35.5875 23.1375 35.5031 23.4375C35.0906 25.0594 33.6187 26.25 31.875 26.25H26.25C24.5062 26.25 23.0344 25.0594 22.6219 23.4375Z" fill="white"/>
<path d="M22.6219 23.4375H21.5625C20.7844 23.4375 20.0812 23.1188 19.575 22.6125C19.0687 22.1063 18.75 21.4031 18.75 20.625C18.75 19.0688 20.0062 17.8125 21.5625 17.8125H22.5V22.5C22.5 22.8281 22.5375 23.1375 22.6219 23.4375Z" fill="white"/>
<path d="M51.5625 18.75H49.6875C48.1369 18.75 46.875 20.0119 46.875 21.5625V21.7228C45.7838 22.11 45 23.1525 45 24.375V25.4728C45 26.2237 45.2935 26.9306 45.8241 27.4622L46.8281 28.4662L45.8175 37.0566C43.0763 32.6316 38.6513 29.4328 33.5325 28.2581L33.1135 27C34.4813 26.6222 35.6035 25.6556 36.165 24.375H36.5625C38.6306 24.375 40.3125 22.6931 40.3125 20.625V15.9375C41.3466 15.9375 42.1875 15.0966 42.1875 14.0625V12.1875C42.1875 11.1534 41.3466 10.3125 40.3125 10.3125H40.1494C39.2531 4.9125 34.6341 0.9375 29.0625 0.9375C23.491 0.9375 18.8719 4.9125 17.9756 10.3125H17.8125C16.7785 10.3125 15.9375 11.1534 15.9375 12.1875V14.0625C15.9375 15.0966 16.7785 15.9375 17.8125 15.9375V20.625C17.8125 22.6931 19.4944 24.375 21.5625 24.375H21.96C22.5225 25.6556 23.6447 26.6231 25.0116 27L24.5916 28.2591C22.4719 28.7447 20.4516 29.6428 18.6656 30.8747L16.8188 25.14C16.8131 25.1091 16.8141 25.0781 16.8075 25.0472C16.3369 23.0719 13.5422 22.0387 10.4297 22.6987C8.49752 23.1084 6.88315 24.0825 6.11065 25.3022C5.66909 25.9997 5.52471 26.7422 5.69346 27.4509C5.79002 27.8578 5.98971 28.2225 6.26627 28.5422L12.69 38.1637C11.7478 40.3294 11.25 42.6216 11.25 45C11.25 48.9975 13.5413 52.4634 16.875 54.1744V55.3125C16.875 57.3806 18.5569 59.0625 20.625 59.0625H23.4375H26.25H41.25V46.7878C42.615 48.5963 44.7356 49.6875 47.0635 49.6875C51.0947 49.6875 54.375 46.4072 54.375 42.3769V21.5625C54.375 20.0119 53.1131 18.75 51.5625 18.75ZM46.875 24.375C46.875 23.8584 47.295 23.4375 47.8125 23.4375H48.75V21.5625C48.75 21.0459 49.17 20.625 49.6875 20.625H51.5625C52.08 20.625 52.5 21.0459 52.5 21.5625V27.1875H48.2006L47.1497 26.1366C46.9725 25.9594 46.875 25.7231 46.875 25.4728V24.375ZM31.875 55.3125V57.1875H29.4788C29.8013 56.6334 30 55.9987 30 55.3125H31.875ZM32.8125 53.4375H27.1875V49.1381L28.2385 48.0872C28.4138 47.9128 28.6547 47.8125 28.9013 47.8125H30C30.5175 47.8125 30.9375 48.2334 30.9375 48.75V49.6875H32.8125C33.33 49.6875 33.75 50.1084 33.75 50.625V52.5C33.75 53.0166 33.33 53.4375 32.8125 53.4375ZM31.1991 27.1875L31.7616 28.875L29.0625 32.2491L26.3625 28.8741L26.925 27.1866H31.1991V27.1875ZM26.3719 31.8872C26.3306 31.8862 26.2913 31.875 26.25 31.875H20.625C20.6156 31.875 20.6072 31.8778 20.5978 31.8778C21.9497 31.0734 23.4197 30.4725 24.9544 30.1153L26.3719 31.8872ZM20.625 33.75H23.0035C22.6828 34.3022 22.5 34.9425 22.5 35.625V36.5625H24.375V35.625C24.375 34.5909 25.216 33.75 26.25 33.75C27.2841 33.75 28.125 34.5909 28.125 35.625C28.125 36.6591 27.2841 37.5 26.25 37.5H20.625C19.591 37.5 18.75 36.6591 18.75 35.625C18.75 34.5909 19.591 33.75 20.625 33.75ZM18.75 38.8538C19.3041 39.1763 19.9388 39.375 20.625 39.375H26.25C26.9363 39.375 27.571 39.1763 28.125 38.8538V46.0594C27.6731 46.1897 27.2541 46.4194 26.9128 46.7616L25.8619 47.8125H22.5C21.1875 47.8125 19.9041 47.4994 18.75 46.9266V38.8538ZM31.875 46.6641C31.3763 46.2159 30.7219 45.9375 30 45.9375V35.625C30 35.1825 29.9091 34.7634 29.7675 34.3688L31.875 31.7353V46.6641ZM36.5625 22.5V18.75C37.5966 18.75 38.4375 19.5909 38.4375 20.625C38.4375 21.6591 37.5966 22.5 36.5625 22.5ZM38.4375 17.3962C37.8835 17.0737 37.2488 16.875 36.5625 16.875V15.9375H38.4375V17.3962ZM38.2463 10.3125H31.875V3.24187C35.0953 4.23937 37.5656 6.91125 38.2463 10.3125ZM30 2.85938V10.3125H28.125V2.85938C28.4335 2.82937 28.7456 2.8125 29.0625 2.8125C29.3794 2.8125 29.6916 2.82937 30 2.85938ZM26.25 3.24187V10.3125H19.8788C20.5594 6.91125 23.0297 4.23937 26.25 3.24187ZM17.8116 12.1875H40.3125V14.0625H17.8125L17.8116 12.1875ZM21.5625 15.9375V16.875C20.8763 16.875 20.2416 17.0737 19.6875 17.3962V15.9375H21.5625ZM19.6875 20.625C19.6875 19.5909 20.5285 18.75 21.5625 18.75V22.5C20.5285 22.5 19.6875 21.6591 19.6875 20.625ZM23.4375 22.5V15.9375H34.6875V22.5C34.6875 24.0506 33.4256 25.3125 31.875 25.3125H26.25C24.6994 25.3125 23.4375 24.0506 23.4375 22.5ZM7.69409 26.3062C8.18721 25.5281 9.41346 24.8325 10.8197 24.5334C11.355 24.42 11.8556 24.3703 12.3113 24.3703C13.6378 24.3703 14.5828 24.7903 14.8903 25.2703L14.9822 25.5553C15.0047 25.7475 14.955 25.9594 14.806 26.1947C14.3128 26.9728 13.0866 27.6684 11.6803 27.9675C9.74534 28.3772 8.28377 27.9506 7.74096 27.3778L7.55721 27.1022C7.54596 27.0741 7.52346 27.0478 7.51596 27.0197C7.46721 26.8097 7.52721 26.5706 7.69409 26.3062ZM10.2235 29.9991C10.8141 29.9991 11.4356 29.9353 12.0703 29.8003C13.5769 29.4806 14.8847 28.8159 15.7566 27.9609L17.5406 33.5006C17.1225 34.1053 16.875 34.8356 16.875 35.625V41.0569L9.46502 29.9587C9.71159 29.9831 9.96377 29.9991 10.2235 29.9991ZM13.125 45C13.125 43.2947 13.4016 41.6353 13.9463 40.0481L16.875 44.4347V45.645C16.4663 45.2794 16.0838 44.8819 15.75 44.4375L14.25 45.5625C16.1869 48.1453 19.2713 49.6875 22.5 49.6875H25.3125V53.4375H21.5625C16.9097 53.4375 13.125 49.6519 13.125 45ZM23.4375 57.1875H20.625C19.591 57.1875 18.75 56.3466 18.75 55.3125V54.9131C19.6453 55.1672 20.5866 55.3125 21.5625 55.3125H28.125C28.125 56.3466 27.2841 57.1875 26.25 57.1875H23.4375ZM47.0635 47.8125C44.9916 47.8125 43.1288 46.6612 42.2016 44.8078L41.25 42.9038V39.375H39.375V57.1875H33.75V55.14C34.8385 54.7519 35.625 53.7206 35.625 52.5V50.625C35.625 49.4044 34.8385 48.3731 33.75 47.985V30.2475C38.8341 31.6162 43.0969 35.205 45.2906 40.0303L45.4322 40.3406L45.0075 43.9538L46.8694 44.1722L48.646 29.0625H52.5V42.3769C52.5 45.3741 50.0606 47.8125 47.0635 47.8125Z" fill="#525A68"/>
</svg>
