<svg width="60" height="60" viewBox="0 0 60 60" fill="none" xmlns="http://www.w3.org/2000/svg">
<g clip-path="url(#clip0)">
<path d="M49.8565 25.4587H43.2342C42.1687 25.4587 41.3048 24.5948 41.3048 23.5293C41.3048 22.4638 42.1687 21.5999 43.2342 21.5999H49.8565C50.76 21.5999 51.495 20.8649 51.495 19.9614V10.34C51.495 9.43643 50.76 8.7015 49.8565 8.7015H44.608C43.5425 8.7015 42.6786 7.83758 42.6786 6.77207C42.6786 5.70656 43.5425 4.84265 44.608 4.84265H49.8565C52.8877 4.84265 55.3538 7.30869 55.3538 10.34V19.9614C55.3538 22.9925 52.8877 25.4587 49.8565 25.4587Z" fill="#FFDD4D"/>
<path d="M10.1437 25.4587H16.7659C17.8315 25.4587 18.6954 24.5948 18.6954 23.5293C18.6954 22.4638 17.8315 21.5999 16.7659 21.5999H10.1437C9.24014 21.5999 8.50521 20.8649 8.50521 19.9614V10.34C8.50521 9.43643 9.24014 8.7015 10.1437 8.7015H15.3922C16.4577 8.7015 17.3216 7.83758 17.3216 6.77207C17.3216 5.70656 16.4577 4.84265 15.3922 4.84265H10.1437C7.11252 4.84265 4.64636 7.30869 4.64636 10.34V19.9614C4.64648 22.9925 7.11263 25.4587 10.1437 25.4587Z" fill="#FFDD4D"/>
<path d="M17.7219 54.2114H42.2782V59.1227H17.7219V54.2114Z" fill="white"/>
<path d="M17.7219 54.2117H21.23V59.1229H17.7219V54.2117Z" fill="white"/>
<path d="M38.7702 54.2114H21.23L22.3993 42.5179H37.6008L38.7702 54.2114Z" fill="white"/>
<path d="M25.9074 42.5183L24.738 54.2118H21.23L22.3993 42.5183H25.9074Z" fill="white"/>
<path d="M32.9234 34.0254V42.5183H27.0767V34.0254C28.0215 34.2195 28.9991 34.3201 30 34.3201C31.001 34.3201 31.9786 34.2194 32.9234 34.0254Z" fill="#FFDD4D"/>
<path d="M30.0001 34.3204C22.1677 34.3204 15.7385 28.1248 15.4485 20.2978L14.7986 0.877075H45.2016L44.5516 20.2978C44.2617 28.1248 37.8324 34.3204 30.0001 34.3204Z" fill="#FFC80A"/>
<path d="M32.3388 34.1318C31.5775 34.2557 30.7964 34.32 30.0001 34.32C22.1678 34.32 15.7387 28.1248 15.4487 20.2972L14.7986 0.876709H19.476L20.1261 20.2972C20.3869 27.3298 25.6022 33.0443 32.3388 34.1318Z" fill="#FFDD4D"/>
<path d="M31.2288 23.4329C35.4339 22.7513 38.2902 18.7897 37.6086 14.5846C36.9269 10.3795 32.9654 7.52324 28.7603 8.20492C24.5552 8.8866 21.6989 12.8481 22.3805 17.0532C23.0622 21.2583 27.0237 24.1146 31.2288 23.4329Z" fill="#FFDD4D"/>
<path d="M31.7541 23.3282C31.1905 23.4592 30.6035 23.5293 30.0001 23.5293C25.746 23.5293 22.2859 20.0692 22.2859 15.8151C22.2859 11.561 25.746 8.10095 30.0001 8.10095C30.6035 8.10095 31.1905 8.17111 31.7541 8.30208C28.3419 9.09841 25.7939 12.1644 25.7939 15.8151C25.7939 19.4658 28.3419 22.5319 31.7541 23.3282Z" fill="#FFC80A"/>
<path d="M49.8566 3.96619H45.9757L46.0781 0.906361C46.0422 0.356417 45.75 0.0542577 45.2016 0H14.7986C14.2501 0.0542577 13.9579 0.356417 13.922 0.906361L14.0245 3.96619H10.1434C6.62857 3.96619 3.76917 6.82559 3.76917 10.3403V12.2183C3.76917 12.7027 4.16171 13.0953 4.64618 13.0953C5.13064 13.0953 5.52319 12.7027 5.52319 12.2183V10.3403C5.52319 7.79276 7.59585 5.72021 10.1434 5.72021H14.083L14.1534 7.82503H10.1434C8.75643 7.82503 7.62801 8.95334 7.62801 10.3403V19.9616C7.62801 21.3485 8.75631 22.4769 10.1434 22.4769H14.8014C14.9284 23.1933 15.1054 23.8963 15.33 24.5818H10.1434C7.59585 24.5818 5.52319 22.5091 5.52319 19.9616V16.0397C5.52319 15.5552 5.13064 15.1627 4.64618 15.1627C4.16171 15.1627 3.76917 15.5552 3.76917 16.0397V19.9616C3.76917 23.4764 6.62857 26.3358 10.1434 26.3358H16.0268C17.9553 30.4307 21.8086 33.6165 26.1996 34.7259V41.6413H22.3992C21.9485 41.6413 21.5714 41.9827 21.5265 42.431L20.4361 53.3347H17.7217C17.2372 53.3347 16.8447 53.7273 16.8447 54.2117V59.123C16.8447 59.6074 17.2372 60 17.7217 60H42.278C42.7624 60 43.155 59.6074 43.155 59.123V54.2117C43.155 53.7273 42.7624 53.3347 42.278 53.3347H39.5637L38.4733 42.4309C38.4284 41.9826 38.0511 41.6413 37.6006 41.6413H33.8002V34.7259C38.1862 33.6178 42.0448 30.4301 43.9728 26.3358H49.8565C53.3713 26.3358 56.2307 23.4764 56.2307 19.9616V10.3403C56.2309 6.82559 53.3714 3.96619 49.8566 3.96619ZM10.1434 20.7229C9.7236 20.7229 9.38203 20.3814 9.38203 19.9616V10.3403C9.38203 9.9205 9.7236 9.57905 10.1434 9.57905H14.2122C14.2122 9.57905 14.5836 20.5923 14.5917 20.7229H10.1434ZM37.8009 53.3347H34.8341C34.3497 53.3347 33.9571 53.7273 33.9571 54.2117C33.9571 54.6962 34.3497 55.0887 34.8341 55.0887H41.4012V58.246H18.5989V55.0887H31.0127C31.4972 55.0887 31.8897 54.6962 31.8897 54.2117C31.8897 53.7273 31.4972 53.3347 31.0127 53.3347H22.199L23.1929 43.3953H36.8072L37.8009 53.3347ZM32.0464 41.6413H27.9537V35.0619C29.318 35.2425 30.6821 35.2425 32.0464 35.0619V41.6413ZM32.8164 33.1555C31.8927 33.3512 30.9539 33.4471 30.0001 33.4433C22.7356 33.4433 16.5928 27.4985 16.3251 20.2684L15.7054 1.75402H44.2947L43.6751 20.2654C43.4465 26.4387 38.9059 31.8946 32.8164 33.1555ZM54.4768 19.9616C54.4768 22.5091 52.4042 24.5818 49.8566 24.5818H44.6699C44.8945 23.8963 45.0714 23.1934 45.1985 22.4769H49.8566C51.2436 22.4769 52.372 21.3486 52.372 19.9616V17.0874C52.372 16.603 51.9795 16.2104 51.495 16.2104C51.0105 16.2104 50.618 16.603 50.618 17.0874V19.9616C50.618 20.3814 50.2764 20.7229 49.8566 20.7229H45.4082C45.4164 20.5913 45.7878 9.57905 45.7878 9.57905H49.8566C50.2764 9.57905 50.618 9.9205 50.618 10.3403V13.2648C50.618 13.7493 51.0105 14.1418 51.495 14.1418C51.9795 14.1418 52.372 13.7493 52.372 13.2648V10.3403C52.372 8.95345 51.2437 7.82503 49.8566 7.82503H45.8466L45.917 5.72021H49.8566C52.4042 5.72021 54.4768 7.79276 54.4768 10.3403V19.9616Z" fill="#525A68"/>
<path d="M25.615 48.3647C25.615 48.8491 26.0075 49.2417 26.492 49.2417H33.5081C33.9925 49.2417 34.3851 48.8491 34.3851 48.3647C34.3851 47.8802 33.9925 47.4877 33.5081 47.4877H26.492C26.0075 47.4877 25.615 47.8803 25.615 48.3647Z" fill="#525A68"/>
<path d="M30.0001 7.22363C25.2627 7.22363 21.4087 11.0777 21.4087 15.8149C21.4087 20.5523 25.2627 24.4064 30.0001 24.4064C34.7375 24.4064 38.5916 20.5523 38.5916 15.8149C38.5914 11.0777 34.7374 7.22363 30.0001 7.22363ZM30.0001 22.6523C26.23 22.6523 23.1627 19.5852 23.1627 15.8149C23.1627 12.0447 26.2299 8.97765 30.0001 8.97765C33.7703 8.97765 36.8375 12.0447 36.8375 15.8149C36.8375 19.5852 33.7702 22.6523 30.0001 22.6523Z" fill="#525A68"/>
<path d="M31.4402 17.3707H30.8772V13.3754C30.8772 12.891 30.4846 12.4984 30.0002 12.4984H28.4431C27.9586 12.4984 27.566 12.891 27.566 13.3754C27.566 13.8599 27.9586 14.2524 28.4431 14.2524H29.1231V17.3707H28.56C28.0755 17.3707 27.683 17.7633 27.683 18.2477C27.683 18.7322 28.0755 19.1247 28.56 19.1247H31.4403C31.9248 19.1247 32.3173 18.7322 32.3173 18.2477C32.3173 17.7633 31.9247 17.3707 31.4402 17.3707Z" fill="#525A68"/>
</g>
<defs>
<clipPath id="clip0">
<rect width="60" height="60" fill="white"/>
</clipPath>
</defs>
</svg>
