<svg width="40" height="40" viewBox="0 0 40 40" fill="none" xmlns="http://www.w3.org/2000/svg">
<path d="M28.0168 7.9751H3.96663C3.59772 7.9751 3.29858 8.27424 3.29858 8.64314V22.6724H5.30272C6.04062 22.6724 6.63882 23.2705 6.63882 24.0085C6.63882 24.7463 6.04054 25.3446 5.30272 25.3446H3.29858V27.3487C3.29858 27.7176 3.59772 28.0167 3.96663 28.0167H28.6848V8.64314C28.6848 8.27424 28.3857 7.9751 28.0168 7.9751Z" fill="#FFC80A"/>
<path d="M36.7015 18.6641H28.6848V28.0169H39.3737V21.3363C39.3737 19.8605 38.1773 18.6641 36.7015 18.6641Z" fill="#FFDC64"/>
<path d="M28.6848 20.668H35.9222C36.6601 20.668 37.2583 21.2661 37.2583 22.0041V28.0166H28.6848V20.668Z" fill="#FFC850"/>
<path d="M34.0293 10.647H28.6848V13.3192H36.0335V12.6512C36.0335 11.5442 35.1361 10.647 34.0293 10.647Z" fill="#FFDC64"/>
<path d="M36.7014 21.3359H39.3737V24.0082H38.0376C37.2996 24.0082 36.7015 23.4101 36.7015 22.6721V21.3359H36.7014Z" fill="#F1F4FB"/>
<path d="M37.2581 25.0322V28.0168H38.6594C38.516 26.8692 38.0092 25.8349 37.2581 25.0322Z" fill="#FFC850"/>
<path d="M33.3611 32.0249C35.2059 32.0249 36.7014 30.5294 36.7014 28.6846C36.7014 26.8397 35.2059 25.3442 33.3611 25.3442C31.5163 25.3442 30.0208 26.8397 30.0208 28.6846C30.0208 30.5294 31.5163 32.0249 33.3611 32.0249Z" fill="#D4D6D9"/>
<path d="M11.3153 23.3403C9.62835 23.3403 8.12632 24.1238 7.14694 25.3445H5.3028H3.29858V27.3486C3.29858 27.7175 3.59772 28.0167 3.96663 28.0167H28.6848V25.3444H15.4837C14.5043 24.1238 13.0023 23.3403 11.3153 23.3403Z" fill="#FFDD4D"/>
<path d="M11.3152 32.0249C13.16 32.0249 14.6555 30.5294 14.6555 28.6846C14.6555 26.8397 13.16 25.3442 11.3152 25.3442C9.47036 25.3442 7.97485 26.8397 7.97485 28.6846C7.97485 30.5294 9.47036 32.0249 11.3152 32.0249Z" fill="#D4D6D9"/>
<path d="M37.1998 18.0753L36.164 13.9319C36.4472 13.8718 36.6597 13.6205 36.6597 13.3195V12.6514C36.6597 11.201 35.4796 10.021 34.0292 10.021H29.3111V8.64301C29.3111 7.92926 28.7305 7.34863 28.0167 7.34863H3.96656C3.25281 7.34863 2.67219 7.92926 2.67219 8.64301V20C2.67219 20.3459 2.95258 20.6264 3.29852 20.6264C3.64445 20.6264 3.92484 20.346 3.92484 20V8.64301C3.92484 8.61996 3.94352 8.60129 3.96656 8.60129H28.0166C28.0397 8.60129 28.0584 8.61996 28.0584 8.64301V20.0002C28.0584 20.3461 28.3388 20.6265 28.6847 20.6265C29.0305 20.6265 29.311 20.3461 29.311 20.0002V19.2902H36.6992C36.6998 19.2902 36.7003 19.2904 36.7009 19.2904C36.7014 19.2904 36.702 19.2903 36.7026 19.2903C37.6117 19.2908 38.3837 19.8876 38.6488 20.7099H36.7013C36.3555 20.7099 36.075 20.9903 36.075 21.3362V22.6723C36.075 23.7544 36.9553 24.6347 38.0374 24.6347H38.7473V27.3904H37.1096C36.5716 25.8371 35.095 24.7182 33.361 24.7182C31.627 24.7182 30.1503 25.8371 29.6124 27.3904H29.3109V22.6723C29.3109 22.3264 29.0305 22.046 28.6845 22.046C28.3387 22.046 28.0582 22.3264 28.0582 22.6723V27.3904H15.0638C14.5259 25.837 13.0492 24.7181 11.3152 24.7181C9.58125 24.7181 8.10453 25.837 7.56664 27.3904H3.96656C3.94352 27.3904 3.92484 27.3717 3.92484 27.3486V25.9707H6.63883C6.98469 25.9707 7.26516 25.6904 7.26516 25.3444C7.26516 24.9986 6.98477 24.7181 6.63883 24.7181H0.626328C0.280469 24.7181 0 24.9985 0 25.3444C0 25.6903 0.280391 25.9707 0.626328 25.9707H2.67227V27.3486C2.67227 28.0624 3.25289 28.643 3.96664 28.643H7.34977C7.34961 28.6569 7.34867 28.6707 7.34867 28.6847C7.34867 30.8719 9.12813 32.6513 11.3152 32.6513C13.5023 32.6513 15.2818 30.8719 15.2818 28.6847C15.2818 28.6707 15.2809 28.6569 15.2807 28.643H29.3955C29.3954 28.6569 29.3945 28.6707 29.3945 28.6847C29.3945 30.8719 31.1739 32.6513 33.361 32.6513C35.5481 32.6513 37.3276 30.8719 37.3276 28.6847C37.3276 28.6707 37.3266 28.6569 37.3265 28.643H39.3736C39.7195 28.643 39.9999 28.3626 39.9999 28.0167V21.3361C40 19.6868 38.783 18.3163 37.1998 18.0753ZM29.3111 13.9457H34.8763L35.8993 18.0376H29.3111V13.9457ZM34.0292 11.2736C34.789 11.2736 35.4071 11.8917 35.4071 12.6514V12.6932H29.3111V11.2736H34.0292ZM11.3152 31.3988C9.81875 31.3988 8.60125 30.1814 8.60125 28.6848C8.60125 27.1882 9.81875 25.9708 11.3152 25.9708C12.8117 25.9708 14.0292 27.1882 14.0292 28.6848C14.0292 30.1814 12.8117 31.3988 11.3152 31.3988ZM33.3612 31.3988C31.8647 31.3988 30.6472 30.1814 30.6472 28.6848C30.6472 27.1882 31.8647 25.9708 33.3612 25.9708C34.8577 25.9708 36.0752 27.1882 36.0752 28.6848C36.0752 30.1814 34.8577 31.3988 33.3612 31.3988ZM38.0376 23.3821C37.6462 23.3821 37.3277 23.0636 37.3277 22.6722V21.9624H38.7473V23.382H38.0376V23.3821Z" fill="#525A68"/>
<path d="M11.3151 27.3906C10.6014 27.3906 10.0208 27.9713 10.0208 28.685C10.0208 29.3988 10.6014 29.9794 11.3151 29.9794C12.0289 29.9794 12.6095 29.3988 12.6095 28.685C12.6095 27.9713 12.0289 27.3906 11.3151 27.3906Z" fill="#525A68"/>
<path d="M33.3613 27.3906C32.6475 27.3906 32.0669 27.9713 32.0669 28.685C32.0669 29.3988 32.6475 29.9794 33.3613 29.9794C34.075 29.9794 34.6557 29.3988 34.6557 28.685C34.6557 27.9713 34.075 27.3906 33.3613 27.3906Z" fill="#525A68"/>
<path d="M16.0334 25.3446C16.0334 25.6905 16.3138 25.9709 16.6598 25.9709H26.0125C26.3584 25.9709 26.6388 25.6905 26.6388 25.3446C26.6388 24.9987 26.3584 24.7183 26.0125 24.7183H16.6597C16.3138 24.7183 16.0334 24.9987 16.0334 25.3446Z" fill="#525A68"/>
<path d="M1.96251 23.2986H9.97922C10.3251 23.2986 10.6056 23.0182 10.6056 22.6722C10.6056 22.3264 10.3252 22.0459 9.97922 22.0459H1.96251C1.61665 22.0459 1.33618 22.3263 1.33618 22.6722C1.33618 23.0182 1.61665 23.2986 1.96251 23.2986Z" fill="#525A68"/>
<path d="M20.8932 13.5447L15.3235 19.1143L12.4261 16.2169C12.1815 15.9723 11.7849 15.9723 11.5404 16.2169C11.2958 16.4615 11.2958 16.858 11.5404 17.1026L14.8807 20.4429C15.003 20.5653 15.1633 20.6264 15.3235 20.6264C15.4838 20.6264 15.6441 20.5653 15.7663 20.4429L21.7788 14.4304C22.0234 14.1858 22.0234 13.7893 21.7788 13.5447C21.5344 13.3002 21.1377 13.3002 20.8932 13.5447Z" fill="#525A68"/>
</svg>
