<svg width="30" height="30" viewBox="0 0 30 30" fill="none" xmlns="http://www.w3.org/2000/svg">
<path d="M19.2893 18.4614L11.5384 26.2124V27.6922C11.5384 28.6481 10.7635 29.4229 9.80762 29.4229H29.423V18.4614H19.2893Z" fill="#FFEEB4"/>
<path d="M15.9617 21.7893V29.423H22.6924V18.4614H19.2895L15.9617 21.7893Z" fill="#FFC80A"/>
<path d="M29.4231 18.4614H22.6921V29.423H29.4231V18.4614Z" fill="#DEAC00"/>
<path d="M11.5386 26.2125L28.0084 9.74266L20.2574 1.9917L11.5386 10.7106V26.2125Z" fill="#FFEEB4"/>
<path d="M15.498 6.75098L11.5386 10.7105V12.3102L18.4897 19.2614L23.2491 14.502L15.498 6.75098Z" fill="#FFC80A"/>
<path d="M15.4977 6.75113L23.2485 14.502L28.008 9.74254L20.2571 1.99171L15.4977 6.75113Z" fill="#DEAC00"/>
<path d="M9.80765 29.4233H2.30765C1.35175 29.4233 0.576904 28.6485 0.576904 27.6926V0.577148H11.5384V27.6925C11.5384 28.6484 10.7635 29.4233 9.80765 29.4233Z" fill="#FFF3E0"/>
<path d="M11.5961 0.577148H0.634521V7.30811H11.5961V0.577148Z" fill="#DEAC00"/>
<path d="M11.5384 7.30811H0.576904V14.0391H11.5384V7.30811Z" fill="#FFC80A"/>
<path d="M11.5384 14.0381H0.576904V20.769H11.5384V14.0381Z" fill="#FFEEB4"/>
<path d="M5.76932 23.6538C4.81494 23.6538 4.03857 24.4302 4.03857 25.3846C4.03857 26.3389 4.815 27.1153 5.76932 27.1153C6.72364 27.1153 7.50006 26.3389 7.50006 25.3846C7.50006 24.4303 6.72364 23.6538 5.76932 23.6538ZM5.76932 25.9615C5.45121 25.9615 5.1924 25.7027 5.1924 25.3846C5.1924 25.0665 5.45121 24.8077 5.76932 24.8077C6.08742 24.8077 6.34623 25.0665 6.34623 25.3846C6.34623 25.7027 6.08742 25.9615 5.76932 25.9615Z" fill="#525A68"/>
<path d="M29.4231 17.8846H22.6923H20.6822L28.4162 10.1506C28.4299 10.1369 28.4429 10.1225 28.4551 10.1075C28.4617 10.0995 28.4674 10.091 28.4734 10.0828C28.4785 10.0758 28.4839 10.0692 28.4887 10.062C28.4969 10.0497 28.5042 10.037 28.5113 10.0242C28.5133 10.0206 28.5156 10.0173 28.5175 10.0137C28.5247 10.0003 28.5309 9.98654 28.5369 9.97272C28.5384 9.96938 28.5401 9.96615 28.5415 9.96275C28.547 9.94957 28.5514 9.93609 28.5559 9.92268C28.5574 9.91822 28.5592 9.91395 28.5605 9.90955C28.5642 9.89736 28.5669 9.88506 28.5698 9.8727C28.5713 9.86666 28.5731 9.86068 28.5742 9.85465C28.5763 9.84375 28.5776 9.83273 28.5792 9.82178C28.5802 9.8141 28.5817 9.80648 28.5824 9.79875C28.5835 9.78814 28.5836 9.77742 28.584 9.76676C28.5844 9.75879 28.5853 9.75088 28.5853 9.74285C28.5853 9.73482 28.5844 9.72691 28.584 9.71894C28.5836 9.70828 28.5834 9.69762 28.5824 9.68695C28.5817 9.67922 28.5802 9.6716 28.5792 9.66393C28.5776 9.65297 28.5764 9.64195 28.5742 9.63105C28.573 9.62496 28.5713 9.61904 28.5698 9.61301C28.567 9.60064 28.5643 9.58834 28.5605 9.57615C28.5592 9.5717 28.5574 9.56742 28.5559 9.56303C28.5514 9.54955 28.5469 9.53607 28.5415 9.52289C28.5401 9.51955 28.5384 9.51639 28.537 9.51305C28.5309 9.49916 28.5247 9.48533 28.5175 9.47186C28.5156 9.46828 28.5133 9.46488 28.5113 9.46137C28.5042 9.44859 28.4969 9.43594 28.4887 9.42357C28.4839 9.41643 28.4785 9.40975 28.4734 9.40277C28.4674 9.39451 28.4617 9.38607 28.4551 9.37811C28.4429 9.36316 28.43 9.34875 28.4162 9.33498L20.6653 1.58373C20.6515 1.57002 20.6371 1.55701 20.6221 1.54482C20.6141 1.53832 20.6057 1.53258 20.5975 1.52654C20.5905 1.52145 20.5838 1.516 20.5767 1.51125C20.5644 1.50305 20.5516 1.49578 20.5389 1.48863C20.5353 1.48664 20.532 1.4843 20.5284 1.48242C20.5149 1.47527 20.5011 1.469 20.4872 1.46297C20.4839 1.4615 20.4807 1.4598 20.4773 1.4584C20.4642 1.45295 20.4507 1.44844 20.4372 1.44404C20.4328 1.44258 20.4285 1.44082 20.4241 1.43941C20.412 1.43572 20.3996 1.43303 20.3873 1.4301C20.3813 1.42869 20.3753 1.42687 20.3692 1.42564C20.3583 1.42354 20.3473 1.42225 20.3364 1.42072C20.3287 1.41967 20.3211 1.4182 20.3133 1.41738C20.3027 1.41633 20.292 1.41621 20.2813 1.4158C20.2734 1.41545 20.2655 1.41457 20.2574 1.41457C20.2494 1.41457 20.2415 1.41545 20.2335 1.4158C20.2229 1.41627 20.2122 1.41639 20.2015 1.41738C20.1938 1.41814 20.1862 1.41961 20.1785 1.42072C20.1676 1.42225 20.1565 1.42348 20.1456 1.42564C20.1396 1.42687 20.1336 1.42863 20.1276 1.4301C20.1152 1.43291 20.1029 1.43572 20.0907 1.43941C20.0863 1.44076 20.082 1.44258 20.0776 1.44404C20.0641 1.4485 20.0507 1.45301 20.0375 1.4584C20.0341 1.4598 20.0309 1.46156 20.0276 1.46303C20.0138 1.469 20 1.47527 19.9866 1.48242C19.983 1.4843 19.9796 1.48664 19.9761 1.48863C19.9633 1.49578 19.9506 1.50305 19.9383 1.51125C19.9311 1.516 19.9245 1.52145 19.9175 1.52654C19.9092 1.53258 19.9008 1.53826 19.8928 1.54482C19.8779 1.55701 19.8635 1.56996 19.8497 1.58373L13.8536 7.57969L12.1154 9.31775V7.30775V0.576914C12.1154 0.258281 11.8571 0 11.5385 0H0.576914C0.258281 0 0 0.258281 0 0.576914V7.3077V14.0385V20.7692V27.6923C0 28.9648 1.03523 30 2.30771 30H9.80771H15.9616H22.6924H29.4231C29.7417 30 30 29.7417 30 29.4231V18.4615C30 18.1429 29.7417 17.8846 29.4231 17.8846ZM16.3138 6.75111L20.2573 2.80764L27.1924 9.74273L23.249 13.6862L16.3138 6.75111ZM15.4979 7.56697L22.433 14.5021L20.2939 16.6413L18.8819 18.0533C18.8818 18.0534 18.8816 18.0535 18.8814 18.0537L18.4895 18.4455L12.1154 12.0714V10.9495L14.5051 8.55973L15.4979 7.56697ZM10.9615 10.7105V12.3103V13.4615H1.15383V7.88455H10.9615V10.7105ZM1.15383 19.0385H3.46154C3.78018 19.0385 4.03846 18.7802 4.03846 18.4615C4.03846 18.1429 3.78018 17.8846 3.46154 17.8846H1.15383V14.6154H10.9615V20.1923H1.15383V19.0385ZM12.1154 20.7693V14.0384V13.7031L17.6736 19.2613L12.1154 24.8197V20.7693ZM1.15383 1.15383H10.9615V6.73078H1.15383V1.15383ZM1.15383 27.6923V21.3462H10.9615V26.2125V27.6923C10.9615 28.3285 10.4439 28.8461 9.80771 28.8461H2.30771C1.67145 28.8462 1.15383 28.3286 1.15383 27.6923ZM11.8164 28.8261C11.8328 28.7973 11.8484 28.7681 11.8635 28.7385C11.869 28.7278 11.8747 28.7171 11.8801 28.7063C11.8997 28.6665 11.9183 28.626 11.9356 28.5849C11.9381 28.5789 11.9404 28.5727 11.9428 28.5666C11.9574 28.5311 11.9711 28.4953 11.9839 28.459C11.9885 28.446 11.9928 28.4329 11.9971 28.4198C12.0077 28.3881 12.0175 28.3562 12.0267 28.324C12.0302 28.3116 12.0339 28.2994 12.0373 28.287C12.049 28.2432 12.0597 28.199 12.0688 28.1542C12.0697 28.1504 12.0702 28.1464 12.0709 28.1426C12.079 28.1016 12.0859 28.0602 12.0918 28.0185C12.0938 28.0046 12.0954 27.9906 12.0971 27.9767C12.1013 27.9431 12.1047 27.9091 12.1074 27.8751C12.1085 27.8613 12.1097 27.8474 12.1106 27.8335C12.1134 27.7867 12.1153 27.7398 12.1153 27.6924V26.4516L15.3846 23.1824V28.8462H11.8056C11.8095 28.8396 11.8127 28.8327 11.8164 28.8261ZM16.5385 22.0284L18.8975 19.6694H18.8976L19.5285 19.0385H22.1154V28.8462H16.5385V22.0284ZM28.8462 28.8462H23.2692V19.0385H26.5385V21.9231C26.5385 22.2417 26.7967 22.5 27.1154 22.5C27.434 22.5 27.6923 22.2417 27.6923 21.9231V19.0385H28.8461V28.8462H28.8462Z" fill="#525A68"/>
<path d="M5.51255 17.982C5.48138 17.9612 5.44792 17.9433 5.41276 17.9289C5.37814 17.9145 5.34181 17.9035 5.30489 17.896C5.23048 17.881 5.15431 17.881 5.07989 17.896C5.04298 17.9035 5.00665 17.9145 4.97202 17.9289C4.93681 17.9433 4.90335 17.9612 4.87224 17.982C4.84048 18.0027 4.81106 18.027 4.78452 18.0535C4.75798 18.0801 4.73378 18.1095 4.71298 18.1412C4.69224 18.1724 4.67431 18.2059 4.65989 18.241C4.64548 18.2756 4.63452 18.312 4.62702 18.3489C4.61952 18.3858 4.61548 18.4239 4.61548 18.4614C4.61548 18.4989 4.61952 18.537 4.62702 18.5739C4.63452 18.6108 4.64548 18.6471 4.65989 18.6818C4.67431 18.717 4.69218 18.7504 4.71298 18.7815C4.73372 18.8133 4.75798 18.8427 4.78452 18.8693C4.89181 18.9765 5.04069 19.0383 5.19239 19.0383C5.22989 19.0383 5.26798 19.0348 5.30489 19.0273C5.34181 19.0198 5.37814 19.0083 5.41276 18.9939C5.44798 18.9795 5.48144 18.9616 5.51255 18.9408C5.54431 18.9201 5.57372 18.8958 5.60026 18.8693C5.62681 18.8427 5.65101 18.8133 5.67181 18.7815C5.69255 18.7504 5.71048 18.7169 5.72489 18.6818C5.73931 18.6471 5.75085 18.6108 5.75835 18.5739C5.76585 18.537 5.76931 18.4989 5.76931 18.4614C5.76931 18.3096 5.70755 18.1608 5.60026 18.0535C5.57372 18.027 5.54431 18.0027 5.51255 17.982Z" fill="#525A68"/>
<path d="M27.648 23.4334C27.6336 23.3982 27.6157 23.3647 27.5949 23.3336C27.5742 23.3019 27.5499 23.2724 27.5234 23.2459C27.4968 23.2194 27.4674 23.1952 27.4356 23.1744C27.4045 23.1536 27.371 23.1357 27.3359 23.1213C27.3012 23.1069 27.2649 23.0953 27.228 23.0884C27.1536 23.0734 27.0774 23.0734 27.003 23.0884C26.9661 23.0953 26.9297 23.1069 26.8951 23.1213C26.8599 23.1357 26.8264 23.1536 26.7953 23.1744C26.7636 23.1951 26.7342 23.2194 26.7076 23.2459C26.6811 23.2724 26.6569 23.3019 26.6361 23.3336C26.6153 23.3648 26.5974 23.3982 26.583 23.4334C26.5686 23.468 26.557 23.5044 26.5501 23.5413C26.5426 23.5782 26.5386 23.6163 26.5386 23.6538C26.5386 23.8055 26.6003 23.9544 26.7076 24.0616C26.8149 24.1689 26.9638 24.2307 27.1155 24.2307C27.153 24.2307 27.1911 24.2272 27.228 24.2197C27.2649 24.2122 27.3012 24.2007 27.3359 24.1863C27.3711 24.1719 27.4045 24.154 27.4356 24.1332C27.4674 24.1124 27.4968 24.0882 27.5234 24.0616C27.6306 23.9544 27.6924 23.8055 27.6924 23.6538C27.6924 23.6163 27.6884 23.5782 27.6809 23.5413C27.6739 23.5044 27.6624 23.468 27.648 23.4334Z" fill="#525A68"/>
</svg>
