<svg width="40" height="40" viewBox="0 0 40 40" fill="none" xmlns="http://www.w3.org/2000/svg">
<g clip-path="url(#clip0)">
<path d="M20 4.32324C11.3429 4.32324 4.32495 11.3411 4.32495 19.9982C4.32495 28.6553 11.3429 35.6733 20 35.6733C28.6571 35.6733 35.675 28.6553 35.675 19.9982C35.675 11.3411 28.6571 4.32324 20 4.32324ZM20 32.4076C13.1466 32.4076 7.59058 26.8516 7.59058 19.9982C7.59058 13.1449 13.1466 7.58887 20 7.58887C26.8533 7.58887 32.4093 13.1449 32.4093 19.9982C32.4093 26.8516 26.8533 32.4076 20 32.4076Z" fill="#FFDD4D"/>
<path d="M20.0001 3.0167C28.6677 3.0167 35.9226 9.50554 36.8742 18.1103L37.0238 19.4616L40.0001 16.4855L39.0766 15.5619L37.9799 16.6577C36.3993 8.04908 28.8897 1.71045 20.0001 1.71045C19.5482 1.71045 19.0921 1.72671 18.646 1.75924L18.7413 3.0623C19.1563 3.03169 19.5794 3.0167 20.0001 3.0167Z" fill="#525A68"/>
<path d="M20 36.9794C11.3324 36.9794 4.07757 30.4899 3.12594 21.8857L2.97638 20.5342L0 23.5106L0.92356 24.4341L2.01997 23.338C3.6008 31.947 11.1105 38.2856 20 38.2856C20.4532 38.2856 20.9099 38.2693 21.3545 38.2359L21.2578 36.9334C20.8452 36.9644 20.422 36.9794 20 36.9794Z" fill="#525A68"/>
<path d="M20 6.93555C12.7974 6.93555 6.9375 12.7955 6.9375 19.9981C6.9375 27.2006 12.7974 33.0606 20 33.0606C27.2025 33.0606 33.0625 27.2006 33.0625 19.9981C33.0625 12.7955 27.2025 6.93555 20 6.93555ZM20.6531 31.7208V28.4887H19.3469V31.7208C13.3865 31.3911 8.60699 26.6116 8.27692 20.6512H11.5094V19.3449H8.27692C8.60699 13.3845 13.3865 8.60503 19.3469 8.27496V11.5074H20.6531V8.27496C26.6135 8.60503 31.393 13.3845 31.7228 19.3449H28.4906V20.6512H31.7228C31.393 26.6116 26.6135 31.3911 20.6531 31.7208Z" fill="#525A68"/>
<path d="M20.6533 18.1587V12.8135H19.347V18.1587C18.5887 18.4291 18.0408 19.1473 18.0408 19.9979C18.0408 21.078 18.9197 21.9572 20.0001 21.9572C20.8504 21.9572 21.5689 21.4093 21.8393 20.651H24.572V19.3447H21.8393C21.6422 18.7914 21.2066 18.3558 20.6533 18.1587ZM20.0001 20.651C19.6395 20.651 19.347 20.3576 19.347 19.9979C19.347 19.6378 19.6395 19.3447 20.0001 19.3447C20.3605 19.3447 20.6533 19.6378 20.6533 19.9979C20.6533 20.3576 20.3605 20.651 20.0001 20.651Z" fill="#525A68"/>
<path d="M15.791 2.1897L17.0714 1.93457L17.3266 3.21563L16.0461 3.47043L15.791 2.1897Z" fill="#525A68"/>
<path d="M12.3984 3.35227L13.6055 2.85254L14.1049 4.05961L12.8982 4.55902L12.3984 3.35227Z" fill="#525A68"/>
<path d="M9.29712 5.15489L10.3833 4.42969L11.1088 5.51589L10.0223 6.24141L9.29712 5.15489Z" fill="#525A68"/>
<path d="M6.60693 7.52903L7.53049 6.60547L8.45405 7.52903L7.53049 8.45259L6.60693 7.52903Z" fill="#525A68"/>
<path d="M4.43066 10.3813L5.1565 9.29541L6.24239 10.0212L5.51687 11.1071L4.43066 10.3813Z" fill="#525A68"/>
<path d="M2.85425 13.6027L3.3543 12.396L4.56105 12.896L4.061 14.1028L2.85425 13.6027Z" fill="#525A68"/>
<path d="M1.93677 17.0706L2.19158 15.7896L3.47263 16.044L3.21814 17.3254L1.93677 17.0706Z" fill="#525A68"/>
<path d="M22.6726 36.7778L23.953 36.5229L24.2081 37.804L22.9277 38.0588L22.6726 36.7778Z" fill="#525A68"/>
<path d="M25.8958 35.9364L27.1028 35.437L27.6022 36.6441L26.3955 37.1435L25.8958 35.9364Z" fill="#525A68"/>
<path d="M28.8931 34.4802L29.9802 33.7544L30.7054 34.8409L29.6186 35.5667L28.8931 34.4802Z" fill="#525A68"/>
<path d="M31.5454 32.4675L32.469 31.5439L33.3925 32.4675L32.469 33.391L31.5454 32.4675Z" fill="#525A68"/>
<path d="M33.7588 29.9765L34.4846 28.8896L35.5708 29.6152L34.8453 30.702L33.7588 29.9765Z" fill="#525A68"/>
<path d="M35.439 27.1003L35.9384 25.8936L37.1454 26.393L36.6457 27.6L35.439 27.1003Z" fill="#525A68"/>
<path d="M36.5269 23.9538L36.782 22.6733L38.0631 22.9285L37.8079 24.2089L36.5269 23.9538Z" fill="#525A68"/>
</g>
<defs>
<clipPath id="clip0">
<rect width="40" height="40" fill="white"/>
</clipPath>
</defs>
</svg>
