<svg width="40" height="40" viewBox="0 0 40 40" fill="none" xmlns="http://www.w3.org/2000/svg">
<g clip-path="url(#clip0)">
<path d="M21.6363 0.585938V5.45292L21.5808 5.52637C21.0987 5.30916 20.5635 5.18805 20.0001 5.18805C19.4368 5.18805 18.9016 5.30916 18.4195 5.52637L18.364 5.45292V0.585938H21.6363Z" fill="white"/>
<path d="M20.0002 28.813C19.3157 28.813 18.7607 28.2581 18.7607 27.5736V26.3957C18.7607 25.7112 19.3157 25.1562 20.0002 25.1562C20.6847 25.1562 21.2396 25.7112 21.2396 26.3957V27.5736C21.2396 28.258 20.6847 28.813 20.0002 28.813Z" fill="#FFC80A"/>
<path d="M12.0016 36.5825C11.1765 36.3776 10.6736 35.5427 10.8785 34.7176L16.9666 10.1932C17.1715 9.36814 18.0064 8.86527 18.8315 9.07014C19.6566 9.275 20.1595 10.1099 19.9547 10.935L13.8665 35.4594C13.6617 36.2845 12.8268 36.7873 12.0016 36.5825Z" fill="white"/>
<path d="M27.9985 36.5824C28.8236 36.3775 29.3265 35.5426 29.1216 34.7175L23.0335 10.1932C22.8286 9.36814 21.9937 8.86527 21.1686 9.07014C20.3435 9.275 19.8406 10.1099 20.0455 10.935L26.1336 35.4594C26.3385 36.2844 27.1734 36.7873 27.9985 36.5824Z" fill="white"/>
<path d="M20.0002 12.8852C22.1257 12.8852 23.8488 11.1621 23.8488 9.03657C23.8488 6.91106 22.1257 5.18799 20.0002 5.18799C17.8747 5.18799 16.1516 6.91106 16.1516 9.03657C16.1516 11.1621 17.8747 12.8852 20.0002 12.8852Z" fill="#FFC80A"/>
<path d="M20.7814 12.8053C20.529 12.8577 20.2672 12.885 20 12.885C17.8748 12.885 16.1511 11.1621 16.1511 9.03611C16.1511 6.91085 17.8748 5.18799 20 5.18799C20.2672 5.18799 20.529 5.21534 20.7814 5.26769C19.0304 5.62788 17.7138 7.17885 17.7138 9.03611C17.7138 10.8941 19.0304 12.4451 20.7814 12.8053Z" fill="#FFC80A"/>
<path d="M20 10.4405C20.7753 10.4405 21.4039 9.81197 21.4039 9.03665C21.4039 8.26133 20.7753 7.63281 20 7.63281C19.2247 7.63281 18.5962 8.26133 18.5962 9.03665C18.5962 9.81197 19.2247 10.4405 20 10.4405Z" fill="#E0F9FF"/>
<path d="M20 10.4405C20.7753 10.4405 21.4039 9.81197 21.4039 9.03665C21.4039 8.26133 20.7753 7.63281 20 7.63281C19.2247 7.63281 18.5962 8.26133 18.5962 9.03665C18.5962 9.81197 19.2247 10.4405 20 10.4405Z" fill="white"/>
<path d="M20.0001 11.0262C18.9029 11.0262 18.0103 10.1335 18.0103 9.03624C18.0103 7.93907 18.9029 7.04639 20.0001 7.04639C21.0973 7.04639 21.99 7.93907 21.99 9.03624C21.99 10.1335 21.0973 11.0262 20.0001 11.0262ZM20.0001 8.21848C19.5492 8.21848 19.1823 8.58532 19.1823 9.03631C19.1823 9.48731 19.5491 9.85422 20.0001 9.85422C20.4511 9.85422 20.8179 9.48731 20.8179 9.03631C20.8179 8.58532 20.451 8.21848 20.0001 8.21848Z" fill="#525A68"/>
<path d="M28.6884 36.9296C29.4883 36.4684 29.9235 35.5169 29.6902 34.5769L27.9511 27.5709H29.1614C29.485 27.5709 29.7474 27.3086 29.7474 26.9849C29.7474 26.6611 29.485 26.3988 29.1614 26.3988H27.6601L23.8823 11.1802C24.0623 10.8555 24.2012 10.5094 24.2945 10.1474C24.3754 9.83398 24.1869 9.51434 23.8735 9.43355C23.56 9.35268 23.2405 9.54114 23.1596 9.85453C22.7936 11.2733 21.4661 12.2989 20 12.2989C18.2009 12.2989 16.7371 10.8352 16.7371 9.036C16.7371 7.23727 18.2008 5.77389 20 5.77389C21.2781 5.77389 22.445 6.52586 22.973 7.68967C23.1067 7.98447 23.4543 8.11503 23.7488 7.98119C24.0436 7.84742 24.1741 7.50019 24.0404 7.20539C23.6515 6.34818 23.0072 5.65599 22.2224 5.20117V0.586007C22.2224 0.262297 21.96 0 21.6364 0H18.3637C18.04 0 17.7777 0.262297 17.7777 0.586007V5.20132C16.4561 5.96993 15.5651 7.40049 15.5651 9.03608C15.5651 9.81258 15.7663 10.5427 16.1184 11.1781L14.4487 17.9038C14.3707 18.2179 14.5621 18.5357 14.8762 18.6137C15.172 18.6839 15.4086 18.5414 15.5861 18.1861L17.039 12.3341C17.5286 12.7743 18.1167 13.1063 18.7654 13.2947L13.2977 35.3184C13.1048 35.8693 12.7197 36.101 12.1425 36.0134C11.6327 35.8869 11.3209 35.3691 11.4474 34.8592L14.9704 20.6661C15.0484 20.352 14.857 20.0341 14.5428 19.9561C14.2287 19.8783 13.9109 20.0696 13.8329 20.3838L12.3398 26.3988H10.8387C10.5151 26.3988 10.2527 26.6611 10.2527 26.9849C10.2527 27.3086 10.5151 27.5709 10.8387 27.5709H12.0489L10.3098 34.5769C10.0766 35.517 10.5119 36.4686 11.3117 36.9296L10.73 39.2727C10.652 39.5868 10.8435 39.9046 11.1576 39.9826C11.4534 40.0528 11.69 39.9103 11.8675 39.555L12.4491 37.2122C13.3649 37.1805 14.2162 36.4831 14.4351 35.6005L16.4286 27.5709H18.161V27.5736C18.161 28.5802 18.9799 29.3991 19.9865 29.3991C20.993 29.3991 21.812 28.5802 21.812 27.5736V27.5709H23.571L24.5396 31.4727C24.7171 31.828 24.9537 31.9705 25.2495 31.9003C25.5636 31.8223 25.755 31.5045 25.677 31.1904L21.2346 13.295C21.8777 13.1095 22.4673 12.7824 22.9619 12.3379L28.5525 34.859C28.679 35.369 28.3672 35.8869 27.8569 36.0135C27.2799 36.1007 26.895 35.869 26.7022 35.3181L26.2927 33.6695C26.2148 33.3554 25.8967 33.1641 25.5828 33.2419C25.2687 33.32 25.0773 33.6378 25.1553 33.9519L25.5648 35.6004C25.7837 36.4829 26.635 37.1807 27.5508 37.2122L28.1324 39.555C28.3099 39.9103 28.5466 40.0528 28.8423 39.9826C29.1564 39.9046 29.3479 39.5868 29.2699 39.2727L28.6884 36.9296ZM18.9497 1.17201H21.0505V4.72924C20.3503 4.55961 19.6501 4.55945 18.9497 4.72861V1.17201ZM19.9866 28.2273C19.6262 28.2273 19.3331 27.9341 19.3331 27.5738V26.396C19.3331 26.0357 19.6262 25.7425 19.9866 25.7425C20.3469 25.7425 20.64 26.0357 20.64 26.396V27.5738C20.6401 27.9341 20.3469 28.2273 19.9866 28.2273ZM21.8121 26.399V26.3959C21.8121 25.3893 20.9932 24.5704 19.9867 24.5704C18.9801 24.5704 18.1611 25.3893 18.1611 26.3959V26.399H16.7197L19.9298 13.4691C19.9767 13.4713 20.0237 13.4714 20.0707 13.4697L23.2803 26.399H21.8121Z" fill="#525A68"/>
</g>
<defs>
<clipPath id="clip0">
<rect width="40" height="40" fill="white"/>
</clipPath>
</defs>
</svg>
