<svg width="60" height="60" fill="none" xmlns="http://www.w3.org/2000/svg"><path d="M38.438 38.438H2.812v7.265a1.172 1.172 0 001.172 1.172h34.453v-8.438z" fill="#FFC80A"/><path d="M54.844 31.875H38.437v15h17.579a1.172 1.172 0 001.172-1.172V34.22a2.343 2.343 0 00-2.344-2.344z" fill="#FFC80A"/><path d="M38.438 31.875h16.874l-6.447-8.865a3.514 3.514 0 00-2.843-1.448h-7.584v10.313z" fill="#FFF9F7"/><path d="M47.813 53.438a5.625 5.625 0 110-11.25 5.625 5.625 0 010 11.25zm-35.625 0a5.625 5.625 0 110-11.25 5.625 5.625 0 010 11.25z" fill="#fff"/><path d="M38.438 21.563h7.5l-3.403-5.104a1.173 1.173 0 00-.975-.521h-3.123v5.624z" fill="#FFC80A"/><path d="M45 34.688h-3.75v1.874H45v-1.874z" fill="#525A68"/><path d="M54.844 39.375h2.343v-5.156a2.343 2.343 0 00-2.343-2.344H52.5v5.156a2.343 2.343 0 002.344 2.344z" fill="#FFDD4D"/><path d="M1.875 19.688v-6.329a2.112 2.112 0 012.11-2.109h33.28a2.112 2.112 0 012.11 2.11V15h2.185a2.105 2.105 0 011.755.94l3.138 4.706a4.47 4.47 0 013.17 1.813l1.76 2.42-1.516 1.102-1.76-2.42a2.587 2.587 0 00-2.085-1.061h-6.647v8.438h14.096l-2.667-3.668 1.517-1.103 3.6 4.953a3.287 3.287 0 012.204 3.099v11.484a2.112 2.112 0 01-2.11 2.11h-1.64a6.563 6.563 0 11-13.125 0h-22.5a6.563 6.563 0 11-13.125 0h-1.64a2.112 2.112 0 01-2.11-2.11v-24.14H3.75V37.5H37.5V13.36a.235.235 0 00-.234-.235H3.984a.235.235 0 00-.234.234v6.329H1.875zm42.31.937l-2.43-3.646a.234.234 0 00-.195-.104h-2.185v3.75h4.81zM56.25 34.219a1.408 1.408 0 00-1.406-1.407h-1.407v4.22a1.408 1.408 0 001.407 1.406h1.406v-4.22zM47.812 52.5a4.687 4.687 0 100-9.374 4.687 4.687 0 000 9.374zm-6.29-6.563a6.564 6.564 0 0112.58 0h1.914a.235.235 0 00.234-.234v-5.39h-1.406a3.285 3.285 0 01-3.282-3.282v-4.218H39.376v13.124h2.148zM12.189 52.5a4.687 4.687 0 100-9.374 4.687 4.687 0 000 9.374zM3.75 39.375v6.328a.235.235 0 00.234.234h1.914a6.563 6.563 0 0112.58 0H37.5v-6.562H3.75z" fill="#525A68"/><path d="M22.65 33.182a14.41 14.41 0 005.687-9.036l.702-4.458-8.426-3.757-8.426 3.757.71 4.496a14.406 14.406 0 005.761 9.088l1.948 1.416 2.043-1.506z" fill="#FFDD4D"/><path d="M20.606 35.625c.2 0 .395-.064.556-.183l2.043-1.504a15.345 15.345 0 006.054-9.623l.004-.022.702-4.46a.938.938 0 00-.544-1.001l-8.426-3.758a.938.938 0 00-.764 0l-8.425 3.758a.937.937 0 00-.545 1.002l.71 4.496.004.022a15.34 15.34 0 006.132 9.68l1.948 1.415c.16.116.353.178.55.178zm6.806-11.636a13.476 13.476 0 01-5.318 8.438l-1.492 1.099-1.392-1.012a13.474 13.474 0 01-5.389-8.488l-.595-3.775 7.387-3.294 7.388 3.294-.589 3.738z" fill="#525A68"/><path d="M19.204 28a.825.825 0 01-.331-.069.86.86 0 01-.28-.197L16 25.009l1.222-1.284 1.982 2.082L23.778 21 25 22.284l-5.185 5.45a.859.859 0 01-.28.197.826.826 0 01-.331.069zm16.421-13H33.75v1.875h1.875V15zm0 18.75H33.75v1.875h1.875V33.75zM7.5 15H5.625v1.875H7.5V15zm0 18.75H5.625v1.875H7.5V33.75z" fill="#525A68"/><path d="M47.813 49.688a1.875 1.875 0 110-3.75 1.875 1.875 0 010 3.75z" fill="#FEFEFE"/><path d="M47.813 50.625a2.812 2.812 0 100-5.624 2.812 2.812 0 000 5.624zm0-3.75a.937.937 0 110 1.875.937.937 0 010-1.875z" fill="#525A68"/><path d="M12.188 49.688a1.875 1.875 0 110-3.75 1.875 1.875 0 010 3.75z" fill="#FEFEFE"/><path d="M12.188 50.625a2.812 2.812 0 100-5.624 2.812 2.812 0 000 5.624zm0-3.75a.937.937 0 110 1.875.937.937 0 010-1.875zM58.125 15h-7.5v1.875h7.5V15zm-9.375 0h-1.875v1.875h1.875V15zm.938-9.375h-15V7.5h15V5.625zm-16.875 0h-1.876V7.5h1.875V5.625zM24.375 7.5h-15v1.875h15V7.5zM7.5 7.5H5.625v1.875H7.5V7.5zm32.813 43.125H23.436V52.5h16.875v-1.875zm-18.75 0h-1.875V52.5h1.875v-1.875z" fill="#525A68"/></svg>