<svg width="60" height="60" fill="none" xmlns="http://www.w3.org/2000/svg"><g clip-path="url(#clip0)"><path d="M56.538 13.612c-2.042-.008-3.062-2.479-1.616-3.925a2.571 2.571 0 000-3.636l-1.016-1.015c-1.003-1.004-2.595-.954-3.603.046-1.45 1.439-3.918.413-3.918-1.632a2.571 2.571 0 00-2.57-2.571h-1.381a2.571 2.571 0 00-2.571 2.57c0 2.05-2.477 3.075-3.925 1.627a2.571 2.571 0 00-3.636 0l-.976.976a2.57 2.57 0 000 3.636c1.446 1.446.426 3.917-1.616 3.924-1.42.006-2.58 1.096-2.58 2.516v1.436a2.57 2.57 0 002.57 2.57c2.049 0 3.075 2.477 1.626 3.925a2.571 2.571 0 000 3.636l.976.976a2.571 2.571 0 003.636 0c1.448-1.448 3.925-.422 3.925 1.626a2.571 2.571 0 002.571 2.571h1.38a2.57 2.57 0 002.571-2.57c0-2.049 2.477-3.075 3.925-1.626a2.571 2.571 0 003.636 0l.976-.976a2.571 2.571 0 000-3.636c-1.446-1.446-.426-3.918 1.616-3.925 1.42-.006 2.58-1.096 2.58-2.515v-1.492c0-1.42-1.16-2.51-2.58-2.516zm-12.965 10.16a6.915 6.915 0 01-7.348-7.348c.217-3.44 3.009-6.232 6.45-6.45a6.915 6.915 0 017.348 7.349c-.217 3.44-3.01 6.232-6.45 6.45z" fill="#FFE073"/><path d="M56.538 13.612c-2.042-.007-3.062-2.478-1.616-3.924a2.571 2.571 0 000-3.636l-1.015-1.016c-1.004-1.004-2.596-.954-3.604.046-1.45 1.439-3.918.413-3.918-1.632a2.57 2.57 0 00-2.57-2.571h-1.381a2.56 2.56 0 00-1.67.617c6.475 2.112 11.154 8.198 11.154 15.378S47.24 30.14 40.764 32.252a2.56 2.56 0 001.67.616h1.38a2.57 2.57 0 002.571-2.57c0-2.049 2.477-3.075 3.925-1.626a2.571 2.571 0 003.636 0l.976-.976a2.571 2.571 0 000-3.636c-1.446-1.446-.426-3.918 1.616-3.925 1.42-.006 2.58-1.095 2.58-2.515v-1.492c0-1.42-1.16-2.51-2.58-2.516z" fill="#FFC80A"/><path d="M28.787 37.505a1.575 1.575 0 01-1.373-1.561v-7.2H16.412v7.2c0 .792-.588 1.46-1.373 1.561 0 0-2.06 6.935 6.874 6.935 8.935 0 6.874-6.935 6.874-6.935z" fill="#FFECE3"/><path d="M20.214 28.743v10.242c0 .792.588 1.46 1.373 1.561 1.612.21 4.37.617 6.753 1.217 1.132-1.953.447-4.258.447-4.258a1.575 1.575 0 01-1.373-1.561v-7.2h-7.2z" fill="#FFDDCE"/><path d="M32.34 18.697h-.665v-2.65c0-2.638-1.083-5.194-3.082-6.915-1.567-1.349-3.77-2.527-6.68-2.56-2.91.033-5.112 1.21-6.68 2.56-1.998 1.721-3.081 4.277-3.081 6.915v2.65h-.666c-.976 0-1.766.79-1.766 1.767v1.957c0 .976.79 1.767 1.766 1.767h.668c.056 2.564 1.133 5.032 3.08 6.708 1.567 1.35 3.77 2.527 6.68 2.56 2.91-.033 5.112-1.21 6.68-2.56 1.946-1.676 3.023-4.144 3.078-6.708h.668c.976 0 1.767-.791 1.767-1.767v-1.957c0-.976-.791-1.767-1.767-1.767z" fill="#FFECE3"/><path d="M32.34 18.697h-.665v-2.65c0-2.638-1.083-5.193-3.082-6.915-1.064-.916-2.423-1.753-4.096-2.206l-.002 17.262c-.055 2.564-1.132 5.032-3.079 6.708a10.672 10.672 0 01-3.091 1.876c1.05.409 2.243.669 3.588.684 2.91-.033 5.113-1.21 6.68-2.56 1.947-1.676 3.024-4.144 3.08-6.708h.668c.975 0 1.766-.791 1.766-1.767v-1.957c0-.976-.791-1.767-1.767-1.767z" fill="#FFDDCE"/><path d="M39.212 59.121a3.733 3.733 0 003.733-3.733v-8.739a7.66 7.66 0 00-4.544-6.997c-2.516-1.12-7.272-1.843-9.614-2.147l-6.874 4.3-6.874-4.3c-2.341.304-7.097 1.026-9.613 2.147A7.66 7.66 0 00.88 46.649v8.739a3.733 3.733 0 003.734 3.733h34.597z" fill="#F6F9F9"/><path d="M38.4 39.652c-2.515-1.12-7.271-1.843-9.613-2.147l-5.294 3.312c2.473.38 5.76 1.009 7.707 1.876a7.66 7.66 0 014.544 6.998v8.738c0 .237-.023.468-.065.692h3.533a3.733 3.733 0 003.733-3.733V46.65a7.66 7.66 0 00-4.544-6.997z" fill="#E7ECF1"/><path d="M25.715 5.991h-7.673a3.21 3.21 0 00-3.029 2.15 1.17 1.17 0 01-1.108.78 3.233 3.233 0 00-3.233 3.232v6.742s2.837-.033 3.796.913a.318.318 0 00.543-.224V15.15a2.786 2.786 0 012.786-2.786h.034c.46 0 .917.071 1.353.208a8.52 8.52 0 002.557.418h.344a8.5 8.5 0 002.558-.418 4.505 4.505 0 011.352-.208h.034a2.786 2.786 0 012.786 2.786v4.111c0 .415.337.752.752.752h.003a3.57 3.57 0 001.805-.508c.86-.504 1.78-.61 1.78-.61V13.43a7.44 7.44 0 00-7.44-7.44z" fill="#AA8080"/><path d="M25.715 5.991h-1.218v6.626c.048-.015.097-.028.146-.044a4.505 4.505 0 011.353-.208h.033a2.786 2.786 0 012.787 2.786v4.111c0 .415.336.752.751.752h.003a3.57 3.57 0 001.805-.508c.86-.504 1.78-.61 1.78-.61V13.43a7.44 7.44 0 00-7.44-7.44z" fill="#9D6B6B"/><path d="M12.905 40.525l3.95 3.391a1.623 1.623 0 002.007.086l3.051-2.197-6.874-4.3c-.38.05-.823.11-1.31.181-1.379.202-1.88 1.932-.824 2.839z" fill="#E7ECF1"/><path d="M30.921 40.525l-3.95 3.391a1.623 1.623 0 01-2.006.086l-3.052-2.197 6.874-4.3c.38.05.824.11 1.311.181 1.378.202 1.88 1.932.823 2.839z" fill="#E7ECF1"/><path d="M21.913 41.805l-3.051 2.197 1.443 2.027h3.216l1.444-2.027-3.052-2.197zm3.38 17.316L23.52 46.03h-3.216l-1.771 13.092h6.759z" fill="#FFC80A"/><path d="M42.62 9.098a7.793 7.793 0 101.008 15.553A7.793 7.793 0 0042.62 9.098zm6.526 8.17a6.032 6.032 0 01-5.628 5.628 6.038 6.038 0 01-6.416-6.416 6.032 6.032 0 015.628-5.628 6.038 6.038 0 016.416 6.416z" fill="#525A68"/><path d="M56.541 12.734c-1.266-.005-1.893-1.53-.998-2.425a3.427 3.427 0 001.01-2.44c0-.921-.358-1.787-1.01-2.439l-1.015-1.015c-1.34-1.34-3.468-1.322-4.844.044-.899.892-2.42.257-2.42-1.01A3.454 3.454 0 0043.814 0h-1.38a3.454 3.454 0 00-3.45 3.45c0 1.268-1.526 1.903-2.425 1.004a3.427 3.427 0 00-2.439-1.01 3.43 3.43 0 00-2.44 1.01l-.975.976a3.437 3.437 0 00-.651.907 8.268 8.268 0 00-4.339-1.225h-7.673a4.09 4.09 0 00-3.858 2.739.292.292 0 01-.279.19 4.117 4.117 0 00-4.112 4.112.879.879 0 001.757 0A2.357 2.357 0 0113.905 9.8c.873 0 1.652-.55 1.938-1.369a2.33 2.33 0 012.199-1.56h7.673a6.569 6.569 0 016.561 6.561v4.754c-1.36.382-1.543.892-2.581.947v-3.98a3.67 3.67 0 00-3.666-3.666h-.033c-1.505 0-2.12.626-3.91.626h-.345c-1.772 0-2.417-.626-3.91-.626h-.033a3.67 3.67 0 00-3.666 3.665v3.426c-.832-.352-1.848-.485-2.581-.534v-1.732a.879.879 0 10-1.758 0v2.121a2.634 2.634 0 00-.952 2.031v1.958a2.649 2.649 0 002.488 2.64c.264 2.548 1.451 4.881 3.331 6.5.285.246.577.473.873.686v3.697c0 .348-.26.645-.606.69-2.575.334-7.278 1.066-9.859 2.215a8.547 8.547 0 00-5.065 7.8v8.739A4.617 4.617 0 004.614 60h34.598a4.617 4.617 0 004.612-4.612V52.42a.879.879 0 10-1.758 0v2.968a2.858 2.858 0 01-2.854 2.854h-2.258V53.45a.879.879 0 10-1.758 0v4.792h-9.135l-1.622-11.987.823-1.156c.214.059.433.09.652.09.581 0 1.16-.204 1.63-.606l3.95-3.391a2.47 2.47 0 00.848-2.249c2.027.367 4.274.876 5.702 1.511a6.788 6.788 0 014.023 6.195v1.664a.879.879 0 101.757 0V46.65a8.547 8.547 0 00-5.066-7.8c-2.58-1.15-7.284-1.881-9.858-2.215a.698.698 0 01-.607-.69v-3.697c.297-.213.589-.44.874-.686a9.55 9.55 0 002.134-2.648l.38.38a3.448 3.448 0 004.878 0c.897-.897 2.425-.267 2.425 1.004a3.454 3.454 0 003.45 3.45h1.38a3.454 3.454 0 003.45-3.45c0-1.268 1.526-1.903 2.425-1.004a3.427 3.427 0 002.44 1.01c.92 0 1.787-.358 2.439-1.01l.976-.976a3.454 3.454 0 000-4.879c-.896-.895-.269-2.42.998-2.424 1.938-.008 3.456-1.499 3.456-3.394v-1.492c0-1.896-1.518-3.387-3.457-3.394zM23.068 45.15h-2.31l-.673-.946 1.828-1.316 1.829 1.316-.674.946zm-4.72-1.862a.742.742 0 01-.92-.039l-3.95-3.391a.733.733 0 01-.23-.772.735.735 0 01.596-.528c.368-.054.705-.1.997-.14l5.497 3.438-1.99 1.432zM1.76 55.388v-8.739a6.788 6.788 0 014.023-6.195c1.428-.635 3.675-1.144 5.701-1.51a2.47 2.47 0 00.849 2.248l3.95 3.39a2.497 2.497 0 002.282.518l.823 1.155-1.622 11.987H8.63V53.45a.879.879 0 00-1.757 0v4.792H4.614a2.858 2.858 0 01-2.854-2.854zm17.78 2.854l1.533-11.334h1.68l1.534 11.334H19.54zm11.039-19.156a.733.733 0 01-.23.772l-3.95 3.391a.743.743 0 01-.92.04l-1.99-1.433 5.496-3.438c.292.039.63.086.998.14.43.07.565.42.596.528zm-3.468-1.57l-5.198 3.252-5.198-3.251c.36-.43.576-.98.576-1.573v-2.658a10.713 10.713 0 009.245 0v2.658c0 .594.216 1.144.575 1.573zm.909-7.286c-3.63 3.124-8.584 3.125-12.213 0-1.712-1.474-2.723-3.683-2.774-6.061a.879.879 0 00-.878-.86h-.669a.889.889 0 01-.888-.888v-1.958c0-.27.124-.52.33-.687 1.011.023 2.486.227 2.923.658a1.196 1.196 0 002.039-.85V15.15a1.91 1.91 0 011.907-1.907c1.616.118 1.994.626 3.944.626h.345c2.017 0 2.78-.626 3.91-.626h.033a1.91 1.91 0 011.908 1.907v4.111c0 .9.731 1.63 1.633 1.63 1.663 0 2.113-.772 3.386-1.066a.883.883 0 01.272.637v1.958c0 .49-.398.888-.888.888h-.668a.879.879 0 00-.878.86c-.052 2.378-1.063 4.587-2.774 6.06zm30.22-12.61c0 .914-.75 1.632-1.705 1.636-2.828.01-4.232 3.428-2.234 5.425.66.66.66 1.733 0 2.393l-.977.976c-.319.32-.744.496-1.196.496-.452 0-.877-.176-1.197-.496-2.001-2.001-5.425-.587-5.425 2.247 0 .934-.759 1.693-1.692 1.693h-1.38c-.933 0-1.692-.76-1.692-1.692 0-2.831-3.421-4.252-5.426-2.248a1.691 1.691 0 01-2.393 0l-.873-.873c.22-.68.372-1.389.447-2.115a2.65 2.65 0 002.489-2.64v-1.959c0-.797-.355-1.534-.952-2.03V13.43a8.293 8.293 0 00-2.53-5.966c.072-.298.223-.572.443-.792l.976-.976a1.68 1.68 0 011.197-.495c.452 0 .877.176 1.196.495 2.002 2.002 5.425.588 5.425-2.247 0-.933.76-1.692 1.693-1.692h1.38c.933 0 1.692.76 1.692 1.692 0 2.829 3.412 4.245 5.416 2.256.679-.673 1.717-.694 2.363-.048L54.3 6.673c.32.32.496.745.496 1.197 0 .452-.176.877-.496 1.196-2 2-.59 5.415 2.234 5.425.956.004 1.706.723 1.706 1.637v1.492z" fill="#525A68"/></g><defs><clipPath id="clip0"><path fill="#fff" d="M0 0h60v60H0z"/></clipPath></defs></svg>