<svg width="60" height="60" fill="none" xmlns="http://www.w3.org/2000/svg"><g clip-path="url(#clip0)"><path d="M38.107 48.736v5.392a2.662 2.662 0 01-2.662 2.663H3.559a2.662 2.662 0 01-2.662-2.663v-5.392a2.662 2.662 0 012.662-2.66h31.886a2.662 2.662 0 012.662 2.66z" fill="#FFF7EA"/><path d="M38.107 48.737v5.392a2.664 2.664 0 01-2.662 2.662H10.112a2.662 2.662 0 01-2.661-2.662v-5.392a2.662 2.662 0 012.661-2.661h25.333a2.662 2.662 0 012.662 2.661z" fill="#fff"/><path d="M38.107 48.737v5.392a2.664 2.664 0 01-2.38 2.648 18.618 18.618 0 01-8.27-1.577 18.498 18.498 0 01-5.614-3.857 18.56 18.56 0 01-3.699-5.267h17.3a2.662 2.662 0 012.663 2.661z" fill="#F4B74A"/><path d="M39.9 38.02v5.392a2.662 2.662 0 01-2.662 2.663H5.353a2.662 2.662 0 01-2.663-2.663V38.02a2.662 2.662 0 012.663-2.661h31.885a2.662 2.662 0 012.663 2.661z" fill="#FFF7EA"/><path d="M38.107 38.02v5.392a2.662 2.662 0 01-2.662 2.663H10.112a2.662 2.662 0 01-2.661-2.663V38.02a2.662 2.662 0 012.661-2.661h25.333a2.662 2.662 0 012.662 2.661z" fill="#fff"/><path d="M38.107 38.02v5.392a2.662 2.662 0 01-2.662 2.663h-15.51A18.652 18.652 0 0118.4 35.359h17.044a2.662 2.662 0 012.662 2.661z" fill="#F4B74A"/><path d="M38.107 5.87v5.393a2.662 2.662 0 01-2.662 2.662H3.559a2.662 2.662 0 01-2.662-2.662V5.87a2.662 2.662 0 012.662-2.662h31.886a2.662 2.662 0 012.662 2.662z" fill="#FFF7EA"/><path d="M38.107 5.87v5.393a2.662 2.662 0 01-2.662 2.662H10.112a2.662 2.662 0 01-2.661-2.662V5.87a2.662 2.662 0 012.661-2.662h25.333a2.662 2.662 0 012.662 2.662z" fill="#fff"/><path d="M33.73 3.209h-3.904v10.717h3.905V3.209zm-6.774 0h-1.952v10.717h1.952V3.209z" fill="#FFF7EA"/><path d="M42.89 16.587v5.392a2.662 2.662 0 01-2.663 2.663H8.342a2.662 2.662 0 01-2.663-2.663v-5.392a2.662 2.662 0 012.663-2.661h31.885a2.662 2.662 0 012.663 2.661z" fill="#FFF7EA"/><path d="M42.89 16.587v5.392a2.662 2.662 0 01-2.663 2.663H14.894a2.662 2.662 0 01-2.66-2.663v-5.392a2.662 2.662 0 012.66-2.661h25.333a2.662 2.662 0 012.663 2.661z" fill="#fff"/><path d="M38.434 13.926h-3.905v10.717h3.905V13.926zm-6.775 0h-1.953v10.717h1.953V13.926z" fill="#FFF7EA"/><path d="M42.89 20.237v1.742a2.662 2.662 0 01-2.663 2.663H25.234c4.864-4.587 11.595-6.055 17.656-4.405z" fill="#F4B74A"/><path d="M38.107 27.304v5.392a2.662 2.662 0 01-2.662 2.662H3.559a2.662 2.662 0 01-2.662-2.662v-5.392a2.662 2.662 0 012.662-2.661h31.886a2.662 2.662 0 012.662 2.66z" fill="#FFF7EA"/><path d="M38.107 27.304v5.392a2.662 2.662 0 01-2.662 2.662H10.112a2.662 2.662 0 01-2.661-2.662v-5.392a2.662 2.662 0 012.661-2.661h25.333a2.662 2.662 0 012.662 2.66z" fill="#fff"/><path d="M38.107 27.304v5.392a2.662 2.662 0 01-2.662 2.662H16.608a18.515 18.515 0 015.636-10.715h13.2a2.662 2.662 0 012.663 2.66z" fill="#F4B74A"/><path d="M53.654 51.343c-5.596 5.595-13.87 6.882-20.697 3.857a18.483 18.483 0 01-5.615-3.857c-7.265-7.266-7.265-19.046 0-26.312 7.266-7.265 19.046-7.265 26.312 0 .353.353.687.715 1.005 1.088a18.465 18.465 0 012.852 4.527c3.025 6.826 1.739 15.1-3.857 20.697z" fill="#FFC80A"/><path d="M57.511 30.646L32.957 55.2a18.482 18.482 0 01-4.527-2.852l26.23-26.23a18.463 18.463 0 012.851 4.528z" fill="#F9C662"/><path d="M53.654 38.187c0 7.265-5.89 13.156-13.156 13.156a13.13 13.13 0 01-10.177-4.818 13.1 13.1 0 01-2.979-8.338c0-7.266 5.89-13.156 13.156-13.156a13.1 13.1 0 018.339 2.98 13.128 13.128 0 014.817 10.176z" fill="#FFD488"/><path d="M48.837 28.011L30.323 46.525h-.002a13.096 13.096 0 01-2.523-4.896 13.177 13.177 0 01-.456-3.443c0-7.265 5.89-13.156 13.156-13.156 1.192 0 2.347.159 3.444.455a13.167 13.167 0 014.895 2.526z" fill="#F9C662"/><path d="M46.696 26.58L28.891 44.386a13.024 13.024 0 01-1.093-2.755L43.94 25.486c.968.262 1.89.631 2.755 1.095z" fill="#FFD488"/><path d="M30.901 55.895H3.56a1.768 1.768 0 01-1.766-1.766v-5.391c0-.974.793-1.766 1.766-1.766H20.9a.897.897 0 100-1.794H5.352a1.768 1.768 0 01-1.765-1.765V38.02c0-.974.792-1.766 1.766-1.766h13.912a.897.897 0 100-1.793H3.559a1.768 1.768 0 01-1.766-1.766v-5.392c0-.973.793-1.765 1.766-1.765h20.787a.897.897 0 100-1.794H8.342a1.768 1.768 0 01-1.766-1.765v-5.393c0-.973.792-1.765 1.766-1.765h31.885c.974 0 1.766.792 1.766 1.765v.67a.897.897 0 101.793 0v-.67a3.563 3.563 0 00-3.559-3.559h-1.694a3.53 3.53 0 00.47-1.765V5.87a3.563 3.563 0 00-3.559-3.56H3.56A3.564 3.564 0 000 5.872v5.392a3.563 3.563 0 003.56 3.56h1.693a3.536 3.536 0 00-.47 1.765v5.392c0 .642.171 1.245.47 1.765H3.56A3.563 3.563 0 000 27.305v5.391c0 1.552.999 2.874 2.387 3.36a3.538 3.538 0 00-.594 1.965v5.392c0 .726.22 1.401.594 1.965A3.565 3.565 0 000 48.738v5.391a3.563 3.563 0 003.56 3.56H30.9a.897.897 0 000-1.794zM1.793 11.263V5.871c0-.973.792-1.765 1.766-1.765h31.886c.973 0 1.765.792 1.765 1.765v5.392c0 .974-.792 1.766-1.766 1.766H3.56a1.768 1.768 0 01-1.766-1.766z" fill="#525A68"/><path d="M51.132 21.837a.897.897 0 00-.979 1.502 17.667 17.667 0 018.054 14.848c0 9.764-7.944 17.708-17.709 17.708-9.764 0-17.708-7.944-17.708-17.708 0-9.765 7.944-17.709 17.708-17.709 2.564 0 5.037.536 7.35 1.592a.897.897 0 10.744-1.631 19.346 19.346 0 00-8.094-1.754c-10.753 0-19.502 8.749-19.502 19.502 0 10.753 8.749 19.502 19.502 19.502C51.251 57.689 60 48.94 60 38.187c0-6.62-3.315-12.732-8.868-16.35z" fill="#525A68"/><path d="M29.68 43.963a.896.896 0 10-1.58.845 14.063 14.063 0 002.462 3.316 14.009 14.009 0 009.936 4.11c3.599 0 7.197-1.37 9.937-4.11 5.48-5.48 5.48-14.395 0-19.874a13.96 13.96 0 00-9.937-4.116 13.96 13.96 0 00-9.936 4.116 14.1 14.1 0 00-3.629 13.614.897.897 0 101.731-.468 12.302 12.302 0 013.166-11.878 12.18 12.18 0 018.669-3.59 12.18 12.18 0 018.668 3.59c4.78 4.78 4.78 12.558 0 17.338-4.78 4.78-12.557 4.78-17.337 0a12.26 12.26 0 01-2.15-2.893z" fill="#525A68"/><path d="M37.338 41.568a.897.897 0 00-1.794 0c0 2.094 1.753 3.84 4.058 4.206v.527a.897.897 0 101.793 0v-.527c2.305-.366 4.057-2.112 4.057-4.206 0-2.094-1.752-3.841-4.057-4.206v-4.939c1.307.305 2.264 1.257 2.264 2.383a.897.897 0 101.794 0c0-2.095-1.753-3.841-4.058-4.207v-.527a.897.897 0 10-1.793 0v.527c-2.305.366-4.058 2.112-4.058 4.207 0 2.094 1.753 3.84 4.058 4.206v4.938c-1.308-.305-2.264-1.257-2.264-2.382zm6.32 0c0 1.125-.956 2.077-2.263 2.382v-4.764c1.307.304 2.264 1.257 2.264 2.382zm-6.32-6.762c0-1.126.956-2.078 2.264-2.383v4.764c-1.308-.304-2.264-1.256-2.264-2.381z" fill="#525A68"/></g><defs><clipPath id="clip0"><path fill="#fff" d="M0 0h60v60H0z"/></clipPath></defs></svg>