<svg width="60" height="60" fill="none" xmlns="http://www.w3.org/2000/svg"><path d="M25.313 40.976v-6.952L23.6 33.42a12.514 12.514 0 00-.184-.442l.784-1.64-4.915-4.915-1.64.784a10.837 10.837 0 00-.441-.184l-.604-1.71H9.65l-.604 1.711a12.9 12.9 0 00-.442.184l-1.64-.784L2.05 31.34l.784 1.64a9.96 9.96 0 00-.184.44l-1.712.604v6.952l1.712.604c.058.147.12.294.184.442l-.784 1.64 4.915 4.914 1.64-.784c.146.065.293.126.441.184l.604 1.712h6.95l.604-1.712c.147-.059.294-.12.442-.184l1.64.784L24.2 43.66l-.784-1.64c.065-.146.126-.293.184-.441l1.712-.604zm-12.188 3.087a6.562 6.562 0 110-13.125 6.562 6.562 0 010 13.125zm2.813-31.875h9.374v8.437h-9.375v-8.438zm11.25 27.187h16.875v3.75H27.186v-3.75z" fill="#FFC80A"/><path d="M32.813 55.313a1.876 1.876 0 001.874-1.876v-1.874c0-1.035-.84-1.876-1.874-1.876h-5.626a1.877 1.877 0 00-1.875 1.876v1.874c0 1.035.841 1.876 1.875 1.876h5.625zm-5.626-3.75h5.625l.002 1.874h-5.627v-1.874zm-11.249 0v1.874c0 1.035.84 1.876 1.874 1.876h1.875a1.877 1.877 0 001.875-1.876v-1.874c0-1.035-.84-1.876-1.875-1.876h-1.875a1.877 1.877 0 00-1.875 1.876zm3.751 1.874h-1.877v-1.874h1.875l.002 1.874zm22.499 1.876a1.876 1.876 0 001.874-1.876v-1.874c0-1.035-.84-1.876-1.874-1.876h-1.876a1.876 1.876 0 00-1.874 1.876v1.874c0 1.035.84 1.876 1.874 1.876h1.876zm-1.876-3.75h1.876l.001 1.874h-1.877v-1.874zM30 6.563a.937.937 0 100-1.875.937.937 0 000 1.875zm13.125 0a.937.937 0 100-1.875.937.937 0 000 1.875zm8.438 12.187H43.24a2.792 2.792 0 01-1.987-.832 6.5 6.5 0 00-4.691-1.98c-2.287 0-4.291 1.195-5.499 3.28l-.127.217v2.128h4.893l.47 1.875h-5.362v2.127l.126.218c1.208 2.084 3.212 3.28 5.498 3.28a6.5 6.5 0 004.692-1.98 2.792 2.792 0 011.987-.833h8.322a3.754 3.754 0 003.75-3.75 3.754 3.754 0 00-3.75-3.75zm0 5.625H43.24c-1.25 0-2.463.51-3.33 1.399a4.643 4.643 0 01-3.349 1.413c-1.446 0-2.697-.66-3.572-1.875h5.71l-1.405-5.625H32.99c.875-1.214 2.126-1.875 3.572-1.875 1.27 0 2.46.503 3.35 1.414a4.674 4.674 0 003.33 1.399h8.32c1.035 0 1.876.84 1.876 1.875a1.877 1.877 0 01-1.876 1.875z" fill="#525A68"/><path d="M56.25 12.188h-8.438V5.625A4.693 4.693 0 0043.126.937h-26.25a4.693 4.693 0 00-4.688 4.688v19.688h1.876v-15h31.874v1.874H30A2.816 2.816 0 0027.187 15v15A2.816 2.816 0 0030 32.813h2.813v1.486a2.266 2.266 0 002.263 2.264c.596 0 1.179-.242 1.6-.663l3.087-3.087h6.175v13.124H21.922l-1.875 1.876h25.89v6.562a2.816 2.816 0 01-2.813 2.813h-26.25a2.816 2.816 0 01-2.813-2.813v-4.688h-1.874v4.688a4.693 4.693 0 004.687 4.688h26.25a4.693 4.693 0 004.688-4.688V32.812h8.437A2.816 2.816 0 0059.063 30V15a2.816 2.816 0 00-2.813-2.813zM30 8.438a2.816 2.816 0 01-2.813-2.813V2.812h5.625v2.813A2.816 2.816 0 0130 8.438zM14.062 5.624a2.816 2.816 0 012.813-2.813h8.438v2.813c0 1.06.366 2.027.961 2.813H14.062V5.624zm19.664 2.813a4.64 4.64 0 00.962-2.813V2.812h8.437a2.816 2.816 0 012.813 2.813v2.813H33.725zM57.188 30c0 .517-.42.938-.938.938H38.987l-3.637 3.636c-.224.222-.663.042-.663-.275v-3.361H30a.938.938 0 01-.938-.938V15c0-.517.42-.938.938-.938h26.25a.94.94 0 01.938.938v15z" fill="#525A68"/><path d="M16.875 37.5a3.754 3.754 0 00-3.75-3.75 3.754 3.754 0 00-3.75 3.75 3.754 3.754 0 003.75 3.75 3.754 3.754 0 003.75-3.75zm-5.625 0c0-1.034.84-1.875 1.875-1.875 1.034 0 1.875.84 1.875 1.875 0 1.034-.84 1.875-1.875 1.875A1.877 1.877 0 0111.25 37.5z" fill="#525A68"/><path d="M20.625 37.5c0-4.135-3.365-7.5-7.5-7.5s-7.5 3.365-7.5 7.5 3.365 7.5 7.5 7.5 7.5-3.365 7.5-7.5zM7.5 37.5a5.63 5.63 0 015.625-5.625A5.63 5.63 0 0118.75 37.5a5.63 5.63 0 01-5.625 5.625A5.63 5.63 0 017.5 37.5zm8.438-25.312h1.874v1.874h-1.875v-1.874zm3.75 0h5.625v1.874h-5.625v-1.874zm-3.75 3.75h9.374v1.874h-9.375v-1.875zm0 3.75h9.374v1.875h-9.375v-1.875zm11.25 22.5h16.875v1.874H27.186v-1.874zm0-3.75h16.875v1.874H27.186v-1.874z" fill="#525A68"/></svg>