<svg width="60" height="60" fill="none" xmlns="http://www.w3.org/2000/svg"><path d="M26.25 32.813c.779 0 1.482.318 1.988.825a2.809 2.809 0 01-1.988 4.8h-5.625a2.806 2.806 0 01-1.987-.826 2.806 2.806 0 01-.047-3.928 2.825 2.825 0 012.034-.871h5.625z" fill="#FFEAA7"/><path d="M17.813 53.587a9.264 9.264 0 003.75.788h7.5v.938a2.809 2.809 0 01-2.813 2.812h-5.625a2.809 2.809 0 01-2.812-2.813v-1.725zm2.812-15.149h5.625a2.809 2.809 0 002.813-2.813v11.25h-.16a1.88 1.88 0 00-1.33.553L26.25 48.75H22.5a9.332 9.332 0 01-4.687-1.256V35.625c0 .778.319 1.481.825 1.987.506.507 1.21.825 1.987.825z" fill="#E6E9ED"/><path d="M18.178 32.41l.413 1.274a2.791 2.791 0 00-.778 1.941v8.522l-4.07-6.084-6.721-10.07c.853.938 2.784 1.332 4.856.891 2.485-.525 4.256-2.072 4.04-3.497l2.26 7.022z" fill="#E6E9ED"/><path d="M15.92 25.387c.215 1.425-1.557 2.972-4.042 3.497-2.071.441-4.003.047-4.856-.89l-.31-.46c-.046-.093-.074-.197-.102-.3-.347-1.453 1.453-3.075 4.012-3.618 2.344-.497 4.519.075 5.138 1.284l.01.028.15.46z" fill="#F0D0B4"/><path d="M39.338 11.25h-8.4V2.043a10.26 10.26 0 015.1 2.55 10.32 10.32 0 013.3 6.657zm-12.15-9.197v9.197h-8.4a10.327 10.327 0 018.4-9.206v.01z" fill="#FFDD4D"/><path d="M30.938 2.053v9.197h-3.75V2.043c.61-.112 1.238-.168 1.875-.168.638 0 1.266.056 1.875.169v.01zm-12.15 9.197h21.525a.94.94 0 01.938.938v1.874a.94.94 0 01-.938.938h-22.5a.94.94 0 01-.938-.938v-1.874a.94.94 0 01.938-.938h.975z" fill="#FFC80A"/><path d="M39.376 15v5.625c0-.778-.32-1.481-.825-1.988a2.806 2.806 0 00-1.988-.825h-.938V15h3.75zm-17.813 2.813a2.809 2.809 0 00-2.813 2.812V15h3.75v2.813h-.937z" fill="#656D78"/><path d="M46.397 40.181l1.416-12.056h5.625v14.25a6.355 6.355 0 01-1.866 4.51 6.355 6.355 0 01-4.51 1.865 6.366 6.366 0 01-5.7-3.525l-1.05-2.1v15h-7.5v-3.75a1.88 1.88 0 001.876-1.875v-1.875a1.88 1.88 0 00-1.875-1.875V30l-.46-.366.46-.572a18.632 18.632 0 017.94 3.685 18.5 18.5 0 015.391 6.89l.253.544zm-18.159-6.543a2.806 2.806 0 00-1.988-.825h-5.625c-.797 0-1.519.337-2.034.871l-.413-1.275a16.151 16.151 0 016.844-3.28l.29-.067 3.75 4.688v1.875c0-.778-.318-1.481-.824-1.987zm-14.494 4.425l4.069 6.084v3.347a9.332 9.332 0 004.688 1.256h3.75v5.625h-4.688a9.264 9.264 0 01-3.75-.788A9.367 9.367 0 0112.188 45c0-2.466.553-4.828 1.556-6.938z" fill="#FCD770"/><path d="M32.813 54.375v3.75H26.25a2.809 2.809 0 002.813-2.813v-.937h3.75zm0-24.375v18.75h-.938A1.88 1.88 0 0030 46.875h-.937V33.75l3.29-4.116.46.366z" fill="#BBD0DD"/><path d="M34.688 50.625V52.5a1.88 1.88 0 01-1.875 1.875H26.25V48.75l1.322-1.322a1.88 1.88 0 011.332-.553H30a1.88 1.88 0 011.874 1.875h.938a1.88 1.88 0 011.875 1.875zm18.75-29.062v6.562h-5.625l-1.322-1.322a1.88 1.88 0 01-.553-1.331v-1.097c0-.516.206-.984.553-1.322a1.833 1.833 0 011.322-.553v-.938a1.88 1.88 0 011.875-1.875h1.875a1.88 1.88 0 011.875 1.875zM38.55 18.637a2.809 2.809 0 01-1.987 4.8h-1.06c.085-.3.122-.609.122-.937v-4.688h.938c.778 0 1.481.32 1.987.825zm-6.675 7.613l.938 2.813-.46.571-3.29 4.116-3.75-4.688.938-2.812h5.624z" fill="#F0D0B4"/><path d="M22.622 23.438c-.084-.3-.122-.61-.122-.938V15h13.126v7.5c0 .328-.038.637-.122.938a3.742 3.742 0 01-3.628 2.812H26.25a3.742 3.742 0 01-3.628-2.813z" fill="#F0D0B4"/><path d="M22.622 23.438h-1.059a2.806 2.806 0 01-1.987-.825 2.809 2.809 0 011.987-4.8h.938V22.5c0 .328.037.637.121.938z" fill="#F0D0B4"/><path d="M51.563 18.75h-1.875a2.816 2.816 0 00-2.813 2.813v.16A2.818 2.818 0 0045 24.375v1.098a2.8 2.8 0 00.824 1.99l1.004 1.003-1.01 8.59a19.656 19.656 0 00-12.285-8.798L33.113 27a4.69 4.69 0 003.052-2.625h.398a3.754 3.754 0 003.75-3.75v-4.688c1.034 0 1.875-.84 1.875-1.874v-1.876a1.877 1.877 0 00-1.875-1.874h-.163A11.18 11.18 0 0029.063.937c-5.572 0-10.191 3.975-11.087 9.376h-.163c-1.034 0-1.875.84-1.875 1.874v1.876c0 1.034.84 1.874 1.875 1.874v4.688a3.754 3.754 0 003.75 3.75h.397A4.692 4.692 0 0025.012 27l-.42 1.26a17.261 17.261 0 00-5.926 2.615l-1.847-5.735c-.006-.03-.005-.062-.011-.093-.471-1.975-3.266-3.008-6.378-2.348-1.932.41-3.547 1.383-4.32 2.603-.44.698-.585 1.44-.416 2.149.096.407.296.771.572 1.091l6.424 9.622A17.027 17.027 0 0011.25 45c0 3.998 2.291 7.463 5.625 9.174v1.139a3.754 3.754 0 003.75 3.75H41.25V46.788a7.253 7.253 0 005.813 2.9c4.032 0 7.312-3.28 7.312-7.311V21.562a2.816 2.816 0 00-2.812-2.812zm-4.688 5.625c0-.517.42-.938.938-.938h.937v-1.875c0-.516.42-.937.938-.937h1.875c.517 0 .937.42.937.938v5.625h-4.3l-1.05-1.051a.933.933 0 01-.275-.664v-1.098zm-15 30.938v1.874H29.48a3.712 3.712 0 00.52-1.874h1.875zm.938-1.876h-5.625v-4.299l1.05-1.05a.946.946 0 01.663-.276h1.1c.517 0 .937.421.937.938v.938h1.875c.517 0 .937.42.937.937V52.5c0 .517-.42.938-.937.938zm-1.614-26.25l.563 1.688-2.7 3.374-2.7-3.375.563-1.687H31.2zm-4.827 4.7c-.041 0-.08-.012-.122-.012h-5.625c-.01 0-.018.003-.027.003a15.33 15.33 0 014.357-1.763l1.417 1.772zm-5.747 1.863h2.378a3.722 3.722 0 00-.503 1.875v.938h1.875v-.938c0-1.034.841-1.875 1.875-1.875s1.875.84 1.875 1.875A1.877 1.877 0 0126.25 37.5h-5.625a1.877 1.877 0 01-1.875-1.875c0-1.034.841-1.875 1.875-1.875zm-1.875 5.104a3.711 3.711 0 001.875.521h5.625c.686 0 1.321-.199 1.875-.521v7.205c-.452.13-.87.36-1.212.703l-1.051 1.05H22.5a8.444 8.444 0 01-3.75-.885v-8.073zm13.125 7.81A2.796 2.796 0 0030 45.937V35.626c0-.443-.09-.862-.232-1.256l2.107-2.634v14.93zM36.563 22.5v-3.75c1.034 0 1.875.84 1.875 1.875a1.877 1.877 0 01-1.875 1.875zm1.875-5.104a3.712 3.712 0 00-1.875-.521v-.938h1.875v1.46zm-.192-7.084h-6.37v-7.07a9.293 9.293 0 016.37 7.07zM30 2.86v7.454h-1.875V2.859a9.67 9.67 0 011.875 0zm-3.75.383v7.07h-6.37a9.293 9.293 0 016.371-7.07zm-8.438 8.945h22.5v1.876h-22.5v-1.876zm3.75 3.75v.938c-.686 0-1.32.199-1.874.521v-1.459h1.875zm-1.874 4.688c0-1.034.84-1.875 1.875-1.875v3.75a1.877 1.877 0 01-1.875-1.875zm3.75 1.875v-6.563h11.25V22.5a2.816 2.816 0 01-2.813 2.813H26.25a2.816 2.816 0 01-2.812-2.813zM7.694 26.306c.493-.778 1.72-1.474 3.126-1.773a7.215 7.215 0 011.491-.163c1.327 0 2.272.42 2.58.9l.091.285c.023.192-.027.404-.176.64-.493.778-1.72 1.473-3.126 1.773-1.935.41-3.396-.017-3.939-.59l-.184-.276c-.011-.028-.033-.054-.041-.082-.049-.21.011-.45.178-.714zM10.224 30a8.9 8.9 0 001.846-.199c1.507-.32 2.815-.984 3.687-1.84l1.784 5.54a3.721 3.721 0 00-.666 2.125v5.432L9.465 29.96c.247.024.499.04.758.04zm2.9 15c0-1.705.277-3.365.821-4.952l2.93 4.387v1.21a8.375 8.375 0 01-1.126-1.208l-1.5 1.126a10.362 10.362 0 008.25 4.124h2.813v3.75h-3.75c-4.653 0-8.438-3.785-8.438-8.437zm10.313 12.188h-2.813a1.877 1.877 0 01-1.875-1.876v-.399c.895.254 1.837.4 2.813.4h6.562a1.877 1.877 0 01-1.875 1.874h-2.812zm23.625-9.376a5.407 5.407 0 01-4.861-3.004l-.952-1.904v-3.529h-1.875v17.813H33.75V55.14a2.809 2.809 0 001.875-2.64v-1.875c0-1.22-.786-2.252-1.875-2.64V30.247a17.778 17.778 0 0111.54 9.783l.142.31-.424 3.614 1.861.218 1.777-15.11H52.5v13.315a5.443 5.443 0 01-5.437 5.435z" fill="#000"/></svg>