<svg width="60" height="60" fill="none" xmlns="http://www.w3.org/2000/svg"><path d="M40.575.879h-21.15c-.905 0-1.653.683-1.76 1.582-.653 5.483-4.683 9.85-10.325 10.691-1.155.173-1.468 1.86-1.468 3.027l.449 11.22c0 11.824 5.67 22.148 16.117 27.686l4.468 2.313c1.55.822 3.516 1.942 5.148 1.378a6.28 6.28 0 00.891-.387l4.74-2.514A31.936 31.936 0 0054.662 27.66V15.5c0-1.168-.846-2.175-2.002-2.347-5.645-.84-9.671-5.208-10.324-10.692a1.779 1.779 0 00-1.76-1.582z" fill="#FFDD4D"/><path d="M38.459 4.555H21.347a.591.591 0 00-.591.545c-.356 4.76-5.274 9.58-9.508 11.018-.62.21-.698 1.14-1.273 1.195a.595.595 0 00-.542.591L9.91 27.2c0 10.792 5.305 19.878 14.84 24.933l3.768 2.194c.81.429 1.78.429 2.59 0l1.529.085 3.036-1.61A29.012 29.012 0 0051.096 27.17V17.112a.595.595 0 00-.543-.59c-4.513-.428-11.085-5.965-11.503-11.423a.591.591 0 00-.591-.544z" fill="#FFC80A"/><path d="M41.228 17.702c-6.2-6.201-16.255-6.201-22.455 0-6.201 6.2-5.566 16.024.634 22.225 6.201 6.201 15.62 6.431 21.821.23 6.201-6.2 6.201-16.254 0-22.455z" fill="#F7F9FA"/><path d="M41.944 39.39c-.227.261-.467.517-.716.767-6.2 6.202-16.254 6.202-22.455 0-6.202-6.2-6.202-16.254 0-22.455.25-.25.505-.49.766-.717-5.475 6.237-5.235 15.738.717 21.689 5.95 5.952 15.452 6.192 21.688.717z" fill="#E9EDF1"/><path d="M38.612 20.318c-4.756-4.756-12.467-4.756-17.223 0-4.756 4.756-4.214 11.888.542 16.644 4.756 4.756 11.925 5.335 16.68.579 4.757-4.756 4.757-12.467 0-17.223z" fill="#E9EDF1"/><path d="M39.378 36.7c-.24.29-.496.57-.766.84-4.756 4.757-12.467 4.757-17.223 0-4.756-4.755-4.756-12.466 0-17.222.27-.27.551-.527.84-.766-3.975 4.784-3.72 11.897.766 16.382 4.486 4.486 11.598 4.742 16.383.767z" fill="#DCE6EB"/><path d="M32.054 58.777a6.286 6.286 0 01-4.99-.388l-4.745-2.515a31.935 31.935 0 01-16.98-28.217V15.499c0-1.164.842-2.169 1.992-2.345v14.503a29.88 29.88 0 0015.92 26.457l4.745 2.515c.246.131 1.998 1.069 4.058 2.148z" fill="#FFC80A"/><path d="M32.638 54.411l-1.338.71c-.81.43-1.78.43-2.59 0l-4.307-2.282A29.149 29.149 0 018.904 27.083v-9.97c0-.309.236-.563.543-.592a8.026 8.026 0 001.801-.403v10.965c0 9.95 5.46 19.026 14.252 23.685l4.307 2.283c.029.015 1.406.678 2.83 1.36z" fill="#FFC600"/><path d="M52.789 12.283c-5.115-.761-8.965-4.75-9.581-9.926A2.662 2.662 0 0040.575 0h-21.15a2.662 2.662 0 00-2.633 2.356c-.256 2.15-1.077 4.155-2.375 5.801a.879.879 0 001.38 1.088c1.499-1.9 2.446-4.21 2.74-6.68a.904.904 0 01.888-.807h21.15c.45 0 .832.347.887.807.711 5.973 5.16 10.577 11.068 11.457.714.106 1.253.741 1.253 1.477v12.16A30.99 30.99 0 0137.274 55.1l-4.74 2.513a5.395 5.395 0 01-5.06 0l-4.744-2.515a30.99 30.99 0 01-16.513-27.44V15.499c0-.736.539-1.37 1.253-1.477a13.148 13.148 0 005.064-1.85.879.879 0 10-.931-1.49 11.404 11.404 0 01-4.392 1.601c-1.569.234-2.752 1.617-2.752 3.216v12.158A32.818 32.818 0 0021.907 56.65l4.745 2.514a7.153 7.153 0 006.705 0l4.74-2.513A32.819 32.819 0 0055.54 27.66V15.5c0-1.6-1.183-2.983-2.751-3.217z" fill="#000"/><path d="M45.908 43.75a.879.879 0 001.216-.257 29.822 29.822 0 004.85-16.323V17.113a1.47 1.47 0 00-1.338-1.467c-4.261-.403-10.336-5.724-10.71-10.614a1.477 1.477 0 00-1.468-1.356h-17.11c-.767 0-1.412.597-1.469 1.359-.366 4.894-6.33 10.213-10.516 10.611a1.47 1.47 0 00-1.338 1.467v9.97A29.964 29.964 0 0023.99 53.616l4.307 2.283a3.641 3.641 0 003.413 0l4.375-2.32a29.77 29.77 0 008.518-6.754.879.879 0 10-1.324-1.155 28.018 28.018 0 01-8.017 6.356l-4.375 2.32a1.884 1.884 0 01-1.767 0l-4.307-2.283a28.21 28.21 0 01-15.031-24.98v-9.715c2.356-.308 5.123-1.8 7.458-4.036 2.503-2.395 4.082-5.258 4.367-7.898h16.59c.292 2.638 1.907 5.502 4.466 7.904 2.38 2.232 5.181 3.723 7.553 4.03v9.802a28.068 28.068 0 01-4.566 15.364.879.879 0 00.257 1.216z" fill="#000"/><path d="M44.387 22.163a.879.879 0 00.356-1.191 16.773 16.773 0 00-2.634-3.614c-6.378-6.672-16.999-6.91-23.676-.529a16.642 16.642 0 00-5.175 11.726 16.623 16.623 0 004.632 11.947 16.69 16.69 0 0012.104 5.163c10.575-.026 18.147-9.486 16.535-19.438a.88.88 0 00-1.735.282c1.514 9.572-6.05 17.444-14.8 17.4a14.945 14.945 0 01-10.833-4.622 14.876 14.876 0 01-4.146-10.691A14.896 14.896 0 0119.647 18.1c5.977-5.711 15.483-5.5 21.191.473a14.996 14.996 0 012.358 3.235.879.879 0 001.191.355z" fill="#000"/><path d="M21.66 36.907a.879.879 0 10-1.275 1.21c2.458 2.589 5.962 4.112 9.611 4.12 5.867.09 11.569-4.242 12.897-10.068 2.756-11.79-9.705-20.5-19.728-14.598a13.266 13.266 0 00-5.881 15.21.879.879 0 101.682-.507 11.51 11.51 0 015.104-13.196c9.236-5.355 19.502 3.106 17.117 12.666a11.448 11.448 0 01-5.246 7.09c-4.591 2.759-10.597 1.948-14.282-1.928z" fill="#000"/><path d="M23.467 22.383a2.665 2.665 0 000 3.764c.91.942 2.706 1.086 3.764 0a2.665 2.665 0 000-3.764c-.91-.942-2.706-1.086-3.764 0zm2.521 1.243a.905.905 0 010 1.278.935.935 0 01-1.278 0 .905.905 0 010-1.278.934.934 0 011.278 0zm6.784 8.062c-.942.91-1.086 2.706 0 3.764.91.942 2.706 1.086 3.764 0 .942-.91 1.086-2.705 0-3.764-.971-.994-2.73-1.029-3.764 0zm2.521 2.521a.935.935 0 01-1.278 0 .935.935 0 010-1.278.932.932 0 011.278 0c.257.27.41.823 0 1.278zm-.233-11.532l-11.29 11.29a.879.879 0 001.242 1.244l11.29-11.291a.879.879 0 10-1.242-1.243z" fill="#000"/></svg>