<svg width="60" height="60" fill="none" xmlns="http://www.w3.org/2000/svg"><path d="M30 59.121c16.083 0 29.121-13.038 29.121-29.121S46.083.879 30 .879.879 13.917.879 30 13.917 59.121 30 59.121z" fill="#FFDD4D"/><path d="M30 .879c-.52 0-1.037.014-1.55.041C43.813 1.726 56.022 14.437 56.022 30c0 15.563-12.209 28.275-27.572 29.08.514.027 1.03.041 1.55.041 16.083 0 29.12-13.038 29.12-29.121S46.083.879 30 .879z" fill="#FFC80A"/><path d="M30 52.693c12.532 0 22.692-10.16 22.692-22.693 0-12.533-10.16-22.692-22.693-22.692C17.466 7.308 7.307 17.468 7.307 30c0 12.533 10.16 22.693 22.692 22.693z" fill="#fff"/><path d="M30 7.308c-.629 0-1.25.026-1.866.076C39.794 8.334 48.96 18.096 48.96 30s-9.166 21.667-20.826 22.616c.615.05 1.238.077 1.866.077 12.533 0 22.692-10.16 22.692-22.693 0-12.533-10.16-22.692-22.692-22.692z" fill="#fff"/><path d="M30 32.346a2.346 2.346 0 100-4.692 2.346 2.346 0 000 4.692z" fill="#365E7D"/><path d="M30 14.292a.879.879 0 00.879-.879v-1.29a.879.879 0 00-1.758 0v1.29a.88.88 0 00.879.879zm13.214 2.466a.879.879 0 00-1.242 0l-.913.912a.879.879 0 101.243 1.243l.912-.913a.88.88 0 000-1.242zm3.278 12.363a.879.879 0 000 1.758h1.29a.879.879 0 100-1.758h-1.29zM42.235 41.06a.88.88 0 00-1.243 1.243l.912.912a.877.877 0 001.243 0 .879.879 0 000-1.243l-.912-.912zm-13.21 5.432v1.29a.879.879 0 101.758 0v-1.29a.879.879 0 10-1.758 0zm-11.424-5.5l-.912.912a.879.879 0 101.243 1.243l.912-.912a.879.879 0 00-1.243-1.243zm-5.478-11.967a.879.879 0 000 1.758h1.29a.879.879 0 100-1.758h-1.29zm6.79-11.423L18 16.689a.88.88 0 00-1.243 1.244l.913.912a.876.876 0 001.243 0 .879.879 0 000-1.243zM32.356 32.2l6.26 3.218a.879.879 0 10.804-1.563l-6.258-3.218a3.23 3.23 0 00-2.282-3.74V17.94a.879.879 0 00-1.758 0v8.959a3.236 3.236 0 00-2.223 2.223h-4.363a.879.879 0 000 1.758H26.9a3.23 3.23 0 003.1 2.345c.928 0 1.766-.395 2.355-1.026zM30 31.466A1.469 1.469 0 0128.534 30c0-.809.658-1.467 1.466-1.467a1.468 1.468 0 01.001 2.934z" fill="#000"/><path d="M52.692 29.12a.879.879 0 00.809-.944 23.484 23.484 0 00-7.449-15.436A23.491 23.491 0 0030 6.43C17.002 6.429 6.428 17.003 6.428 30c0 12.998 10.574 23.572 23.571 23.572 12.293 0 22.562-9.47 23.502-21.748a.88.88 0 00-1.753-.134C50.88 43.027 41.398 51.814 30 51.814 17.971 51.814 8.186 42.028 8.186 30S17.97 8.187 29.999 8.187a21.74 21.74 0 0114.856 5.84 21.73 21.73 0 016.893 14.283.878.878 0 00.944.81z" fill="#000"/><path d="M51.214 8.787C45.547 3.12 38.014 0 30 0a29.898 29.898 0 00-16.179 4.732.879.879 0 10.95 1.48A28.143 28.143 0 0130 1.758c7.543 0 14.635 2.937 19.97 8.272 5.334 5.334 8.272 12.426 8.272 19.97 0 15.609-12.632 28.242-28.243 28.242-2.789 0-5.548-.407-8.2-1.21a.878.878 0 10-.51 1.682A30.022 30.022 0 0030 60c16.58 0 30-13.418 30-30 0-8.013-3.12-15.547-8.786-21.213zm-32.61 47.06A28.271 28.271 0 011.758 30c0-8.45 3.74-16.388 10.26-21.778a.879.879 0 00-1.12-1.355A29.924 29.924 0 000 30a30.03 30.03 0 0017.894 27.455.876.876 0 001.16-.45.88.88 0 00-.45-1.158z" fill="#000"/></svg>