<svg width="60" height="60" fill="none" xmlns="http://www.w3.org/2000/svg"><g clip-path="url(#clip0)"><path fill-rule="evenodd" clip-rule="evenodd" d="M58.71 39.794H36.495l-1.63 2.451 1.63 2.05h22.627v-4.092a.409.409 0 00-.41-.41z" fill="#E8EAEA"/><path fill-rule="evenodd" clip-rule="evenodd" d="M59.12 42.042H36.495v2.252h22.627v-2.252z" fill="#D4D6D8"/><path fill-rule="evenodd" clip-rule="evenodd" d="M41.472 31.628L40.27 25.38c-.07-.369-.308-.68-.684-.68h-3.82c-.779 2.614-1.636 4.76.73 7.784h4.333c.536 0 .74-.369.644-.856z" fill="#FE636E"/><path fill-rule="evenodd" clip-rule="evenodd" d="M36.495 46.783v-14.3c0-2.843.128-4.882-.729-7.783-2.179-7.357-9-12.727-17.08-12.727C8.85 11.973.88 19.93.88 29.742c0 9.815 7.97 17.768 17.808 17.768h17.076a.732.732 0 00.732-.727z" fill="#FFDD4D"/><path fill-rule="evenodd" clip-rule="evenodd" d="M27.698 29.741c0-4.967-4.033-8.99-9.011-8.99-4.982 0-9.014 4.023-9.014 8.99 0 4.97 4.032 8.994 9.014 8.994H27a.701.701 0 00.698-.7v-8.294z" fill="#E8EAEA"/><path fill-rule="evenodd" clip-rule="evenodd" d="M18.687 11.973C8.849 11.973.879 19.93.879 29.742h4.104c.525 0 .393.05.413-.49a13.22 13.22 0 013.887-8.893 13.258 13.258 0 018.909-3.875c.542-.02.495.108.495-.416v-4.095zm17.808 31.03H19.36a.675.675 0 00-.675.673v3.834h17.076a.732.732 0 00.732-.727v-3.78zM22.184 31.307v-3.131c0-.385-.315-.7-.701-.7h-5.595a.702.702 0 00-.701.7v3.131c0 .386.315.703.701.703h5.595a.705.705 0 00.701-.703z" fill="#fff"/><path fill-rule="evenodd" clip-rule="evenodd" d="M27.697 29.741c0-4.967-4.032-8.99-9.01-8.99-.519 0-1.024.044-1.515.125 4.256.72 7.496 4.412 7.496 8.865v8.294a.7.7 0 01-.698.7H27a.701.701 0 00.697-.7v-8.294z" fill="#D4D6D8"/><path fill-rule="evenodd" clip-rule="evenodd" d="M22.184 31.307v-3.131c0-.385-.315-.7-.701-.7h-2.43c.386 0 .705.315.705.7v3.131a.708.708 0 01-.705.703h2.43a.705.705 0 00.701-.703zm14.311 11.696H32.38v3.78a.729.729 0 01-.729.727h4.11a.732.732 0 00.733-.727v-3.78z" fill="#fff"/><path fill-rule="evenodd" clip-rule="evenodd" d="M36.495 29.742v-.02.02zm0 2.742c0-.988.013-1.877 0-2.742v2.742zm-.505-6.952v-.007.007zm.505 14.262v-7.31c0-.988.013-1.877 0-2.742v-.02a20.876 20.876 0 00-.2-2.655h-.004a16.122 16.122 0 00-.301-1.532v-.01a27.978 27.978 0 00-.224-.825c-2.18-7.357-9-12.727-17.08-12.727v.477c7.852 1.853 13.694 8.893 13.694 17.292v13.26h4.114v-3.208z" fill="#FFC80A"/><path fill-rule="evenodd" clip-rule="evenodd" d="M41.472 31.628L40.27 25.38c-.071-.369-.308-.68-.684-.68h-2.427c.373.004.607.315.678.68l1.203 6.248c.091.487-.108.856-.644.856h2.433c.536 0 .739-.369.644-.856z" fill="#F93E55"/><path d="M58.711 38.915H37.373v-5.552h3.456c.498 0 .928-.189 1.21-.531.294-.357.399-.844.297-1.37l-1.203-6.249c-.161-.832-.783-1.392-1.548-1.392h-3.178c-2.485-7.389-9.49-12.727-17.72-12.727C8.383 11.095 0 19.46 0 29.742s8.383 18.647 18.687 18.647h17.076c.888 0 1.61-.72 1.61-1.606v-1.61h7.854a.879.879 0 100-1.758h-7.854v-2.742h20.87v2.743h-9.437a.879.879 0 100 1.757h9.436v2.854a.879.879 0 101.758 0v-7.824a1.29 1.29 0 00-1.289-1.288zM39.413 25.579l1.16 6.026h-3.2v-1.863a18.6 18.6 0 00-.47-4.163h2.51zM1.78 30.62h3.202l.115.001h.068c.237 0 .562-.021.83-.294.292-.296.283-.648.278-.836a3.109 3.109 0 010-.208 12.3 12.3 0 012.17-6.552.88.88 0 00-1.447-.998 14.056 14.056 0 00-2.462 7.13H1.781c.444-8.616 7.39-15.545 16.027-15.988v2.748a14.099 14.099 0 00-7.621 2.794.879.879 0 001.053 1.408 12.355 12.355 0 016.985-2.463c.085-.003.153-.001.206 0 .19.003.544.012.84-.28.3-.297.297-.648.295-.905v-3.302c8.927.458 16.05 7.848 16.05 16.866v12.383H19.36c-.857 0-1.553.696-1.553 1.551v2.933C9.172 46.166 2.226 39.236 1.78 30.621zm33.835 16.01h-16.05v-2.748h16.05v2.749z" fill="#273142"/><path d="M18.687 39.614H27a1.58 1.58 0 001.576-1.579v-8.294c0-5.442-4.436-9.87-9.89-9.87-5.454 0-9.892 4.428-9.892 9.87 0 5.444 4.438 9.873 9.893 9.873zm0-17.984c4.484 0 8.132 3.639 8.132 8.111v8.115h-8.132c-4.486 0-8.135-3.64-8.135-8.115 0-4.473 3.65-8.111 8.135-8.111z" fill="#273142"/><path d="M15.888 32.89h5.595c.871 0 1.58-.71 1.58-1.583v-3.131c0-.87-.709-1.58-1.58-1.58h-5.595c-.871 0-1.58.71-1.58 1.58v3.13c0 .873.709 1.583 1.58 1.583zm.177-4.535h5.24v2.776h-5.24v-2.776z" fill="#273142"/></g><defs><clipPath id="clip0"><path fill="#fff" d="M0 0h60v60H0z"/></clipPath></defs></svg>