<svg width="60" height="60" fill="none" xmlns="http://www.w3.org/2000/svg"><path d="M52.602 59.028H7.397a3.516 3.516 0 01-3.515-3.516v-4.89l52.236-9.492v14.382a3.516 3.516 0 01-3.516 3.516z" fill="#fff"/><path d="M43.038 55.513H7.403a3.522 3.522 0 01-3.521-3.522V8.324a3.522 3.522 0 013.521-3.522h45.193a3.521 3.521 0 013.522 3.522v34.109c0 .934-2.129 1.83-2.79 2.49l-7.8 7.8c-.66.66-1.556 2.79-2.49 2.79z" fill="#fff"/><path d="M38.806 55.512h2.789a2.885 2.885 0 002.885-2.885V46.76a2.885 2.885 0 012.885-2.885h5.867a2.885 2.885 0 002.886-2.885v-3.655 5.081c0 .934-.372 1.83-1.032 2.49l-9.575 9.575a3.521 3.521 0 01-2.49 1.032h-4.215z" fill="#fff"/><path d="M56.118 8.318v9.044H3.883V8.318a3.516 3.516 0 013.515-3.516h45.204a3.516 3.516 0 013.516 3.516z" fill="#FECE85"/><path d="M13.834 10.938h-1.725a2.675 2.675 0 01-2.673-2.672V4.802h1.757v3.464c0 .504.41.914.916.914.485 0 2.21 1.758 1.725 1.758zm31.928 0h-1.726a2.675 2.675 0 01-2.672-2.672V4.802h1.758v3.464c0 .504.41.914.914.914.486 0 1.726 1.273 1.726 1.758z" fill="#FFC80A"/><path d="M14.178 28.493H9.992a.837.837 0 01-.837-.837v-4.185c0-.462.375-.837.837-.837h4.186c.462 0 .837.375.837.837v4.185a.837.837 0 01-.837.837zm11.942 0h-4.184a.837.837 0 01-.837-.837v-4.185c0-.462.374-.837.837-.837h4.185c.462 0 .837.375.837.837v4.185a.837.837 0 01-.837.837zm11.944 0H33.88a.837.837 0 01-.837-.837v-4.185c0-.462.375-.837.837-.837h4.185c.463 0 .837.375.837.837v4.185a.837.837 0 01-.837.837zm11.944 0h-4.186a.837.837 0 01-.837-.837v-4.185c0-.462.375-.837.837-.837h4.186c.462 0 .837.375.837.837v4.185a.837.837 0 01-.837.837zm-35.83 10.872H9.992a.837.837 0 01-.837-.837v-4.186c0-.462.375-.837.837-.837h4.186c.462 0 .837.375.837.837v4.186a.837.837 0 01-.837.837zm11.942 0h-4.184a.837.837 0 01-.837-.837v-4.186c0-.462.374-.837.837-.837h4.185c.462 0 .837.375.837.837v4.186a.837.837 0 01-.837.837zm11.944 0H33.88a.837.837 0 01-.837-.837v-4.186c0-.462.375-.837.837-.837h4.185c.463 0 .837.375.837.837v4.186a.837.837 0 01-.837.837zm11.944.261h-4.186a.837.837 0 01-.837-.837v-4.185c0-.462.375-.837.837-.837h4.186c.462 0 .837.375.837.837v4.185a.837.837 0 01-.837.837zm-35.83 10.611H9.992a.837.837 0 01-.837-.837v-4.185c0-.463.375-.837.837-.837h4.186c.462 0 .837.374.837.837V49.4a.837.837 0 01-.837.837zm11.942 0h-4.184a.837.837 0 01-.837-.837v-4.185c0-.463.374-.837.837-.837h4.185c.462 0 .837.374.837.837V49.4a.837.837 0 01-.837.837zm11.944 0H33.88a.837.837 0 01-.837-.837v-4.185c0-.463.375-.837.837-.837h4.185c.463 0 .837.374.837.837V49.4a.837.837 0 01-.837.837z" fill="#FFDD4D"/><path d="M45.822 29.467h4.185c.947 0 1.716-.77 1.716-1.716v-4.185c0-.946-.77-1.716-1.716-1.716h-4.185c-.946 0-1.716.77-1.716 1.716v4.185c0 .947.77 1.716 1.716 1.716zm.042-5.86h4.102v4.102h-4.102v-4.101zM45.822 40.6h4.185c.947 0 1.716-.77 1.716-1.716V34.7c0-.946-.77-1.716-1.716-1.716h-4.185c-.946 0-1.716.77-1.716 1.716v4.185c0 .946.77 1.716 1.716 1.716zm.042-5.86h4.102v4.102h-4.102v-4.101zm-11.985-5.273h4.185c.946 0 1.716-.77 1.716-1.716v-4.185c0-.946-.77-1.716-1.716-1.716h-4.185c-.946 0-1.716.77-1.716 1.716v4.185c0 .947.77 1.716 1.716 1.716zm.042-5.86h4.101v4.102h-4.101v-4.101zM14.178 43.595H9.992c-.946 0-1.716.77-1.716 1.716v4.185c0 .946.77 1.716 1.716 1.716h4.185c.947 0 1.716-.77 1.716-1.716V45.31c0-.946-.77-1.716-1.716-1.716zm-.042 5.86h-4.102v-4.102h4.102v4.101zm.042-27.604H9.992c-.946 0-1.716.77-1.716 1.716v4.185c0 .947.77 1.716 1.716 1.716h4.185c.947 0 1.716-.77 1.716-1.716v-4.185c0-.946-.77-1.716-1.716-1.716zm-.042 5.86h-4.102v-4.102h4.102v4.101zm19.743 12.63h4.185c.946 0 1.716-.77 1.716-1.717v-4.185c0-.946-.77-1.716-1.716-1.716h-4.185c-.946 0-1.716.77-1.716 1.716v4.185c0 .946.77 1.716 1.716 1.716zm.042-5.86h4.101v4.101h-4.101V34.48zM52.596 4.016H48.84V2.673A2.676 2.676 0 0046.166 0h-.404a2.676 2.676 0 00-2.672 2.673v1.343H16.91V2.673A2.676 2.676 0 0014.237 0h-.403a2.676 2.676 0 00-2.673 2.673v1.343H7.403a4.405 4.405 0 00-4.4 4.4v47.19A4.4 4.4 0 007.397 60h45.205a4.4 4.4 0 004.395-4.395V8.417c0-2.426-1.974-4.4-4.4-4.4zm-7.749-1.343c0-.505.41-.915.915-.915h.404c.504 0 .915.41.915.915v1.343h-2.234V2.673zm-31.928 0c0-.505.41-.915.915-.915h.403c.505 0 .915.41.915.915v1.343H12.92V2.673zm42.32 52.932a2.64 2.64 0 01-2.637 2.637H7.397a2.64 2.64 0 01-2.636-2.636V55.6a4.378 4.378 0 002.642.884h35.635c1.175 0 2.28-.457 3.112-1.289l9.089-9.089v9.5zm-9.986-1.999a3.76 3.76 0 00.106-.886v-5.867c0-1.106.9-2.006 2.007-2.006h5.866c.306 0 .602-.038.887-.107l-8.866 8.866zm9.986-37.03h-37.45a.879.879 0 000 1.758h37.45v22.749c0 1.106-.9 2.006-2.007 2.006h-5.866a3.769 3.769 0 00-3.765 3.764v5.867c0 1.107-.9 2.007-2.006 2.007H7.403a2.646 2.646 0 01-2.642-2.643v-33.75h9.512a.879.879 0 000-1.757H4.761v-8.16a2.646 2.646 0 012.642-2.643h3.758V8.36a2.676 2.676 0 002.673 2.672.879.879 0 000-1.758.916.916 0 01-.915-.914V5.774h30.17V8.36a2.676 2.676 0 002.673 2.672.879.879 0 000-1.758.916.916 0 01-.915-.914V5.774h7.75a2.646 2.646 0 012.642 2.643v8.16zM14.178 32.723H9.992c-.946 0-1.716.77-1.716 1.716v4.185c0 .946.77 1.716 1.716 1.716h4.185c.947 0 1.716-.77 1.716-1.716v-4.185c0-.946-.77-1.716-1.716-1.716zm-.042 5.86h-4.102V34.48h4.102v4.101zm7.8-9.115h4.185c.946 0 1.716-.77 1.716-1.716v-4.185c0-.946-.77-1.716-1.716-1.716h-4.185c-.947 0-1.716.77-1.716 1.716v4.185c0 .947.77 1.716 1.716 1.716zm.041-5.86h4.102v4.102h-4.102v-4.101zM33.92 49.454a.879.879 0 00-1.757.042c0 .946.77 1.716 1.716 1.716h4.185c.946 0 1.716-.77 1.716-1.716V45.31c0-.946-.77-1.716-1.716-1.716h-4.185c-.947 0-1.716.77-1.716 1.716v1.207a.879.879 0 001.758 0v-1.165h4.101v4.101H33.92zM21.935 40.34h4.186c.946 0 1.716-.77 1.716-1.716v-4.185c0-.946-.77-1.716-1.716-1.716h-4.185c-.947 0-1.716.77-1.716 1.716v4.185c0 .946.77 1.716 1.716 1.716zm.042-5.86h4.102v4.102h-4.102V34.48zm-.041 16.732h4.185c.946 0 1.716-.77 1.716-1.716V45.31c0-.946-.77-1.716-1.716-1.716h-4.185c-.947 0-1.716.77-1.716 1.716v4.185c0 .946.77 1.716 1.716 1.716zm.041-5.86h4.102v4.102h-4.102v-4.101z" fill="#525A68"/></svg>