<svg width="60" height="60" fill="none" xmlns="http://www.w3.org/2000/svg"><path d="M47.813 22.5H26.25V1.875h21.563c5.695 0 10.312 4.617 10.312 10.313 0 5.695-4.617 10.312-10.313 10.312z" fill="#fff"/><path d="M54.375 24.375v-4.233a10.27 10.27 0 01-6.563 2.358H33.75v3.75h3.75l4.688 15h13.124l-4.687-13.125 3.75-3.75z" fill="#FFDD4D"/><path d="M33.75 37.5h7.266L38.672 30H33.75l.55.55a4.527 4.527 0 010 6.4l-.55.55z" fill="#fff"/><path d="M26.25 3.75l-5.625 1.875V18.75l5.625 1.875V3.75z" fill="#FFDD4D"/><path d="M16.875 7.5h3.75v9.375h-3.75V7.5z" fill="#fff"/><path d="M13.125 18.75h3.75V5.625h-3.75l-7.5 3.75V15l7.5 3.75z" fill="#FFDD4D"/><path d="M48.75 1.922v20.531c5.256-.474 9.375-4.886 9.375-10.265 0-5.38-4.12-9.792-9.375-10.266z" fill="#fff"/><path d="M48.75 5.691a6.564 6.564 0 010 12.992V5.691zM30 15.938h5.625v3.75H30v-3.75zm0-14.063h15V7.5H30V1.875z" fill="#FFC80A"/><path d="M39.375 41.25h18.75v5.625h-18.75V41.25zm-18.75 16.875h-2.813V52.5h2.813a2.812 2.812 0 110 5.625z" fill="#fff"/><path d="M35.625 15H30a.937.937 0 00-.938.938v3.75c0 .517.42.937.938.937h5.625c.518 0 .938-.42.938-.938v-3.75a.937.937 0 00-.938-.937zm-.938 3.75h-3.75v-1.875h3.75v1.875z" fill="#273142"/><path d="M58.125 40.313h-2.153l-4.265-11.944 3.33-3.331a.935.935 0 00.276-.663v-3.75h-.084c2.344-2.063 3.834-5.077 3.834-8.438 0-6.203-5.047-11.25-11.25-11.25H26.25a.937.937 0 00-.938.938v1.2l-4.983 1.66a.938.938 0 00-.642.89v.938h-1.875v-.938a.937.937 0 00-.937-.938h-3.75a.94.94 0 00-.42.099l-7.5 3.75a.939.939 0 00-.518.839H.938v1.875h3.75v1.875H.938V15h3.75c0 .355.201.68.519.84l7.5 3.75a.94.94 0 00.419.098h3.75c.518 0 .938-.42.938-.938v-.938h1.875v.938c0 .404.257.761.64.89l4.985 1.66v1.2c0 .517.419.938.937.938h6.563v2.812c0 .517.419.938.937.938h3.06l.587 1.875H33.75a.938.938 0 00-.663 1.6l.55.55a3.566 3.566 0 011.05 2.537 3.57 3.57 0 01-1.05 2.538l-.55.55a.937.937 0 00.663 1.6h6.563v-.046l.6 1.92h-1.538a.937.937 0 00-.938.938v2.813h-8.906a4.224 4.224 0 00-4.218 4.218A4.224 4.224 0 0029.53 52.5h9.844a.938.938 0 010 1.875H24.242c-.42-1.612-1.874-2.813-3.617-2.813h-2.813a.937.937 0 00-.937.938H15v1.875h1.875v1.875H15v1.875h1.875c0 .517.42.938.938.938h2.812c1.743 0 3.198-1.2 3.617-2.813h15.133a2.816 2.816 0 002.813-2.813 2.816 2.816 0 00-2.813-2.812h-9.844a2.346 2.346 0 01-2.343-2.344 2.346 2.346 0 012.343-2.343h8.907v.937c0 .517.419.938.937.938h18.75c.518 0 .938-.42.938-.938V41.25a.937.937 0 00-.938-.938zM6.562 9.953l5.625-2.812v10.091L6.563 14.42V9.954zm9.375 7.858h-1.874V6.563h1.874v11.25zm4.688 39.376H18.75v-3.75h1.875a1.876 1.876 0 010 3.75zm36.563-45c0 4.527-3.226 8.314-7.5 9.185v-1.928c3.256-.843 5.624-3.828 5.624-7.258s-2.368-6.415-5.624-7.259V3.002c4.274.87 7.5 4.658 7.5 9.185zm-7.5 4.687h1.19a5.55 5.55 0 01-1.19.61v-.61zM52.67 15h-2.983v-1.875h3.664A5.606 5.606 0 0152.67 15zm-2.983-3.75V9.375h2.983c.332.573.566 1.205.68 1.875h-3.663zm0-3.75v-.61c.427.153.82.365 1.191.61h-1.19zm-18.75-4.688h13.125v3.75H30.938v-3.75zM17.813 15.938v-7.5h1.875v7.5h-1.875zm3.75 2.136V6.301l3.75-1.25v14.274l-3.75-1.25zm5.625-15.262h1.875V7.5c0 .518.42.938.938.938h15c.518 0 .938-.42.938-.938V2.812h1.874v18.75H27.189V2.813zm8.598 33.75c.508-.84.778-1.805.778-2.812s-.27-1.973-.778-2.813h2.198l1.758 5.625h-3.956zm2.61-10.591a.937.937 0 00-.895-.659h-2.813v-1.875h13.126c2.05 0 3.968-.56 5.624-1.522v2.072l-3.475 3.475a.937.937 0 00-.22.978l4.24 11.872H42.877l-4.483-14.341zm18.792 19.966H40.314v-3.75h16.874v3.75z" fill="#273142"/></svg>