<svg width="40" height="40" fill="none" xmlns="http://www.w3.org/2000/svg"><path d="M35.377 15.86a.547.547 0 00.547-.547v-2.344a.547.547 0 00-.547-.547h-3.033V8.984a.543.543 0 00-.094-.307l-2.97-4.361a.568.568 0 00-.904 0l-2.97 4.36a.543.543 0 00-.095.308v3.438h-1.797V8.984a.542.542 0 00-.093-.307l-2.969-4.361a.566.566 0 00-.904 0l-2.968 4.36a.542.542 0 00-.094.308v3.438h-1.8V8.984a.542.542 0 00-.093-.307l-2.97-4.361a.566.566 0 00-.903 0l-2.97 4.36a.542.542 0 00-.094.308v3.438H4.623a.545.545 0 00-.547.547v2.344a.546.546 0 00.547.546h3.033v11.875H4.623a.547.547 0 00-.547.547v2.344a.546.546 0 00.547.547h3.033v4.205a.547.547 0 00.547.547h5.938a.547.547 0 00.546-.547v-4.205h1.797v4.205a.549.549 0 00.547.547h5.938a.547.547 0 00.546-.547v-4.205h1.797v4.205a.547.547 0 00.547.547h5.938a.547.547 0 00.547-.547v-4.205h3.033a.547.547 0 00.547-.547v-2.344a.547.547 0 00-.547-.547h-3.033V15.86h3.033zm-.547-2.344v1.25h-2.486v-1.25h2.486zm-11.314 2.343h1.796v11.875h-1.797V15.86zm1.796-2.343v1.25h-1.797v-1.25h1.797zm-10.625 2.343h1.797v11.875h-1.797V15.86zm1.797-2.343v1.25h-1.797v-1.25h1.797zM5.17 14.766v-1.25h2.486v1.25H5.17zm0 15.312v-1.25h2.486v1.25H5.17zm8.424 4.752H8.75V9.153l2.422-3.56 2.422 3.56V34.83zm1.093-4.752v-1.25h1.797v1.25h-1.797zm7.735 4.752h-4.844V9.153L20 5.593l2.422 3.559V34.83zm1.093-4.752v-1.25h1.797v1.25h-1.797zm7.735 4.752h-4.844V9.153l2.422-3.56 2.422 3.56V34.83zm3.58-6.002v1.25h-2.486v-1.25h2.486z" fill="#273142"/><path d="M11.172 13.3a.772.772 0 100 1.544.772.772 0 000-1.543zm8.828 0a.771.771 0 100 1.543.771.771 0 000-1.542zm8.828 0a.772.772 0 100 1.544.772.772 0 000-1.543zM11.172 28.682a.771.771 0 100 1.542.771.771 0 000-1.542zm8.828 0a.772.772 0 100 1.543.772.772 0 000-1.543zm8.828 0a.772.772 0 100 1.543.772.772 0 000-1.543z" fill="#273142"/></svg>