<svg width="80" height="80" fill="none" xmlns="http://www.w3.org/2000/svg"><path fill-rule="evenodd" clip-rule="evenodd" d="M73.75 16.25h2.5c1.379 0 2.5 1.121 2.5 2.5v45.078H1.25V18.75c0-1.379 1.121-2.5 2.5-2.5h2.5c1.379 0 2.5 1.121 2.5 2.5v2.578h62.5V18.75c0-1.379 1.121-2.5 2.5-2.5zM6.25 61.328h-2.5V18.75h2.5v42.578zm42.367-16.25l3.523-3.964 3.659 3.964-3.659 3.964-3.523-3.964zm1.82 5.81l-3.98 4.313-2.707-3.093v-1.555l3.195-3.594 3.491 3.93zm12.458-13.497l-3.723-4.188 3.382-3.804 4.013 4.014-3.672 3.978zm5.441-2.21l2.914 2.915v1.506l-3.195 3.594-3.491-3.928 3.772-4.086zm-7.145 4.056L57.5 43.236l-3.691-4 3.691-4.15 3.691 4.15zm4.326-10.409H70.8l-2.535 2.746-2.746-2.746zM57.5 31.321l-2.216-2.493h4.432L57.5 31.321zm-5.054-1.922l3.382 3.804-3.723 4.188-3.672-3.978 4.013-4.014zm-5.71 2.175l-2.535-2.746h5.282l-2.747 2.746zm3.7 7.694l-3.491 3.928-3.195-3.594v-1.506l2.914-2.914 3.772 4.086zm7.064 7.653l3.691 3.998-3.691 4.152-3.691-4.153 3.691-3.997zm1.701-1.843l3.659-3.964 3.522 3.964-3.522 3.964-3.659-3.964zm8.854 1.883l3.195 3.593v1.555l-2.705 3.093-3.98-4.313 3.49-3.928zm3.195-.172l-1.521-1.71 1.521-1.712v3.422zm0-12.228l-1.218-1.218 1.218-1.317v2.535zm0-10.733v2.5h-27.5v-2.5h27.5zm-26.282 9.515l-1.218 1.218v-2.535l1.218 1.317zm.303 11.735L43.75 46.79v-3.423l1.521 1.712zm-.521 11.97l-1 1.083v-2.227l1 1.144zm1.656 1.891l2.089 2.39h-4.294l2.205-2.39zm5.412 2.39l-3.707-4.237 3.994-4.326 3.723 4.187-3.89 4.375h-.12zm5.682-2.493l2.216 2.492h-4.432l2.216-2.492zm5.561 2.492l-3.889-4.375 3.723-4.187 3.994 4.326-3.706 4.236h-.122zm5.533-2.389l2.205 2.39h-4.294l2.089-2.39zm1.656-1.89l1-1.143v2.226l-1-1.084zm-34 1.082l-1-1.084 1-1.143v2.227zM13.617 45.078l3.523-3.964 3.659 3.964-3.659 3.964-3.523-3.964zm1.82 5.81l-3.98 4.313-2.707-3.093v-1.555l3.195-3.594 3.491 3.93zm12.458-13.497l-3.723-4.188 3.382-3.804 4.014 4.014-3.673 3.978zm5.441-2.21l2.914 2.915v1.506l-3.195 3.594-3.491-3.928 3.772-4.086zm-7.145 4.056L22.5 43.236l-3.691-4 3.691-4.15 3.691 4.15zm4.326-10.409H35.8l-2.535 2.746-2.747-2.746zM22.5 31.321l-2.216-2.493h4.432L22.5 31.321zm-5.054-1.922l3.381 3.804-3.722 4.188-3.673-3.978 4.014-4.014zm-5.71 2.175l-2.535-2.746h5.281l-2.746 2.746zm3.7 7.694l-3.491 3.928-3.195-3.594v-1.506l2.914-2.914 3.772 4.086zm7.064 7.653l3.691 3.998-3.691 4.152-3.691-4.153 3.691-3.997zm1.701-1.843l3.659-3.964 3.523 3.964-3.523 3.964-3.659-3.964zm8.854 1.883l3.195 3.593v1.555l-2.705 3.093-3.98-4.313 3.49-3.928zm3.195-.172l-1.521-1.71 1.521-1.712v3.422zm0-12.228l-1.218-1.218 1.218-1.317v2.535zm0-10.733v2.5H8.75v-2.5h27.5zM9.968 33.343L8.75 34.561v-2.535l1.217 1.317zm.303 11.735L8.75 46.79v-3.423l1.521 1.712zm-.521 11.97l-1 1.083v-2.227l1 1.144zm1.656 1.891l2.089 2.39H9.201l2.205-2.39zm5.411 2.39l-3.706-4.237 3.994-4.326 3.723 4.187-3.89 4.375h-.12zm5.683-2.493l2.216 2.492h-4.432l2.216-2.492zm5.561 2.492l-3.889-4.375 3.723-4.187 3.994 4.326-3.706 4.236h-.122zm5.533-2.389l2.205 2.39h-4.294l2.089-2.39zm42.656 2.39h-2.5V18.75h2.5v42.578zm-37.5 0h2.5v-37.5h-2.5v37.5z" fill="#273142"/></svg>