<svg width="80" height="80" fill="none" xmlns="http://www.w3.org/2000/svg"><path d="M70.754 31.719a1.094 1.094 0 001.093-1.094v-4.688a1.096 1.096 0 00-1.093-1.093h-6.067v-6.875a1.085 1.085 0 00-.187-.615L58.562 8.63a1.134 1.134 0 00-1.807 0l-5.943 8.723a1.084 1.084 0 00-.187.615v6.875h-3.594v-6.875a1.085 1.085 0 00-.187-.615L40.906 8.63a1.133 1.133 0 00-1.807 0l-5.938 8.723a1.085 1.085 0 00-.187.615v6.875h-3.599v-6.875a1.085 1.085 0 00-.188-.615L23.25 8.63a1.134 1.134 0 00-1.808 0L15.5 17.354a1.084 1.084 0 00-.188.615v6.875H9.247a1.095 1.095 0 00-1.094 1.093v4.688a1.093 1.093 0 001.094 1.094h6.066v23.75H9.247a1.095 1.095 0 00-1.094 1.093v4.688a1.093 1.093 0 001.094 1.094h6.066v8.41a1.092 1.092 0 001.094 1.093h11.875a1.094 1.094 0 001.094-1.093v-8.41h3.594v8.41a1.093 1.093 0 001.093 1.093h11.876a1.093 1.093 0 001.093-1.093v-8.41h3.594v8.41a1.093 1.093 0 001.094 1.093h11.875a1.094 1.094 0 001.093-1.093v-8.41h6.067a1.094 1.094 0 001.093-1.094v-4.688a1.096 1.096 0 00-1.093-1.093h-6.067v-23.75h6.067zM69.66 27.03v2.5h-4.972v-2.5h4.972zm-22.629 4.69h3.594v23.75h-3.594V31.72zm3.594-4.688v2.5h-3.594v-2.5h3.594zm-21.25 4.688h3.594v23.75h-3.594V31.72zm3.594-4.688v2.5h-3.594v-2.5h3.594zm-22.629 2.5v-2.5h4.973v2.5H10.34zm0 30.625v-2.5h4.973v2.5H10.34zm16.848 9.504H17.5V18.306l4.844-7.119 4.843 7.119V69.66zm2.187-9.504v-2.5h3.594v2.5h-3.594zm15.469 9.504h-9.688V18.306L40 11.187l4.844 7.116V69.66zm2.187-9.504v-2.5h3.594v2.5h-3.594zM62.5 69.66h-9.688V18.306l4.844-7.119 4.844 7.119V69.66zm7.16-12.004v2.5h-4.972v-2.5h4.972z" fill="#273142"/><path d="M22.344 26.602a1.543 1.543 0 100 3.086 1.543 1.543 0 000-3.086zm17.656 0a1.543 1.543 0 100 3.086 1.543 1.543 0 000-3.086zm17.656 0a1.543 1.543 0 100 3.086 1.543 1.543 0 000-3.086zM22.344 57.363a1.543 1.543 0 100 3.087 1.543 1.543 0 000-3.087zm17.656 0a1.543 1.543 0 100 3.086 1.543 1.543 0 000-3.086zm17.656 0a1.543 1.543 0 100 3.085 1.543 1.543 0 000-3.085z" fill="#273142"/></svg>