<svg width="80" height="80" fill="none" xmlns="http://www.w3.org/2000/svg"><g clip-path="url(#clip0)" fill="#273142"><path d="M80 32.283c0-.647-.525-1.172-1.172-1.172H1.172a1.172 1.172 0 000 2.344h.288a1.17 1.17 0 00.73 2.088 3.518 3.518 0 013.514 3.515 3.518 3.518 0 01-3.514 3.514 1.172 1.172 0 00-.482 2.24h-.536a1.172 1.172 0 000 2.344h77.656a1.172 1.172 0 000-2.344h-.536a1.172 1.172 0 00-.482-2.24 3.518 3.518 0 01-3.515-3.514 3.518 3.518 0 013.515-3.515 1.172 1.172 0 00.73-2.088h.288c.647 0 1.172-.525 1.172-1.172zm-9.763 12.529h-3.759V33.455h3.76v11.357zM9.763 33.455h3.759v11.357h-3.76V33.455zm16.56 2.962a5.888 5.888 0 00-3.517-2.962h3.517v2.962zm-1.714 2.64a3.518 3.518 0 01-3.514 3.515 3.518 3.518 0 01-3.514-3.514 3.518 3.518 0 013.514-3.515 3.518 3.518 0 013.514 3.515zm-8.744-2.638v-2.964h3.519a5.89 5.89 0 00-3.519 2.964zm0 5.277a5.877 5.877 0 004.13 3.116h-4.13v-3.116zm10.458.002v3.114h-4.128a5.877 5.877 0 004.128-3.114zm2.344-8.243h3.76v11.357h-3.76V33.455zm16.562 2.965a5.886 5.886 0 00-3.518-2.965h3.518v2.965zm-1.715 2.638A3.518 3.518 0 0140 42.572a3.518 3.518 0 01-3.514-3.514A3.518 3.518 0 0140 35.543a3.518 3.518 0 013.514 3.515zM34.77 36.42v-2.965h3.518a5.886 5.886 0 00-3.518 2.965zm0 5.276a5.878 5.878 0 004.13 3.116h-4.13v-3.116zm10.46 0v3.116H41.1a5.877 5.877 0 004.13-3.116zm2.343-8.241h3.76v11.357h-3.76V33.455zm16.561 2.964a5.89 5.89 0 00-3.518-2.964h3.518v2.964zm-1.715 2.639a3.518 3.518 0 01-3.514 3.514 3.518 3.518 0 01-3.515-3.514 3.518 3.518 0 013.515-3.515 3.518 3.518 0 013.514 3.515zm-8.742-2.64v-2.963h3.516a5.888 5.888 0 00-3.517 2.962zm0 5.28a5.877 5.877 0 004.128 3.114h-4.129v-3.114zm10.457-.002v3.116h-4.13a5.877 5.877 0 004.13-3.116zM3.902 33.455h3.517v2.962a5.888 5.888 0 00-3.517-2.962zm3.517 8.242v3.115h-4.13a5.876 5.876 0 004.13-3.115zm69.29 3.115h-4.128v-3.115a5.876 5.876 0 004.129 3.115zm-4.128-8.394v-2.963h3.517a5.887 5.887 0 00-3.517 2.963zM1.172 28.69H56.56a1.172 1.172 0 100-2.343h-2.884v-2.676a4.202 4.202 0 00-1.238-2.988 4.208 4.208 0 00-1.814-1.072v-3.998c.896.896 1.85 1.466 2.854 1.703a2.75 2.75 0 003.322-2.054 2.765 2.765 0 00-1.998-3.308c-.116-.074-.876-.626-1.938-2.871-.644-1.362-1.951-2.207-3.412-2.207-1.46 0-2.768.845-3.411 2.207-1.062 2.245-1.822 2.797-1.938 2.871a2.765 2.765 0 00-1.999 3.308 2.766 2.766 0 003.322 2.054c1.005-.236 1.959-.806 2.854-1.703v4a4.231 4.231 0 00-3.05 4.058v2.676H34.77v-2.676a4.201 4.201 0 00-1.237-2.987 4.198 4.198 0 00-1.814-1.073v-3.998c.896.896 1.85 1.466 2.855 1.703a2.752 2.752 0 003.322-2.054 2.765 2.765 0 00-1.999-3.308c-.116-.074-.876-.626-1.938-2.871-.644-1.362-1.951-2.207-3.412-2.207-1.46 0-2.768.845-3.41 2.207-1.063 2.245-1.823 2.797-1.94 2.871a2.765 2.765 0 00-1.997 3.308 2.765 2.765 0 003.322 2.054c1.004-.236 1.958-.807 2.854-1.703v4a4.23 4.23 0 00-3.052 4.057v2.677H15.865V23.67a4.193 4.193 0 00-1.236-2.986 4.198 4.198 0 00-1.814-1.073v-3.998c.895.896 1.85 1.466 2.854 1.703a2.75 2.75 0 003.322-2.054 2.765 2.765 0 00-1.999-3.308c-.116-.074-.876-.626-1.938-2.871-.644-1.362-1.951-2.208-3.412-2.208-1.46 0-2.767.846-3.41 2.208-1.063 2.245-1.823 2.797-1.94 2.871a2.765 2.765 0 00-1.997 3.308 2.765 2.765 0 003.322 2.054c1.004-.236 1.958-.807 2.853-1.703v4a4.23 4.23 0 00-3.05 4.057v2.676H1.172a1.172 1.172 0 000 2.344zm43.717-13.655a.419.419 0 01-.193-.813c1.476-.348 2.803-2.741 3.464-4.138.252-.533.747-.865 1.292-.865s1.04.332 1.293.865c.66 1.397 1.988 3.79 3.463 4.138a.418.418 0 01-.191.814c-1.138-.27-2.312-1.435-3.403-3.38a1.172 1.172 0 00-2.323 0c-1.092 1.945-2.265 3.11-3.402 3.38zm2.684 8.635c0-1.03.835-1.87 1.865-1.88h.03c.496.005.962.2 1.313.55.356.357.552.829.552 1.33v2.677h-3.76V23.67zm-21.59-8.635a.419.419 0 01-.192-.813c1.476-.348 2.803-2.741 3.464-4.138.252-.533.747-.865 1.292-.865s1.04.332 1.293.865c.66 1.397 1.988 3.79 3.463 4.138a.418.418 0 01-.191.814c-1.138-.27-2.312-1.435-3.403-3.38a1.172 1.172 0 00-2.323 0c-1.091 1.945-2.265 3.11-3.402 3.38zm2.684 8.635c0-1.031.835-1.871 1.865-1.88h.031c.496.005.962.2 1.311.55.356.357.552.829.552 1.33v2.677h-3.76V23.67zM7.079 15.035a.419.419 0 01-.193-.814c1.476-.347 2.803-2.74 3.464-4.137.252-.533.747-.865 1.292-.865.546 0 1.041.332 1.293.865.66 1.396 1.988 3.79 3.463 4.138a.418.418 0 01-.191.813c-1.138-.268-2.312-1.434-3.403-3.378a1.172 1.172 0 00-2.323-.001c-1.091 1.945-2.264 3.11-3.402 3.38zm2.684 8.635c0-1.031.835-1.871 1.864-1.88h.031c.496.005.962.2 1.313.551.355.355.55.827.55 1.33v2.676H9.764V23.67zm51.485 5.02h17.58a1.172 1.172 0 000-2.343H72.58v-2.676a4.202 4.202 0 00-1.239-2.988 4.21 4.21 0 00-1.813-1.072v-3.998c.896.896 1.85 1.467 2.854 1.703a2.75 2.75 0 003.322-2.054 2.765 2.765 0 00-1.999-3.307c-.115-.075-.875-.627-1.937-2.872-.644-1.362-1.951-2.207-3.412-2.207-1.46 0-2.768.845-3.412 2.207-1.061 2.245-1.821 2.797-1.937 2.871a2.765 2.765 0 00-1.999 3.309 2.766 2.766 0 003.322 2.053c1.005-.236 1.958-.806 2.854-1.703v4a4.231 4.231 0 00-3.05 4.057v2.677h-2.887a1.172 1.172 0 100 2.344zm2.546-13.655a.419.419 0 01-.193-.813c1.476-.348 2.803-2.741 3.464-4.138.252-.533.747-.865 1.292-.865s1.04.332 1.293.865c.66 1.396 1.987 3.79 3.463 4.138a.418.418 0 01-.192.814c-1.138-.269-2.31-1.435-3.402-3.38a1.172 1.172 0 00-2.323 0c-1.092 1.945-2.265 3.111-3.402 3.38zm2.684 8.635c0-1.03.835-1.87 1.864-1.88h.031c.495.005.962.2 1.312.55.356.357.552.83.552 1.33v2.677h-3.759V23.67zm12.35 25.906H23.439a1.171 1.171 0 100 2.343h2.885V72.05a1.172 1.172 0 102.343 0V51.92h3.76v20.13a1.172 1.172 0 002.343 0V51.92h10.46v20.13a1.172 1.172 0 102.344 0V51.92h3.759v20.13a1.172 1.172 0 002.344 0V51.92h10.457v20.13a1.172 1.172 0 002.344 0V51.92h3.76v20.13a1.172 1.172 0 102.344 0V51.92h6.246a1.172 1.172 0 100-2.344zm-60.077 0h-4.057a.72.72 0 00-.036 0H1.172a1.172 1.172 0 100 2.343h6.247V72.05a1.172 1.172 0 002.344 0V51.92h3.759v20.13a1.172 1.172 0 002.344 0V51.92h2.885a1.172 1.172 0 000-2.344z"/></g><defs><clipPath id="clip0"><path fill="#fff" d="M0 0h80v80H0z"/></clipPath></defs></svg>