<svg width="76" height="62" fill="none" xmlns="http://www.w3.org/2000/svg"><path d="M74.875 26.417a139.275 139.275 0 00-4.375-2.42V17.5H68v5.203a140.56 140.56 0 00-3.75-1.826V15h-2.5v4.735A141.787 141.787 0 0058 18.13V5a1.25 1.25 0 00-1.25-1.25h-5A1.25 1.25 0 0050.5 5v10.294a140.557 140.557 0 00-3.75-1.24V8.75h-2.5v4.54a140.584 140.584 0 00-3.75-1.05V6.25H38v5.351a143.02 143.02 0 00-3.75-.87V5h-2.5v5.21A139.43 139.43 0 0028 9.52V3.75h-2.5v5.365c-1.247-.19-2.497-.364-3.75-.52V2.5h-2.5v5.803c-1.248-.134-2.498-.25-3.75-.35V1.25H13v6.525c-1.248-.078-2.498-.14-3.75-.184V0h-2.5v7.523C5.91 7.508 5.07 7.5 4.23 7.5H1.75A1.25 1.25 0 00.5 8.75V55a1.25 1.25 0 001.25 1.25h23.965a3.748 3.748 0 006.035 4.042 3.749 3.749 0 006.035-4.042H50.5V60a1.25 1.25 0 001.25 1.25h22.5A1.25 1.25 0 0075.5 60V27.5a1.25 1.25 0 00-.625-1.083zM64.25 38.75v-10H68v10h-3.75zm-2.5 0H60.5a1.25 1.25 0 00-1.213.947L58 44.847V28.75h3.75v10zm-.274 2.5h8.048l3.125 12.5H58.351l3.125-12.5zm10.237-1.553a1.25 1.25 0 00-1.213-.947v-10H73v16.096l-1.287-5.15zM68 25.509v.741h-3.75v-2.607A142.13 142.13 0 0168 25.509zm-6.25-3.033v3.774H58v-5.413c1.258.528 2.508 1.074 3.75 1.64zM55.5 26.25H53v-7.398c.836.314 1.67.635 2.5.965v6.433zm-2.5-20h2.5v10.881c-.83-.323-1.664-.638-2.5-.946V6.25zm-2.5 11.691v8.309h-3.75v-9.572c1.256.403 2.506.825 3.75 1.263zm0 30.809h-3.75v-20h3.75v20zm-41.25 0v-20H13v20H9.25zm6.25-20h3.75v20H15.5v-20zm6.25 0h3.75v20h-3.75v-20zm6.25 0h3.75v20H28v-20zm6.25 0H38v20h-3.75v-20zm6.25 0h3.75v20H40.5v-20zm3.75-12.85v10.35H40.5V14.828c1.255.34 2.505.697 3.75 1.071zM38 14.176V26.25h-3.75V13.29c1.254.279 2.504.574 3.75.887zm-6.25-1.415V26.25H28V12.056c1.253.218 2.503.453 3.75.706zm-6.25-1.119V26.25h-3.75V11.114c1.253.16 2.503.336 3.75.53zm-6.25-.824V26.25H15.5V10.46c1.252.102 2.502.222 3.75.359zm-6.25-.54V26.25H9.25V10.092c1.251.046 2.501.108 3.75.187zM3 10h1.23c.84 0 1.68.008 2.52.024V26.25H3V10zm3.75 18.75v20H3v-20h3.75zm22.5 30a1.25 1.25 0 110-2.5 1.25 1.25 0 010 2.5zm6.25-1.25a1.25 1.25 0 11-2.5 0 1.25 1.25 0 012.5 0zM3 53.75v-2.5h47.5v2.5H3zm50-25h2.5v30H53v-30zm20 30H58v-2.5h15v2.5z" fill="#273142"/></svg>