<svg width="80" height="80" fill="none" xmlns="http://www.w3.org/2000/svg"><path d="M73.75 12.5h-10v5H60V25h3.75v2.5h-47.5V25H20v-7.5h-3.75v-5h-10v5H2.5V25h3.75v35H2.5v7.5H20V60h-3.75v-2.5h47.5V60H60v7.5h17.5V60h-3.75V25h3.75v-7.5h-3.75v-5zm-7.5 2.5h5v2.5h-5V15zm-57.5 0h5v2.5h-5V15zm8.75 47.5V65H5v-2.5h12.5zM8.75 60V25h5v35h-5zM5 22.5V20h12.5v2.5H5zM16.25 55V40H35v-2.5H16.25V30h47.5v12.5H52.5V45h11.25v10h-47.5zM75 62.5V65H62.5v-2.5H75zM66.25 60V25h5v35h-5zM75 20v2.5H62.5V20H75z" fill="#273142"/><path d="M21.25 50h-2.5v2.5h2.5V50zm40 0h-2.5v2.5h2.5V50zm-22.5-7.5h-20V45h20v-2.5zm12.5 5h-20V50h20v-2.5zm5-15h-20V35h20v-2.5zm-5 5h-10V40h10v-2.5zm-20-5h-2.5V35h2.5v-2.5z" fill="#273142"/></svg>