<svg width="80" height="80" fill="none" xmlns="http://www.w3.org/2000/svg"><path d="M80 17.333V12c0-.736-.597-1.333-1.333-1.333h-8c-.737 0-1.334.597-1.334 1.333v5.333c0 .737.597 1.334 1.334 1.334V24h-7.63a2.657 2.657 0 012.296-1.333c.737 0 1.334-.597 1.334-1.334v-8H64v6.835A5.343 5.343 0 0060.188 24h-9.15a2.657 2.657 0 012.295-1.333c.737 0 1.334-.597 1.334-1.334v-8H52v6.835A5.343 5.343 0 0048.188 24h-9.15a2.657 2.657 0 012.295-1.333c.737 0 1.334-.597 1.334-1.334v-8H40v6.835A5.343 5.343 0 0036.188 24H28.37a2.658 2.658 0 012.297-1.333c.736 0 1.333-.597 1.333-1.334v-8h-2.667v6.835A5.343 5.343 0 0025.522 24H16.37a2.658 2.658 0 012.297-1.333c.736 0 1.333-.597 1.333-1.334v-8h-2.667v6.835A5.343 5.343 0 0013.522 24h-4.19v-5.333c.737 0 1.334-.597 1.334-1.334V12c0-.736-.597-1.333-1.334-1.333h-8C.597 10.667 0 11.264 0 12v5.333c0 .737.597 1.334 1.333 1.334v42.666C.597 61.333 0 61.93 0 62.667V68c0 .736.597 1.333 1.333 1.333h8c.737 0 1.334-.597 1.334-1.333v-5.333c0-.737-.597-1.334-1.334-1.334V56h4.188a5.343 5.343 0 003.812 3.832v6.835H20v-8c0-.737-.597-1.334-1.333-1.334A2.658 2.658 0 0116.37 56h9.151a5.343 5.343 0 003.812 3.832v6.835H32v-8c0-.737-.597-1.334-1.333-1.334A2.658 2.658 0 0128.37 56h7.818A5.343 5.343 0 0040 59.832v6.835h2.667v-8c0-.737-.597-1.334-1.334-1.334A2.658 2.658 0 0139.037 56h9.151A5.343 5.343 0 0052 59.832v6.835h2.667v-8c0-.737-.597-1.334-1.334-1.334A2.658 2.658 0 0151.037 56h9.151A5.343 5.343 0 0064 59.832v6.835h2.667v-8c0-.737-.597-1.334-1.334-1.334A2.658 2.658 0 0163.037 56h7.63v5.333c-.737 0-1.334.597-1.334 1.334V68c0 .736.597 1.333 1.334 1.333h8c.736 0 1.333-.597 1.333-1.333v-5.333c0-.737-.597-1.334-1.333-1.334V18.667c.736 0 1.333-.597 1.333-1.334zm-8-4h5.333V16H72v-2.667zm-1.333 25.334h-7.63a2.657 2.657 0 012.296-1.334c.737 0 1.334-.597 1.334-1.333v-6.667c0-.736-.597-1.333-1.334-1.333a2.657 2.657 0 01-2.296-1.333h7.63v12zM64 45.165v4.336a5.343 5.343 0 00-3.812 3.832h-9.15A2.657 2.657 0 0153.332 52c.737 0 1.334-.597 1.334-1.333V44c0-.736-.597-1.333-1.334-1.333a2.657 2.657 0 01-2.296-1.334h9.151A5.343 5.343 0 0064 45.165zm-45.333-2.498a2.658 2.658 0 01-2.297-1.334h9.151a5.343 5.343 0 003.812 3.832v4.336a5.343 5.343 0 00-3.811 3.832H16.37A2.657 2.657 0 0118.667 52c.736 0 1.333-.597 1.333-1.333V44c0-.736-.597-1.333-1.333-1.333zm0-14.667a2.657 2.657 0 01-2.297-1.333h9.151a5.343 5.343 0 003.812 3.832v4.336a5.343 5.343 0 00-3.811 3.832H16.37a2.657 2.657 0 012.297-1.334c.736 0 1.333-.597 1.333-1.333v-6.667c0-.736-.597-1.333-1.333-1.333zM64 30.499v4.336a5.343 5.343 0 00-3.812 3.832h-9.15a2.657 2.657 0 012.295-1.334c.737 0 1.334-.597 1.334-1.333v-6.667c0-.736-.597-1.333-1.334-1.333a2.657 2.657 0 01-2.296-1.333h9.151A5.343 5.343 0 0064 30.499zm-12 0v4.336a5.343 5.343 0 00-3.812 3.832h-9.15a2.657 2.657 0 012.295-1.334c.737 0 1.334-.597 1.334-1.333v-6.667c0-.736-.597-1.333-1.334-1.333a2.657 2.657 0 01-2.296-1.333h9.151A5.343 5.343 0 0052 30.499zm-12 0v4.336a5.343 5.343 0 00-3.812 3.832H28.37a2.657 2.657 0 012.297-1.334c.736 0 1.333-.597 1.333-1.333v-6.667c0-.736-.597-1.333-1.333-1.333a2.657 2.657 0 01-2.297-1.333h7.818A5.343 5.343 0 0040 30.499zM30.667 52c.736 0 1.333-.597 1.333-1.333V44c0-.736-.597-1.333-1.333-1.333a2.658 2.658 0 01-2.297-1.334h7.818A5.343 5.343 0 0040 45.165v4.336a5.343 5.343 0 00-3.812 3.832H28.37A2.657 2.657 0 0130.667 52zm10.666 0c.737 0 1.334-.597 1.334-1.333V44c0-.736-.597-1.333-1.334-1.333a2.657 2.657 0 01-2.296-1.334h9.151A5.343 5.343 0 0052 45.165v4.336a5.343 5.343 0 00-3.812 3.832h-9.15A2.657 2.657 0 0141.332 52zM13.522 26.667a5.343 5.343 0 003.811 3.832v4.336a5.343 5.343 0 00-3.811 3.832h-4.19v-12h4.188zM2.666 13.333H8V16H2.667v-2.667zM8 66.667H2.667V64H8v2.667zm-4-5.334V18.667h2.667v42.666H4zm5.333-20h4.188a5.343 5.343 0 003.812 3.832v4.336a5.343 5.343 0 00-3.811 3.832h-4.19v-12zm53.704 12A2.657 2.657 0 0165.333 52c.737 0 1.334-.597 1.334-1.333V44c0-.736-.597-1.333-1.334-1.333a2.657 2.657 0 01-2.296-1.334h7.63v12h-7.63zm14.296 13.334H72V64h5.333v2.667zM76 61.333h-2.667V18.667H76v42.666z" fill="#273142"/></svg>