<svg width="31" height="30" viewBox="0 0 31 30" fill="none" xmlns="http://www.w3.org/2000/svg">
<g clip-path="url(#clip0)">
<rect x="0.361328" width="30" height="30" rx="2" fill="url(#paint0_linear)"/>
<path d="M15.3616 6.00868C11.6752 6.00868 8.17457 5.68101 6.83748 9.10985C6.28519 10.526 6.36539 12.3652 6.36539 14.9987C6.36539 17.3097 6.29128 19.4816 6.83748 20.8866C8.17153 24.3175 11.7005 23.9888 15.3595 23.9888C18.8896 23.9888 22.5292 24.356 23.8826 20.8866C24.4359 19.4562 24.3547 17.6444 24.3547 14.9987C24.3547 11.4867 24.5486 9.21941 22.844 7.51716C21.118 5.7926 18.784 6.00868 15.3575 6.00868H15.3616ZM14.5554 7.62875C22.245 7.61658 23.2237 6.76241 22.6836 18.6284C22.4917 22.8252 19.2936 22.3647 15.3626 22.3647C8.19488 22.3647 7.98878 22.1597 7.98878 14.9947C7.98878 7.74643 8.55732 7.63281 14.5554 7.62672V7.62875ZM20.1637 9.12101C19.5677 9.12101 19.0845 9.60389 19.0845 10.1994C19.0845 10.7949 19.5677 11.2777 20.1637 11.2777C20.7597 11.2777 21.2429 10.7949 21.2429 10.1994C21.2429 9.60389 20.7597 9.12101 20.1637 9.12101ZM15.3616 10.382C12.8102 10.382 10.7421 12.4494 10.7421 14.9987C10.7421 17.548 12.8102 19.6145 15.3616 19.6145C17.9129 19.6145 19.9799 17.548 19.9799 14.9987C19.9799 12.4494 17.9129 10.382 15.3616 10.382ZM15.3616 12.002C19.3261 12.002 19.3312 17.9954 15.3616 17.9954C11.398 17.9954 11.3919 12.002 15.3616 12.002Z" fill="white"/>
</g>
<defs>
<linearGradient id="paint0_linear" x1="2.37558" y1="28.0455" x2="30.1726" y2="3.98276" gradientUnits="userSpaceOnUse">
<stop stop-color="#FFDD55"/>
<stop offset="0.5" stop-color="#FF543E"/>
<stop offset="1" stop-color="#C837AB"/>
</linearGradient>
<clipPath id="clip0">
<rect width="30" height="30" fill="white" transform="translate(0.361328)"/>
</clipPath>
</defs>
</svg>
