<svg width="30" height="30" viewBox="0 0 30 30" fill="none" xmlns="http://www.w3.org/2000/svg">
<g clip-path="url(#clip0)">
<rect width="29.3617" height="30" rx="2" fill="#4D76A1"/>
<path fill-rule="evenodd" clip-rule="evenodd" d="M14.4768 20.9498H15.7074C15.7074 20.9498 16.0791 20.9081 16.2689 20.699C16.4436 20.5071 16.438 20.1468 16.438 20.1468C16.438 20.1468 16.4139 18.4597 17.1803 18.2112C17.9357 17.9665 18.9058 19.8418 19.934 20.5628C20.7116 21.1085 21.3024 20.9889 21.3024 20.9889L24.0517 20.9498C24.0517 20.9498 25.4899 20.8592 24.808 19.7039C24.7521 19.6093 24.4108 18.8492 22.7638 17.2871C21.04 15.6523 21.2708 15.9167 23.3474 13.0888C24.6121 11.3666 25.1177 10.3152 24.9598 9.86484C24.8091 9.43592 23.879 9.54929 23.879 9.54929L20.7834 9.569C20.7834 9.569 20.5539 9.53701 20.3837 9.64096C20.2174 9.7429 20.1104 9.98049 20.1104 9.98049C20.1104 9.98049 19.6205 11.3132 18.967 12.4466C17.5886 14.8382 17.0375 14.9644 16.8122 14.8159C16.2882 14.4698 16.419 13.4255 16.419 12.6836C16.419 10.366 16.763 9.39966 15.749 9.14951C15.4125 9.06641 15.1649 9.01158 14.3044 9.00273C13.1998 8.99102 12.265 9.00615 11.7356 9.27115C11.3835 9.44735 11.1118 9.83999 11.2773 9.86255C11.4818 9.89054 11.9452 9.9902 12.1909 10.332C12.5081 10.7729 12.4969 11.7632 12.4969 11.7632C12.4969 11.7632 12.6792 14.4915 12.0713 14.8305C11.654 15.0629 11.0816 14.5883 9.85272 12.4186C9.22304 11.3072 8.74763 10.0787 8.74763 10.0787C8.74763 10.0787 8.65596 9.84913 8.49246 9.72634C8.29403 9.57756 8.01678 9.53016 8.01678 9.53016L5.07519 9.54986C5.07519 9.54986 4.63361 9.56243 4.4715 9.75861C4.32729 9.93309 4.46005 10.294 4.46005 10.294C4.46005 10.294 6.76301 15.7991 9.37061 18.5733C11.7616 21.1168 14.4768 20.9498 14.4768 20.9498Z" fill="white"/>
</g>
<defs>
<clipPath id="clip0">
<rect width="29.3617" height="30" fill="white"/>
</clipPath>
</defs>
</svg>
