<svg width="40" height="40" viewBox="0 0 40 40" fill="none" xmlns="http://www.w3.org/2000/svg">
<path d="M25.625 25.625H1.875V30.4688C1.875 30.676 1.95731 30.8747 2.10382 31.0212C2.25034 31.1677 2.44905 31.25 2.65625 31.25H25.625V25.625Z" fill="#FFC80A"/>
<path d="M36.5625 21.25H25.625V31.25H37.3438C37.551 31.25 37.7497 31.1677 37.8962 31.0212C38.0427 30.8747 38.125 30.676 38.125 30.4688V22.8125C38.125 22.3981 37.9604 22.0007 37.6674 21.7076C37.3743 21.4146 36.9769 21.25 36.5625 21.25Z" fill="#FFC80A"/>
<path d="M25.625 21.25H36.875L32.577 15.3402C32.3595 15.0413 32.0744 14.798 31.745 14.6302C31.4156 14.4625 31.0512 14.375 30.6815 14.375H25.625V21.25Z" fill="#FFF9F7"/>
<path d="M31.875 35.625C29.8039 35.625 28.125 33.9461 28.125 31.875C28.125 29.8039 29.8039 28.125 31.875 28.125C33.9461 28.125 35.625 29.8039 35.625 31.875C35.625 33.9461 33.9461 35.625 31.875 35.625Z" fill="white"/>
<path d="M8.125 35.625C6.05393 35.625 4.375 33.9461 4.375 31.875C4.375 29.8039 6.05393 28.125 8.125 28.125C10.1961 28.125 11.875 29.8039 11.875 31.875C11.875 33.9461 10.1961 35.625 8.125 35.625Z" fill="white"/>
<path d="M25.625 14.375H30.625L28.357 10.9729C28.2856 10.8659 28.1889 10.7781 28.0755 10.7174C27.9621 10.6567 27.8355 10.625 27.7069 10.625H25.625V14.375Z" fill="#FFC80A"/>
<path d="M30 23.125H27.5V24.375H30V23.125Z" fill="#525A68"/>
<path d="M36.5625 26.25H38.125V22.8125C38.125 22.3981 37.9604 22.0007 37.6674 21.7076C37.3743 21.4146 36.9769 21.25 36.5625 21.25H35V24.6875C35 25.1019 35.1646 25.4993 35.4576 25.7924C35.7507 26.0854 36.1481 26.25 36.5625 26.25Z" fill="#FFDD4D"/>
<path d="M1.25 13.125V8.90625C1.25043 8.53342 1.39873 8.17599 1.66236 7.91236C1.92599 7.64873 2.28342 7.50043 2.65625 7.5H24.8438C25.2166 7.50043 25.574 7.64873 25.8376 7.91236C26.1013 8.17599 26.2496 8.53342 26.25 8.90625V10H27.7069C27.9384 9.99976 28.1665 10.0568 28.3706 10.1661C28.5748 10.2754 28.7487 10.4334 28.877 10.6263L30.9688 13.7641C31.3863 13.8053 31.7904 13.9343 32.1546 14.1426C32.5189 14.3508 32.835 14.6337 33.0823 14.9726L34.2555 16.5855L33.2445 17.3208L32.0716 15.7079C31.9118 15.4889 31.7027 15.3107 31.4612 15.1877C31.2196 15.0647 30.9525 15.0004 30.6815 15H26.25V20.625H35.6477L33.8695 18.1802L34.8805 17.4448L37.2812 20.7464C37.71 20.8961 38.0816 21.1754 38.3447 21.5455C38.6078 21.9156 38.7494 22.3584 38.75 22.8125V30.4688C38.7496 30.8416 38.6013 31.199 38.3376 31.4626C38.074 31.7263 37.7166 31.8746 37.3438 31.875H36.25C36.25 33.0353 35.7891 34.1481 34.9686 34.9686C34.1481 35.7891 33.0353 36.25 31.875 36.25C30.7147 36.25 29.6019 35.7891 28.7814 34.9686C27.9609 34.1481 27.5 33.0353 27.5 31.875H12.5C12.5 33.0353 12.0391 34.1481 11.2186 34.9686C10.3981 35.7891 9.28532 36.25 8.125 36.25C6.96468 36.25 5.85188 35.7891 5.03141 34.9686C4.21093 34.1481 3.75 33.0353 3.75 31.875H2.65625C2.28342 31.8746 1.92599 31.7263 1.66236 31.4626C1.39873 31.199 1.25043 30.8416 1.25 30.4688V14.375H2.5V25H25V8.90625C25 8.86481 24.9835 8.82507 24.9542 8.79576C24.9249 8.76646 24.8852 8.75 24.8438 8.75H2.65625C2.61481 8.75 2.57507 8.76646 2.54576 8.79576C2.51646 8.82507 2.5 8.86481 2.5 8.90625V13.125H1.25ZM29.4572 13.75L27.8369 11.3196C27.8226 11.2982 27.8033 11.2806 27.7806 11.2685C27.7579 11.2564 27.7326 11.25 27.7069 11.25H26.25V13.75H29.4572ZM37.5 22.8125C37.4997 22.5639 37.4009 22.3256 37.2251 22.1499C37.0494 21.9741 36.8111 21.8753 36.5625 21.875H35.625V24.6875C35.6253 24.9361 35.7241 25.1744 35.8999 25.3501C36.0756 25.5259 36.3139 25.6247 36.5625 25.625H37.5V22.8125ZM31.875 35C32.4931 35 33.0973 34.8167 33.6112 34.4733C34.1251 34.13 34.5256 33.6419 34.7621 33.0709C34.9986 32.4999 35.0605 31.8715 34.94 31.2653C34.8194 30.6592 34.5217 30.1023 34.0847 29.6653C33.6477 29.2283 33.0908 28.9306 32.4847 28.81C31.8785 28.6895 31.2501 28.7514 30.6791 28.9879C30.1081 29.2244 29.62 29.6249 29.2767 30.1388C28.9333 30.6527 28.75 31.2569 28.75 31.875C28.7509 32.7035 29.0805 33.4978 29.6663 34.0837C30.2522 34.6695 31.0465 34.9991 31.875 35ZM27.6819 30.625C27.9512 29.7221 28.5048 28.9303 29.2603 28.3672C30.0158 27.8042 30.9328 27.5001 31.875 27.5001C32.8172 27.5001 33.7342 27.8042 34.4897 28.3672C35.2452 28.9303 35.7988 29.7221 36.0681 30.625H37.3438C37.3852 30.625 37.4249 30.6085 37.4542 30.5792C37.4835 30.5499 37.5 30.5102 37.5 30.4688V26.875H36.5625C35.9825 26.8743 35.4265 26.6437 35.0164 26.2336C34.6063 25.8235 34.3757 25.2675 34.375 24.6875V21.875H26.25V30.625H27.6819ZM8.125 35C8.74307 35 9.34725 34.8167 9.86116 34.4733C10.3751 34.13 10.7756 33.6419 11.0121 33.0709C11.2486 32.4999 11.3105 31.8715 11.19 31.2653C11.0694 30.6592 10.7717 30.1023 10.3347 29.6653C9.89767 29.2283 9.34085 28.9306 8.73466 28.81C8.12847 28.6895 7.50013 28.7514 6.92911 28.9879C6.35809 29.2244 5.87004 29.6249 5.52666 30.1388C5.18328 30.6527 5 31.2569 5 31.875C5.00093 32.7035 5.33047 33.4978 5.91632 34.0837C6.50217 34.6695 7.29648 34.9991 8.125 35ZM2.5 26.25V30.4688C2.5 30.5102 2.51646 30.5499 2.54576 30.5792C2.57507 30.6085 2.61481 30.625 2.65625 30.625H3.93188C4.20121 29.7221 4.75478 28.9303 5.51026 28.3672C6.26575 27.8042 7.18279 27.5001 8.125 27.5001C9.06721 27.5001 9.98425 27.8042 10.7397 28.3672C11.4952 28.9303 12.0488 29.7221 12.3181 30.625H25V26.25H2.5Z" fill="#525A68"/>
<path d="M15.0997 22.1215C17.0882 20.673 18.4452 18.5169 18.8912 16.0975L19.3594 13.125L13.7422 10.6203L8.125 13.125L8.59804 16.1223C9.04764 18.5623 10.4241 20.7337 12.439 22.1815L13.7372 23.125L15.0997 22.1215Z" fill="#FFDD4D"/>
<path d="M13.7372 23.75C13.8705 23.7501 14.0004 23.7074 14.1078 23.6282L15.4703 22.625C17.5873 21.0822 19.0318 18.786 19.5061 16.2097C19.5069 16.2048 19.5078 16.1999 19.5085 16.195L19.9768 13.2224C19.9981 13.0866 19.9742 12.9476 19.9086 12.8268C19.843 12.706 19.7394 12.6103 19.6139 12.5543L13.9967 10.0495C13.9166 10.0138 13.8299 9.99536 13.7422 9.99536C13.6544 9.99536 13.5677 10.0138 13.4876 10.0495L7.87044 12.5543C7.74488 12.6103 7.64129 12.7061 7.5757 12.8269C7.51012 12.9477 7.48619 13.0868 7.50762 13.2226L7.98067 16.2198C7.98145 16.2246 7.98223 16.2295 7.98317 16.2343C8.4612 18.8327 9.92629 21.1452 12.0715 22.6874L13.3697 23.6312C13.4765 23.7086 13.6052 23.7502 13.7372 23.75ZM18.2749 15.9928C17.8559 18.2524 16.587 20.2656 14.729 21.6182L13.7347 22.3506L12.8065 21.6758C10.9238 20.3237 9.63672 18.2963 9.21418 16.0173L8.817 13.5006L13.7422 11.3047L18.6675 13.5009L18.2749 15.9928Z" fill="#525A68"/>
<path d="M12.8018 18.6667C12.7261 18.6668 12.6512 18.6511 12.5813 18.6207C12.5114 18.5902 12.4479 18.5456 12.3944 18.4893L10.666 16.6728L11.4807 15.8165L12.8018 17.2048L15.8513 14L16.666 14.8563L13.2092 18.4893C13.1557 18.5456 13.0922 18.5902 13.0223 18.6207C12.9524 18.6511 12.8775 18.6668 12.8018 18.6667Z" fill="#525A68"/>
<path d="M23.75 10H22.5V11.25H23.75V10Z" fill="#525A68"/>
<path d="M23.75 22.5H22.5V23.75H23.75V22.5Z" fill="#525A68"/>
<path d="M5 10H3.75V11.25H5V10Z" fill="#525A68"/>
<path d="M5 22.5H3.75V23.75H5V22.5Z" fill="#525A68"/>
<path d="M31.875 33.125C31.1846 33.125 30.625 32.5654 30.625 31.875C30.625 31.1846 31.1846 30.625 31.875 30.625C32.5654 30.625 33.125 31.1846 33.125 31.875C33.125 32.5654 32.5654 33.125 31.875 33.125Z" fill="#FEFEFE"/>
<path d="M31.875 33.75C32.2458 33.75 32.6084 33.64 32.9167 33.434C33.225 33.228 33.4654 32.9351 33.6073 32.5925C33.7492 32.2499 33.7863 31.8729 33.714 31.5092C33.6416 31.1455 33.463 30.8114 33.2008 30.5492C32.9386 30.287 32.6045 30.1084 32.2408 30.036C31.8771 29.9637 31.5001 30.0008 31.1575 30.1427C30.8149 30.2846 30.522 30.525 30.316 30.8333C30.11 31.1417 30 31.5042 30 31.875C30.0006 32.3721 30.1983 32.8487 30.5498 33.2002C30.9013 33.5517 31.3779 33.7494 31.875 33.75ZM31.875 31.25C31.9986 31.25 32.1195 31.2867 32.2222 31.3553C32.325 31.424 32.4051 31.5216 32.4524 31.6358C32.4997 31.75 32.5121 31.8757 32.488 31.9969C32.4639 32.1182 32.4043 32.2295 32.3169 32.3169C32.2295 32.4044 32.1182 32.4639 31.9969 32.488C31.8757 32.5121 31.75 32.4997 31.6358 32.4524C31.5216 32.4051 31.424 32.325 31.3553 32.2222C31.2867 32.1195 31.25 31.9986 31.25 31.875C31.2502 31.7093 31.3161 31.5504 31.4333 31.4333C31.5504 31.3161 31.7093 31.2502 31.875 31.25Z" fill="#525A68"/>
<path d="M8.125 33.125C7.43464 33.125 6.875 32.5654 6.875 31.875C6.875 31.1846 7.43464 30.625 8.125 30.625C8.81536 30.625 9.375 31.1846 9.375 31.875C9.375 32.5654 8.81536 33.125 8.125 33.125Z" fill="#FEFEFE"/>
<path d="M8.125 33.75C8.49584 33.75 8.85835 33.64 9.16669 33.434C9.47503 33.228 9.71536 32.9351 9.85727 32.5925C9.99919 32.2499 10.0363 31.8729 9.96397 31.5092C9.89162 31.1455 9.71305 30.8114 9.45082 30.5492C9.1886 30.287 8.85451 30.1084 8.49079 30.036C8.12708 29.9637 7.75008 30.0008 7.40747 30.1427C7.06486 30.2846 6.77202 30.525 6.56599 30.8333C6.35996 31.1417 6.25 31.5042 6.25 31.875C6.25055 32.3721 6.44828 32.8487 6.79979 33.2002C7.1513 33.5517 7.62789 33.7494 8.125 33.75ZM8.125 31.25C8.24861 31.25 8.36945 31.2867 8.47223 31.3553C8.57501 31.424 8.65512 31.5216 8.70242 31.6358C8.74973 31.75 8.7621 31.8757 8.73799 31.9969C8.71387 32.1182 8.65435 32.2295 8.56694 32.3169C8.47953 32.4044 8.36817 32.4639 8.24693 32.488C8.12569 32.5121 8.00002 32.4997 7.88582 32.4524C7.77162 32.4051 7.674 32.325 7.60533 32.2222C7.53665 32.1195 7.5 31.9986 7.5 31.875C7.50018 31.7093 7.56609 31.5504 7.68326 31.4333C7.80043 31.3161 7.95929 31.2502 8.125 31.25Z" fill="#525A68"/>
<path d="M38.75 10H33.75V11.25H38.75V10Z" fill="#525A68"/>
<path d="M32.5 10H31.25V11.25H32.5V10Z" fill="#525A68"/>
<path d="M33.125 3.75H23.125V5H33.125V3.75Z" fill="#525A68"/>
<path d="M21.875 3.75H20.625V5H21.875V3.75Z" fill="#525A68"/>
<path d="M16.25 5H6.25V6.25H16.25V5Z" fill="#525A68"/>
<path d="M5 5H3.75V6.25H5V5Z" fill="#525A68"/>
<path d="M26.875 33.75H15.625V35H26.875V33.75Z" fill="#525A68"/>
<path d="M14.375 33.75H13.125V35H14.375V33.75Z" fill="#525A68"/>
</svg>
