<svg width="60" height="60" viewBox="0 0 60 60" fill="none" xmlns="http://www.w3.org/2000/svg">
<path d="M52.6028 59.0278H7.39795C5.45627 59.0278 3.88232 57.4538 3.88232 55.5122V50.6216L56.1184 41.1294V55.5122C56.1184 57.4537 54.5444 59.0278 52.6028 59.0278Z" fill="white"/>
<path d="M43.0387 55.5123H7.40381C5.45896 55.5123 3.88232 53.9357 3.88232 51.9908V8.32373C3.88232 6.37889 5.45896 4.80225 7.40381 4.80225H52.5968C54.5417 4.80225 56.1183 6.37889 56.1183 8.32373V42.4326C56.1183 43.3665 53.9895 44.2622 53.329 44.9227L45.5287 52.723C44.8684 53.3835 43.9726 55.5123 43.0387 55.5123Z" fill="white"/>
<path d="M38.8062 55.5124H41.5953C43.1889 55.5124 44.4806 54.2206 44.4806 52.6271V46.7602C44.4806 45.1667 45.7724 43.875 47.3659 43.875H53.2328C54.8263 43.875 56.118 42.5832 56.118 40.9897V37.335V42.4163C56.118 43.3503 55.747 44.246 55.0865 44.9064L45.512 54.481C44.8515 55.1415 43.9558 55.5125 43.0219 55.5125H38.8062V55.5124Z" fill="white"/>
<path d="M56.118 8.31738V17.3619H3.88281V8.31738C3.88281 6.37676 5.45664 4.80176 7.39844 4.80176H52.6023C54.5441 4.80176 56.118 6.37676 56.118 8.31738Z" fill="#FECE85"/>
<path d="M13.8341 10.938C13.1635 10.938 12.5942 10.9377 12.1091 10.9377C10.6349 10.9377 9.43604 9.73887 9.43604 8.26582V4.80176H11.1938V8.26582C11.1938 8.76973 11.604 9.17988 12.1091 9.17988C12.5942 9.18 14.3192 10.938 13.8341 10.938Z" fill="#FFC80A"/>
<path d="M45.7629 10.938C45.7629 10.938 44.5234 10.9377 44.0371 10.9377C42.5641 10.9377 41.3652 9.73887 41.3652 8.26582V4.80176H43.123V8.26582C43.123 8.76973 43.5332 9.17988 44.0371 9.17988C44.5234 9.18 45.7629 10.4529 45.7629 10.938Z" fill="#FFC80A"/>
<path d="M14.1781 28.4937H9.99283C9.53053 28.4937 9.15576 28.1189 9.15576 27.6566V23.4713C9.15576 23.009 9.53053 22.6343 9.99283 22.6343H14.1781C14.6404 22.6343 15.0151 23.009 15.0151 23.4713V27.6566C15.0151 28.1189 14.6404 28.4937 14.1781 28.4937Z" fill="#FFDD4D"/>
<path d="M26.1214 28.4937H21.9362C21.4739 28.4937 21.0991 28.1189 21.0991 27.6566V23.4713C21.0991 23.009 21.4739 22.6343 21.9362 22.6343H26.1214C26.5837 22.6343 26.9585 23.009 26.9585 23.4713V27.6566C26.9585 28.1189 26.5837 28.4937 26.1214 28.4937Z" fill="#FFDD4D"/>
<path d="M38.0648 28.4937H33.8796C33.4172 28.4937 33.0425 28.1189 33.0425 27.6566V23.4713C33.0425 23.009 33.4172 22.6343 33.8796 22.6343H38.0648C38.5271 22.6343 38.9019 23.009 38.9019 23.4713V27.6566C38.9019 28.1189 38.5271 28.4937 38.0648 28.4937Z" fill="#FFDD4D"/>
<path d="M50.0077 28.4937H45.8224C45.3601 28.4937 44.9854 28.1189 44.9854 27.6566V23.4713C44.9854 23.009 45.3601 22.6343 45.8224 22.6343H50.0077C50.47 22.6343 50.8447 23.009 50.8447 23.4713V27.6566C50.8447 28.1189 50.47 28.4937 50.0077 28.4937Z" fill="#FFDD4D"/>
<path d="M14.1781 39.3652H9.99283C9.53053 39.3652 9.15576 38.9905 9.15576 38.5282V34.3429C9.15576 33.8806 9.53053 33.5059 9.99283 33.5059H14.1781C14.6404 33.5059 15.0151 33.8806 15.0151 34.3429V38.5282C15.0151 38.9905 14.6404 39.3652 14.1781 39.3652Z" fill="#FFDD4D"/>
<path d="M26.1214 39.3652H21.9362C21.4739 39.3652 21.0991 38.9905 21.0991 38.5282V34.3429C21.0991 33.8806 21.4739 33.5059 21.9362 33.5059H26.1214C26.5837 33.5059 26.9585 33.8806 26.9585 34.3429V38.5282C26.9585 38.9905 26.5837 39.3652 26.1214 39.3652Z" fill="#FFDD4D"/>
<path d="M38.0648 39.3652H33.8796C33.4172 39.3652 33.0425 38.9905 33.0425 38.5282V34.3429C33.0425 33.8806 33.4172 33.5059 33.8796 33.5059H38.0648C38.5271 33.5059 38.9019 33.8806 38.9019 34.3429V38.5282C38.9019 38.9905 38.5271 39.3652 38.0648 39.3652Z" fill="#FFDD4D"/>
<path d="M50.0077 39.6265H45.8224C45.3601 39.6265 44.9854 39.2517 44.9854 38.7894V34.6042C44.9854 34.1419 45.3601 33.7671 45.8224 33.7671H50.0077C50.47 33.7671 50.8447 34.1419 50.8447 34.6042V38.7894C50.8447 39.2517 50.47 39.6265 50.0077 39.6265Z" fill="#FFDD4D"/>
<path d="M14.1781 50.2373H9.99283C9.53053 50.2373 9.15576 49.8625 9.15576 49.4002V45.215C9.15576 44.7527 9.53053 44.3779 9.99283 44.3779H14.1781C14.6404 44.3779 15.0151 44.7527 15.0151 45.215V49.4002C15.0151 49.8625 14.6404 50.2373 14.1781 50.2373Z" fill="#FFDD4D"/>
<path d="M26.1214 50.2373H21.9362C21.4739 50.2373 21.0991 49.8625 21.0991 49.4002V45.215C21.0991 44.7527 21.4739 44.3779 21.9362 44.3779H26.1214C26.5837 44.3779 26.9585 44.7527 26.9585 45.215V49.4002C26.9585 49.8625 26.5837 50.2373 26.1214 50.2373Z" fill="#FFDD4D"/>
<path d="M38.0648 50.2373H33.8796C33.4172 50.2373 33.0425 49.8625 33.0425 49.4002V45.215C33.0425 44.7527 33.4172 44.3779 33.8796 44.3779H38.0648C38.5271 44.3779 38.9019 44.7527 38.9019 45.215V49.4002C38.9019 49.8625 38.5271 50.2373 38.0648 50.2373Z" fill="#FFDD4D"/>
<path d="M45.8226 29.4673H50.0078C50.954 29.4673 51.7238 28.6975 51.7238 27.7513V23.5661C51.7238 22.6199 50.954 21.8501 50.0078 21.8501H45.8226C44.8764 21.8501 44.1066 22.6199 44.1066 23.5661V27.7513C44.1066 28.6975 44.8764 29.4673 45.8226 29.4673ZM45.8644 23.6079H49.966V27.7095H45.8644V23.6079ZM45.8226 40.6001H50.0078C50.954 40.6001 51.7238 39.8303 51.7238 38.8841V34.6989C51.7238 33.7527 50.954 32.9829 50.0078 32.9829H45.8226C44.8764 32.9829 44.1066 33.7527 44.1066 34.6989V38.8841C44.1066 39.8303 44.8764 40.6001 45.8226 40.6001ZM45.8644 34.7407H49.966V38.8423H45.8644V34.7407ZM33.8793 29.4673H38.0645C39.0107 29.4673 39.7805 28.6975 39.7805 27.7513V23.5661C39.7805 22.6199 39.0107 21.8501 38.0645 21.8501H33.8793C32.9331 21.8501 32.1633 22.6199 32.1633 23.5661V27.7513C32.1633 28.6975 32.9331 29.4673 33.8793 29.4673ZM33.9211 23.6079H38.0227V27.7095H33.9211V23.6079ZM14.1779 43.5938H9.99271C9.04654 43.5938 8.27674 44.3636 8.27674 45.3097V49.495C8.27674 50.4411 9.04654 51.2109 9.99271 51.2109H14.1779C15.1241 51.2109 15.8939 50.4411 15.8939 49.495V45.3097C15.8939 44.3636 15.1241 43.5938 14.1779 43.5938ZM14.1361 49.4531H10.0346V45.3516H14.1361V49.4531ZM14.1779 21.8501H9.99271C9.04654 21.8501 8.27674 22.6199 8.27674 23.5661V27.7513C8.27674 28.6975 9.04654 29.4673 9.99271 29.4673H14.1779C15.1241 29.4673 15.8939 28.6975 15.8939 27.7513V23.5661C15.8939 22.6198 15.1241 21.8501 14.1779 21.8501ZM14.1361 27.7095H10.0346V23.6079H14.1361V27.7095ZM33.8793 40.3391H38.0645C39.0107 40.3391 39.7805 39.5693 39.7805 38.6231V34.4379C39.7805 33.4917 39.0107 32.7219 38.0645 32.7219H33.8793C32.9331 32.7219 32.1633 33.4917 32.1633 34.4379V38.6231C32.1633 39.5693 32.9331 40.3391 33.8793 40.3391ZM33.9211 34.4797H38.0227V38.5813H33.9211V34.4797ZM52.5967 4.01648H48.839V2.6727C48.839 1.19895 47.64 0 46.1663 0H45.7627C44.289 0 43.0901 1.19895 43.0901 2.6727V4.01648H16.9104V2.6727C16.9104 1.19895 15.7115 0 14.2377 0H13.8341C12.3604 0 11.1614 1.19895 11.1614 2.6727V4.01648H7.40381C4.97744 4.01648 3.00342 5.99051 3.00342 8.41687V55.6055C3.00342 58.0287 4.97475 60 7.39795 60H52.6028C55.026 60 56.9973 58.0287 56.9973 55.6055V8.41687C56.9972 5.99051 55.0232 4.01648 52.5967 4.01648ZM44.8479 2.6727C44.8479 2.1682 45.2583 1.75781 45.7628 1.75781H46.1664C46.6709 1.75781 47.0813 2.1682 47.0813 2.6727V4.01648H44.8479V2.6727ZM12.9194 2.6727C12.9194 2.1682 13.3297 1.75781 13.8342 1.75781H14.2378C14.7423 1.75781 15.1527 2.1682 15.1527 2.6727V4.01648H12.9195V2.6727H12.9194ZM55.2394 55.6055C55.2394 57.0594 54.0566 58.2422 52.6027 58.2422H7.39783C5.94389 58.2422 4.76111 57.0594 4.76111 55.6055V55.6C5.49752 56.1548 6.41287 56.4844 7.40381 56.4844H43.0385C44.2139 56.4844 45.319 56.0266 46.1501 55.1954L55.2394 46.1061V55.6055ZM45.2533 53.6064C45.3222 53.322 45.3597 53.0253 45.3597 52.7201V46.8532C45.3597 45.747 46.2598 44.8468 47.3661 44.8468H53.2329C53.5382 44.8468 53.8348 44.8093 54.1192 44.7404L45.2533 53.6064ZM55.2394 16.5766H17.7893C17.3039 16.5766 16.9104 16.9702 16.9104 17.4555C16.9104 17.9409 17.3039 18.3345 17.7893 18.3345H55.2394V41.0827C55.2394 42.189 54.3393 43.0891 53.2329 43.0891H47.3661C45.2905 43.0891 43.6019 44.7778 43.6019 46.8533V52.7202C43.6019 53.8266 42.7017 54.7267 41.5955 54.7267H7.40381C5.9467 54.7267 4.76123 53.5412 4.76123 52.084V18.3345H14.2737C14.7591 18.3345 15.1526 17.9409 15.1526 17.4555C15.1526 16.9702 14.7591 16.5766 14.2737 16.5766H4.76111V8.41687C4.76111 6.95977 5.94658 5.7743 7.40369 5.7743H11.1614V8.35851C11.1614 9.83226 12.3604 11.0312 13.8341 11.0312C14.3195 11.0312 14.713 10.6377 14.713 10.1523C14.713 9.66691 14.3195 9.2734 13.8341 9.2734C13.3296 9.2734 12.9192 8.86301 12.9192 8.35851V5.7743H43.0901V8.35851C43.0901 9.83226 44.289 11.0312 45.7628 11.0312C46.2482 11.0312 46.6417 10.6377 46.6417 10.1523C46.6417 9.66691 46.2482 9.2734 45.7628 9.2734C45.2583 9.2734 44.8479 8.86301 44.8479 8.35851V5.7743H52.5968C54.0539 5.7743 55.2394 6.95977 55.2394 8.41687V16.5766ZM14.1779 32.7219H9.99271C9.04654 32.7219 8.27674 33.4917 8.27674 34.4379V38.6231C8.27674 39.5693 9.04654 40.3391 9.99271 40.3391H14.1779C15.1241 40.3391 15.8939 39.5693 15.8939 38.6231V34.4379C15.8939 33.4916 15.1241 32.7219 14.1779 32.7219ZM14.1361 38.5813H10.0346V34.4797H14.1361V38.5813ZM21.936 29.4673H26.1212C27.0674 29.4673 27.8372 28.6975 27.8372 27.7513V23.5661C27.8372 22.6199 27.0674 21.8501 26.1212 21.8501H21.936C20.9898 21.8501 20.22 22.6199 20.22 23.5661V27.7513C20.22 28.6975 20.9898 29.4673 21.936 29.4673ZM21.9778 23.6079H26.0794V27.7095H21.9778V23.6079ZM33.9201 49.4531C33.8983 48.9871 33.5135 48.6161 33.0421 48.6161C32.5567 48.6161 32.1632 49.0096 32.1632 49.495C32.1632 50.4411 32.933 51.2109 33.8792 51.2109H38.0644C39.0106 51.2109 39.7804 50.4411 39.7804 49.495V45.3097C39.7804 44.3636 39.0106 43.5938 38.0644 43.5938H33.8792C32.933 43.5938 32.1632 44.3636 32.1632 45.3097V46.5168C32.1632 47.0021 32.5567 47.3957 33.0421 47.3957C33.5275 47.3957 33.921 47.0021 33.921 46.5168V45.3516H38.0226V49.4531H33.9201ZM21.936 40.3391H26.1212C27.0674 40.3391 27.8372 39.5693 27.8372 38.6231V34.4379C27.8372 33.4917 27.0674 32.7219 26.1212 32.7219H21.936C20.9898 32.7219 20.22 33.4917 20.22 34.4379V38.6231C20.22 39.5693 20.9898 40.3391 21.936 40.3391ZM21.9778 34.4797H26.0794V38.5813H21.9778V34.4797ZM21.936 51.2109H26.1212C27.0674 51.2109 27.8372 50.4411 27.8372 49.495V45.3097C27.8372 44.3636 27.0674 43.5938 26.1212 43.5938H21.936C20.9898 43.5938 20.22 44.3636 20.22 45.3097V49.495C20.22 50.4411 20.9898 51.2109 21.936 51.2109ZM21.9778 45.3516H26.0794V49.4531H21.9778V45.3516Z" fill="#525A68"/>
</svg>
