<svg width="60" height="60" viewBox="0 0 60 60" fill="none" xmlns="http://www.w3.org/2000/svg">
<path d="M40.5747 0.878906H19.425C18.5204 0.878906 17.7719 1.56221 17.6649 2.46056C17.0115 7.94425 12.9822 12.3118 7.34017 13.1524C6.18496 13.3246 5.87207 15.0111 5.87207 16.1791L6.32089 27.399C6.32089 39.2229 11.9904 49.5474 22.4376 55.0847L26.9057 57.3985C28.4562 58.2202 30.4224 59.3398 32.0539 58.7761C32.3581 58.671 32.6562 58.5419 32.9453 58.3886L37.6856 55.8752C48.1304 50.3371 54.6614 39.4821 54.6614 27.6599V15.4995C54.6614 14.3316 53.8146 13.3245 52.6593 13.1526C47.0141 12.3123 42.9876 7.9446 42.3347 2.46079C42.2278 1.56233 41.4794 0.878906 40.5747 0.878906Z" fill="#FFDD4D"/>
<path d="M38.4585 4.55518H21.3474C21.0384 4.55518 20.779 4.79177 20.756 5.09997C20.4 9.85969 15.4818 14.6793 11.2479 16.1175C10.6272 16.3283 10.55 17.2584 9.97519 17.313C9.66828 17.3422 9.43262 17.5962 9.43262 17.9044L9.91132 27.1994C9.91132 37.9919 15.2156 47.0783 24.7514 52.1325L28.5187 54.3265C29.3287 54.7559 30.2988 54.7558 31.1088 54.3263L32.6379 54.4116L35.6743 52.8016C45.1629 47.7706 51.0959 37.9094 51.0959 27.1695V17.1124C51.0959 16.8041 50.8601 16.55 50.5532 16.521C46.0404 16.0943 39.4677 10.5568 39.0497 5.09845C39.0263 4.79107 38.7671 4.55518 38.4585 4.55518Z" fill="#FFFAEB"/>
<path d="M41.2281 17.702C35.0272 11.501 24.9735 11.501 18.7726 17.702C12.5717 23.903 13.2067 33.7266 19.4075 39.9276C25.6084 46.1286 35.0272 46.3585 41.2281 40.1575C47.4291 33.9566 47.4291 23.903 41.2281 17.702Z" fill="#F7F9FA"/>
<path d="M41.9445 39.3911C41.7171 39.6518 41.4774 39.9077 41.2277 40.1573C35.0271 46.3592 24.9737 46.3592 18.773 40.1573C12.5711 33.9566 12.5711 23.9032 18.773 17.7025C19.0226 17.4529 19.2784 17.2132 19.5392 16.9858C14.0639 23.2223 14.3036 32.7235 20.2559 38.6745C26.2069 44.6267 35.7081 44.8665 41.9445 39.3911Z" fill="#E9EDF1"/>
<path d="M38.6118 20.3184C33.8558 15.5625 26.1448 15.5625 21.3888 20.3184C16.6328 25.0744 17.1754 32.2062 21.9314 36.9622C26.6874 41.7181 33.8557 42.2974 38.6118 37.5414C43.3679 32.7854 43.3678 25.0745 38.6118 20.3184Z" fill="#E9EDF1"/>
<path d="M39.3779 36.701C39.1381 36.9901 38.8823 37.2707 38.6117 37.5413C33.8556 42.2974 26.1449 42.2974 21.3888 37.5413C16.6328 32.7852 16.6328 25.0745 21.3888 20.3184C21.6594 20.0478 21.94 19.792 22.2291 19.5522C18.2539 24.3368 18.5097 31.4494 22.9952 35.9349C27.4807 40.4204 34.5933 40.6762 39.3779 36.701Z" fill="#DCE6EB"/>
<path d="M32.0543 58.7765C30.4219 59.3389 28.6138 59.21 27.0634 58.3886L22.3185 55.8738C11.8715 50.3368 5.33838 39.4807 5.33838 27.6567V15.4987C5.33838 14.335 6.18094 13.3296 7.33053 13.1538V27.6567C7.33053 38.7705 13.4312 48.9083 23.2513 54.1136L27.9962 56.6284C28.2423 56.7597 29.9942 57.6972 32.0543 58.7765Z" fill="#FFFAEB"/>
<path d="M32.6379 54.4115L31.2996 55.1217C30.4899 55.5506 29.5196 55.5506 28.7098 55.1217L24.4032 52.8389C14.8667 47.7847 8.9043 37.8755 8.9043 27.0827V17.1126C8.9043 16.8044 9.13984 16.5501 9.44687 16.5208C10.0211 16.4657 10.6269 16.3286 11.248 16.1177V27.0827C11.248 37.0329 16.7088 46.1089 25.5001 50.7682L29.8067 53.051C29.836 53.0662 31.2129 53.7295 32.6379 54.4115Z" fill="#FFC600"/>
<path d="M52.7887 12.2833C47.6742 11.522 43.8238 7.53291 43.2075 2.35683C43.0475 1.01319 41.9156 0 40.5746 0H19.425C18.0842 0 16.9523 1.01319 16.7922 2.35648C16.5361 4.50508 15.7149 6.51094 14.4171 8.15704C14.1166 8.53825 14.182 9.09089 14.5632 9.39136C14.9444 9.69194 15.4971 9.62643 15.7975 9.24534C17.2957 7.34483 18.2433 5.03464 18.5377 2.56449C18.5925 2.10453 18.9739 1.75766 19.4251 1.75766H40.5747C41.0259 1.75766 41.4073 2.10453 41.4622 2.5646C42.1734 8.53813 46.6213 13.1423 52.5301 14.0218C53.2441 14.1281 53.7826 14.7634 53.7826 15.4995V27.6597C53.7826 39.1854 47.4569 49.6994 37.274 55.0986L32.5336 57.6119C30.9499 58.4516 29.0588 58.4517 27.4748 57.6122L22.73 55.0974C12.5444 49.6989 6.21714 39.1841 6.21714 27.6565V15.4994C6.21714 14.7634 6.7556 14.1281 7.46973 14.0218C9.30298 13.7487 11.007 13.1262 12.5341 12.1719C12.9458 11.9147 13.071 11.3725 12.8137 10.9608C12.5565 10.5493 12.0142 10.4238 11.6027 10.6812C10.2815 11.5068 8.80377 12.0458 7.21087 12.2833C5.64234 12.5168 4.45947 13.8995 4.45947 15.4994V27.6565C4.45947 33.6176 6.08401 39.4683 9.15767 44.5759C12.2312 49.6836 16.6398 53.859 21.9069 56.6507L26.6517 59.1655C27.7013 59.7218 28.8526 60 30.0039 60C31.1556 59.9999 32.3073 59.7216 33.3571 59.1649L38.0973 56.6517C43.3632 53.8597 47.7707 49.6844 50.8435 44.5772C53.9162 39.47 55.5404 33.6201 55.5404 27.6599V15.4996C55.5404 13.8994 54.3574 12.5167 52.7887 12.2833Z" fill="#525A68"/>
<path d="M45.9078 43.7497C46.3143 44.0148 46.8589 43.9 47.1239 43.4933C50.2973 38.6247 51.9747 32.9801 51.9747 27.1697V17.1126C51.9747 16.3488 51.3991 15.7186 50.6359 15.6462C46.375 15.2433 40.3005 9.92167 39.926 5.0314C39.8677 4.27157 39.223 3.67627 38.4583 3.67627H21.3472C20.5811 3.67627 19.9363 4.27286 19.8794 5.03445C19.5133 9.92905 13.5482 15.2482 9.36316 15.6462C8.60028 15.7187 8.0249 16.3492 8.0249 17.1126V27.0831C8.0249 38.2291 14.1428 48.3959 23.9911 53.6158L28.2978 55.8984C28.832 56.1816 29.418 56.3231 30.0041 56.3231C30.5903 56.3231 31.1766 56.1814 31.711 55.8981L36.086 53.5784C39.3282 51.8593 42.1942 49.5873 44.6041 46.8254C44.9232 46.4596 44.8855 45.9045 44.5197 45.5853C44.154 45.2663 43.5988 45.3038 43.2796 45.6698C41.0116 48.2691 38.3142 50.4075 35.2626 52.0255L30.8876 54.3451C30.3344 54.6383 29.674 54.6386 29.1209 54.3453L24.8142 52.0626C15.5423 47.1482 9.78257 37.5766 9.78257 27.083V17.3675C12.1389 17.0603 14.9061 15.5671 17.2413 13.3318C19.7437 10.9366 21.3229 8.07377 21.6076 5.43405H38.1985C38.4897 8.07143 40.1049 10.9363 42.6645 13.3377C45.0434 15.5699 47.8455 17.0611 50.2169 17.3679V27.1698C50.2169 32.6386 48.6382 37.9513 45.6514 42.5334C45.3864 42.9402 45.5012 43.4846 45.9078 43.7497Z" fill="#525A68"/>
<path d="M44.3872 22.1635C44.8143 21.9327 44.9734 21.3994 44.7427 20.9724C44.0345 19.6615 43.1484 18.4455 42.1091 17.3582C35.7312 10.6861 25.1101 10.4488 18.4327 16.8294C15.1982 19.9203 13.3605 24.0848 13.2579 28.5558C13.1554 33.0272 14.8006 37.2696 17.8904 40.5019C21.1732 43.9362 25.5791 45.6656 29.9938 45.6654C40.5689 45.6389 48.1409 36.1792 46.5295 26.2277C46.4518 25.7484 46 25.4237 45.5212 25.5008C45.042 25.5785 44.7166 26.0299 44.7943 26.5091C46.3081 36.0811 38.7439 43.9538 29.9933 43.9086C26.043 43.9083 22.0984 42.3605 19.1609 39.2874C16.3957 36.3947 14.9234 32.5979 15.0152 28.5964C15.107 24.5946 16.7519 20.8669 19.6471 18.1003C25.6237 12.3894 35.1303 12.6011 40.8384 18.5729C41.7692 19.5467 42.5624 20.6351 43.1961 21.8081C43.427 22.235 43.9602 22.3944 44.3872 22.1635Z" fill="#525A68"/>
<path d="M21.6593 36.9067C21.3249 36.5547 20.7685 36.5407 20.4168 36.8752C20.065 37.2096 20.051 37.7659 20.3854 38.1178C22.843 40.706 26.3471 42.2288 29.9964 42.2382C35.8627 42.3276 41.5648 37.9949 42.8929 32.1696C45.6486 20.38 33.1879 11.6699 23.1649 17.5717C17.9476 20.7066 15.529 26.9612 17.2835 32.7817C17.4235 33.2465 17.914 33.5098 18.3786 33.3696C18.8434 33.2295 19.1066 32.7392 18.9664 32.2745C17.4444 27.225 19.5432 21.7986 24.0703 19.0785C33.3055 13.7231 43.5723 22.1847 41.1873 31.7444C40.4428 34.7312 38.5795 37.2492 35.941 38.8345C31.35 41.5931 25.3438 40.7824 21.6593 36.9067Z" fill="#525A68"/>
<path d="M23.4667 22.3833C22.4291 23.421 22.4291 25.1097 23.4667 26.1475C24.3766 27.089 26.1726 27.2331 27.2309 26.1475C28.2687 25.1097 28.2687 23.421 27.2309 22.3832V22.3833C26.3212 21.4416 24.5253 21.2976 23.4667 22.3833ZM25.988 23.6262C26.3404 23.9786 26.3404 24.552 25.988 24.9045C25.719 25.1615 25.165 25.3142 24.7099 24.9045C24.3575 24.552 24.3575 23.9786 24.7099 23.6262C24.9792 23.3693 25.5328 23.2163 25.988 23.6262Z" fill="#525A68"/>
<path d="M32.7719 31.688C31.8304 32.5977 31.6862 34.394 32.7719 35.4522C33.6818 36.3938 35.4777 36.5379 36.5362 35.4523C37.4777 34.5426 37.6217 32.7466 36.5362 31.6881C35.5645 30.6938 33.8064 30.6589 32.7719 31.688ZM35.2932 34.2093C35.024 34.4664 34.4702 34.6191 34.0148 34.2093C33.7578 33.9402 33.6051 33.3863 34.0148 32.9311C34.297 32.6707 34.8242 32.5218 35.2931 32.9311C35.5501 33.2002 35.7029 33.7541 35.2932 34.2093Z" fill="#525A68"/>
<path d="M35.06 22.6768L23.7691 33.9677C23.4259 34.3111 23.4259 34.8675 23.7691 35.2107C23.9407 35.3823 24.1657 35.468 24.3906 35.468C24.6155 35.468 24.8405 35.3823 25.012 35.2107L36.3028 23.9198C36.6461 23.5764 36.6461 23.02 36.3028 22.6768C35.9597 22.3337 35.4032 22.3337 35.06 22.6768Z" fill="#525A68"/>
</svg>
