<svg width="60" height="60" viewBox="0 0 60 60" fill="none" xmlns="http://www.w3.org/2000/svg">
<path d="M57.8729 28.3178C57.8729 28.3177 55.4476 27.5839 53.6654 27.0449C53.3916 24.8291 52.8145 22.7073 51.9758 20.7229L54.9798 17.5205C55.4959 16.9699 55.6164 16.1266 55.2196 15.4395C54.8229 14.7523 54.0322 14.4349 53.2976 14.6067C53.2976 14.6066 50.8287 15.1842 49.0157 15.6084C47.6932 13.8638 46.1363 12.3068 44.3916 10.9843L45.3934 6.70242C45.5651 5.96766 45.2477 5.17699 44.5605 4.78031C43.8734 4.38352 43.03 4.50398 42.4796 5.0202C42.4795 5.0202 40.6348 6.7507 39.2771 8.02418C37.2927 7.18547 35.1709 6.60844 32.9551 6.33457L31.6823 2.12707C31.4637 1.40496 30.7935 0.878906 30 0.878906C29.2065 0.878906 28.5363 1.40496 28.3179 2.12707C28.3178 2.12707 27.5841 4.55238 27.045 6.33457C24.8292 6.60844 22.7074 7.18547 20.723 8.02418L17.5206 5.0202C16.97 4.5041 16.1268 4.38363 15.4396 4.78043C14.7524 5.17711 14.435 5.96777 14.6068 6.70242C14.6067 6.70242 15.1843 9.17133 15.6086 10.9843C13.8639 12.3068 12.3069 13.8638 10.9845 15.6084L6.70254 14.6066C5.96777 14.4349 5.17723 14.7523 4.78043 15.4395C4.38363 16.1266 4.5041 16.97 5.02031 17.5204C5.02031 17.5205 6.7507 19.3652 8.02418 20.7229C7.18547 22.7073 6.60844 24.8291 6.33457 27.0449L2.12707 28.3177C1.40496 28.5363 0.878906 29.2065 0.878906 30C0.878906 30.7935 1.40496 31.4636 2.12707 31.6821C2.12707 31.6822 4.55238 32.4159 6.33457 32.955C6.60844 35.1708 7.18547 37.2926 8.02418 39.277L5.0202 42.4794C4.5041 43.03 4.38363 43.8732 4.78043 44.5604C5.17723 45.2476 5.96777 45.565 6.70242 45.3932C6.70242 45.3933 9.17133 44.8157 10.9843 44.3914C12.3068 46.1361 13.8638 47.6931 15.6084 49.0155L14.6066 53.2975C14.4349 54.0322 14.7523 54.8228 15.4395 55.2196C16.1266 55.6164 16.97 55.4959 17.5204 54.9797C17.5205 54.9797 19.3652 53.2492 20.7229 51.9757C22.7073 52.8144 24.8291 53.3914 27.0449 53.6653L28.3177 57.8728C28.5363 58.595 29.2065 59.121 30 59.121C30.7935 59.121 31.4637 58.5949 31.6821 57.8728C31.6822 57.8728 32.4159 55.4475 32.955 53.6653C35.1708 53.3914 37.2926 52.8144 39.277 51.9757L42.4794 54.9797C43.03 55.4958 43.8732 55.6162 44.5604 55.2195C45.2476 54.8228 45.565 54.0321 45.3932 53.2975C45.3933 53.2975 44.8157 50.8287 44.3914 49.0155C46.1361 47.6931 47.6931 46.1361 49.0155 44.3914L53.2975 45.3933C54.0322 45.565 54.8228 45.2476 55.2196 44.5604C55.6164 43.8732 55.4959 43.0298 54.9797 42.4795C54.9797 42.4794 53.2492 40.6346 51.9757 39.277C52.8144 37.2926 53.3914 35.1708 53.6653 32.955L57.8728 31.6822C58.595 31.4636 59.121 30.7935 59.121 29.9999C59.1211 29.2065 58.595 28.5363 57.8729 28.3178ZM30 46.8164C20.7125 46.8164 13.1836 39.2875 13.1836 30C13.1836 20.7125 20.7125 13.1836 30 13.1836C39.2875 13.1836 46.8164 20.7125 46.8164 30C46.8164 39.2875 39.2875 46.8164 30 46.8164Z" fill="white"/>
<path d="M30 9.66797C18.771 9.66797 9.66797 18.771 9.66797 30C9.66797 41.2291 18.771 50.332 30 50.332C41.229 50.332 50.332 41.2291 50.332 30C50.332 18.771 41.229 9.66797 30 9.66797ZM30 45.0586C21.6833 45.0586 14.9414 38.3167 14.9414 30C14.9414 21.6833 21.6833 14.9414 30 14.9414C38.3167 14.9414 45.0586 21.6833 45.0586 30C45.0586 38.3167 38.3167 45.0586 30 45.0586Z" fill="white"/>
<path d="M36.4809 24.2285L30.0005 41.543L20.0044 35.7715V24.2285H36.4809Z" fill="#FFD488"/>
<path d="M39.9965 24.2285H30.0005L36.4808 37.8013L39.9965 35.7715V24.2285Z" fill="#F4B74A"/>
<path d="M30.0005 24.2285V41.543L36.4808 37.8013V26.2583L30.0005 24.2285Z" fill="#F9C662"/>
<path d="M39.9966 24.2285L34.9985 27.1148H26.7603L25.0024 21.3422L30.0005 18.457L39.9966 24.2285Z" fill="#FFD488"/>
<path d="M34.9985 27.1149L30.0005 30.0001L20.0044 24.2286L25.0024 21.3423L34.9985 27.1149Z" fill="#F9C662"/>
<path d="M19.564 36.5326L29.5605 42.3041C29.6965 42.3826 29.8482 42.4219 30 42.4219C30.1517 42.4219 30.3035 42.3826 30.4394 42.3041L40.436 36.5326C40.7079 36.3756 40.8755 36.0855 40.8755 35.7715V24.2285C40.8755 23.9145 40.7079 23.6244 40.436 23.4674L30.4394 17.6959C30.1676 17.5389 29.8324 17.5389 29.5605 17.6959L19.564 23.4674C19.2921 23.6244 19.1245 23.9145 19.1245 24.2285V35.7715C19.1245 36.0855 19.2921 36.3756 19.564 36.5326ZM20.8823 25.7508L29.1211 30.5074V40.0207L20.8823 35.2641V25.7508ZM30 28.9852L21.7612 24.2285L25.0017 22.3576L33.2405 27.1143L30 28.9852ZM30.8789 40.0207V30.5074L39.1176 25.7508V35.2641L30.8789 40.0207ZM30 19.4719L38.2387 24.2285L34.9983 26.0994L26.7595 21.3428L30 19.4719Z" fill="#525A68"/>
<path d="M30 45.9375C38.788 45.9375 45.9375 38.788 45.9375 30C45.9375 21.212 38.788 14.0625 30 14.0625C21.212 14.0625 14.0625 21.212 14.0625 30C14.0625 38.788 21.212 45.9375 30 45.9375ZM30 15.8203C37.8188 15.8203 44.1797 22.1812 44.1797 30C44.1797 37.8188 37.8188 44.1797 30 44.1797C22.1812 44.1797 15.8203 37.8188 15.8203 30C15.8203 22.1812 22.1812 15.8203 30 15.8203Z" fill="#525A68"/>
<path d="M58.1275 27.482C58.0007 27.4318 57.86 27.3956 57.7206 27.3534L54.4605 26.3672C54.1849 24.4961 53.6959 22.6659 53.0028 20.9127L55.6211 18.1216C56.4213 17.2679 56.5659 16.0136 55.9808 15C55.3956 13.9866 54.2375 13.4844 53.0984 13.751C53.0031 13.7654 52.9161 13.7933 52.8428 13.8105L49.3642 14.6243C48.1904 13.1479 46.8523 11.8098 45.3757 10.6358L46.2492 6.90246C46.5155 5.76293 46.0134 4.6043 45 4.01918C43.9863 3.43383 42.7352 3.58219 41.8819 4.38281C41.7789 4.46566 41.6786 4.56656 41.569 4.66945L39.0875 6.99715C37.3341 6.3041 35.5039 5.81508 33.6328 5.53945L32.5235 1.87242C32.1844 0.752461 31.1702 0 30 0C28.8296 0 27.8198 0.753867 27.4808 1.87383C27.4396 1.97906 27.4111 2.08863 27.3803 2.1907L26.3672 5.53945C24.4961 5.81508 22.6659 6.3041 20.9127 6.99715L18.1216 4.37895C17.268 3.57867 16.0137 3.43418 15.0001 4.01918C13.9864 4.60441 13.4844 5.76316 13.751 6.90258C13.7604 6.93738 13.7678 6.97406 13.7766 7.01215L14.6243 10.6358C13.1479 11.8097 11.8097 13.1479 10.6358 14.6243L6.90246 13.7508C5.76293 13.4846 4.60441 13.9867 4.01918 15.0001C3.43406 16.0137 3.58242 17.2648 4.38293 18.1182C4.46578 18.2212 4.56668 18.3216 4.66957 18.4311L6.99727 20.9126C6.3041 22.6659 5.81508 24.4961 5.53945 26.3672L1.87242 27.4765C0.752461 27.8156 0 28.8298 0 30C0 31.1705 0.75375 32.1802 1.87383 32.5192C1.97906 32.5604 2.08852 32.5889 2.1907 32.6197L5.53945 33.6328C5.81508 35.5039 6.3041 37.3341 6.99715 39.0874L4.37895 41.8785C3.57867 42.7321 3.43406 43.9866 4.01918 45C4.60441 46.0136 5.76316 46.5158 6.90246 46.2491L6.9007 46.2416C7.02281 46.221 7.15934 46.1891 7.3166 46.1523L10.6357 45.3758C11.8096 46.8524 13.1476 48.1904 14.6242 49.3643L13.7507 53.0977C13.4844 54.2371 13.9864 55.3958 14.9999 55.9809C16.0133 56.5661 17.2644 56.4178 18.118 55.6173C18.221 55.5345 18.3213 55.4336 18.431 55.3307L20.9125 53.003C22.6658 53.696 24.4959 54.185 26.3671 54.4607L27.4764 58.1278C27.8156 59.2475 28.8298 60 30 60C31.1705 60 32.1807 59.2464 32.5196 58.1264C32.5561 58.033 32.5804 57.9391 32.6054 57.8564L33.6328 54.4605C35.5039 54.1849 37.3341 53.6959 39.0874 53.0028L41.8785 55.6211C42.7322 56.4214 43.9868 56.5659 45 55.9808C46.0137 55.3956 46.5118 54.2378 46.2452 53.0984C46.2308 53.003 46.2067 52.9162 46.1895 52.8428L45.3757 49.3642C46.8521 48.1904 48.1902 46.8523 49.3642 45.3757L53.0975 46.2492C54.2365 46.5152 55.3957 46.0134 55.9808 45C56.5661 43.9863 56.4213 42.732 55.6208 41.8784C55.5953 41.853 55.5707 41.8248 55.5441 41.7964L53.003 39.0873C53.696 37.3341 54.185 35.5039 54.4607 33.6327L58.1277 32.5234C59.2475 32.1844 60 31.1702 60 30C60 28.8296 59.2475 27.821 58.1275 27.482ZM57.6184 30.8411L53.411 32.1138C53.0781 32.2145 52.8359 32.5021 52.7932 32.8473C52.5338 34.9466 51.9864 36.9948 51.1663 38.935C51.0309 39.2551 51.097 39.625 51.3348 39.8784C52.5955 41.2223 54.304 43.0438 54.3373 43.0793C54.6012 43.3608 54.6505 43.7885 54.4586 44.121C54.2665 44.4536 53.8713 44.6245 53.4979 44.5375L49.2159 43.5356C48.8781 43.4565 48.525 43.5838 48.3152 43.8605C47.0407 45.542 45.5419 47.0407 43.8606 48.3151C43.5839 48.5249 43.4566 48.8777 43.5357 49.2158L43.8383 50.5091C44.1827 51.9812 44.5204 53.4246 44.5364 53.4934C44.6248 53.8714 44.4537 54.2665 44.1211 54.4584C43.7885 54.6503 43.3607 54.6012 43.0809 54.3388L39.8786 51.3348C39.625 51.097 39.2551 51.0309 38.9351 51.1663C36.9948 51.9864 34.9466 52.5338 32.8474 52.7932C32.5022 52.8359 32.2147 53.0781 32.1139 53.4109L31.7872 54.491C31.3286 56.0072 30.86 57.5557 30.8421 57.615C30.7298 57.9857 30.384 58.2422 30 58.2422C29.616 58.2422 29.27 57.9857 29.1589 57.6185L27.8862 53.411C27.7855 53.0781 27.4979 52.8359 27.1527 52.7932C25.0535 52.5338 23.0053 51.9864 21.065 51.1663C20.9546 51.1196 20.8384 51.0969 20.7231 51.0969C20.5038 51.0969 20.2877 51.1789 20.1216 51.3348C18.7796 52.5935 16.9616 54.2991 16.9211 54.3368C16.6392 54.6012 16.2114 54.6504 15.8789 54.4584C15.5463 54.2664 15.3751 53.8712 15.4624 53.4977L16.4643 49.2158C16.5434 48.8779 16.4161 48.5249 16.1394 48.3151C14.458 47.0407 12.9593 45.5419 11.6848 43.8605C11.475 43.5838 11.1217 43.4565 10.7841 43.5356C8.98816 43.9557 6.54891 44.5266 6.50402 44.5369C6.12844 44.6248 5.7334 44.4536 5.54145 44.121C5.34949 43.7885 5.39871 43.3607 5.66109 43.0808L8.66508 39.8784C8.90285 39.6248 8.96894 39.2551 8.83359 38.935C8.0134 36.9947 7.46613 34.9465 7.20668 32.8473C7.16402 32.5022 6.9218 32.2146 6.58898 32.1138L5.91422 31.9097C4.27289 31.4132 2.42918 30.8554 2.38406 30.8416C2.01434 30.7298 1.75781 30.384 1.75781 30C1.75781 29.6161 2.01434 29.2702 2.3816 29.1589L6.58898 27.8862C6.92191 27.7855 7.16402 27.4979 7.20668 27.1527C7.46613 25.0534 8.01352 23.0053 8.83359 21.065C8.96894 20.7449 8.90285 20.375 8.66508 20.1216C7.40637 18.7796 5.70094 16.9616 5.66309 16.9211C5.39871 16.6392 5.34949 16.2114 5.54133 15.8789C5.73328 15.5463 6.12832 15.3752 6.50203 15.4623L10.7839 16.4641C11.1216 16.5432 11.4749 16.416 11.6846 16.1393C12.9591 14.4579 14.4579 12.9592 16.1393 11.6846C16.416 11.4749 16.5432 11.122 16.4641 10.7839C16.0448 8.99203 15.4757 6.55934 15.4631 6.50473C15.3751 6.12832 15.5462 5.73328 15.8788 5.54133C16.2112 5.34926 16.6391 5.39859 16.9189 5.66098L20.1213 8.66496C20.3748 8.90262 20.7445 8.96871 21.0648 8.83348C23.0051 8.0134 25.0533 7.46602 27.1525 7.20656C27.4977 7.16391 27.7852 6.92168 27.8859 6.58887L28.0901 5.9141C28.5866 4.27277 29.1444 2.42906 29.1581 2.38395C29.2702 2.01434 29.616 1.75781 30 1.75781C30.384 1.75781 30.73 2.01445 30.8411 2.3816L32.1138 6.58898C32.2145 6.92191 32.5021 7.16414 32.8473 7.2068C34.9465 7.46625 36.9947 8.01363 38.935 8.83371C39.2551 8.96894 39.625 8.90297 39.8784 8.6652C41.2204 7.40648 43.0384 5.70094 43.0789 5.6632C43.3607 5.39883 43.7884 5.34949 44.1212 5.54156C44.4537 5.73352 44.625 6.12867 44.5377 6.50215L43.5359 10.7841C43.4568 11.122 43.584 11.475 43.8607 11.6848C45.5422 12.9593 47.0409 14.4581 48.3153 16.1394C48.525 16.4161 48.878 16.5431 49.2161 16.4643L50.5093 16.1617C51.9845 15.8166 53.4309 15.4781 53.4941 15.4635C53.8719 15.3754 54.2667 15.5464 54.4587 15.8788C54.6507 16.2114 54.6014 16.6392 54.339 16.9191L51.335 20.1214C51.0973 20.375 51.0312 20.7448 51.1665 21.0649C51.9866 23.0051 52.534 25.0533 52.7934 27.1526C52.8361 27.4978 53.0783 27.7853 53.4111 27.8861C55.1776 28.4204 57.5761 29.1461 57.617 29.1585C57.9858 29.27 58.2423 29.6159 58.2423 29.9999C58.2422 30.384 57.9857 30.73 57.6184 30.8411Z" fill="#525A68"/>
<path d="M30 8.78906C25.1202 8.78906 20.3555 10.4876 16.5833 13.5718C16.2075 13.8791 16.152 14.4328 16.4592 14.8086C16.7665 15.1843 17.3201 15.2399 17.696 14.9327C21.155 12.1044 25.5247 10.5469 30 10.5469C40.7265 10.5469 49.4531 19.2735 49.4531 30C49.4531 40.7265 40.7265 49.4531 30 49.4531C19.2735 49.4531 10.5469 40.7265 10.5469 30C10.5469 25.3261 12.229 20.808 15.2832 17.278C15.6008 16.911 15.5607 16.3559 15.1936 16.0383C14.8266 15.7207 14.2716 15.7608 13.9539 16.1279C10.6233 19.9772 8.78906 24.9037 8.78906 30C8.78906 41.6958 18.3042 51.2109 30 51.2109C41.6958 51.2109 51.2109 41.6958 51.2109 30C51.2109 18.3042 41.6958 8.78906 30 8.78906Z" fill="#525A68"/>
<path d="M19.564 36.5326L29.5605 42.3041C29.6965 42.3826 29.8482 42.4219 30 42.4219C30.1517 42.4219 30.3035 42.3826 30.4394 42.3041L40.436 36.5326C40.7079 36.3756 40.8755 36.0855 40.8755 35.7715V24.2285C40.8755 23.9145 40.7079 23.6244 40.436 23.4674L30.4394 17.6959C30.1676 17.5389 29.8324 17.5389 29.5605 17.6959L19.564 23.4674C19.2921 23.6244 19.1245 23.9145 19.1245 24.2285V35.7715C19.1245 36.0855 19.2921 36.3756 19.564 36.5326ZM20.8823 25.7508L29.1211 30.5074V40.0207L20.8823 35.2641V25.7508ZM30 28.9852L21.7612 24.2285L25.0017 22.3576L33.2405 27.1143L30 28.9852ZM30.8789 40.0207V30.5074L39.1176 25.7508V35.2641L30.8789 40.0207ZM30 19.4719L38.2387 24.2285L34.9983 26.0994L26.7595 21.3428L30 19.4719Z" fill="#525A68"/>
<path d="M30 45.9375C38.788 45.9375 45.9375 38.788 45.9375 30C45.9375 21.212 38.788 14.0625 30 14.0625C21.212 14.0625 14.0625 21.212 14.0625 30C14.0625 38.788 21.212 45.9375 30 45.9375ZM30 15.8203C37.8188 15.8203 44.1797 22.1812 44.1797 30C44.1797 37.8188 37.8188 44.1797 30 44.1797C22.1812 44.1797 15.8203 37.8188 15.8203 30C15.8203 22.1812 22.1812 15.8203 30 15.8203Z" fill="#525A68"/>
<path d="M58.1275 27.482C58.0007 27.4318 57.86 27.3956 57.7206 27.3534L54.4605 26.3672C54.1849 24.4961 53.6959 22.6659 53.0028 20.9127L55.6211 18.1216C56.4213 17.2679 56.5659 16.0136 55.9808 15C55.3956 13.9866 54.2375 13.4844 53.0984 13.751C53.0031 13.7654 52.9161 13.7933 52.8428 13.8105L49.3642 14.6243C48.1904 13.1479 46.8523 11.8098 45.3757 10.6358L46.2492 6.90246C46.5155 5.76293 46.0134 4.6043 45 4.01918C43.9863 3.43383 42.7352 3.58219 41.8819 4.38281C41.7789 4.46566 41.6786 4.56656 41.569 4.66945L39.0875 6.99715C37.3341 6.3041 35.5039 5.81508 33.6328 5.53945L32.5235 1.87242C32.1844 0.752461 31.1702 0 30 0C28.8296 0 27.8198 0.753867 27.4808 1.87383C27.4396 1.97906 27.4111 2.08863 27.3803 2.1907L26.3672 5.53945C24.4961 5.81508 22.6659 6.3041 20.9127 6.99715L18.1216 4.37895C17.268 3.57867 16.0137 3.43418 15.0001 4.01918C13.9864 4.60441 13.4844 5.76316 13.751 6.90258C13.7604 6.93738 13.7678 6.97406 13.7766 7.01215L14.6243 10.6358C13.1479 11.8097 11.8097 13.1479 10.6358 14.6243L6.90246 13.7508C5.76293 13.4846 4.60441 13.9867 4.01918 15.0001C3.43406 16.0137 3.58242 17.2648 4.38293 18.1182C4.46578 18.2212 4.56668 18.3216 4.66957 18.4311L6.99727 20.9126C6.3041 22.6659 5.81508 24.4961 5.53945 26.3672L1.87242 27.4765C0.752461 27.8156 0 28.8298 0 30C0 31.1705 0.75375 32.1802 1.87383 32.5192C1.97906 32.5604 2.08852 32.5889 2.1907 32.6197L5.53945 33.6328C5.81508 35.5039 6.3041 37.3341 6.99715 39.0874L4.37895 41.8785C3.57867 42.7321 3.43406 43.9866 4.01918 45C4.60441 46.0136 5.76316 46.5158 6.90246 46.2491L6.9007 46.2416C7.02281 46.221 7.15934 46.1891 7.3166 46.1523L10.6357 45.3758C11.8096 46.8524 13.1476 48.1904 14.6242 49.3643L13.7507 53.0977C13.4844 54.2371 13.9864 55.3958 14.9999 55.9809C16.0133 56.5661 17.2644 56.4178 18.118 55.6173C18.221 55.5345 18.3213 55.4336 18.431 55.3307L20.9125 53.003C22.6658 53.696 24.4959 54.185 26.3671 54.4607L27.4764 58.1278C27.8156 59.2475 28.8298 60 30 60C31.1705 60 32.1807 59.2464 32.5196 58.1264C32.5561 58.033 32.5804 57.9391 32.6054 57.8564L33.6328 54.4605C35.5039 54.1849 37.3341 53.6959 39.0874 53.0028L41.8785 55.6211C42.7322 56.4214 43.9868 56.5659 45 55.9808C46.0137 55.3956 46.5118 54.2378 46.2452 53.0984C46.2308 53.003 46.2067 52.9162 46.1895 52.8428L45.3757 49.3642C46.8521 48.1904 48.1902 46.8523 49.3642 45.3757L53.0975 46.2492C54.2365 46.5152 55.3957 46.0134 55.9808 45C56.5661 43.9863 56.4213 42.732 55.6208 41.8784C55.5953 41.853 55.5707 41.8248 55.5441 41.7964L53.003 39.0873C53.696 37.3341 54.185 35.5039 54.4607 33.6327L58.1277 32.5234C59.2475 32.1844 60 31.1702 60 30C60 28.8296 59.2475 27.821 58.1275 27.482ZM57.6184 30.8411L53.411 32.1138C53.0781 32.2145 52.8359 32.5021 52.7932 32.8473C52.5338 34.9466 51.9864 36.9948 51.1663 38.935C51.0309 39.2551 51.097 39.625 51.3348 39.8784C52.5955 41.2223 54.304 43.0438 54.3373 43.0793C54.6012 43.3608 54.6505 43.7885 54.4586 44.121C54.2665 44.4536 53.8713 44.6245 53.4979 44.5375L49.2159 43.5356C48.8781 43.4565 48.525 43.5838 48.3152 43.8605C47.0407 45.542 45.5419 47.0407 43.8606 48.3151C43.5839 48.5249 43.4566 48.8777 43.5357 49.2158L43.8383 50.5091C44.1827 51.9812 44.5204 53.4246 44.5364 53.4934C44.6248 53.8714 44.4537 54.2665 44.1211 54.4584C43.7885 54.6503 43.3607 54.6012 43.0809 54.3388L39.8786 51.3348C39.625 51.097 39.2551 51.0309 38.9351 51.1663C36.9948 51.9864 34.9466 52.5338 32.8474 52.7932C32.5022 52.8359 32.2147 53.0781 32.1139 53.4109L31.7872 54.491C31.3286 56.0072 30.86 57.5557 30.8421 57.615C30.7298 57.9857 30.384 58.2422 30 58.2422C29.616 58.2422 29.27 57.9857 29.1589 57.6185L27.8862 53.411C27.7855 53.0781 27.4979 52.8359 27.1527 52.7932C25.0535 52.5338 23.0053 51.9864 21.065 51.1663C20.9546 51.1196 20.8384 51.0969 20.7231 51.0969C20.5038 51.0969 20.2877 51.1789 20.1216 51.3348C18.7796 52.5935 16.9616 54.2991 16.9211 54.3368C16.6392 54.6012 16.2114 54.6504 15.8789 54.4584C15.5463 54.2664 15.3751 53.8712 15.4624 53.4977L16.4643 49.2158C16.5434 48.8779 16.4161 48.5249 16.1394 48.3151C14.458 47.0407 12.9593 45.5419 11.6848 43.8605C11.475 43.5838 11.1217 43.4565 10.7841 43.5356C8.98816 43.9557 6.54891 44.5266 6.50402 44.5369C6.12844 44.6248 5.7334 44.4536 5.54145 44.121C5.34949 43.7885 5.39871 43.3607 5.66109 43.0808L8.66508 39.8784C8.90285 39.6248 8.96894 39.2551 8.83359 38.935C8.0134 36.9947 7.46613 34.9465 7.20668 32.8473C7.16402 32.5022 6.9218 32.2146 6.58898 32.1138L5.91422 31.9097C4.27289 31.4132 2.42918 30.8554 2.38406 30.8416C2.01434 30.7298 1.75781 30.384 1.75781 30C1.75781 29.6161 2.01434 29.2702 2.3816 29.1589L6.58898 27.8862C6.92191 27.7855 7.16402 27.4979 7.20668 27.1527C7.46613 25.0534 8.01352 23.0053 8.83359 21.065C8.96894 20.7449 8.90285 20.375 8.66508 20.1216C7.40637 18.7796 5.70094 16.9616 5.66309 16.9211C5.39871 16.6392 5.34949 16.2114 5.54133 15.8789C5.73328 15.5463 6.12832 15.3752 6.50203 15.4623L10.7839 16.4641C11.1216 16.5432 11.4749 16.416 11.6846 16.1393C12.9591 14.4579 14.4579 12.9592 16.1393 11.6846C16.416 11.4749 16.5432 11.122 16.4641 10.7839C16.0448 8.99203 15.4757 6.55934 15.4631 6.50473C15.3751 6.12832 15.5462 5.73328 15.8788 5.54133C16.2112 5.34926 16.6391 5.39859 16.9189 5.66098L20.1213 8.66496C20.3748 8.90262 20.7445 8.96871 21.0648 8.83348C23.0051 8.0134 25.0533 7.46602 27.1525 7.20656C27.4977 7.16391 27.7852 6.92168 27.8859 6.58887L28.0901 5.9141C28.5866 4.27277 29.1444 2.42906 29.1581 2.38395C29.2702 2.01434 29.616 1.75781 30 1.75781C30.384 1.75781 30.73 2.01445 30.8411 2.3816L32.1138 6.58898C32.2145 6.92191 32.5021 7.16414 32.8473 7.2068C34.9465 7.46625 36.9947 8.01363 38.935 8.83371C39.2551 8.96894 39.625 8.90297 39.8784 8.6652C41.2204 7.40648 43.0384 5.70094 43.0789 5.6632C43.3607 5.39883 43.7884 5.34949 44.1212 5.54156C44.4537 5.73352 44.625 6.12867 44.5377 6.50215L43.5359 10.7841C43.4568 11.122 43.584 11.475 43.8607 11.6848C45.5422 12.9593 47.0409 14.4581 48.3153 16.1394C48.525 16.4161 48.878 16.5431 49.2161 16.4643L50.5093 16.1617C51.9845 15.8166 53.4309 15.4781 53.4941 15.4635C53.8719 15.3754 54.2667 15.5464 54.4587 15.8788C54.6507 16.2114 54.6014 16.6392 54.339 16.9191L51.335 20.1214C51.0973 20.375 51.0312 20.7448 51.1665 21.0649C51.9866 23.0051 52.534 25.0533 52.7934 27.1526C52.8361 27.4978 53.0783 27.7853 53.4111 27.8861C55.1776 28.4204 57.5761 29.1461 57.617 29.1585C57.9858 29.27 58.2423 29.6159 58.2423 29.9999C58.2422 30.384 57.9857 30.73 57.6184 30.8411Z" fill="#525A68"/>
<path d="M30 8.78906C25.1202 8.78906 20.3555 10.4876 16.5833 13.5718C16.2075 13.8791 16.152 14.4328 16.4592 14.8086C16.7665 15.1843 17.3201 15.2399 17.696 14.9327C21.155 12.1044 25.5247 10.5469 30 10.5469C40.7265 10.5469 49.4531 19.2735 49.4531 30C49.4531 40.7265 40.7265 49.4531 30 49.4531C19.2735 49.4531 10.5469 40.7265 10.5469 30C10.5469 25.3261 12.229 20.808 15.2832 17.278C15.6008 16.911 15.5607 16.3559 15.1936 16.0383C14.8266 15.7207 14.2716 15.7608 13.9539 16.1279C10.6233 19.9772 8.78906 24.9037 8.78906 30C8.78906 41.6958 18.3042 51.2109 30 51.2109C41.6958 51.2109 51.2109 41.6958 51.2109 30C51.2109 18.3042 41.6958 8.78906 30 8.78906Z" fill="#525A68"/>
</svg>
