<svg width="60" height="60" viewBox="0 0 60 60" fill="none" xmlns="http://www.w3.org/2000/svg">
<g clip-path="url(#clip0)">
<path d="M30.9626 8.50781L25.3289 8.5493C16.921 8.6113 8.73323 11.2434 1.86433 16.0925L1.81522 16.1271C0.689159 16.9221 0.557191 18.5425 1.5398 19.5091L1.57473 19.5434C2.22215 20.1803 3.17171 20.3711 4.00395 20.0379C5.04094 19.6227 6.4647 19.0534 7.53204 18.6268C7.8745 18.4899 8.16036 18.9183 7.90275 19.1822L5.36688 21.7799C4.31008 22.8623 4.44568 24.6274 5.65507 25.5361L5.69539 25.5665C6.42379 26.1138 7.3764 26.2276 8.2022 25.8723L12.6169 23.9727C13.0097 23.8037 13.3809 24.2503 13.143 24.6056L10.2858 28.8708C9.63017 29.8496 9.92692 31.1777 10.9368 31.7842C11.4792 32.1099 12.1412 32.1685 12.7322 31.943L18.122 29.8871L35.9335 19.0705L30.9626 8.50781Z" fill="white"/>
<path d="M34.5753 16.1847L30.9626 8.50781L25.5256 8.54789L11.4409 31.9987C11.8621 32.1171 12.3147 32.1024 12.7324 31.9431L18.122 29.8872L31.067 22.0261L34.5753 16.1847Z" fill="white"/>
<path d="M51.8288 21.0396L54.4389 26.0324C58.3342 33.4838 59.8572 41.9483 58.8037 50.29L58.7962 50.3497C58.6234 51.7172 57.255 52.595 55.94 52.1817L55.8932 52.167C55.0269 51.8948 54.4123 51.1461 54.3155 50.2549C54.1949 49.1444 54.0284 47.6201 53.9036 46.4775C53.8635 46.1109 53.3511 46.0598 53.2392 46.4112L52.1375 49.8701C51.6783 51.3116 50.0566 52.0211 48.6862 51.3804L48.6405 51.359C47.815 50.9732 47.2671 50.1856 47.1928 49.2897L46.7957 44.5001C46.7605 44.074 46.1917 43.9561 45.9899 44.3331L43.5669 48.8593C43.0108 49.8978 41.699 50.2598 40.6891 49.6533C40.1467 49.3276 39.7841 48.7707 39.7054 48.1429L38.9883 42.4192L40.169 21.6141L51.8288 21.0396Z" fill="white"/>
<path d="M43.3547 21.4569L51.8289 21.0396L54.3478 25.858L40.2631 49.3087C39.9607 48.9924 39.761 48.5862 39.7054 48.1426L38.9883 42.4188L39.8463 27.2982L43.3547 21.4569Z" fill="white"/>
<path d="M7.9848 44.7307C7.40747 44.3841 7.22054 43.6349 7.56734 43.0577L32.183 2.07318C32.5297 1.49585 33.2788 1.30892 33.8561 1.65571L56.5178 15.2666C57.0951 15.6133 57.282 16.3624 56.9352 16.9396L32.3196 57.9242C31.9729 58.5015 31.2237 58.6884 30.6464 58.3416L7.9848 44.7307Z" fill="#FFD831"/>
<path d="M56.9351 16.94C57.2818 16.3626 57.095 15.6136 56.5177 15.2668L54.4474 14.0234C55.0248 14.3701 55.2117 15.1193 54.8649 15.6966L30.2492 56.6811C29.9025 57.2585 29.1534 57.4453 28.5762 57.0986L30.6464 58.342C31.2237 58.6887 31.9728 58.5018 32.3194 57.9245L56.9351 16.94Z" fill="#FFC80A"/>
<path d="M16.3949 45.6052L25.9241 51.3285C27.4306 48.8203 30.6851 48.0082 33.1934 49.5146L49.9215 21.6626C47.4133 20.1561 46.6012 16.9015 48.1076 14.3933L38.5784 8.66992C37.0719 11.1781 33.8173 11.9902 31.309 10.4838L14.5811 38.3358C17.0893 39.8423 17.9014 43.0968 16.3949 45.6052Z" fill="#FFEFB6"/>
<path d="M48.1079 14.3931L45.6153 12.896C44.5451 14.6778 44.645 16.8363 45.6918 18.4771C46.5602 19.8381 46.5827 21.5747 45.7514 22.9587L32.3787 45.2238C31.5481 46.6067 30.0026 47.4038 28.3945 47.2767C26.4542 47.1235 24.5018 48.0493 23.4316 49.8312L25.9243 51.3284C27.4308 48.8201 30.6853 48.0081 33.1935 49.5144L49.9217 21.6624C47.4135 20.156 46.6014 16.9014 48.1079 14.3931Z" fill="#FFC600"/>
<path d="M34.3989 33.9577C33.9909 34.2182 33.8701 34.7599 34.1295 35.1691C34.297 35.4332 34.5816 35.5776 34.8728 35.5776C35.0337 35.5776 35.1966 35.5335 35.3425 35.441C35.3975 35.4062 36.2861 34.8328 37.0255 33.8166L37.4601 34.0776C37.6018 34.1627 37.7578 34.2031 37.9118 34.2031C38.2102 34.2031 38.5012 34.051 38.6662 33.7765C38.9162 33.3603 38.7813 32.8204 38.3652 32.5704L37.8249 32.2459C37.8467 32.1747 37.8672 32.1027 37.8858 32.0295C38.1658 30.9253 37.7866 29.7474 36.8962 28.9553C36.0806 28.2295 35.0127 27.9933 34.1092 28.338C33.6691 28.5061 33.2069 28.7582 32.6533 29.1397L29.1689 27.0469C29.456 26.6774 29.7532 26.462 30.3309 26.1826C30.7679 25.9712 30.9508 25.4455 30.7392 25.0085C30.5278 24.5717 30.0024 24.3887 29.5651 24.6001C28.5974 25.0684 28.1035 25.506 27.6542 26.1373L27.1086 25.8097C26.6924 25.56 26.1525 25.6946 25.9024 26.1106C25.6525 26.5268 25.7874 27.0667 26.2034 27.3167L26.8193 27.6866C26.3381 29.2164 26.9569 30.7549 27.9622 31.6145C29.2613 32.7253 30.9707 32.7246 32.3168 31.6131C32.461 31.4941 32.6089 31.3735 32.7589 31.254L35.5117 32.9073C35.0016 33.5601 34.4172 33.9458 34.3989 33.9577ZM29.1047 30.2784C28.6794 29.9147 28.3632 29.3108 28.4134 28.644L31.1552 30.2908C30.1741 31.0645 29.3395 30.479 29.1047 30.2784ZM34.7363 29.9805C35.0201 29.8723 35.409 29.9852 35.7276 30.2688C35.9789 30.4923 36.2111 30.857 36.2184 31.2811L34.3495 30.1586C34.4826 30.0885 34.6122 30.0278 34.7363 29.9805Z" fill="#525A68"/>
<path d="M27.5428 37.8394C27.1266 37.5896 26.5866 37.7242 26.3367 38.1404L25.0597 40.2667C24.8097 40.6828 24.9446 41.2228 25.3606 41.4728C25.7752 41.7216 26.3158 41.5897 26.5668 41.1718L27.8438 39.0455C28.0938 38.6294 27.959 38.0894 27.5428 37.8394Z" fill="#525A68"/>
<path d="M38.1664 21.8577L39.4434 19.7315C39.6934 19.3153 39.5585 18.7754 39.1424 18.5254C38.7264 18.2757 38.1864 18.4102 37.9363 18.8264L36.6593 20.9525C36.4093 21.3687 36.5442 21.9086 36.9603 22.1586C37.3801 22.4107 37.9184 22.2703 38.1664 21.8577Z" fill="#525A68"/>
<path d="M30.3246 52.2789C29.9083 52.0291 29.3686 52.1636 29.1184 52.5795C28.8683 52.9957 29.0031 53.5357 29.419 53.7858L29.6238 53.9088C29.7656 53.994 29.9216 54.0345 30.0757 54.0345C30.3741 54.0345 30.665 53.8825 30.83 53.6081C31.0801 53.1919 30.9453 52.652 30.5294 52.4019L30.3246 52.2789Z" fill="#525A68"/>
<path d="M13.4885 42.1665L13.2838 42.0436C12.8673 41.7936 12.3276 41.9284 12.0776 42.3448C11.8278 42.7611 11.9627 43.3009 12.3789 43.5509L12.5836 43.6738C12.7253 43.7589 12.8812 43.7992 13.0353 43.7992C13.3338 43.7992 13.6248 43.6471 13.7898 43.3725C14.0396 42.9563 13.9048 42.4164 13.4885 42.1665Z" fill="#525A68"/>
<path d="M51.0142 17.8314L51.219 17.9544C51.3608 18.0396 51.5168 18.0801 51.6709 18.0801C51.9693 18.0801 52.2602 17.9281 52.4252 17.6537C52.6753 17.2375 52.5405 16.6976 52.1246 16.4475L51.9199 16.3244C51.5036 16.0744 50.9637 16.209 50.7136 16.625C50.4635 17.0411 50.5982 17.5813 51.0142 17.8314Z" fill="#525A68"/>
<path d="M34.1782 7.71879C34.3199 7.80388 34.4758 7.8442 34.6299 7.8442C34.9284 7.8442 35.2194 7.69207 35.3844 7.41747C35.6343 7.00117 35.4994 6.46135 35.0832 6.21136L34.8785 6.08842C34.4621 5.83854 33.9224 5.97333 33.6724 6.38962C33.4225 6.80592 33.5574 7.34574 33.9736 7.59573L34.1782 7.71879Z" fill="#525A68"/>
<path d="M48.5599 13.6398L39.0307 7.91646C38.8308 7.79668 38.5915 7.7607 38.3653 7.81707C38.1391 7.87345 37.9446 8.01749 37.8246 8.21743C36.57 10.3061 33.85 10.9849 31.7614 9.73038C31.3452 9.48062 30.8054 9.61517 30.5553 10.0313L13.8271 37.8834C13.7071 38.0832 13.6714 38.3226 13.7278 38.5488C13.7842 38.7751 13.9283 38.9695 14.1281 39.0895C16.2168 40.344 16.8955 43.0639 15.641 45.1527C15.391 45.5688 15.5259 46.1088 15.942 46.3588L25.4712 52.0822C25.8857 52.3311 26.4264 52.1989 26.6774 51.7812C27.285 50.7694 28.2504 50.0548 29.3955 49.769C30.5406 49.4831 31.7285 49.6606 32.7405 50.2684C33.159 50.5198 33.6982 50.381 33.9466 49.9674L37.2513 44.4652C37.5013 44.049 37.3664 43.509 36.9504 43.2591C36.5343 43.0094 35.9943 43.144 35.7442 43.56L32.8604 48.3616C31.636 47.8436 30.283 47.7357 28.97 48.0633C27.6572 48.3909 26.5133 49.1218 25.6758 50.1543L17.5474 45.2723C18.608 42.755 17.8737 39.8124 15.7548 38.0885L31.6419 11.6366C34.1591 12.697 37.1017 11.9628 38.8256 9.84406L46.9546 14.7265C45.8941 17.2438 46.6283 20.1863 48.7472 21.9102L37.5539 40.5467C37.304 40.9629 37.4388 41.5028 37.8549 41.7528C38.2711 42.0027 38.8109 41.8679 39.061 41.4518L50.6747 22.1154C50.9247 21.6993 50.7898 21.1593 50.3737 20.9093C48.2851 19.6548 47.6064 16.9349 48.8609 14.8462C49.1109 14.4299 48.9761 13.8898 48.5599 13.6398Z" fill="#525A68"/>
<path d="M55.2177 25.6254L54.0666 23.4235L57.6889 17.3924C58.2845 16.4005 57.9623 15.109 56.9705 14.5133L42.7858 5.99371C42.3697 5.74407 41.8297 5.8785 41.5797 6.29468C41.3297 6.71086 41.4646 7.2508 41.8806 7.50079L56.0653 16.0202C56.2261 16.1168 56.2783 16.3262 56.1817 16.4872L31.566 57.4718C31.4696 57.6325 31.2608 57.6855 31.0991 57.5882L8.43752 43.9777C8.2766 43.881 8.22433 43.6714 8.3209 43.5106L32.9363 2.52609C33.0332 2.36529 33.2428 2.31325 33.4035 2.40948L38.833 5.67059C39.2456 5.91847 39.7963 5.81662 40.0565 5.41157C40.3257 4.99258 40.1938 4.43705 39.7699 4.18249L34.3086 0.902391C33.3165 0.306894 32.0251 0.629196 31.4294 1.62095L27.8072 7.65187L25.3224 7.67015C19.0291 7.71656 12.715 9.20993 7.06299 11.9884C6.62723 12.2025 6.4478 12.7294 6.66193 13.165C6.81475 13.4759 7.12686 13.6564 7.45139 13.6564C7.58148 13.6564 7.7138 13.6273 7.8385 13.5661C13.2546 10.9036 19.305 9.4727 25.3354 9.42816L26.7465 9.41773L14.9981 28.9789C14.413 29.9529 13.5179 30.7024 12.4563 31.1074C12.0982 31.2439 11.691 31.2209 11.3668 31.0164C11.0991 30.8475 10.9142 30.5854 10.8449 30.2752C10.7737 29.9565 10.8345 29.6313 11.0165 29.3598L13.8738 25.0945C14.1992 24.6086 14.1666 23.9798 13.7928 23.5301C13.419 23.0805 12.8072 22.9343 12.2699 23.1649L7.85515 25.0646C6.81991 25.51 5.62306 24.7654 5.53797 23.6554C5.50152 23.1817 5.66431 22.7336 5.99611 22.3936L8.5321 19.7961C8.9389 19.3792 8.99715 18.75 8.67368 18.2656C8.3502 17.7814 7.74662 17.5941 7.20621 17.8102C6.13862 18.237 4.71452 18.8063 3.67752 19.2216C2.72468 19.6035 1.68253 18.8156 1.76305 17.8248C1.81942 17.1326 2.35714 16.8256 2.37144 16.8103C3.09996 16.2961 3.8702 15.7912 4.66154 15.3095C5.04432 15.0765 5.22094 14.5962 5.03858 14.187C4.81824 13.6925 4.22462 13.5181 3.77738 13.7898C2.42805 14.6096 1.58045 15.2237 1.30855 15.4087C0.558343 15.9383 0.0853208 16.767 0.0108983 17.6821C-0.175099 19.9674 2.16505 21.721 4.33104 20.8537C4.6851 20.7119 5.08429 20.5522 5.49894 20.3863L4.73819 21.1655C4.05808 21.8622 3.71058 22.8187 3.78511 23.7897C3.96209 26.0999 6.41006 27.6005 8.55003 26.6794L11.5651 25.382L9.55596 28.3813C9.03899 29.1529 8.91488 30.0989 9.22534 30.9969C9.40009 31.5023 9.71571 31.953 10.1311 32.2898C10.6773 32.7328 11.3327 32.959 11.9948 32.9589C12.2154 32.9589 12.4364 32.9308 12.6549 32.8803L6.81382 42.6055C6.2182 43.5973 6.54051 44.8888 7.53238 45.4846L30.1938 59.0953C31.1881 59.6928 32.476 59.3715 33.0731 58.3769L38.9128 48.6541C39.1087 49.3847 39.5758 50.0101 40.2362 50.4067C41.6732 51.2698 43.5449 50.7623 44.3414 49.2742L46.0453 46.0913L46.3163 49.3624C46.5128 51.7291 49.0239 53.1222 51.1059 52.2112C51.9979 51.8209 52.6791 51.0648 52.9746 50.137L53.305 49.0994C53.3534 49.5434 53.4 49.9708 53.4411 50.3499C53.6903 52.6432 56.3194 53.925 58.2703 52.6737C59.0433 52.178 59.5525 51.3712 59.668 50.4586C59.6423 49.475 61.8491 38.311 55.2177 25.6254ZM57.924 50.2397C57.8197 51.0644 56.994 51.5918 56.2042 51.3436C56.1925 51.3358 55.2932 51.1176 55.1891 50.16C55.0685 49.0493 54.9022 47.5249 54.7773 46.382C54.714 45.8033 54.2652 45.3585 53.6859 45.3004C53.1065 45.2414 52.5784 45.5894 52.4015 46.1442L51.2998 49.6033C50.7577 51.3067 48.2151 50.9842 48.0687 49.2171L47.6716 44.4275C47.6232 43.8446 47.206 43.3734 46.6336 43.2546C46.0615 43.1365 45.4908 43.4026 45.2148 43.9181L42.7918 48.4444C42.4657 49.0535 41.6891 49.2564 41.1044 48.8763C40.8044 48.6813 40.6175 48.3524 40.573 47.9974L40.5727 47.9941C40.4313 46.8667 40.6725 45.7244 41.2576 44.7504L53.0063 25.1891L53.66 26.4396C60.0587 38.6809 57.9064 49.5725 57.924 50.2397Z" fill="#525A68"/>
<path d="M12.7847 17.2353C12.8275 17.2082 17.1199 14.546 21.1378 15.5642C21.6082 15.6839 22.0866 15.3989 22.2058 14.9283C22.3252 14.4576 22.0404 13.9794 21.5699 13.8602C16.8292 12.6579 12.0491 15.6207 11.8477 15.7476C11.4369 16.0064 11.3136 16.5492 11.5723 16.96C11.8299 17.3686 12.372 17.4951 12.7847 17.2353Z" fill="#525A68"/>
<path d="M49.541 32.9307C49.1318 33.1919 49.0117 33.7354 49.2729 34.1445C51.4898 37.6174 50.3286 42.5351 50.3126 42.6003C50.1759 43.1563 50.5981 43.6896 51.1669 43.6896C51.5616 43.6896 51.9206 43.4217 52.0195 43.0212C52.0765 42.7903 53.386 37.3206 50.7548 33.1986C50.4936 32.7895 49.95 32.6694 49.541 32.9307Z" fill="#525A68"/>
</g>
<defs>
<clipPath id="clip0">
<rect width="60" height="60" fill="white"/>
</clipPath>
</defs>
</svg>
