<svg width="60" height="60" viewBox="0 0 60 60" fill="none" xmlns="http://www.w3.org/2000/svg">
<path d="M38.4375 14.0625H19.6875C17.6164 14.0625 15.9375 15.7414 15.9375 17.8125V53.4375C15.9375 55.5086 17.6164 57.1875 19.6875 57.1875H38.4375C40.5086 57.1875 42.1875 55.5086 42.1875 53.4375V17.8125C42.1875 15.7414 40.5086 14.0625 38.4375 14.0625Z" fill="white"/>
<path d="M42.1875 17.8125V53.4375C42.1875 54.4321 41.7924 55.3859 41.0891 56.0891C40.3859 56.7924 39.4321 57.1875 38.4375 57.1875H34.6875C35.6821 57.1875 36.6359 56.7924 37.3391 56.0891C38.0424 55.3859 38.4375 54.4321 38.4375 53.4375V17.8125C38.4375 16.8179 38.0424 15.8641 37.3391 15.1609C36.6359 14.4576 35.6821 14.0625 34.6875 14.0625H38.4375C39.4321 14.0625 40.3859 14.4576 41.0891 15.1609C41.7924 15.8641 42.1875 16.8179 42.1875 17.8125Z" fill="#FFF5D5"/>
<path d="M57.1875 32.8125V35.625C57.1875 36.8682 56.6936 38.0605 55.8146 38.9396C54.9355 39.8186 53.7432 40.3125 52.5 40.3125C51.2568 40.3125 50.0645 39.8186 49.1854 38.9396C48.3064 38.0605 47.8125 36.8682 47.8125 35.625V32.8125H57.1875Z" fill="#FEE9AB"/>
<path d="M52.5 40.3125H42.1875V17.8125C42.1875 16.8179 41.7924 15.8641 41.0891 15.1609C40.3859 14.4576 39.4321 14.0625 38.4375 14.0625V7.5C38.4375 6.2568 38.9314 5.06451 39.8104 4.18544C40.6895 3.30636 41.8818 2.8125 43.125 2.8125C44.3682 2.8125 45.5605 3.30636 46.4396 4.18544C47.3186 5.06451 47.8125 6.2568 47.8125 7.5V35.625C47.8125 36.8682 48.3064 38.0605 49.1854 38.9396C50.0645 39.8186 51.2568 40.3125 52.5 40.3125Z" fill="#FFC80A"/>
<path d="M23.4375 2.81252H43.125C42.5089 2.81066 41.8985 2.93064 41.329 3.16555C40.7594 3.40047 40.2419 3.74567 39.8063 4.18132C39.3707 4.61696 39.0254 5.13445 38.7905 5.704C38.5556 6.27355 38.4356 6.88393 38.4375 7.50002V21.5625H19.6875V6.56252C19.6875 5.56796 20.0826 4.61413 20.7859 3.91087C21.4891 3.20761 22.4429 2.81252 23.4375 2.81252Z" fill="#FEE9AB"/>
<path d="M34.6875 49.6875H38.4375V53.4375H34.6875V49.6875Z" fill="#FFDE55"/>
<path d="M34.6875 42.1875H38.4375V45.9375H34.6875V42.1875Z" fill="#FFDE55"/>
<path d="M34.6875 34.6875H38.4375V38.4375H34.6875V34.6875Z" fill="#FFDE55"/>
<path d="M19.6875 27.1875H38.4375V30.9375H19.6875V27.1875Z" fill="#FFFCF1"/>
<path d="M34.6875 27.1875H38.4375V30.9375H34.6875V27.1875Z" fill="#FFF3CB"/>
<path d="M27.1875 49.6875H30.9375V53.4375H27.1875V49.6875Z" fill="#FFDE55"/>
<path d="M27.1875 42.1875H30.9375V45.9375H27.1875V42.1875Z" fill="#FFDE55"/>
<path d="M27.1875 34.6875H30.9375V38.4375H27.1875V34.6875Z" fill="#FFDE55"/>
<path d="M19.6875 49.6875H23.4375V53.4375H19.6875V49.6875Z" fill="#FFDE55"/>
<path d="M19.6875 42.1875H23.4375V45.9375H19.6875V42.1875Z" fill="#FFDE55"/>
<path d="M19.6875 34.6875H23.4375V38.4375H19.6875V34.6875Z" fill="#FFDE55"/>
<path d="M12.1875 25.3125H15.9375V51.5625H12.1875V25.3125Z" fill="#FFDD4D"/>
<path d="M8.4375 25.3125H12.1875V51.5625H8.4375V25.3125Z" fill="white"/>
<path d="M2.8125 25.3125H8.4375V51.5625H2.8125V25.3125Z" fill="#FEE9AB"/>
<path d="M57.1875 31.875H48.75V7.5C48.75 6.00816 48.1574 4.57742 47.1025 3.52252C46.0476 2.46763 44.6168 1.875 43.125 1.875H23.4375C22.1943 1.875 21.002 2.36886 20.1229 3.24794C19.2439 4.12701 18.75 5.3193 18.75 6.5625V13.2188C17.6926 13.4376 16.7427 14.0137 16.0599 14.8502C15.377 15.6867 15.0028 16.7327 15 17.8125V24.375H2.8125C2.56386 24.375 2.3254 24.4738 2.14959 24.6496C1.97377 24.8254 1.875 25.0639 1.875 25.3125V51.5625C1.875 51.8111 1.97377 52.0496 2.14959 52.2254C2.3254 52.4012 2.56386 52.5 2.8125 52.5H15V53.4375C15 54.6807 15.4939 55.873 16.3729 56.7521C17.252 57.6311 18.4443 58.125 19.6875 58.125H38.4375C39.6807 58.125 40.873 57.6311 41.7521 56.7521C42.6311 55.873 43.125 54.6807 43.125 53.4375V41.25H52.5C53.9918 41.25 55.4226 40.6574 56.4775 39.6025C57.5324 38.5476 58.125 37.1168 58.125 35.625V32.8125C58.125 32.5639 58.0262 32.3254 57.8504 32.1496C57.6746 31.9738 57.4361 31.875 57.1875 31.875ZM7.5 50.625H3.75V26.25H7.5V50.625ZM11.25 50.625H9.375V26.25H11.25V50.625ZM15 50.625H13.125V26.25H15V50.625ZM20.625 6.5625C20.6272 5.81726 20.9243 5.10319 21.4512 4.57622C21.9782 4.04926 22.6923 3.75223 23.4375 3.75H38.9344C38.009 4.77963 37.498 6.11564 37.5 7.5V20.625H20.625V6.5625ZM41.25 53.4375C41.2478 54.1827 40.9507 54.8968 40.4238 55.4238C39.8968 55.9507 39.1827 56.2478 38.4375 56.25H19.6875C18.9423 56.2478 18.2282 55.9507 17.7012 55.4238C17.1743 54.8968 16.8772 54.1827 16.875 53.4375V17.8125C16.878 17.2326 17.0596 16.6676 17.3951 16.1946C17.7306 15.7215 18.2037 15.3633 18.75 15.1688V21.5625C18.75 21.8111 18.8488 22.0496 19.0246 22.2254C19.2004 22.4012 19.4389 22.5 19.6875 22.5H38.4375C38.6861 22.5 38.9246 22.4012 39.1004 22.2254C39.2762 22.0496 39.375 21.8111 39.375 21.5625V15.1688C39.9213 15.3633 40.3944 15.7215 40.7299 16.1946C41.0654 16.6676 41.247 17.2326 41.25 17.8125V53.4375ZM43.125 39.375V17.8125C43.1222 16.7327 42.748 15.6867 42.0651 14.8502C41.3823 14.0137 40.4324 13.4376 39.375 13.2188V7.5C39.375 6.50544 39.7701 5.55161 40.4734 4.84835C41.1766 4.14509 42.1304 3.75 43.125 3.75C44.1196 3.75 45.0734 4.14509 45.7766 4.84835C46.4799 5.55161 46.875 6.50544 46.875 7.5V35.625C46.8763 37.0105 47.3906 38.3464 48.3188 39.375H43.125ZM56.25 35.625C56.25 36.6196 55.8549 37.5734 55.1516 38.2766C54.4484 38.9799 53.4946 39.375 52.5 39.375C51.5054 39.375 50.5516 38.9799 49.8484 38.2766C49.1451 37.5734 48.75 36.6196 48.75 35.625V33.75H56.25V35.625Z" fill="#525A68"/>
<path d="M23.4375 33.75H19.6875C19.4389 33.75 19.2004 33.8488 19.0246 34.0246C18.8488 34.2004 18.75 34.4389 18.75 34.6875V38.4375C18.75 38.6861 18.8488 38.9246 19.0246 39.1004C19.2004 39.2762 19.4389 39.375 19.6875 39.375H23.4375C23.6861 39.375 23.9246 39.2762 24.1004 39.1004C24.2762 38.9246 24.375 38.6861 24.375 38.4375V34.6875C24.375 34.4389 24.2762 34.2004 24.1004 34.0246C23.9246 33.8488 23.6861 33.75 23.4375 33.75ZM22.5 37.5H20.625V35.625H22.5V37.5Z" fill="#525A68"/>
<path d="M30.9375 33.75H27.1875C26.9389 33.75 26.7004 33.8488 26.5246 34.0246C26.3488 34.2004 26.25 34.4389 26.25 34.6875V38.4375C26.25 38.6861 26.3488 38.9246 26.5246 39.1004C26.7004 39.2762 26.9389 39.375 27.1875 39.375H30.9375C31.1861 39.375 31.4246 39.2762 31.6004 39.1004C31.7762 38.9246 31.875 38.6861 31.875 38.4375V34.6875C31.875 34.4389 31.7762 34.2004 31.6004 34.0246C31.4246 33.8488 31.1861 33.75 30.9375 33.75ZM30 37.5H28.125V35.625H30V37.5Z" fill="#525A68"/>
<path d="M38.4375 33.75H34.6875C34.4389 33.75 34.2004 33.8488 34.0246 34.0246C33.8488 34.2004 33.75 34.4389 33.75 34.6875V38.4375C33.75 38.6861 33.8488 38.9246 34.0246 39.1004C34.2004 39.2762 34.4389 39.375 34.6875 39.375H38.4375C38.6861 39.375 38.9246 39.2762 39.1004 39.1004C39.2762 38.9246 39.375 38.6861 39.375 38.4375V34.6875C39.375 34.4389 39.2762 34.2004 39.1004 34.0246C38.9246 33.8488 38.6861 33.75 38.4375 33.75ZM37.5 37.5H35.625V35.625H37.5V37.5Z" fill="#525A68"/>
<path d="M23.4375 41.25H19.6875C19.4389 41.25 19.2004 41.3488 19.0246 41.5246C18.8488 41.7004 18.75 41.9389 18.75 42.1875V45.9375C18.75 46.1861 18.8488 46.4246 19.0246 46.6004C19.2004 46.7762 19.4389 46.875 19.6875 46.875H23.4375C23.6861 46.875 23.9246 46.7762 24.1004 46.6004C24.2762 46.4246 24.375 46.1861 24.375 45.9375V42.1875C24.375 41.9389 24.2762 41.7004 24.1004 41.5246C23.9246 41.3488 23.6861 41.25 23.4375 41.25ZM22.5 45H20.625V43.125H22.5V45Z" fill="#525A68"/>
<path d="M30.9375 41.25H27.1875C26.9389 41.25 26.7004 41.3488 26.5246 41.5246C26.3488 41.7004 26.25 41.9389 26.25 42.1875V45.9375C26.25 46.1861 26.3488 46.4246 26.5246 46.6004C26.7004 46.7762 26.9389 46.875 27.1875 46.875H30.9375C31.1861 46.875 31.4246 46.7762 31.6004 46.6004C31.7762 46.4246 31.875 46.1861 31.875 45.9375V42.1875C31.875 41.9389 31.7762 41.7004 31.6004 41.5246C31.4246 41.3488 31.1861 41.25 30.9375 41.25ZM30 45H28.125V43.125H30V45Z" fill="#525A68"/>
<path d="M38.4375 41.25H34.6875C34.4389 41.25 34.2004 41.3488 34.0246 41.5246C33.8488 41.7004 33.75 41.9389 33.75 42.1875V45.9375C33.75 46.1861 33.8488 46.4246 34.0246 46.6004C34.2004 46.7762 34.4389 46.875 34.6875 46.875H38.4375C38.6861 46.875 38.9246 46.7762 39.1004 46.6004C39.2762 46.4246 39.375 46.1861 39.375 45.9375V42.1875C39.375 41.9389 39.2762 41.7004 39.1004 41.5246C38.9246 41.3488 38.6861 41.25 38.4375 41.25ZM37.5 45H35.625V43.125H37.5V45Z" fill="#525A68"/>
<path d="M23.4375 48.75H19.6875C19.4389 48.75 19.2004 48.8488 19.0246 49.0246C18.8488 49.2004 18.75 49.4389 18.75 49.6875V53.4375C18.75 53.6861 18.8488 53.9246 19.0246 54.1004C19.2004 54.2762 19.4389 54.375 19.6875 54.375H23.4375C23.6861 54.375 23.9246 54.2762 24.1004 54.1004C24.2762 53.9246 24.375 53.6861 24.375 53.4375V49.6875C24.375 49.4389 24.2762 49.2004 24.1004 49.0246C23.9246 48.8488 23.6861 48.75 23.4375 48.75ZM22.5 52.5H20.625V50.625H22.5V52.5Z" fill="#525A68"/>
<path d="M30.9375 48.75H27.1875C26.9389 48.75 26.7004 48.8488 26.5246 49.0246C26.3488 49.2004 26.25 49.4389 26.25 49.6875V53.4375C26.25 53.6861 26.3488 53.9246 26.5246 54.1004C26.7004 54.2762 26.9389 54.375 27.1875 54.375H30.9375C31.1861 54.375 31.4246 54.2762 31.6004 54.1004C31.7762 53.9246 31.875 53.6861 31.875 53.4375V49.6875C31.875 49.4389 31.7762 49.2004 31.6004 49.0246C31.4246 48.8488 31.1861 48.75 30.9375 48.75ZM30 52.5H28.125V50.625H30V52.5Z" fill="#525A68"/>
<path d="M38.4375 48.75H34.6875C34.4389 48.75 34.2004 48.8488 34.0246 49.0246C33.8488 49.2004 33.75 49.4389 33.75 49.6875V53.4375C33.75 53.6861 33.8488 53.9246 34.0246 54.1004C34.2004 54.2762 34.4389 54.375 34.6875 54.375H38.4375C38.6861 54.375 38.9246 54.2762 39.1004 54.1004C39.2762 53.9246 39.375 53.6861 39.375 53.4375V49.6875C39.375 49.4389 39.2762 49.2004 39.1004 49.0246C38.9246 48.8488 38.6861 48.75 38.4375 48.75ZM37.5 52.5H35.625V50.625H37.5V52.5Z" fill="#525A68"/>
<path d="M38.4375 26.25H19.6875C19.4389 26.25 19.2004 26.3488 19.0246 26.5246C18.8488 26.7004 18.75 26.9389 18.75 27.1875V30.9375C18.75 31.1861 18.8488 31.4246 19.0246 31.6004C19.2004 31.7762 19.4389 31.875 19.6875 31.875H38.4375C38.6861 31.875 38.9246 31.7762 39.1004 31.6004C39.2762 31.4246 39.375 31.1861 39.375 30.9375V27.1875C39.375 26.9389 39.2762 26.7004 39.1004 26.5246C38.9246 26.3488 38.6861 26.25 38.4375 26.25ZM37.5 30H20.625V28.125H37.5V30Z" fill="#525A68"/>
<path d="M31.875 14.0625C31.872 14.6424 31.6904 15.2074 31.3549 15.6804C31.0194 16.1535 30.5463 16.5117 30 16.7062V17.8125H28.125V16.7062C27.5787 16.5117 27.1056 16.1535 26.7701 15.6804C26.4346 15.2074 26.253 14.6424 26.25 14.0625H28.125C28.125 14.2479 28.18 14.4292 28.283 14.5833C28.386 14.7375 28.5324 14.8577 28.7037 14.9286C28.875 14.9996 29.0635 15.0182 29.2454 14.982C29.4273 14.9458 29.5943 14.8565 29.7254 14.7254C29.8565 14.5943 29.9458 14.4273 29.982 14.2454C30.0182 14.0635 29.9996 13.875 29.9286 13.7037C29.8577 13.5324 29.7375 13.386 29.5833 13.283C29.4292 13.18 29.2479 13.125 29.0625 13.125C28.4029 13.1199 27.7661 12.8831 27.2634 12.4561C26.7607 12.029 26.4241 11.4389 26.3124 10.7889C26.2007 10.1388 26.3211 9.47015 26.6524 8.89981C26.9837 8.32948 27.505 7.89373 28.125 7.66875V6.5625H30V7.66875C30.5463 7.86334 31.0194 8.22153 31.3549 8.69458C31.6904 9.16763 31.872 9.73256 31.875 10.3125H30C30 10.1271 29.945 9.94582 29.842 9.79165C29.739 9.63748 29.5926 9.51732 29.4213 9.44636C29.25 9.37541 29.0615 9.35684 28.8796 9.39301C28.6977 9.42919 28.5307 9.51848 28.3996 9.64959C28.2685 9.7807 28.1792 9.94775 28.143 10.1296C28.1068 10.3115 28.1254 10.5 28.1964 10.6713C28.2673 10.8426 28.3875 10.989 28.5417 11.092C28.6958 11.195 28.8771 11.25 29.0625 11.25C29.8077 11.2522 30.5218 11.5493 31.0488 12.0762C31.5757 12.6032 31.8728 13.3173 31.875 14.0625Z" fill="#525A68"/>
<path d="M1.875 1.875H3.75V3.75H1.875V1.875Z" fill="#525A68"/>
<path d="M5.625 1.875H13.125V3.75H5.625V1.875Z" fill="#525A68"/>
<path d="M1.875 7.5H3.75V9.375H1.875V7.5Z" fill="#525A68"/>
<path d="M5.625 7.5H13.125V9.375H5.625V7.5Z" fill="#525A68"/>
<path d="M1.875 13.125H3.75V15H1.875V13.125Z" fill="#525A68"/>
<path d="M5.625 13.125H13.125V15H5.625V13.125Z" fill="#525A68"/>
<path d="M56.25 45H58.125V46.875H56.25V45Z" fill="#525A68"/>
<path d="M46.875 45H54.375V46.875H46.875V45Z" fill="#525A68"/>
<path d="M56.25 50.625H58.125V52.5H56.25V50.625Z" fill="#525A68"/>
<path d="M46.875 50.625H54.375V52.5H46.875V50.625Z" fill="#525A68"/>
<path d="M56.25 56.25H58.125V58.125H56.25V56.25Z" fill="#525A68"/>
<path d="M46.875 56.25H54.375V58.125H46.875V56.25Z" fill="#525A68"/>
</svg>
