<svg width="30" height="30" fill="none" xmlns="http://www.w3.org/2000/svg"><path d="M23.75 3.75H6.25a2.507 2.507 0 00-2.5 2.5v17.5c0 1.375 1.125 2.5 2.5 2.5h17.5c1.375 0 2.5-1.125 2.5-2.5V6.25c0-1.375-1.125-2.5-2.5-2.5zm0 20H6.25V6.25h17.5v17.5z" fill="#A5A9AF"/><path d="M14.063 9.65h-6.25v1.875h6.25V9.65zM22.5 19.688h-6.25v1.875h6.25v-1.875zm0-3.125h-6.25v1.875h6.25v-1.875zM10 22.5h1.875V20h2.5v-1.875h-2.5v-2.5H10v2.5H7.5V20H10v2.5zm7.613-8.812l1.762-1.763 1.763 1.762 1.325-1.324-1.763-1.775 1.763-1.763L21.138 7.5l-1.763 1.762L17.613 7.5l-1.325 1.325 1.762 1.763-1.762 1.775 1.325 1.325z" fill="#A5A9AF"/></svg>