<svg width="20" height="21" fill="none" xmlns="http://www.w3.org/2000/svg"><path d="M15.716 12.854c.34.146.485.63.485.873.048.388-.049.582-.194.582-.146 0-.34-.145-.534-.485-.194-.34-.29-.679-.194-.873.146-.097.291-.145.437-.097zm-1.989 1.504c.194 0 .437.097.68.29.387.34.533.729.339 1.02-.097.145-.34.242-.534.242a.922.922 0 01-.63-.242c-.388-.34-.485-.825-.243-1.116.049-.097.194-.194.388-.194z" fill="#F28A1A"/><path d="M9.12 18.19C4.074 18.19 0 14.115 0 9.12 0 4.122 4.075 0 9.12 0a9.109 9.109 0 019.118 9.12c0 1.697-.485 3.298-1.26 4.656-.05.048-.098.048-.098-.049-.34-2.231-1.698-3.444-3.638-3.832-.194-.048-.194-.145.049-.145.63-.049 1.455-.049 1.94.048.048-.242.048-.485.048-.679 0-3.298-2.716-6.015-6.014-6.015-3.299 0-6.015 2.717-6.015 6.015 0 3.299 2.716 6.015 6.015 6.015h.29a6.195 6.195 0 01-.096-1.65c0-.387.097-.436.242-.145.825 1.455 2.037 2.716 4.366 3.25 1.892.437 3.783.922 5.869 3.492.194.243-.097.486-.291.292-2.086-1.844-3.977-2.474-5.724-2.474-2.182.048-3.492.29-4.802.29z" fill="#F28A1A"/></svg>