<svg width="20" height="20" fill="none" xmlns="http://www.w3.org/2000/svg"><path d="M11.225 6.422H8.823v3.382h2.402c.54 0 .98-.147 1.275-.441.343-.294.49-.735.49-1.226 0-.49-.147-.882-.49-1.225-.294-.294-.736-.49-1.275-.49z" fill="#4FAD50"/><path d="M10 0C4.46 0 0 4.46 0 10s4.46 10 10 10 10-4.46 10-10c-.049-5.54-4.51-10-10-10zm3.823 10.49c-.637.588-1.47.932-2.45.932h-2.55v.882h3.775c.05 0 .147 0 .196.049.05.049.05.098.05.196v.98c0 .05 0 .148-.05.197-.049.048-.098.048-.196.048H8.824v1.422c0 .05 0 .147-.05.196-.049.05-.098.05-.147.05H7.353c-.05 0-.147 0-.196-.05-.05-.049-.05-.098-.05-.196v-1.421H5.442c-.049 0-.147 0-.196-.05-.049-.048-.049-.098-.049-.196v-.98c0-.049 0-.147.05-.196.048-.05.097-.05.195-.05h1.667v-.881H5.44c-.049 0-.147 0-.196-.05-.049-.049-.049-.098-.049-.195v-1.128c0-.049 0-.098.05-.147.048-.05.097-.05.195-.05h1.667V5.148c0-.049 0-.147.049-.196.049-.049.098-.049.196-.049h4.069c.98 0 1.813.294 2.45.931.638.589.932 1.422.932 2.353 0 .883-.343 1.667-.98 2.304z" fill="#4FAD50"/></svg>