<svg width="20" height="20" fill="none" xmlns="http://www.w3.org/2000/svg"><path d="M12.667 9.476l-2.143-2.333-2.381 2.095 2.143 2.381 2.38-2.143zM6.429 5.238L8.57 7.571l2.381-2.095L8.81 3.143 6.429 5.238zm7.904 8.286L12.19 11.19l-2.38 2.142 2.142 2.334 2.381-2.143z" fill="#137ABE"/><path d="M11.857 17.429l-3.905-4.334 1.096-.952-2.762-3.048 1.095-.952-2.762-3.048 4.333-3.857 1.381 1.476L12.714.667l1.381 1.428.905-.81c-.19-.095-.429-.237-.619-.333C13 .381 11.524 0 9.952 0 4.476 0 0 4.429 0 9.857c0 5.429 4.476 9.857 10 9.857 1.81 0 3.476-.476 4.905-1.285.476-.286.905-.572 1.333-.858l-2-2.238-2.38 2.096z" fill="#137ABE"/><path d="M10.81 4.095l1.571 1.762 1.81-1.571-1.62-1.762-1.761 1.571zm5 3.715l-1.62-1.762-1.761 1.619 1.619 1.714 1.761-1.571zm1.523 3.714l-1.619-1.762-1.762 1.571 1.62 1.81 1.761-1.62zm.096-5.81l-1.19 1.048 1.094 1.19 1.143-1.047-1.047-1.19zm.333 4.524l1.047 1.19L20 10.382l-1.095-1.19-1.143 1.047zm-3.048-6.952l1.095 1.19 1.143-1.047-1.047-1.19-1.19 1.047zm.81 11.619l1.619 1.762 1.762-1.572-1.62-1.762-1.761 1.572z" fill="#137ABE"/></svg>