<svg width="20" height="19" fill="none" xmlns="http://www.w3.org/2000/svg"><path d="M19.966 7.646c-.105-.627-.68-1.045-1.464-1.045h-.732c-.47-.052-.574.105-.574.47v5.436c0 .941-.941 1.934-2.039 2.143-3.45.784-6.899 1.516-10.349 2.3-.365.104-.784.104-1.202.104-.156 0-.418-.104-.47-.261-.052-.104.104-.314.209-.418.157-.105.366-.21.575-.314.627-.209 1.307-.418 1.934-.627 2.56-.836 5.122-1.672 7.683-2.561 1.15-.366 1.777-1.15 1.777-2.143.052-3.136 0-6.324 0-9.46 0-.523-.261-.94-.836-1.15-.68-.261-1.307-.052-1.882.21C8.937 2.053 5.331 3.778 1.673 5.503.627 6.026 0 6.758 0 7.804v8.937c0 .157 0 .313.052.418.366.993 1.307 1.62 2.561 1.62h15.314c.575 0 1.046-.104 1.464-.47.522-.418.522-.993.522-1.516V8.065c.105-.053.105-.262.053-.419zm-10.663-.94c.262-.68.837-1.098 1.673-1.202.575-.053 1.045.26 1.15.784.104.784-.836 1.724-1.83 1.724-.784 0-1.254-.575-.993-1.306z" fill="#E47418"/></svg>