<svg width="60" height="60" viewBox="0 0 60 60" fill="none" xmlns="http://www.w3.org/2000/svg">
<path d="M30 59.1211C46.0831 59.1211 59.1211 46.0831 59.1211 30C59.1211 13.9169 46.0831 0.878906 30 0.878906C13.9169 0.878906 0.878906 13.9169 0.878906 30C0.878906 46.0831 13.9169 59.1211 30 59.1211Z" fill="#FFDD4D"/>
<path d="M29.9998 0.878906C29.4799 0.878906 28.9634 0.893086 28.4502 0.920039C43.813 1.72559 56.0218 14.4367 56.0218 30C56.0218 45.5633 43.813 58.2745 28.4503 59.08C28.9635 59.1069 29.4799 59.1211 29.9999 59.1211C46.083 59.1211 59.121 46.0832 59.121 30C59.121 13.9168 46.0829 0.878906 29.9998 0.878906Z" fill="#FFC80A"/>
<path d="M29.9992 52.6927C42.5319 52.6927 52.6917 42.5329 52.6917 30.0002C52.6917 17.4674 42.5319 7.30762 29.9992 7.30762C17.4664 7.30762 7.30664 17.4674 7.30664 30.0002C7.30664 42.5329 17.4664 52.6927 29.9992 52.6927Z" fill="white"/>
<path d="M29.9999 7.30762C29.3714 7.30762 28.7493 7.33434 28.1338 7.38449C39.7935 8.33371 48.9602 18.0959 48.9602 30.0002C48.9602 41.9044 39.7935 51.6666 28.1338 52.6158C28.7494 52.666 29.3715 52.6927 29.9999 52.6927C42.5326 52.6927 52.6924 42.5329 52.6924 30.0002C52.6924 17.4674 42.5326 7.30762 29.9999 7.30762Z" fill="white"/>
<path d="M29.9992 32.346C31.2948 32.346 32.345 31.2957 32.345 30.0002C32.345 28.7046 31.2948 27.6543 29.9992 27.6543C28.7036 27.6543 27.6533 28.7046 27.6533 30.0002C27.6533 31.2957 28.7036 32.346 29.9992 32.346Z" fill="#365E7D"/>
<path d="M30 14.292C30.4854 14.292 30.8789 13.8984 30.8789 13.413V12.123C30.8789 11.6377 30.4854 11.2441 30 11.2441C29.5146 11.2441 29.1211 11.6377 29.1211 12.123V13.413C29.1211 13.8984 29.5146 14.292 30 14.292Z" fill="black"/>
<path d="M43.2144 16.7575C42.8711 16.4142 42.3146 16.4141 41.9715 16.7575L41.0593 17.6695C40.7159 18.0128 40.7159 18.5693 41.0592 18.9125C41.2309 19.0841 41.4557 19.17 41.6807 19.17C41.9056 19.17 42.1306 19.0842 42.3022 18.9127L43.2144 18.0005C43.5575 17.6572 43.5575 17.1007 43.2144 16.7575Z" fill="black"/>
<path d="M46.4922 29.1213C46.0067 29.1213 45.6133 29.5149 45.6133 30.0002C45.6133 30.4856 46.0067 30.8792 46.4922 30.8792H47.7822C48.2677 30.8792 48.6611 30.4858 48.6611 30.0002C48.6611 29.5147 48.2677 29.1213 47.7822 29.1213H46.4922Z" fill="black"/>
<path d="M42.2348 41.0598C41.8915 40.7167 41.335 40.7167 40.9918 41.0598C40.6486 41.4032 40.6486 41.9596 40.9918 42.3028L41.9039 43.2149C42.0756 43.3865 42.3006 43.4723 42.5254 43.4723C42.7503 43.4723 42.9753 43.3865 43.147 43.2149C43.4902 42.8716 43.4902 42.3152 43.147 41.9719L42.2348 41.0598Z" fill="black"/>
<path d="M29.0254 46.4917V47.7817C29.0254 48.2672 29.4189 48.6606 29.9043 48.6606C30.3897 48.6606 30.7832 48.2672 30.7832 47.7817V46.4917C30.7832 46.0062 30.3898 45.6128 29.9043 45.6128C29.4188 45.6128 29.0254 46.0062 29.0254 46.4917Z" fill="black"/>
<path d="M17.6013 40.9919L16.6891 41.904C16.3458 42.2472 16.3458 42.8037 16.6891 43.1469C16.8606 43.3185 17.0856 43.4043 17.3105 43.4043C17.5354 43.4043 17.7604 43.3185 17.932 43.147L18.8442 42.2349C19.1874 41.8917 19.1874 41.3351 18.8442 40.992C18.501 40.6488 17.9445 40.6489 17.6013 40.9919Z" fill="black"/>
<path d="M12.123 29.0254C11.6377 29.0254 11.2441 29.4189 11.2441 29.9043C11.2441 30.3898 11.6377 30.7832 12.123 30.7832H13.413C13.8984 30.7832 14.292 30.3898 14.292 29.9043C14.292 29.4189 13.8984 29.0254 13.413 29.0254H12.123Z" fill="black"/>
<path d="M18.9126 17.6017L18.0004 16.6895C17.657 16.3463 17.1007 16.3464 16.7574 16.6895C16.4141 17.0328 16.4143 17.5893 16.7574 17.9325L17.6696 18.8446C17.8413 19.0163 18.0661 19.1021 18.291 19.1021C18.5159 19.1021 18.7409 19.0163 18.9126 18.8446C19.2558 18.5013 19.2557 17.9449 18.9126 17.6017Z" fill="black"/>
<path d="M32.3557 32.1993L38.6161 35.4184C39.0504 35.6418 39.5789 35.4679 39.7997 35.0388C40.0218 34.607 39.8516 34.0772 39.42 33.8552L33.1618 30.6371C33.2032 30.4309 33.2253 30.2179 33.2253 29.9998C33.2253 28.5264 32.2316 27.2815 30.8795 26.8979V17.9392C30.8795 17.4538 30.486 17.0603 30.0006 17.0603C29.5152 17.0603 29.1217 17.4538 29.1217 17.9392V26.8979C28.0492 27.2022 27.203 28.0484 26.8987 29.1209H22.5361C22.0507 29.1209 21.6572 29.5144 21.6572 29.9998C21.6572 30.4852 22.0507 30.8787 22.5361 30.8787H26.8987C27.2823 32.2308 28.5272 33.2246 30.0006 33.2246C30.9292 33.2247 31.7669 32.8297 32.3557 32.1993ZM30.0005 31.4669C29.1917 31.4669 28.5336 30.8089 28.5336 29.9999C28.5336 29.1911 29.1916 28.533 30.0005 28.533C30.8093 28.533 31.4673 29.191 31.4673 29.9999C31.4675 30.8089 30.8093 31.4669 30.0005 31.4669Z" fill="black"/>
<path d="M52.6917 29.1196C53.1757 29.0826 53.538 28.6602 53.501 28.1761C53.0488 22.2707 50.4035 16.7888 46.0523 12.7401C41.6784 8.67016 35.9774 6.42871 29.9992 6.42871C17.0019 6.42871 6.42773 17.0028 6.42773 30.0002C6.42773 42.9975 17.0019 53.5716 29.9992 53.5716C42.2917 53.5716 52.5606 44.1021 53.5009 31.8244C53.5378 31.3404 53.1757 30.9181 52.6916 30.8809C52.2096 30.8447 51.7853 31.2061 51.7481 31.6902C50.8801 43.0267 41.3984 51.8138 29.9992 51.8138C17.9711 51.8138 8.18555 42.0283 8.18555 30.0002C8.18555 17.972 17.9711 8.18652 29.9992 8.18652C35.5314 8.18652 40.8073 10.2607 44.8549 14.027C48.8817 17.774 51.3299 22.8466 51.7481 28.3104C51.7853 28.7942 52.206 29.1575 52.6917 29.1196Z" fill="black"/>
<path d="M51.2137 8.78684C45.5474 3.12047 38.0138 0 30.0004 0C24.2414 0 18.6469 1.63641 13.8214 4.7325C13.4128 4.99465 13.2941 5.53828 13.5563 5.94691C13.8184 6.35531 14.3619 6.47402 14.7707 6.21199C19.3123 3.29801 24.5787 1.75781 30.0004 1.75781C37.5442 1.75781 44.6364 4.69547 49.9707 10.0297C55.3049 15.364 58.2426 22.4562 58.2426 30C58.2426 45.6086 45.6112 58.2422 30.0004 58.2422C27.211 58.2422 24.4521 57.8348 21.8005 57.0318C21.3359 56.8909 20.8452 57.1534 20.7046 57.6182C20.5639 58.0827 20.8264 58.5732 21.2909 58.7141C24.108 59.5673 27.0382 60 30.0004 60C46.5805 60 60.0004 46.5824 60.0004 30C60.0004 21.9867 56.8798 14.4531 51.2137 8.78684Z" fill="black"/>
<path d="M18.6042 55.8467C8.37047 51.3279 1.75781 41.1824 1.75781 30C1.75781 21.5498 5.49738 13.6121 12.0176 8.22198C12.3916 7.91272 12.4443 7.35878 12.1349 6.9846C11.8257 6.61065 11.2718 6.55804 10.8975 6.86718C3.97207 12.5924 0 21.0239 0 30C0 41.8781 7.02387 52.6548 17.8941 57.4549C18.0095 57.5059 18.1301 57.53 18.2487 57.53C18.5862 57.53 18.908 57.3346 19.0532 57.0058C19.2492 56.5618 19.0482 56.0429 18.6042 55.8467Z" fill="black"/>
</svg>
