<svg width="60" height="60" viewBox="0 0 60 60" fill="none" xmlns="http://www.w3.org/2000/svg">
<g clip-path="url(#clip0)">
<path fill-rule="evenodd" clip-rule="evenodd" d="M58.7107 39.7937H36.4942L34.8643 42.245L36.4942 44.2941H59.1208V43.2459V40.2028C59.1208 39.9763 58.9377 39.7937 58.7107 39.7937Z" fill="#E8EAEA"/>
<path fill-rule="evenodd" clip-rule="evenodd" d="M59.1207 42.0422H36.4941V44.2941H59.1207V42.9112V42.0422Z" fill="#D4D6D8"/>
<path fill-rule="evenodd" clip-rule="evenodd" d="M41.4724 31.6282L40.2693 25.3798C40.1982 25.0112 39.961 24.7002 39.5848 24.7002H35.7657C34.9863 27.3138 34.1289 29.4609 36.4942 32.4836H40.8284C41.364 32.4836 41.5673 32.1151 41.4724 31.6282Z" fill="#FE636E"/>
<path fill-rule="evenodd" clip-rule="evenodd" d="M36.4945 46.7828V44.2942V43.0025V39.7938V32.4837C36.4945 29.6401 36.6233 27.6012 35.766 24.7002C33.587 17.3427 26.7655 11.9734 18.6867 11.9734C8.84918 11.9734 0.878906 19.9294 0.878906 29.7416C0.878906 39.5572 8.84918 47.5098 18.6867 47.5098H35.7626C36.1658 47.5098 36.4945 47.1818 36.4945 46.7828Z" fill="#FFDD4D"/>
<path fill-rule="evenodd" clip-rule="evenodd" d="M27.6976 29.7414C27.6976 24.7744 23.665 20.7507 18.6869 20.7507C13.7055 20.7507 9.67285 24.7744 9.67285 29.7414C9.67285 34.7117 13.7054 38.7354 18.6869 38.7354H26.9995C27.3825 38.7354 27.6976 38.421 27.6976 38.0354V29.7414Z" fill="#E8EAEA"/>
<path fill-rule="evenodd" clip-rule="evenodd" d="M18.6867 11.9734C8.84918 11.9734 0.878906 19.9294 0.878906 29.7416H4.9827C5.50793 29.7416 5.37574 29.7923 5.39613 29.2513C5.52152 25.7822 6.98543 22.6546 9.28301 20.3587C11.5806 18.0663 14.7151 16.609 18.192 16.4839C18.7342 16.4637 18.6867 16.5921 18.6867 16.068V11.9734Z" fill="white"/>
<path fill-rule="evenodd" clip-rule="evenodd" d="M36.4945 43.0027H35.2643H19.3609C18.9882 43.0027 18.6865 43.307 18.6865 43.6756V47.5098H35.7624C36.1656 47.5098 36.4943 47.1818 36.4943 46.7829V44.2943V43.0027H36.4945Z" fill="white"/>
<path fill-rule="evenodd" clip-rule="evenodd" d="M22.1843 31.3071V28.176C22.1843 27.7906 21.8691 27.4761 21.4828 27.4761H15.888C15.5016 27.4761 15.1865 27.7905 15.1865 28.176V31.3071C15.1865 31.6925 15.5016 32.0103 15.888 32.0103H21.4828C21.8691 32.0103 22.1843 31.6925 22.1843 31.3071Z" fill="white"/>
<path fill-rule="evenodd" clip-rule="evenodd" d="M27.6973 29.7414C27.6973 24.7744 23.6648 20.7507 18.6866 20.7507C18.1682 20.7507 17.6632 20.7947 17.1719 20.8759C21.4281 21.5961 24.6678 25.2883 24.6678 29.7414V38.0354C24.6678 38.4208 24.3561 38.7354 23.9697 38.7354H26.9992C27.3822 38.7354 27.6973 38.421 27.6973 38.0354V29.7414Z" fill="#D4D6D8"/>
<path fill-rule="evenodd" clip-rule="evenodd" d="M22.184 31.3071V28.176C22.184 27.7906 21.8689 27.4761 21.4825 27.4761H19.0527C19.4391 27.4761 19.7576 27.7905 19.7576 28.176V31.3071C19.7576 31.6925 19.4391 32.0103 19.0527 32.0103H21.4825C21.8689 32.0103 22.184 31.6925 22.184 31.3071Z" fill="white"/>
<path fill-rule="evenodd" clip-rule="evenodd" d="M36.4949 43.0027H35.2648H32.3809V46.7829C32.3809 47.1819 32.0556 47.5098 31.6523 47.5098H35.7629C36.1662 47.5098 36.4949 47.1818 36.4949 46.7829V44.2943V43.0027Z" fill="white"/>
<path fill-rule="evenodd" clip-rule="evenodd" d="M36.4945 29.7416C36.4945 29.7348 36.4945 29.7281 36.4945 29.7213V29.7416ZM36.4945 32.4838C36.4945 31.4965 36.5081 30.6073 36.4945 29.7416V32.4838ZM35.9895 25.532C35.9895 25.5286 35.9895 25.5286 35.9895 25.5252V25.532ZM36.4945 39.7939V32.4838C36.4945 31.4965 36.5081 30.6073 36.4945 29.7416C36.4945 29.7348 36.4945 29.7281 36.4945 29.7213C36.4775 28.8355 36.4267 27.9732 36.2946 27.067C36.2912 27.067 36.2912 27.067 36.2912 27.067C36.2132 26.5464 36.1149 26.0358 35.9895 25.5354V25.532C35.9895 25.5286 35.9895 25.5286 35.9895 25.5252C35.9218 25.2581 35.8471 24.9842 35.7658 24.7002C33.5868 17.3427 26.7653 11.9734 18.6865 11.9734V12.4501C26.5382 14.303 32.3804 21.3426 32.3804 29.7416V43.0026H35.2642H36.4944V39.7939H36.4945Z" fill="#FFC80A"/>
<path fill-rule="evenodd" clip-rule="evenodd" d="M41.4721 31.6282L40.2691 25.3798C40.1979 25.0112 39.9607 24.7002 39.5846 24.7002H37.1582C37.531 24.7036 37.7648 25.0146 37.8359 25.3798L39.0389 31.6282C39.1305 32.1151 38.9305 32.4836 38.3951 32.4836H40.8283C41.3637 32.4836 41.567 32.1151 41.4721 31.6282Z" fill="#F93E55"/>
<path d="M58.7111 38.9149H37.3734V33.3626H40.8287C41.3273 33.3626 41.7573 33.1741 42.0393 32.8319C42.333 32.4755 42.438 31.9883 42.3355 31.4621L41.1325 25.2131C40.9716 24.3806 40.3496 23.8214 39.5849 23.8214H36.4075C33.9221 16.4325 26.9176 11.0945 18.6867 11.0945C8.38289 11.0945 0 19.4596 0 29.7416C0 40.0236 8.38289 48.3887 18.6867 48.3887H35.7626C36.6509 48.3887 37.3734 47.6684 37.3734 46.7829V45.1732H45.2273C45.7129 45.1732 46.1063 44.7798 46.1063 44.2943C46.1063 43.8088 45.7129 43.4154 45.2273 43.4154H37.3734V40.6728H58.2422V43.2462V43.4154H48.8058C48.3203 43.4154 47.9269 43.8088 47.9269 44.2943C47.9269 44.7798 48.3203 45.1732 48.8058 45.1732H58.2422V48.0272C58.2422 48.5127 58.6356 48.9061 59.1211 48.9061C59.6066 48.9061 60 48.5127 60 48.0272V44.2943V43.2462V40.203C60 39.4928 59.4217 38.9149 58.7111 38.9149ZM39.4128 25.5791L40.573 31.6048H37.3734V29.7416C37.3734 28.3112 37.2107 26.918 36.9036 25.5791H39.4128ZM1.78055 30.6205H4.98258L5.09766 30.6212C5.11934 30.6214 5.14207 30.6217 5.16574 30.6217C5.40293 30.6217 5.72754 30.5998 5.99625 30.3268C6.28781 30.0307 6.27914 29.6794 6.27434 29.4906C6.27281 29.4295 6.27129 29.3664 6.27434 29.2833C6.36023 26.9291 7.11047 24.6634 8.44406 22.731C8.7198 22.3315 8.61937 21.7841 8.21988 21.5083C7.82051 21.2326 7.27289 21.333 6.99727 21.7325C5.54062 23.8434 4.69289 26.3019 4.53516 28.8626H1.78055C2.22539 20.2472 9.1718 13.3175 17.8078 12.8748V15.6225C15.0396 15.7907 12.4117 16.7531 10.1866 18.4174C9.79793 18.708 9.71848 19.2589 10.0092 19.6476C10.1818 19.8785 10.4461 20.0001 10.7138 20.0001C10.8969 20.0001 11.0816 19.9432 11.2395 19.8251C13.2708 18.3057 15.6859 17.4541 18.2246 17.3621C18.3105 17.359 18.3778 17.3606 18.4307 17.3618C18.6212 17.3652 18.9751 17.3737 19.2711 17.0814C19.5711 16.7855 19.5682 16.4338 19.5661 16.1769L19.5656 12.8748C28.4933 13.3326 35.6155 20.7228 35.6155 29.7415V39.7937V42.1236H19.361C18.5045 42.1236 17.8078 42.8197 17.8078 43.6753V46.6082C9.17192 46.1655 2.22551 39.2359 1.78055 30.6205ZM35.6156 46.6309H19.5656V43.8816H35.6156V44.2942V46.6309Z" fill="#273142"/>
<path d="M18.6869 39.6143H26.9995C27.869 39.6143 28.5765 38.906 28.5765 38.0354V29.7414C28.5765 24.2994 24.1401 19.8718 18.6869 19.8718C13.232 19.8718 8.79395 24.2993 8.79395 29.7414C8.79395 35.1853 13.232 39.6143 18.6869 39.6143ZM18.6869 21.6296C23.1707 21.6296 26.8187 25.2685 26.8187 29.7414V37.8565H18.6869C14.2012 37.8565 10.5518 34.216 10.5518 29.7414C10.5518 25.2685 14.2012 21.6296 18.6869 21.6296Z" fill="#273142"/>
<path d="M15.888 32.8891H21.4828C22.3542 32.8891 23.0632 32.1793 23.0632 31.3068V28.1758C23.0632 27.3052 22.3542 26.5969 21.4828 26.5969H15.888C15.0166 26.5969 14.3076 27.3052 14.3076 28.1758V31.3068C14.3076 32.1794 15.0166 32.8891 15.888 32.8891ZM16.0654 28.3549H21.3054V31.1313H16.0654V28.3549Z" fill="#273142"/>
</g>
<defs>
<clipPath id="clip0">
<rect width="60" height="60" fill="white"/>
</clipPath>
</defs>
</svg>
