<svg width="60" height="60" viewBox="0 0 60 60" fill="none" xmlns="http://www.w3.org/2000/svg">
<path d="M52.6023 59.028H7.39746C5.45578 59.028 3.88184 57.4541 3.88184 55.5124V50.6218L56.1179 41.1296V55.5124C56.1179 57.454 54.5439 59.028 52.6023 59.028Z" fill="white"/>
<path d="M43.0382 55.5126H7.40332C5.45848 55.5126 3.88184 53.9359 3.88184 51.9911V8.32397C3.88184 6.37913 5.45848 4.80249 7.40332 4.80249H52.5963C54.5412 4.80249 56.1178 6.37913 56.1178 8.32397V42.4328C56.1178 43.3668 53.989 44.2625 53.3285 44.9229L45.5282 52.7233C44.8679 53.3837 43.9721 55.5126 43.0382 55.5126Z" fill="white"/>
<path d="M38.8057 55.5124H41.5948C43.1884 55.5124 44.4801 54.2206 44.4801 52.6271V46.7602C44.4801 45.1667 45.7719 43.875 47.3654 43.875H53.2323C54.8258 43.875 56.1175 42.5832 56.1175 40.9897V37.335V42.4163C56.1175 43.3503 55.7465 44.246 55.0861 44.9064L45.5115 54.481C44.851 55.1415 43.9554 55.5125 43.0214 55.5125H38.8057V55.5124Z" fill="white"/>
<path d="M56.118 8.31763V17.3622H3.88281V8.31763C3.88281 6.377 5.45664 4.802 7.39844 4.802H52.6023C54.5441 4.802 56.118 6.377 56.118 8.31763Z" fill="#FECE85"/>
<path d="M13.8336 10.938C13.1631 10.938 12.5938 10.9377 12.1086 10.9377C10.6344 10.9377 9.43555 9.73887 9.43555 8.26582V4.80176H11.1934V8.26582C11.1934 8.76973 11.6035 9.17988 12.1086 9.17988C12.5938 9.18 14.3188 10.938 13.8336 10.938Z" fill="#FFC80A"/>
<path d="M45.762 10.938C45.762 10.938 44.5225 10.9377 44.0361 10.9377C42.5631 10.9377 41.3643 9.73887 41.3643 8.26582V4.80176H43.1221V8.26582C43.1221 8.76973 43.5322 9.17988 44.0361 9.17988C44.5225 9.18 45.762 10.4529 45.762 10.938Z" fill="#FFC80A"/>
<path d="M14.1776 28.4934H9.99234C9.53004 28.4934 9.15527 28.1186 9.15527 27.6563V23.4711C9.15527 23.0088 9.53004 22.634 9.99234 22.634H14.1776C14.6399 22.634 15.0147 23.0088 15.0147 23.4711V27.6563C15.0147 28.1186 14.6399 28.4934 14.1776 28.4934Z" fill="#FFDD4D"/>
<path d="M26.1209 28.4934H21.9357C21.4734 28.4934 21.0986 28.1186 21.0986 27.6563V23.4711C21.0986 23.0088 21.4734 22.634 21.9357 22.634H26.1209C26.5832 22.634 26.958 23.0088 26.958 23.4711V27.6563C26.958 28.1186 26.5832 28.4934 26.1209 28.4934Z" fill="#FFDD4D"/>
<path d="M38.0643 28.4934H33.8791C33.4168 28.4934 33.042 28.1186 33.042 27.6563V23.4711C33.042 23.0088 33.4168 22.634 33.8791 22.634H38.0643C38.5266 22.634 38.9014 23.0088 38.9014 23.4711V27.6563C38.9014 28.1186 38.5266 28.4934 38.0643 28.4934Z" fill="#FFDD4D"/>
<path d="M50.0077 28.4934H45.8224C45.3601 28.4934 44.9854 28.1186 44.9854 27.6563V23.4711C44.9854 23.0088 45.3601 22.634 45.8224 22.634H50.0077C50.47 22.634 50.8447 23.0088 50.8447 23.4711V27.6563C50.8447 28.1186 50.47 28.4934 50.0077 28.4934Z" fill="#FFDD4D"/>
<path d="M14.1776 39.3647H9.99234C9.53004 39.3647 9.15527 38.99 9.15527 38.5277V34.3424C9.15527 33.8801 9.53004 33.5054 9.99234 33.5054H14.1776C14.6399 33.5054 15.0147 33.8801 15.0147 34.3424V38.5277C15.0147 38.99 14.6399 39.3647 14.1776 39.3647Z" fill="#FFDD4D"/>
<path d="M26.1209 39.3647H21.9357C21.4734 39.3647 21.0986 38.99 21.0986 38.5277V34.3424C21.0986 33.8801 21.4734 33.5054 21.9357 33.5054H26.1209C26.5832 33.5054 26.958 33.8801 26.958 34.3424V38.5277C26.958 38.99 26.5832 39.3647 26.1209 39.3647Z" fill="#FFDD4D"/>
<path d="M38.0643 39.3647H33.8791C33.4168 39.3647 33.042 38.99 33.042 38.5277V34.3424C33.042 33.8801 33.4168 33.5054 33.8791 33.5054H38.0643C38.5266 33.5054 38.9014 33.8801 38.9014 34.3424V38.5277C38.9014 38.99 38.5266 39.3647 38.0643 39.3647Z" fill="#FFDD4D"/>
<path d="M50.0077 39.6262H45.8224C45.3601 39.6262 44.9854 39.2515 44.9854 38.7891V34.6039C44.9854 34.1416 45.3601 33.7668 45.8224 33.7668H50.0077C50.47 33.7668 50.8447 34.1416 50.8447 34.6039V38.7891C50.8447 39.2515 50.47 39.6262 50.0077 39.6262Z" fill="#FFDD4D"/>
<path d="M14.1776 50.2371H9.99234C9.53004 50.2371 9.15527 49.8623 9.15527 49.4V45.2148C9.15527 44.7525 9.53004 44.3777 9.99234 44.3777H14.1776C14.6399 44.3777 15.0147 44.7525 15.0147 45.2148V49.4C15.0147 49.8623 14.6399 50.2371 14.1776 50.2371Z" fill="#FFDD4D"/>
<path d="M26.1209 50.2371H21.9357C21.4734 50.2371 21.0986 49.8623 21.0986 49.4V45.2148C21.0986 44.7525 21.4734 44.3777 21.9357 44.3777H26.1209C26.5832 44.3777 26.958 44.7525 26.958 45.2148V49.4C26.958 49.8623 26.5832 50.2371 26.1209 50.2371Z" fill="#FFDD4D"/>
<path d="M38.0643 50.2371H33.8791C33.4168 50.2371 33.042 49.8623 33.042 49.4V45.2148C33.042 44.7525 33.4168 44.3777 33.8791 44.3777H38.0643C38.5266 44.3777 38.9014 44.7525 38.9014 45.2148V49.4C38.9014 49.8623 38.5266 50.2371 38.0643 50.2371Z" fill="#FFDD4D"/>
<path d="M45.8221 29.4673H50.0073C50.9535 29.4673 51.7233 28.6975 51.7233 27.7513V23.5661C51.7233 22.6199 50.9535 21.8501 50.0073 21.8501H45.8221C44.8759 21.8501 44.1061 22.6199 44.1061 23.5661V27.7513C44.1061 28.6975 44.8759 29.4673 45.8221 29.4673ZM45.8639 23.6079H49.9655V27.7095H45.8639V23.6079ZM45.8221 40.6001H50.0073C50.9535 40.6001 51.7233 39.8303 51.7233 38.8841V34.6989C51.7233 33.7527 50.9535 32.9829 50.0073 32.9829H45.8221C44.8759 32.9829 44.1061 33.7527 44.1061 34.6989V38.8841C44.1061 39.8303 44.8759 40.6001 45.8221 40.6001ZM45.8639 34.7407H49.9655V38.8423H45.8639V34.7407ZM33.8788 29.4673H38.064C39.0102 29.4673 39.78 28.6975 39.78 27.7513V23.5661C39.78 22.6199 39.0102 21.8501 38.064 21.8501H33.8788C32.9326 21.8501 32.1628 22.6199 32.1628 23.5661V27.7513C32.1628 28.6975 32.9326 29.4673 33.8788 29.4673ZM33.9206 23.6079H38.0222V27.7095H33.9206V23.6079ZM14.1775 43.5938H9.99223C9.04605 43.5938 8.27625 44.3636 8.27625 45.3097V49.495C8.27625 50.4411 9.04605 51.2109 9.99223 51.2109H14.1775C15.1236 51.2109 15.8934 50.4411 15.8934 49.495V45.3097C15.8934 44.3636 15.1236 43.5938 14.1775 43.5938ZM14.1356 49.4531H10.0341V45.3516H14.1356V49.4531ZM14.1775 21.8501H9.99223C9.04605 21.8501 8.27625 22.6199 8.27625 23.5661V27.7513C8.27625 28.6975 9.04605 29.4673 9.99223 29.4673H14.1775C15.1236 29.4673 15.8934 28.6975 15.8934 27.7513V23.5661C15.8934 22.6198 15.1236 21.8501 14.1775 21.8501ZM14.1356 27.7095H10.0341V23.6079H14.1356V27.7095ZM33.8788 40.3391H38.064C39.0102 40.3391 39.78 39.5693 39.78 38.6231V34.4379C39.78 33.4917 39.0102 32.7219 38.064 32.7219H33.8788C32.9326 32.7219 32.1628 33.4917 32.1628 34.4379V38.6231C32.1628 39.5693 32.9326 40.3391 33.8788 40.3391ZM33.9206 34.4797H38.0222V38.5813H33.9206V34.4797ZM52.5962 4.01648H48.8385V2.6727C48.8385 1.19895 47.6395 0 46.1658 0H45.7622C44.2886 0 43.0896 1.19895 43.0896 2.6727V4.01648H16.9099V2.6727C16.9099 1.19895 15.711 0 14.2372 0H13.8336C12.3599 0 11.1609 1.19895 11.1609 2.6727V4.01648H7.40332C4.97695 4.01648 3.00293 5.99051 3.00293 8.41687V55.6055C3.00293 58.0287 4.97426 60 7.39746 60H52.6023C55.0255 60 56.9968 58.0287 56.9968 55.6055V8.41687C56.9967 5.99051 55.0227 4.01648 52.5962 4.01648ZM44.8474 2.6727C44.8474 2.1682 45.2578 1.75781 45.7623 1.75781H46.1659C46.6704 1.75781 47.0808 2.1682 47.0808 2.6727V4.01648H44.8474V2.6727ZM12.9189 2.6727C12.9189 2.1682 13.3293 1.75781 13.8338 1.75781H14.2373C14.7418 1.75781 15.1522 2.1682 15.1522 2.6727V4.01648H12.919V2.6727H12.9189ZM55.2389 55.6055C55.2389 57.0594 54.0561 58.2422 52.6022 58.2422H7.39734C5.9434 58.2422 4.76062 57.0594 4.76062 55.6055V55.6C5.49703 56.1548 6.41238 56.4844 7.40332 56.4844H43.038C44.2134 56.4844 45.3185 56.0266 46.1496 55.1954L55.2389 46.1061V55.6055ZM45.2528 53.6064C45.3217 53.322 45.3592 53.0253 45.3592 52.7201V46.8532C45.3592 45.747 46.2593 44.8468 47.3657 44.8468H53.2324C53.5377 44.8468 53.8343 44.8093 54.1187 44.7404L45.2528 53.6064ZM55.2389 16.5766H17.7888C17.3034 16.5766 16.9099 16.9702 16.9099 17.4555C16.9099 17.9409 17.3034 18.3345 17.7888 18.3345H55.2389V41.0827C55.2389 42.189 54.3388 43.0891 53.2324 43.0891H47.3657C45.29 43.0891 43.6014 44.7778 43.6014 46.8533V52.7202C43.6014 53.8266 42.7012 54.7267 41.595 54.7267H7.40332C5.94621 54.7267 4.76074 53.5412 4.76074 52.084V18.3345H14.2732C14.7586 18.3345 15.1521 17.9409 15.1521 17.4555C15.1521 16.9702 14.7586 16.5766 14.2732 16.5766H4.76062V8.41687C4.76062 6.95977 5.94609 5.7743 7.4032 5.7743H11.1609V8.35851C11.1609 9.83226 12.3599 11.0312 13.8336 11.0312C14.319 11.0312 14.7125 10.6377 14.7125 10.1523C14.7125 9.66691 14.319 9.2734 13.8336 9.2734C13.3291 9.2734 12.9187 8.86301 12.9187 8.35851V5.7743H43.0896V8.35851C43.0896 9.83226 44.2886 11.0312 45.7623 11.0312C46.2477 11.0312 46.6412 10.6377 46.6412 10.1523C46.6412 9.66691 46.2477 9.2734 45.7623 9.2734C45.2578 9.2734 44.8474 8.86301 44.8474 8.35851V5.7743H52.5963C54.0534 5.7743 55.2389 6.95977 55.2389 8.41687V16.5766ZM14.1775 32.7219H9.99223C9.04605 32.7219 8.27625 33.4917 8.27625 34.4379V38.6231C8.27625 39.5693 9.04605 40.3391 9.99223 40.3391H14.1775C15.1236 40.3391 15.8934 39.5693 15.8934 38.6231V34.4379C15.8934 33.4916 15.1236 32.7219 14.1775 32.7219ZM14.1356 38.5813H10.0341V34.4797H14.1356V38.5813ZM21.9355 29.4673H26.1207C27.0669 29.4673 27.8367 28.6975 27.8367 27.7513V23.5661C27.8367 22.6199 27.0669 21.8501 26.1207 21.8501H21.9355C20.9893 21.8501 20.2195 22.6199 20.2195 23.5661V27.7513C20.2195 28.6975 20.9893 29.4673 21.9355 29.4673ZM21.9773 23.6079H26.0789V27.7095H21.9773V23.6079ZM33.9196 49.4531C33.8978 48.9871 33.513 48.6161 33.0416 48.6161C32.5562 48.6161 32.1627 49.0096 32.1627 49.495C32.1627 50.4411 32.9325 51.2109 33.8787 51.2109H38.0639C39.0101 51.2109 39.7799 50.4411 39.7799 49.495V45.3097C39.7799 44.3636 39.0101 43.5938 38.0639 43.5938H33.8787C32.9325 43.5938 32.1627 44.3636 32.1627 45.3097V46.5168C32.1627 47.0021 32.5562 47.3957 33.0416 47.3957C33.527 47.3957 33.9205 47.0021 33.9205 46.5168V45.3516H38.0221V49.4531H33.9196ZM21.9355 40.3391H26.1207C27.0669 40.3391 27.8367 39.5693 27.8367 38.6231V34.4379C27.8367 33.4917 27.0669 32.7219 26.1207 32.7219H21.9355C20.9893 32.7219 20.2195 33.4917 20.2195 34.4379V38.6231C20.2195 39.5693 20.9893 40.3391 21.9355 40.3391ZM21.9773 34.4797H26.0789V38.5813H21.9773V34.4797ZM21.9355 51.2109H26.1207C27.0669 51.2109 27.8367 50.4411 27.8367 49.495V45.3097C27.8367 44.3636 27.0669 43.5938 26.1207 43.5938H21.9355C20.9893 43.5938 20.2195 44.3636 20.2195 45.3097V49.495C20.2195 50.4411 20.9893 51.2109 21.9355 51.2109ZM21.9773 45.3516H26.0789V49.4531H21.9773V45.3516Z" fill="#525A68"/>
</svg>
