<svg width="60" height="60" viewBox="0 0 60 60" fill="none" xmlns="http://www.w3.org/2000/svg">
<path d="M49.6871 17.8125C49.6871 18.0611 49.5883 18.2996 49.4125 18.4754C49.2367 18.6512 48.9983 18.75 48.7496 18.75H43.209C43.4286 20.0606 44.1059 21.2508 45.1203 22.109C46.1348 22.9673 47.4208 23.438 48.7496 23.4375C51.234 23.4375 59.0621 21.3844 59.0621 17.8125C59.0621 14.2406 51.234 12.1875 48.7496 12.1875C47.4208 12.187 46.1348 12.6577 45.1203 13.516C44.1059 14.3742 43.4286 15.5644 43.209 16.875H48.7496C48.9983 16.875 49.2367 16.9738 49.4125 17.1496C49.5883 17.3254 49.6871 17.5639 49.6871 17.8125Z" fill="#FFC80A"/>
<path d="M48.75 32.8125H49.6875V28.125C49.6875 27.3791 49.3912 26.6637 48.8637 26.1363C48.3363 25.6088 47.6209 25.3125 46.875 25.3125H41.25V19.6875C41.25 19.4389 41.3488 19.2004 41.5246 19.0246C41.7004 18.8488 41.9389 18.75 42.1875 18.75H43.2094C43.0969 18.1301 43.0969 17.4949 43.2094 16.875H42.1875C41.4423 16.8772 40.7282 17.1743 40.2012 17.7012C39.6743 18.2282 39.3772 18.9423 39.375 19.6875V25.3125H33.75C33.0041 25.3125 32.2887 25.6088 31.7613 26.1363C31.2338 26.6637 30.9375 27.3791 30.9375 28.125V32.8125H48.75Z" fill="#FFC80A"/>
<path d="M59.0625 44.0626C59.0596 43.1392 58.7153 42.2495 58.0959 41.5646C57.4764 40.8798 56.6257 40.4482 55.7072 40.3529C56.0519 39.786 56.239 39.1374 56.2493 38.474C56.2597 37.8106 56.0928 37.1565 55.766 36.5791C55.4391 36.0018 54.9641 35.5221 54.39 35.1896C53.8159 34.8571 53.1634 34.6838 52.5 34.6876H30.5625C30.0076 34.6862 29.4647 34.8493 29.0025 35.1563L25.3125 37.6238V37.5001C25.3125 36.7541 25.0162 36.0388 24.4887 35.5113C23.9613 34.9839 23.2459 34.6876 22.5 34.6876H18.75C18.0041 34.6876 17.2887 34.9839 16.7613 35.5113C16.2338 36.0388 15.9375 36.7541 15.9375 37.5001V57.1875C15.9375 57.6848 16.135 58.1617 16.4867 58.5134C16.8383 58.865 17.3152 59.0625 17.8125 59.0625H23.4375C23.9348 59.0625 24.4117 58.865 24.7633 58.5134C25.115 58.1617 25.3125 57.6848 25.3125 57.1875V56.1263L29.0081 58.5938C29.4686 58.9001 30.0095 59.0632 30.5625 59.0625H50.625C51.6196 59.0625 52.5734 58.6675 53.2766 57.9642C53.9799 57.2609 54.375 56.3071 54.375 55.3125C54.3711 54.6523 54.1912 54.0051 53.8538 53.4376H54.375C55.3696 53.4376 56.3234 53.0425 57.0266 52.3392C57.7299 51.6359 58.125 50.6821 58.125 49.6876C58.1215 48.8006 57.8006 47.9443 57.2203 47.2735C57.7797 46.9442 58.2437 46.475 58.5667 45.912C58.8897 45.349 59.0606 44.7116 59.0625 44.0626ZM17.8125 57.1875V37.5001C17.8125 37.2514 17.9113 37.013 18.0871 36.8371C18.2629 36.6613 18.5014 36.5626 18.75 36.5626H22.5C22.7486 36.5626 22.9871 36.6613 23.1629 36.8371C23.3387 37.013 23.4375 37.2514 23.4375 37.5001V38.4376V55.3125V57.1875H17.8125Z" fill="#FFC80A"/>
<path d="M39.375 30.9375V19.6875H41.25C41.9959 19.6875 42.7113 19.3912 43.2387 18.8637C43.7662 18.3363 44.0625 17.6209 44.0625 16.875V11.25C44.0625 10.5041 43.7662 9.78871 43.2387 9.26126C42.7113 8.73382 41.9959 8.4375 41.25 8.4375H39.375V3.75C39.375 3.00408 39.0787 2.28871 38.5512 1.76126C38.0238 1.23382 37.3084 0.9375 36.5625 0.9375H12.1875C11.4416 0.9375 10.7262 1.23382 10.1988 1.76126C9.67132 2.28871 9.375 3.00408 9.375 3.75V8.4375H7.5C6.75408 8.4375 6.03871 8.73382 5.51126 9.26126C4.98382 9.78871 4.6875 10.5041 4.6875 11.25V16.875C4.6875 17.6209 4.98382 18.3363 5.51126 18.8637C6.03871 19.3912 6.75408 19.6875 7.5 19.6875H9.375V30.9375C7.138 30.94 4.99333 31.8297 3.41153 33.4115C1.82973 34.9933 0.939981 37.138 0.9375 39.375V45C0.9375 45.7459 1.23382 46.4613 1.76126 46.9887C2.28871 47.5162 3.00408 47.8125 3.75 47.8125H45C45.7459 47.8125 46.4613 47.5162 46.9887 46.9887C47.5162 46.4613 47.8125 45.7459 47.8125 45V39.375C47.81 37.138 46.9203 34.9933 45.3385 33.4115C43.7567 31.8297 41.612 30.94 39.375 30.9375ZM11.25 8.4375H37.5V31.875C37.498 33.6149 36.806 35.2829 35.5757 36.5132C34.3454 37.7435 32.6774 38.4355 30.9375 38.4375H17.8125C16.0726 38.4355 14.4046 37.7435 13.1743 36.5132C11.944 35.2829 11.252 33.6149 11.25 31.875V8.4375ZM41.25 10.3125C41.4986 10.3125 41.7371 10.4113 41.9129 10.5871C42.0887 10.7629 42.1875 11.0014 42.1875 11.25V16.875C42.1875 17.1236 42.0887 17.3621 41.9129 17.5379C41.7371 17.7137 41.4986 17.8125 41.25 17.8125H39.375V10.3125H41.25ZM12.1875 2.8125H36.5625C36.8111 2.8125 37.0496 2.91127 37.2254 3.08709C37.4012 3.2629 37.5 3.50136 37.5 3.75V6.5625H11.25V3.75C11.25 3.50136 11.3488 3.2629 11.5246 3.08709C11.7004 2.91127 11.9389 2.8125 12.1875 2.8125ZM7.5 17.8125C7.25136 17.8125 7.0129 17.7137 6.83709 17.5379C6.66127 17.3621 6.5625 17.1236 6.5625 16.875V11.25C6.5625 11.0014 6.66127 10.7629 6.83709 10.5871C7.0129 10.4113 7.25136 10.3125 7.5 10.3125H9.375V17.8125H7.5ZM45.9375 45C45.9375 45.2486 45.8387 45.4871 45.6629 45.6629C45.4871 45.8387 45.2486 45.9375 45 45.9375H3.75C3.50136 45.9375 3.2629 45.8387 3.08709 45.6629C2.91127 45.4871 2.8125 45.2486 2.8125 45V39.375C2.81449 37.6351 3.50653 35.9671 4.7368 34.7368C5.96708 33.5065 7.63513 32.8145 9.375 32.8125C9.39299 32.8097 9.41083 32.8059 9.42844 32.8012C9.65863 34.8648 10.6407 36.7713 12.1872 38.1567C13.7336 39.5422 15.7362 40.3096 17.8125 40.3125H30.9375C33.0138 40.3096 35.0164 39.5422 36.5628 38.1567C38.1093 36.7713 39.0914 34.8648 39.3216 32.8012C39.3392 32.8059 39.357 32.8097 39.375 32.8125C41.1149 32.8145 42.7829 33.5065 44.0132 34.7368C45.2435 35.9671 45.9355 37.6351 45.9375 39.375V45Z" fill="#525A68"/>
<path d="M16.875 24.375H31.875C32.6209 24.375 33.3363 24.0787 33.8637 23.5512C34.3912 23.0238 34.6875 22.3084 34.6875 21.5625V14.0625C34.6875 13.3166 34.3912 12.6012 33.8637 12.0738C33.3363 11.5463 32.6209 11.25 31.875 11.25H16.875C16.1291 11.25 15.4137 11.5463 14.8863 12.0738C14.3588 12.6012 14.0625 13.3166 14.0625 14.0625V21.5625C14.0625 22.3084 14.3588 23.0238 14.8863 23.5512C15.4137 24.0787 16.1291 24.375 16.875 24.375ZM15.9375 14.0625C15.9375 13.8139 16.0363 13.5754 16.2121 13.3996C16.3879 13.2238 16.6264 13.125 16.875 13.125H31.875C32.1236 13.125 32.3621 13.2238 32.5379 13.3996C32.7137 13.5754 32.8125 13.8139 32.8125 14.0625V21.5625C32.8125 21.8111 32.7137 22.0496 32.5379 22.2254C32.3621 22.4012 32.1236 22.5 31.875 22.5H16.875C16.6264 22.5 16.3879 22.4012 16.2121 22.2254C16.0363 22.0496 15.9375 21.8111 15.9375 21.5625V14.0625Z" fill="#525A68"/>
</svg>
