<svg width="60" height="60" viewBox="0 0 60 60" fill="none" xmlns="http://www.w3.org/2000/svg">
<path d="M57.1875 2.8125V49.6875L49.6875 57.1875H2.8125V10.3125L10.3125 2.8125H57.1875Z" fill="white"/>
<path d="M35.625 39.375L39.375 35.625V20.625H24.375L20.625 24.375V39.375H35.625Z" fill="#FFCC4D"/>
<path d="M57.1875 2.8125V49.6875L49.6875 57.1875V10.3125L57.1875 2.8125Z" fill="white"/>
<path d="M49.6875 10.3125H2.8125L10.3125 2.8125H57.1875L49.6875 10.3125Z" fill="white"/>
<path d="M57.1875 1.875H10.3125C10.1894 1.875 10.0675 1.89924 9.95374 1.94636C9.84 1.99348 9.73665 2.06254 9.6496 2.1496L2.15005 9.64915C2.06273 9.73612 1.99347 9.83951 1.94627 9.95335C1.89906 10.0672 1.87484 10.1893 1.875 10.3125V57.1875C1.875 57.3106 1.89924 57.4325 1.94636 57.5463C1.99347 57.66 2.06252 57.7634 2.14958 57.8504C2.23664 57.9375 2.33999 58.0065 2.45373 58.0536C2.56748 58.1008 2.68939 58.125 2.8125 58.125H49.6875C49.8107 58.1252 49.9328 58.1009 50.0466 58.0537C50.1605 58.0065 50.2639 57.9373 50.3509 57.8499L57.8504 50.3504C57.9375 50.2634 58.0065 50.16 58.0536 50.0463C58.1008 49.9325 58.125 49.8106 58.125 49.6875V2.8125C58.125 2.68938 58.1008 2.56747 58.0536 2.45373C58.0065 2.33999 57.9375 2.23664 57.8504 2.14958C57.7634 2.06252 57.66 1.99347 57.5463 1.94636C57.4325 1.89924 57.3106 1.875 57.1875 1.875ZM48.75 48.75H44.2208L36.8774 39.4484L39.4484 36.8774L48.75 44.2208V48.75ZM50.625 45.701L54.487 48.75H50.625V45.701ZM11.25 11.25H15.7792L23.1226 20.5516L20.5516 23.1226L11.25 15.7792V11.25ZM9.375 14.299L5.51298 11.25H9.375V14.299ZM11.25 9.375V5.51298L14.299 9.375H11.25ZM36.5625 24.7633L38.4375 22.8883V35.2366L36.5625 37.1117V24.7633ZM38.9867 19.6875H24.8293L18.1682 11.25H47.4242L38.9867 19.6875ZM21.5625 25.3125H34.6875V38.4375H21.5625V25.3125ZM22.8883 23.4375L24.7634 21.5625H37.1117L35.2367 23.4375H22.8883ZM40.3125 35.1707V21.0133L48.75 12.5758V41.8318L40.3125 35.1707ZM49.2992 9.375H16.6879L12.2471 3.75H54.9242L49.2992 9.375ZM9.375 9.375H5.0758L9.375 5.0758V9.375ZM3.75 12.2471L9.375 16.6879V20.625H11.25V18.1681L19.6875 24.8293V38.9867L11.25 47.4242V45H9.375V49.2992L3.75 54.9242V12.2471ZM10.7008 50.625H15V48.75H12.5758L21.0133 40.3125H35.1707L41.8318 48.75H39.375V50.625H43.3121L47.7529 56.25H5.0758L10.7008 50.625ZM45.701 50.625H48.75V54.487L45.701 50.625ZM50.625 50.625H54.9242L50.625 54.9242V50.625ZM50.625 43.3121V10.7008L56.25 5.0758V47.7529L50.625 43.3121Z" fill="#525A68"/>
<path d="M16.875 48.75H18.75V50.625H16.875V48.75Z" fill="#525A68"/>
<path d="M20.625 48.75H22.5V50.625H20.625V48.75Z" fill="#525A68"/>
<path d="M24.375 48.75H26.25V50.625H24.375V48.75Z" fill="#525A68"/>
<path d="M28.125 48.75H30V50.625H28.125V48.75Z" fill="#525A68"/>
<path d="M31.875 48.75H33.75V50.625H31.875V48.75Z" fill="#525A68"/>
<path d="M35.625 48.75H37.5V50.625H35.625V48.75Z" fill="#525A68"/>
<path d="M9.375 41.25H11.25V43.125H9.375V41.25Z" fill="#525A68"/>
<path d="M9.375 37.5H11.25V39.375H9.375V37.5Z" fill="#525A68"/>
<path d="M9.375 33.75H11.25V35.625H9.375V33.75Z" fill="#525A68"/>
<path d="M9.375 30H11.25V31.875H9.375V30Z" fill="#525A68"/>
<path d="M9.375 26.25H11.25V28.125H9.375V26.25Z" fill="#525A68"/>
<path d="M9.375 22.5H11.25V24.375H9.375V22.5Z" fill="#525A68"/>
</svg>
