<svg width="60" height="60" viewBox="0 0 60 60" fill="none" xmlns="http://www.w3.org/2000/svg">
<path d="M47.4195 13.5483H35.8066V5.8064H47.4195V13.5483Z" fill="#FFC80A"/>
<path d="M42.58 15.4839H40.6445V17.4194H42.58V15.4839Z" fill="#525A68"/>
<path d="M46.4511 15.4839H44.5156V17.4194H46.4511V15.4839Z" fill="#525A68"/>
<path d="M38.7089 15.4839H36.7734V17.4194H38.7089V15.4839Z" fill="#525A68"/>
<path d="M59.549 55.1594L51.1626 42.5806H52.2581C53.8587 42.5806 55.1613 41.2781 55.1613 39.6774V26.1358C55.1613 23.3158 53.4213 20.8539 50.8819 19.8474C51.1345 19.4177 51.2903 18.9223 51.2903 18.3871V4.83871C51.2903 2.17065 49.1197 0 46.4516 0H36.7742C34.1061 0 31.9355 2.17065 31.9355 4.83871V18.3871C31.9355 18.9223 32.0913 19.4168 32.3439 19.8474C29.8045 20.8539 28.0645 23.3158 28.0645 26.1358V37.7419H30V31.9355H31.7294C31.6781 32.0787 31.6335 32.2248 31.6006 32.3748L30.031 38.4687L31.9055 38.9506L33.4819 32.8258C33.6348 32.1387 34.1439 31.5745 34.8116 31.3519C35.371 31.1671 35.9797 31.2339 36.4848 31.5358L39.8081 33.5294C39.7306 33.7819 39.6774 34.0442 39.6774 34.319C39.6774 34.8513 39.8332 35.3661 40.1284 35.8084L40.4952 36.3581C40.1816 36.7645 39.9474 37.231 39.8148 37.7419H32.9032V39.6774H39.8148C40.2474 41.3429 41.7503 42.5806 43.5484 42.5806H44.6439L47.2248 46.4516H33.871V48.3871H48.5148L51.2903 52.5513V58.0645H47.4194V52.2581H15.4839V48.3871H24.1935V46.4516H15.4839V23.2258C16.5513 23.2258 17.4194 22.3577 17.4194 21.2903V19.3548H21.2903C21.2903 20.4223 22.1584 21.2903 23.2258 21.2903H25.1613C26.2287 21.2903 27.0968 20.4223 27.0968 19.3548V13.5484C27.0968 12.481 26.2287 11.6129 25.1613 11.6129H23.2258C22.1584 11.6129 21.2903 12.481 21.2903 13.5484H17.4194V11.6129C17.4194 10.5455 16.5513 9.67742 15.4839 9.67742V0H1.93548V9.67742C0.868064 9.67742 0 10.5455 0 11.6129V21.2903C0 22.3577 0.868064 23.2258 1.93548 23.2258V60H15.4839V54.1935H45.4839V60H53.2258V55.4545L54.9977 58.1119C55.3277 58.6055 55.8194 58.981 56.4658 59.1977C56.7484 59.2916 57.0368 59.3381 57.3232 59.3381C57.8758 59.3381 58.4187 59.1648 58.8852 58.8281C59.5935 58.3171 60 57.5226 60 56.6487C60 56.1164 59.8442 55.6016 59.549 55.1594ZM23.2258 13.5484H25.1613L25.1623 19.3548H23.2258V13.5484ZM21.2903 15.4839V17.4194H17.4194V15.4839H21.2903ZM3.87097 1.93548H13.5484V9.67742H3.87097V1.93548ZM1.93548 11.6129H15.4839L15.4848 21.2903H1.93548V11.6129ZM3.87097 58.0645V23.2258H13.5484V58.0645H3.87097ZM53.2258 26.1358V30.9677H49.3548V21.3948C51.6039 21.8545 53.2258 23.8306 53.2258 26.1358ZM33.871 4.83871C33.871 3.23806 35.1735 1.93548 36.7742 1.93548H46.4516C48.0523 1.93548 49.3548 3.23806 49.3548 4.83871V18.3871C49.3548 18.9203 48.9203 19.3548 48.3871 19.3548H34.8387C34.3055 19.3548 33.871 18.9203 33.871 18.3871V4.83871ZM43.5484 21.2903C43.5484 22.3577 42.6803 23.2258 41.6129 23.2258C40.5455 23.2258 39.6774 22.3577 39.6774 21.2903H43.5484ZM30 26.1358C30 23.8316 31.6239 21.8623 33.871 21.4026V29.6487C33.6465 29.7474 33.4306 29.8626 33.2303 29.999H30V26.1358ZM35.8064 29.3361V21.2903H37.7419C37.7419 23.4252 39.4781 25.1613 41.6129 25.1613C43.7477 25.1613 45.4839 23.4252 45.4839 21.2903H47.4194V34.8387H46.0026L44.6806 32.8558C44.3506 32.3623 43.859 31.9868 43.2126 31.77C42.4723 31.5242 41.6961 31.6219 41.0332 32.0071L37.4816 29.8761C36.9639 29.5665 36.391 29.3903 35.8064 29.3361ZM42.0203 35.1561L41.7397 34.7352C41.6574 34.6113 41.6139 34.4681 41.6139 34.319C41.6139 34.0752 41.7271 33.8535 41.9255 33.7103C42.1239 33.5671 42.3687 33.5294 42.6842 33.6348C42.8419 33.6881 42.9794 33.7926 43.0713 33.931L43.6761 34.8387H43.5484C43.0055 34.8387 42.4897 34.9529 42.0203 35.1561ZM41.6129 38.7097C41.6129 37.6423 42.481 36.7742 43.5484 36.7742H49.3548V32.9032H53.2258V39.6774C53.2258 40.2116 52.7913 40.6452 52.2581 40.6452H43.5484C42.481 40.6452 41.6129 39.7771 41.6129 38.7097ZM57.7529 57.2574C57.5545 57.4006 57.3097 57.4384 56.9942 57.3329C56.8365 57.2797 56.699 57.1752 56.6071 57.0368L46.9694 42.5806H48.8361L57.9377 56.2326C58.02 56.3564 58.0635 56.4997 58.0635 56.6487C58.0645 56.8926 57.9513 57.1152 57.7529 57.2574Z" fill="#525A68"/>
<path d="M29.0342 53.0796L26.9681 47.5693L21.6097 50.0061L24.0465 44.6477L18.5352 42.5806L24.0455 40.5145L21.6087 35.1561L26.9671 37.5928L29.0342 32.0815L31.1003 37.5919L36.4587 35.1551L34.0219 40.5135L39.5332 42.5806L34.0229 44.6467L36.4597 50.0051L31.1013 47.5683L29.0342 53.0796ZM28.0529 44.9486L29.0342 47.5654L30.0155 44.9486L32.5597 46.1051L31.4032 43.5609L34.019 42.5806L31.4023 41.5993L32.5587 39.0551L30.0145 40.2115L29.0342 37.5957L28.0529 40.2125L25.5087 39.0561L26.6652 41.6003L24.0494 42.5806L26.6661 43.5619L25.5097 46.1061L28.0529 44.9486Z" fill="#FFC80A"/>
</svg>
