<svg width="60" height="60" viewBox="0 0 60 60" fill="none" xmlns="http://www.w3.org/2000/svg">
<path d="M9.44 41.955C9.49941 41.9538 9.55812 41.9558 9.61719 41.9558V1.17188C4.95723 1.17188 1.17969 4.94941 1.17969 9.60938V50.3906H1.18074C1.18133 45.8298 4.87484 42.0486 9.44 41.955Z" fill="#FFC80A"/>
<path d="M58.8212 12.3828H9.61718V41.955C5.03656 42.0489 1.15543 45.8551 1.1798 50.4365C1.20453 55.0753 4.97269 58.8281 9.61718 58.8281H58.8211V12.3828H58.8212Z" fill="white"/>
<path d="M19.2188 24.8242H42.6562V31.3867H19.2188V24.8242Z" fill="white"/>
<path d="M19.2188 31.3867H24.8438V46.3867H19.2188V31.3867Z" fill="white"/>
<path d="M42.6562 46.3867H37.0312V31.3867H42.6562V46.3867Z" fill="white"/>
<path d="M52.2578 37.2918H58.8203V4.45312C58.8203 2.64094 57.3513 1.17188 55.5391 1.17188C53.7269 1.17188 52.2578 2.64094 52.2578 4.45312V37.2918Z" fill="#FFC80A"/>
<path d="M52.2578 7.54723V4.45312C52.2578 2.64094 53.7269 1.17188 55.5391 1.17188C57.3513 1.17188 58.8203 2.64094 58.8203 4.45312V7.54723H52.2578Z" fill="white"/>
<path d="M52.2578 37.2917L55.5391 46.1719L58.8203 37.2917H52.2578Z" fill="white"/>
<path d="M59.993 4.45312C59.993 1.9977 57.9954 0 55.5399 0C53.0845 0 51.0868 1.9977 51.0868 4.45312V11.211H36.2113C35.564 11.211 35.0394 11.7356 35.0394 12.3829C35.0394 13.0301 35.564 13.5547 36.2113 13.5547H51.0868V37.2918C51.0868 37.4304 51.1114 37.5679 51.1595 37.6979L54.4407 46.578C54.6107 47.0382 55.0494 47.3438 55.5399 47.3438C56.0305 47.3438 56.4691 47.0382 56.6391 46.578L57.6493 43.8443V57.6562H9.61719C5.63223 57.6562 2.37289 54.4147 2.35168 50.4302C2.33105 46.5527 5.66926 43.208 9.64121 43.1265C10.2787 43.1134 10.7886 42.5931 10.7891 41.9557V41.9549V13.5547H25.6645C26.3117 13.5547 26.8364 13.0301 26.8364 12.3829C26.8364 11.7356 26.3117 11.211 25.6645 11.211H10.7891V1.17188C10.7891 0.524648 10.2644 0 9.61719 0C4.31855 0 0.0078125 4.31074 0.0078125 9.60938V50.3906C0.0078125 50.3961 0.00851562 50.4015 0.00863281 50.407C0.00863281 50.419 0.0078125 50.4308 0.00792969 50.4428C0.0360547 55.7127 4.3468 60 9.61719 60H58.8211C59.4683 60 59.9929 59.4754 59.9929 58.8281V4.45312H59.993ZM2.35156 9.60938C2.35156 6.00187 4.99414 3.00012 8.44531 2.4382V40.8749C6.3452 41.1682 4.3884 42.1429 2.8441 43.6833C2.67172 43.8552 2.50918 44.0336 2.35156 44.215V9.60938ZM53.4305 8.71547H57.6493V36.1199H53.4305V8.71547ZM55.5399 2.34375C56.703 2.34375 57.6493 3.29004 57.6493 4.45312V6.37172H53.4305V4.45312C53.4305 3.29004 54.3767 2.34375 55.5399 2.34375ZM55.5399 42.7908L53.941 38.4635H57.1388L55.5399 42.7908Z" fill="#525A68"/>
<path d="M37.0312 47.5586H42.6562C43.3035 47.5586 43.8281 47.034 43.8281 46.3867V24.8242C43.8281 24.177 43.3035 23.6523 42.6562 23.6523H19.2188C18.5715 23.6523 18.0469 24.177 18.0469 24.8242V46.3867C18.0469 47.034 18.5715 47.5586 19.2188 47.5586H24.8438C25.491 47.5586 26.0156 47.034 26.0156 46.3867V38.1985H35.8594V46.3867C35.8594 47.034 36.384 47.5586 37.0312 47.5586ZM41.4844 45.2149H38.2031V32.5586H41.4844V45.2149ZM20.3906 25.9961H41.4844V30.2148H20.3906V25.9961ZM23.6719 45.2149H20.3906V32.5586H23.6719V45.2149ZM26.0156 35.8547V32.5586H35.8594V35.8547H26.0156Z" fill="#525A68"/>
<path d="M30.9375 13.5552C31.2457 13.5552 31.548 13.4298 31.766 13.2118C31.984 12.9938 32.1094 12.6915 32.1094 12.3833C32.1094 12.0739 31.984 11.7728 31.766 11.5536C31.548 11.3356 31.2457 11.2114 30.9375 11.2114C30.6293 11.2114 30.327 11.3356 30.109 11.5536C29.891 11.7728 29.7656 12.0739 29.7656 12.3833C29.7656 12.6915 29.891 12.9938 30.109 13.2118C30.327 13.4298 30.6293 13.5552 30.9375 13.5552Z" fill="#525A68"/>
</svg>
