<svg width="60" height="60" viewBox="0 0 60 60" fill="none" xmlns="http://www.w3.org/2000/svg">
<path d="M44.0414 18.5796L43.612 18.7609C38.6165 20.8661 34.6975 24.9205 32.763 29.9848H27.2081C25.2731 24.9205 21.3546 20.8661 16.3591 18.7609L15.9297 18.5796H44.0414Z" fill="#FFC80A"/>
<path d="M38.4017 42.9829L37.9609 42.5426C34.6325 39.216 32.7625 34.7034 32.7625 29.9976H27.2076C27.2076 34.7034 25.3376 39.216 22.0092 42.5426L21.5684 42.9829H38.4017Z" fill="#FFC80A"/>
<path d="M48.6328 14.1865C48.6328 10.4855 40.2905 7.48486 30 7.48486C19.7095 7.48486 11.3672 10.4855 11.3672 14.1865C11.3672 17.888 19.7095 20.8882 30 20.8882C40.2905 20.8882 48.6328 17.888 48.6328 14.1865Z" fill="#FFC80A"/>
<path d="M35.5408 39.1855C43.1259 40.0338 48.6328 42.5785 48.6328 45.5855C48.6328 49.287 40.2905 52.2872 30 52.2872C19.7095 52.2872 11.3672 49.287 11.3672 45.5855C11.3672 42.5881 16.8398 40.0498 24.3878 39.1933" fill="#FFC80A"/>
<path d="M12.8403 30.8129C13.0582 30.595 13.1836 30.2929 13.1836 29.9844C13.1836 29.6763 13.0582 29.3742 12.8403 29.1558C12.6224 28.9379 12.3198 28.8125 12.0117 28.8125C11.7036 28.8125 11.4011 28.9379 11.1832 29.1558C10.9653 29.3742 10.8398 29.6763 10.8398 29.9844C10.8398 30.2929 10.9653 30.595 11.1832 30.8129C11.4011 31.0322 11.7036 31.1562 12.0117 31.1562C12.3198 31.1562 12.6224 31.0322 12.8403 30.8129Z" fill="#525A68"/>
<path d="M6.85547 28.813H1.17188C0.524597 28.813 0 29.338 0 29.9849C0 30.6321 0.524597 31.1567 1.17188 31.1567H6.85547C7.50275 31.1567 8.02734 30.6321 8.02734 29.9849C8.02734 29.338 7.50275 28.813 6.85547 28.813Z" fill="#525A68"/>
<path d="M59.6567 29.1714L56.6647 26.179C56.2074 25.7217 55.4654 25.7217 55.0076 26.179C54.5499 26.6368 54.5499 27.3788 55.0076 27.8366L55.984 28.8135H34.5538C36.5245 24.825 39.8936 21.617 44.0094 19.8656C48.7843 18.0396 49.8047 15.7814 49.8047 14.1866C49.8047 12.5446 48.7234 10.1981 43.5718 8.34503C40.2054 7.13425 35.8328 6.42654 31.1568 6.32584V3.98621L32.1634 4.99237C32.3923 5.22125 32.6921 5.33569 32.9919 5.33569C33.2918 5.33569 33.5916 5.22125 33.8205 4.99237C34.2783 4.53461 34.2783 3.79257 33.8205 3.33481L30.8286 0.343323C30.3708 -0.114441 29.6292 -0.114441 29.1714 0.343323L26.1795 3.33527C25.7217 3.79257 25.7217 4.53461 26.1795 4.99237C26.6373 5.45013 27.3788 5.45013 27.8366 4.99237L28.813 4.01596V6.32675C24.1484 6.42975 19.7878 7.13699 16.4278 8.34503C11.2766 10.1981 10.1953 12.5446 10.1953 14.1866C10.1953 15.7301 11.1516 17.8963 15.5447 19.6893L15.9036 19.8404C20.0455 21.5863 23.4366 24.8062 25.4164 28.813H16.6992C16.0519 28.813 15.5273 29.3376 15.5273 29.9849C15.5273 30.6322 16.0519 31.1568 16.6992 31.1568H25.995C25.8266 33.6099 25.1244 35.9583 23.9447 38.0667C20.1974 38.5172 16.9492 39.3663 14.5377 40.5313C10.9488 42.2639 10.1953 44.2365 10.1953 45.5859C10.1953 47.2279 11.277 49.5744 16.4282 51.4275C19.7878 52.6355 24.1484 53.3427 28.813 53.4457V58.8277C28.813 59.4749 29.3381 59.9995 29.9849 59.9995C30.6322 59.9995 31.1568 59.4749 31.1568 58.8277V53.4462C35.8328 53.3459 40.2054 52.6382 43.5722 51.427C48.7234 49.5744 49.8051 47.2279 49.8051 45.5855C49.8051 44.2323 49.0475 42.2552 45.439 40.5199C43.0215 39.3571 39.771 38.5103 36.0233 38.0626C34.845 35.955 34.1432 33.6086 33.9752 31.1568H56.0138L55.0076 32.1629C54.5499 32.6207 54.5499 33.3627 55.0076 33.8205C55.2365 34.0489 55.5363 34.1634 55.8362 34.1634C56.136 34.1634 56.4359 34.0489 56.6647 33.8205L59.6567 30.8286C60.1144 30.3708 60.1144 29.6288 59.6567 29.1714ZM47.4609 14.1866C47.4609 15.2179 46.1353 16.4305 43.7059 17.4573C43.6656 17.4692 43.6258 17.4829 43.586 17.4998L43.2166 17.6555C40.4041 18.7495 36.2888 19.5923 31.1572 19.7035V8.66959C41.2894 8.88931 47.4609 11.9609 47.4609 14.1866ZM12.5391 14.1866C12.5391 11.9632 18.6983 8.89526 28.813 8.6705V19.7026C18.6983 19.4778 12.5391 16.4099 12.5391 14.1866ZM22.8484 21.562C24.7389 21.8372 26.7503 22.0015 28.8217 22.0468C28.8904 22.6291 29.3843 23.0809 29.9849 23.0809C30.585 23.0809 31.0794 22.6295 31.1481 22.0477C33.2172 22.0033 35.2267 21.8404 37.1159 21.5675C34.9232 23.5799 33.1572 26.0495 31.9748 28.813H30.5141C30.8949 28.6198 31.1568 28.2253 31.1568 27.7684V26.5965C31.1568 25.9497 30.6322 25.4247 29.9849 25.4247C29.3381 25.4247 28.813 25.9497 28.813 26.5965V27.7684C28.813 28.2253 29.0749 28.6198 29.4557 28.813H27.9955C26.8121 26.0468 25.0443 23.5757 22.8484 21.562ZM47.4609 45.5859C47.4609 47.8111 41.2894 50.8832 31.1568 51.1024V50.034C31.1568 49.3872 30.6322 48.8622 29.9849 48.8622C29.3381 48.8622 28.813 49.3872 28.813 50.034V51.102C18.6983 50.8772 12.5391 47.8088 12.5391 45.5859C12.5391 43.8977 16.0721 41.7586 22.1109 40.7039C21.8156 41.0509 21.5062 41.3882 21.1807 41.7137L20.7399 42.1545C20.2821 42.6118 20.2817 43.3539 20.7394 43.8116C20.9683 44.0405 21.2682 44.1554 21.568 44.1554C21.8678 44.1554 22.1677 44.041 22.3965 43.8121L22.8374 43.3713C26.1365 40.0745 28.0655 35.7733 28.3429 31.1572H31.6269C31.9043 35.7733 33.8333 40.0745 37.1324 43.3713L37.5732 43.8121C37.8021 44.041 38.102 44.1554 38.4018 44.1554C38.7016 44.1554 39.0015 44.0405 39.2303 43.8116C39.6881 43.3539 39.6877 42.6118 39.2299 42.1545L38.7891 41.7137C38.4613 41.3864 38.15 41.0468 37.8539 40.6975C43.9151 41.7499 47.4609 43.8913 47.4609 45.5859Z" fill="#525A68"/>
<path d="M29.9844 31.2839C29.3376 31.2839 28.8125 31.809 28.8125 32.4558V33.6277C28.8125 34.275 29.3376 34.7996 29.9844 34.7996C30.6317 34.7996 31.1562 34.275 31.1562 33.6277V32.4558C31.1562 31.8085 30.6317 31.2839 29.9844 31.2839Z" fill="#525A68"/>
<path d="M29.9844 37.1433C29.3376 37.1433 28.8125 37.6684 28.8125 38.3152V39.4871C28.8125 40.1343 29.3376 40.6589 29.9844 40.6589C30.6317 40.6589 31.1562 40.1343 31.1562 39.4871V38.3152C31.1562 37.6679 30.6317 37.1433 29.9844 37.1433Z" fill="#525A68"/>
<path d="M29.9844 43.0027C29.3376 43.0027 28.8125 43.5277 28.8125 44.1746V45.3464C28.8125 45.9937 29.3376 46.5183 29.9844 46.5183C30.6317 46.5183 31.1562 45.9937 31.1562 45.3464V44.1746C31.1562 43.5273 30.6317 43.0027 29.9844 43.0027Z" fill="#525A68"/>
</svg>
