<svg width="60" height="60" viewBox="0 0 60 60" fill="none" xmlns="http://www.w3.org/2000/svg">
<g clip-path="url(#clip0)">
<path d="M33.7252 20.5457H9.28883C7.61269 20.5457 6.25391 19.1868 6.25391 17.5105V4.20703C6.25391 2.53078 7.61269 1.17188 9.28883 1.17188H47.1644C48.8405 1.17188 50.1993 2.53078 50.1993 4.20703V17.5105C50.1993 19.1868 48.8405 20.5457 47.1644 20.5457H43.9621" fill="white"/>
<path d="M30.8363 33.9685H25.4363L23.5176 40.1725H32.7549L30.8363 33.9685Z" fill="white"/>
<path d="M23.5176 40.1726V54.2092C23.5176 56.7601 25.5854 58.8282 28.1362 58.8282C30.687 58.8282 32.7548 56.7601 32.7548 54.2092V40.1726H23.5176Z" fill="white"/>
<path d="M23.215 1.17188H9.28883C7.61269 1.17188 6.25391 2.53078 6.25391 4.20703V13.4719C6.25391 15.0332 7.51953 16.2989 9.08082 16.2989C10.6421 16.2989 11.9076 15.0332 11.9076 13.4719V11.9918C11.9076 13.5531 13.1732 14.8188 14.7345 14.8188C16.2958 14.8188 17.5613 13.5531 17.5613 11.9918V18.5907C17.5613 20.152 18.827 21.4178 20.3882 21.4178C21.9495 21.4178 23.215 20.152 23.215 18.5907" fill="#FFDD4D"/>
<path d="M23.2148 13.0327V21.1254C23.2148 22.6867 24.4805 23.9524 26.0418 23.9524C27.603 23.9524 28.8686 22.6867 28.8686 21.1254V1.17188H23.2148" fill="#FFC80A"/>
<path d="M6.25453 14.5358H5.10094C3.32578 14.5358 1.88672 13.0967 1.88672 11.3215C1.88672 9.54624 3.32578 8.10718 5.10094 8.10718H6.25453V14.5358Z" fill="white"/>
<path d="M50.2012 8.10742H51.3548C53.1299 8.10742 54.5689 9.5466 54.5689 11.3218C54.5689 13.097 53.1298 14.5361 51.3548 14.5361H50.2012V8.10742Z" fill="white"/>
<path d="M58.113 10.1498H55.5804C55.068 8.30402 53.3764 6.94383 51.3716 6.93551V4.20703C51.3716 1.8873 49.4845 0 47.1648 0H9.28945C6.96973 0 5.08254 1.88719 5.08254 4.20703V6.93551C2.67246 6.94547 0.714844 8.90918 0.714844 11.3217C0.714844 13.7343 2.67246 15.698 5.08254 15.7078V17.5105C5.08254 19.8302 6.96973 21.7175 9.28934 21.7175H17.871C17.8801 21.7175 17.8891 21.7174 17.8982 21.7172C18.5818 22.263 19.4479 22.5896 20.3888 22.5896C21.0327 22.5896 21.6415 22.4366 22.1809 22.1651C22.6397 23.8676 24.1971 25.1243 26.0425 25.1243C28.0462 25.1243 29.7104 23.6427 29.9974 21.7175H33.7257C34.3729 21.7175 34.8976 21.1929 34.8976 20.5457C34.8976 19.8984 34.3729 19.3738 33.7257 19.3738H30.0413V2.34375H47.1649C48.1923 2.34375 49.028 3.17965 49.028 4.20703V17.5105C49.028 18.5379 48.1922 19.3738 47.1649 19.3738H43.9627C43.3155 19.3738 42.7908 19.8984 42.7908 20.5457C42.7908 21.1929 43.3155 21.7175 43.9627 21.7175H47.1649C49.4846 21.7175 51.3717 19.8304 51.3717 17.5105V15.7078C53.3766 15.6996 55.0682 14.3394 55.5805 12.4936H56.9413V22.5046C56.9413 24.2488 55.5224 25.6679 53.7783 25.6679H28.1351C27.488 25.6679 26.9632 26.1926 26.9632 26.8398V32.7967H25.4351C24.9212 32.7967 24.4673 33.1314 24.3155 33.6223L22.4037 39.8044C22.3785 39.8807 22.3608 39.9605 22.3518 40.0429C22.3516 40.044 22.3514 40.0453 22.3513 40.0465C22.3508 40.0507 22.3504 40.0548 22.35 40.059C22.3493 40.0662 22.3487 40.0734 22.3481 40.0806C22.348 40.0825 22.3479 40.0843 22.3478 40.0861C22.3472 40.0946 22.3466 40.1033 22.3461 40.1119V40.1123C22.345 40.1357 22.3444 40.1589 22.3446 40.1822V54.2092C22.3446 57.4022 24.9422 60 28.1351 60C31.328 60 33.9255 57.4022 33.9255 54.2092V40.1822C33.9258 40.159 33.9252 40.1357 33.924 40.1123C33.924 40.1122 33.924 40.1121 33.924 40.112C33.9236 40.1032 33.923 40.0945 33.9224 40.0859C33.9223 40.0841 33.9221 40.0823 33.922 40.0806C33.9214 40.0733 33.9209 40.0662 33.9202 40.0589C33.9198 40.0547 33.9193 40.0505 33.9189 40.0464C33.9187 40.0451 33.9185 40.0439 33.9184 40.0427C33.9094 39.9604 33.8917 39.8805 33.8665 39.8043L31.9547 33.6221C31.8028 33.1312 31.3489 32.7966 30.8351 32.7966H29.307V28.0116H53.7782C56.8146 28.0116 59.2849 25.5411 59.2849 22.5045V11.3217C59.2849 10.6745 58.7603 10.1498 58.113 10.1498ZM3.05859 11.3217C3.05859 10.2015 3.96481 9.2891 5.08266 9.27926V13.3642C3.96481 13.3542 3.05859 12.4418 3.05859 11.3217ZM7.42629 17.5105V17.112C7.9309 17.3422 8.49129 17.4707 9.08121 17.4707C10.5991 17.4707 11.9222 16.6206 12.5993 15.3714C13.2175 15.7635 13.9501 15.9907 14.7349 15.9907C15.3248 15.9907 15.8852 15.8623 16.39 15.6319V18.5907C16.39 18.8586 16.4166 19.1204 16.467 19.3737H9.28945C8.26207 19.3738 7.42629 18.5379 7.42629 17.5105ZM27.6974 21.1254C27.6974 22.038 26.9549 22.7805 26.0423 22.7805C25.1298 22.7805 24.3874 22.038 24.3874 21.1254V13.0327C24.3874 12.3854 23.8627 11.8608 23.2155 11.8608C22.5684 11.8608 22.0437 12.3854 22.0437 13.0327V18.5909C22.0437 19.5035 21.3012 20.246 20.3886 20.246C19.4761 20.246 18.7337 19.5035 18.7337 18.5909V11.9918C18.7337 11.3446 18.2089 10.8199 17.5618 10.8199C16.9146 10.8199 16.39 11.3446 16.39 11.9918C16.39 12.9045 15.6475 13.647 14.7349 13.647C13.8224 13.647 13.08 12.9045 13.08 11.9918C13.08 11.3446 12.5552 10.8199 11.9081 10.8199C11.261 10.8199 10.7362 11.3446 10.7362 11.9918V13.4718C10.7362 14.3844 9.99375 15.1269 9.08121 15.1269C8.16867 15.1269 7.42629 14.3844 7.42629 13.4718V4.20703C7.42629 3.17965 8.26207 2.34375 9.28934 2.34375H27.6974V21.1254ZM51.3717 13.3641V9.27926C52.4894 9.2891 53.3958 10.2016 53.3958 11.3217C53.3958 12.4418 52.4894 13.3542 51.3717 13.3641ZM31.5818 54.2092C31.5818 56.11 30.0356 57.6562 28.1351 57.6562C26.2345 57.6562 24.6884 56.11 24.6884 54.2092V41.3445H31.5818V54.2092ZM31.1647 39.0007H25.1055L26.2995 35.1403H29.9709L31.1647 39.0007Z" fill="#525A68"/>
<path d="M38.9335 21.7171C38.0137 21.7329 37.4383 20.6511 37.9585 19.8948C38.4554 19.1234 39.6807 19.2413 40.0153 20.0976C40.3483 20.8333 39.7407 21.7423 38.9335 21.7171Z" fill="#525A68"/>
<path d="M28.1348 55.1195C27.4877 55.1195 26.9629 54.5949 26.9629 53.9477V51.7249C26.9629 51.0776 27.4877 50.553 28.1348 50.553C28.782 50.553 29.3066 51.0776 29.3066 51.7249V53.9477C29.3066 54.5948 28.7819 55.1195 28.1348 55.1195Z" fill="#525A68"/>
</g>
<defs>
<clipPath id="clip0">
<rect width="60" height="60" fill="white"/>
</clipPath>
</defs>
</svg>
