<svg width="60" height="60" viewBox="0 0 60 60" fill="none" xmlns="http://www.w3.org/2000/svg">
<g clip-path="url(#clip0)">
<path fill-rule="evenodd" clip-rule="evenodd" d="M58.7112 39.7935H36.4947L34.8647 42.2448L36.4947 44.2938H59.1213V43.2457V40.2026C59.1213 39.976 58.9382 39.7935 58.7112 39.7935Z" fill="#E8EAEA"/>
<path fill-rule="evenodd" clip-rule="evenodd" d="M59.1212 42.042H36.4946V44.2939H59.1212V42.9109V42.042Z" fill="#D4D6D8"/>
<path fill-rule="evenodd" clip-rule="evenodd" d="M41.4724 31.6282L40.2693 25.3798C40.1982 25.0112 39.961 24.7002 39.5848 24.7002H35.7657C34.9863 27.3138 34.1289 29.4609 36.4942 32.4836H40.8284C41.364 32.4836 41.5673 32.1151 41.4724 31.6282Z" fill="#FE636E"/>
<path fill-rule="evenodd" clip-rule="evenodd" d="M36.4945 46.7825V44.2939V43.0023V39.7936V32.4834C36.4945 29.6399 36.6233 27.6009 35.766 24.6999C33.587 17.3424 26.7655 11.9731 18.6867 11.9731C8.84918 11.9731 0.878906 19.9291 0.878906 29.7413C0.878906 39.557 8.84918 47.5096 18.6867 47.5096H35.7626C36.1658 47.5096 36.4945 47.1815 36.4945 46.7825Z" fill="#FFDD4D"/>
<path fill-rule="evenodd" clip-rule="evenodd" d="M27.6976 29.7411C27.6976 24.7741 23.665 20.7505 18.6869 20.7505C13.7055 20.7505 9.67285 24.7741 9.67285 29.7411C9.67285 34.7115 13.7054 38.7351 18.6869 38.7351H26.9995C27.3825 38.7351 27.6976 38.4207 27.6976 38.0352V29.7411Z" fill="#E8EAEA"/>
<path fill-rule="evenodd" clip-rule="evenodd" d="M18.6867 11.9731C8.84918 11.9731 0.878906 19.9291 0.878906 29.7413H4.9827C5.50793 29.7413 5.37574 29.7921 5.39613 29.251C5.52152 25.7819 6.98543 22.6543 9.28301 20.3585C11.5806 18.0661 14.7151 16.6087 18.192 16.4837C18.7342 16.4634 18.6867 16.5919 18.6867 16.0678V11.9731Z" fill="white"/>
<path fill-rule="evenodd" clip-rule="evenodd" d="M36.4945 43.0024H35.2643H19.3609C18.9882 43.0024 18.6865 43.3068 18.6865 43.6753V47.5096H35.7624C36.1656 47.5096 36.4943 47.1816 36.4943 46.7827V44.2941V43.0024H36.4945Z" fill="white"/>
<path fill-rule="evenodd" clip-rule="evenodd" d="M22.1838 31.3071V28.176C22.1838 27.7906 21.8687 27.4761 21.4823 27.4761H15.8875C15.5012 27.4761 15.186 27.7905 15.186 28.176V31.3071C15.186 31.6925 15.5012 32.0103 15.8875 32.0103H21.4823C21.8687 32.0103 22.1838 31.6925 22.1838 31.3071Z" fill="white"/>
<path fill-rule="evenodd" clip-rule="evenodd" d="M27.6973 29.7411C27.6973 24.7741 23.6648 20.7505 18.6866 20.7505C18.1682 20.7505 17.6632 20.7944 17.1719 20.8756C21.4281 21.5959 24.6678 25.2881 24.6678 29.7411V38.0352C24.6678 38.4206 24.3561 38.7351 23.9697 38.7351H26.9992C27.3822 38.7351 27.6973 38.4207 27.6973 38.0352V29.7411Z" fill="#D4D6D8"/>
<path fill-rule="evenodd" clip-rule="evenodd" d="M22.184 31.3071V28.176C22.184 27.7906 21.8689 27.4761 21.4825 27.4761H19.0527C19.4391 27.4761 19.7576 27.7905 19.7576 28.176V31.3071C19.7576 31.6925 19.4391 32.0103 19.0527 32.0103H21.4825C21.8689 32.0103 22.184 31.6925 22.184 31.3071Z" fill="white"/>
<path fill-rule="evenodd" clip-rule="evenodd" d="M36.4944 43.0024H35.2643H32.3804V46.7827C32.3804 47.1817 32.0551 47.5096 31.6519 47.5096H35.7624C36.1657 47.5096 36.4944 47.1816 36.4944 46.7827V44.2941V43.0024Z" fill="white"/>
<path fill-rule="evenodd" clip-rule="evenodd" d="M36.4945 29.7413C36.4945 29.7346 36.4945 29.7279 36.4945 29.7211V29.7413ZM36.4945 32.4835C36.4945 31.4962 36.5081 30.607 36.4945 29.7413V32.4835ZM35.9895 25.5317C35.9895 25.5283 35.9895 25.5283 35.9895 25.5249V25.5317ZM36.4945 39.7937V32.4835C36.4945 31.4962 36.5081 30.607 36.4945 29.7413C36.4945 29.7346 36.4945 29.7279 36.4945 29.7211C36.4775 28.8353 36.4267 27.973 36.2946 27.0668C36.2912 27.0668 36.2912 27.0668 36.2912 27.0668C36.2132 26.5461 36.1149 26.0355 35.9895 25.5351V25.5317C35.9895 25.5283 35.9895 25.5283 35.9895 25.5249C35.9218 25.2579 35.8471 24.984 35.7658 24.6999C33.5868 17.3424 26.7653 11.9731 18.6865 11.9731V12.4499C26.5382 14.3027 32.3804 21.3424 32.3804 29.7413V43.0024H35.2642H36.4944V39.7937H36.4945Z" fill="#FFC80A"/>
<path fill-rule="evenodd" clip-rule="evenodd" d="M41.4726 31.6282L40.2695 25.3798C40.1984 25.0112 39.9612 24.7002 39.5851 24.7002H37.1587C37.5315 24.7036 37.7653 25.0146 37.8364 25.3798L39.0394 31.6282C39.131 32.1151 38.931 32.4836 38.3956 32.4836H40.8288C41.3642 32.4836 41.5675 32.1151 41.4726 31.6282Z" fill="#F93E55"/>
<path d="M58.7111 38.9147H37.3734V33.3623H40.8287C41.3273 33.3623 41.7573 33.1739 42.0393 32.8317C42.333 32.4752 42.438 31.9881 42.3355 31.4619L41.1325 25.2129C40.9716 24.3804 40.3496 23.8212 39.5849 23.8212H36.4075C33.9221 16.4322 26.9176 11.0942 18.6867 11.0942C8.38289 11.0942 0 19.4593 0 29.7413C0 40.0234 8.38289 48.3885 18.6867 48.3885H35.7626C36.6509 48.3885 37.3734 47.6681 37.3734 46.7826V45.173H45.2273C45.7129 45.173 46.1063 44.7796 46.1063 44.294C46.1063 43.8085 45.7129 43.4151 45.2273 43.4151H37.3734V40.6726H58.2422V43.2459V43.4151H48.8058C48.3203 43.4151 47.9269 43.8085 47.9269 44.294C47.9269 44.7796 48.3203 45.173 48.8058 45.173H58.2422V48.0269C58.2422 48.5124 58.6356 48.9058 59.1211 48.9058C59.6066 48.9058 60 48.5124 60 48.0269V44.294V43.2459V40.2028C60 39.4925 59.4217 38.9147 58.7111 38.9147ZM39.4128 25.5788L40.573 31.6045H37.3734V29.7413C37.3734 28.311 37.2107 26.9177 36.9036 25.5788H39.4128ZM1.78055 30.6203H4.98258L5.09766 30.621C5.11934 30.6212 5.14207 30.6214 5.16574 30.6214C5.40293 30.6214 5.72754 30.5995 5.99625 30.3266C6.28781 30.0304 6.27914 29.6791 6.27434 29.4903C6.27281 29.4293 6.27129 29.3661 6.27434 29.283C6.36023 26.9288 7.11047 24.6631 8.44406 22.7307C8.7198 22.3312 8.61937 21.7838 8.21988 21.5081C7.82051 21.2324 7.27289 21.3328 6.99727 21.7323C5.54062 23.8432 4.69289 26.3017 4.53516 28.8623H1.78055C2.22539 20.2469 9.1718 13.3173 17.8078 12.8746V15.6222C15.0396 15.7904 12.4117 16.7529 10.1866 18.4172C9.79793 18.7078 9.71848 19.2587 10.0092 19.6474C10.1818 19.8783 10.4461 19.9999 10.7138 19.9999C10.8969 19.9999 11.0816 19.9429 11.2395 19.8248C13.2708 18.3055 15.6859 17.4539 18.2246 17.3619C18.3105 17.3587 18.3778 17.3604 18.4307 17.3615C18.6212 17.3649 18.9751 17.3735 19.2711 17.0811C19.5711 16.7852 19.5682 16.4335 19.5661 16.1767L19.5656 12.8746C28.4933 13.3324 35.6155 20.7226 35.6155 29.7412V39.7935V42.1234H19.361C18.5045 42.1234 17.8078 42.8195 17.8078 43.6751V46.6079C9.17192 46.1653 2.22551 39.2356 1.78055 30.6203ZM35.6156 46.6306H19.5656V43.8813H35.6156V44.2939V46.6306Z" fill="#525A68"/>
<path d="M18.6869 39.614H26.9995C27.869 39.614 28.5765 38.9058 28.5765 38.0352V29.7411C28.5765 24.2992 24.1401 19.8716 18.6869 19.8716C13.232 19.8716 8.79395 24.299 8.79395 29.7411C8.79395 35.1851 13.232 39.614 18.6869 39.614ZM18.6869 21.6294C23.1707 21.6294 26.8187 25.2683 26.8187 29.7411V37.8562H18.6869C14.2012 37.8562 10.5518 34.2158 10.5518 29.7411C10.5518 25.2683 14.2012 21.6294 18.6869 21.6294Z" fill="#525A68"/>
<path d="M15.8875 32.8889H21.4823C22.3537 32.8889 23.0627 32.179 23.0627 31.3066V28.1756C23.0627 27.305 22.3537 26.5967 21.4823 26.5967H15.8875C15.0161 26.5967 14.3071 27.305 14.3071 28.1756V31.3066C14.3071 32.1792 15.0161 32.8889 15.8875 32.8889ZM16.0649 28.3546H21.3049V31.131H16.0649V28.3546Z" fill="#525A68"/>
</g>
<defs>
<clipPath id="clip0">
<rect width="60" height="60" fill="white"/>
</clipPath>
</defs>
</svg>
