<svg width="60" height="60" viewBox="0 0 60 60" fill="none" xmlns="http://www.w3.org/2000/svg">
<path d="M56.0625 27.7515C56.1739 27.7513 56.2828 27.7843 56.3754 27.846C56.4681 27.9078 56.5404 27.9957 56.5831 28.0985C56.6258 28.2014 56.6371 28.3146 56.6155 28.4238C56.5939 28.5331 56.5403 28.6335 56.4617 28.7123C56.383 28.7911 56.2827 28.8449 56.1735 28.8667C56.0643 28.8885 55.9511 28.8775 55.8481 28.835C55.7452 28.7925 55.6572 28.7204 55.5952 28.6279C55.5333 28.5353 55.5001 28.4265 55.5 28.3151C55.4999 28.1658 55.5591 28.0225 55.6645 27.9168C55.77 27.8111 55.9132 27.7517 56.0625 27.7515Z" fill="white"/>
<path d="M58.147 10.1519C58.2583 10.1517 58.3672 10.1847 58.4599 10.2464C58.5526 10.3082 58.6248 10.3961 58.6676 10.4989C58.7103 10.6018 58.7215 10.715 58.6999 10.8242C58.6783 10.9335 58.6248 11.0339 58.5461 11.1127C58.4675 11.1915 58.3672 11.2453 58.258 11.2671C58.1488 11.2889 58.0355 11.2779 57.9326 11.2354C57.8297 11.1929 57.7417 11.1208 57.6797 11.0283C57.6177 10.9357 57.5846 10.8269 57.5845 10.7155C57.5843 10.5662 57.6435 10.4229 57.749 10.3172C57.8545 10.2115 57.9976 10.152 58.147 10.1519Z" fill="white"/>
<path d="M40.2995 8.58545C40.4108 8.58557 40.5196 8.61867 40.6121 8.68059C40.7046 8.74251 40.7767 8.83046 40.8193 8.93332C40.8618 9.03619 40.8729 9.14936 40.8512 9.25853C40.8294 9.36771 40.7758 9.46798 40.6971 9.5467C40.6184 9.62541 40.5181 9.67903 40.4089 9.70077C40.2998 9.72252 40.1866 9.71142 40.0837 9.66887C39.9808 9.62633 39.8929 9.55425 39.831 9.46174C39.7691 9.36923 39.736 9.26044 39.7358 9.14912C39.7357 9.07506 39.7502 9.00169 39.7784 8.93323C39.8067 8.86477 39.8482 8.80257 39.9006 8.7502C39.953 8.69783 40.0152 8.65631 40.0836 8.62804C40.1521 8.59977 40.2254 8.5853 40.2995 8.58545Z" fill="white"/>
<path d="M28.5515 25.6899C28.6628 25.6901 28.7716 25.7232 28.8641 25.7851C28.9566 25.847 29.0287 25.9349 29.0712 26.0378C29.1138 26.1407 29.1249 26.2538 29.1031 26.363C29.0814 26.4722 29.0277 26.5725 28.949 26.6512C28.8703 26.7299 28.77 26.7835 28.6609 26.8053C28.5517 26.827 28.4385 26.8159 28.3357 26.7734C28.2328 26.7308 28.1449 26.6587 28.0829 26.5662C28.021 26.4737 27.9879 26.3649 27.9878 26.2536C27.9876 26.1795 28.0021 26.1062 28.0304 26.0377C28.0587 25.9693 28.1002 25.9071 28.1525 25.8547C28.2049 25.8023 28.2671 25.7608 28.3356 25.7325C28.404 25.7043 28.4774 25.6898 28.5515 25.6899Z" fill="white"/>
<path d="M30.3361 31.5542C30.4475 31.5543 30.5562 31.5874 30.6487 31.6493C30.7413 31.7113 30.8133 31.7992 30.8559 31.9021C30.8984 32.0049 30.9095 32.1181 30.8878 32.2273C30.866 32.3364 30.8124 32.4367 30.7337 32.5154C30.655 32.5942 30.5547 32.6478 30.4455 32.6695C30.3364 32.6913 30.2232 32.6802 30.1203 32.6376C30.0175 32.5951 29.9295 32.523 29.8676 32.4305C29.8057 32.338 29.7726 32.2292 29.7725 32.1179C29.7723 32.0438 29.7868 31.9704 29.8151 31.902C29.8433 31.8335 29.8848 31.7713 29.9372 31.7189C29.9896 31.6666 30.0518 31.6251 30.1202 31.5968C30.1887 31.5685 30.2621 31.554 30.3361 31.5542Z" fill="white"/>
<path d="M52.9218 5.31465L51.0843 6.7959L51.2636 9.14902L49.2878 7.85996L47.1046 8.75644L47.721 6.47832L46.1929 4.68066L48.5495 4.5623L49.7882 2.55371L50.6284 4.75801L52.9218 5.31465Z" fill="white"/>
<path d="M57.1198 18.7655L55.2835 20.2468L55.4628 22.5987L53.4858 21.3097L51.3038 22.2062L51.919 19.9292L50.3921 18.1304L52.7487 18.012L53.9874 16.0034L54.8276 18.2089L57.1198 18.7655Z" fill="white"/>
<path d="M50.1327 29.6626L47.7983 30.0013L46.7542 32.1177L45.7101 30.0013L43.3745 29.6626L45.0644 28.0149L44.6659 25.6899L46.7542 26.788L48.8425 25.6899L48.444 28.0149L50.1327 29.6626Z" fill="white"/>
<path d="M41.3366 34.8604V53.9021C41.3366 54.842 40.9632 55.7433 40.2987 56.4079C39.6341 57.0725 38.7327 57.4459 37.7929 57.4459H27.9878V34.8604H41.3366Z" fill="#FFC80A"/>
<path d="M34.1589 12.3589L36.8132 16.5331L24.5519 24.3285L19.9956 17.1636L29.2663 11.2691C29.6591 11.0194 30.0973 10.8494 30.5557 10.7691C31.0142 10.6887 31.484 10.6994 31.9383 10.8006C32.3927 10.9018 32.8226 11.0915 33.2036 11.3589C33.5846 11.6263 33.9092 11.9661 34.1589 12.3589Z" fill="#FFC80A"/>
<path d="M19.0513 34.8604H27.988V57.4459H19.0513V34.8604Z" fill="white"/>
<path d="M16.1227 19.6264V19.6252L19.9957 17.1631L24.552 24.3279L16.9488 29.1619L12.3926 21.9982L16.1227 19.6264Z" fill="white"/>
<path d="M19.0513 34.8604V57.4459H11.5923C11.1268 57.446 10.6659 57.3544 10.2359 57.1764C9.80581 56.9983 9.41504 56.7373 9.08586 56.4082C8.75668 56.0792 8.49554 55.6885 8.31735 55.2585C8.13917 54.8285 8.04742 54.3676 8.04736 53.9021V34.8604H19.0513Z" fill="#FFC80A"/>
<path d="M16.9487 29.1622L4.4964 37.0794L1.84328 32.9063C1.59345 32.5136 1.42344 32.0755 1.34295 31.6171C1.26245 31.1587 1.27306 30.6889 1.37415 30.2345C1.47525 29.7802 1.66486 29.3502 1.93215 28.9692C2.19944 28.5882 2.53917 28.2635 2.93195 28.0138L12.3925 21.9985L16.9487 29.1622Z" fill="#FFC80A"/>
<path d="M11.563 53.9021V34.8604H8.04736V53.9021C8.04742 54.3676 8.13917 54.8285 8.31735 55.2585C8.49554 55.6885 8.75668 56.0792 9.08586 56.4082C9.41504 56.7373 9.80581 56.9983 10.2359 57.1764C10.6659 57.3544 11.1268 57.446 11.5923 57.4459H15.1079C14.6425 57.446 14.1815 57.3544 13.7515 57.1764C13.3214 56.9983 12.9307 56.7373 12.6015 56.4082C12.2723 56.0792 12.0112 55.6885 11.833 55.2585C11.6548 54.8285 11.563 54.3676 11.563 53.9021Z" fill="#FFDD4D"/>
<path d="M5.47623 30.4452C5.05988 29.7905 4.86987 29.0173 4.93535 28.2442C5.00082 27.4711 5.31817 26.7409 5.83869 26.1655L2.93244 28.0136C2.53966 28.2633 2.19992 28.588 1.93263 28.969C1.66534 29.3501 1.47574 29.78 1.37464 30.2344C1.27354 30.6887 1.26294 31.1585 1.34343 31.6169C1.42393 32.0753 1.59394 32.5134 1.84377 32.9062L4.49689 37.0792L8.1297 34.6183L5.47623 30.4452Z" fill="#FFDD4D"/>
<path d="M41.3369 34.1577H10.4038L37.1905 17.1263C37.2684 17.0768 37.3358 17.0124 37.3889 16.9368C37.4419 16.8612 37.4796 16.7759 37.4996 16.6857C37.5197 16.5956 37.5218 16.5024 37.5058 16.4114C37.4899 16.3204 37.4561 16.2335 37.4066 16.1556L34.7526 11.9816C34.1474 11.0319 33.1901 10.3612 32.0909 10.1164C30.9917 9.87168 29.8403 10.073 28.8894 10.6761L25.12 13.0727L25.4186 11.6441C25.5363 11.1276 25.5508 10.5929 25.4612 10.0708C25.3717 9.54864 25.1798 9.04936 24.8967 8.6016C24.6136 8.15385 24.2448 7.76646 23.8115 7.46167C23.3782 7.15689 22.8889 6.94072 22.3718 6.8256C21.8548 6.71047 21.32 6.69865 20.7983 6.79082C20.2767 6.88299 19.7783 7.07733 19.332 7.36268C18.8857 7.64803 18.5001 8.01875 18.1975 8.45356C17.8949 8.88837 17.6811 9.37869 17.5686 9.89635L15.6104 18.6917L9.05363 17.2323C8.07582 17.0144 7.05188 17.1693 6.18228 17.6667C5.31268 18.1641 4.66005 18.9681 4.35218 19.9215C4.04431 20.8748 4.10336 21.9087 4.51777 22.8208C4.93219 23.7328 5.67212 24.4574 6.5927 24.8525L2.55465 27.4201C1.60504 28.0253 0.934284 28.9825 0.689545 30.0817C0.444806 31.1809 0.64607 32.3323 1.24918 33.2832L3.90312 37.4573C3.95266 37.5353 4.01706 37.6027 4.09265 37.6557C4.16824 37.7088 4.25354 37.7464 4.34367 37.7665C4.43381 37.7866 4.52702 37.7887 4.61798 37.7727C4.70893 37.7568 4.79586 37.7231 4.87379 37.6735L7.3441 36.1032V53.9026C7.34537 55.0287 7.7933 56.1083 8.58961 56.9046C9.38591 57.7009 10.4656 58.1487 11.5917 58.1499H37.7929C38.919 58.1487 39.9986 57.7008 40.7948 56.9045C41.5911 56.1083 42.039 55.0287 42.0403 53.9026V34.8608C42.0403 34.7684 42.0221 34.677 41.9867 34.5917C41.9514 34.5063 41.8996 34.4288 41.8343 34.3635C41.7689 34.2982 41.6914 34.2465 41.6061 34.2111C41.5207 34.1758 41.4293 34.1576 41.3369 34.1577ZM29.6439 11.863C30.0975 11.573 30.6245 11.4187 31.1628 11.4184C31.3724 11.4185 31.5813 11.4416 31.7858 11.4872C32.1503 11.5673 32.4954 11.719 32.8009 11.9334C33.1064 12.1478 33.3665 12.4206 33.5659 12.7361L35.8426 16.3168L24.7684 23.3581L20.9673 17.3799L29.6439 11.863ZM18.9412 10.2021C19.0931 9.5254 19.5076 8.93677 20.0935 8.56568C20.6794 8.1946 21.3887 8.07147 22.0654 8.22338C22.7421 8.37528 23.3308 8.78978 23.7018 9.37568C24.0729 9.96159 24.196 10.6709 24.0441 11.3476L23.4669 14.109L17.1778 18.1226L18.9412 10.2021ZM19.7803 18.1345L23.5814 24.1127L17.1642 28.1927L13.3632 22.2145L19.7803 18.1345ZM5.97312 22.5604C5.69561 22.124 5.55374 21.6151 5.56547 21.098C5.5772 20.581 5.742 20.079 6.03902 19.6556C6.33604 19.2322 6.75195 18.9064 7.23415 18.7194C7.71635 18.5323 8.24317 18.4925 8.74801 18.6049L14.4298 19.8698L8.12258 23.8236L7.61141 23.7097C7.27591 23.636 6.95837 23.4964 6.67716 23.2992C6.39595 23.1019 6.15666 22.8508 5.97312 22.5604ZM4.71277 36.1095L2.43617 32.5288C2.03274 31.8927 1.89809 31.1225 2.06176 30.3873C2.22543 29.652 2.67406 29.0117 3.30922 28.6069L12.1764 22.9691L15.9774 28.9473L4.71277 36.1095ZM18.3479 56.7437H11.5917C10.8384 56.7428 10.1163 56.4432 9.58368 55.9106C9.05106 55.378 8.75145 54.6558 8.75059 53.9026V35.5639H18.3482L18.3479 56.7437ZM27.2851 56.7437H19.7541V35.5639H27.2851V56.7437ZM40.6338 53.9026C40.6329 54.6558 40.3333 55.3779 39.8008 55.9105C39.2682 56.4431 38.5461 56.7428 37.7929 56.7437H28.6913V35.5639H40.6338V53.9026Z" fill="#525A68"/>
<path d="M49.1993 27.7704L49.5357 25.8093C49.5578 25.68 49.5433 25.5472 49.4939 25.4257C49.4445 25.3042 49.3621 25.199 49.256 25.1219C49.1499 25.0447 49.0244 24.9989 48.8935 24.9894C48.7627 24.9799 48.6319 25.0071 48.5158 25.0681L46.7547 25.9939L44.9935 25.0681C44.8773 25.007 44.7464 24.9797 44.6156 24.9891C44.4847 24.9986 44.3591 25.0445 44.253 25.1216C44.1468 25.1987 44.0644 25.304 44.0149 25.4255C43.9655 25.547 43.951 25.68 43.9732 25.8093L44.3096 27.7704L42.8848 29.1591C42.7908 29.2507 42.7243 29.3667 42.6929 29.4941C42.6614 29.6215 42.6662 29.7551 42.7068 29.8799C42.7473 30.0047 42.822 30.1157 42.9223 30.2003C43.0226 30.2848 43.1446 30.3397 43.2744 30.3585L45.2432 30.6447L46.1237 32.4289C46.1818 32.5466 46.2716 32.6457 46.3831 32.7149C46.4945 32.7842 46.6231 32.821 46.7543 32.821C46.8855 32.821 47.0142 32.7842 47.1256 32.7149C47.237 32.6457 47.3269 32.5466 47.3849 32.4289L48.2653 30.6447L50.2341 30.3585C50.3639 30.3397 50.4859 30.2848 50.5863 30.2003C50.6866 30.1157 50.7612 30.0047 50.8018 29.8799C50.8423 29.7551 50.8471 29.6215 50.8157 29.4941C50.7842 29.3667 50.7177 29.2507 50.6237 29.1591L49.1993 27.7704ZM47.6973 29.3056C47.5845 29.322 47.4774 29.3655 47.3851 29.4325C47.2929 29.4995 47.2183 29.588 47.1679 29.6902L46.7543 30.5283L46.3407 29.6902C46.2902 29.588 46.2157 29.4996 46.1234 29.4326C46.0312 29.3656 45.9241 29.322 45.8113 29.3056L44.8862 29.1712L45.5556 28.5188C45.6373 28.4392 45.6983 28.341 45.7336 28.2326C45.7688 28.1241 45.7771 28.0088 45.7579 27.8964L45.5998 26.9751L46.4271 27.41C46.528 27.4631 46.6403 27.4908 46.7543 27.4908C46.8683 27.4908 46.9806 27.4631 47.0815 27.41L47.9087 26.9751L47.7508 27.8964C47.7315 28.0088 47.7398 28.1241 47.775 28.2326C47.8102 28.341 47.8713 28.4392 47.9529 28.5188L48.6223 29.1712L47.6973 29.3056Z" fill="#525A68"/>
<path d="M57.2859 18.0824L55.3523 17.6124L54.6432 15.7535C54.5965 15.6309 54.5164 15.5238 54.4119 15.4443C54.3075 15.3649 54.1829 15.3162 54.0523 15.3039C53.9217 15.2916 53.7902 15.316 53.6727 15.3745C53.5553 15.433 53.4565 15.5232 53.3877 15.6349L52.3434 17.3286L50.3563 17.4286C50.2252 17.4352 50.0987 17.4783 49.9909 17.5531C49.8831 17.6278 49.7983 17.7313 49.7463 17.8517C49.6942 17.9721 49.6768 18.1047 49.6961 18.2344C49.7155 18.3642 49.7707 18.4859 49.8556 18.5859L51.1436 20.1025L50.6249 22.0232C50.5906 22.1498 50.5925 22.2835 50.6303 22.4092C50.6681 22.5348 50.7403 22.6474 50.8387 22.7341C50.9372 22.8208 51.0579 22.8783 51.1873 22.9C51.3167 22.9217 51.4496 22.9068 51.5709 22.8569L53.4108 22.1006L55.078 23.1878C55.1879 23.2594 55.3156 23.2989 55.4468 23.3018C55.5779 23.3047 55.7073 23.2708 55.8202 23.204C55.9331 23.1372 56.025 23.0402 56.0857 22.9238C56.1463 22.8075 56.1732 22.6765 56.1633 22.5457L56.0127 20.5617L57.5611 19.3128C57.6632 19.2305 57.7402 19.1212 57.7834 18.9974C57.8267 18.8736 57.8344 18.7401 57.8058 18.6121C57.7772 18.4841 57.7133 18.3667 57.6215 18.2731C57.5296 18.1794 57.4134 18.1134 57.2859 18.0824ZM54.8418 19.6996C54.7531 19.7711 54.6831 19.8632 54.6379 19.9678C54.5926 20.0724 54.5735 20.1865 54.5822 20.3001L54.6525 21.2321L53.8695 20.7213C53.7741 20.659 53.6649 20.6209 53.5514 20.6102C53.4379 20.5995 53.3235 20.6166 53.2181 20.6599L52.3537 21.0152L52.5975 20.1129C52.6272 20.0028 52.6297 19.8872 52.6049 19.776C52.58 19.6647 52.5284 19.5612 52.4546 19.4743L51.8496 18.7619L52.7831 18.7151C52.897 18.7094 53.0077 18.6761 53.1059 18.6181C53.204 18.5601 53.2866 18.479 53.3464 18.382L53.8368 17.5864L54.1699 18.4597C54.2105 18.5662 54.2765 18.6612 54.362 18.7366C54.4475 18.8119 54.55 18.8653 54.6608 18.8923L55.5691 19.113L54.8418 19.6996Z" fill="#525A68"/>
<path d="M46.9455 6.65211L46.4265 8.57281C46.3922 8.69948 46.3941 8.8332 46.4319 8.95886C46.4696 9.08451 46.5418 9.19709 46.6403 9.28386C46.7387 9.37062 46.8594 9.42811 46.9889 9.44982C47.1183 9.47154 47.2512 9.45661 47.3725 9.40672L49.2124 8.65027L50.8789 9.73766C50.9888 9.80934 51.1165 9.84885 51.2477 9.85172C51.3789 9.85459 51.5082 9.8207 51.6211 9.75388C51.734 9.68707 51.826 9.59 51.8866 9.47364C51.9472 9.35729 51.9741 9.22629 51.9642 9.09547L51.8136 7.11149L53.3623 5.8625C53.4644 5.78015 53.5414 5.67089 53.5847 5.54706C53.6279 5.42323 53.6357 5.28977 53.6071 5.16177C53.5784 5.03377 53.5146 4.91632 53.4227 4.82271C53.3308 4.7291 53.2146 4.66305 53.0872 4.63203L51.1536 4.16223L50.4446 2.30316C50.3978 2.18056 50.3177 2.07349 50.2133 1.99406C50.1088 1.91463 49.9842 1.866 49.8536 1.85369C49.723 1.84138 49.5915 1.86586 49.4741 1.92438C49.3566 1.98289 49.2579 2.0731 49.189 2.18481L48.1449 3.8784L46.1576 3.97824C46.0266 3.98482 45.9 4.02792 45.7922 4.10268C45.6844 4.17744 45.5997 4.28087 45.5476 4.40128C45.4955 4.52169 45.4781 4.65427 45.4974 4.78404C45.5167 4.91381 45.572 5.03558 45.6569 5.13559L46.9455 6.65211ZM48.5851 5.26414C48.6989 5.25842 48.8097 5.22511 48.9078 5.16707C49.0059 5.10903 49.0884 5.02801 49.1483 4.93098L49.6388 4.13539L49.9719 5.00867C50.0125 5.11518 50.0784 5.21021 50.1639 5.28559C50.2494 5.36096 50.352 5.41441 50.4628 5.44133L51.371 5.66199L50.6435 6.24863C50.5547 6.32018 50.4847 6.41223 50.4394 6.51686C50.3942 6.62149 50.375 6.73555 50.3837 6.84922L50.454 7.78133L49.671 7.27051C49.5756 7.20823 49.4664 7.17011 49.3529 7.15941C49.2394 7.14871 49.125 7.16577 49.0196 7.2091L48.1552 7.56441L48.399 6.66207C48.4287 6.55201 48.4313 6.43636 48.4064 6.3251C48.3815 6.21384 48.3299 6.1103 48.2561 6.0234L47.6511 5.3109L48.5851 5.26414Z" fill="#525A68"/>
<path d="M34.1891 27.8713C32.6017 28.8703 31.8261 30.0808 31.7939 30.1319C31.694 30.2894 31.6608 30.4801 31.7016 30.6621C31.7423 30.8441 31.8536 31.0024 32.0111 31.1023C32.1686 31.2022 32.3593 31.2354 32.5413 31.1947C32.7233 31.1539 32.8816 31.0426 32.9815 30.8851C33.087 30.721 35.631 26.8755 41.1682 28.2452C41.3485 28.2881 41.5385 28.258 41.6968 28.1615C41.855 28.0651 41.9688 27.91 42.0133 27.7301C42.0579 27.5502 42.0296 27.3599 41.9346 27.2008C41.8396 27.0416 41.6856 26.9264 41.5061 26.8802C38.0992 26.0373 35.6466 26.9538 34.1891 27.8713Z" fill="#525A68"/>
<path d="M47.5316 20.4246C47.7039 20.4961 47.8975 20.4962 48.0698 20.425C48.2422 20.3537 48.3791 20.217 48.4506 20.0447C48.5221 19.8725 48.5222 19.6789 48.451 19.5065C48.3797 19.3342 48.2429 19.1972 48.0707 19.1257C43.0651 17.0483 39.4271 18.604 37.2566 20.2751C35.8167 21.3949 34.6249 22.8013 33.7565 24.4055C33.7154 24.4882 33.691 24.5782 33.6847 24.6703C33.6784 24.7624 33.6904 24.8549 33.7198 24.9424C33.7492 25.0299 33.7956 25.1108 33.8563 25.1804C33.917 25.2499 33.9908 25.3069 34.0735 25.348C34.1562 25.389 34.2462 25.4134 34.3383 25.4197C34.4305 25.426 34.5229 25.4141 34.6104 25.3846C34.6979 25.3552 34.7788 25.3088 34.8484 25.2481C34.918 25.1874 34.9749 25.1136 35.016 25.0309C35.7908 23.6193 36.8451 22.3802 38.1144 21.3893C40.8435 19.2887 44.0119 18.9639 47.5316 20.4246Z" fill="#525A68"/>
<path d="M39.6303 15.2161C39.5729 15.3935 39.5884 15.5864 39.6732 15.7525C39.7581 15.9185 39.9055 16.044 40.0829 16.1014C41.0509 16.3866 42.0548 16.5317 43.0639 16.5322C44.2398 16.5322 45.5978 16.32 46.8157 15.5981C48.4094 14.6538 49.4313 13.0449 49.8548 10.8169C49.8724 10.726 49.8719 10.6325 49.8533 10.5419C49.8347 10.4512 49.7984 10.3651 49.7465 10.2885C49.6945 10.2119 49.628 10.1463 49.5506 10.0955C49.4733 10.0447 49.3867 10.0096 49.2958 9.99234C49.2048 9.97506 49.1114 9.97591 49.0208 9.99482C48.9302 10.0137 48.8442 10.0504 48.7678 10.1026C48.6914 10.1548 48.6261 10.2216 48.5755 10.2991C48.525 10.3766 48.4902 10.4634 48.4733 10.5544C48.129 12.3662 47.3321 13.6551 46.1048 14.3852C43.7703 15.7742 40.5657 14.7798 40.515 14.7636C40.3376 14.7064 40.1449 14.722 39.979 14.8068C39.8132 14.8916 39.6877 15.0388 39.6303 15.2161Z" fill="#525A68"/>
<path d="M30.336 33.3842C30.5865 33.3843 30.8313 33.31 31.0396 33.1709C31.2479 33.0317 31.4102 32.834 31.5061 32.6026C31.6019 32.3712 31.627 32.1166 31.5782 31.8709C31.5293 31.6253 31.4087 31.3996 31.2316 31.2225C31.0545 31.0454 30.8289 30.9248 30.5833 30.8759C30.3376 30.827 30.083 30.8521 29.8516 30.9479C29.6202 31.0438 29.4224 31.2061 29.2832 31.4143C29.1441 31.6226 29.0698 31.8674 29.0698 32.1179C29.0702 32.4536 29.2038 32.7755 29.4411 33.0128C29.6785 33.2502 30.0003 33.3838 30.336 33.3842ZM30.336 31.978C30.3637 31.9779 30.3908 31.9861 30.4139 32.0015C30.4369 32.0169 30.4549 32.0388 30.4655 32.0644C30.4761 32.09 30.4789 32.1181 30.4735 32.1453C30.4681 32.1725 30.4548 32.1974 30.4352 32.217C30.4156 32.2366 30.3906 32.25 30.3635 32.2554C30.3363 32.2608 30.3081 32.258 30.2825 32.2474C30.2569 32.2368 30.235 32.2188 30.2197 32.1957C30.2043 32.1727 30.1961 32.1456 30.1961 32.1179C30.1963 32.0808 30.2111 32.0454 30.2373 32.0192C30.2635 31.993 30.299 31.9782 30.336 31.978Z" fill="#525A68"/>
<path d="M40.299 10.4155C40.5495 10.4155 40.7943 10.3412 41.0026 10.2021C41.2108 10.0629 41.3731 9.86513 41.469 9.63374C41.5648 9.40235 41.5899 9.14774 41.541 8.90209C41.4922 8.65645 41.3716 8.43081 41.1945 8.25371C41.0174 8.07661 40.7917 7.95601 40.5461 7.90715C40.3005 7.85828 40.0458 7.88336 39.8144 7.97921C39.583 8.07505 39.3853 8.23736 39.2461 8.44561C39.107 8.65385 39.0327 8.89868 39.0327 9.14914C39.0331 9.48488 39.1666 9.80676 39.404 10.0442C39.6414 10.2816 39.9633 10.4151 40.299 10.4155ZM40.299 9.00922C40.3267 9.00922 40.3538 9.01743 40.3769 9.03283C40.3999 9.04822 40.4178 9.0701 40.4284 9.09569C40.439 9.12129 40.4418 9.14945 40.4364 9.17662C40.431 9.20379 40.4176 9.22874 40.398 9.24832C40.3784 9.2679 40.3535 9.28123 40.3263 9.28662C40.2991 9.29201 40.271 9.28922 40.2454 9.2786C40.2198 9.26799 40.1979 9.25002 40.1826 9.22697C40.1672 9.20393 40.159 9.17684 40.159 9.14914C40.1592 9.11207 40.174 9.07657 40.2002 9.05036C40.2265 9.02416 40.262 9.00937 40.299 9.00922Z" fill="#525A68"/>
<path d="M58.1477 9.44971C57.8972 9.44971 57.6524 9.52398 57.4441 9.66313C57.2359 9.80228 57.0736 10.0001 56.9777 10.2315C56.8819 10.4629 56.8568 10.7175 56.9057 10.9631C56.9546 11.2088 57.0752 11.4344 57.2523 11.6115C57.4294 11.7886 57.6551 11.9092 57.9007 11.958C58.1464 12.0069 58.401 11.9818 58.6324 11.8859C58.8638 11.7901 59.0615 11.6277 59.2007 11.4195C59.3398 11.2112 59.414 10.9664 59.414 10.7159C59.4136 10.3802 59.2801 10.0583 59.0427 9.82094C58.8053 9.58356 58.4834 9.45005 58.1477 9.44971ZM58.1477 10.856C58.12 10.856 58.0929 10.8477 58.0699 10.8324C58.0469 10.817 58.0289 10.7951 58.0183 10.7695C58.0077 10.7439 58.0049 10.7158 58.0103 10.6886C58.0157 10.6614 58.0291 10.6365 58.0487 10.6169C58.0682 10.5973 58.0932 10.584 58.1204 10.5786C58.1475 10.5732 58.1757 10.5759 58.2013 10.5865C58.2269 10.5971 58.2487 10.6151 58.2641 10.6381C58.2795 10.6611 58.2877 10.6882 58.2877 10.7159C58.2876 10.753 58.2728 10.7885 58.2465 10.8148C58.2203 10.841 58.1848 10.8558 58.1477 10.856Z" fill="#525A68"/>
<path d="M29.8178 26.2536C29.8178 26.0031 29.7435 25.7583 29.6043 25.55C29.4652 25.3418 29.2674 25.1795 29.0359 25.0836C28.8045 24.9878 28.5498 24.9628 28.3042 25.0117C28.0585 25.0606 27.8329 25.1813 27.6558 25.3585C27.4787 25.5356 27.3582 25.7613 27.3094 26.007C27.2606 26.2527 27.2858 26.5073 27.3818 26.7387C27.4777 26.9701 27.6401 27.1678 27.8485 27.3069C28.0568 27.4459 28.3017 27.5201 28.5522 27.52C28.8878 27.5194 29.2095 27.3858 29.4468 27.1484C29.684 26.911 29.8175 26.5893 29.8178 26.2536ZM28.5522 26.3943C28.5245 26.3943 28.4974 26.3861 28.4744 26.3708C28.4514 26.3554 28.4334 26.3336 28.4228 26.308C28.4121 26.2825 28.4093 26.2543 28.4147 26.2272C28.42 26.2 28.4333 26.1751 28.4528 26.1554C28.4723 26.1358 28.4972 26.1224 28.5243 26.117C28.5515 26.1115 28.5796 26.1142 28.6052 26.1247C28.6308 26.1352 28.6528 26.153 28.6682 26.176C28.6837 26.1989 28.692 26.226 28.6921 26.2536C28.692 26.2908 28.6771 26.3264 28.6508 26.3526C28.6244 26.3789 28.5888 26.3936 28.5516 26.3937L28.5522 26.3943Z" fill="#525A68"/>
<path d="M56.0622 27.0479C55.8118 27.0479 55.5669 27.1221 55.3587 27.2613C55.1504 27.4004 54.9881 27.5982 54.8923 27.8296C54.7964 28.061 54.7714 28.3156 54.8202 28.5612C54.8691 28.8069 54.9897 29.0325 55.1668 29.2096C55.3439 29.3867 55.5695 29.5073 55.8152 29.5562C56.0608 29.605 56.3154 29.58 56.5468 29.4841C56.7782 29.3883 56.976 29.226 57.1151 29.0177C57.2543 28.8095 57.3286 28.5646 57.3286 28.3142C57.3282 27.9784 57.1946 27.6566 56.9572 27.4192C56.7198 27.1818 56.398 27.0482 56.0622 27.0479ZM56.0622 28.4541C56.0346 28.4541 56.0075 28.4459 55.9845 28.4305C55.9615 28.4151 55.9436 28.3932 55.933 28.3676C55.9225 28.3421 55.9197 28.3139 55.9251 28.2868C55.9305 28.2597 55.9439 28.2348 55.9634 28.2152C55.983 28.1956 56.0079 28.1823 56.0351 28.1769C56.0622 28.1715 56.0904 28.1743 56.1159 28.1849C56.1415 28.1955 56.1633 28.2134 56.1787 28.2365C56.1941 28.2595 56.2023 28.2865 56.2023 28.3142C56.2021 28.3513 56.1873 28.3868 56.161 28.413C56.1348 28.4392 56.0993 28.4539 56.0622 28.4541Z" fill="#525A68"/>
</svg>
