<svg width="60" height="60" viewBox="0 0 60 60" fill="none" xmlns="http://www.w3.org/2000/svg">
<g clip-path="url(#clip0)">
<path d="M1.17188 20.3906H58.8281V26.9531H1.17188V20.3906Z" fill="#FFDE55"/>
<path d="M1.17188 39.1406H58.8281V45.7031H1.17188V39.1406Z" fill="#FFDE55"/>
<path d="M36.5625 55.6641H23.4375V10.8789L30 4.33594L36.5625 10.8789V55.6641Z" fill="#FFC80A"/>
<path d="M14.2969 55.6641H1.17188V10.8789L7.73438 4.33594L14.2969 10.8789V55.6641Z" fill="#FFC80A"/>
<path d="M45.7031 55.6641H58.8281V10.8789L52.2656 4.33594L45.7031 10.8789V55.6641Z" fill="#FFC80A"/>
<path d="M59.6555 10.0491L53.093 3.50613C52.6356 3.05004 51.8955 3.05004 51.4382 3.50613L44.8757 10.0491C44.6551 10.2689 44.5311 10.5675 44.5311 10.879V19.2188H37.7343V10.879C37.7343 10.5676 37.6103 10.2689 37.3897 10.0491L30.8272 3.50613C30.3698 3.05004 29.6298 3.05004 29.1724 3.50613L22.6099 10.0491C22.3894 10.2689 22.2655 10.5675 22.2655 10.879V19.2188H15.4686V10.879C15.4686 10.5676 15.3446 10.2689 15.1241 10.0491L8.5616 3.50613C8.10422 3.05004 7.36418 3.05004 6.9068 3.50613L0.344297 10.0491C0.123984 10.2689 0 10.5675 0 10.879V55.6641C0 56.3113 0.524648 56.8359 1.17188 56.8359H14.2969C14.9441 56.8359 15.4688 56.3113 15.4688 55.6641V46.875H22.2656V55.6641C22.2656 56.3113 22.7903 56.8359 23.4375 56.8359H36.5625C37.2097 56.8359 37.7344 56.3113 37.7344 55.6641V46.875H44.5312V55.6641C44.5312 56.3113 45.0559 56.8359 45.7031 56.8359H58.8281C59.4754 56.8359 60 56.3113 60 55.6641V35.2736C60 34.6263 59.4754 34.1017 58.8281 34.1017C58.1809 34.1017 57.6562 34.6263 57.6562 35.2736V54.4922H46.875V11.3653L52.2656 5.99074L57.6562 11.3653V24.7266C57.6562 25.3738 58.1809 25.8984 58.8281 25.8984C59.4754 25.8984 60 25.3738 60 24.7266V10.879C60 10.5675 59.876 10.2689 59.6555 10.0491ZM37.7344 28.125H44.5312V37.9688H37.7344V28.125ZM44.5312 21.5625V25.7812H37.7344V21.5625H44.5312ZM15.4688 28.125H22.2656V37.9688H15.4688V28.125ZM22.2656 21.5625V25.7812H15.4688V21.5625H22.2656ZM13.125 54.4922H2.34375V11.3653L7.73438 5.99074L13.125 11.3653V54.4922ZM15.4688 44.5312V40.3125H22.2656V44.5312H15.4688ZM35.3906 54.4922H24.6094V11.3653L30 5.99074L35.3906 11.3653V54.4922ZM37.7344 44.5312V40.3125H44.5312V44.5312H37.7344Z" fill="#525A68"/>
<path d="M7.73438 22.5957C7.42617 22.5957 7.12383 22.7199 6.90586 22.9379C6.68789 23.157 6.5625 23.4582 6.5625 23.7676C6.5625 24.0758 6.68789 24.377 6.90586 24.5961C7.12383 24.8141 7.42617 24.9395 7.73438 24.9395C8.04258 24.9395 8.34492 24.8141 8.56289 24.5961C8.78086 24.377 8.90625 24.0758 8.90625 23.7676C8.90625 23.4582 8.78086 23.1559 8.56289 22.9379C8.34492 22.7199 8.04258 22.5957 7.73438 22.5957Z" fill="#525A68"/>
<path d="M30 22.5957C29.6918 22.5957 29.3895 22.7199 29.1715 22.9379C28.9535 23.157 28.8281 23.4582 28.8281 23.7664C28.8281 24.0758 28.9535 24.3781 29.1715 24.596C29.3895 24.8139 29.6918 24.9383 30 24.9383C30.3082 24.9383 30.6105 24.8141 30.8285 24.596C31.0465 24.378 31.1719 24.0757 31.1719 23.7664C31.1719 23.4582 31.0465 23.157 30.8285 22.9379C30.6105 22.7199 30.3082 22.5957 30 22.5957Z" fill="#525A68"/>
<path d="M53.0941 22.9379C52.8762 22.7199 52.5738 22.5957 52.2656 22.5957C51.9574 22.5957 51.6551 22.7199 51.4371 22.9379C51.2191 23.1559 51.0938 23.4582 51.0938 23.7676C51.0938 24.0758 51.2191 24.3781 51.4371 24.5961C51.6551 24.8141 51.9574 24.9395 52.2656 24.9395C52.5738 24.9395 52.8762 24.8141 53.0941 24.5961C53.3121 24.377 53.4375 24.0758 53.4375 23.7676C53.4375 23.4582 53.3121 23.157 53.0941 22.9379Z" fill="#525A68"/>
<path d="M7.73438 41.25C7.42617 41.25 7.12383 41.3754 6.90586 41.5934C6.68789 41.8113 6.5625 42.1137 6.5625 42.4219C6.5625 42.7301 6.68789 43.0324 6.90586 43.2504C7.12383 43.4684 7.42617 43.5938 7.73438 43.5938C8.04258 43.5938 8.34492 43.4684 8.56289 43.2504C8.78086 43.0324 8.90625 42.7301 8.90625 42.4219C8.90625 42.1137 8.78086 41.8113 8.56289 41.5934C8.34492 41.3754 8.04258 41.25 7.73438 41.25Z" fill="#525A68"/>
<path d="M30 41.25C29.6918 41.25 29.3895 41.3754 29.1715 41.5934C28.9535 41.8113 28.8281 42.1137 28.8281 42.4219C28.8281 42.7301 28.9535 43.0324 29.1715 43.2504C29.3895 43.4684 29.6918 43.5938 30 43.5938C30.3082 43.5938 30.6105 43.4684 30.8285 43.2504C31.0465 43.0324 31.1719 42.7301 31.1719 42.4219C31.1719 42.1137 31.0465 41.8113 30.8285 41.5934C30.6105 41.3754 30.3082 41.25 30 41.25Z" fill="#525A68"/>
<path d="M52.2656 41.25C51.9574 41.25 51.6551 41.3754 51.4371 41.5934C51.2191 41.8113 51.0938 42.1137 51.0938 42.4219C51.0938 42.7301 51.2191 43.0324 51.4371 43.2504C51.6551 43.4684 51.9574 43.5938 52.2656 43.5938C52.5738 43.5938 52.8762 43.4684 53.0941 43.2504C53.3121 43.0324 53.4375 42.7301 53.4375 42.4219C53.4375 42.1137 53.3121 41.8113 53.0941 41.5934C52.8762 41.3754 52.5738 41.25 52.2656 41.25Z" fill="#525A68"/>
<path d="M58.8281 28.8281C58.5199 28.8281 58.2176 28.9535 57.9996 29.1715C57.7816 29.3895 57.6562 29.6918 57.6562 30C57.6562 30.3082 57.7816 30.6105 57.9996 30.8285C58.2176 31.0465 58.5199 31.1719 58.8281 31.1719C59.1363 31.1719 59.4387 31.0465 59.6566 30.8285C59.8746 30.6105 60 30.3082 60 30C60 29.6918 59.8746 29.3895 59.6566 29.1715C59.4387 28.9535 59.1363 28.8281 58.8281 28.8281Z" fill="#525A68"/>
</g>
<defs>
<clipPath id="clip0">
<rect width="60" height="60" fill="white"/>
</clipPath>
</defs>
</svg>
