<svg width="60" height="60" fill="none" xmlns="http://www.w3.org/2000/svg"><g clip-path="url(#clip0)"><path d="M33.725 20.546H9.29a3.035 3.035 0 01-3.035-3.035V4.207A3.035 3.035 0 019.29 1.172h37.875A3.035 3.035 0 0150.2 4.207V17.51a3.035 3.035 0 01-3.035 3.036h-3.202M30.836 33.968h-5.4l-1.918 6.204h9.237l-1.919-6.203zm-7.318 6.205v14.036a4.619 4.619 0 109.237 0V40.173h-9.237z" fill="#fff"/><path d="M23.215 1.172H9.289a3.035 3.035 0 00-3.035 3.035v9.265a2.827 2.827 0 105.654 0v-1.48a2.827 2.827 0 105.653 0v6.599a2.827 2.827 0 105.654 0" fill="#FFDD4D"/><path d="M23.215 13.033v8.092a2.827 2.827 0 005.654 0V1.172h-5.654" fill="#FFC80A"/><path d="M6.255 14.536H5.1a3.214 3.214 0 010-6.429h1.154v6.429zm43.946-6.429h1.154a3.214 3.214 0 010 6.43H50.2v-6.43z" fill="#fff"/><path d="M58.113 10.15H55.58a4.394 4.394 0 00-4.208-3.214V4.207A4.212 4.212 0 0047.165 0H9.289a4.212 4.212 0 00-4.206 4.207v2.729a4.391 4.391 0 00-4.368 4.386 4.39 4.39 0 004.368 4.386v1.803a4.212 4.212 0 004.206 4.207h8.609a3.98 3.98 0 002.49.872c.645 0 1.253-.153 1.793-.425a4.006 4.006 0 003.861 2.96 4.005 4.005 0 003.955-3.407h3.729a1.172 1.172 0 100-2.344H30.04V2.344h17.124c1.027 0 1.863.836 1.863 1.863V17.51a1.865 1.865 0 01-1.863 1.864h-3.202a1.172 1.172 0 100 2.344h3.202a4.212 4.212 0 004.207-4.207v-1.803a4.394 4.394 0 004.209-3.214h1.36v10.01a3.167 3.167 0 01-3.163 3.164H28.135c-.647 0-1.172.525-1.172 1.172v5.957h-1.528c-.514 0-.968.334-1.12.825l-1.911 6.182a1.163 1.163 0 00-.054.255l-.002.022v.005l-.002.026a1.256 1.256 0 00-.001.07V54.21a5.797 5.797 0 005.79 5.79 5.797 5.797 0 005.79-5.79V40.181l-.001-.07-.002-.026v-.005l-.002-.022-.001-.013v-.003a1.162 1.162 0 00-.052-.239l-1.912-6.182a1.172 1.172 0 00-1.12-.825h-1.528v-4.785h24.471a5.513 5.513 0 005.507-5.508V11.322c0-.647-.525-1.172-1.172-1.172zM3.059 11.322c0-1.12.906-2.033 2.024-2.043v4.085a2.045 2.045 0 01-2.024-2.042zm4.367 6.189v-.399a4.002 4.002 0 005.173-1.74 3.976 3.976 0 002.136.619c.59 0 1.15-.129 1.655-.36v2.96c0 .268.027.53.077.783H9.289a1.865 1.865 0 01-1.863-1.863zm20.271 3.614c0 .913-.742 1.655-1.655 1.655a1.657 1.657 0 01-1.655-1.655v-8.092a1.172 1.172 0 10-2.343 0v5.558c0 .912-.743 1.655-1.655 1.655a1.657 1.657 0 01-1.655-1.655v-6.6a1.172 1.172 0 00-2.344 0c0 .914-.742 1.656-1.655 1.656a1.657 1.657 0 01-1.655-1.655 1.172 1.172 0 00-2.344 0v1.48c0 .912-.742 1.655-1.655 1.655a1.657 1.657 0 01-1.655-1.655V4.207c0-1.027.836-1.863 1.863-1.863h18.408v18.781zm23.675-7.76V9.278a2.045 2.045 0 012.024 2.043c0 1.12-.907 2.032-2.024 2.042zm-19.79 40.844a3.45 3.45 0 01-3.447 3.447 3.45 3.45 0 01-3.447-3.447V41.344h6.894V54.21zm-.417-15.208h-6.06l1.194-3.86h3.672L31.165 39z" fill="#525A68"/><path d="M38.934 21.717c-.92.016-1.496-1.066-.975-1.822.496-.772 1.722-.654 2.056.203.333.735-.274 1.644-1.081 1.62zM28.135 55.12a1.172 1.172 0 01-1.172-1.172v-2.223a1.172 1.172 0 012.344 0v2.223c0 .647-.525 1.172-1.172 1.172z" fill="#525A68"/></g><defs><clipPath id="clip0"><path fill="#fff" d="M0 0h60v60H0z"/></clipPath></defs></svg>