<svg width="60" height="60" fill="none" xmlns="http://www.w3.org/2000/svg"><path d="M47.42 13.548H35.806V5.806h11.612v7.742z" fill="#FFC80A"/><path d="M42.58 15.484h-1.935v1.935h1.935v-1.935zm3.871 0h-1.935v1.935h1.935v-1.935zm-7.742 0h-1.936v1.935h1.936v-1.935z" fill="#525A68"/><path d="M59.549 55.16l-8.386-12.58h1.095c1.6 0 2.903-1.302 2.903-2.903V26.136c0-2.82-1.74-5.282-4.28-6.289.254-.43.41-.925.41-1.46V4.84A4.844 4.844 0 0046.45 0h-9.677a4.844 4.844 0 00-4.838 4.839v13.548c0 .535.155 1.03.408 1.46a6.767 6.767 0 00-4.28 6.289v11.606H30v-5.806h1.73a3.634 3.634 0 00-.13.439l-1.569 6.094 1.875.482 1.576-6.125a2.024 2.024 0 011.33-1.474 2.02 2.02 0 011.673.184l3.323 1.993a2.68 2.68 0 00-.13.79c0 .532.155 1.047.45 1.49l.367.55a3.84 3.84 0 00-.68 1.383h-6.912v1.935h6.912c.432 1.666 1.935 2.904 3.733 2.904h1.096l2.58 3.87H33.872v1.936h14.644l2.775 4.164v5.514h-3.87v-5.807H15.483v-3.87h8.71v-1.936h-8.71V23.226a1.937 1.937 0 001.935-1.936v-1.935h3.871c0 1.067.868 1.935 1.936 1.935h1.935a1.937 1.937 0 001.936-1.935v-5.807a1.937 1.937 0 00-1.936-1.935h-1.935a1.937 1.937 0 00-1.936 1.935h-3.87v-1.935a1.937 1.937 0 00-1.936-1.936V0H1.935v9.677A1.937 1.937 0 000 11.613v9.677c0 1.068.868 1.936 1.935 1.936V60h13.549v-5.806h30V60h7.742v-4.545l1.772 2.657c.33.493.821.869 1.468 1.086a2.66 2.66 0 002.42-.37A2.66 2.66 0 0060 56.648c0-.532-.156-1.046-.451-1.489zM23.226 13.547h1.935l.001 5.807h-1.936v-5.807zm-1.936 1.936v1.935h-3.87v-1.935h3.87zM3.871 1.935h9.677v7.742H3.871V1.935zm-1.936 9.678h13.549v9.677H1.936v-9.677zm1.936 46.451V23.226h9.677v34.839H3.871zm49.355-31.928v4.832h-3.871v-9.573a4.838 4.838 0 013.87 4.74zM33.87 4.839c0-1.6 1.302-2.904 2.903-2.904h9.678c1.6 0 2.903 1.303 2.903 2.904v13.548a.97.97 0 01-.968.968H34.84a.97.97 0 01-.968-.968V4.84zm9.677 16.451a1.937 1.937 0 01-1.935 1.936 1.937 1.937 0 01-1.936-1.936h3.871zM30 26.136a4.832 4.832 0 013.871-4.733v8.246c-.224.098-.44.214-.64.35H30v-3.863zm5.806 3.2V21.29h1.936a3.875 3.875 0 003.87 3.871 3.875 3.875 0 003.872-3.87h1.935v13.548h-1.416l-1.322-1.983c-.33-.494-.822-.87-1.468-1.086a2.64 2.64 0 00-2.18.237l-3.551-2.13a3.967 3.967 0 00-1.676-.54zm6.214 5.82l-.28-.42a.748.748 0 01.185-1.026c.199-.143.444-.18.76-.075a.756.756 0 01.386.296l.605.908h-.128a3.84 3.84 0 00-1.528.317zm-.407 3.554c0-1.068.868-1.936 1.935-1.936h5.807v-3.87h3.87v6.773a.969.969 0 01-.967.968h-8.71a1.937 1.937 0 01-1.935-1.935zm16.14 18.547c-.199.144-.443.181-.759.076a.756.756 0 01-.387-.296L46.97 42.58h1.867l9.102 13.652a.748.748 0 01.125.416.737.737 0 01-.31.608z" fill="#525A68"/><path d="M29.034 53.08l-2.066-5.51-5.358 2.436 2.437-5.358-5.512-2.067 5.51-2.067-2.436-5.358 5.358 2.437 2.067-5.512 2.066 5.51 5.359-2.436-2.437 5.358 5.511 2.068-5.51 2.066 2.437 5.358-5.359-2.437-2.067 5.512zm-.981-8.131l.981 2.616.982-2.616 2.544 1.156-1.157-2.544 2.616-.98-2.617-.982 1.157-2.544-2.544 1.157-.98-2.616-.982 2.617-2.544-1.157 1.156 2.544-2.616.98 2.617.982-1.156 2.544 2.543-1.157z" fill="#FFC80A"/></svg>