<svg width="60" height="60" fill="none" xmlns="http://www.w3.org/2000/svg"><path d="M9.44 41.955h.177V1.173A8.437 8.437 0 001.18 9.609v40.782c.001-4.561 3.695-8.342 8.26-8.436z" fill="#FFC80A"/><path d="M58.821 12.383H9.617v29.572c-4.58.094-8.462 3.9-8.437 8.482a8.438 8.438 0 008.437 8.391h49.204V12.383z" fill="#fff"/><path d="M19.219 24.824h23.437v6.563H19.22v-6.563zm0 6.563h5.625v15h-5.625v-15zm23.437 15h-5.625v-15h5.625v15z" fill="#fff"/><path d="M52.258 37.292h6.562V4.453a3.281 3.281 0 10-6.562 0v32.839z" fill="#FFC80A"/><path d="M52.258 7.547V4.453a3.281 3.281 0 016.562 0v3.094h-6.562zm0 29.745l3.281 8.88 3.281-8.88h-6.562z" fill="#fff"/><path d="M59.993 4.453A4.458 4.458 0 0055.54 0a4.458 4.458 0 00-4.453 4.453v6.758H36.21a1.172 1.172 0 100 2.344h14.876v23.737c0 .138.024.276.072.406l3.282 8.88a1.172 1.172 0 002.198 0l1.01-2.734v13.812H9.617c-3.985 0-7.244-3.241-7.265-7.226-.021-3.877 3.317-7.222 7.29-7.303a1.172 1.172 0 001.147-1.171V13.555h14.876a1.172 1.172 0 100-2.344H10.789V1.171A1.172 1.172 0 009.617 0C4.32 0 .007 4.31.007 9.61v40.78l.002.017-.001.036C.036 55.713 4.347 60 9.618 60H58.82c.647 0 1.172-.525 1.172-1.172V4.453zM2.352 9.61c0-3.607 2.642-6.609 6.093-7.17v38.436a9.85 9.85 0 00-6.093 3.34V9.609zm51.079-.894h4.218V36.12h-4.218V8.715zm2.109-6.371c1.163 0 2.11.946 2.11 2.11v1.918h-4.22v-1.92c0-1.163.947-2.11 2.11-2.11zm0 40.447l-1.599-4.327h3.198l-1.6 4.327z" fill="#525A68"/><path d="M37.031 47.559h5.625c.648 0 1.172-.525 1.172-1.172V24.824c0-.647-.525-1.172-1.172-1.172H19.22c-.648 0-1.172.525-1.172 1.172v21.563c0 .647.524 1.172 1.172 1.172h5.625c.647 0 1.172-.525 1.172-1.172v-8.188h9.843v8.188c0 .647.525 1.172 1.172 1.172zm4.453-2.344h-3.28V32.559h3.28v12.656zM20.391 25.996h21.093v4.219H20.391v-4.219zm3.28 19.219h-3.28V32.559h3.28v12.656zm2.345-9.36v-3.296h9.843v3.296h-9.843zm4.922-22.3c.308 0 .61-.125.828-.343a1.18 1.18 0 00.343-.829c0-.31-.125-.61-.343-.83a1.18 1.18 0 00-.828-.342 1.18 1.18 0 00-.829.343c-.218.219-.343.52-.343.83 0 .307.125.61.343.828.218.218.52.343.828.343z" fill="#525A68"/></svg>