<svg width="60" height="60" fill="none" xmlns="http://www.w3.org/2000/svg"><path d="M57.188 2.813v46.874l-7.5 7.5H2.812V10.313l7.5-7.5h46.876z" fill="#fff"/><path d="M35.625 39.375l3.75-3.75v-15h-15l-3.75 3.75v15h15z" fill="#FFCC4D"/><path d="M57.188 2.813v46.874l-7.5 7.5V10.313l7.5-7.5zm-7.5 7.5H2.812l7.5-7.5h46.876l-7.5 7.5z" fill="#fff"/><path d="M57.188 1.875H10.312a.937.937 0 00-.662.275l-7.5 7.5a.935.935 0 00-.275.662v46.876a.938.938 0 00.938.937h46.874a.934.934 0 00.664-.275l7.5-7.5a.936.936 0 00.274-.663V2.813a.936.936 0 00-.938-.938zM48.75 48.75h-4.53l-7.343-9.302 2.571-2.57 9.302 7.343v4.529zm1.875-3.049l3.862 3.049h-3.862v-3.049zM11.25 11.25h4.53l7.343 9.302-2.571 2.57-9.302-7.343V11.25zm-1.875 3.049L5.513 11.25h3.862v3.049zm1.875-4.924V5.513l3.049 3.862H11.25zm25.313 15.388l1.874-1.875v12.349l-1.874 1.875V24.763zm2.424-5.076H24.829l-6.66-8.437h29.255l-8.437 8.438zm-17.425 5.625h13.125v13.125H21.563V25.313zm1.326-1.875l1.875-1.875h12.349l-1.875 1.875H22.888zm17.424 11.734V21.013l8.438-8.437v29.256l-8.438-6.661zM49.3 9.375H16.688l-4.44-5.625h42.676L49.3 9.375zm-39.924 0h-4.3l4.3-4.3v4.3zM3.75 12.247l5.625 4.44v3.938h1.875v-2.457l8.438 6.661v14.158l-8.438 8.437V45H9.375v4.3L3.75 54.923V12.247zm6.95 38.378H15V48.75h-2.424l8.437-8.438h14.158l6.66 8.438h-2.456v1.875h3.937l4.44 5.625H5.077l5.625-5.625zm35.001 0h3.049v3.862l-3.049-3.862zm4.924 0h4.3l-4.3 4.3v-4.3zm0-7.313V10.701l5.625-5.625v42.677l-5.625-4.44z" fill="#525A68"/><path d="M16.875 48.75h1.875v1.875h-1.875V48.75zm3.75 0H22.5v1.875h-1.875V48.75zm3.75 0h1.875v1.875h-1.875V48.75zm3.75 0H30v1.875h-1.875V48.75zm3.75 0h1.875v1.875h-1.875V48.75zm3.75 0H37.5v1.875h-1.875V48.75zm-26.25-7.5h1.875v1.875H9.375V41.25zm0-3.75h1.875v1.875H9.375V37.5zm0-3.75h1.875v1.875H9.375V33.75zm0-3.75h1.875v1.875H9.375V30zm0-3.75h1.875v1.875H9.375V26.25zm0-3.75h1.875v1.875H9.375V22.5z" fill="#525A68"/></svg>