<svg width="60" height="60" fill="none" xmlns="http://www.w3.org/2000/svg"><path d="M49.687 17.813a.938.938 0 01-.937.937h-5.541a5.615 5.615 0 005.54 4.688c2.485 0 10.313-2.054 10.313-5.625 0-3.572-7.828-5.625-10.312-5.625a5.616 5.616 0 00-5.541 4.687h5.54a.937.937 0 01.938.938z" fill="#FFC80A"/><path d="M48.75 32.813h.938v-4.688a2.812 2.812 0 00-2.813-2.813H41.25v-5.625a.938.938 0 01.938-.937h1.021a5.25 5.25 0 010-1.875h-1.022a2.821 2.821 0 00-2.812 2.813v5.625H33.75a2.812 2.812 0 00-2.813 2.812v4.688H48.75zm10.313 11.25a3.742 3.742 0 00-3.356-3.71 3.728 3.728 0 00-3.207-5.665H30.562a2.807 2.807 0 00-1.56.468l-3.69 2.468V37.5a2.812 2.812 0 00-2.812-2.812h-3.75a2.813 2.813 0 00-2.813 2.812v19.688a1.875 1.875 0 001.876 1.874h5.625a1.875 1.875 0 001.875-1.874v-1.062l3.695 2.468a2.8 2.8 0 001.555.468h20.062a3.75 3.75 0 003.75-3.75 3.712 3.712 0 00-.521-1.874h.521a3.75 3.75 0 003.75-3.75 3.712 3.712 0 00-.905-2.415 3.739 3.739 0 001.843-3.21zm-41.25 13.124V37.5a.938.938 0 01.937-.937h3.75a.937.937 0 01.938.937v19.688h-5.625z" fill="#FFC80A"/><path d="M39.375 30.938v-11.25h1.875a2.812 2.812 0 002.813-2.813V11.25a2.812 2.812 0 00-2.813-2.813h-1.875V3.75A2.812 2.812 0 0036.562.937H12.189A2.812 2.812 0 009.374 3.75v4.688H7.5a2.813 2.813 0 00-2.813 2.812v5.625A2.812 2.812 0 007.5 19.688h1.875v11.25a8.447 8.447 0 00-8.438 8.437V45a2.812 2.812 0 002.813 2.813H45A2.812 2.812 0 0047.813 45v-5.625a8.447 8.447 0 00-8.438-8.438zM11.25 8.438H37.5v23.437a6.57 6.57 0 01-6.563 6.563H17.813a6.57 6.57 0 01-6.562-6.563V8.437zm30 1.874a.938.938 0 01.938.938v5.625a.938.938 0 01-.938.938h-1.875v-7.5h1.875zm-29.063-7.5h24.376a.937.937 0 01.937.938v2.813H11.25V3.75a.938.938 0 01.938-.938zm-4.687 15a.938.938 0 01-.938-.937V11.25a.937.937 0 01.938-.938h1.875v7.5H7.5zM45.938 45a.938.938 0 01-.938.938H3.75A.938.938 0 012.812 45v-5.625a6.57 6.57 0 016.563-6.563.514.514 0 00.053-.01 8.447 8.447 0 008.384 7.51h13.125a8.448 8.448 0 008.385-7.51.512.512 0 00.053.01 6.57 6.57 0 016.563 6.563V45z" fill="#525A68"/><path d="M16.875 24.375h15a2.812 2.812 0 002.813-2.813v-7.5a2.812 2.812 0 00-2.813-2.812h-15a2.812 2.812 0 00-2.813 2.813v7.5a2.812 2.812 0 002.813 2.812zm-.938-10.313a.938.938 0 01.938-.937h15a.938.938 0 01.938.938v7.5a.938.938 0 01-.938.937h-15a.938.938 0 01-.938-.938v-7.5z" fill="#525A68"/></svg>