<svg width="60" height="60" fill="none" xmlns="http://www.w3.org/2000/svg"><path d="M44.041 18.58l-.429.18a19.877 19.877 0 00-10.849 11.225h-5.555A19.878 19.878 0 0016.36 18.76l-.43-.181h28.112zm-5.639 24.403l-.441-.44a17.736 17.736 0 01-5.198-12.545h-5.555c0 4.705-1.87 9.218-5.199 12.545l-.44.44h16.833z" fill="#FFC80A"/><path d="M48.633 14.187c0-3.701-8.343-6.702-18.633-6.702s-18.633 3-18.633 6.702c0 3.701 8.342 6.701 18.633 6.701 10.29 0 18.633-3 18.633-6.702zM35.54 39.185c7.586.849 13.093 3.393 13.093 6.4 0 3.702-8.343 6.702-18.633 6.702s-18.633-3-18.633-6.701c0-2.998 5.473-5.536 13.02-6.393" fill="#FFC80A"/><path d="M12.84 30.813a1.18 1.18 0 00.344-.829c0-.308-.126-.61-.344-.828a1.181 1.181 0 00-.828-.343c-.308 0-.61.125-.829.343a1.18 1.18 0 00-.343.828 1.175 1.175 0 002 .828zm-5.985-2H1.172a1.172 1.172 0 000 2.344h5.683a1.172 1.172 0 100-2.344z" fill="#525A68"/><path d="M59.657 29.171l-2.992-2.992a1.172 1.172 0 00-1.657 1.658l.976.977h-21.43a18.808 18.808 0 019.455-8.948c4.775-1.826 5.796-4.085 5.796-5.68 0-1.641-1.082-3.988-6.233-5.841-3.367-1.21-7.74-1.918-12.415-2.02V3.987l1.006 1.006a1.168 1.168 0 001.658 0c.457-.457.457-1.2 0-1.657L30.829.343a1.172 1.172 0 00-1.658 0L26.18 3.335a1.171 1.171 0 101.657 1.657l.976-.976v2.31c-4.665.104-9.025.811-12.385 2.019-5.151 1.853-6.233 4.2-6.233 5.842 0 1.543.957 3.71 5.35 5.502l.359.151a18.808 18.808 0 019.512 8.973H16.7a1.172 1.172 0 100 2.344h9.296a16.42 16.42 0 01-2.05 6.91c-3.748.45-6.996 1.3-9.407 2.464-3.59 1.733-4.343 3.706-4.343 5.055 0 1.642 1.082 3.988 6.233 5.842 3.36 1.208 7.72 1.915 12.385 2.018v5.382a1.172 1.172 0 002.344 0v-5.382c4.676-.1 9.048-.808 12.415-2.019 5.151-1.853 6.233-4.2 6.233-5.841 0-1.354-.758-3.33-4.366-5.066-2.417-1.163-5.668-2.01-9.416-2.457a16.417 16.417 0 01-2.048-6.906h22.039l-1.006 1.006a1.172 1.172 0 001.657 1.658l2.992-2.992c.457-.458.457-1.2 0-1.658zM47.46 14.187c0 1.03-1.326 2.243-3.755 3.27-.04.012-.08.026-.12.043l-.37.155c-2.812 1.095-6.927 1.937-12.059 2.048V8.67c10.132.22 16.304 3.29 16.304 5.517zm-34.922 0c0-2.224 6.16-5.292 16.274-5.516v11.032c-10.115-.225-16.274-3.293-16.274-5.516zm10.31 7.375c1.89.275 3.901.44 5.973.485a1.172 1.172 0 002.326 0 49.36 49.36 0 005.968-.48 21.14 21.14 0 00-5.141 7.246h-1.46a1.17 1.17 0 00.642-1.045v-1.172a1.172 1.172 0 00-2.344 0v1.172c0 .457.262.852.643 1.045h-1.46a21.134 21.134 0 00-5.148-7.251zM47.46 45.586c0 2.225-6.172 5.297-16.304 5.516v-1.068a1.172 1.172 0 00-2.344 0v1.068c-10.115-.225-16.274-3.293-16.274-5.516 0-1.688 3.533-3.827 9.572-4.882a17.09 17.09 0 01-.93 1.01l-.441.44a1.171 1.171 0 101.657 1.658l.44-.44a18.766 18.766 0 005.506-12.215h3.284a18.766 18.766 0 005.505 12.214l.441.441a1.168 1.168 0 001.657 0 1.17 1.17 0 000-1.657l-.44-.441a16.64 16.64 0 01-.936-1.017c6.061 1.053 9.607 3.194 9.607 4.889z" fill="#525A68"/><path d="M29.984 31.284c-.646 0-1.172.525-1.172 1.172v1.172a1.172 1.172 0 002.344 0v-1.172c0-.648-.524-1.172-1.172-1.172zm0 5.859c-.646 0-1.172.525-1.172 1.172v1.172a1.172 1.172 0 002.344 0v-1.172c0-.647-.524-1.172-1.172-1.172zm0 5.86c-.646 0-1.172.525-1.172 1.172v1.171a1.172 1.172 0 002.344 0v-1.171c0-.648-.524-1.172-1.172-1.172z" fill="#525A68"/></svg>