<svg width="20" height="20" viewBox="0 0 20 20" fill="none" xmlns="http://www.w3.org/2000/svg">
<path d="M9.16699 5.83335V7.50002H10.8337V5.83335H9.16699Z" fill="#525A68"/>
<path d="M9.16699 10.8334V14.1667H11.667V12.5H10.8337V9.16669H8.33366V10.8334H9.16699Z" fill="#525A68"/>
<path fill-rule="evenodd" clip-rule="evenodd" d="M10.0003 1.66669C5.40033 1.66669 1.66699 5.40002 1.66699 10C1.66699 14.6 5.40033 18.3334 10.0003 18.3334C14.6003 18.3334 18.3337 14.6 18.3337 10C18.3337 5.40002 14.6003 1.66669 10.0003 1.66669ZM3.33366 10C3.33366 13.675 6.32533 16.6667 10.0003 16.6667C13.6753 16.6667 16.667 13.675 16.667 10C16.667 6.32502 13.6753 3.33335 10.0003 3.33335C6.32533 3.33335 3.33366 6.32502 3.33366 10Z" fill="#525A68"/>
</svg>
