<svg width="30" height="30" fill="none" xmlns="http://www.w3.org/2000/svg"><path d="M19.29 18.461l-7.752 7.751v1.48a1.73 1.73 0 01-1.73 1.73h19.615v-10.96H19.289z" fill="#FFEEB4"/><path d="M15.962 21.79v7.633h6.73V18.461H19.29l-3.328 3.328z" fill="#FFC80A"/><path d="M29.423 18.461h-6.73v10.962h6.73V18.461z" fill="#DEAC00"/><path d="M11.539 26.212l16.47-16.47-7.752-7.75-8.718 8.719v15.501z" fill="#FFEEB4"/><path d="M15.498 6.751l-3.96 3.96v1.6l6.952 6.95 4.76-4.759-7.752-7.751z" fill="#FFC80A"/><path d="M15.498 6.751l7.75 7.751 4.76-4.76-7.75-7.75-4.76 4.76z" fill="#DEAC00"/><path d="M9.808 29.423h-7.5a1.73 1.73 0 01-1.731-1.73V.577h10.961v27.115a1.73 1.73 0 01-1.73 1.731z" fill="#FFF3E0"/><path d="M11.596.577H.635v6.731h10.961V.578z" fill="#DEAC00"/><path d="M11.538 7.308H.577v6.731h10.961V7.31z" fill="#FFC80A"/><path d="M11.538 14.038H.577v6.731h10.961v-6.73z" fill="#FFEEB4"/><path d="M5.77 23.654c-.955 0-1.731.776-1.731 1.73 0 .955.776 1.731 1.73 1.731.955 0 1.731-.776 1.731-1.73 0-.955-.776-1.731-1.73-1.731zm0 2.308a.578.578 0 110-1.156.578.578 0 010 1.155z" fill="#525A68"/><path d="M29.423 17.885h-8.74l7.733-7.734a.567.567 0 00.04-.043l.017-.025.016-.021a.539.539 0 00.022-.038l.006-.01a.542.542 0 00.02-.041l.005-.01.014-.04.005-.013.009-.037.004-.018.005-.033.003-.023c.002-.01.002-.022.002-.032l.001-.024-.001-.024c0-.01 0-.021-.002-.032 0-.008-.002-.015-.003-.023l-.005-.033-.004-.018-.01-.037c0-.004-.003-.009-.004-.013l-.015-.04c0-.003-.003-.007-.004-.01a.59.59 0 00-.02-.041c-.001-.004-.004-.007-.006-.01a.56.56 0 00-.022-.038l-.016-.021c-.006-.008-.011-.017-.018-.025a.569.569 0 00-.039-.043l-7.75-7.751a.583.583 0 00-.044-.04l-.024-.017-.021-.016a.585.585 0 00-.038-.022l-.01-.007a.585.585 0 00-.042-.019l-.01-.005a.539.539 0 00-.04-.014l-.013-.005-.037-.009-.018-.004-.033-.005-.023-.004-.032-.001-.024-.001h-.024l-.032.002-.023.004c-.01.001-.021.002-.032.005-.006 0-.012.003-.018.004a.535.535 0 00-.037.01c-.005 0-.009.003-.013.004a.62.62 0 00-.04.014l-.01.005a.554.554 0 00-.041.02c-.004.001-.007.004-.01.006a.559.559 0 00-.039.022l-.02.016c-.009.006-.017.011-.025.018a.589.589 0 00-.043.039L13.854 7.58l-1.739 1.738V.577A.577.577 0 0011.54 0H.577A.577.577 0 000 .577v27.115A2.31 2.31 0 002.308 30h27.115a.577.577 0 00.577-.577V18.462a.577.577 0 00-.577-.577zM16.313 6.75l3.944-3.943 6.935 6.935-3.943 3.943-6.935-6.935zm-.815.816l6.935 6.935-2.14 2.14-1.411 1.411-.393.392-6.374-6.374v-1.12l2.39-2.39.993-.993zM10.96 10.71v2.752H1.154V7.885h9.807v2.825zm-9.807 8.328h2.308a.577.577 0 000-1.153H1.154v-3.27h9.807v5.577H1.154v-1.154zm10.961 1.731v-7.066l5.559 5.558-5.559 5.559v-4.05zM1.154 1.154h9.807V6.73H1.154V1.154zm0 26.538v-6.346h9.807v6.346c0 .636-.517 1.154-1.153 1.154h-7.5a1.155 1.155 0 01-1.154-1.154zm10.662 1.134c.017-.029.032-.058.047-.088a2.257 2.257 0 00.072-.154l.008-.017a2.249 2.249 0 00.084-.243l.01-.037a2.25 2.25 0 00.032-.133l.002-.011a2.31 2.31 0 00.02-.125c.003-.013.004-.027.006-.041a1.76 1.76 0 00.01-.102l.004-.041c.002-.047.004-.094.004-.142v-1.24l3.27-3.27v5.664h-3.58c.005-.006.008-.013.011-.02zm4.722-6.798l2.36-2.359.63-.63h2.587v9.807H16.54v-6.818zm12.308 6.818H23.27v-9.808h3.27v2.885a.577.577 0 101.153 0V19.04h1.154v9.807z" fill="#525A68"/><path d="M5.513 17.982a.567.567 0 00-.208-.086.568.568 0 00-.433.086.55.55 0 00-.212.259.584.584 0 000 .44.564.564 0 00.125.188.582.582 0 00.728.072.55.55 0 00.212-.26.587.587 0 00.044-.22.581.581 0 00-.256-.479zm22.135 5.451a.564.564 0 00-.312-.312.568.568 0 00-.54.053.554.554 0 00-.213.26.542.542 0 00-.044.22.58.58 0 00.576.577.568.568 0 00.408-.17.581.581 0 00.125-.628z" fill="#525A68"/></svg>