<svg width="40" height="40" fill="none" xmlns="http://www.w3.org/2000/svg"><g clip-path="url(#clip0)"><path d="M21.636.586v4.867l-.055.073A3.839 3.839 0 0020 5.188c-.564 0-1.1.121-1.582.338l-.055-.073V.586h3.272z" fill="#fff"/><path d="M20 28.813a1.24 1.24 0 01-1.24-1.24v-1.177a1.24 1.24 0 012.48 0v1.178A1.24 1.24 0 0120 28.813z" fill="#FFC80A"/><path d="M12.002 36.583a1.54 1.54 0 01-1.123-1.865l6.088-24.525a1.54 1.54 0 012.988.742l-6.088 24.524a1.54 1.54 0 01-1.865 1.123z" fill="#fff"/><path d="M27.998 36.582a1.54 1.54 0 001.124-1.864l-6.088-24.525a1.54 1.54 0 00-2.988.742l6.088 24.524a1.54 1.54 0 001.864 1.123z" fill="#fff"/><path d="M20 12.885a3.849 3.849 0 100-7.697 3.849 3.849 0 000 7.697z" fill="#FFC80A"/><path d="M20.781 12.805a3.849 3.849 0 110-7.538 3.849 3.849 0 000 7.538z" fill="#FFC80A"/><path d="M20 10.44a1.404 1.404 0 100-2.807 1.404 1.404 0 000 2.808z" fill="#E0F9FF"/><path d="M20 10.44a1.404 1.404 0 100-2.807 1.404 1.404 0 000 2.808z" fill="#fff"/><path d="M20 11.026a1.992 1.992 0 01-1.99-1.99c0-1.097.893-1.99 1.99-1.99s1.99.893 1.99 1.99c0 1.098-.893 1.99-1.99 1.99zm0-2.808a.819.819 0 000 1.636.819.819 0 000-1.636z" fill="#525A68"/><path d="M28.688 36.93a2.128 2.128 0 001.002-2.353l-1.739-7.006h1.21a.586.586 0 100-1.172h-1.5l-3.78-15.219c.18-.325.32-.67.412-1.033a.586.586 0 10-1.134-.292c-.366 1.418-1.694 2.444-3.16 2.444a3.267 3.267 0 01-3.263-3.263A3.266 3.266 0 0120 5.774c1.278 0 2.445.752 2.973 1.916a.586.586 0 101.067-.485 4.436 4.436 0 00-1.818-2.004V.586A.586.586 0 0021.636 0h-3.272a.586.586 0 00-.586.586v4.615a4.435 4.435 0 00-2.213 3.835c0 .777.201 1.507.553 2.142l-1.67 6.726a.586.586 0 00.428.71c.296.07.533-.073.71-.428l1.453-5.852a4.43 4.43 0 001.726.96l-5.467 22.024c-.193.551-.578.783-1.155.695a.954.954 0 01-.696-1.154l3.523-14.193a.586.586 0 10-1.137-.282l-1.493 6.015h-1.501a.586.586 0 000 1.172h1.21l-1.74 7.006a2.128 2.128 0 001.003 2.353l-.582 2.343a.586.586 0 00.428.71c.295.07.532-.073.71-.428l.581-2.343c.916-.032 1.767-.729 1.986-1.612l1.994-8.03h1.732v.004c0 1.006.819 1.825 1.825 1.825a1.828 1.828 0 001.826-1.825v-.003h1.759l.969 3.902c.177.355.414.498.71.427a.586.586 0 00.427-.71l-4.442-17.895a4.41 4.41 0 001.727-.957l5.59 22.521a.954.954 0 01-.695 1.154c-.577.088-.962-.144-1.155-.695l-.41-1.648a.586.586 0 00-1.137.282l.41 1.648c.219.883 1.07 1.58 1.986 1.612l.581 2.343c.178.355.415.498.71.428a.586.586 0 00.428-.71l-.582-2.343zM18.95 1.172h2.1v3.557c-.7-.17-1.4-.17-2.1 0V1.172zm1.037 27.055a.654.654 0 01-.654-.653v-1.178a.654.654 0 011.307 0v1.178c0 .36-.293.653-.653.653zm1.825-1.828v-.003a1.828 1.828 0 00-1.825-1.826 1.828 1.828 0 00-1.826 1.826v.003H16.72l3.21-12.93c.047.002.094.002.14 0l3.21 12.93h-1.468z" fill="#525A68"/></g><defs><clipPath id="clip0"><path fill="#fff" d="M0 0h40v40H0z"/></clipPath></defs></svg>