<svg width="40" height="40" fill="none" xmlns="http://www.w3.org/2000/svg"><g clip-path="url(#clip0)"><path d="M20 4.323c-8.657 0-15.675 7.018-15.675 15.675S11.343 35.673 20 35.673s15.675-7.018 15.675-15.675S28.657 4.323 20 4.323zm0 28.085c-6.853 0-12.41-5.556-12.41-12.41 0-6.853 5.557-12.41 12.41-12.41s12.41 5.557 12.41 12.41c0 6.854-5.557 12.41-12.41 12.41z" fill="#FFDD4D"/><path d="M20 3.017c8.668 0 15.923 6.489 16.874 15.093l.15 1.352L40 16.485l-.923-.923-1.097 1.096C36.4 8.049 28.89 1.71 20 1.71c-.452 0-.908.017-1.354.05l.095 1.302c.415-.03.838-.045 1.26-.045zm0 33.963c-8.668 0-15.922-6.49-16.874-15.094l-.15-1.352L0 23.511l.924.923 1.096-1.096C3.6 31.947 11.11 38.286 20 38.286c.453 0 .91-.017 1.355-.05l-.097-1.303c-.413.031-.836.046-1.258.046z" fill="#525A68"/><path d="M20 6.936c-7.203 0-13.063 5.86-13.063 13.062 0 7.203 5.86 13.063 13.063 13.063s13.063-5.86 13.063-13.063S27.203 6.936 20 6.936zm.653 24.785v-3.232h-1.306v3.232c-5.96-.33-10.74-5.11-11.07-11.07h3.232v-1.306H8.277c.33-5.96 5.11-10.74 11.07-11.07v3.232h1.306V8.275c5.96.33 10.74 5.11 11.07 11.07H28.49v1.306h3.232c-.33 5.96-5.11 10.74-11.07 11.07z" fill="#525A68"/><path d="M20.653 18.159v-5.345h-1.306v5.345a1.956 1.956 0 00-1.306 1.839c0 1.08.879 1.96 1.96 1.96.85 0 1.568-.549 1.838-1.307h2.733v-1.306h-2.733a1.956 1.956 0 00-1.186-1.186zM20 20.65a.654.654 0 11.002-1.308A.654.654 0 0120 20.65zM15.791 2.19l1.28-.255.256 1.28-1.28.255-.256-1.28zm-3.393 1.162l1.207-.5.5 1.208-1.207.499-.5-1.207zM9.297 5.155l1.086-.725.726 1.086-1.087.725-.725-1.086zm-2.69 2.374l.923-.924.924.924-.924.924-.923-.924zM4.43 10.381l.727-1.086 1.085.726-.725 1.086-1.086-.726zm-1.576 3.222l.5-1.207 1.207.5-.5 1.207-1.207-.5zm-.917 3.467l.255-1.28 1.28.254-.254 1.281-1.281-.254zm20.736 19.708l1.28-.255.255 1.281-1.28.255-.255-1.281zm3.223-.842l1.207-.499.5 1.207-1.208.5-.5-1.208zm2.997-1.456l1.087-.726.725 1.087-1.086.726-.726-1.087zm2.652-2.012l.924-.924.923.924-.923.923-.924-.923zm2.214-2.491l.726-1.087 1.086.725-.726 1.087-1.086-.726zm1.68-2.877l.5-1.206 1.206.499-.5 1.207-1.206-.5zm1.088-3.146l.255-1.28 1.281.255-.255 1.28-1.281-.255z" fill="#525A68"/></g><defs><clipPath id="clip0"><path fill="#fff" d="M0 0h40v40H0z"/></clipPath></defs></svg>