<svg width="40" height="40" fill="none" xmlns="http://www.w3.org/2000/svg"><path d="M28.017 7.975H3.967c-.37 0-.668.3-.668.668v14.03h2.004a1.336 1.336 0 110 2.672H3.299v2.004c0 .369.299.668.668.668h24.718V8.643c0-.369-.3-.668-.668-.668z" fill="#FFC80A"/><path d="M36.702 18.664h-8.017v9.353h10.689v-6.68a2.672 2.672 0 00-2.672-2.673z" fill="#FFDC64"/><path d="M28.685 20.668h7.237c.738 0 1.336.598 1.336 1.336v6.013h-8.573v-7.349z" fill="#FFC850"/><path d="M34.03 10.647h-5.345v2.672h7.348v-.668a2.004 2.004 0 00-2.004-2.004z" fill="#FFDC64"/><path d="M36.701 21.336h2.673v2.672h-1.336a1.336 1.336 0 01-1.336-1.336v-1.336z" fill="#F1F4FB"/><path d="M37.258 25.032v2.985h1.401a5.332 5.332 0 00-1.4-2.985z" fill="#FFC850"/><path d="M33.361 32.025a3.34 3.34 0 100-6.68 3.34 3.34 0 000 6.68z" fill="#D4D6D9"/><path d="M11.315 23.34a5.331 5.331 0 00-4.168 2.005H3.299v2.004c0 .369.299.668.668.668h24.718v-2.673H15.484a5.332 5.332 0 00-4.169-2.004z" fill="#FFDD4D"/><path d="M11.315 32.025a3.34 3.34 0 100-6.68 3.34 3.34 0 000 6.68z" fill="#D4D6D9"/><path d="M37.2 18.075l-1.036-4.143a.626.626 0 00.496-.613v-.668c0-1.45-1.18-2.63-2.63-2.63h-4.72V8.643c0-.714-.58-1.294-1.294-1.294H3.967c-.714 0-1.295.58-1.295 1.294V20a.626.626 0 101.253 0V8.643c0-.023.019-.042.042-.042h24.05c.023 0 .041.019.041.042V20a.626.626 0 101.253 0v-.71h7.392c.909 0 1.68.598 1.946 1.42H36.7a.626.626 0 00-.626.626v1.336c0 1.082.88 1.963 1.962 1.963h.71v2.755H37.11a3.973 3.973 0 00-3.749-2.672 3.973 3.973 0 00-3.749 2.672h-.301v-4.718a.626.626 0 00-1.253 0v4.718H15.064a3.973 3.973 0 00-3.749-2.672 3.973 3.973 0 00-3.748 2.672h-3.6a.042.042 0 01-.042-.041V25.97h2.714a.626.626 0 100-1.253H.626a.626.626 0 000 1.253h2.046v1.378c0 .713.58 1.294 1.295 1.294H7.35l-.001.042a3.971 3.971 0 003.966 3.966 3.971 3.971 0 003.967-3.966l-.001-.042h14.114v.042a3.971 3.971 0 003.966 3.966 3.971 3.971 0 003.967-3.966l-.002-.042h2.048c.345 0 .626-.28.626-.626v-6.68c0-1.65-1.217-3.02-2.8-3.262zm-7.889-4.13h5.565l1.023 4.093h-6.588v-4.092zm4.718-2.671c.76 0 1.378.618 1.378 1.377v.042h-6.096v-1.42h4.718zM11.315 31.399a2.717 2.717 0 01-2.714-2.714 2.717 2.717 0 012.714-2.714 2.717 2.717 0 012.714 2.714 2.717 2.717 0 01-2.714 2.714zm22.046 0a2.717 2.717 0 01-2.714-2.714 2.717 2.717 0 012.714-2.714 2.717 2.717 0 012.714 2.714 2.717 2.717 0 01-2.714 2.714zm4.677-8.017a.71.71 0 01-.71-.71v-.71h1.42v1.42h-.71z" fill="#525A68"/><path d="M11.315 27.39a1.296 1.296 0 000 2.589 1.295 1.295 0 000-2.588zm22.046 0a1.296 1.296 0 000 2.589c.714 0 1.295-.58 1.295-1.294 0-.714-.581-1.294-1.295-1.294zm-17.328-2.045c0 .346.28.626.627.626h9.352a.626.626 0 100-1.253H16.66a.626.626 0 00-.627.627zm-14.07-2.046h8.016a.626.626 0 000-1.253H1.963a.626.626 0 000 1.253zm18.93-9.754l-5.57 5.57-2.897-2.898a.626.626 0 10-.886.886l3.34 3.34a.624.624 0 00.886 0l6.013-6.013a.626.626 0 10-.886-.885z" fill="#525A68"/></svg>