<svg width="60" height="60" fill="none" xmlns="http://www.w3.org/2000/svg"><g clip-path="url(#clip0)"><path d="M49.856 25.459h-6.622a1.93 1.93 0 010-3.86h6.622a1.64 1.64 0 001.639-1.638V10.34a1.64 1.64 0 00-1.639-1.639h-5.248a1.93 1.93 0 010-3.858h5.248a5.504 5.504 0 015.498 5.497v9.621a5.504 5.504 0 01-5.498 5.498zm-39.712 0h6.622a1.93 1.93 0 000-3.86h-6.622a1.64 1.64 0 01-1.639-1.638V10.34a1.64 1.64 0 011.639-1.639h5.248a1.93 1.93 0 000-3.858h-5.248a5.504 5.504 0 00-5.498 5.497v9.621a5.504 5.504 0 005.498 5.498z" fill="#FFDD4D"/><path d="M17.722 54.211h24.556v4.912H17.722V54.21z" fill="#fff"/><path d="M17.722 54.212h3.508v4.91h-3.508v-4.91zm21.048-.001H21.23l1.17-11.693h15.2l1.17 11.693z" fill="#fff"/><path d="M25.907 42.518l-1.169 11.694H21.23l1.17-11.694h3.507z" fill="#fff"/><path d="M32.923 34.025v8.493h-5.846v-8.493c.944.194 1.922.295 2.923.295 1.001 0 1.979-.1 2.923-.295z" fill="#FFDD4D"/><path d="M30 34.32c-7.832 0-14.261-6.195-14.552-14.022l-.65-19.42h30.404l-.65 19.42C44.262 28.125 37.832 34.32 30 34.32z" fill="#FFC80A"/><path d="M32.339 34.132A14.55 14.55 0 0130 34.32c-7.832 0-14.261-6.195-14.551-14.023l-.65-19.42h4.677l.65 19.42c.26 7.033 5.476 12.747 12.213 13.835z" fill="#FFDD4D"/><path d="M31.229 23.433A7.713 7.713 0 1028.76 8.205a7.713 7.713 0 002.469 15.228z" fill="#FFDD4D"/><path d="M31.754 23.328A7.739 7.739 0 0130 23.53c-4.254 0-7.714-3.46-7.714-7.714 0-4.254 3.46-7.714 7.714-7.714.604 0 1.19.07 1.754.201-3.412.796-5.96 3.862-5.96 7.513 0 3.65 2.548 6.717 5.96 7.513z" fill="#FFC80A"/><path d="M49.857 3.966h-3.881l.102-3.06c-.036-.55-.328-.852-.876-.906H14.799c-.549.054-.841.356-.877.906l.102 3.06h-3.88a6.381 6.381 0 00-6.375 6.374v1.878a.877.877 0 101.754 0V10.34a4.625 4.625 0 014.62-4.62h3.94l.07 2.105h-4.01a2.518 2.518 0 00-2.515 2.515v9.622a2.518 2.518 0 002.515 2.515h4.658c.127.716.304 1.42.529 2.105h-5.187a4.626 4.626 0 01-4.62-4.62V16.04a.877.877 0 10-1.754 0v3.922a6.381 6.381 0 006.374 6.374h5.884c1.928 4.095 5.782 7.28 10.173 8.39v6.915h-3.8a.877.877 0 00-.873.79l-1.09 10.904h-2.715a.877.877 0 00-.877.877v4.911c0 .484.392.877.877.877h24.556a.877.877 0 00.877-.877v-4.911a.877.877 0 00-.877-.877h-2.714l-1.09-10.904a.877.877 0 00-.873-.79h-3.8v-6.915c4.385-1.108 8.244-4.296 10.172-8.39h5.883a6.381 6.381 0 006.375-6.374V10.34a6.381 6.381 0 00-6.374-6.374zM10.143 20.723a.762.762 0 01-.761-.761V10.34c0-.42.342-.76.761-.76h4.07s.37 11.012.379 11.143h-4.449zm27.658 32.612h-2.967a.877.877 0 100 1.754h6.567v3.157H18.6v-3.157h12.414a.877.877 0 100-1.754H22.2l.994-9.94h13.614l.994 9.94zM32.046 41.64h-4.092v-6.58c1.364.181 2.728.181 4.092 0v6.58zm.77-8.485c-.923.195-1.862.291-2.816.287-7.264 0-13.407-5.944-13.675-13.175l-.62-18.514h28.59l-.62 18.511c-.228 6.174-4.77 11.63-10.859 12.89zm21.66-13.194a4.625 4.625 0 01-4.62 4.62H44.67c.224-.686.401-1.389.529-2.105h4.658a2.518 2.518 0 002.515-2.515v-2.875a.877.877 0 10-1.754 0v2.875c0 .42-.342.76-.761.76h-4.449c.008-.13.38-11.143.38-11.143h4.069c.42 0 .761.341.761.761v2.925a.877.877 0 101.754 0V10.34a2.518 2.518 0 00-2.515-2.515h-4.01l.07-2.105h3.94a4.625 4.625 0 014.62 4.62v9.622z" fill="#525A68"/><path d="M25.615 48.365c0 .484.393.877.877.877h7.016a.877.877 0 100-1.754h-7.016a.877.877 0 00-.877.877zM30 7.224c-4.737 0-8.591 3.854-8.591 8.59 0 4.738 3.854 8.592 8.591 8.592 4.737 0 8.592-3.854 8.592-8.591 0-4.737-3.855-8.591-8.592-8.591zm0 15.428a6.845 6.845 0 01-6.837-6.837A6.845 6.845 0 0130 8.978a6.845 6.845 0 016.837 6.837A6.845 6.845 0 0130 22.652z" fill="#525A68"/><path d="M31.44 17.37h-.563v-3.995a.877.877 0 00-.877-.877h-1.557a.877.877 0 100 1.754h.68v3.119h-.563a.877.877 0 100 1.754h2.88a.877.877 0 100-1.754z" fill="#525A68"/></g><defs><clipPath id="clip0"><path fill="#fff" d="M0 0h60v60H0z"/></clipPath></defs></svg>