<svg width="60" height="60" fill="none" xmlns="http://www.w3.org/2000/svg"><g clip-path="url(#clip0)"><path d="M44.006 59.121H15.994a2.32 2.32 0 01-2.32-2.32V45.28c0-6.438 5.218-11.656 11.655-11.656h9.342c6.437 0 11.655 5.218 11.655 11.655V56.8a2.32 2.32 0 01-2.32 2.321z" fill="#FFDD4D"/><path d="M34.67 33.625h-3.424c6.437 0 11.655 5.218 11.655 11.655V56.8a2.32 2.32 0 01-2.32 2.321h3.425a2.32 2.32 0 002.32-2.32V45.28c0-6.438-5.218-11.656-11.655-11.656z" fill="#FFC80A"/><path d="M25.429 59.121h9.142L30 37.465l-4.571 21.656z" fill="#fff"/><path d="M30 37.465l-.989 4.686 3.582 16.97h1.978L30 37.465z" fill="#fff"/><path d="M26.033 43.086l3.96-3.96 3.959 3.96-3.96 3.96-3.96-3.96z" fill="#fff"/><path d="M30 41.782l5.81-14.393H24.19L30 41.782z" fill="#fff"/><path d="M30 41.782l-3.873-9.595-2.556 2.094a2.228 2.228 0 00-.637 2.596l3.248 7.619L30 41.782zm0 0l3.873-9.595 2.556 2.094a2.228 2.228 0 01.637 2.596l-3.248 7.619L30 41.782zm12.76 6.135h-6.162a.635.635 0 01-.634-.635v-1.614c0-.35.284-.635.634-.635h6.161c.351 0 .635.284.635.635v1.614c0 .35-.284.635-.635.635z" fill="#F6F1F1"/><path d="M36.017 4.21l.85-1.531c.562-1.014-.488-2.161-1.548-1.69l-5.63 2.5a8.357 8.357 0 01-3.392.72h-2.232a6.967 6.967 0 00-6.967 6.966v11.153h25.803V11.175c0-3.82-3.075-6.92-6.884-6.964z" fill="#fff"/><path d="M36.017 4.21l.85-1.531c.562-1.014-.488-2.161-1.548-1.69l-.992.44c.232.347.291.81.047 1.25l-.005.01c-.382.688.005 1.538.769 1.729a6.968 6.968 0 015.272 6.757v11.153h2.492V11.175c0-3.82-3.075-6.92-6.885-6.964z" fill="#fff"/><path d="M30 35.422c-5.78 0-10.466-4.686-10.466-10.466v-9.529c6.977 4.663 13.955 4.663 20.932 0v9.529c0 5.78-4.686 10.466-10.466 10.466z" fill="#F1D0A5"/><path d="M38.091 16.834c-6.186 3.195-12.371 2.727-18.557-1.407v1.992c5.523 3.69 11.046 4.46 16.569 2.307.956-.372 1.988.32 1.988 1.346v3.884c0 5.378-4.057 9.809-9.278 10.398.39.044.785.068 1.187.068 5.78 0 10.466-4.686 10.466-10.466v-9.529c-.792.53-1.6 1.007-2.375 1.407z" fill="#F1B986"/><path d="M19.534 25.425h-.868a2.38 2.38 0 01-2.38-2.38v-.494a2.38 2.38 0 012.38-2.38h.868v5.254z" fill="#E2A770"/><path d="M40.466 26.382h1.447a3.068 3.068 0 003.068-3.068v-1.032a3.068 3.068 0 00-3.068-3.068h-1.447v7.168z" fill="#FFDD4D"/><path d="M41.913 19.214h-1.447v.034a3.069 3.069 0 012.61 3.034v1.032a3.069 3.069 0 01-2.61 3.034v.034h1.447a3.068 3.068 0 003.068-3.068v-1.032a3.068 3.068 0 00-3.068-3.068z" fill="#FFC80A"/><path d="M38.687 31.038h-3.056a1.188 1.188 0 01-1.188-1.189v-.382c0-.656.532-1.188 1.188-1.188h3.056c.657 0 1.189.532 1.189 1.188v.382c0 .657-.532 1.189-1.189 1.189z" fill="#fff"/><path d="M35.085 45.668v1.614c0 .835.679 1.514 1.513 1.514h6.161c.835 0 1.514-.68 1.514-1.514v-1.614c0-.835-.68-1.514-1.514-1.514H36.6c-.835 0-1.514.68-1.514 1.514zm1.758.244h5.672v1.126h-5.672v-1.126zm-2.08-23.126a.879.879 0 00-.879.879v1.062a.879.879 0 101.758 0v-1.062a.879.879 0 00-.88-.88zm-10.405.879v1.062a.879.879 0 101.758 0v-1.062a.879.879 0 10-1.758 0zm7.089 4.581c-1 .76-1.893.76-2.894 0a.88.88 0 00-1.063 1.4c.822.623 1.666.935 2.51.935.844 0 1.688-.311 2.51-.934a.879.879 0 00-1.063-1.4z" fill="#525A68"/><path d="M43.922 36.824a12.51 12.51 0 00-6.084-3.67c.407-.389.787-.81 1.136-1.26a2.07 2.07 0 001.647-1.318h1.335c.908 0 1.646-.739 1.646-1.647v-2.05a3.952 3.952 0 002.258-3.566v-1.03a3.95 3.95 0 00-2.08-3.477v-7.631c0-3.796-2.742-6.996-6.35-7.7l.205-.37a2.06 2.06 0 00-.286-2.422 2.059 2.059 0 00-2.387-.498l-5.63 2.5c-2.087.928-3.598.56-5.267.644a7.867 7.867 0 00-3.624.888.879.879 0 00.813 1.558 6.018 6.018 0 012.81-.688c1.596-.089 3.46.325 5.981-.795l5.63-2.5a.31.31 0 01.378.078c.06.065.145.202.045.383l-.85 1.531a.879.879 0 00.759 1.305c3.317.038 6.016 2.769 6.016 6.086v7.163c-.037-.001-.073-.003-.11-.003h-.569v-2.908a.879.879 0 00-1.367-.73 23.82 23.82 0 01-2.298 1.36.879.879 0 10.806 1.562c.366-.189.734-.391 1.102-.606v7.943c0 .86-.116 1.705-.339 2.523a2.061 2.061 0 00-.56-.08H35.63a2.07 2.07 0 00-2.068 2.068v.383a2.07 2.07 0 002.068 2.067h.957A9.613 9.613 0 0130 34.543c-5.287 0-9.587-4.3-9.587-9.587v-7.942c4.85 2.828 9.766 3.507 14.635 2.017a.879.879 0 00-.514-1.68c-2.396.733-4.824.885-7.215.451-2.412-.436-4.867-1.481-7.297-3.105a.878.878 0 00-1.367.73v3.866c-.232 0-.46.026-.678.074v-8.192c0-1.19.345-2.343.996-3.336a.879.879 0 00-1.469-.964 7.813 7.813 0 00-1.285 4.3v9.227a3.244 3.244 0 00-.811 2.15v.493a3.262 3.262 0 003.258 3.258h.07a11.325 11.325 0 003.429 6.85 12.51 12.51 0 00-6.087 3.67 12.5 12.5 0 00-3.283 8.457V56.8c0 1.765 1.435 3.2 3.199 3.2h2.75a.879.879 0 100-1.758h-2.75a1.443 1.443 0 01-1.442-1.441V45.28c0-2.7 1.003-5.281 2.823-7.271a10.765 10.765 0 014.666-2.992 3.11 3.11 0 00.084 2.204l3.248 7.619a.879.879 0 00.57.501c.493.139.807-.183.883-.225l.545.545-2.655 12.58h-2.459a.879.879 0 100 1.758h21.749c1.764 0 3.2-1.435 3.2-3.2V45.28c0-3.139-1.167-6.142-3.284-8.456zm-26.757-13.78v-.493c0-.824.668-1.495 1.49-1.501v3.496a1.503 1.503 0 01-1.49-1.501zm16.273 20.104l-2.363-1.68 2.293-5.682a11.396 11.396 0 002.289-1.002l.215.176c.46.378.62 1.024.386 1.572l-2.82 6.616zm7.229-14.33c.184-.51.332-1.03.44-1.557h.738v1.557h-1.178zm1.246-8.725c1.207 0 2.19.982 2.19 2.19v1.03c0 1.208-.983 2.19-2.19 2.19h-.568v-5.41h.568zm-6.592 9.756v-.382c0-.17.14-.31.31-.31h3.056c.171 0 .31.14.31.31v.383a.31.31 0 01-.31.31h-3.056a.31.31 0 01-.31-.31zm-4.026 6.376L30 39.434l-1.295-3.208a11.417 11.417 0 002.59 0zm-7.553.308a1.356 1.356 0 01.386-1.573l.213-.174c.719.415 1.486.754 2.293 1.005l2.291 5.677-2.362 1.68-2.82-6.615zM30 42.86l1.72 1.224-1.72 1.72-1.721-1.72L30 42.86zm-3.487 15.382l2.342-11.097c.403.343.597.781 1.145.781s.742-.439 1.145-.78l2.342 11.096h-6.974zm18.934-1.441c0 .795-.646 1.441-1.441 1.441h-8.722l-2.656-12.58.546-.545c.063.03.382.366.882.225a.879.879 0 00.57-.501l3.248-7.619a3.11 3.11 0 00.084-2.204 10.765 10.765 0 014.667 2.992 10.746 10.746 0 012.822 7.27V56.8z" fill="#525A68"/></g><defs><clipPath id="clip0"><path fill="#fff" d="M0 0h60v60H0z"/></clipPath></defs></svg>