<svg width="60" height="60" fill="none" xmlns="http://www.w3.org/2000/svg"><path d="M11.828 58.679L9.63 49.887.815 52.09 8.97 38.781l1.598.98L4.81 49.16l6.185-1.547 1.552 6.208 6.35-10.627 1.61.962-8.679 14.523zm19.469 0l-8.679-14.523 1.61-.962 6.35 10.627 1.552-6.208 6.185 1.547-5.758-9.399 1.598-.98 8.155 13.31-8.815-2.204-2.198 8.792z" fill="#525A68"/><path d="M21.563 38.438C13.796 38.438 7.5 32.14 7.5 24.374s6.296-14.063 14.063-14.063c4.074 0 7.743 1.733 10.312 4.502v-8.3l-.041-.024a5.552 5.552 0 00-5.469-.04c-.994-1.652-2.798-2.699-4.85-2.699a5.552 5.552 0 00-4.756 2.7 5.546 5.546 0 00-5.468.04l-.082.047a5.553 5.553 0 00-2.77 4.715 5.552 5.552 0 00-4.714 2.77l-.048.082a5.553 5.553 0 00-.04 5.467 5.552 5.552 0 00-2.7 4.756v.095a5.552 5.552 0 002.7 4.757 5.55 5.55 0 00.04 5.467l.048.083a5.555 5.555 0 004.714 2.77 5.552 5.552 0 002.77 4.714l.082.048a5.557 5.557 0 005.469.04C17.754 43.953 19.558 45 21.61 45a5.552 5.552 0 004.756-2.7 5.555 5.555 0 005.468-.04l.082-.047a5.555 5.555 0 002.77-4.715 5.55 5.55 0 004.714-2.77l.048-.082a5.548 5.548 0 00.04-5.467 5.584 5.584 0 002.7-4.804h-6.563c0 7.766-6.296 14.063-14.063 14.063zm30-30H38.437V1.875h13.126v6.563z" fill="#FFC80A"/><path d="M15.938 24.375h-1.876c0-4.135 3.365-7.5 7.5-7.5v1.875a5.63 5.63 0 00-5.625 5.625z" fill="#525A68"/><path d="M55.313 21.563h-9.376v-4.688h9.376v4.688z" fill="#FFC80A"/><path d="M42.188 4.688h1.874v3.75h-1.874v-3.75zm3.75 0h1.874v3.75h-1.874v-3.75zm9.375 16.875h-1.876v-1.875h1.876v1.875zm-3.75 0h-1.876v-1.875h1.876v1.875zm-3.75 0h-1.876v-1.875h1.876v1.875zm-1.875-5.625h9.374v1.874h-9.374v-1.875z" fill="#525A68"/><path d="M56.25.938h-22.5a2.816 2.816 0 00-2.813 2.812v8.943c-2.645-2.118-5.954-3.318-9.375-3.318-8.27 0-15 6.73-15 15s6.73 15 15 15c7.955 0 14.465-6.229 14.953-14.063H56.25a2.816 2.816 0 002.813-2.812V3.75A2.816 2.816 0 0056.25.937zM21.562 37.5c-7.237 0-13.125-5.887-13.125-13.125S14.325 11.25 21.563 11.25a13.16 13.16 0 019.375 3.96v2.96c-2.017-3.037-5.464-5.045-9.375-5.045-6.204 0-11.25 5.047-11.25 11.25s5.046 11.25 11.25 11.25c5.949 0 10.821-4.644 11.211-10.497.306.113.632.184.976.184h.89c-.484 6.8-6.157 12.188-13.078 12.188zm9.375-13.125c0 5.17-4.205 9.375-9.375 9.375-5.169 0-9.375-4.206-9.375-9.375 0-5.17 4.206-9.375 9.376-9.375 5.169 0 9.375 4.206 9.375 9.375zm26.25-1.875c0 .517-.42.938-.937.938h-22.5a.938.938 0 01-.938-.938V3.75c0-.518.42-.938.938-.938h22.5c.517 0 .938.42.938.938V22.5z" fill="#525A68"/><path d="M19.688 31.326l-3.476-3.476 1.326-1.325 2.15 2.15 7.774-7.775 1.326 1.325-9.1 9.1z" fill="#525A68"/></svg>