<svg width="60" height="60" fill="none" xmlns="http://www.w3.org/2000/svg"><path d="M57.136 45h1.926v-5.625h-1.926c-.73 0-1.381-.436-1.674-1.146a1.8 1.8 0 01.383-1.971l1.364-1.365-3.979-3.979-1.366 1.365c-.515.518-1.289.666-1.912.41l-.095-.042a1.787 1.787 0 01-1.107-1.658v-1.927h-1.875v5.65c0 .647-.027 1.288-.077 1.925l.003-.009a5.632 5.632 0 014.761 5.56 5.63 5.63 0 01-8.101 5.05l.017-.055a24.667 24.667 0 01-3.364 4.48l1.01-.085c.287-.021.585.021.797.107l.095.042c.673.279 1.109.93 1.109 1.659v1.926h5.625v-1.926c0-.73.436-1.381 1.146-1.674a1.797 1.797 0 011.97.383l1.365 1.365 3.979-3.979-1.364-1.365c-.517-.517-.667-1.29-.368-2.007A1.79 1.79 0 0157.136 45zM22.5 11.25c0-.47.18-.896.466-1.225l-1.609-1.61-1.366 1.364c-.515.518-1.29.667-1.912.41l-.095-.042a1.786 1.786 0 01-1.109-1.658V6.562H11.25V8.49c0 .73-.435 1.381-1.146 1.674a1.799 1.799 0 01-1.971-.383L6.769 8.415 2.79 12.394l1.364 1.365c.517.517.668 1.29.369 2.007a1.79 1.79 0 01-1.659 1.109H.938V22.5h1.926c.73 0 1.381.436 1.674 1.146.284.68.134 1.454-.383 1.971L2.79 26.981l3.979 3.979 1.366-1.365c.515-.518 1.288-.668 1.912-.41l.095.04c.672.28 1.108.932 1.108 1.66v1.927h1.875v-7.577a5.633 5.633 0 01-4.688-5.547 5.63 5.63 0 015.626-5.625 5.631 5.631 0 015.545 4.68 16.269 16.269 0 003.843-.507l.013-5.358a1.864 1.864 0 01-.964-1.628z" fill="#FFC80A"/><path d="M57.188 4.688h-6.279l-1.077-.72A18 18 0 0039.818.938h-7.005c-1.035 0-1.876.84-1.876 1.875 0 .686.2 1.321.522 1.875H26.25A2.816 2.816 0 0023.437 7.5c0 .37.076.722.207 1.046a2.807 2.807 0 00-2.081 2.704c0 1.297.885 2.38 2.08 2.704-.13.324-.206.676-.206 1.046 0 .786.326 1.495.847 2.006a15.514 15.514 0 01-3.951.758 6.537 6.537 0 00-6.27-4.639A6.57 6.57 0 007.5 19.688a6.537 6.537 0 004.688 6.285v8.739c0 1.794.2 3.582.57 5.33a18.07 18.07 0 00-2.589 1.426l-1.078.72H2.813c-1.035 0-1.876.84-1.876 1.874v11.25c0 1.035.841 1.876 1.875 1.876h5.626c.758 0 1.41-.455 1.705-1.105a18.123 18.123 0 009.922 2.98h8.06a2.8 2.8 0 001.09-.22c.163.056.324.116.488.17l.297.1.297-.098a25.566 25.566 0 0013.545-10.612 6.516 6.516 0 002.096.347 6.57 6.57 0 006.562-6.563c0-2.923-1.986-5.49-4.734-6.296.017-.393.047-.783.047-1.18V19.744a18.151 18.151 0 002.043-1.163c.295.65.947 1.108 1.706 1.108h5.626a1.876 1.876 0 001.874-1.875V6.563c0-1.035-.84-1.875-1.874-1.875zM26.25 6.563h11.409a1.82 1.82 0 011.426.696 7.267 7.267 0 00-1.083 1.178H26.25a.938.938 0 010-1.874zm5.78 8.664l-1.746-1.165h6.279v1.876H33.22a14.77 14.77 0 01-1.19-.711zm-7.655-4.915h12.623a7.256 7.256 0 00-.399 1.876H24.375a.938.938 0 010-1.876zm1.875 5.626a.938.938 0 010-1.876h3.466l-1.746 1.165c-.386.257-.785.49-1.191.71h-.529zm-16.875 3.75A4.693 4.693 0 0114.063 15a4.658 4.658 0 014.254 2.756 15.26 15.26 0 01-1.907-.242l-4.223-.845v7.3a4.659 4.659 0 01-2.812-4.282zm-.938 35.624H2.814v-11.25h5.624v11.25zm19.688 1.876h-8.06a16.23 16.23 0 01-9.753-3.287V43.627l.897-.599a16.128 16.128 0 018.973-2.715h5.13c0 1.034-.84 1.874-1.87 1.874h-2.823v1.876h11.256a.938.938 0 010 1.874h-11.25v1.876H33.75a.938.938 0 010 1.874H20.625v1.876h11.25a.938.938 0 010 1.874h-11.25v1.876h7.5a.938.938 0 010 1.874zM17.812 34.712V23.376c.54.04 1.081.061 1.618.061 3.565 0 6.795-.73 9.633-2.16v20.91h-2.397a3.712 3.712 0 00.521-1.874c0-1.035-.84-1.876-1.875-1.876h-5.13c-.67 0-1.333.05-1.992.122a20.116 20.116 0 01-.378-3.847zM36.55 48.627a2.805 2.805 0 00-2.069-2.58A2.81 2.81 0 0034.687 45a2.816 2.816 0 00-2.812-2.813h-.938v-20.91c2.838 1.431 6.068 2.16 9.633 2.16.537 0 1.078-.02 1.617-.061v11.337a19.93 19.93 0 01-5.637 13.914zm-5.667 8.161c.034-.174.055-.354.055-.538 0-.33-.068-.643-.173-.938h1.11a2.808 2.808 0 002.796-2.648 21.786 21.786 0 009.392-17.952v-13.44l-1.056.135c-.81.103-1.63.155-2.437.155-3.824 0-7.214-.899-10.077-2.672L30 18.584l-.493.306c-2.863 1.773-6.253 2.672-10.077 2.672a19.38 19.38 0 01-2.437-.155l-1.055-.135v13.44c0 1.392.138 2.78.399 4.14a17.82 17.82 0 00-1.81.502 23.853 23.853 0 01-.464-4.642V18.956l1.98.397c1.113.222 2.253.334 3.387.334 3.42 0 6.733-1.002 9.58-2.9l.99-.66.99.66a17.213 17.213 0 009.58 2.9c1.134 0 2.274-.112 3.388-.334l1.98-.397v15.757a23.694 23.694 0 01-15.055 22.075zm19.742-14.6a4.693 4.693 0 01-4.688 4.687 4.66 4.66 0 01-1.128-.14 25.526 25.526 0 002.795-8.916c1.772.683 3.021 2.412 3.021 4.368zM43.59 17.514c-1.706.34-3.45.366-5.153.126v-4.867c0-1.522.642-2.948 1.739-3.963a4.863 4.863 0 003.524 1.502h.362V8.438H43.7a3.011 3.011 0 01-2.712-1.69 3.7 3.7 0 00-3.329-2.06h-2.975a1.876 1.876 0 01-1.871-1.875h7.005c3.205 0 6.308.939 8.973 2.715l.897.599v10.28a16.45 16.45 0 01-1.876 1.224v-.962l-4.222.845zm13.597.299h-5.624V6.563h5.624v11.25z" fill="#525A68"/><path d="M44.836 12.435a6.308 6.308 0 00-4.476 4.144l1.779.593a4.442 4.442 0 013.152-2.918l.873-.219-.454-1.818-.874.218zM.938 36.563h1.875v1.874H.937v-1.874zm3.75 0h1.875v1.874H4.688v-1.874zm3.75 0h1.874v1.874H8.438v-1.874zm41.25-13.125h1.874v1.875h-1.874v-1.875zm3.75 0h1.874v1.875h-1.874v-1.875zm3.75 0h1.874v1.875h-1.874v-1.875z" fill="#525A68"/></svg>