<svg width="30" height="30" viewBox="0 0 30 30" fill="none" xmlns="http://www.w3.org/2000/svg">
<path d="M23.75 3.75H6.25C4.875 3.75 3.75 4.875 3.75 6.25V23.75C3.75 25.125 4.875 26.25 6.25 26.25H23.75C25.125 26.25 26.25 25.125 26.25 23.75V6.25C26.25 4.875 25.125 3.75 23.75 3.75ZM23.75 23.75H6.25V6.25H23.75V23.75Z" fill="#A5A9AF"/>
<path d="M14.0625 9.64996H7.8125V11.525H14.0625V9.64996Z" fill="#A5A9AF"/>
<path d="M22.5 19.6875H16.25V21.5625H22.5V19.6875Z" fill="#A5A9AF"/>
<path d="M22.5 16.5625H16.25V18.4375H22.5V16.5625Z" fill="#A5A9AF"/>
<path d="M10 22.5H11.875V20H14.375V18.125H11.875V15.625H10V18.125H7.5V20H10V22.5Z" fill="#A5A9AF"/>
<path d="M17.6126 13.6875L19.3751 11.925L21.1376 13.6875L22.4626 12.3625L20.7001 10.5875L22.4626 8.825L21.1376 7.5L19.3751 9.2625L17.6126 7.5L16.2876 8.825L18.0501 10.5875L16.2876 12.3625L17.6126 13.6875Z" fill="#A5A9AF"/>
</svg>
