<svg width="99" height="99" fill="none" xmlns="http://www.w3.org/2000/svg"><path d="M92.475 57.576l-5.548 4.536a1.547 1.547 0 01-1.958 0l-5.548-4.536a1.547 1.547 0 01-.568-1.197V13.053h14.19v43.326c0 .464-.209.904-.568 1.197z" fill="#EBF4FF"/><path d="M87.242 13.053v43.326c0 .464-.208.904-.568 1.197l-3.626 2.965 1.921 1.572c.57.465 1.389.465 1.958 0l5.548-4.536c.36-.294.568-.734.568-1.198V13.053h-5.801z" fill="#fff"/><path d="M95.739 23.888l-17.597 6.405a.966.966 0 01-.74-.033l-2.478-1.155a.967.967 0 01-.467-1.285l1.155-2.479a.966.966 0 01.546-.5l17.597-6.404a.966.966 0 01.74.032l2.478 1.156c.484.225.693.8.467 1.285l-1.156 2.478a.966.966 0 01-.545.5z" fill="#fff"/><path d="M96.973 19.625l-2.478-1.156a.966.966 0 00-.74-.032l-2.881 1.049.298.139c.484.225.693.8.468 1.285l-1.156 2.478a.966.966 0 01-.545.5l-14.716 5.356 2.18 1.016c.232.109.498.12.739.032l17.597-6.405a.967.967 0 00.546-.5l1.155-2.478a.966.966 0 00-.467-1.284zM95.739 35.49l-17.597 6.404a.966.966 0 01-.74-.032l-2.478-1.156a.967.967 0 01-.467-1.285l1.155-2.478a.966.966 0 01.546-.5l17.597-6.405a.966.966 0 01.74.033l2.478 1.155a.966.966 0 01.467 1.285l-1.156 2.478a.967.967 0 01-.545.5z" fill="#fff"/><path d="M96.973 31.226l-2.478-1.155a.966.966 0 00-.74-.033l-2.881 1.05.298.138a.968.968 0 01.468 1.285l-1.156 2.478a.966.966 0 01-.545.5l-14.716 5.356 2.18 1.017c.232.108.498.12.739.032l17.597-6.405a.967.967 0 00.546-.5l1.155-2.478a.966.966 0 00-.467-1.285zM95.739 47.09l-17.597 6.406a.967.967 0 01-.74-.033l-2.478-1.155a.967.967 0 01-.467-1.285l1.155-2.478a.966.966 0 01.546-.5l17.597-6.405a.966.966 0 01.74.032l2.478 1.156c.484.226.693.8.467 1.285l-1.156 2.478a.967.967 0 01-.545.5z" fill="#fff"/><path d="M96.973 42.828l-2.478-1.156a.966.966 0 00-.74-.032l-2.881 1.049.298.139c.484.225.693.8.468 1.285l-1.156 2.478a.966.966 0 01-.545.5l-14.716 5.356 2.18 1.016c.232.109.498.12.739.033l17.597-6.406a.967.967 0 00.546-.5l1.155-2.478a.966.966 0 00-.467-1.284z" fill="#fff"/><path d="M88.8 2.805v3.094c0 .747-.605 1.353-1.353 1.353h-3.093A1.354 1.354 0 0183 5.9V2.805c0-.748-.606-1.354-1.353-1.354h-3.433a3.867 3.867 0 00-3.867 3.868v6.38c0 .748.606 1.354 1.353 1.354h20.496c.748 0 1.354-.606 1.354-1.354V5.32a3.867 3.867 0 00-3.867-3.868h-3.529c-.747 0-1.353.606-1.353 1.354z" fill="#FFC600"/><path d="M93.683 1.451h-3.528a1.35 1.35 0 00-.826.283 3.866 3.866 0 012.42 3.585v6.38c0 .748-.606 1.354-1.353 1.354h5.8c.748 0 1.354-.606 1.354-1.354V5.32a3.867 3.867 0 00-3.867-3.868z" fill="#FFC80A"/><path d="M56.027 92.666l-5.548 4.536a1.547 1.547 0 01-1.958 0l-5.548-4.536a1.547 1.547 0 01-.568-1.198V48.142h14.19v43.326c0 .464-.21.904-.568 1.198z" fill="#EBF4FF"/><path d="M50.794 48.142v43.326c0 .464-.209.904-.568 1.198L46.6 95.63l1.92 1.57c.57.467 1.39.467 1.96 0l5.547-4.535c.36-.294.568-.734.568-1.198V48.142h-5.801z" fill="#fff"/><path d="M59.29 58.977L41.694 65.38a.967.967 0 01-.739-.032l-2.478-1.156a.967.967 0 01-.468-1.284l1.156-2.479a.966.966 0 01.545-.5l17.598-6.404a.966.966 0 01.74.032l2.477 1.156c.484.225.694.8.468 1.285l-1.156 2.478a.967.967 0 01-.545.5z" fill="#fff"/><path d="M60.525 54.714l-2.479-1.156a.967.967 0 00-.739-.032l-2.882 1.049.299.139c.484.226.693.8.467 1.285l-1.155 2.478a.966.966 0 01-.546.5l-14.716 5.356 2.18 1.017c.233.108.499.12.74.032l17.597-6.405a.968.968 0 00.546-.5l1.155-2.478a.966.966 0 00-.467-1.285zM59.29 70.578l-17.597 6.405a.967.967 0 01-.739-.032l-2.478-1.156a.967.967 0 01-.468-1.285l1.156-2.478a.966.966 0 01.545-.5l17.598-6.405a.967.967 0 01.74.032l2.477 1.156a.967.967 0 01.468 1.285l-1.156 2.478a.968.968 0 01-.545.5z" fill="#fff"/><path d="M60.525 66.316l-2.479-1.156a.966.966 0 00-.739-.032l-2.882 1.049.299.138a.966.966 0 01.467 1.285l-1.155 2.479a.966.966 0 01-.546.5l-14.716 5.356 2.18 1.016c.233.109.499.12.74.032l17.597-6.405a.967.967 0 00.546-.5l1.155-2.478a.966.966 0 00-.467-1.284zM59.29 82.18l-17.597 6.405a.967.967 0 01-.739-.033l-2.478-1.155a.967.967 0 01-.468-1.285l1.156-2.479a.966.966 0 01.545-.5l17.598-6.404a.966.966 0 01.74.032l2.477 1.156c.484.225.694.8.468 1.285l-1.156 2.478a.967.967 0 01-.545.5z" fill="#fff"/><path d="M60.525 77.917l-2.479-1.155a.966.966 0 00-.739-.033l-2.882 1.05.299.138a.966.966 0 01.467 1.285l-1.155 2.478a.966.966 0 01-.546.5l-14.716 5.356 2.18 1.017c.233.108.499.12.74.032L59.29 82.18a.967.967 0 00.546-.5l1.155-2.478a.966.966 0 00-.467-1.285z" fill="#fff"/><path d="M52.353 37.894v3.094c0 .748-.606 1.354-1.354 1.354h-3.094a1.353 1.353 0 01-1.353-1.354v-3.094c0-.747-.606-1.353-1.354-1.353h-3.432a3.867 3.867 0 00-3.868 3.867v6.38c0 .748.606 1.354 1.354 1.354h20.496c.748 0 1.354-.606 1.354-1.353v-6.381a3.867 3.867 0 00-3.868-3.867h-3.528c-.747 0-1.353.606-1.353 1.353z" fill="#FFC600"/><path d="M57.234 36.54h-3.528c-.31 0-.597.107-.825.283a3.866 3.866 0 012.42 3.585v6.38c0 .748-.606 1.354-1.354 1.354h5.801c.748 0 1.354-.606 1.354-1.353v-6.381a3.867 3.867 0 00-3.867-3.867z" fill="#FFC80A"/><path d="M19.578 57.576l-5.547 4.536a1.547 1.547 0 01-1.959 0l-5.547-4.536a1.547 1.547 0 01-.568-1.197V13.053h14.19v43.326c0 .464-.21.904-.569 1.197z" fill="#EBF4FF"/><path d="M14.345 13.053v43.326c0 .464-.208.904-.567 1.197l-3.627 2.965 1.922 1.572c.57.465 1.388.465 1.958 0l5.548-4.536c.359-.294.567-.734.567-1.198V13.053h-5.8z" fill="#fff"/><path d="M22.843 23.888L5.245 30.293a.967.967 0 01-.74-.033l-2.477-1.155a.967.967 0 01-.468-1.285l1.156-2.479a.966.966 0 01.545-.5l17.598-6.404a.966.966 0 01.739.032l2.478 1.156c.484.225.693.8.468 1.285l-1.156 2.478a.967.967 0 01-.545.5z" fill="#fff"/><path d="M24.076 19.625l-2.478-1.156a.966.966 0 00-.74-.032l-2.88 1.049.298.139c.484.225.693.8.467 1.285l-1.156 2.478a.966.966 0 01-.545.5L2.326 29.244l2.18 1.016c.233.109.498.12.74.032l17.597-6.405a.967.967 0 00.545-.5l1.156-2.478a.966.966 0 00-.468-1.284zM22.843 35.49L5.245 41.893a.967.967 0 01-.74-.032l-2.477-1.156a.967.967 0 01-.468-1.285l1.156-2.478a.966.966 0 01.545-.5l17.598-6.405a.966.966 0 01.739.033l2.478 1.155a.968.968 0 01.468 1.285l-1.156 2.478a.967.967 0 01-.545.5z" fill="#fff"/><path d="M24.076 31.226l-2.478-1.155a.966.966 0 00-.74-.033l-2.88 1.05.298.138a.966.966 0 01.467 1.285l-1.156 2.478a.966.966 0 01-.545.5L2.326 40.845l2.18 1.017c.233.108.498.12.74.032l17.597-6.405a.967.967 0 00.545-.5l1.156-2.478a.966.966 0 00-.468-1.285zM22.843 47.09L5.245 53.497a.967.967 0 01-.74-.033l-2.477-1.155a.967.967 0 01-.468-1.285l1.156-2.478a.966.966 0 01.545-.5L20.86 41.64a.966.966 0 01.739.032l2.478 1.156c.484.226.693.8.468 1.285l-1.156 2.478a.967.967 0 01-.545.5z" fill="#fff"/><path d="M24.076 42.828l-2.478-1.156a.966.966 0 00-.74-.032l-2.88 1.049.298.139c.484.225.693.8.467 1.285l-1.156 2.478a.966.966 0 01-.545.5L2.326 52.447l2.18 1.016c.233.109.498.12.74.033l17.597-6.406a.967.967 0 00.545-.5l1.156-2.478a.966.966 0 00-.468-1.284z" fill="#fff"/><path d="M15.904 2.805v3.094c0 .747-.606 1.353-1.353 1.353h-3.094A1.354 1.354 0 0110.104 5.9V2.805c0-.748-.606-1.354-1.354-1.354H5.317A3.867 3.867 0 001.45 5.32v6.38c0 .748.606 1.354 1.354 1.354H23.3c.747 0 1.353-.606 1.353-1.354V5.32a3.867 3.867 0 00-3.867-3.868h-3.528c-.748 0-1.354.606-1.354 1.354z" fill="#FFC600"/><path d="M20.786 1.451h-3.528c-.311 0-.597.107-.825.283a3.866 3.866 0 012.42 3.585v6.38c0 .748-.606 1.354-1.354 1.354H23.3c.747 0 1.354-.606 1.354-1.354V5.32a3.867 3.867 0 00-3.868-3.868z" fill="#FFC80A"/><path d="M57.234 35.09h-3.528a2.807 2.807 0 00-2.804 2.804v2.997h-2.9v-2.997a2.807 2.807 0 00-2.804-2.804h-3.432a5.323 5.323 0 00-5.318 5.317v6.381a2.807 2.807 0 002.804 2.804h1.703v8.342l-1.741.634a2.402 2.402 0 00-1.365 1.25l-1.155 2.478a2.4 2.4 0 00-.081 1.848 2.401 2.401 0 001.25 1.364l2.478 1.156c.198.092.404.153.614.189v2.682l-1.741.634a2.402 2.402 0 00-1.365 1.25l-1.156 2.478a2.4 2.4 0 00-.08 1.849 2.402 2.402 0 001.25 1.364l2.478 1.155c.198.093.404.154.614.19v2.682l-1.742.634a2.402 2.402 0 00-1.364 1.25l-1.156 2.478a2.4 2.4 0 00-.08 1.848 2.401 2.401 0 001.25 1.364l2.477 1.156c.198.092.405.153.615.19v1.411c0 .903.401 1.748 1.1 2.32l5.547 4.535a2.99 2.99 0 001.898.676c.673 0 1.347-.225 1.896-.675l5.547-4.536c.7-.572 1.1-1.417 1.1-2.32v-7.291l1.743-.634a2.401 2.401 0 001.364-1.25l1.155-2.478a2.4 2.4 0 00.081-1.848 2.402 2.402 0 00-1.25-1.364l-2.478-1.156a2.42 2.42 0 00-.614-.19v-2.682l1.742-.634a2.4 2.4 0 001.364-1.25l1.155-2.478a2.4 2.4 0 00.081-1.848A2.402 2.402 0 0061.136 65l-2.478-1.156a2.424 2.424 0 00-.614-.19v-2.682l1.742-.634a2.401 2.401 0 001.364-1.25l1.155-2.478a2.4 2.4 0 00.081-1.848 2.402 2.402 0 00-1.25-1.364l-2.478-1.156a2.42 2.42 0 00-.614-.19v-2.461h1.704a2.807 2.807 0 002.804-2.804v-6.38a5.323 5.323 0 00-5.318-5.318zm-2.09 56.378a.097.097 0 01-.036.074l-5.549 4.538a.096.096 0 01-.12-.001l-5.547-4.537a.096.096 0 01-.036-.074V89.34l11.288-4.109v6.236zm4.33-12.442l-.867 1.86-17.221 6.267-1.86-.867.867-1.858 17.221-6.268 1.86.867zm-15.618 1.055v-2.342l11.288-4.109v2.342l-11.288 4.109zm15.617-12.656l-.866 1.859-17.221 6.267-1.86-.866.867-1.859 17.221-6.268 1.86.867zm-15.617 1.054v-2.341l11.288-4.11v2.343l-11.288 4.108zm15.617-12.656l-.866 1.859-17.221 6.268-1.86-.867.867-1.858 17.221-6.268 1.86.866zm-15.617 1.055v-7.286h11.288v3.177l-11.288 4.109zM59.65 46.692h-20.3v-6.285a2.42 2.42 0 012.417-2.417h3.336v2.997a2.807 2.807 0 002.803 2.804H51a2.807 2.807 0 002.804-2.803V37.99h3.431a2.42 2.42 0 012.417 2.417v6.285zM20.786 0h-3.528a2.807 2.807 0 00-2.804 2.803v2.998h-2.9V2.804A2.807 2.807 0 008.75.001H5.317A5.323 5.323 0 000 5.318V11.7a2.807 2.807 0 002.804 2.804h1.703v8.341l-1.743.634a2.403 2.403 0 00-1.363 1.25L.246 27.206a2.4 2.4 0 00-.081 1.849 2.402 2.402 0 001.25 1.364l2.478 1.155c.198.093.404.153.614.19v2.682l-1.743.634a2.403 2.403 0 00-1.363 1.25L.246 38.808a2.4 2.4 0 00-.081 1.848 2.402 2.402 0 001.25 1.364l2.478 1.156c.198.092.404.153.614.19v2.681l-1.743.635a2.403 2.403 0 00-1.363 1.25L.246 50.408a2.4 2.4 0 00-.081 1.849 2.401 2.401 0 001.25 1.364l2.478 1.155c.198.093.404.154.614.19v1.412c0 .902.401 1.748 1.1 2.32l5.547 4.535a2.99 2.99 0 001.898.675c.674 0 1.347-.225 1.896-.675l5.547-4.536a2.984 2.984 0 001.101-2.32v-7.29l1.742-.635a2.401 2.401 0 001.364-1.25l1.156-2.478a2.42 2.42 0 00-1.17-3.212l-2.477-1.155a2.42 2.42 0 00-.615-.191v-2.681l1.742-.634a2.401 2.401 0 001.364-1.25l1.156-2.479a2.42 2.42 0 00-1.17-3.211l-2.477-1.156a2.42 2.42 0 00-.615-.19v-2.682l1.742-.634A2.402 2.402 0 0024.702 24l1.156-2.478a2.42 2.42 0 00-1.169-3.212l-2.478-1.156a2.42 2.42 0 00-.614-.19v-2.461H23.3a2.807 2.807 0 002.804-2.804v-6.38A5.324 5.324 0 0020.786 0zm-2.09 56.378a.096.096 0 01-.036.074l-5.55 4.537a.096.096 0 01-.119 0l-5.547-4.537a.096.096 0 01-.036-.075V54.25l11.288-4.108v6.236zm4.329-12.442l-.867 1.859-17.22 6.268-1.86-.867.867-1.859 17.221-6.267 1.859.866zM7.408 44.992V42.65l11.288-4.109v2.342L7.408 44.992zm15.617-12.656l-.867 1.858-17.22 6.268-1.86-.867.867-1.858 17.221-6.268 1.859.867zM7.408 33.39v-2.342l11.288-4.108v2.341L7.408 33.39zm15.617-12.656l-.867 1.859-17.22 6.268-1.86-.867.867-1.859 6.428-2.34a1.45 1.45 0 00-.992-2.725l-1.973.718v-7.285h11.288v3.177l-2.942 1.071a1.45 1.45 0 10.992 2.725l4.42-1.609 1.859.867zm.178-9.132H2.9V5.318a2.42 2.42 0 012.417-2.417h3.336v2.997a2.807 2.807 0 002.804 2.804h3.094a2.807 2.807 0 002.804-2.804V2.901h3.431a2.42 2.42 0 012.417 2.417v6.284zm72.993 2.9A2.807 2.807 0 0099 11.7V5.32A5.323 5.323 0 0093.683 0h-3.529a2.807 2.807 0 00-2.803 2.803v2.998h-2.9V2.804A2.807 2.807 0 0081.646.001h-3.433a5.323 5.323 0 00-5.317 5.317V11.7a2.807 2.807 0 002.803 2.804h1.704v8.341l-1.742.634a2.402 2.402 0 00-1.364 1.25l-1.156 2.478a2.42 2.42 0 001.169 3.212l2.478 1.156c.198.092.405.153.614.19v2.682l-1.741.633a2.401 2.401 0 00-1.365 1.25l-1.155 2.479a2.42 2.42 0 001.169 3.212l2.478 1.155c.198.093.404.154.614.19v2.682l-1.742.634a2.402 2.402 0 00-1.364 1.25L73.14 50.41a2.42 2.42 0 001.17 3.212l2.478 1.155c.198.093.404.154.614.19v1.412c0 .903.401 1.748 1.1 2.32l5.547 4.535a2.99 2.99 0 001.898.676c.674 0 1.347-.225 1.896-.675l5.547-4.536a2.985 2.985 0 001.101-2.32v-7.291l1.742-.634a2.401 2.401 0 001.364-1.25l1.156-2.479a2.42 2.42 0 00-1.169-3.211l-2.478-1.156a2.423 2.423 0 00-.615-.19v-2.682l1.742-.634a2.402 2.402 0 001.365-1.25l1.155-2.478a2.42 2.42 0 00-1.169-3.212l-2.478-1.156a2.427 2.427 0 00-.614-.19v-2.682l1.741-.633A2.401 2.401 0 0097.6 24l1.155-2.479a2.42 2.42 0 00-1.169-3.212l-2.478-1.155a2.422 2.422 0 00-.614-.19v-2.461h1.703zM91.592 56.38a.096.096 0 01-.036.074l-5.549 4.537a.096.096 0 01-.12-.001l-5.547-4.537a.095.095 0 01-.036-.073v-2.13l11.288-4.108v6.236zm4.33-12.442l-.867 1.859-17.221 6.267-1.859-.866.867-1.859 6.702-2.439a1.45 1.45 0 00-.992-2.725l-2.248.818V42.65l11.288-4.109v2.342l-2.61.95a1.45 1.45 0 00.991 2.726l4.09-1.488 1.858.866zm0-11.601l-.867 1.858-17.221 6.268-1.859-.867.867-1.858 17.22-6.268 1.86.867zM80.303 33.39v-2.342l11.288-4.108v2.341L80.304 33.39zM95.92 20.734l-.866 1.859-17.221 6.267-1.859-.866.867-1.859 17.22-6.268 1.86.867zm-15.617 1.054v-7.285h11.288v3.177l-11.288 4.108zm-4.507-10.186V5.318a2.42 2.42 0 012.417-2.417h3.336v2.997a2.807 2.807 0 002.804 2.804h3.093a2.807 2.807 0 002.804-2.804V2.901h3.432A2.42 2.42 0 0196.1 5.318v6.284H75.797z" fill="#525A68"/></svg>