<svg width="99" height="99" fill="none" xmlns="http://www.w3.org/2000/svg"><g clip-path="url(#clip0)"><path d="M93.288 22.46c-3.37-.012-5.053-4.09-2.667-6.475a4.242 4.242 0 000-6L88.946 8.31c-1.657-1.657-4.283-1.574-5.946.076-2.391 2.374-6.465.681-6.465-2.693a4.242 4.242 0 00-4.242-4.242h-2.277a4.242 4.242 0 00-4.242 4.242c0 3.38-4.086 5.072-6.476 2.682a4.242 4.242 0 00-6 0l-1.61 1.61a4.242 4.242 0 000 6c2.386 2.386.703 6.463-2.666 6.476-2.343.009-4.258 1.807-4.258 4.15v2.37a4.242 4.242 0 004.242 4.242c3.38 0 5.072 4.086 2.682 6.476a4.242 4.242 0 000 6l1.61 1.61a4.242 4.242 0 006 0c2.39-2.39 6.476-.698 6.476 2.682 0 2.343 1.9 4.242 4.242 4.242h2.278c2.343 0 4.242-1.9 4.242-4.242 0-3.38 4.086-5.072 6.476-2.682a4.242 4.242 0 006 0l1.61-1.61a4.242 4.242 0 000-6c-2.387-2.386-.703-6.463 2.666-6.476 2.343-.009 4.258-1.807 4.258-4.15V26.61c0-2.343-1.916-4.141-4.258-4.15zM71.896 39.227c-6.885.435-12.56-5.241-12.125-12.125.358-5.678 4.965-10.284 10.643-10.643 6.884-.435 12.56 5.24 12.124 12.125-.358 5.677-4.965 10.284-10.642 10.643z" fill="#FFE073"/><path d="M93.288 22.46c-3.37-.012-5.053-4.09-2.667-6.475a4.242 4.242 0 000-6L88.946 8.31c-1.657-1.657-4.283-1.574-5.946.076-2.391 2.373-6.465.681-6.465-2.693a4.243 4.243 0 00-4.242-4.243h-2.277a4.224 4.224 0 00-2.755 1.018c10.684 3.485 18.404 13.527 18.404 25.374s-7.72 21.889-18.404 25.374a4.224 4.224 0 002.755 1.017h2.277c2.343 0 4.242-1.9 4.242-4.242 0-3.38 4.087-5.072 6.476-2.682a4.242 4.242 0 006 0l1.61-1.61a4.242 4.242 0 000-6c-2.386-2.386-.703-6.464 2.667-6.476 2.342-.009 4.258-1.807 4.258-4.15V26.61c0-2.343-1.916-4.141-4.258-4.15z" fill="#FFC80A"/><path d="M47.5 61.884a2.598 2.598 0 01-2.266-2.576V47.426H27.08v11.882c0 1.306-.97 2.408-2.265 2.576 0 0-3.4 11.442 11.342 11.442S47.5 61.884 47.5 61.884z" fill="#FFECE3"/><path d="M33.353 47.426v16.9c0 1.306.97 2.408 2.265 2.576 2.66.345 7.211 1.018 11.142 2.007 1.869-3.221.739-7.025.739-7.025a2.598 2.598 0 01-2.265-2.576V47.426H33.353z" fill="#FFDDCE"/><path d="M53.361 30.85h-1.098v-4.372c0-4.352-1.787-8.57-5.085-11.41-2.585-2.226-6.22-4.17-11.021-4.223-4.802.053-8.436 1.997-11.022 4.223-3.298 2.84-5.085 7.057-5.085 11.41v4.372h-1.098a2.915 2.915 0 00-2.915 2.915v3.23a2.915 2.915 0 002.915 2.915h1.103c.09 4.23 1.868 8.303 5.08 11.068 2.586 2.227 6.22 4.17 11.022 4.224 4.801-.054 8.436-1.997 11.022-4.224 3.212-2.765 4.99-6.837 5.08-11.068h1.103a2.915 2.915 0 002.915-2.915v-3.23a2.916 2.916 0 00-2.916-2.916z" fill="#FFECE3"/><path d="M53.362 30.85h-1.098v-4.373c0-4.352-1.787-8.57-5.085-11.409-1.757-1.512-3.998-2.893-6.759-3.641l-.003 28.483c-.09 4.23-1.868 8.302-5.08 11.068-1.39 1.197-3.085 2.312-5.1 3.096a16.736 16.736 0 005.92 1.127c4.802-.053 8.436-1.997 11.022-4.223 3.212-2.766 4.99-6.838 5.08-11.068h1.103a2.915 2.915 0 002.915-2.915v-3.23a2.916 2.916 0 00-2.915-2.916z" fill="#FFDDCE"/><path d="M64.7 97.55a6.16 6.16 0 006.16-6.16V76.971a12.64 12.64 0 00-7.498-11.546c-4.152-1.848-12-3.04-15.863-3.541l-11.342 7.094-11.342-7.094c-3.863.501-11.71 1.693-15.862 3.541a12.639 12.639 0 00-7.498 11.546V91.39a6.16 6.16 0 006.16 6.16H64.7z" fill="#F6F9F9"/><path d="M63.362 65.425c-4.152-1.848-12-3.04-15.863-3.541l-8.736 5.464c4.08.628 9.505 1.665 12.718 3.095a12.639 12.639 0 017.498 11.546v14.42c0 .39-.038.77-.108 1.141H64.7a6.16 6.16 0 006.16-6.16V76.971a12.64 12.64 0 00-7.498-11.546z" fill="#E7ECF1"/><path d="M42.43 9.886H29.77a5.293 5.293 0 00-4.997 3.546 1.933 1.933 0 01-1.83 1.286 5.335 5.335 0 00-5.335 5.335v11.125s4.682-.056 6.265 1.506a.525.525 0 00.895-.371V25a4.598 4.598 0 014.598-4.598h.055c.76 0 1.513.118 2.232.344 1.369.431 2.785.69 4.22.69h.568c1.435 0 2.851-.259 4.22-.69a7.433 7.433 0 012.232-.344h.055A4.598 4.598 0 0147.546 25v6.783c0 .685.555 1.24 1.24 1.24h.005c1.051 0 2.072-.305 2.979-.838 1.418-.832 2.936-1.007 2.936-1.007v-9.016c0-6.78-5.496-12.276-12.276-12.276z" fill="#AA8080"/><path d="M42.43 9.886h-2.01l-.001 10.932c.08-.024.162-.047.242-.072a7.433 7.433 0 012.232-.344h.055A4.598 4.598 0 0147.546 25v6.783c0 .685.555 1.24 1.24 1.24h.005c1.051 0 2.072-.306 2.979-.838 1.418-.832 2.936-1.008 2.936-1.008v-9.015c0-6.78-5.497-12.276-12.277-12.276z" fill="#9D6B6B"/><path d="M21.293 66.866l6.52 5.595a2.679 2.679 0 003.31.142l5.034-3.625-11.342-7.094c-.627.081-1.36.18-2.163.298-2.274.333-3.103 3.187-1.359 4.684zm29.727 0l-6.518 5.595a2.679 2.679 0 01-3.31.142l-5.035-3.625 11.342-7.094c.627.081 1.359.18 2.163.298 2.274.333 3.102 3.187 1.358 4.684z" fill="#E7ECF1"/><path d="M36.157 68.978l-5.034 3.625 2.38 3.345h5.307l2.382-3.345-5.035-3.625zm5.576 28.572L38.81 75.948h-5.306L30.58 97.55h11.152z" fill="#FFC80A"/><path d="M70.322 15.01c-6.434.407-11.592 5.566-11.999 12-.489 7.74 5.902 14.155 13.664 13.663 6.433-.407 11.592-5.565 11.998-11.999.49-7.738-5.9-14.155-13.663-13.663zm10.77 13.481c-.316 4.98-4.308 8.973-9.288 9.288-6.04.377-10.964-4.603-10.586-10.587.314-4.98 4.307-8.972 9.287-9.287 6.008-.378 10.966 4.574 10.586 10.586z" fill="#525A68"/><path d="M93.293 21.01c-2.09-.008-3.124-2.522-1.647-4a5.654 5.654 0 001.668-4.025c0-1.52-.592-2.95-1.667-4.025L89.97 7.284c-2.212-2.212-5.723-2.18-7.992.073-1.483 1.472-3.993.425-3.993-1.665A5.699 5.699 0 0072.293 0h-2.277a5.699 5.699 0 00-5.693 5.692c0 2.092-2.516 3.141-4 1.657a5.654 5.654 0 00-4.025-1.667c-1.52 0-2.95.592-4.025 1.667l-1.61 1.61a5.673 5.673 0 00-1.074 1.496 13.642 13.642 0 00-7.16-2.02H29.77a6.75 6.75 0 00-6.366 4.519.482.482 0 01-.46.314 6.793 6.793 0 00-6.785 6.785 1.45 1.45 0 002.9 0 3.89 3.89 0 013.885-3.885 3.385 3.385 0 003.198-2.258 3.846 3.846 0 013.628-2.575h12.66c5.97 0 10.827 4.857 10.827 10.826v7.844c-2.246.63-2.546 1.472-4.26 1.562V25a6.055 6.055 0 00-6.048-6.047h-.055c-2.483 0-3.497 1.033-6.452 1.033h-.568c-2.924 0-3.988-1.033-6.452-1.033h-.055A6.055 6.055 0 0023.319 25v5.654c-1.373-.581-3.049-.8-4.26-.882v-2.857a1.45 1.45 0 00-2.9 0v3.499a4.347 4.347 0 00-1.57 3.351v3.23a4.37 4.37 0 004.106 4.358c.434 4.203 2.393 8.053 5.496 10.725.47.404.95.78 1.44 1.131v6.1c0 .574-.43 1.063-1.001 1.138-4.248.55-12.008 1.758-16.266 3.654a14.102 14.102 0 00-8.36 12.87V91.39c0 4.196 3.414 7.61 7.61 7.61H64.7c4.196 0 7.61-3.414 7.61-7.61v-4.897a1.45 1.45 0 00-2.9 0v4.897a4.715 4.715 0 01-4.71 4.71h-3.726v-7.908a1.45 1.45 0 00-2.9 0V96.1H43l-2.676-19.778 1.358-1.908a4.11 4.11 0 001.076.147 4.12 4.12 0 002.688-1l6.52-5.595a4.077 4.077 0 001.399-3.71c3.343.605 7.05 1.445 9.407 2.494a11.2 11.2 0 016.638 10.22v2.746a1.45 1.45 0 002.9 0V76.97c0-5.558-3.281-10.61-8.358-12.87-4.258-1.896-12.02-3.104-16.266-3.655a1.151 1.151 0 01-1.002-1.139v-6.099c.49-.351.97-.727 1.44-1.131a15.759 15.759 0 003.523-4.37l.626.626a5.69 5.69 0 008.05 0c1.48-1.48 4-.441 4 1.657a5.699 5.699 0 005.693 5.693h2.277a5.699 5.699 0 005.693-5.693c0-2.093 2.518-3.14 4-1.657A5.655 5.655 0 0086.011 50c1.521 0 2.95-.593 4.025-1.667l1.61-1.61a5.699 5.699 0 000-8.051c-1.477-1.478-.442-3.993 1.647-4 3.198-.013 5.703-2.473 5.703-5.6V26.61c0-3.128-2.505-5.588-5.703-5.6zm-55.23 53.487H34.25l-1.111-1.56 3.017-2.173 3.017 2.172-1.111 1.561zm-7.788-3.071a1.225 1.225 0 01-1.518-.065l-6.52-5.595c-.556-.478-.43-1.096-.379-1.274.052-.177.273-.757.984-.871a133.2 133.2 0 011.646-.231l9.07 5.672-3.283 2.364zM2.905 91.39V76.971A11.2 11.2 0 019.541 66.75c2.356-1.05 6.064-1.89 9.407-2.494a4.077 4.077 0 001.4 3.71l6.519 5.596a4.12 4.12 0 002.688.999c.361 0 .723-.05 1.076-.147l1.357 1.908L29.314 96.1H14.24v-7.907a1.45 1.45 0 00-2.9 0V96.1H7.614a4.715 4.715 0 01-4.71-4.71zM32.24 96.1l2.53-18.702h2.773l2.53 18.702H32.24zm18.215-31.608c.052.178.177.796-.38 1.274l-6.518 5.595a1.225 1.225 0 01-1.518.065l-3.283-2.364 9.07-5.673c.482.065 1.038.142 1.646.232.71.114.932.694.983.87zm-5.721-2.59l-8.577 5.365-8.577-5.364c.593-.708.95-1.615.95-2.595V54.92c4.866 2.307 10.386 2.307 15.254 0v4.387c0 .98.356 1.887.95 2.595zm1.498-12.023c-5.987 5.156-14.162 5.157-20.15 0-2.825-2.432-4.493-6.077-4.577-10a1.45 1.45 0 00-1.45-1.42h-1.102a1.467 1.467 0 01-1.466-1.465v-3.23c0-.447.205-.858.545-1.133 1.668.037 4.102.374 4.823 1.085a1.974 1.974 0 003.363-1.403V25a3.151 3.151 0 013.148-3.148c2.666.196 3.29 1.033 6.507 1.033h.568c3.328 0 4.587-1.033 6.452-1.033h.055A3.151 3.151 0 0146.096 25v6.783a2.694 2.694 0 002.695 2.69c2.744 0 3.485-1.275 5.587-1.76.282.272.448.648.448 1.051v3.23c0 .809-.657 1.466-1.465 1.466H52.26a1.45 1.45 0 00-1.45 1.419c-.084 3.923-1.752 7.568-4.577 10zm49.864-20.807c0 1.508-1.236 2.694-2.814 2.7-4.665.018-6.982 5.656-3.686 8.952a2.795 2.795 0 010 3.949l-1.61 1.61a2.774 2.774 0 01-1.975.818 2.77 2.77 0 01-1.974-.818c-3.303-3.302-8.952-.969-8.952 3.708a2.795 2.795 0 01-2.792 2.792h-2.277a2.795 2.795 0 01-2.792-2.792c0-4.671-5.645-7.014-8.952-3.708a2.79 2.79 0 01-3.948 0l-1.442-1.442c.363-1.122.615-2.29.739-3.489a4.37 4.37 0 004.105-4.357v-3.23a4.347 4.347 0 00-1.57-3.352v-8.251c0-3.859-1.603-7.348-4.175-9.844.12-.492.369-.944.732-1.307l1.61-1.61a2.774 2.774 0 011.974-.818c.746 0 1.448.29 1.975.818 3.302 3.302 8.951.969 8.951-3.708A2.795 2.795 0 0170.015 2.9h2.278a2.795 2.795 0 012.792 2.792c0 4.667 5.63 7.004 8.936 3.722 1.12-1.11 2.832-1.146 3.899-.08l1.675 1.676c.528.527.818 1.228.818 1.974s-.29 1.447-.818 1.974c-3.3 3.3-.972 8.934 3.687 8.952 1.577.006 2.813 1.192 2.813 2.7v2.461z" fill="#525A68"/></g><defs><clipPath id="clip0"><path fill="#fff" d="M0 0h99v99H0z"/></clipPath></defs></svg>