<svg width="99" height="99" viewBox="0 0 99 99" fill="none" xmlns="http://www.w3.org/2000/svg">
<path d="M92.4749 57.5763L86.9272 62.1123C86.3576 62.5781 85.5385 62.5781 84.9689 62.1123L79.4212 57.5763C79.062 57.2826 78.8535 56.8429 78.8535 56.3788V13.053H93.0426V56.3788C93.0426 56.8431 92.8342 57.2826 92.4749 57.5763Z" fill="#EBF4FF"/>
<path d="M87.242 13.053V56.3788C87.242 56.8429 87.0336 57.2826 86.6743 57.5763L83.0479 60.5415L84.9691 62.1125C85.5387 62.5783 86.3578 62.5783 86.9274 62.1125L92.4751 57.5765C92.8344 57.2826 93.0428 56.8431 93.0428 56.379V13.053H87.242Z" fill="white"/>
<path d="M95.739 23.8878L78.1416 30.2926C77.9007 30.3804 77.6348 30.3688 77.4024 30.2603L74.9241 29.1046C74.4401 28.879 74.2309 28.3037 74.4566 27.8197L75.6123 25.3415C75.7206 25.109 75.9168 24.9292 76.1577 24.8416L93.7552 18.4368C93.9961 18.349 94.262 18.3606 94.4944 18.4691L96.9727 19.6248C97.4567 19.8504 97.6659 20.4257 97.4402 20.9097L96.2845 23.388C96.1762 23.6204 95.98 23.8 95.739 23.8878Z" fill="white"/>
<path d="M96.9729 19.6248L94.4946 18.4691C94.2622 18.3606 93.9963 18.349 93.7554 18.4368L90.8737 19.4856L91.1721 19.6246C91.6561 19.8502 91.8653 20.4255 91.6396 20.9095L90.4839 23.3878C90.3756 23.6202 90.1794 23.8 89.9385 23.8876L75.2227 29.2437L77.4026 30.2601C77.635 30.3686 77.9009 30.3802 78.1418 30.2924L95.7392 23.8874C95.9802 23.7996 96.1764 23.6198 96.2847 23.3876L97.4404 20.9093C97.6663 20.4257 97.4569 19.8504 96.9729 19.6248Z" fill="white"/>
<path d="M95.739 35.4893L78.1416 41.8942C77.9007 41.982 77.6348 41.9704 77.4024 41.8619L74.9241 40.7062C74.4401 40.4805 74.2309 39.9053 74.4566 39.4213L75.6123 36.943C75.7206 36.7106 75.9168 36.5308 76.1577 36.4432L93.7552 30.0384C93.9961 29.9506 94.262 29.9622 94.4944 30.0706L96.9727 31.2264C97.4567 31.452 97.6659 32.0272 97.4402 32.5112L96.2845 34.9895C96.1762 35.2217 95.98 35.4016 95.739 35.4893Z" fill="white"/>
<path d="M96.9729 31.2264L94.4946 30.0706C94.2622 29.9622 93.9963 29.9506 93.7554 30.0384L90.8737 31.0871L91.1721 31.2262C91.6561 31.4518 91.8653 32.0271 91.6396 32.511L90.4839 34.9893C90.3756 35.2217 90.1794 35.4016 89.9385 35.4892L75.2227 40.8452L77.4026 41.8617C77.635 41.9702 77.9009 41.9818 78.1418 41.894L95.7392 35.489C95.9802 35.4012 96.1764 35.2214 96.2847 34.9891L97.4404 32.5108C97.6663 32.0272 97.4569 31.452 96.9729 31.2264Z" fill="white"/>
<path d="M95.739 47.0909L78.1416 53.4957C77.9007 53.5835 77.6348 53.5717 77.4024 53.4634L74.9241 52.3077C74.4401 52.0821 74.2309 51.5068 74.4566 51.0229L75.6123 48.5446C75.7206 48.3122 75.9168 48.1323 76.1577 48.0447L93.7552 41.6399C93.9961 41.5521 94.262 41.5637 94.4944 41.6722L96.9727 42.8279C97.4567 43.0536 97.6659 43.6288 97.4402 44.1128L96.2845 46.5911C96.1762 46.8233 95.98 47.0031 95.739 47.0909Z" fill="white"/>
<path d="M96.9729 42.8279L94.4946 41.6722C94.2622 41.5637 93.9963 41.5521 93.7554 41.6399L90.8737 42.6887L91.1721 42.8277C91.6561 43.0534 91.8653 43.6286 91.6396 44.1126L90.4839 46.5909C90.3756 46.8233 90.1794 47.0031 89.9385 47.0907L75.2227 52.4468L77.4026 53.4633C77.635 53.5717 77.9009 53.5833 78.1418 53.4956L95.7392 47.0905C95.9802 47.0027 96.1764 46.8229 96.2847 46.5907L97.4404 44.1124C97.6663 43.6288 97.4569 43.0536 96.9729 42.8279Z" fill="white"/>
<path d="M88.8009 2.80493V5.89868C88.8009 6.64621 88.1949 7.25219 87.4474 7.25219H84.3536C83.6061 7.25219 83.0001 6.64621 83.0001 5.89868V2.80493C83.0001 2.0574 82.3941 1.45142 81.6466 1.45142H78.2139C76.078 1.45142 74.3467 3.18276 74.3467 5.3186V11.6995C74.3467 12.447 74.9527 13.053 75.7002 13.053H96.1963C96.9438 13.053 97.5498 12.447 97.5498 11.6995V5.3186C97.5498 3.18276 95.8185 1.45142 93.6826 1.45142H90.1544C89.4069 1.45142 88.8009 2.0574 88.8009 2.80493Z" fill="#FFC600"/>
<path d="M93.6828 1.45142H90.1546C89.8434 1.45142 89.5577 1.55757 89.3291 1.73391C90.7474 2.30703 91.7492 3.69477 91.7492 5.3186V11.6995C91.7492 12.447 91.1432 13.053 90.3957 13.053H96.1965C96.944 13.053 97.55 12.447 97.55 11.6995V5.3186C97.55 3.18276 95.8186 1.45142 93.6828 1.45142Z" fill="#FFC80A"/>
<path d="M56.0267 92.6656L50.479 97.2017C49.9093 97.6675 49.0903 97.6675 48.5206 97.2017L42.973 92.6656C42.6137 92.3719 42.4053 91.9322 42.4053 91.4682V48.1423H56.5944V91.4682C56.5944 91.9322 56.3859 92.3719 56.0267 92.6656Z" fill="#EBF4FF"/>
<path d="M50.7938 48.1423V91.4682C50.7938 91.9322 50.5853 92.3719 50.2261 92.6657L46.5996 95.6308L48.5208 97.2019C49.0905 97.6677 49.9095 97.6677 50.4792 97.2019L56.0268 92.6658C56.3861 92.3719 56.5946 91.9324 56.5946 91.4684V48.1423H50.7938Z" fill="white"/>
<path d="M59.2908 58.9766L41.6934 65.3814C41.4524 65.4692 41.1866 65.4574 40.9541 65.3491L38.4759 64.1934C37.9919 63.9678 37.7827 63.3925 38.0083 62.9086L39.164 60.4303C39.2723 60.1979 39.4686 60.018 39.7095 59.9304L57.3069 53.5256C57.5479 53.4378 57.8137 53.4496 58.0461 53.5579L60.5244 54.7136C61.0084 54.9392 61.2176 55.5145 60.992 55.9985L59.8363 58.4768C59.728 58.709 59.5317 58.8888 59.2908 58.9766Z" fill="white"/>
<path d="M60.5246 54.7141L58.0464 53.5584C57.8139 53.45 57.5481 53.4384 57.3071 53.5261L54.4255 54.5749L54.7239 54.714C55.2078 54.9396 55.4171 55.5148 55.1914 55.9988L54.0357 58.4771C53.9274 58.7095 53.7312 58.8894 53.4902 58.977L38.7744 64.333L40.9543 65.3495C41.1868 65.458 41.4526 65.4696 41.6936 65.3818L59.291 58.9768C59.5319 58.889 59.7282 58.7091 59.8365 58.4769L60.9922 55.9986C61.218 55.515 61.0086 54.9398 60.5246 54.7141Z" fill="white"/>
<path d="M59.2908 70.5782L41.6934 76.983C41.4524 77.0708 41.1866 77.059 40.9541 76.9507L38.4759 75.795C37.9919 75.5693 37.7827 74.9941 38.0083 74.5101L39.164 72.0318C39.2723 71.7994 39.4686 71.6196 39.7095 71.532L57.3069 65.1272C57.5479 65.0394 57.8137 65.0512 58.0461 65.1594L60.5244 66.3152C61.0084 66.5408 61.2176 67.1161 60.992 67.6L59.8363 70.0783C59.728 70.3105 59.5317 70.4904 59.2908 70.5782Z" fill="white"/>
<path d="M60.5246 66.3157L58.0464 65.16C57.8139 65.0515 57.5481 65.0399 57.3071 65.1277L54.4255 66.1765L54.7239 66.3155C55.2078 66.5412 55.4171 67.1164 55.1914 67.6004L54.0357 70.0787C53.9274 70.3111 53.7312 70.4909 53.4902 70.5785L38.7744 75.9346L40.9543 76.9511C41.1868 77.0595 41.4526 77.0711 41.6936 76.9834L59.291 70.5783C59.5319 70.4905 59.7282 70.3107 59.8365 70.0785L60.9922 67.6002C61.218 67.1166 61.0086 66.5414 60.5246 66.3157Z" fill="white"/>
<path d="M59.2908 82.1797L41.6934 88.5846C41.4524 88.6723 41.1866 88.6606 40.9541 88.5523L38.4759 87.3966C37.9919 87.1709 37.7827 86.5957 38.0083 86.1117L39.164 83.6334C39.2723 83.401 39.4686 83.2212 39.7095 83.1336L57.3069 76.7287C57.5479 76.6409 57.8137 76.6527 58.0461 76.761L60.5244 77.9167C61.0084 78.1424 61.2176 78.7176 60.992 79.2016L59.8363 81.6799C59.728 81.9121 59.5317 82.0919 59.2908 82.1797Z" fill="white"/>
<path d="M60.5246 77.9173L58.0464 76.7616C57.8139 76.6531 57.5481 76.6415 57.3071 76.7293L54.4255 77.7781L54.7239 77.9171C55.2078 78.1427 55.4171 78.718 55.1914 79.202L54.0357 81.6802C53.9274 81.9127 53.7312 82.0925 53.4902 82.1801L38.7744 87.5361L40.9543 88.5526C41.1868 88.6611 41.4526 88.6727 41.6936 88.5849L59.291 82.1799C59.5319 82.0921 59.7282 81.9123 59.8365 81.68L60.9922 79.2018C61.218 78.7182 61.0086 78.1429 60.5246 77.9173Z" fill="white"/>
<path d="M52.3526 37.8943V40.988C52.3526 41.7356 51.7466 42.3416 50.9991 42.3416H47.9054C47.1578 42.3416 46.5519 41.7356 46.5519 40.988V37.8943C46.5519 37.1468 45.9459 36.5408 45.1983 36.5408H41.7656C39.6298 36.5408 37.8984 38.2721 37.8984 40.408V46.7888C37.8984 47.5363 38.5044 48.1423 39.252 48.1423H59.748C60.4956 48.1423 61.1016 47.5363 61.1016 46.7888V40.408C61.1016 38.2721 59.3702 36.5408 57.2344 36.5408H53.7061C52.9586 36.5408 52.3526 37.1468 52.3526 37.8943Z" fill="#FFC600"/>
<path d="M57.2345 36.5408H53.7063C53.3952 36.5408 53.1094 36.6469 52.8809 36.8233C54.2992 37.3964 55.3009 38.7841 55.3009 40.408V46.7888C55.3009 47.5363 54.695 48.1423 53.9474 48.1423H59.7482C60.4957 48.1423 61.1017 47.5363 61.1017 46.7888V40.408C61.1017 38.2721 59.3704 36.5408 57.2345 36.5408Z" fill="#FFC80A"/>
<path d="M19.5784 57.5763L14.0308 62.1123C13.4611 62.5781 12.642 62.5781 12.0724 62.1123L6.52473 57.5763C6.16547 57.2826 5.95703 56.8429 5.95703 56.3788V13.053H20.1461V56.3788C20.1461 56.8431 19.9377 57.2826 19.5784 57.5763Z" fill="#EBF4FF"/>
<path d="M14.3455 13.053V56.3788C14.3455 56.8429 14.1371 57.2826 13.7778 57.5763L10.1514 60.5415L12.0726 62.1125C12.6422 62.5783 13.4613 62.5783 14.0309 62.1125L19.5786 57.5765C19.9379 57.2826 20.1463 56.8431 20.1463 56.379V13.053H14.3455Z" fill="white"/>
<path d="M22.8426 23.8878L5.24512 30.2926C5.00419 30.3804 4.73832 30.3686 4.5059 30.2603L2.02762 29.1046C1.54364 28.879 1.33442 28.3037 1.56007 27.8198L2.71578 25.3415C2.82406 25.109 3.02032 24.9292 3.26125 24.8416L20.8587 18.4368C21.0996 18.349 21.3655 18.3606 21.5979 18.4691L24.0762 19.6248C24.5602 19.8504 24.7694 20.4257 24.5437 20.9097L23.388 23.388C23.2797 23.6202 23.0835 23.8 22.8426 23.8878Z" fill="white"/>
<path d="M24.0764 19.6248L21.5981 18.4691C21.3657 18.3606 21.0998 18.349 20.8589 18.4368L17.9773 19.4856L18.2756 19.6246C18.7596 19.8502 18.9688 20.4255 18.7432 20.9095L17.5874 23.3878C17.4792 23.6202 17.2829 23.8 17.042 23.8876L2.32617 29.2437L4.50611 30.2601C4.73852 30.3686 5.00439 30.3802 5.24532 30.2924L22.8428 23.8874C23.0837 23.7996 23.2799 23.6198 23.3882 23.3876L24.5439 20.9093C24.7698 20.4257 24.5604 19.8504 24.0764 19.6248Z" fill="white"/>
<path d="M22.8426 35.4893L5.24512 41.8942C5.00419 41.982 4.73832 41.9702 4.5059 41.8619L2.02762 40.7062C1.54364 40.4805 1.33442 39.9053 1.56007 39.4213L2.71578 36.943C2.82406 36.7106 3.02032 36.5308 3.26125 36.4432L20.8587 30.0384C21.0996 29.9506 21.3655 29.9622 21.5979 30.0706L24.0762 31.2264C24.5602 31.452 24.7694 32.0272 24.5437 32.5112L23.388 34.9895C23.2797 35.2217 23.0835 35.4016 22.8426 35.4893Z" fill="white"/>
<path d="M24.0764 31.2264L21.5981 30.0706C21.3657 29.9622 21.0998 29.9506 20.8589 30.0384L17.9773 31.0871L18.2756 31.2262C18.7596 31.4518 18.9688 32.0271 18.7432 32.511L17.5874 34.9893C17.4792 35.2217 17.2829 35.4016 17.042 35.4892L2.32617 40.8452L4.50611 41.8617C4.73852 41.9702 5.00439 41.9818 5.24532 41.894L22.8428 35.489C23.0837 35.4012 23.2799 35.2214 23.3882 34.9891L24.5439 32.5108C24.7698 32.0272 24.5604 31.452 24.0764 31.2264Z" fill="white"/>
<path d="M22.8426 47.0909L5.24512 53.4957C5.00419 53.5835 4.73832 53.5717 4.5059 53.4634L2.02762 52.3077C1.54364 52.0821 1.33442 51.5068 1.56007 51.0229L2.71578 48.5446C2.82406 48.3122 3.02032 48.1323 3.26125 48.0447L20.8587 41.6399C21.0996 41.5521 21.3655 41.5637 21.5979 41.6722L24.0762 42.8279C24.5602 43.0536 24.7694 43.6288 24.5437 44.1128L23.388 46.5911C23.2797 46.8233 23.0835 47.0031 22.8426 47.0909Z" fill="white"/>
<path d="M24.0764 42.8279L21.5981 41.6722C21.3657 41.5637 21.0998 41.5521 20.8589 41.6399L17.9773 42.6887L18.2756 42.8277C18.7596 43.0534 18.9688 43.6286 18.7432 44.1126L17.5874 46.5909C17.4792 46.8233 17.2829 47.0031 17.042 47.0907L2.32617 52.4468L4.50611 53.4633C4.73852 53.5717 5.00439 53.5833 5.24532 53.4956L22.8428 47.0905C23.0837 47.0027 23.2799 46.8229 23.3882 46.5907L24.5439 44.1124C24.7698 43.6288 24.5604 43.0536 24.0764 42.8279Z" fill="white"/>
<path d="M15.9044 2.80493V5.89868C15.9044 6.64621 15.2984 7.25219 14.5509 7.25219H11.4571C10.7096 7.25219 10.1036 6.64621 10.1036 5.89868V2.80493C10.1036 2.0574 9.49762 1.45142 8.75009 1.45142H5.31738C3.18154 1.45142 1.4502 3.18276 1.4502 5.3186V11.6995C1.4502 12.447 2.05618 13.053 2.80371 13.053H23.2998C24.0473 13.053 24.6533 12.447 24.6533 11.6995V5.3186C24.6533 3.18276 22.922 1.45142 20.7861 1.45142H17.2579C16.5104 1.45142 15.9044 2.0574 15.9044 2.80493Z" fill="#FFC600"/>
<path d="M20.7863 1.45142H17.2581C16.947 1.45142 16.6612 1.55757 16.4326 1.73391C17.8509 2.30722 18.8527 3.69477 18.8527 5.3186V11.6995C18.8527 12.447 18.2467 13.053 17.4992 13.053H23.3C24.0475 13.053 24.6535 12.447 24.6535 11.6995V5.3186C24.6535 3.18276 22.9221 1.45142 20.7863 1.45142Z" fill="#FFC80A"/>
<path d="M57.2344 35.09H53.7061C52.1602 35.09 50.9024 36.3478 50.9024 37.8938V40.8908H48.002V37.8938C48.002 36.3478 46.7442 35.09 45.1983 35.09H41.7656C38.8335 35.09 36.4482 37.4755 36.4482 40.4074V46.7883C36.4482 48.3342 37.706 49.592 39.252 49.592H40.9554V57.9335L39.2137 58.5675C38.6067 58.7884 38.1223 59.2323 37.8493 59.8174L36.6936 62.2957C36.4206 62.8806 36.392 63.5371 36.613 64.1438C36.834 64.7506 37.2776 65.235 37.8627 65.5078L40.3408 66.6635C40.5388 66.7559 40.7455 66.8168 40.9553 66.853V69.5353L39.2135 70.1693C38.6065 70.3901 38.1222 70.8341 37.8491 71.4192L36.6934 73.8975C36.4204 74.4824 36.3918 75.1388 36.6128 75.7456C36.8338 76.3523 37.2774 76.8367 37.8625 77.1095L40.3406 78.2653C40.5386 78.3577 40.7453 78.4186 40.9551 78.4548V81.137L39.2133 81.7711C38.6063 81.9919 38.122 82.4358 37.8489 83.0209L36.6932 85.4992C36.4202 86.0841 36.3916 86.7406 36.6126 87.3473C36.8336 87.9541 37.2772 88.4385 37.8623 88.7113L40.3404 89.867C40.5384 89.9594 40.7451 90.0203 40.9549 90.0565V91.4684C40.9549 92.3706 41.3561 93.2162 42.0555 93.7879L47.6016 98.323C48.1517 98.7739 48.8259 98.9994 49.4998 98.9994C50.1733 98.9994 50.8467 98.7743 51.3957 98.3242L56.943 93.7881C57.6426 93.2162 58.0438 92.3706 58.0438 91.4684V84.1768L59.7859 83.5428C60.3925 83.322 60.8769 82.8782 61.1497 82.2931L62.3054 79.8148C62.5784 79.2299 62.6071 78.5735 62.3861 77.9667C62.165 77.3599 61.7215 76.8756 61.1364 76.6028L58.6583 75.447C58.4603 75.3546 58.2536 75.2925 58.0438 75.2564V72.5751L59.7859 71.941C60.3925 71.7202 60.8769 71.2765 61.1497 70.6914L62.3054 68.2131C62.5784 67.6282 62.6071 66.9717 62.3861 66.3649C62.165 65.7582 61.7215 65.2738 61.1364 65.001L58.6583 63.8453C58.4603 63.7529 58.2536 63.6908 58.0438 63.6546V60.9733L59.7859 60.3393C60.3925 60.1185 60.8769 59.6747 61.1497 59.0896L62.3054 56.6113C62.5784 56.0264 62.6071 55.37 62.3861 54.7632C62.165 54.1564 61.7215 53.6721 61.1364 53.3992L58.6583 52.2435C58.4603 52.1511 58.2536 52.089 58.0438 52.0529V49.592H59.748C61.294 49.592 62.5518 48.3342 62.5518 46.7883V40.4074C62.5518 37.4753 60.1665 35.09 57.2344 35.09ZM55.1442 91.4678C55.1442 91.4961 55.131 91.5233 55.1078 91.5423L49.559 96.0796C49.5253 96.1071 49.4747 96.1069 49.4395 96.0785L43.892 91.5421C43.869 91.5233 43.8558 91.4963 43.8558 91.4678V89.3407L55.1442 85.232V91.4678ZM59.4733 79.0265L58.6066 80.8851L41.3855 87.153L39.5267 86.2864L40.3934 84.4278L57.6145 78.1599L59.4733 79.0265ZM43.8558 80.0809V77.7391L55.1442 73.6304V75.9722L43.8558 80.0809ZM59.4733 67.4249L58.6066 69.2835L41.3855 75.5515L39.5267 74.6848L40.3934 72.8262L57.6145 66.5583L59.4733 67.4249ZM43.8558 68.4793V66.1376L55.1442 62.0289V64.3706L43.8558 68.4793ZM59.4733 55.8234L58.6066 57.682L41.3855 63.9499L39.5267 63.0833L40.3934 61.2247L57.6145 54.9567L59.4733 55.8234ZM43.8558 56.8778V49.5918H55.1442V52.7691L43.8558 56.8778ZM59.6514 46.6916H39.3486V40.4074C39.3486 39.0746 40.4328 37.9904 41.7656 37.9904H45.1017V40.9875C45.1017 42.5334 46.3595 43.7912 47.9054 43.7912H50.9991C52.545 43.7912 53.8028 42.5334 53.8028 40.9875V37.9904H57.2344C58.5672 37.9904 59.6514 39.0746 59.6514 40.4074V46.6916ZM20.7861 0.000732422H17.2579C15.712 0.000732422 14.4542 1.25854 14.4542 2.80444V5.80151H11.5538V2.80444C11.5538 1.25854 10.296 0.000732422 8.75009 0.000732422H5.31738C2.38528 0.000732422 0 2.38621 0 5.31811V11.699C0 13.2449 1.2578 14.5027 2.80371 14.5027H4.50721V22.8442L2.76446 23.4784C2.15808 23.6996 1.67391 24.1432 1.40108 24.7281L0.245566 27.2064C-0.027457 27.7913 -0.0560742 28.4478 0.164936 29.0545C0.385945 29.6613 0.829512 30.1456 1.41462 30.4185L3.89271 31.5742C4.09071 31.6666 4.29741 31.7275 4.50721 31.7637V34.446L2.76446 35.0802C2.15808 35.3014 1.67391 35.7449 1.40108 36.3299L0.245566 38.808C-0.027457 39.3929 -0.0560742 40.0493 0.164936 40.6561C0.385945 41.2628 0.829512 41.7472 1.41462 42.02L3.89271 43.1758C4.09071 43.2682 4.29741 43.3291 4.50721 43.3652V46.0475L2.76446 46.6817C2.15808 46.9029 1.67391 47.3465 1.40108 47.9314L0.245566 50.4095C-0.027457 50.9944 -0.0560742 51.6509 0.164936 52.2576C0.385945 52.8644 0.829512 53.3488 1.41462 53.6216L3.89271 54.7773C4.09071 54.8697 4.29741 54.9306 4.50721 54.9668V56.3787C4.50721 57.2809 4.90843 58.1265 5.60781 58.6982L11.1541 63.2335C11.704 63.6842 12.3781 63.9095 13.0521 63.9095C13.7256 63.9093 14.3993 63.6844 14.9482 63.2345L20.4955 58.6984C21.1951 58.1265 21.5963 57.2809 21.5963 56.3787V49.0871L23.3385 48.4531C23.945 48.2323 24.4294 47.7885 24.7022 47.2034L25.8579 44.7249C26.4212 43.5172 25.8966 42.0763 24.6889 41.5132L22.2108 40.3575C22.0128 40.2651 21.8061 40.203 21.5963 40.1669V37.4856L23.3385 36.8515C23.945 36.6307 24.4294 36.187 24.7022 35.6019L25.8579 33.1234C26.4212 31.9157 25.8966 30.4747 24.6889 29.9117L22.2108 28.756C22.0128 28.6635 21.8061 28.6015 21.5963 28.5653V25.8842L23.3381 25.2502C23.945 25.0294 24.4294 24.5854 24.7024 24.0003L25.8581 21.5218C26.4214 20.3141 25.8968 18.8732 24.6891 18.3101L22.211 17.1544C22.013 17.062 21.8063 16.9999 21.5965 16.9638V14.5027H23.3C24.8459 14.5027 26.1037 13.2449 26.1037 11.699V5.31811C26.1035 2.38621 23.7182 0.000732422 20.7861 0.000732422ZM18.6959 56.3785C18.6959 56.4068 18.6828 56.434 18.6596 56.453L13.1109 60.9901C13.0773 61.0176 13.0262 61.0178 12.9912 60.9892L7.44376 56.4528C7.42075 56.434 7.4076 56.4069 7.4076 56.3785V54.2514L18.6959 50.1427V56.3785ZM23.025 43.9372L22.1584 45.7958L4.93724 52.0637L3.07847 51.1971L3.9453 49.3383L21.1665 43.0706L23.025 43.9372ZM7.4076 44.9916V42.6498L18.6959 38.5411V40.8831L7.4076 44.9916ZM23.025 32.3356L22.1584 34.1942L4.93724 40.4621L3.07847 39.5955L3.9453 37.7367L21.1665 31.469L23.025 32.3356ZM7.4076 33.39V31.0483L18.6959 26.9396V29.2815L7.4076 33.39ZM23.025 20.7341L22.1584 22.5926L4.93724 28.8606L3.07847 27.9939L3.9453 26.1352L10.373 23.7957C11.1257 23.5217 11.5136 22.6895 11.2398 21.937C10.9658 21.1842 10.1332 20.7963 9.38102 21.0703L7.4076 21.7885V14.5027H18.6959V17.68L15.7536 18.751C15.0008 19.025 14.6129 19.8572 14.8867 20.6097C15.1607 21.3621 15.9928 21.75 16.7455 21.4764L21.1665 19.8674L23.025 20.7341ZM23.2031 11.6023H2.90039V5.31811C2.90039 3.98529 3.98456 2.90112 5.31738 2.90112H8.65341V5.89819C8.65341 7.4441 9.91121 8.7019 11.4571 8.7019H14.5509C16.0968 8.7019 17.3546 7.4441 17.3546 5.89819V2.90112H20.7861C22.119 2.90112 23.2031 3.98529 23.2031 5.31811V11.6023ZM96.1963 14.5027C97.7422 14.5027 99 13.2449 99 11.699V5.31811C99 2.38621 96.6147 0.000732422 93.6826 0.000732422H90.1544C88.6085 0.000732422 87.3507 1.25854 87.3507 2.80444V5.80151H84.4503V2.80444C84.4503 1.25854 83.1925 0.000732422 81.6466 0.000732422H78.2139C75.2818 0.000732422 72.8965 2.38621 72.8965 5.31811V11.699C72.8965 13.2449 74.1543 14.5027 75.7002 14.5027H77.4037V22.8442L75.6619 23.478C75.0553 23.6987 74.5708 24.1424 74.2976 24.7279L73.1419 27.2064C72.5786 28.4141 73.1032 29.855 74.3109 30.4181L76.789 31.5738C76.987 31.6662 77.1937 31.7271 77.4035 31.7633V34.4456L75.6617 35.0794C75.0551 35.3 74.5706 35.7438 74.2974 36.3293L73.1417 38.8078C72.5784 40.0155 73.103 41.4564 74.3107 42.0195L76.7888 43.1752C76.9868 43.2676 77.1935 43.3285 77.4033 43.3647V46.0469L75.6615 46.6808C75.055 46.9014 74.5704 47.3452 74.2972 47.9306L73.1415 50.4091C72.5782 51.6169 73.1028 53.0578 74.3105 53.6208L76.7886 54.7765C76.9866 54.869 77.1933 54.9299 77.4031 54.966V56.3781C77.4031 57.2807 77.8045 58.1263 78.5037 58.6975L84.0498 63.2325C84.5999 63.6834 85.2742 63.9089 85.948 63.9089C86.6215 63.9089 87.295 63.6838 87.8439 63.2337L93.391 58.6979C94.0908 58.1263 94.4922 57.2807 94.4922 56.3781V49.0866L96.234 48.4527C96.8406 48.2321 97.3251 47.7883 97.5983 47.2028L98.754 44.7244C99.3173 43.5166 98.7927 42.0757 97.585 41.5127L95.1069 40.357C94.9087 40.2645 94.7022 40.2025 94.4924 40.1663V37.485L96.2342 36.8512C96.8408 36.6305 97.3253 36.1868 97.5985 35.6013L98.7542 33.1228C99.3175 31.9151 98.7929 30.4742 97.5852 29.9111L95.1071 28.7554C94.9089 28.663 94.7024 28.6009 94.4926 28.5647V25.8834L96.2344 25.2496C96.841 25.029 97.3255 24.5852 97.5987 23.9997L98.7544 21.5212C99.3177 20.3135 98.7931 18.8726 97.5854 18.3095L95.1073 17.1538C94.9091 17.0614 94.7026 16.9993 94.4928 16.9632V14.5027H96.1963ZM91.5924 56.3785C91.5924 56.4068 91.5795 56.4336 91.5561 56.4528L86.0072 60.9901C85.9736 61.0174 85.9227 61.0174 85.8877 60.989L80.3399 56.4524C80.317 56.4336 80.3041 56.4069 80.3041 56.3785V54.2512L91.5924 50.1427V56.3785ZM95.9215 43.9372L95.0549 45.7958L77.8337 52.0635L75.975 51.1969L76.8416 49.3383L83.5438 46.8991C84.2966 46.6251 84.6844 45.7929 84.4107 45.0403C84.1367 44.2876 83.3039 43.9003 82.5519 44.1737L80.3041 44.9918V42.6498L91.5924 38.5413V40.8833L88.9815 41.8336C88.2287 42.1076 87.8408 42.9399 88.1146 43.6924C88.3886 44.445 89.2203 44.8321 89.9734 44.559L94.0628 43.0708L95.9215 43.9372ZM95.9215 32.3356L95.0549 34.1942L77.8337 40.462L75.975 39.5953L76.8416 37.7367L94.0628 31.469L95.9215 32.3356ZM80.3041 33.39V31.0481L91.5924 26.9396V29.2815L80.3041 33.39ZM95.9215 20.7341L95.0549 22.5926L77.8337 28.8604L75.975 27.9938L76.8416 26.1352L94.0628 19.8674L95.9215 20.7341ZM80.3041 21.7885V14.5027H91.5924V17.68L80.3041 21.7885ZM75.7969 11.6023V5.31811C75.7969 3.98529 76.881 2.90112 78.2139 2.90112H81.5499V5.89819C81.5499 7.4441 82.8077 8.7019 84.3536 8.7019H87.4474C88.9933 8.7019 90.2511 7.4441 90.2511 5.89819V2.90112H93.6826C95.0154 2.90112 96.0996 3.98529 96.0996 5.31811V11.6023H75.7969Z" fill="#525A68"/>
</svg>
