<svg width="99" height="99" viewBox="0 0 99 99" fill="none" xmlns="http://www.w3.org/2000/svg">
<g clip-path="url(#clip0)">
<path d="M93.2878 22.4607C89.9185 22.448 88.2349 18.3708 90.6212 15.9847C92.2779 14.328 92.2779 11.6421 90.6212 9.98537L88.9457 8.30991C87.2892 6.6534 84.663 6.73597 83.0003 8.38629C80.609 10.7598 76.5355 9.06711 76.5355 5.69279C76.5355 3.34986 74.6362 1.45068 72.2934 1.45068H70.016C67.6731 1.45068 65.7739 3.35005 65.7739 5.69279C65.7739 9.07252 61.6876 10.765 59.2979 8.37527C57.6412 6.71857 54.9553 6.71857 53.2986 8.37527L51.6883 9.98557C50.0316 11.6423 50.0316 14.3282 51.6883 15.9849C54.0743 18.371 52.3907 22.4482 49.0216 22.4609C46.6789 22.4698 44.7637 24.2682 44.7637 26.611V28.9806C44.7637 31.3235 46.663 33.2227 49.0058 33.2227C52.3855 33.2227 54.078 37.309 51.6883 39.6987C50.0316 41.3554 50.0316 44.0414 51.6883 45.6981L53.2986 47.3084C54.9553 48.9651 57.6412 48.9651 59.2979 47.3084C61.6876 44.9186 65.7739 46.6111 65.7739 49.9908C65.7739 52.3338 67.6733 54.2331 70.0162 54.2331H72.2936C74.6365 54.2331 76.5357 52.3338 76.5357 49.991C76.5357 46.6113 80.622 44.9188 83.0117 47.3086C84.6684 48.9653 87.3544 48.9653 89.0111 47.3086L90.6214 45.6983C92.2781 44.0416 92.2781 41.3556 90.6214 39.6989C88.2353 37.3129 89.9189 33.2357 93.288 33.2229C95.6307 33.214 97.546 31.4156 97.546 29.0728V26.6112C97.5458 24.2681 95.6305 22.4696 93.2878 22.4607ZM71.8955 39.2256C65.0111 39.6606 59.3356 33.9849 59.7707 27.1008C60.1294 21.4234 64.7362 16.8168 70.4136 16.4579C77.2979 16.0228 82.9732 21.6985 82.5384 28.5827C82.1795 34.2601 77.5727 38.8667 71.8955 39.2256Z" fill="#FFE073"/>
<path d="M93.2876 22.4607C89.9183 22.4479 88.2347 18.3707 90.621 15.9847C92.2777 14.328 92.2777 11.642 90.621 9.98532L88.9455 8.30986C87.289 6.65335 84.6628 6.73592 83.0001 8.38624C80.6088 10.7595 76.5353 9.06706 76.5353 5.69255C76.5353 3.34962 74.636 1.45044 72.2932 1.45044H70.0158C68.9641 1.45044 68.0024 1.83406 67.2612 2.4679C77.9445 5.95301 85.665 15.9949 85.665 27.8419C85.665 39.6888 77.9445 49.7307 67.2612 53.2158C68.0026 53.8497 68.9641 54.2331 70.0158 54.2331H72.2932C74.6362 54.2331 76.5353 52.3337 76.5353 49.991C76.5353 46.6113 80.6216 44.9188 83.0113 47.3085C84.668 48.9652 87.354 48.9652 89.0107 47.3085L90.621 45.6982C92.2777 44.0415 92.2777 41.3556 90.621 39.6989C88.2349 37.3128 89.9185 33.2354 93.2876 33.2229C95.6303 33.214 97.5456 31.4155 97.5456 29.0728V26.6111C97.5456 24.268 95.6303 22.4696 93.2876 22.4607Z" fill="#FFC80A"/>
<path d="M47.4992 61.884C46.2038 61.716 45.2341 60.614 45.2341 59.3079V47.4265H27.0804V59.3079C27.0804 60.614 26.1107 61.716 24.8154 61.884C24.8154 61.884 21.4152 73.3264 36.1573 73.3264C50.8994 73.3264 47.4992 61.884 47.4992 61.884Z" fill="#FFECE3"/>
<path d="M33.353 47.4265V64.3257C33.353 65.6319 34.3227 66.7338 35.618 66.9019C38.2787 67.2472 42.829 67.9199 46.7604 68.9089C48.6286 65.6876 47.4988 61.884 47.4988 61.884C46.2035 61.716 45.2338 60.614 45.2338 59.3079V47.4265H33.353Z" fill="#FFDDCE"/>
<path d="M53.3613 30.8495H52.2632V29.56V26.4777C52.2632 22.1256 50.4764 17.9082 47.1784 15.0683C44.5928 12.8418 40.9581 10.8985 36.1567 10.845C31.3554 10.8985 27.7209 12.8418 25.1351 15.0683C21.8369 17.908 20.0503 22.1254 20.0503 26.4777V29.56V30.8495H18.9522C17.3423 30.8495 16.0371 32.1547 16.0371 33.7646V36.9949C16.0371 38.6048 17.3423 39.91 18.9522 39.91H20.0547C20.1456 44.1407 21.9234 48.2126 25.1353 50.9783C27.721 53.2046 31.3556 55.148 36.1569 55.2016C40.9582 55.148 44.5928 53.2048 47.1786 50.9783C50.3905 48.2128 52.1683 44.1407 52.2591 39.91H53.3617C54.9716 39.91 56.2768 38.6048 56.2768 36.9949V33.7646C56.2764 32.1547 54.9712 30.8495 53.3613 30.8495Z" fill="#FFECE3"/>
<path d="M53.3617 30.8492H52.2637V29.5597V26.4773C52.2637 22.1252 50.4768 17.9078 47.1789 15.068C45.4224 13.5555 43.1814 12.1745 40.4202 11.427L40.4175 39.9096C40.3266 44.1403 38.5489 48.2123 35.337 50.9779C33.9463 52.1752 32.2519 53.2901 30.2363 54.0738C31.9686 54.7472 33.9382 55.1763 36.1574 55.2012C40.9587 55.1477 44.5933 53.2042 47.1791 50.9779C50.391 48.2125 52.1687 44.1403 52.2596 39.9096H53.3621C54.972 39.9096 56.2772 38.6044 56.2772 36.9945V33.7643C56.2768 32.1542 54.9717 30.8492 53.3617 30.8492Z" fill="#FFDDCE"/>
<path d="M64.6998 97.5499C68.1017 97.5499 70.8596 94.792 70.8596 91.39V76.9714C70.8596 71.9797 67.9217 67.4554 63.3615 65.4252C59.2101 63.5768 51.3624 62.3852 47.4989 61.8838L36.157 68.9776L24.8151 61.8838C20.9518 62.3852 13.1041 63.5768 8.95268 65.4252C4.39249 67.4554 1.45459 71.9797 1.45459 76.9714V91.39C1.45459 94.792 4.21248 97.5499 7.61444 97.5499H64.6998Z" fill="#F6F9F9"/>
<path d="M63.3618 65.4252C59.2104 63.5768 51.3627 62.3852 47.4992 61.8838L38.7632 67.3477C42.8435 67.976 48.2681 69.0128 51.4806 70.443C56.0408 72.4733 58.9787 76.9975 58.9787 81.9893V96.4081C58.9787 96.7985 58.9408 97.1798 58.8714 97.5501H64.6998C68.1018 97.5501 70.8597 94.7922 70.8597 91.3902V76.9714C70.8599 71.9797 67.922 67.4554 63.3618 65.4252Z" fill="#E7ECF1"/>
<path d="M42.4297 9.8855H29.7692C27.4579 9.8855 25.4938 11.367 24.7726 13.4323C24.5022 14.2065 23.7634 14.7181 22.9434 14.7181C19.997 14.7181 17.6084 17.1067 17.6084 20.0531V31.1777C17.6084 31.1777 22.2896 31.122 23.873 32.6835C24.206 33.0119 24.7683 32.7802 24.7683 32.3129V24.9998C24.7683 22.4606 26.8268 20.4023 29.3658 20.4023H29.4211C30.1818 20.4023 30.9341 20.5197 31.6532 20.7461C33.0217 21.1771 34.4384 21.4354 35.8729 21.4354H36.441C37.8756 21.4354 39.2925 21.1771 40.6607 20.7461C41.3798 20.5197 42.1322 20.4023 42.8928 20.4023H42.9481C45.4873 20.4023 47.5457 22.4608 47.5457 24.9998V31.7831C47.5457 32.4679 48.1008 33.0231 48.7857 33.0231H48.7909C49.842 33.0231 50.8631 32.7176 51.7696 32.1854C53.1881 31.3528 54.7056 31.1777 54.7056 31.1777V22.1617C54.7059 15.3817 49.2097 9.8855 42.4297 9.8855Z" fill="#AA8080"/>
<path d="M42.4295 9.8855H40.4199L40.4189 20.8178C40.4996 20.7937 40.5806 20.7712 40.6608 20.7459C41.3799 20.5195 42.1323 20.4021 42.893 20.4021H42.9483C45.4875 20.4021 47.5458 22.4606 47.5458 24.9996V31.7829C47.5458 32.4677 48.1009 33.0229 48.7858 33.0229H48.791C49.8421 33.0229 50.8632 32.7174 51.7697 32.1852C53.1882 31.3526 54.7057 31.1775 54.7057 31.1775V22.1615C54.7057 15.3817 49.2094 9.8855 42.4295 9.8855Z" fill="#9D6B6B"/>
<path d="M21.2934 66.8661L27.8121 72.4613C28.7505 73.2668 30.1185 73.3252 31.1222 72.6025L36.1569 68.9776L24.815 61.8838C24.188 61.9652 23.4559 62.0648 22.6517 62.1823C20.3776 62.5149 19.5495 65.3693 21.2934 66.8661Z" fill="#E7ECF1"/>
<path d="M51.0203 66.8661L44.5016 72.4613C43.5632 73.2668 42.1952 73.3252 41.1914 72.6025L36.1567 68.9776L47.4986 61.8838C48.1257 61.9652 48.8577 62.0648 49.6619 62.1823C51.936 62.5149 52.7642 65.3693 51.0203 66.8661Z" fill="#E7ECF1"/>
<path d="M36.1573 68.9775L31.1226 72.6026L33.5038 75.9478H38.8105L41.1919 72.6026L36.1573 68.9775Z" fill="#FFC80A"/>
<path d="M41.7332 97.5501L38.8104 75.948H33.5037L30.5811 97.5501H41.7332Z" fill="#FFC80A"/>
<path d="M70.3219 15.0109C63.8881 15.4173 58.7299 20.5756 58.3232 27.0094C57.834 34.7496 64.2249 41.1649 71.9868 40.673C78.4204 40.2665 83.5787 35.1083 83.9853 28.6744C84.4745 20.9356 78.0857 14.5192 70.3219 15.0109ZM81.0911 28.4915C80.7763 33.4713 76.7838 37.4638 71.8038 37.7786C65.7637 38.1564 60.8396 33.1756 61.2176 27.1923C61.5324 22.2124 65.5249 18.2199 70.5049 17.9051C76.5127 17.5273 81.4709 22.4792 81.0911 28.4915Z" fill="#525A68"/>
<path d="M93.2934 21.0104C91.2033 21.0025 90.1689 18.4877 91.6465 17.0098C92.7218 15.9347 93.3138 14.5052 93.3138 12.9847C93.3138 11.4641 92.7218 10.0348 91.6465 8.95969L89.971 7.28423C87.7592 5.0724 84.2484 5.10411 81.9789 7.35655C80.4955 8.8286 77.9857 7.78213 77.9857 5.69211C77.9855 2.5535 75.432 0 72.2932 0H70.0158C66.877 0 64.3235 2.5535 64.3235 5.69231C64.3235 7.78426 61.8065 8.83304 60.3229 7.3494C59.2478 6.27412 57.8183 5.68206 56.2979 5.68206C54.7773 5.68206 53.348 6.27412 52.2729 7.3494L50.6626 8.95969C50.2204 9.40191 49.8602 9.90735 49.5889 10.4553C47.5031 9.1749 45.0513 8.43511 42.4298 8.43511H29.7692C26.9055 8.43511 24.3474 10.2509 23.4034 12.9537C23.3378 13.1415 23.153 13.2677 22.9432 13.2677C19.2019 13.2677 16.158 16.3116 16.158 20.0529C16.158 20.8538 16.8073 21.5029 17.608 21.5029C18.4089 21.5029 19.058 20.8536 19.058 20.0529C19.058 17.9107 20.8008 16.1679 22.943 16.1679C24.3841 16.1679 25.6694 15.2607 26.1412 13.9101C26.6791 12.37 28.1368 11.3353 29.769 11.3353H42.4296C48.3992 11.3353 53.2558 16.1919 53.2558 22.1613V30.0047C51.0101 30.6357 50.7102 31.477 48.9961 31.5671V24.9994C48.9961 21.6648 46.283 18.9517 42.9484 18.9517H42.8931C40.4099 18.9517 39.3958 19.9849 36.4412 19.9849H35.8731C32.9494 19.9849 31.8847 18.9517 29.4213 18.9517H29.366C26.0313 18.9517 23.3183 21.6648 23.3183 24.9994V30.6527C21.9455 30.0718 20.2692 29.8522 19.0586 29.7713V26.9137C19.0586 26.1128 18.4093 25.4637 17.6086 25.4637C16.8077 25.4637 16.1586 26.113 16.1586 26.9137V30.4127C15.1731 31.2316 14.5878 32.4488 14.5878 33.764V36.9943C14.5878 39.3142 16.4069 41.2171 18.6935 41.3518C19.1282 45.5545 21.0871 49.4051 24.1896 52.0765C24.6595 52.481 25.1403 52.8567 25.6303 53.2081V59.3074C25.6303 59.882 25.1999 60.3712 24.6289 60.4455C24.6287 60.4455 24.6287 60.4455 24.6285 60.4455C20.3814 60.9966 12.6207 62.2043 8.36274 64.1002C3.28512 66.3609 0.00439456 71.413 0.00439456 76.9711V91.39C0.00400785 95.5862 3.41777 99 7.61386 99H64.6996C68.8956 99 72.3094 95.5862 72.3094 91.3902V86.4931C72.3094 85.6922 71.6601 85.0431 70.8594 85.0431C70.0587 85.0431 69.4094 85.6924 69.4094 86.4931V91.3902C69.4094 93.9872 67.2966 96.0998 64.6998 96.0998H60.9739V88.1924C60.9739 87.3915 60.3246 86.7424 59.5239 86.7424C58.7232 86.7424 58.0739 87.3917 58.0739 88.1924V96.0998H43.0002L40.3243 76.3215L41.682 74.4142C42.0349 74.5099 42.3961 74.5605 42.7577 74.5605C43.7172 74.5605 44.6735 74.2249 45.4464 73.5614L51.9651 67.9662C53.0583 67.0278 53.5677 65.6461 53.3648 64.256C56.7084 64.8607 60.4159 65.7006 62.772 66.7496C66.8043 68.5449 69.4098 72.5571 69.4098 76.9711V79.7167C69.4098 80.5176 70.0591 81.1667 70.8598 81.1667C71.6605 81.1667 72.3098 80.5174 72.3098 79.7167V76.9711C72.3098 71.413 69.0289 66.3609 63.9515 64.1002C59.6935 62.2045 51.9328 60.9968 47.6857 60.4455H47.6855C47.1145 60.3712 46.6841 59.8822 46.6841 59.3074V53.2081C47.174 52.8567 47.6549 52.481 48.1248 52.0765C49.5556 50.8444 50.7396 49.3594 51.6466 47.707L52.2729 48.3333C54.4975 50.5579 58.0983 50.5583 60.3231 48.3333C61.8024 46.8539 64.3237 47.892 64.3237 49.9904C64.3237 53.1292 66.8772 55.6827 70.016 55.6827H72.2934C75.4322 55.6827 77.9857 53.1292 77.9857 49.9904C77.9857 47.8974 80.5036 46.8504 81.9863 48.3333C83.0614 49.4085 84.4909 50.0006 86.0114 50.0006C87.532 50.0006 88.9613 49.4085 90.0364 48.3335L91.6467 46.7232C93.8661 44.5036 93.8661 40.8924 91.6467 38.673C90.1689 37.1952 91.2037 34.6804 93.2935 34.6724C96.4913 34.6604 98.9961 32.2003 98.9961 29.0724V26.6107C98.9959 23.4825 96.4911 21.0226 93.2934 21.0104ZM38.0626 74.4975H34.2512L33.14 72.9365L36.157 70.7643L39.174 72.9365L38.0626 74.4975ZM30.275 71.4258C29.8131 71.7588 29.1887 71.7319 28.7566 71.361L22.2376 65.7658C21.6813 65.2882 21.8066 64.67 21.8583 64.4919C21.9095 64.3152 22.1315 63.7353 22.8417 63.621C23.4498 63.5317 24.0059 63.4542 24.4878 63.3896L33.5575 69.0624L30.275 71.4258ZM2.90421 91.3902V76.9713C2.90421 72.5573 5.50972 68.5453 9.54204 66.7498C11.8981 65.7008 15.6056 64.8609 18.9492 64.2562C18.7461 65.6463 19.2556 67.028 20.3487 67.9664L26.8676 73.5616C27.6405 74.2251 28.5966 74.5607 29.5561 74.5607C29.9175 74.5607 30.2789 74.5101 30.6318 74.4144L31.9895 76.3216L29.3136 96.1H14.2399V88.1926C14.2399 87.3917 13.5906 86.7426 12.7899 86.7426C11.9892 86.7426 11.3399 87.3919 11.3399 88.1926V96.1H7.61386C5.01704 96.0998 2.90421 93.987 2.90421 91.3902ZM32.2401 96.0998L34.7704 77.3977H37.543L40.0733 96.0998H32.2401ZM50.4553 64.4917C50.507 64.6698 50.6321 65.2882 50.0758 65.7656L43.5571 71.3608C43.1249 71.7315 42.5005 71.7584 42.0388 71.4256L38.7561 69.062L47.8259 63.3892C48.3077 63.4538 48.864 63.5313 49.4723 63.6207C50.1821 63.7353 50.4041 64.3152 50.4553 64.4917ZM44.7337 61.9027L36.1568 67.2672L27.5798 61.9027C28.1732 61.195 28.5299 60.2875 28.5299 59.3076V54.9212C33.3964 57.2278 38.9164 57.228 43.7837 54.9212V59.3076C43.7837 60.2875 44.1404 61.1951 44.7337 61.9027ZM46.2324 49.879C40.2446 55.0347 32.0702 55.0357 26.0814 49.879C23.257 47.4471 21.5889 43.8019 21.5046 39.8784C21.4878 39.0899 20.8437 38.4596 20.055 38.4596H18.9525C18.1446 38.4596 17.4874 37.8023 17.4874 36.9945V33.7642C17.4874 33.3174 17.6918 32.9061 18.0317 32.6307C19.6998 32.6683 22.1336 33.0047 22.8546 33.7159C23.4247 34.278 24.2695 34.4419 25.0071 34.1333C25.7429 33.8255 26.2183 33.1109 26.2183 32.3127V24.9996C26.2183 23.264 27.6302 21.8521 29.3658 21.8521C32.0323 22.048 32.6555 22.8852 35.873 22.8852H36.441C39.7695 22.8852 41.0279 21.8521 42.8929 21.8521H42.9482C44.6838 21.8521 46.0957 23.264 46.0957 24.9996V31.7831C46.0957 33.2663 47.3024 34.4731 48.7909 34.4731C51.5353 34.4731 52.2764 33.1981 54.378 32.7127C54.6605 32.9846 54.8264 33.3607 54.8264 33.7644V36.9947C54.8264 37.8025 54.1692 38.4598 53.3613 38.4598H52.2588C51.4701 38.4598 50.826 39.0901 50.8092 39.8786C50.7249 43.8021 49.0568 47.4471 46.2324 49.879ZM96.0957 29.0724C96.0957 30.5804 94.8599 31.7664 93.2823 31.7724C88.6171 31.79 86.2999 37.4282 89.5957 40.724C90.6844 41.8126 90.6844 43.584 89.5957 44.6728L87.9854 46.2831C87.4582 46.8104 86.757 47.101 86.0111 47.101C85.2653 47.101 84.5641 46.8106 84.0367 46.2831C80.7345 42.9809 75.0853 45.314 75.0853 49.9909C75.0853 51.5305 73.8327 52.7831 72.2932 52.7831H70.0158C68.4762 52.7831 67.2237 51.5305 67.2237 49.9909C67.2237 45.3198 61.5787 42.9766 58.2721 46.2831C57.1808 47.3744 55.4148 47.3744 54.3235 46.2831L52.8816 44.8414C53.2448 43.7193 53.4967 42.5511 53.6206 41.3524C55.9073 41.2176 57.7264 39.3148 57.7264 36.9949V33.7646C57.7264 32.4496 57.1411 31.2322 56.1556 30.4133V22.1619C56.1556 18.3034 54.5528 14.814 51.9809 12.3178C52.1006 11.8255 52.3497 11.374 52.7128 11.0108L54.3233 9.40055C54.8506 8.87326 55.5517 8.58264 56.2975 8.58264C57.0433 8.58264 57.7446 8.87307 58.2719 9.40055C61.5743 12.7027 67.2233 10.3697 67.2233 5.69269C67.2233 4.15317 68.4759 2.90058 70.0154 2.90058H72.2928C73.8323 2.90058 75.0849 4.15317 75.0849 5.69269C75.0849 10.3596 80.7145 12.6973 84.0212 9.41544C85.1411 8.3044 86.8535 8.26901 87.9197 9.3352L89.5952 11.0108C90.1225 11.5381 90.4131 12.2393 90.4131 12.985C90.4131 13.7308 90.1226 14.4321 89.5952 14.9594C86.2949 18.2595 88.6228 23.8932 93.2818 23.9108C94.8594 23.9168 96.0951 25.1029 96.0951 26.6109V29.0724H96.0957Z" fill="#525A68"/>
</g>
<defs>
<clipPath id="clip0">
<rect width="99" height="99" fill="white"/>
</clipPath>
</defs>
</svg>
