<svg width="60" height="60" fill="none" xmlns="http://www.w3.org/2000/svg"><path d="M59.121 18.727H.88v3.758h58.24v-3.758z" fill="#FFC80A"/><path d="M31.879 14.031h-3.757v35.697h3.757V14.03z" fill="#FFC80A"/><path d="M31.879 14.031h-3.757v2.818h3.757v-2.818zm-.939-.001h-1.88a1.879 1.879 0 010-3.757h1.88a1.879 1.879 0 010 3.757zm24.423.001h-3.757v35.697h3.757V14.03z" fill="#FFC80A"/><path d="M55.363 14.031h-3.757v2.818h3.757v-2.818z" fill="#FFC80A"/><path d="M54.424 14.03h-1.879a1.879 1.879 0 110-3.757h1.88a1.879 1.879 0 010 3.757zm-46.03.001H4.637v35.697h3.757V14.03z" fill="#FFC80A"/><path d="M8.394 14.031H4.637v2.818h3.757v-2.818z" fill="#FFC80A"/><path d="M7.455 14.03h-1.88a1.879 1.879 0 110-3.757h1.88a1.879 1.879 0 010 3.757z" fill="#FFC80A"/><path d="M59.121 23.364a.879.879 0 000-1.758h-2.879v-2h2.88a.879.879 0 000-1.758h-2.88v-3.626c.576-.505.94-1.246.94-2.07a2.76 2.76 0 00-2.758-2.758h-1.879a2.76 2.76 0 00-2.757 2.758c0 .824.364 1.565.94 2.07v3.627h-17.97v-3.627a2.75 2.75 0 00.939-2.07 2.76 2.76 0 00-2.758-2.758h-1.878a2.76 2.76 0 00-2.758 2.758c0 .824.364 1.565.94 2.07v3.627H9.272v-3.627a2.75 2.75 0 00.94-2.07 2.76 2.76 0 00-2.758-2.758h-1.88a2.76 2.76 0 00-2.757 2.758c0 .824.364 1.565.94 2.07v3.627H.878a.879.879 0 000 1.757h2.88v2H.877a.879.879 0 000 1.758h2.88v25.484H.877a.879.879 0 000 1.758H59.12a.879.879 0 000-1.758h-2.879V23.364h2.88zm-6.576-12.212h1.88a1 1 0 010 2h-1.88a1.001 1.001 0 010-2zM45.03 37.576a.879.879 0 00-.879.879v10.394h-4.818V23.364h4.818v11.333a.879.879 0 001.758 0V23.364h4.818v25.484H45.91V38.454a.879.879 0 00-.879-.878zm5.697-17.97v2h-17.97v-2h17.97zm-21.666-8.454h1.878a1 1 0 010 2h-1.878a1.001 1.001 0 010-2zm0 3.757h1.878l.06-.001v9.456a.879.879 0 001.759 0v-1h4.818v25.484h-4.818V28.122a.879.879 0 00-1.758 0v20.726h-2v-33.94l.06.001zM14.97 45.091a.879.879 0 00-.88.879v2.879H9.274V23.364h4.818v18.848a.879.879 0 001.758 0V23.364h4.818v25.484H15.85V45.97a.879.879 0 00-.88-.879zm7.454-21.727h4.818v25.484h-4.818V23.364zm4.818-3.758v2H9.272v-2h17.97zM5.576 11.152h1.879a1 1 0 010 2h-1.88a1.001 1.001 0 010-2zm-.06 3.756l.06.001h1.879l.06-.001v33.94h-2v-33.94zm46.969 33.94v-33.94l.06.001h1.88l.06-.001v33.94h-2z" fill="#000"/></svg>