<svg width="60" height="60" fill="none" xmlns="http://www.w3.org/2000/svg"><g clip-path="url(#clip0)"><path d="M8.71 38.71h25.16v16.45H8.71V38.71z" fill="#F0BC5E"/><path d="M60 34.839v-5.067l-4.839-9.678v-4.61H39.123l-.413-1.138V9.677h-7.742v1.936h5.806v1.936H30v1.935h2.164l2.376 8.71h-3.784l-1.753-7.01-1.877.47 1.635 6.54h-3.774l-.812-4.06-1.898.38.736 3.68h-3.445l.736-3.682-1.897-.38-.813 4.062H13.82l1.635-6.54-1.878-.469-1.752 7.009H8.041l2.376-8.71h2.164v-1.935H5.806v-1.936h5.807V9.677H3.87v4.67L0 24.99v3.074c0 1.798 1.238 3.3 2.903 3.733v22.396H.968V60h40.645v-3.87H60v-5.807h-2.903V34.839H60zm-20.323-1.936v-1.105a3.85 3.85 0 001.566-.83h16.822v1.935H39.677zM7.742 26.13h3.87v1.936A1.937 1.937 0 019.678 30a1.937 1.937 0 01-1.935-1.935v-1.936zm5.806 0h3.871v1.936A1.937 1.937 0 0115.484 30a1.937 1.937 0 01-1.936-1.935v-1.936zm5.807 0h3.87v1.936A1.937 1.937 0 0121.29 30a1.937 1.937 0 01-1.935-1.935v-1.936zm5.806 0h3.871v1.936A1.937 1.937 0 0127.097 30a1.937 1.937 0 01-1.936-1.935v-1.936zm5.807 0h3.87v1.936A1.937 1.937 0 0132.904 30a1.937 1.937 0 01-1.935-1.935v-1.936zm5.806 0h3.871v1.936A1.937 1.937 0 0138.71 30a1.937 1.937 0 01-1.936-1.935v-1.936zm4.46-4.839h12.36l3.871 7.742H42.443c.081-.311.138-.631.138-.967V24.99l-1.347-3.7zm11.992-3.87v1.935H40.53l-.704-1.936h13.399zM34.17 15.483h2.893l3.168 8.71h-3.685l-2.376-8.71zm-28.135 8.71H2.35l3.166-8.71H8.41l-2.375 8.71zm-4.1 3.87V26.13h3.871v1.936A1.937 1.937 0 013.871 30a1.937 1.937 0 01-1.936-1.935zm2.904 3.734a3.85 3.85 0 001.935-1.2 3.847 3.847 0 002.903 1.338 3.847 3.847 0 002.904-1.338 3.847 3.847 0 002.903 1.338 3.847 3.847 0 002.903-1.338 3.847 3.847 0 002.903 1.338 3.847 3.847 0 002.904-1.338 3.847 3.847 0 002.903 1.338A3.847 3.847 0 0030 30.598a3.847 3.847 0 002.903 1.338 3.847 3.847 0 002.903-1.338 3.85 3.85 0 001.936 1.2v22.396H22.258V39.677h13.548v-5.806H6.774v5.806h13.549v14.517H4.839V31.798zm3.87 5.944v-1.935h25.162v1.935H8.71zm30.968 20.323H2.903v-1.936h36.774v1.936zm18.388-3.871H39.677v-1.936h18.388v1.936zm-2.904-3.871H39.677V34.839h15.484v15.484z" fill="#000"/><path d="M21.29 21.29c-5.869 0-10.645-4.775-10.645-10.645C10.645 4.775 15.421 0 21.29 0c5.87 0 10.646 4.776 10.646 10.645 0 5.87-4.776 10.645-10.646 10.645z" fill="#F0BC5E"/><path d="M47.42 48.387a5.812 5.812 0 005.806-5.806 5.812 5.812 0 00-5.807-5.807 5.812 5.812 0 00-5.806 5.807 5.812 5.812 0 005.806 5.806zm-3.734-4.839h2.766v2.766a3.865 3.865 0 01-2.766-2.766zm4.701 2.766v-2.766h2.766a3.865 3.865 0 01-2.766 2.766zm2.766-4.701h-2.766v-2.766a3.865 3.865 0 012.766 2.766zm-4.701-2.766v2.766h-2.766a3.865 3.865 0 012.766-2.766zm-30-24.331h1.377a4.842 4.842 0 004.429 2.903 4.844 4.844 0 004.839-4.838V7.74h-9.678v.969h-.967a2.907 2.907 0 00-2.904 2.903c0 1.6 1.303 2.903 2.904 2.903zm2.903-4.839h5.806v2.904c0 1.6-1.303 2.903-2.903 2.903a2.907 2.907 0 01-2.903-2.903V9.677zm-2.903.968h.967v1.936h-.967a.97.97 0 01-.968-.968.97.97 0 01.968-.968zm3.871-6.775h1.935v1.936h-1.935V3.871zm3.871 0h1.935v1.936h-1.935V3.871zm-7.742 0h1.935v1.936h-1.935V3.871z" fill="#000"/></g><defs><clipPath id="clip0"><path fill="#fff" d="M0 0h60v60H0z"/></clipPath></defs></svg>