<svg width="60" height="60" fill="none" xmlns="http://www.w3.org/2000/svg"><path d="M35.15 51.234v7.594h8.061v-.069" fill="#FFDD4D"/><path d="M43.211 42.197v-4.99l-4.036-3.114-4.024 3.115v21.19m10.134-27.75a11.5 11.5 0 01-2.074-.187v11.736c1.297-1.956 2.94-3.23 2.94-3.23s.52.404 1.206 1.106V30.46c-.672.123-1.364.187-2.072.187z" fill="#FFDD4D"/><path d="M52.8 10.573a7.686 7.686 0 10-15.032 0 11.418 11.418 0 00-3.927 8.63c0 6.321 5.123 11.445 11.444 11.445 6.32 0 11.444-5.124 11.444-11.445 0-3.443-1.521-6.532-3.928-8.63zM29.472 11a4.403 4.403 0 00-4.104-4.09 4.435 4.435 0 00-.88.034l.001-.035a2.77 2.77 0 00-4.716-1.971A5.83 5.83 0 008.496 6.743v.005c-.032.407-.508.328-.508.328h.001a4.37 4.37 0 00-1.09-.063 4.35 4.35 0 00-4.035 4.453 4.335 4.335 0 004.333 4.208h17.899A4.386 4.386 0 0029.472 11z" fill="#fff"/><path d="M25.096 16.846H7.197c-3 0-5.419-2.348-5.505-5.347a5.518 5.518 0 015.723-5.663A6.987 6.987 0 0114.321 0a7.045 7.045 0 015.912 3.256 3.95 3.95 0 015.252 2.488 5.559 5.559 0 015.164 5.768 5.541 5.541 0 01-5.553 5.334zM7.191 8.176a3.165 3.165 0 00-3.156 3.256 3.147 3.147 0 003.162 3.07h17.899a3.204 3.204 0 003.207-3.428 3.211 3.211 0 00-3.654-2.97 1.172 1.172 0 01-1.333-1.171l.001-.037a1.6 1.6 0 00-2.721-1.124 1.172 1.172 0 01-1.92-.42 4.683 4.683 0 00-4.355-3.008A4.648 4.648 0 009.666 6.82l-.006.06a1.5 1.5 0 01-.565 1.04c-.441.344-.95.348-1.198.324a1.154 1.154 0 01-.12-.016 3.22 3.22 0 00-.586-.054z" fill="#000"/><path d="M10.923 58.828H2.85v-21.62l4.036-3.115 4.036 3.115v21.62zm8.072 0h-8.072v-21.62l4.036-3.115 4.036 3.115v21.62zm8.072 0h-8.072v-21.62l4.036-3.115 4.036 3.115v21.62zm8.083 0h-8.083v-21.62l4.036-3.115 4.047 3.115v21.62z" fill="#FFDD4D"/><path d="M23.03 40.761a1.172 1.172 0 11-.002-2.343 1.172 1.172 0 01.002 2.343zm-16.143 0a1.163 1.163 0 01-.974-.521 1.19 1.19 0 01-.198-.65 1.162 1.162 0 01.09-.448 1.172 1.172 0 01.431-.526 1.166 1.166 0 01.422-.175 1.159 1.159 0 01.879.175 1.123 1.123 0 01.325.323 1.18 1.18 0 01.197.65 1.18 1.18 0 01-.724 1.083 1.166 1.166 0 01-.449.09z" fill="#000"/><path d="M41.333 47.928c1.138.289 2.233.797 3.057 1.656.592.617.997 1.366 1.269 2.164a5.131 5.131 0 00.984 0c.271-.798.677-1.547 1.268-2.164.826-.86 1.922-1.368 3.062-1.657.038-.229.059-.463.059-.702v-3.937c-2.68 0-4.855.297-4.88 2.877h-.002c-.025-2.58-2.2-2.877-4.88-2.877l.004 3.937c0 .24.02.474.059.703z" fill="#fff"/><path d="M46.15 46.165h.002c.02-2.152 1.537-2.716 3.595-2.844-1.307-2.579-3.597-4.354-3.597-4.354s-2.289 1.776-3.596 4.354c2.058.128 3.575.692 3.596 2.844z" fill="#FFC600"/><path d="M55.39 56.762c-2.836 2.954-8.874 1.76-8.874 1.76s-1.44-5.984 1.395-8.938c2.836-2.955 8.873-1.76 8.873-1.76s1.441 5.983-1.395 8.938z" fill="#fff"/><path d="M36.911 56.762c2.836 2.954 8.873 1.76 8.873 1.76s1.441-5.984-1.395-8.938c-2.835-2.955-8.873-1.76-8.873-1.76s-1.44 5.983 1.395 8.938z" fill="#fff"/><path d="M57.924 47.549a1.172 1.172 0 00-.912-.875 16.961 16.961 0 00-4.809-.157v-3.23c0-.646-.525-1.171-1.172-1.171-.185 0-.39 0-.608.003a15.062 15.062 0 00-1.894-2.514v-8.208c5.39-1.435 9.372-6.358 9.372-12.193 0-3.424-1.39-6.69-3.837-9.06.053-.393.08-.79.08-1.187 0-4.885-3.974-8.859-8.859-8.859-4.884 0-8.858 3.974-8.858 8.859 0 .397.026.794.079 1.186a12.618 12.618 0 00-3.837 9.06c0 5.836 3.982 10.758 9.37 12.194v3.426l-2.148-1.658a1.172 1.172 0 00-1.433 0l-3.31 2.562-3.33-2.563a1.172 1.172 0 00-1.43.001l-3.32 2.563-3.32-2.563a1.172 1.172 0 00-1.433 0l-3.32 2.563-3.32-2.563a1.172 1.172 0 00-1.432 0l-3.32 2.563-3.32-2.563a1.172 1.172 0 00-1.432 0L2.135 36.28a1.172 1.172 0 00-.456.928v21.62c0 .647.525 1.172 1.172 1.172h40.36c.15 0 .293-.028.425-.08a16.236 16.236 0 002.376-.248c.048-.01.094-.022.139-.037a1.2 1.2 0 00.138.037c.117.023 1.36.26 2.997.26 2.192 0 5.094-.425 6.95-2.359 3.241-3.378 1.753-9.754 1.688-10.024zM9.751 57.656H8.06V44.272a1.172 1.172 0 00-2.344 0v13.384H4.023V37.783l2.864-2.21 2.864 2.21v19.873zm8.072 0h-5.728V37.783l2.864-2.21 2.864 2.21v19.873zm8.072 0h-1.692V44.272a1.172 1.172 0 00-2.344 0v13.384h-1.692V37.783l2.864-2.21 2.864 2.21v19.873zm8.084 0h-5.74V37.783l2.865-2.21 2.874 2.212v19.871zm12.207-19.86a1.17 1.17 0 00-.754.245c-.041.032-.465.364-1.049.934v-7.187a12.762 12.762 0 001.803 0v6.007zm-.034 2.732a14.145 14.145 0 011.679 1.91c-.615.174-1.201.443-1.68.858-.48-.415-1.065-.684-1.68-.859a14.324 14.324 0 011.68-1.91zm-11.14-21.324c0-2.97 1.286-5.794 3.527-7.747.321-.28.465-.713.376-1.13a6.522 6.522 0 016.37-7.886 6.522 6.522 0 016.37 7.887c-.09.417.055.849.376 1.129a10.276 10.276 0 013.526 7.747c0 5.268-3.986 9.623-9.1 10.206v-5.905a.613.613 0 00.017-.015l4.465-4.114a1.172 1.172 0 10-1.588-1.723l-2.894 2.666v-3.056l3.154-2.924a1.172 1.172 0 00-1.594-1.719l-1.56 1.447V11.43a1.172 1.172 0 00-2.344 0v8.888l-2.894-2.666a1.172 1.172 0 00-1.588 1.723l4.465 4.114.017.016v5.904c-5.114-.583-9.1-4.938-9.1-10.206zm1.31 18.578l2.854-2.208 2.863 2.21v4.069c-.054.088-.108.176-.161.266-.218-.003-.423-.003-.608-.003a1.172 1.172 0 00-1.172 1.173l.003 3.228c-1.485-.178-2.876-.095-3.779.005v-8.74zm8.47 19.708c-.43.051-.942.09-1.496.1a1.252 1.252 0 00-.194.002c-1.84.008-4.084-.327-5.345-1.642-1.686-1.756-1.546-5.22-1.248-7.095 1.883-.224 5.343-.223 7.035 1.54 1.686 1.756 1.547 5.22 1.248 7.095zm2.274-8.718a6.37 6.37 0 00-.915 1.227 6.316 6.316 0 00-.916-1.227c-.787-.82-1.76-1.368-2.79-1.728l-.002-2.553c2.331.142 2.526.754 2.535 1.685a1.173 1.173 0 002.346 0c.009-.93.203-1.543 2.535-1.685v2.552c-1.03.36-2.005.909-2.793 1.73zm7.478 7.178c-1.685 1.757-5.152 1.76-7.037 1.538a14.97 14.97 0 01-.186-2.384c.007-1.683.33-3.557 1.436-4.709 1.685-1.756 5.152-1.76 7.037-1.538.302 1.873.443 5.33-1.25 7.093z" fill="#000"/></svg>