<svg width="60" height="60" fill="none" xmlns="http://www.w3.org/2000/svg"><path d="M58.828 37.734v7.032h-35.86v-7.032h35.86zM55.313 8.203a3.516 3.516 0 100-7.031 3.516 3.516 0 000 7.031z" fill="#FFC80A"/><path d="M55.313 18.75a3.515 3.515 0 110 7.031H44.766a3.515 3.515 0 110-7.031 3.515 3.515 0 117.03 0h3.517zM41.25 4.688a3.515 3.515 0 110 7.03H30.703a3.515 3.515 0 110-7.03h3.516a3.515 3.515 0 117.031 0zM11.719 32.813c-5.826 0-10.547-3.568-10.547-12.305 0-8.738 4.721-19.336 10.547-19.336 5.825 0 10.547 10.598 10.547 19.336 0 8.737-4.722 12.305-10.547 12.305z" fill="#fff"/><path d="M58.828 36.563h-35.86c-.646 0-1.171.524-1.171 1.171v7.032c0 .647.524 1.172 1.172 1.172h2.343v4.687H22.97a1.172 1.172 0 000 2.344h2.343v4.687H12.892V33.937c7.242-.578 10.546-6.195 10.546-13.43C23.438 12.775 19.186 0 11.72 0 4.294 0 0 12.684 0 20.508c0 7.238 3.308 12.851 10.547 13.429v23.72H1.172a1.172 1.172 0 000 2.343h57.656a1.172 1.172 0 000-2.344h-2.344V52.97h2.344a1.172 1.172 0 000-2.344h-2.344v-4.688h2.344c.647 0 1.172-.524 1.172-1.171v-7.032c0-.647-.525-1.172-1.172-1.172zM2.344 20.508c0-6.108 3.512-18.164 9.375-18.164 5.845 0 9.375 12.013 9.375 18.164 0 6.7-2.902 10.59-8.203 11.079V22.75l3.172-3.172a1.172 1.172 0 00-1.657-1.658l-2.687 2.687-2.687-2.687a1.172 1.172 0 00-1.658 1.658l3.173 3.172v8.836c-5.302-.49-8.203-4.379-8.203-11.08zM54.14 50.625h-7.969a1.172 1.172 0 000 2.344h7.969v4.687H27.656V52.97h7.969a1.172 1.172 0 000-2.344h-7.969v-4.688h26.485v4.688zm3.515-7.031H24.141v-4.688h33.515v4.688zM55.313 0a4.693 4.693 0 00-4.688 4.688 4.693 4.693 0 004.688 4.687A4.693 4.693 0 0060 4.687 4.693 4.693 0 0055.312 0zm0 7.031a2.346 2.346 0 01-2.344-2.343 2.346 2.346 0 012.343-2.344 2.346 2.346 0 012.344 2.344 2.346 2.346 0 01-2.343 2.343z" fill="#000"/><path d="M55.313 17.578H52.82a4.696 4.696 0 00-4.539-3.515 4.696 4.696 0 00-4.568 3.634 4.696 4.696 0 00-3.635 4.569 4.693 4.693 0 004.688 4.687h10.547A4.693 4.693 0 0060 22.266a4.693 4.693 0 00-4.688-4.688zm0 7.031H44.766a2.346 2.346 0 01-2.344-2.343 2.346 2.346 0 012.344-2.344c.647 0 1.172-.525 1.172-1.172a2.346 2.346 0 012.343-2.344 2.346 2.346 0 012.344 2.344c0 .647.525 1.172 1.172 1.172h3.516a2.346 2.346 0 012.343 2.344 2.346 2.346 0 01-2.343 2.343zM41.25 12.89a4.693 4.693 0 004.688-4.687 4.696 4.696 0 00-3.635-4.568A4.696 4.696 0 0037.734 0a4.696 4.696 0 00-4.539 3.516h-2.492a4.693 4.693 0 00-4.687 4.687 4.693 4.693 0 004.687 4.688H41.25zM28.36 8.204a2.346 2.346 0 012.343-2.344h3.516c.647 0 1.172-.524 1.172-1.171a2.346 2.346 0 012.343-2.344 2.346 2.346 0 012.344 2.344c0 .647.525 1.171 1.172 1.171a2.346 2.346 0 012.344 2.344 2.347 2.347 0 01-2.344 2.344H30.703a2.346 2.346 0 01-2.344-2.344zm12.539 44.765a1.172 1.172 0 100-2.344 1.172 1.172 0 000 2.344z" fill="#000"/></svg>