<svg width="60" height="60" fill="none" xmlns="http://www.w3.org/2000/svg"><path fill-rule="evenodd" clip-rule="evenodd" d="M25.605 29.238c.971 0 1.758-.787 1.758-1.758V11.866L30 10.306 55.488 25.38v10.01a1.758 1.758 0 003.516 0V22.497L30 5.344.996 22.496v11.137a1.758 1.758 0 103.516 0V25.38l12.305-7.277v4.104a1.758 1.758 0 003.515 0 1.758 1.758 0 113.516 0v5.273c0 .971.787 1.758 1.758 1.758zM42.304 12.62l7.032 4.158V7.91a1.758 1.758 0 01-1.758-1.758V4.394h-5.274v8.226z" fill="#fff"/><path fill-rule="evenodd" clip-rule="evenodd" d="M47.578 4.395v1.757a1.758 1.758 0 003.515 0V4.395a1.758 1.758 0 00.011-3.516H40.547a1.757 1.757 0 100 3.516h7.03z" fill="#fff"/><path fill-rule="evenodd" clip-rule="evenodd" d="M4.512 30.117h3.516V27.48l8.789-5.273v-4.104L4.512 25.38v4.737zM30 14.297L51.972 27.48v2.637h3.516V25.38L30 10.307l-2.637 1.56v4.012L30 14.297z" fill="#FFC80A"/><path fill-rule="evenodd" clip-rule="evenodd" d="M23.848 27.48v-5.273a1.758 1.758 0 00-3.516 0 1.758 1.758 0 11-3.516 0l-8.788 5.274h15.82zm3.515 0h24.61L30 14.298l-2.637 1.582v11.602z" fill="#fff"/><path fill-rule="evenodd" clip-rule="evenodd" d="M11.543 32.754c.967 0 1.758-.791 1.758-1.758v-1.758c0-.963-.785-1.752-1.747-1.758H8.028v3.516c0 .967.79 1.758 1.757 1.758-.966 0-1.757.79-1.757 1.758v1.758c0 .966.79 1.757 1.757 1.757-.966 0-1.757.791-1.757 1.758v1.758c0 .967.79 1.758 1.757 1.758-.966 0-1.757.79-1.757 1.758v1.757c0 .967.79 1.758 1.757 1.758-.966 0-1.757.791-1.757 1.758v1.758c0 .967.79 1.758 1.757 1.758-.966 0-1.757.79-1.757 1.758v1.757c0 .967.79 1.758 1.757 1.758h1.758c.967 0 1.758-.79 1.758-1.758v-1.758c0-.966-.791-1.757-1.758-1.757.967 0 1.758-.791 1.758-1.758v-1.758c0-.967-.791-1.758-1.758-1.758.967 0 1.758-.79 1.758-1.758V45.06c0-.967-.791-1.758-1.758-1.758.967 0 1.758-.791 1.758-1.758v-1.758c0-.967-.791-1.758-1.758-1.758.967 0 1.758-.79 1.758-1.758v-1.757c0-.967-.791-1.758-1.758-1.758zm36.914 0a1.763 1.763 0 01-1.758-1.758v-1.758c0-.963.785-1.752 1.747-1.758h3.526v3.516c0 .967-.79 1.758-1.757 1.758.966 0 1.757.79 1.757 1.758v1.758c0 .966-.79 1.757-1.757 1.757.966 0 1.757.791 1.757 1.758v1.758c0 .967-.79 1.758-1.757 1.758.966 0 1.757.79 1.757 1.758v1.757c0 .967-.79 1.758-1.757 1.758.966 0 1.757.791 1.757 1.758v1.758c0 .967-.79 1.758-1.757 1.758.966 0 1.757.79 1.757 1.758v1.757c0 .967-.79 1.758-1.757 1.758h-1.758a1.763 1.763 0 01-1.758-1.758v-1.758c0-.966.791-1.757 1.758-1.757a1.763 1.763 0 01-1.758-1.758v-1.758c0-.967.791-1.758 1.758-1.758a1.763 1.763 0 01-1.758-1.758V45.06c0-.967.791-1.758 1.758-1.758a1.763 1.763 0 01-1.758-1.758v-1.758c0-.967.791-1.758 1.758-1.758a1.763 1.763 0 01-1.758-1.758v-1.757c0-.967.79-1.758 1.758-1.758z" fill="#fff"/><path fill-rule="evenodd" clip-rule="evenodd" d="M11.543 32.754c.967 0 1.758.791 1.758 1.758v1.758c0 .966-.791 1.758-1.758 1.758.967 0 1.758.79 1.758 1.757v1.758c0 .967-.791 1.758-1.758 1.758.967 0 1.758.79 1.758 1.758v1.758c0 .966-.791 1.757-1.758 1.757.967 0 1.758.791 1.758 1.758v1.758c0 .967-.791 1.758-1.758 1.758.967 0 1.758.79 1.758 1.758v1.757c0 .962-.782 1.75-1.742 1.758h5.258V38.028H29.12V59.12h19.32a1.763 1.763 0 01-1.742-1.758v-1.757c0-.967.791-1.758 1.758-1.758a1.763 1.763 0 01-1.758-1.758v-1.758c0-.967.791-1.758 1.758-1.758-.967 0-1.758-.79-1.758-1.757v-1.758c0-.967.791-1.758 1.758-1.758-.967 0-1.758-.79-1.758-1.758v-1.758c0-.966.791-1.757 1.758-1.757a1.763 1.763 0 01-1.758-1.758v-1.758c0-.967.791-1.758 1.758-1.758a1.763 1.763 0 01-1.758-1.758v-1.758c0-.963.785-1.751 1.747-1.757H27.363a1.758 1.758 0 01-3.515 0H11.554a1.763 1.763 0 011.747 1.757v1.758c0 .967-.791 1.758-1.758 1.758zm21.094 5.274h10.547v10.546H32.637V38.028zm-4.395-5.274c0-.967.791-1.758 1.758-1.758s1.758.791 1.758 1.758-.791 1.758-1.758 1.758a1.763 1.763 0 01-1.758-1.758z" fill="#fff"/><path fill-rule="evenodd" clip-rule="evenodd" d="M16.816 38.027h12.305v21.094H16.816V38.027zm15.821 0h10.547v10.547H32.637V38.027z" fill="#fff"/><path d="M30.27 34.52a1.759 1.759 0 10-.531-3.477 1.759 1.759 0 00.53 3.477z" fill="#FFC80A"/><path fill-rule="evenodd" clip-rule="evenodd" d="M25.605 29.238c.971 0 1.758-.787 1.758-1.757v-2.637a1.758 1.758 0 01-3.515 0v2.637c0 .97.787 1.757 1.758 1.757zm29.883 3.516v2.637a1.758 1.758 0 003.516 0v-2.637a1.758 1.758 0 01-3.516 0zM.996 30.996v2.637a1.758 1.758 0 103.516 0v-2.637a1.758 1.758 0 01-3.516 0zm15.82-10.546v1.757a1.758 1.758 0 003.516 0V20.45c0 1.323-3.515 1.323-3.515 0z" fill="#fff"/><path fill-rule="evenodd" clip-rule="evenodd" d="M4.512 30.117h3.516V27.48H4.512v2.637zm47.46 0h3.516V27.48h-3.516v2.637zm-41.308.879v-3.515H8.028v3.515c0 .967.79 1.758 1.757 1.758-.966 0-1.757.79-1.757 1.758v1.758c0 .966.79 1.757 1.757 1.757-.966 0-1.757.791-1.757 1.758v1.758c0 .967.79 1.758 1.757 1.758-.966 0-1.757.79-1.757 1.758v1.757c0 .967.79 1.758 1.757 1.758-.966 0-1.757.791-1.757 1.758v1.758c0 .967.79 1.758 1.757 1.758-.966 0-1.757.79-1.757 1.758v1.757c0 .967.79 1.758 1.757 1.758h1.758c.037 0-.879-.156-.879-1.758v-1.758c0-.61.331-1.439.88-1.757-.525-.305-.88-1.11-.88-1.758v-1.758c0-.611.331-1.44.88-1.758-.525-.305-.88-1.11-.88-1.758V45.06c0-.612.331-1.44.88-1.758-.525-.305-.88-1.11-.88-1.758v-1.758c0-.611.331-1.439.88-1.758-.525-.305-.88-1.11-.88-1.758v-1.757c0-1.2.88-1.758.88-1.758s-.88-.559-.88-1.758zm37.793 1.758c-.967 0-1.758.79-1.758 1.758v1.758c0 .966.79 1.757 1.758 1.757-.967 0-1.758.791-1.758 1.758v1.758c0 .967.79 1.758 1.758 1.758-.967 0-1.758.79-1.758 1.758v1.757c0 .967.79 1.758 1.758 1.758-.967 0-1.758.791-1.758 1.758v1.758c0 .967.79 1.758 1.758 1.758-.967 0-1.758.79-1.758 1.758v1.757c0 .967.79 1.758 1.758 1.758h1.758c.037 0-.88-.156-.88-1.758v-1.758c0-.61.332-1.439.88-1.757-.525-.305-.88-1.11-.88-1.758v-1.758c0-.611.332-1.44.88-1.758-.525-.305-.88-1.11-.88-1.758V45.06c0-.612.332-1.44.88-1.758-.525-.305-.88-1.11-.88-1.758v-1.758c0-.611.332-1.439.88-1.758-.525-.305-.88-1.11-.88-1.758v-1.757c0-1.2.88-1.758.88-1.758s-.88-.23-.88-1.758v-1.758c0-1.199.88-1.758.88-1.758h-1.758c-.967 0-1.758.791-1.758 1.758v1.758c0 .967.79 1.758 1.758 1.758z" fill="#FFC80A"/><path fill-rule="evenodd" clip-rule="evenodd" d="M13.301 56.484v.88c0 .961-.783 1.749-1.742 1.757h5.258v-2.637H13.3zm15.82 0v2.637h19.32a1.763 1.763 0 01-1.742-1.758v-.879H29.121z" fill="#FFC80A"/><path fill-rule="evenodd" clip-rule="evenodd" d="M16.816 59.121h12.305v-2.637h-9.668V38.027h-2.637v21.094z" fill="#FFC80A"/><path fill-rule="evenodd" clip-rule="evenodd" d="M32.637 45.938h10.547v2.636H32.637v-2.636z" fill="#fff"/><path fill-rule="evenodd" clip-rule="evenodd" d="M42.304 12.62l7.032 4.159V13.46l-4.395-2.598V4.395h-2.637v8.225z" fill="#FFC80A"/><path fill-rule="evenodd" clip-rule="evenodd" d="M43.183.879h-2.636a1.757 1.757 0 100 3.516h2.636a1.758 1.758 0 010-3.516z" fill="#fff"/><path d="M36.643 23.878l-1.508-.904.905-1.508 1.507.905-.904 1.507zm-3.015-1.808l-1.507-.905.904-1.507 1.507.904-.904 1.508zm-10.66-5.136h-1.757v-1.758h1.758v1.758z" fill="#fff"/><path d="M38.789 58.242h1.758V60h-1.758v-1.758z" fill="#000"/><path d="M60 58.242h-7.299c.097-.275.151-.57.151-.879v-1.757c0-.675-.255-1.291-.673-1.758a2.626 2.626 0 00.673-1.758v-1.758a2.63 2.63 0 00-.673-1.758 2.625 2.625 0 00.673-1.758V45.06c0-.675-.255-1.291-.673-1.758a2.626 2.626 0 00.673-1.758v-1.758c0-.674-.255-1.29-.673-1.757a2.626 2.626 0 00.673-1.758v-1.758c0-.675-.255-1.291-.673-1.758a2.626 2.626 0 00.673-1.758h1.758v4.395a2.64 2.64 0 002.637 2.636 2.64 2.64 0 002.636-2.636V21.995l-9.668-5.718v-7.64a2.64 2.64 0 001.758-2.485v-1.03a2.642 2.642 0 001.758-2.485A2.64 2.64 0 0051.094 0H40.547a2.64 2.64 0 00-2.636 2.637 2.64 2.64 0 002.636 2.636h.88v5.807L30 4.323l-14.193 8.393.895 1.513L30 6.365l28.125 16.633V35.39a.88.88 0 01-1.758 0V24.879L30 9.286l-3.516 2.079V27.48a.88.88 0 01-1.758 0v-5.273a2.64 2.64 0 00-2.636-2.637 2.64 2.64 0 00-2.637 2.637.88.88 0 01-1.758 0v-5.645L3.634 24.88v8.754a.88.88 0 01-1.758 0V22.997l13.314-7.873-.895-1.513L.118 21.995v11.638a2.64 2.64 0 002.637 2.636 2.64 2.64 0 002.637-2.636v-2.637H7.15c0 .675.255 1.291.673 1.758a2.626 2.626 0 00-.673 1.758v1.758c0 .674.255 1.29.673 1.757a2.626 2.626 0 00-.673 1.758v1.758c0 .675.255 1.29.673 1.758a2.626 2.626 0 00-.673 1.758v1.757c0 .675.255 1.291.673 1.758a2.626 2.626 0 00-.673 1.758v1.758c0 .675.255 1.29.673 1.758a2.626 2.626 0 00-.673 1.758v1.757c0 .308.053.604.15.88H.002V60h37.03v-1.758h-7.03v-3.516h15.971a2.62 2.62 0 00-.151.88v1.757c0 .308.054.604.151.879h-3.667V60h17.696v-1.758zM39.67 2.637a.88.88 0 01.879-.88h10.546a.88.88 0 010 1.759h-.879v2.636a.88.88 0 01-1.757 0V3.516h-7.91a.88.88 0 01-.88-.88zm3.515 2.636H46.7v.88a2.64 2.64 0 001.758 2.485v6.6l-5.274-3.119V5.273zM47.58 52.09v-1.758a.88.88 0 01.879-.879h1.758a.88.88 0 01.878.879v1.758a.88.88 0 01-.879.879h-1.757a.88.88 0 01-.88-.88zm-33.55 2.637h1.91v3.515h-1.91a2.61 2.61 0 00.152-.879v-1.757c0-.309-.054-.604-.151-.88zM8.908 52.09v-1.758a.88.88 0 01.88-.879h1.757a.88.88 0 01.879.879v1.758a.88.88 0 01-.879.879H9.786a.88.88 0 01-.879-.88zm0-5.274V45.06a.88.88 0 01.88-.88h1.757a.88.88 0 01.879.88v1.757a.88.88 0 01-.879.88H9.786a.88.88 0 01-.879-.88zm0-5.273v-1.758a.88.88 0 01.88-.879h1.757a.88.88 0 01.879.88v1.757a.88.88 0 01-.879.879H9.786a.88.88 0 01-.879-.879zm0-5.273v-1.758a.88.88 0 01.88-.88h1.757a.88.88 0 01.879.88v1.758a.88.88 0 01-.879.878H9.786a.88.88 0 01-.879-.879zm0-5.274V28.36h2.638a.88.88 0 01.878.88v1.757a.88.88 0 01-.879.879H9.786a.88.88 0 01-.879-.879zm7.031 21.973H14.03a2.64 2.64 0 00.15-.88v-1.757c0-.308-.053-.604-.15-.879h1.909v3.516zm0-5.274H14.03c.097-.275.15-.57.15-.879V45.06c0-.308-.053-.604-.15-.88h1.909v3.516zm0-5.273H14.03c.097-.275.15-.57.15-.879v-1.758c0-.308-.053-.604-.15-.879h1.909v3.516zm-1.908-5.274c.097-.275.15-.57.15-.879v-1.757c0-.308-.053-.604-.15-.88h13.485a2.64 2.64 0 002.486 1.759 2.641 2.641 0 002.485-1.758h13.486a2.61 2.61 0 00-.151.879v1.758c0 .308.054.603.151.878H14.03zm15.092-4.394a.88.88 0 011.758 0 .88.88 0 01-1.758 0zm18.457-1.758v-1.758a.88.88 0 01.877-.879h2.638v2.637a.88.88 0 01-.879.879h-1.757a.88.88 0 01-.88-.879zm-19.336-14.62l1.758-1.054 18.8 11.28h-20.56V16.377zm22.851 18.136v1.758a.88.88 0 01-.879.878h-1.757a.88.88 0 01-.88-.879v-1.757a.88.88 0 01.88-.88h1.758a.88.88 0 01.878.88zm0 5.273v1.758a.88.88 0 01-.879.879h-1.757a.88.88 0 01-.88-.879v-1.758a.88.88 0 01.88-.879h1.758a.88.88 0 01.878.88zm0 5.274v1.757a.88.88 0 01-.879.88h-1.757a.88.88 0 01-.88-.88V45.06a.88.88 0 01.88-.88h1.758a.88.88 0 01.878.88zm-7.03-6.153h1.908a2.615 2.615 0 00-.151.88v1.757c0 .308.054.604.151.879h-1.909v-3.516zm-12.305 0v3.516H30v-3.516h1.758zM30 44.18h1.758v3.515H30V44.18zm3.516-5.274h3.515v8.79h-3.515v-8.79zm5.273 0h3.516v8.79H38.79v-8.79zm5.273 5.274h1.91c-.099.275-.152.57-.152.879v1.757c0 .308.054.604.151.88h-1.909V44.18zm-14.06-32.852L54.61 25.882v3.356h-1.758v-2.255l-22.851-13.71-1.758 1.054v-1.96l1.758-1.039zm-4.395 18.79a2.641 2.641 0 002.486-1.759h17.88a2.615 2.615 0 00-.151.88v1.757c0 .308.054.604.151.879H32.486a2.641 2.641 0 00-2.485-1.758 2.641 2.641 0 00-2.486 1.758H14.03c.097-.275.15-.57.15-.879v-1.758c0-.308-.053-.604-.15-.879h9.09a2.64 2.64 0 002.486 1.758zm-7.03-5.274a2.64 2.64 0 002.636-2.637.88.88 0 011.758 0v4.395H11.202l5.1-3.06a2.638 2.638 0 002.273 1.302zM7.15 29.238H5.392v-3.356l10.546-6.238v2.066L7.15 26.983v2.255zm1.757 28.125v-1.758a.88.88 0 01.88-.878h1.757a.88.88 0 01.879.879v1.757a.88.88 0 01-.878.88h-1.76a.88.88 0 01-.878-.88zm8.79.88V38.905h10.546v19.336H17.696zM30 49.452h15.971a2.61 2.61 0 00-.151.879v1.758c0 .308.054.604.151.879h-15.97v-3.516zm17.578 7.91v-1.758a.88.88 0 01.879-.878h1.758a.88.88 0 01.878.879v1.757a.88.88 0 01-.877.88h-1.76a.88.88 0 01-.878-.88z" fill="#000"/><path d="M24.727 47.695h1.758v1.758h-1.758v-1.758z" fill="#000"/></svg>