<svg width="60" height="60" fill="none" xmlns="http://www.w3.org/2000/svg"><g clip-path="url(#clip0)"><path d="M16.452 35.806v-8.71l-2.904-2.902v-1.936h9.678v1.936l-2.903 2.903v8.71" fill="#fff"/><path d="M21.29 24.194v-1.936h-7.742v1.936l2.904 2.903v8.71h1.935v-8.71l2.903-2.904z" fill="#fff"/><path d="M29.911 9.766a4.833 4.833 0 00-4.75-3.96 4.85 4.85 0 00-1.036.118A5.804 5.804 0 0018.387.968a5.807 5.807 0 00-5.535 4.05 4.815 4.815 0 00-1.239-.18 4.839 4.839 0 00-4.839 4.84c0 .033.009.063.01.096a4.839 4.839 0 101.935 9.482c0 .034-.01.065-.01.099a4.839 4.839 0 004.84 4.839c1.927 0 3.576-1.134 4.354-2.765.779 1.63 2.428 2.765 4.355 2.765a4.839 4.839 0 004.839-4.84c0-.147-.031-.286-.044-.431a4.8 4.8 0 001.98.432 4.833 4.833 0 00.879-9.589zm9.766 26.04v-8.71l-2.903-2.902v-1.936h9.678v1.936l-2.904 2.903v8.71" fill="#fff"/><path d="M44.516 24.194v-1.936h-7.742v1.936l2.903 2.903v8.71h1.936v-8.71l2.903-2.904z" fill="#fff"/><path d="M53.137 9.766a4.833 4.833 0 00-4.75-3.96 4.85 4.85 0 00-1.036.118A5.804 5.804 0 0041.613.968a5.807 5.807 0 00-5.535 4.05 4.817 4.817 0 00-1.24-.18A4.839 4.839 0 0030 9.679c0 .033.009.063.01.096a4.839 4.839 0 101.935 9.482c0 .034-.01.065-.01.099a4.839 4.839 0 004.84 4.839c1.926 0 3.576-1.134 4.354-2.765.778 1.63 2.428 2.765 4.355 2.765a4.839 4.839 0 004.839-4.84c0-.147-.032-.286-.044-.431a4.8 4.8 0 001.98.432 4.833 4.833 0 00.879-9.589z" fill="#fff"/><path d="M0 41.613h60v3.87H0v-3.87zm0 9.677h60v3.871H0v-3.87z" fill="#FFDD4D"/><path d="M56.129 36.774v22.258h-5.806V36.774l2.903-2.903 2.903 2.903z" fill="#FFDD4D"/><path d="M51.774 35.322l-1.452 1.452v22.258h2.904V36.774l-1.452-1.452z" fill="#FFC80A"/><path d="M44.516 36.774v22.258H38.71V36.774l2.903-2.903 2.903 2.903z" fill="#FFDD4D"/><path d="M40.161 35.322l-1.451 1.452v22.258h2.903V36.774l-1.452-1.452z" fill="#FFC80A"/><path d="M32.903 36.774v22.258h-5.806V36.774L30 33.871l2.903 2.903z" fill="#FFDD4D"/><path d="M28.548 35.322l-1.451 1.452v22.258H30V36.774l-1.452-1.452z" fill="#FFC80A"/><path d="M21.29 36.774v22.258h-5.806V36.774l2.903-2.903 2.903 2.903z" fill="#FFDD4D"/><path d="M16.936 35.322l-1.452 1.452v22.258h2.903V36.774l-1.451-1.452z" fill="#FFC80A"/><path d="M9.677 36.774v22.258H3.871V36.774l2.903-2.903 2.903 2.903z" fill="#FFDD4D"/><path d="M5.322 35.322l-1.451 1.452v22.258h2.903V36.774l-1.452-1.452z" fill="#FFC80A"/><path d="M22.258 25.161a5.732 5.732 0 01-4.355-1.979 5.733 5.733 0 01-4.355 1.98 5.817 5.817 0 01-5.726-4.84c-3.212.037-5.886-2.578-5.886-5.806A5.824 5.824 0 015.842 9.03a5.815 5.815 0 015.771-5.159c.208 0 .417.014.633.04A6.746 6.746 0 0118.387 0c3.008 0 5.646 2.027 6.488 4.846 2.898-.167 5.464 1.897 5.988 4.745l-1.904.35a3.863 3.863 0 00-3.798-3.167 3.86 3.86 0 00-.83.095.96.96 0 01-.757-.15.964.964 0 01-.406-.655c-.348-2.354-2.402-4.129-4.78-4.129a4.82 4.82 0 00-4.613 3.377.966.966 0 01-1.171.642c-.38-.1-.695-.148-.991-.148a3.875 3.875 0 00-3.871 3.871c.002-.034.008.01.01.069a.968.968 0 01-.776.977 3.88 3.88 0 00-3.105 3.793 3.875 3.875 0 004.653 3.792.966.966 0 011.163.96 1.8 1.8 0 01-.015.179c.005 2.043 1.742 3.779 3.876 3.779 1.495 0 2.83-.848 3.482-2.214a.967.967 0 011.746 0c.653 1.366 1.987 2.214 3.482 2.214a3.875 3.875 0 003.871-3.871c0-.048-.01-.096-.016-.142l-.024-.204a.968.968 0 011.362-.968 3.857 3.857 0 002.359.269l.383 1.896a5.783 5.783 0 01-2.193.022 5.817 5.817 0 01-5.742 4.933z" fill="#000"/><path d="M45.484 25.161a5.732 5.732 0 01-4.355-1.979 5.733 5.733 0 01-4.355 1.98 5.817 5.817 0 01-5.726-4.84c-3.214.037-5.887-2.578-5.887-5.806a5.824 5.824 0 013.907-5.486 5.815 5.815 0 015.77-5.159c.209 0 .418.014.633.04A6.746 6.746 0 0141.613 0c3.007 0 5.645 2.027 6.488 4.846 2.697-.142 5.08 1.604 5.837 4.12a5.797 5.797 0 014.126 5.55 5.812 5.812 0 01-5.806 5.807c-.347 0-.693-.033-1.034-.095a5.815 5.815 0 01-5.74 4.933zm-4.355-4.699c.372 0 .712.214.873.55.652 1.366 1.987 2.214 3.482 2.214a3.875 3.875 0 003.87-3.871c0-.048-.009-.096-.015-.142l-.024-.204a.968.968 0 011.362-.968c.51.229 1.043.346 1.58.346a3.875 3.875 0 003.872-3.87 3.863 3.863 0 00-3.167-3.8.967.967 0 01-.777-.775 3.863 3.863 0 00-3.798-3.168c-.265 0-.537.031-.831.095a.96.96 0 01-.756-.15.964.964 0 01-.407-.655c-.347-2.354-2.401-4.129-4.78-4.129A4.82 4.82 0 0037 5.312a.966.966 0 01-1.17.642c-.38-.1-.695-.148-.991-.148a3.875 3.875 0 00-3.871 3.871c0-.034.007.01.009.069a.968.968 0 01-.776.977 3.88 3.88 0 00-3.104 3.793 3.875 3.875 0 004.653 3.792.967.967 0 011.163.96c0 .044-.009.135-.016.179.006 2.043 1.742 3.779 3.877 3.779 1.495 0 2.83-.848 3.482-2.214.16-.336.5-.55.873-.55z" fill="#000"/><path d="M44.516 35.806h-1.935v-8.71a.96.96 0 01.283-.683l2.903-2.904 1.369 1.369-2.62 2.62v8.308zm-3.871 0H38.71v-8.309l-2.62-2.62 1.368-1.368 2.904 2.904a.965.965 0 01.283.684v8.71zm-19.355 0h-1.935v-8.71a.96.96 0 01.283-.683l2.903-2.904 1.369 1.369-2.62 2.62v8.308zm-3.87 0h-1.936v-8.309l-2.62-2.62 1.369-1.368 2.903 2.904a.965.965 0 01.283.684v8.71zM9.678 60H3.87a.968.968 0 01-.968-.968V36.774c0-.256.102-.503.284-.684l2.903-2.903a.967.967 0 011.369 0l2.903 2.903a.965.965 0 01.283.684v22.258a.968.968 0 01-.967.968zm-4.84-1.935H8.71v-20.89l-1.936-1.936-1.935 1.936v20.89z" fill="#000"/><path d="M21.29 60h-5.806a.968.968 0 01-.968-.968V36.774c0-.256.102-.503.284-.684l2.903-2.903a.966.966 0 011.368 0l2.903 2.903a.965.965 0 01.284.684v22.258a.968.968 0 01-.968.968zm-4.838-1.935h3.87v-20.89l-1.935-1.936-1.935 1.936v20.89zM32.903 60h-5.806a.968.968 0 01-.968-.968V36.774c0-.256.102-.503.284-.684l2.903-2.903a.966.966 0 011.368 0l2.904 2.903a.965.965 0 01.283.684v22.258a.968.968 0 01-.968.968zm-4.838-1.935h3.87v-20.89L30 35.239l-1.935 1.936v20.89zM44.516 60H38.71a.968.968 0 01-.968-.968V36.774c0-.256.102-.503.284-.684l2.903-2.903a.966.966 0 011.368 0L45.2 36.09a.965.965 0 01.284.684v22.258a.968.968 0 01-.968.968zm-4.839-1.935h3.871v-20.89l-1.935-1.936-1.936 1.936v20.89zM56.129 60h-5.806a.968.968 0 01-.968-.968V36.774c0-.256.101-.503.283-.684l2.904-2.903a.966.966 0 011.368 0l2.903 2.903a.965.965 0 01.284.684v22.258a.968.968 0 01-.968.968zm-4.839-1.935h3.871v-20.89l-1.935-1.936-1.936 1.936v20.89z" fill="#000"/><path d="M9.677 40.645h5.807v1.936H9.677v-1.936zm-9.677 0h3.871v1.936H0v-1.936zm0 3.871h3.871v1.936H0v-1.936zm9.677 0h5.807v1.936H9.677v-1.936zm0 5.806h5.807v1.936H9.677v-1.936zm-9.677 0h3.871v1.936H0v-1.936zm0 3.872h3.871v1.935H0v-1.935zm56.13-13.549H60v1.936h-3.87v-1.936zm0 3.871H60v1.936h-3.87v-1.936zm0 5.806H60v1.936h-3.87v-1.936zm0 3.872H60v1.935h-3.87v-1.935zm-46.453 0h5.807v1.935H9.677v-1.935zM21.29 40.645h5.807v1.936H21.29v-1.936zm0 3.871h5.807v1.936H21.29v-1.936zm0 5.806h5.807v1.936H21.29v-1.936zm0 3.872h5.807v1.935H21.29v-1.935zm11.613-13.549h5.807v1.936h-5.807v-1.936zm0 3.871h5.807v1.936h-5.807v-1.936zm0 5.806h5.807v1.936h-5.807v-1.936zm0 3.872h5.807v1.935h-5.807v-1.935zm11.613-13.549h5.807v1.936h-5.807v-1.936zm0 3.871h5.807v1.936h-5.807v-1.936zm0 5.806h5.807v1.936h-5.807v-1.936zm0 3.872h5.807v1.935h-5.807v-1.935zm0-47.42h-1.935a.97.97 0 00-.968-.968.97.97 0 00-.968.968H38.71c0-1.6 1.303-2.903 2.903-2.903s2.903 1.303 2.903 2.903z" fill="#000"/></g><defs><clipPath id="clip0"><path fill="#fff" d="M0 0h60v60H0z"/></clipPath></defs></svg>