<svg width="16" height="17" viewBox="0 0 16 17" fill="none" xmlns="http://www.w3.org/2000/svg">
<g clip-path="url(#clip0)">
<path d="M8.00013 12.8572C8.83822 12.8572 9.52394 12.1715 9.52394 11.3334C9.52394 10.4953 8.83822 9.80957 8.00013 9.80957C7.16204 9.80957 6.47632 10.4953 6.47632 11.3334C6.47632 12.1715 7.16204 12.8572 8.00013 12.8572Z" fill="#A5A9AF"/>
<path d="M12.5715 5.99985H11.8096V4.47604C11.8096 2.37316 10.1029 0.666504 8.00004 0.666504C5.89719 0.666504 4.1905 2.37316 4.1905 4.47604V5.99985H3.4286C2.5905 5.99985 1.90479 6.68557 1.90479 7.52366V15.1427C1.90479 15.9808 2.5905 16.6665 3.4286 16.6665H12.5714C13.4095 16.6665 14.0953 15.9808 14.0953 15.1427V7.52366C14.0953 6.68557 13.4096 5.99985 12.5715 5.99985ZM5.63813 4.47604C5.63813 3.17319 6.69719 2.11413 8.00004 2.11413C9.30288 2.11413 10.3619 3.17319 10.3619 4.47604V5.99985H5.63813V4.47604ZM12.5715 15.1427H3.4286V7.52363H12.5714V15.1427H12.5715Z" fill="#A5A9AF"/>
</g>
<defs>
<clipPath id="clip0">
<rect width="16" height="16" fill="white" transform="translate(0 0.666504)"/>
</clipPath>
</defs>
</svg>
