<svg width="20" height="20" viewBox="0 0 20 20" fill="none" xmlns="http://www.w3.org/2000/svg">
<rect width="20" height="20" rx="2" fill="url(#paint0_linear)"/>
<path d="M10.0001 4.00578C7.54256 4.00578 5.20883 3.78734 4.31744 6.07323C3.94924 7.01735 4.00271 8.24348 4.00271 9.99916C4.00271 11.5398 3.9533 12.9877 4.31744 13.9244C5.2068 16.2116 7.55948 15.9925 9.9988 15.9925C12.3522 15.9925 14.7786 16.2373 15.6808 13.9244C16.0497 12.9708 15.9956 11.7629 15.9956 9.99916C15.9956 7.6578 16.1248 6.14627 14.9884 5.01144C13.8378 3.86173 12.2818 4.00578 9.99744 4.00578H10.0001ZM9.46274 5.08584C14.5891 5.07772 15.2416 4.50828 14.8815 12.419C14.7536 15.2168 12.6215 14.9098 10.0008 14.9098C5.22237 14.9098 5.08497 14.7732 5.08497 9.99645C5.08497 5.16429 5.464 5.08854 9.46274 5.08448V5.08584ZM13.2016 6.08067C12.8043 6.08067 12.4821 6.40259 12.4821 6.79958C12.4821 7.19657 12.8043 7.51849 13.2016 7.51849C13.5989 7.51849 13.9211 7.19657 13.9211 6.79958C13.9211 6.40259 13.5989 6.08067 13.2016 6.08067ZM10.0001 6.92131C8.29926 6.92131 6.92055 8.29961 6.92055 9.99916C6.92055 11.6987 8.29926 13.0763 10.0001 13.0763C11.701 13.0763 13.0791 11.6987 13.0791 9.99916C13.0791 8.29961 11.701 6.92131 10.0001 6.92131ZM10.0001 8.00136C12.6432 8.00136 12.6466 11.9969 10.0001 11.9969C7.35778 11.9969 7.35372 8.00136 10.0001 8.00136Z" fill="white"/>
<defs>
<linearGradient id="paint0_linear" x1="1.34283" y1="18.697" x2="19.8742" y2="2.65517" gradientUnits="userSpaceOnUse">
<stop stop-color="#FFDD55"/>
<stop offset="0.5" stop-color="#FF543E"/>
<stop offset="1" stop-color="#C837AB"/>
</linearGradient>
</defs>
</svg>
