<svg width="232" height="60" viewBox="0 0 232 60" fill="none" xmlns="http://www.w3.org/2000/svg">
<g filter="url(#filter0_d)">
<path d="M66.5326 20.235V46.671L30.436 40.0783L14.248 40.9269V9.5953L30.436 0L66.5326 20.235Z" fill="url(#paint0_linear)"/>
<path d="M14.1828 9.66057L30.436 0L66.5326 20.235V22.1279L30.436 3.32898L14.1828 9.66057Z" fill="#333333"/>
<path d="M14.1828 24.4778L30.436 17.2324L66.5326 31.9843V34.53L30.436 20.953L14.1828 24.4778Z" fill="#333333"/>
<path d="M14.1828 16.5796L30.436 8.55091L66.5326 26.1097V28.4595L30.436 11.8799L14.1828 16.5796Z" fill="#333333"/>
<path d="M14.1828 31.9843L30.436 26.1097L66.5326 37.9243V40.0783L30.436 30.5483L14.1828 31.9843Z" fill="#333333"/>
<path d="M14.1828 40.9269L30.436 36.5535L66.5326 44.3211V46.671L30.436 40.0783L14.1828 40.9269Z" fill="#333333"/>
<path d="M4 51.8277C4 51.8277 22.2115 46.671 30.436 46.671C73.2559 46.671 80.9582 51.8277 80.9582 51.8277C80.9582 51.8277 64.9008 49.6736 30.436 49.6736C23.3211 49.6736 4 51.8277 4 51.8277Z" fill="#333333"/>
<path d="M105.255 29H101.506V22.4688H95.9521V29H92.1816V13.3594H95.9521V19.5684H101.506V13.3594H105.255V29ZM120.896 21.502C120.896 23.0273 120.613 24.3773 120.047 25.5518C119.481 26.7262 118.675 27.6322 117.63 28.2695C116.591 28.8997 115.406 29.2148 114.074 29.2148C112.742 29.2148 111.561 28.9105 110.529 28.3018C109.498 27.6859 108.692 26.8086 108.112 25.6699C107.539 24.5312 107.239 23.2243 107.21 21.749V20.8682C107.21 19.3356 107.489 17.9857 108.048 16.8184C108.614 15.6439 109.419 14.738 110.465 14.1006C111.518 13.4632 112.714 13.1445 114.053 13.1445C115.378 13.1445 116.559 13.4596 117.598 14.0898C118.636 14.7201 119.442 15.6188 120.015 16.7861C120.595 17.9463 120.888 19.2783 120.896 20.7822V21.502ZM117.061 20.8467C117.061 19.2926 116.799 18.1146 116.276 17.3125C115.761 16.5033 115.02 16.0986 114.053 16.0986C112.162 16.0986 111.163 17.5166 111.056 20.3525L111.045 21.502C111.045 23.0345 111.299 24.2126 111.808 25.0361C112.316 25.8597 113.072 26.2715 114.074 26.2715C115.027 26.2715 115.761 25.8669 116.276 25.0576C116.792 24.2484 117.053 23.0846 117.061 21.5664V20.8467ZM122.84 29V13.3594H128.458C130.47 13.3594 131.999 13.7282 133.045 14.4658C134.098 15.2035 134.624 16.2741 134.624 17.6777C134.624 18.487 134.438 19.1781 134.065 19.751C133.693 20.3239 133.145 20.7464 132.422 21.0186C133.238 21.2334 133.865 21.6344 134.302 22.2217C134.739 22.8089 134.957 23.5251 134.957 24.3701C134.957 25.9027 134.47 27.0557 133.496 27.8291C132.529 28.5954 131.093 28.9857 129.188 29H122.84ZM126.61 22.3506V26.0996H129.081C129.761 26.0996 130.284 25.9456 130.649 25.6377C131.015 25.3226 131.197 24.8822 131.197 24.3164C131.197 23.013 130.549 22.3577 129.253 22.3506H126.61ZM126.61 19.8799H128.576C129.4 19.8727 129.987 19.7223 130.338 19.4287C130.689 19.1351 130.864 18.7018 130.864 18.1289C130.864 17.4701 130.674 16.9974 130.295 16.7109C129.915 16.4173 129.303 16.2705 128.458 16.2705H126.61V19.8799ZM140.812 18.7412H142.756C143.995 18.7412 145.09 18.9525 146.043 19.375C146.995 19.7975 147.726 20.3955 148.234 21.1689C148.75 21.9352 149.008 22.8161 149.008 23.8115C149.008 25.3512 148.435 26.6009 147.289 27.5605C146.15 28.5202 144.618 29 142.691 29H137.03V13.3594H140.812V18.7412ZM153.906 29H150.146V13.3594H153.906V29ZM140.812 21.6416V26.0996H142.745C143.511 26.0996 144.117 25.8848 144.561 25.4551C145.012 25.0254 145.237 24.4704 145.237 23.79C145.237 23.1455 145.015 22.6263 144.571 22.2324C144.127 21.8385 143.511 21.6416 142.724 21.6416H140.812ZM165.4 13.3594H169.171V29H165.4V19.1387L159.782 29H156.012V13.3594H159.782V23.2314L165.4 13.3594ZM166.593 9.14844C166.593 10.1296 166.231 10.9245 165.508 11.5332C164.785 12.1419 163.821 12.4463 162.618 12.4463C161.415 12.4463 160.452 12.1419 159.729 11.5332C159.005 10.9245 158.644 10.1296 158.644 9.14844H161.104C161.104 9.57812 161.236 9.91471 161.501 10.1582C161.773 10.3945 162.146 10.5127 162.618 10.5127C163.091 10.5127 163.456 10.3981 163.714 10.1689C163.979 9.93262 164.111 9.59245 164.111 9.14844H166.593ZM191.59 32.8457H188.206V29H179.688V32.835H176.196L175.928 26.0996H177.034C177.614 25.7129 178.08 25.0505 178.431 24.1123C178.789 23.167 179.043 21.8135 179.193 20.0518L179.677 13.3594H190.322V26.0996H191.987L191.59 32.8457ZM181.299 26.0996H186.562V16.2705H183.232L182.942 20.1807C182.728 22.7158 182.18 24.6888 181.299 26.0996ZM206.274 21.502C206.274 23.0273 205.992 24.3773 205.426 25.5518C204.86 26.7262 204.054 27.6322 203.009 28.2695C201.97 28.8997 200.785 29.2148 199.453 29.2148C198.121 29.2148 196.939 28.9105 195.908 28.3018C194.877 27.6859 194.071 26.8086 193.491 25.6699C192.918 24.5312 192.618 23.2243 192.589 21.749V20.8682C192.589 19.3356 192.868 17.9857 193.427 16.8184C193.993 15.6439 194.798 14.738 195.844 14.1006C196.896 13.4632 198.092 13.1445 199.432 13.1445C200.757 13.1445 201.938 13.4596 202.977 14.0898C204.015 14.7201 204.821 15.6188 205.394 16.7861C205.974 17.9463 206.267 19.2783 206.274 20.7822V21.502ZM202.439 20.8467C202.439 19.2926 202.178 18.1146 201.655 17.3125C201.14 16.5033 200.398 16.0986 199.432 16.0986C197.541 16.0986 196.542 17.5166 196.435 20.3525L196.424 21.502C196.424 23.0345 196.678 24.2126 197.187 25.0361C197.695 25.8597 198.451 26.2715 199.453 26.2715C200.406 26.2715 201.14 25.8669 201.655 25.0576C202.171 24.2484 202.432 23.0846 202.439 21.5664V20.8467ZM213.171 13.3594L216.662 24.2412L220.143 13.3594H225.105V29H221.324V25.3477L221.689 17.8711L217.908 29H215.416L211.624 17.8604L211.989 25.3477V29H208.219V13.3594H213.171Z" fill="#333333"/>
<path d="M95.9199 37.2798C95.9199 36.8644 95.7677 36.535 95.4634 36.2915C95.1626 36.0444 94.7383 35.9209 94.1904 35.9209C93.7321 35.9209 93.3472 36.048 93.0356 36.3022C92.7277 36.5529 92.5737 36.8644 92.5737 37.2368H91.5425C91.5425 36.8215 91.6553 36.4491 91.8809 36.1196C92.11 35.7902 92.4287 35.5342 92.8369 35.3516C93.2451 35.1654 93.6963 35.0723 94.1904 35.0723C95.0641 35.0723 95.7427 35.2692 96.2261 35.6631C96.7095 36.0534 96.9512 36.5977 96.9512 37.2959C96.9512 37.6576 96.8402 37.987 96.6182 38.2842C96.3962 38.5814 96.0864 38.8159 95.689 38.9878C96.6092 39.2957 97.0693 39.9062 97.0693 40.8193C97.0693 41.5212 96.8079 42.078 96.2852 42.4897C95.7624 42.9015 95.0641 43.1074 94.1904 43.1074C93.6712 43.1074 93.1986 43.0161 92.7725 42.8335C92.3499 42.6473 92.0205 42.3841 91.7842 42.0439C91.5479 41.7038 91.4297 41.2992 91.4297 40.8301H92.4609C92.4609 41.2419 92.6239 41.5856 92.9497 41.8613C93.2756 42.1335 93.6891 42.2695 94.1904 42.2695C94.7526 42.2695 95.2002 42.1388 95.5332 41.8774C95.8698 41.616 96.0381 41.2705 96.0381 40.8408C96.0381 39.9242 95.4705 39.4569 94.3354 39.439H93.3687V38.5903H94.3301C94.8529 38.5796 95.2485 38.4614 95.5171 38.2358C95.7856 38.0103 95.9199 37.6916 95.9199 37.2798ZM101.871 43C101.814 42.8854 101.767 42.6813 101.731 42.3877C101.27 42.8675 100.718 43.1074 100.077 43.1074C99.5042 43.1074 99.0334 42.9463 98.6646 42.624C98.2993 42.2982 98.1167 41.8864 98.1167 41.3887C98.1167 40.7835 98.3459 40.3145 98.8042 39.9814C99.2661 39.6449 99.9142 39.4766 100.749 39.4766H101.715V39.02C101.715 38.6727 101.611 38.397 101.404 38.1929C101.196 37.9852 100.89 37.8813 100.485 37.8813C100.131 37.8813 99.8337 37.9709 99.5938 38.1499C99.3538 38.3289 99.2339 38.5456 99.2339 38.7998H98.2349C98.2349 38.5098 98.3369 38.2305 98.541 37.9619C98.7487 37.6898 99.028 37.4749 99.3789 37.3174C99.7334 37.1598 100.122 37.0811 100.544 37.0811C101.214 37.0811 101.739 37.2493 102.118 37.5859C102.498 37.9189 102.695 38.3791 102.709 38.9663V41.6411C102.709 42.1746 102.777 42.599 102.913 42.9141V43H101.871ZM100.222 42.2427C100.534 42.2427 100.829 42.1621 101.108 42.001C101.388 41.8398 101.59 41.6304 101.715 41.3726V40.1802H100.937C99.7191 40.1802 99.1104 40.5365 99.1104 41.249C99.1104 41.5605 99.2142 41.804 99.4219 41.9795C99.6296 42.1549 99.8963 42.2427 100.222 42.2427ZM106.818 37.5215C107.548 37.5215 108.132 37.7668 108.569 38.2573C109.009 38.7443 109.229 39.387 109.229 40.1855V40.2769C109.229 40.8247 109.124 41.3153 108.913 41.7485C108.701 42.1782 108.397 42.513 108 42.7529C107.606 42.9893 107.151 43.1074 106.635 43.1074C105.855 43.1074 105.226 42.8478 104.75 42.3286C104.274 41.8058 104.036 41.1058 104.036 40.2285V39.7451C104.036 38.5241 104.261 37.5537 104.712 36.834C105.167 36.1143 105.837 35.6756 106.721 35.5181C107.222 35.4285 107.561 35.3193 107.736 35.1904C107.912 35.0615 108 34.8843 108 34.6587H108.816C108.816 35.1063 108.714 35.4554 108.51 35.7061C108.309 35.9567 107.987 36.134 107.543 36.2378L106.802 36.4043C106.211 36.5439 105.767 36.7803 105.47 37.1133C105.176 37.4427 104.985 37.8831 104.895 38.4346C105.421 37.8258 106.062 37.5215 106.818 37.5215ZM106.625 38.3379C106.138 38.3379 105.751 38.5026 105.464 38.832C105.178 39.1579 105.035 39.6108 105.035 40.1909V40.2769C105.035 40.8999 105.178 41.394 105.464 41.7593C105.754 42.1209 106.145 42.3018 106.635 42.3018C107.129 42.3018 107.52 42.1191 107.806 41.7539C108.093 41.3887 108.236 40.8551 108.236 40.1533C108.236 39.6055 108.091 39.1668 107.801 38.8374C107.514 38.5044 107.122 38.3379 106.625 38.3379ZM110.083 40.0405C110.083 39.4712 110.194 38.9591 110.417 38.5044C110.642 38.0496 110.954 37.6987 111.351 37.4517C111.752 37.2046 112.209 37.0811 112.721 37.0811C113.512 37.0811 114.151 37.355 114.638 37.9028C115.129 38.4507 115.374 39.1794 115.374 40.0889V40.1587C115.374 40.7244 115.265 41.2329 115.046 41.6841C114.832 42.1317 114.522 42.4808 114.117 42.7314C113.716 42.9821 113.254 43.1074 112.731 43.1074C111.944 43.1074 111.305 42.8335 110.814 42.2856C110.327 41.7378 110.083 41.0127 110.083 40.1104V40.0405ZM111.083 40.1587C111.083 40.8032 111.231 41.3206 111.528 41.7109C111.829 42.1012 112.23 42.2964 112.731 42.2964C113.236 42.2964 113.637 42.0994 113.935 41.7056C114.232 41.3081 114.38 40.7531 114.38 40.0405C114.38 39.4032 114.228 38.8875 113.924 38.4937C113.623 38.0962 113.222 37.8975 112.721 37.8975C112.23 37.8975 111.834 38.0926 111.534 38.4829C111.233 38.8732 111.083 39.4318 111.083 40.1587ZM121.529 40.1587C121.529 41.0431 121.327 41.7557 120.922 42.2964C120.518 42.8371 119.97 43.1074 119.279 43.1074C118.573 43.1074 118.018 42.8836 117.614 42.436V45.2344H116.62V37.1885H117.528L117.576 37.833C117.981 37.3317 118.543 37.0811 119.263 37.0811C119.961 37.0811 120.512 37.3442 120.917 37.8706C121.325 38.397 121.529 39.1292 121.529 40.0674V40.1587ZM120.536 40.0459C120.536 39.3906 120.396 38.8732 120.117 38.4937C119.837 38.1141 119.454 37.9243 118.967 37.9243C118.366 37.9243 117.915 38.1911 117.614 38.7246V41.5015C117.911 42.0314 118.366 42.2964 118.978 42.2964C119.454 42.2964 119.832 42.1084 120.111 41.7324C120.394 41.3529 120.536 40.7907 120.536 40.0459ZM123.882 39.1919H125.391C126.05 39.1991 126.571 39.3709 126.954 39.7075C127.337 40.0441 127.529 40.5007 127.529 41.0771C127.529 41.6572 127.332 42.1227 126.938 42.4736C126.544 42.8245 126.014 43 125.348 43H122.888V37.1885H123.882V39.1919ZM129.602 43H128.603V37.1885H129.602V43ZM123.882 40.0029V42.189H125.359C125.731 42.189 126.02 42.0941 126.224 41.9043C126.428 41.7109 126.53 41.4478 126.53 41.1147C126.53 40.7925 126.43 40.5293 126.229 40.3252C126.032 40.1175 125.755 40.0101 125.396 40.0029H123.882ZM138.813 43H137.82V40.5186H135.15V43H134.151V37.1885H135.15V39.7075H137.82V37.1885H138.813V43ZM140.151 40.0405C140.151 39.4712 140.262 38.9591 140.484 38.5044C140.709 38.0496 141.021 37.6987 141.418 37.4517C141.819 37.2046 142.276 37.0811 142.788 37.0811C143.579 37.0811 144.219 37.355 144.706 37.9028C145.196 38.4507 145.441 39.1794 145.441 40.0889V40.1587C145.441 40.7244 145.332 41.2329 145.114 41.6841C144.899 42.1317 144.589 42.4808 144.185 42.7314C143.784 42.9821 143.322 43.1074 142.799 43.1074C142.011 43.1074 141.372 42.8335 140.881 42.2856C140.394 41.7378 140.151 41.0127 140.151 40.1104V40.0405ZM141.15 40.1587C141.15 40.8032 141.299 41.3206 141.596 41.7109C141.896 42.1012 142.298 42.2964 142.799 42.2964C143.304 42.2964 143.705 42.0994 144.002 41.7056C144.299 41.3081 144.448 40.7531 144.448 40.0405C144.448 39.4032 144.296 38.8875 143.991 38.4937C143.69 38.0962 143.289 37.8975 142.788 37.8975C142.298 37.8975 141.902 38.0926 141.601 38.4829C141.3 38.8732 141.15 39.4318 141.15 40.1587ZM146.779 43V37.1885H149.045C149.819 37.1885 150.411 37.3245 150.823 37.5967C151.239 37.8652 151.446 38.2609 151.446 38.7837C151.446 39.0522 151.366 39.2957 151.205 39.5142C151.043 39.729 150.805 39.8937 150.49 40.0083C150.841 40.0907 151.122 40.2518 151.333 40.4917C151.548 40.7316 151.656 41.0181 151.656 41.3511C151.656 41.8846 151.459 42.2928 151.065 42.5757C150.675 42.8586 150.121 43 149.405 43H146.779ZM147.772 40.4487V42.1997H149.416C149.831 42.1997 150.141 42.1227 150.345 41.9688C150.553 41.8148 150.657 41.5981 150.657 41.3188C150.657 40.7388 150.231 40.4487 149.378 40.4487H147.772ZM147.772 39.6538H149.056C149.987 39.6538 150.453 39.3817 150.453 38.8374C150.453 38.2931 150.012 38.012 149.131 37.9941H147.772V39.6538ZM152.708 40.0405C152.708 39.4712 152.819 38.9591 153.042 38.5044C153.267 38.0496 153.579 37.6987 153.976 37.4517C154.377 37.2046 154.834 37.0811 155.346 37.0811C156.137 37.0811 156.776 37.355 157.263 37.9028C157.754 38.4507 157.999 39.1794 157.999 40.0889V40.1587C157.999 40.7244 157.89 41.2329 157.671 41.6841C157.457 42.1317 157.147 42.4808 156.742 42.7314C156.341 42.9821 155.879 43.1074 155.356 43.1074C154.569 43.1074 153.93 42.8335 153.439 42.2856C152.952 41.7378 152.708 41.0127 152.708 40.1104V40.0405ZM153.708 40.1587C153.708 40.8032 153.856 41.3206 154.153 41.7109C154.454 42.1012 154.855 42.2964 155.356 42.2964C155.861 42.2964 156.262 42.0994 156.56 41.7056C156.857 41.3081 157.005 40.7531 157.005 40.0405C157.005 39.4032 156.853 38.8875 156.549 38.4937C156.248 38.0962 155.847 37.8975 155.346 37.8975C154.855 37.8975 154.459 38.0926 154.159 38.4829C153.858 38.8732 153.708 39.4318 153.708 40.1587ZM163 38.0103H160.319V43H159.32V37.1885H163V38.0103ZM163.494 40.0405C163.494 39.4712 163.605 38.9591 163.827 38.5044C164.052 38.0496 164.364 37.6987 164.761 37.4517C165.162 37.2046 165.619 37.0811 166.131 37.0811C166.922 37.0811 167.561 37.355 168.048 37.9028C168.539 38.4507 168.784 39.1794 168.784 40.0889V40.1587C168.784 40.7244 168.675 41.2329 168.457 41.6841C168.242 42.1317 167.932 42.4808 167.527 42.7314C167.126 42.9821 166.664 43.1074 166.142 43.1074C165.354 43.1074 164.715 42.8335 164.224 42.2856C163.737 41.7378 163.494 41.0127 163.494 40.1104V40.0405ZM164.493 40.1587C164.493 40.8032 164.641 41.3206 164.938 41.7109C165.239 42.1012 165.64 42.2964 166.142 42.2964C166.646 42.2964 167.048 42.0994 167.345 41.7056C167.642 41.3081 167.791 40.7531 167.791 40.0405C167.791 39.4032 167.638 38.8875 167.334 38.4937C167.033 38.0962 166.632 37.8975 166.131 37.8975C165.64 37.8975 165.245 38.0926 164.944 38.4829C164.643 38.8732 164.493 39.4318 164.493 40.1587ZM177.512 43H176.519V38.0103H173.844V43H172.845V37.1885H177.512V43ZM178.844 40.0405C178.844 39.4712 178.955 38.9591 179.177 38.5044C179.403 38.0496 179.714 37.6987 180.112 37.4517C180.513 37.2046 180.969 37.0811 181.481 37.0811C182.273 37.0811 182.912 37.355 183.399 37.9028C183.889 38.4507 184.135 39.1794 184.135 40.0889V40.1587C184.135 40.7244 184.026 41.2329 183.807 41.6841C183.592 42.1317 183.283 42.4808 182.878 42.7314C182.477 42.9821 182.015 43.1074 181.492 43.1074C180.704 43.1074 180.065 42.8335 179.575 42.2856C179.088 41.7378 178.844 41.0127 178.844 40.1104V40.0405ZM179.843 40.1587C179.843 40.8032 179.992 41.3206 180.289 41.7109C180.59 42.1012 180.991 42.2964 181.492 42.2964C181.997 42.2964 182.398 42.0994 182.695 41.7056C182.993 41.3081 183.141 40.7531 183.141 40.0405C183.141 39.4032 182.989 38.8875 182.685 38.4937C182.384 38.0962 181.983 37.8975 181.481 37.8975C180.991 37.8975 180.595 38.0926 180.294 38.4829C179.994 38.8732 179.843 39.4318 179.843 40.1587ZM187.191 40.5239H186.466V43H185.467V37.1885H186.466V39.6484H187.116L189.071 37.1885H190.274L187.975 39.9814L190.467 43H189.205L187.191 40.5239ZM190.94 40.0405C190.94 39.4712 191.051 38.9591 191.273 38.5044C191.499 38.0496 191.81 37.6987 192.208 37.4517C192.609 37.2046 193.065 37.0811 193.577 37.0811C194.368 37.0811 195.008 37.355 195.495 37.9028C195.985 38.4507 196.23 39.1794 196.23 40.0889V40.1587C196.23 40.7244 196.121 41.2329 195.903 41.6841C195.688 42.1317 195.378 42.4808 194.974 42.7314C194.573 42.9821 194.111 43.1074 193.588 43.1074C192.8 43.1074 192.161 42.8335 191.67 42.2856C191.183 41.7378 190.94 41.0127 190.94 40.1104V40.0405ZM191.939 40.1587C191.939 40.8032 192.088 41.3206 192.385 41.7109C192.686 42.1012 193.087 42.2964 193.588 42.2964C194.093 42.2964 194.494 42.0994 194.791 41.7056C195.088 41.3081 195.237 40.7531 195.237 40.0405C195.237 39.4032 195.085 38.8875 194.78 38.4937C194.479 38.0962 194.078 37.8975 193.577 37.8975C193.087 37.8975 192.691 38.0926 192.39 38.4829C192.089 38.8732 191.939 39.4318 191.939 40.1587ZM202.155 37.1885V43H201.156V38.0103H199.179L199.061 40.1855C198.997 41.1846 198.828 41.8989 198.556 42.3286C198.288 42.7583 197.86 42.9821 197.272 43H196.875V42.1245L197.16 42.103C197.482 42.0672 197.713 41.881 197.853 41.5444C197.992 41.2078 198.082 40.5848 198.121 39.6753L198.229 37.1885H202.155ZM206.162 43.1074C205.374 43.1074 204.733 42.8496 204.239 42.334C203.745 41.8148 203.498 41.1219 203.498 40.2554V40.0728C203.498 39.4963 203.607 38.9824 203.825 38.5312C204.047 38.0765 204.355 37.722 204.749 37.4678C205.146 37.21 205.576 37.0811 206.038 37.0811C206.794 37.0811 207.381 37.3299 207.8 37.8276C208.219 38.3254 208.428 39.0379 208.428 39.9653V40.3789H204.491C204.506 40.9518 204.672 41.4155 204.991 41.77C205.313 42.1209 205.721 42.2964 206.215 42.2964C206.566 42.2964 206.863 42.2248 207.107 42.0815C207.35 41.9383 207.563 41.7485 207.746 41.5122L208.353 41.9849C207.866 42.7332 207.136 43.1074 206.162 43.1074ZM206.038 37.8975C205.637 37.8975 205.3 38.0443 205.028 38.3379C204.756 38.6279 204.588 39.0361 204.523 39.5625H207.435V39.4873C207.406 38.9824 207.27 38.5921 207.026 38.3164C206.783 38.0371 206.453 37.8975 206.038 37.8975ZM214.331 43H213.337V40.5186H210.668V43H209.669V37.1885H210.668V39.7075H213.337V37.1885H214.331V43ZM219.691 37.1885H220.685V43H219.691V38.7622L217.011 43H216.018V37.1885H217.011V41.4316L219.691 37.1885ZM226.722 37.1885V43H225.723V40.7388H224.225L222.855 43H221.781L223.242 40.5884C222.869 40.4523 222.583 40.2428 222.382 39.96C222.185 39.6735 222.087 39.3405 222.087 38.9609C222.087 38.431 222.286 38.0049 222.683 37.6826C223.081 37.3568 223.612 37.1921 224.278 37.1885H226.722ZM223.086 38.9717C223.086 39.2546 223.183 39.4837 223.376 39.6592C223.569 39.8311 223.825 39.9188 224.144 39.9224H225.723V37.9941H224.294C223.926 37.9941 223.632 38.0854 223.414 38.2681C223.195 38.4471 223.086 38.6816 223.086 38.9717Z" fill="#333333"/>
</g>
<defs>
<filter id="filter0_d" x="0" y="0" width="230.722" height="59.8277" filterUnits="userSpaceOnUse" color-interpolation-filters="sRGB">
<feFlood flood-opacity="0" result="BackgroundImageFix"/>
<feColorMatrix in="SourceAlpha" type="matrix" values="0 0 0 0 0 0 0 0 0 0 0 0 0 0 0 0 0 0 127 0"/>
<feOffset dy="4"/>
<feGaussianBlur stdDeviation="2"/>
<feColorMatrix type="matrix" values="0 0 0 0 0 0 0 0 0 0 0 0 0 0 0 0 0 0 0.25 0"/>
<feBlend mode="normal" in2="BackgroundImageFix" result="effect1_dropShadow"/>
<feBlend mode="normal" in="SourceGraphic" in2="effect1_dropShadow" result="shape"/>
</filter>
<linearGradient id="paint0_linear" x1="14.1828" y1="23.3681" x2="66.5326" y2="23.3681" gradientUnits="userSpaceOnUse">
<stop stop-color="#FFD831"/>
<stop offset="0.309377" stop-color="white" stop-opacity="0.692474"/>
<stop offset="0.311891" stop-color="#FFD831"/>
<stop offset="1" stop-color="#F2994A"/>
</linearGradient>
</defs>
</svg>
