<svg width="77" height="52" viewBox="0 0 77 52" fill="none" xmlns="http://www.w3.org/2000/svg">
<path d="M10.1828 9.66057L26.436 0L62.5326 20.235V22.1279L26.436 3.32898L10.1828 9.66057Z" fill="#333333"/>
<path d="M10.1828 24.4778L26.436 17.2324L62.5326 31.9843V34.53L26.436 20.953L10.1828 24.4778Z" fill="#333333"/>
<path d="M10.1828 16.5796L26.436 8.55091L62.5326 26.1097V28.4595L26.436 11.8799L10.1828 16.5796Z" fill="#333333"/>
<path d="M10.1828 31.9843L26.436 26.1097L62.5326 37.9243V40.0783L26.436 30.5483L10.1828 31.9843Z" fill="#333333"/>
<path d="M10.1828 40.9269L26.436 36.5535L62.5326 44.3211V46.671L26.436 40.0783L10.1828 40.9269Z" fill="#333333"/>
<path d="M0 51.8277C0 51.8277 18.2115 46.671 26.436 46.671C69.2559 46.671 76.9582 51.8277 76.9582 51.8277C76.9582 51.8277 60.9008 49.6736 26.436 49.6736C19.3211 49.6736 0 51.8277 0 51.8277Z" fill="#333333"/>
</svg>
