<svg width="50" height="34" viewBox="0 0 50 34" fill="none" xmlns="http://www.w3.org/2000/svg">
<path d="M40.6275 13.1467V30.3223L17.1755 26.039L6.65808 26.5903V6.2341L17.1755 0L40.6275 13.1467Z" fill="url(#paint0_linear)"/>
<path d="M6.61578 6.27651L17.1756 0L40.6277 13.1467V14.3766L17.1756 2.16285L6.61578 6.27651Z" fill="#333333"/>
<path d="M6.61578 15.9033L17.1756 11.1959L40.6277 20.7803V22.4343L17.1756 13.6132L6.61578 15.9033Z" fill="#333333"/>
<path d="M6.61578 10.7718L17.1756 5.55556L40.6277 16.9635V18.4902L17.1756 7.71841L6.61578 10.7718Z" fill="#333333"/>
<path d="M6.61578 20.7803L17.1756 16.9635L40.6277 24.6395V26.039L17.1756 19.8473L6.61578 20.7803Z" fill="#333333"/>
<path d="M6.61578 26.5903L17.1756 23.7489L40.6277 28.7956V30.3223L17.1756 26.039L6.61578 26.5903Z" fill="#333333"/>
<path d="M0 33.6726C0 33.6726 11.8321 30.3223 17.1756 30.3223C44.9958 30.3223 50 33.6726 50 33.6726C50 33.6726 39.5674 32.2731 17.1756 32.2731C12.553 32.2731 0 33.6726 0 33.6726Z" fill="#333333"/>
<defs>
<linearGradient id="paint0_linear" x1="6.61567" y1="15.1824" x2="40.6275" y2="15.1824" gradientUnits="userSpaceOnUse">
<stop stop-color="#FFD831"/>
<stop offset="0.309377" stop-color="white" stop-opacity="0.692474"/>
<stop offset="0.311891" stop-color="#FFD831"/>
<stop offset="1" stop-color="#F2994A"/>
</linearGradient>
</defs>
</svg>
