<svg width="20" height="20" viewBox="0 0 20 20" fill="none" xmlns="http://www.w3.org/2000/svg">
<rect width="20" height="20" rx="2" fill="#4D76A1"/>
<path fill-rule="evenodd" clip-rule="evenodd" d="M9.86099 13.9665H10.6992C10.6992 13.9665 10.9524 13.9387 11.0817 13.7994C11.2007 13.6714 11.1968 13.4312 11.1968 13.4312C11.1968 13.4312 11.1805 12.3064 11.7025 12.1408C12.2171 11.9777 12.8778 13.2279 13.5782 13.7085C14.1079 14.0724 14.5103 13.9926 14.5103 13.9926L16.383 13.9665C16.383 13.9665 17.3627 13.9062 16.8982 13.1359C16.8601 13.0729 16.6277 12.5661 15.5058 11.5248C14.3315 10.4349 14.4888 10.6112 15.9033 8.72588C16.7647 7.57774 17.1091 6.87678 17.0015 6.57656C16.8989 6.29062 16.2654 6.36619 16.2654 6.36619L14.1568 6.37933C14.1568 6.37933 14.0005 6.35801 13.8845 6.4273C13.7713 6.49527 13.6984 6.65366 13.6984 6.65366C13.6984 6.65366 13.3646 7.54214 12.9195 8.29773C11.9806 9.89212 11.6052 9.97626 11.4518 9.87727C11.0948 9.64653 11.1839 8.95034 11.1839 8.45574C11.1839 6.91066 11.4182 6.26644 10.7276 6.09967C10.4984 6.04427 10.3297 6.00772 9.74353 6.00182C8.99117 5.99401 8.35437 6.0041 7.9938 6.18077C7.75392 6.29823 7.56888 6.56 7.68158 6.57503C7.82094 6.59369 8.13658 6.66013 8.30392 6.88801C8.51999 7.18195 8.51238 7.84217 8.51238 7.84217C8.51238 7.84217 8.6365 9.661 8.22244 9.88698C7.93821 10.0419 7.54832 9.72554 6.71124 8.27908C6.28233 7.53814 5.95851 6.71915 5.95851 6.71915C5.95851 6.71915 5.89606 6.56609 5.78469 6.48423C5.64953 6.38504 5.46068 6.35344 5.46068 6.35344L3.45699 6.36657C3.45699 6.36657 3.1562 6.37495 3.04578 6.50574C2.94755 6.62206 3.03797 6.86269 3.03797 6.86269C3.03797 6.86269 4.60666 10.5327 6.38285 12.3822C8.0115 14.0779 9.86099 13.9665 9.86099 13.9665Z" fill="white"/>
</svg>
