<svg width="40" height="40" fill="none" xmlns="http://www.w3.org/2000/svg"><path d="M25.625 25.625H1.875v4.844a.781.781 0 00.781.781h22.969v-5.625z" fill="#FFC80A"/><path d="M36.563 21.25H25.624v10h11.719a.781.781 0 00.781-.781v-7.657a1.563 1.563 0 00-1.563-1.562z" fill="#FFC80A"/><path d="M25.625 21.25h11.25l-4.298-5.91a2.346 2.346 0 00-1.895-.965h-5.057v6.875z" fill="#FFF9F7"/><path d="M31.875 35.625a3.75 3.75 0 110-7.5 3.75 3.75 0 010 7.5zm-23.75 0a3.75 3.75 0 110-7.5 3.75 3.75 0 010 7.5z" fill="#fff"/><path d="M25.625 14.375h5l-2.268-3.402a.782.782 0 00-.65-.348h-2.082v3.75z" fill="#FFC80A"/><path d="M30 23.125h-2.5v1.25H30v-1.25z" fill="#525A68"/><path d="M36.563 26.25h1.562v-3.438a1.563 1.563 0 00-1.563-1.562H35v3.438a1.563 1.563 0 001.563 1.562z" fill="#FFDD4D"/><path d="M1.25 13.125V8.906A1.408 1.408 0 012.656 7.5h22.188a1.408 1.408 0 011.406 1.406V10h1.457a1.403 1.403 0 011.17.626l2.092 3.138a2.977 2.977 0 012.113 1.209l1.173 1.612-1.01.736-1.173-1.613a1.724 1.724 0 00-1.39-.708H26.25v5.625h9.398l-1.779-2.445 1.011-.735 2.401 3.301a2.19 2.19 0 011.469 2.067v7.656a1.407 1.407 0 01-1.406 1.406H36.25a4.375 4.375 0 11-8.75 0h-15a4.375 4.375 0 11-8.75 0H2.656a1.407 1.407 0 01-1.406-1.406V14.375H2.5V25H25V8.906a.156.156 0 00-.156-.156H2.656a.156.156 0 00-.156.156v4.219H1.25zm28.207.625l-1.62-2.43a.156.156 0 00-.13-.07H26.25v2.5h3.207zm8.043 9.063a.938.938 0 00-.938-.938h-.937v2.813a.938.938 0 00.938.937h.937v-2.813zM31.875 35a3.125 3.125 0 100-6.25 3.125 3.125 0 000 6.25zm-4.193-4.375a4.376 4.376 0 018.386 0h1.276a.156.156 0 00.156-.156v-3.594h-.938a2.19 2.19 0 01-2.187-2.188v-2.812H26.25v8.75h1.432zM8.125 35a3.125 3.125 0 100-6.25 3.125 3.125 0 000 6.25zM2.5 26.25v4.219a.156.156 0 00.156.156h1.276a4.376 4.376 0 018.386 0H25V26.25H2.5z" fill="#525A68"/><path d="M15.1 22.122a9.608 9.608 0 003.791-6.024l.468-2.973-5.617-2.505-5.617 2.505.473 2.997a9.604 9.604 0 003.841 6.06l1.298.943 1.363-1.003z" fill="#FFDD4D"/><path d="M13.737 23.75a.624.624 0 00.37-.122l1.363-1.003a10.23 10.23 0 004.036-6.415l.003-.015.468-2.973a.626.626 0 00-.363-.668l-5.617-2.505a.625.625 0 00-.51 0L7.87 12.555a.625.625 0 00-.362.669l.473 2.997.002.014a10.226 10.226 0 004.089 6.453l1.298.944a.625.625 0 00.367.119zm4.538-7.757a8.984 8.984 0 01-3.546 5.625l-.994.733-.928-.675a8.982 8.982 0 01-3.593-5.659l-.397-2.516 4.925-2.196 4.925 2.196-.392 2.492z" fill="#525A68"/><path d="M12.802 18.667a.55.55 0 01-.408-.178l-1.728-1.816.815-.856 1.32 1.388L15.852 14l.815.856-3.457 3.633a.575.575 0 01-.407.178zM23.75 10H22.5v1.25h1.25V10zm0 12.5H22.5v1.25h1.25V22.5zM5 10H3.75v1.25H5V10zm0 12.5H3.75v1.25H5V22.5z" fill="#525A68"/><path d="M31.875 33.125a1.25 1.25 0 110-2.5 1.25 1.25 0 010 2.5z" fill="#FEFEFE"/><path d="M31.875 33.75a1.875 1.875 0 100-3.75 1.875 1.875 0 000 3.75zm0-2.5a.625.625 0 110 1.25.625.625 0 010-1.25z" fill="#525A68"/><path d="M8.125 33.125a1.25 1.25 0 110-2.5 1.25 1.25 0 010 2.5z" fill="#FEFEFE"/><path d="M8.125 33.75a1.875 1.875 0 100-3.75 1.875 1.875 0 000 3.75zm0-2.5a.626.626 0 110 1.251.626.626 0 010-1.251zM38.75 10h-5v1.25h5V10zm-6.25 0h-1.25v1.25h1.25V10zm.625-6.25h-10V5h10V3.75zm-11.25 0h-1.25V5h1.25V3.75zM16.25 5h-10v1.25h10V5zM5 5H3.75v1.25H5V5zm21.875 28.75h-11.25V35h11.25v-1.25zm-12.5 0h-1.25V35h1.25v-1.25z" fill="#525A68"/></svg>