<svg width="60" height="60" fill="none" xmlns="http://www.w3.org/2000/svg"><g clip-path="url(#clip0)"><path d="M1.172 20.39h57.656v6.563H1.172v-6.562zm0 18.75h57.656v6.563H1.172v-6.562z" fill="#FFDE55"/><path d="M36.563 55.664H23.437V10.88L30 4.336l6.563 6.543v44.785zm-22.266 0H1.172V10.88l6.562-6.543 6.563 6.543v44.785zm31.406 0h13.125V10.88l-6.562-6.543-6.563 6.543v44.785z" fill="#FFC80A"/><path d="M59.656 10.05l-6.563-6.544a1.172 1.172 0 00-1.655 0l-6.562 6.543c-.22.22-.345.519-.345.83v8.34h-6.797v-8.34c0-.311-.124-.61-.344-.83l-6.563-6.543a1.172 1.172 0 00-1.655 0L22.61 10.05c-.22.22-.345.519-.345.83v8.34H15.47v-8.34c0-.311-.124-.61-.345-.83L8.562 3.506a1.172 1.172 0 00-1.655 0L.344 10.05c-.22.22-.344.519-.344.83v44.785c0 .647.525 1.172 1.172 1.172h13.125c.647 0 1.172-.525 1.172-1.172v-8.789h6.797v8.79c0 .646.524 1.17 1.172 1.17h13.125a1.17 1.17 0 001.171-1.17v-8.79h6.797v8.79c0 .646.525 1.17 1.172 1.17h13.125c.647 0 1.172-.524 1.172-1.17V35.273a1.172 1.172 0 10-2.344 0v19.218H46.875V11.365l5.39-5.374 5.391 5.374v13.362a1.172 1.172 0 002.344 0V10.879c0-.311-.124-.61-.344-.83zM37.734 28.124h6.797v9.844h-6.797v-9.844zm6.797-6.563v4.22h-6.797v-4.22h6.797zM15.47 28.125h6.797v9.844H15.47v-9.844zm6.797-6.563v4.22H15.47v-4.22h6.797zm-9.141 32.93H2.344V11.365l5.39-5.374 5.391 5.374v43.127zm2.344-9.96v-4.22h6.797v4.22H15.47zm19.922 9.96H24.609V11.365L30 5.991l5.39 5.374v43.127zm2.343-9.96v-4.22h6.797v4.22h-6.797z" fill="#525A68"/><path d="M7.734 22.596c-.308 0-.61.124-.828.342-.218.219-.343.52-.343.83 0 .308.125.609.343.828.218.218.52.343.828.343.309 0 .61-.125.829-.343.218-.219.343-.52.343-.828 0-.31-.125-.612-.343-.83a1.18 1.18 0 00-.829-.342zm22.266 0c-.308 0-.61.124-.828.342-.219.219-.344.52-.344.828 0 .31.125.612.344.83.218.218.52.342.828.342.308 0 .61-.124.828-.342.219-.218.344-.52.344-.83 0-.308-.125-.609-.344-.828a1.18 1.18 0 00-.828-.342zm23.094.342a1.18 1.18 0 00-.828-.342c-.309 0-.61.124-.829.342a1.18 1.18 0 00-.343.83c0 .308.125.61.343.828.218.218.52.343.829.343.308 0 .61-.125.828-.343.218-.219.343-.52.343-.828 0-.31-.125-.611-.343-.83zM7.734 41.25c-.308 0-.61.125-.828.343a1.18 1.18 0 00-.343.829c0 .308.125.61.343.828.218.218.52.344.828.344.309 0 .61-.126.829-.344a1.18 1.18 0 00.343-.828c0-.308-.125-.61-.343-.829a1.18 1.18 0 00-.829-.343zm22.266 0c-.308 0-.61.125-.828.343a1.18 1.18 0 00-.344.829A1.176 1.176 0 0030 43.594c.308 0 .61-.126.828-.344a1.18 1.18 0 00.344-.828c0-.308-.125-.61-.344-.829A1.18 1.18 0 0030 41.25zm22.266 0c-.309 0-.61.125-.829.343a1.18 1.18 0 00-.343.829c0 .308.125.61.343.828.218.218.52.344.829.344.308 0 .61-.126.828-.344a1.18 1.18 0 00.343-.828c0-.308-.125-.61-.343-.829a1.18 1.18 0 00-.828-.343zm6.562-12.422c-.308 0-.61.125-.828.344a1.18 1.18 0 00-.344.828 1.176 1.176 0 001.172 1.172c.308 0 .61-.125.829-.344A1.18 1.18 0 0060 30c0-.308-.125-.61-.343-.828a1.18 1.18 0 00-.829-.344z" fill="#525A68"/></g><defs><clipPath id="clip0"><path fill="#fff" d="M0 0h60v60H0z"/></clipPath></defs></svg>