<svg width="60" height="60" fill="none" xmlns="http://www.w3.org/2000/svg"><path d="M57.873 28.318l-4.208-1.273a23.686 23.686 0 00-1.69-6.322l3.005-3.203a1.758 1.758 0 00-1.682-2.913l-4.282 1.001a23.989 23.989 0 00-4.624-4.624l1.001-4.282A1.758 1.758 0 0042.48 5.02l-3.203 3.004a23.688 23.688 0 00-6.322-1.69l-1.273-4.207a1.758 1.758 0 00-3.364 0l-1.273 4.208c-2.216.273-4.338.85-6.322 1.69L17.521 5.02a1.758 1.758 0 00-2.914 1.682l1.002 4.282a23.986 23.986 0 00-4.624 4.624l-4.282-1.001A1.758 1.758 0 005.02 17.52l3.004 3.203a23.688 23.688 0 00-1.69 6.322l-4.207 1.273a1.758 1.758 0 000 3.364l4.208 1.273c.273 2.216.85 4.338 1.69 6.322L5.02 42.479a1.758 1.758 0 001.682 2.914l4.282-1.002a23.986 23.986 0 004.624 4.625l-1.001 4.282a1.759 1.759 0 002.913 1.682l3.203-3.004a23.69 23.69 0 006.322 1.69l1.273 4.207a1.758 1.758 0 003.364 0l1.273-4.208a23.69 23.69 0 006.322-1.69l3.202 3.005a1.758 1.758 0 002.914-1.682l-1.002-4.282a23.98 23.98 0 004.625-4.625l4.282 1.002a1.759 1.759 0 001.682-2.913l-3.004-3.203a23.69 23.69 0 001.69-6.322l4.207-1.273a1.758 1.758 0 000-3.364zM30 46.816c-9.288 0-16.816-7.529-16.816-16.816 0-9.288 7.528-16.816 16.816-16.816S46.816 20.712 46.816 30 39.287 46.816 30 46.816z" fill="#fff"/><path d="M30 9.668C18.771 9.668 9.668 18.771 9.668 30c0 11.23 9.103 20.332 20.332 20.332 11.229 0 20.332-9.103 20.332-20.332 0-11.229-9.103-20.332-20.332-20.332zm0 35.39c-8.317 0-15.059-6.741-15.059-15.058S21.683 14.941 30 14.941 45.059 21.683 45.059 30 38.317 45.059 30 45.059z" fill="#fff"/><path d="M36.48 24.229L30 41.543l-9.996-5.771V24.229h16.477z" fill="#FFD488"/><path d="M39.996 24.229H30L36.48 37.8l3.517-2.03V24.229z" fill="#F4B74A"/><path d="M30 24.229v17.314l6.48-3.742V26.258L30 24.228z" fill="#F9C662"/><path d="M39.997 24.229l-4.998 2.886H26.76l-1.758-5.773L30 18.457l9.997 5.771z" fill="#FFD488"/><path d="M34.998 27.115L30.002 30l-9.997-5.771 4.998-2.887L35 27.115z" fill="#F9C662"/><path d="M19.564 36.533l9.997 5.771a.879.879 0 00.878 0l9.997-5.771a.879.879 0 00.44-.761V24.229a.879.879 0 00-.44-.762l-9.997-5.771a.879.879 0 00-.878 0l-9.997 5.771a.879.879 0 00-.44.762v11.543c0 .314.168.604.44.76zm1.318-10.782l8.24 4.756v9.514l-8.24-4.757v-9.513zM30 28.985l-8.239-4.756 3.24-1.871 8.24 4.756L30 28.985zm.879 11.036v-9.514l8.239-4.756v9.513l-8.24 4.757zM30 19.47l8.239 4.758-3.24 1.87-8.24-4.756L30 19.472z" fill="#525A68"/><path d="M30 45.938c8.788 0 15.938-7.15 15.938-15.938S38.788 14.062 30 14.062 14.062 21.212 14.062 30 21.212 45.938 30 45.938zm0-30.118c7.819 0 14.18 6.361 14.18 14.18S37.819 44.18 30 44.18 15.82 37.819 15.82 30 22.181 15.82 30 15.82z" fill="#525A68"/><path d="M58.127 27.482c-.126-.05-.267-.086-.406-.129l-3.26-.986a24.576 24.576 0 00-1.458-5.454l2.618-2.791c.8-.854.945-2.108.36-3.122a2.62 2.62 0 00-2.883-1.249c-.095.014-.182.042-.255.06l-3.479.813a24.863 24.863 0 00-3.988-3.988l.873-3.734A2.621 2.621 0 0045 4.02a2.616 2.616 0 00-3.118.364c-.103.083-.203.184-.313.286l-2.482 2.328a24.585 24.585 0 00-5.454-1.458l-1.11-3.667A2.621 2.621 0 0030 0a2.62 2.62 0 00-2.52 1.874c-.04.105-.069.215-.1.317l-1.013 3.348a24.58 24.58 0 00-5.454 1.458L18.122 4.38A2.622 2.622 0 0015 4.019a2.62 2.62 0 00-1.249 2.884c.01.034.017.071.026.11l.847 3.623a24.87 24.87 0 00-3.988 3.988l-3.734-.873A2.622 2.622 0 004.02 15a2.617 2.617 0 00.364 3.117c.083.103.184.204.287.313l2.327 2.482a24.577 24.577 0 00-1.458 5.454l-3.667 1.11A2.621 2.621 0 000 30c0 1.17.754 2.18 1.874 2.52.105.04.215.069.317.1l3.348 1.013a24.583 24.583 0 001.458 5.454L4.38 41.878A2.621 2.621 0 004.019 45a2.62 2.62 0 002.883 1.25l-.001-.008a7.1 7.1 0 00.416-.09l3.319-.776a24.855 24.855 0 003.988 3.988l-.873 3.734A2.621 2.621 0 0015 55.98a2.617 2.617 0 003.118-.364c.103-.082.203-.183.313-.286l2.482-2.328a24.588 24.588 0 005.454 1.458l1.11 3.667A2.622 2.622 0 0030 60a2.62 2.62 0 002.52-1.874c.036-.093.06-.187.085-.27l1.028-3.395a24.578 24.578 0 005.454-1.458l2.791 2.618c.854.8 2.109.945 3.122.36a2.617 2.617 0 001.245-2.883c-.014-.095-.038-.182-.055-.255l-.814-3.479a24.863 24.863 0 003.988-3.988l3.733.873A2.622 2.622 0 0055.981 45a2.62 2.62 0 00-.36-3.122c-.026-.025-.05-.053-.077-.082l-2.541-2.709a24.586 24.586 0 001.458-5.454l3.667-1.11A2.621 2.621 0 0060 30c0-1.17-.752-2.179-1.873-2.518zm-.509 3.36l-4.207 1.272a.879.879 0 00-.618.733 22.82 22.82 0 01-1.627 6.088.878.878 0 00.169.943l3.002 3.201c.264.282.313.71.122 1.042a.885.885 0 01-.961.416l-4.282-1.001a.88.88 0 00-.9.325 23.094 23.094 0 01-4.455 4.454.879.879 0 00-.325.9l.302 1.294.698 2.984a.886.886 0 01-.415.965.885.885 0 01-1.04-.12l-3.202-3.003a.879.879 0 00-.944-.169 22.823 22.823 0 01-6.088 1.627.88.88 0 00-.733.618l-.327 1.08-.945 3.124a.886.886 0 01-.842.627.885.885 0 01-.841-.623l-1.273-4.208a.879.879 0 00-.733-.618 22.84 22.84 0 01-6.088-1.627.877.877 0 00-.943.169l-3.2 3.002a.885.885 0 01-1.043.121.885.885 0 01-.417-.96l1.002-4.282a.88.88 0 00-.325-.9 23.094 23.094 0 01-4.454-4.456.88.88 0 00-.9-.324l-4.281 1a.885.885 0 01-.963-.415.885.885 0 01.12-1.04l3.004-3.203a.879.879 0 00.169-.943 22.821 22.821 0 01-1.627-6.088.88.88 0 00-.618-.733l-.675-.204-3.53-1.068A.885.885 0 011.758 30c0-.384.256-.73.624-.841l4.207-1.273a.879.879 0 00.618-.733c.26-2.1.807-4.148 1.627-6.088a.879.879 0 00-.169-.943l-3.002-3.2a.886.886 0 01-.122-1.043.885.885 0 01.961-.417l4.282 1.002a.88.88 0 00.9-.325 23.1 23.1 0 014.455-4.454.879.879 0 00.325-.901c-.42-1.792-.988-4.225-1-4.28a.885.885 0 01.415-.963.884.884 0 011.04.12l3.202 3.004a.88.88 0 00.944.168 22.826 22.826 0 016.087-1.626.879.879 0 00.734-.618l.204-.675 1.068-3.53A.886.886 0 0130 1.758c.384 0 .73.256.841.624l1.273 4.207c.1.333.388.575.733.618 2.1.26 4.148.807 6.088 1.627.32.135.69.069.943-.169l3.2-3.002a.885.885 0 011.043-.121.885.885 0 01.417.96l-1.002 4.282a.875.875 0 00.325.9 23.094 23.094 0 014.454 4.455.88.88 0 00.901.325l1.293-.302 2.985-.698a.886.886 0 01.965.415.885.885 0 01-.12 1.04l-3.004 3.202a.88.88 0 00-.169.944 22.82 22.82 0 011.627 6.088.88.88 0 00.618.733l4.206 1.273a.885.885 0 01.625.84.884.884 0 01-.624.842z" fill="#525A68"/><path d="M30 8.79c-4.88 0-9.645 1.698-13.417 4.782a.879.879 0 001.113 1.36A19.488 19.488 0 0130 10.548c10.727 0 19.453 8.726 19.453 19.453 0 10.727-8.727 19.453-19.453 19.453-10.727 0-19.453-8.727-19.453-19.453 0-4.674 1.682-9.192 4.736-12.722a.879.879 0 10-1.33-1.15A21.204 21.204 0 008.79 30c0 11.696 9.515 21.21 21.211 21.21 11.696 0 21.21-9.514 21.21-21.21 0-11.696-9.514-21.21-21.21-21.21z" fill="#525A68"/><path d="M19.564 36.533l9.997 5.771a.879.879 0 00.878 0l9.997-5.771a.879.879 0 00.44-.761V24.229a.879.879 0 00-.44-.762l-9.997-5.771a.879.879 0 00-.878 0l-9.997 5.771a.879.879 0 00-.44.762v11.543c0 .314.168.604.44.76zm1.318-10.782l8.24 4.756v9.514l-8.24-4.757v-9.513zM30 28.985l-8.239-4.756 3.24-1.871 8.24 4.756L30 28.985zm.879 11.036v-9.514l8.239-4.756v9.513l-8.24 4.757zM30 19.47l8.239 4.758-3.24 1.87-8.24-4.756L30 19.472z" fill="#525A68"/><path d="M30 45.938c8.788 0 15.938-7.15 15.938-15.938S38.788 14.062 30 14.062 14.062 21.212 14.062 30 21.212 45.938 30 45.938zm0-30.118c7.819 0 14.18 6.361 14.18 14.18S37.819 44.18 30 44.18 15.82 37.819 15.82 30 22.181 15.82 30 15.82z" fill="#525A68"/><path d="M58.127 27.482c-.126-.05-.267-.086-.406-.129l-3.26-.986a24.576 24.576 0 00-1.458-5.454l2.618-2.791c.8-.854.945-2.108.36-3.122a2.62 2.62 0 00-2.883-1.249c-.095.014-.182.042-.255.06l-3.479.813a24.863 24.863 0 00-3.988-3.988l.873-3.734A2.621 2.621 0 0045 4.02a2.616 2.616 0 00-3.118.364c-.103.083-.203.184-.313.286l-2.482 2.328a24.585 24.585 0 00-5.454-1.458l-1.11-3.667A2.621 2.621 0 0030 0a2.62 2.62 0 00-2.52 1.874c-.04.105-.069.215-.1.317l-1.013 3.348a24.58 24.58 0 00-5.454 1.458L18.122 4.38A2.622 2.622 0 0015 4.019a2.62 2.62 0 00-1.249 2.884c.01.034.017.071.026.11l.847 3.623a24.87 24.87 0 00-3.988 3.988l-3.734-.873A2.622 2.622 0 004.02 15a2.617 2.617 0 00.364 3.117c.083.103.184.204.287.313l2.327 2.482a24.577 24.577 0 00-1.458 5.454l-3.667 1.11A2.621 2.621 0 000 30c0 1.17.754 2.18 1.874 2.52.105.04.215.069.317.1l3.348 1.013a24.583 24.583 0 001.458 5.454L4.38 41.878A2.621 2.621 0 004.019 45a2.62 2.62 0 002.883 1.25l-.001-.008a7.1 7.1 0 00.416-.09l3.319-.776a24.855 24.855 0 003.988 3.988l-.873 3.734A2.621 2.621 0 0015 55.98a2.617 2.617 0 003.118-.364c.103-.082.203-.183.313-.286l2.482-2.328a24.588 24.588 0 005.454 1.458l1.11 3.667A2.622 2.622 0 0030 60a2.62 2.62 0 002.52-1.874c.036-.093.06-.187.085-.27l1.028-3.395a24.578 24.578 0 005.454-1.458l2.791 2.618c.854.8 2.109.945 3.122.36a2.617 2.617 0 001.245-2.883c-.014-.095-.038-.182-.055-.255l-.814-3.479a24.863 24.863 0 003.988-3.988l3.733.873A2.622 2.622 0 0055.981 45a2.62 2.62 0 00-.36-3.122c-.026-.025-.05-.053-.077-.082l-2.541-2.709a24.586 24.586 0 001.458-5.454l3.667-1.11A2.621 2.621 0 0060 30c0-1.17-.752-2.179-1.873-2.518zm-.509 3.36l-4.207 1.272a.879.879 0 00-.618.733 22.82 22.82 0 01-1.627 6.088.878.878 0 00.169.943l3.002 3.201c.264.282.313.71.122 1.042a.885.885 0 01-.961.416l-4.282-1.001a.88.88 0 00-.9.325 23.094 23.094 0 01-4.455 4.454.879.879 0 00-.325.9l.302 1.294.698 2.984a.886.886 0 01-.415.965.885.885 0 01-1.04-.12l-3.202-3.003a.879.879 0 00-.944-.169 22.823 22.823 0 01-6.088 1.627.88.88 0 00-.733.618l-.327 1.08-.945 3.124a.886.886 0 01-.842.627.885.885 0 01-.841-.623l-1.273-4.208a.879.879 0 00-.733-.618 22.84 22.84 0 01-6.088-1.627.877.877 0 00-.943.169l-3.2 3.002a.885.885 0 01-1.043.121.885.885 0 01-.417-.96l1.002-4.282a.88.88 0 00-.325-.9 23.094 23.094 0 01-4.454-4.456.88.88 0 00-.9-.324l-4.281 1a.885.885 0 01-.963-.415.885.885 0 01.12-1.04l3.004-3.203a.879.879 0 00.169-.943 22.821 22.821 0 01-1.627-6.088.88.88 0 00-.618-.733l-.675-.204-3.53-1.068A.885.885 0 011.758 30c0-.384.256-.73.624-.841l4.207-1.273a.879.879 0 00.618-.733c.26-2.1.807-4.148 1.627-6.088a.879.879 0 00-.169-.943l-3.002-3.2a.886.886 0 01-.122-1.043.885.885 0 01.961-.417l4.282 1.002a.88.88 0 00.9-.325 23.1 23.1 0 014.455-4.454.879.879 0 00.325-.901c-.42-1.792-.988-4.225-1-4.28a.885.885 0 01.415-.963.884.884 0 011.04.12l3.202 3.004a.88.88 0 00.944.168 22.826 22.826 0 016.087-1.626.879.879 0 00.734-.618l.204-.675 1.068-3.53A.886.886 0 0130 1.758c.384 0 .73.256.841.624l1.273 4.207c.1.333.388.575.733.618 2.1.26 4.148.807 6.088 1.627.32.135.69.069.943-.169l3.2-3.002a.885.885 0 011.043-.121.885.885 0 01.417.96l-1.002 4.282a.875.875 0 00.325.9 23.094 23.094 0 014.454 4.455.88.88 0 00.901.325l1.293-.302 2.985-.698a.886.886 0 01.965.415.885.885 0 01-.12 1.04l-3.004 3.202a.88.88 0 00-.169.944 22.82 22.82 0 011.627 6.088.88.88 0 00.618.733l4.206 1.273a.885.885 0 01.625.84.884.884 0 01-.624.842z" fill="#525A68"/><path d="M30 8.79c-4.88 0-9.645 1.698-13.417 4.782a.879.879 0 001.113 1.36A19.488 19.488 0 0130 10.548c10.727 0 19.453 8.726 19.453 19.453 0 10.727-8.727 19.453-19.453 19.453-10.727 0-19.453-8.727-19.453-19.453 0-4.674 1.682-9.192 4.736-12.722a.879.879 0 10-1.33-1.15A21.204 21.204 0 008.79 30c0 11.696 9.515 21.21 21.211 21.21 11.696 0 21.21-9.514 21.21-21.21 0-11.696-9.514-21.21-21.21-21.21z" fill="#525A68"/></svg>