<svg width="60" height="60" fill="none" xmlns="http://www.w3.org/2000/svg"><g clip-path="url(#clip0)"><path fill-rule="evenodd" clip-rule="evenodd" d="M58.711 39.794H36.495l-1.63 2.45 1.63 2.05H59.12v-4.091a.409.409 0 00-.41-.41z" fill="#E8EAEA"/><path fill-rule="evenodd" clip-rule="evenodd" d="M59.121 42.042H36.495v2.252H59.12v-2.252z" fill="#D4D6D8"/><path fill-rule="evenodd" clip-rule="evenodd" d="M41.472 31.628L40.27 25.38c-.07-.369-.308-.68-.684-.68h-3.82c-.779 2.614-1.636 4.76.73 7.784h4.333c.536 0 .74-.369.644-.856z" fill="#FE636E"/><path fill-rule="evenodd" clip-rule="evenodd" d="M36.495 46.782V32.484c0-2.844.128-4.883-.729-7.784-2.179-7.358-9-12.727-17.08-12.727C8.85 11.973.88 19.93.88 29.741c0 9.816 7.97 17.769 17.808 17.769h17.076a.732.732 0 00.732-.727z" fill="#FFDD4D"/><path fill-rule="evenodd" clip-rule="evenodd" d="M27.698 29.741c0-4.967-4.033-8.99-9.011-8.99-4.982 0-9.014 4.023-9.014 8.99 0 4.97 4.032 8.994 9.014 8.994H27a.701.701 0 00.698-.7v-8.294z" fill="#E8EAEA"/><path fill-rule="evenodd" clip-rule="evenodd" d="M18.687 11.973C8.849 11.973.879 19.93.879 29.741h4.104c.525 0 .393.051.413-.49a13.219 13.219 0 013.887-8.893 13.258 13.258 0 018.909-3.874c.542-.02.495.108.495-.416v-4.095zm17.808 31.029H19.36a.676.676 0 00-.675.673v3.835h17.076a.732.732 0 00.732-.727v-3.781zM22.184 31.307v-3.131c0-.385-.315-.7-.702-.7h-5.595a.702.702 0 00-.701.7v3.131c0 .386.315.703.701.703h5.595a.705.705 0 00.702-.703z" fill="#fff"/><path fill-rule="evenodd" clip-rule="evenodd" d="M27.697 29.741c0-4.967-4.032-8.99-9.01-8.99-.519 0-1.024.043-1.515.125 4.256.72 7.496 4.412 7.496 8.865v8.294a.7.7 0 01-.698.7H27a.701.701 0 00.697-.7v-8.294z" fill="#D4D6D8"/><path fill-rule="evenodd" clip-rule="evenodd" d="M22.184 31.307v-3.131c0-.385-.315-.7-.701-.7h-2.43c.386 0 .705.315.705.7v3.131a.708.708 0 01-.705.703h2.43a.705.705 0 00.701-.703zm14.31 11.695H32.38v3.78a.729.729 0 01-.728.728h4.11a.732.732 0 00.732-.727v-3.781z" fill="#fff"/><path fill-rule="evenodd" clip-rule="evenodd" d="M36.495 29.741v-.02.02zm0 2.742c0-.987.013-1.876 0-2.742v2.742zm-.505-6.951v-.007.007zm.505 14.262v-7.31c0-.988.013-1.877 0-2.743v-.02a20.876 20.876 0 00-.2-2.654h-.004a16.118 16.118 0 00-.301-1.532v-.01a30.099 30.099 0 00-.224-.825c-2.18-7.358-9-12.727-17.08-12.727v.477c7.852 1.853 13.694 8.892 13.694 17.291v13.261h4.114v-3.208z" fill="#FFC80A"/><path fill-rule="evenodd" clip-rule="evenodd" d="M41.473 31.628L40.27 25.38c-.072-.369-.309-.68-.685-.68H37.16c.373.004.606.315.677.68l1.203 6.248c.092.487-.108.856-.643.856h2.433c.535 0 .739-.369.644-.856z" fill="#F93E55"/><path d="M58.711 38.915H37.373v-5.553h3.456c.498 0 .928-.188 1.21-.53.294-.357.399-.844.297-1.37l-1.203-6.25c-.161-.832-.783-1.39-1.548-1.39h-3.178c-2.485-7.39-9.49-12.728-17.72-12.728C8.383 11.094 0 19.46 0 29.741 0 40.023 8.383 48.39 18.687 48.39h17.076c.888 0 1.61-.72 1.61-1.606v-1.61h7.854a.879.879 0 100-1.758h-7.854v-2.742h20.87v2.743h-9.437a.879.879 0 100 1.757h9.436v2.854a.879.879 0 101.758 0v-7.825a1.29 1.29 0 00-1.289-1.288zM39.413 25.579l1.16 6.026h-3.2V29.74c0-1.43-.162-2.823-.47-4.162h2.51zM1.78 30.62h3.202l.115.001h.068c.237 0 .562-.021.83-.294.292-.297.283-.648.278-.837a3.108 3.108 0 010-.207 12.3 12.3 0 012.17-6.552.879.879 0 10-1.447-.999 14.056 14.056 0 00-2.462 7.13H1.781c.444-8.615 7.39-15.545 16.027-15.987v2.747a14.099 14.099 0 00-7.621 2.795.879.879 0 101.053 1.408 12.355 12.355 0 016.985-2.463c.085-.003.153-.002.206 0 .19.003.544.012.84-.28.3-.297.297-.649.295-.905v-3.302c8.927.457 16.05 7.848 16.05 16.866v12.383H19.36c-.857 0-1.553.695-1.553 1.551v2.933C9.172 46.165 2.226 39.236 1.78 30.62zm33.835 16.01h-16.05v-2.749h16.05v2.75z" fill="#525A68"/><path d="M18.687 39.614H27a1.58 1.58 0 001.576-1.579v-8.294c0-5.442-4.436-9.87-9.89-9.87-5.454 0-9.892 4.428-9.892 9.87 0 5.444 4.438 9.873 9.893 9.873zm0-17.985c4.484 0 8.132 3.64 8.132 8.112v8.115h-8.132c-4.486 0-8.135-3.64-8.135-8.115 0-4.473 3.65-8.112 8.135-8.112z" fill="#525A68"/><path d="M15.887 32.889h5.595c.872 0 1.58-.71 1.58-1.582v-3.131c0-.871-.708-1.58-1.58-1.58h-5.595c-.87 0-1.58.709-1.58 1.58v3.13c0 .873.71 1.583 1.58 1.583zm.178-4.534h5.24v2.776h-5.24v-2.776z" fill="#525A68"/></g><defs><clipPath id="clip0"><path fill="#fff" d="M0 0h60v60H0z"/></clipPath></defs></svg>