<svg width="60" height="60" fill="none" xmlns="http://www.w3.org/2000/svg"><path d="M56.063 27.752a.563.563 0 11.001 1.125.563.563 0 01-.002-1.125zm2.084-17.6a.563.563 0 11.001 1.126.563.563 0 01-.001-1.126zM40.3 8.585a.563.563 0 11-.002 1.127.563.563 0 01.002-1.127zM28.552 25.69a.564.564 0 11-.002 1.128.564.564 0 01.002-1.128zm1.784 5.864a.563.563 0 110 1.126.563.563 0 010-1.126zM52.922 5.315l-1.838 1.48.18 2.354-1.976-1.289-2.183.896.616-2.278-1.528-1.797 2.357-.119 1.238-2.008.84 2.204 2.294.557zm4.198 13.45l-1.837 1.482.18 2.352-1.977-1.29-2.182.897.615-2.277-1.527-1.799 2.357-.118 1.238-2.009.84 2.206 2.293.556zm-6.987 10.898L47.798 30l-1.044 2.117L45.71 30l-2.336-.338 1.69-1.648-.398-2.325 2.088 1.098 2.089-1.098-.399 2.325 1.689 1.648z" fill="#fff"/><path d="M41.337 34.86v19.042a3.544 3.544 0 01-3.544 3.544h-9.805V34.86h13.349zm-7.178-22.501l2.654 4.174-12.261 7.795-4.556-7.164 9.27-5.895a3.543 3.543 0 014.893 1.09z" fill="#FFC80A"/><path d="M19.051 34.86h8.937v22.586h-8.937V34.86zm-2.928-15.234l3.873-2.463 4.556 7.165-7.603 4.834-4.556-7.164 3.73-2.372z" fill="#fff"/><path d="M19.051 34.86v22.586h-7.459a3.544 3.544 0 01-3.545-3.544V34.86h11.004zm-2.102-5.698L4.496 37.08l-2.653-4.173a3.544 3.544 0 011.089-4.892L12.392 22l4.557 7.163z" fill="#FFC80A"/><path d="M11.563 53.902V34.86H8.047v19.042a3.544 3.544 0 003.545 3.544h3.516a3.545 3.545 0 01-3.545-3.544zM5.476 30.445a3.544 3.544 0 01.363-4.28l-2.907 1.849a3.544 3.544 0 00-1.088 4.892l2.653 4.173 3.633-2.46-2.654-4.174z" fill="#FFDD4D"/><path d="M41.337 34.158H10.404L37.19 17.126a.704.704 0 00.216-.97l-2.654-4.174a4.252 4.252 0 00-5.864-1.306l-3.769 2.397.299-1.429a4.02 4.02 0 10-7.85-1.748l-1.959 8.796-6.556-1.46a4.021 4.021 0 00-2.461 7.62L2.555 27.42a4.252 4.252 0 00-1.306 5.863l2.654 4.174a.702.702 0 00.97.216l2.471-1.57v17.8a4.252 4.252 0 004.248 4.247h26.2a4.251 4.251 0 004.248-4.247V34.86a.702.702 0 00-.703-.703zM29.644 11.863a2.823 2.823 0 012.142-.376 2.821 2.821 0 011.78 1.25l2.277 3.58-11.075 7.041-3.8-5.978 8.676-5.517zm-10.703-1.66a2.615 2.615 0 115.103 1.145l-.577 2.761-6.29 4.014 1.764-7.92zm.84 7.931l3.8 5.979-6.417 4.08-3.8-5.979 6.416-4.08zM5.972 22.56a2.615 2.615 0 012.775-3.955l5.682 1.265-6.307 3.954-.512-.114a2.598 2.598 0 01-1.638-1.15zm-1.26 13.55l-2.277-3.581a2.844 2.844 0 01.873-3.922l8.867-5.638 3.801 5.978L4.713 36.11zm13.635 20.634h-6.756a2.845 2.845 0 01-2.841-2.841v-18.34h9.597v21.18zm8.937 0h-7.53v-21.18h7.53v21.18zm13.349-2.841a2.845 2.845 0 01-2.841 2.84H28.69v-21.18h11.943v18.34zM49.2 27.77l.336-1.96a.704.704 0 00-1.02-.742l-1.761.926-1.762-.926a.704.704 0 00-1.02.741l.337 1.961-1.425 1.39a.702.702 0 00.39 1.198l1.968.287.88 1.784a.702.702 0 001.262 0l.88-1.784 1.97-.287a.704.704 0 00.389-1.199l-1.425-1.389zm-1.503 1.536a.704.704 0 00-.53.384l-.413.838-.413-.838a.703.703 0 00-.53-.384l-.925-.135.67-.652a.704.704 0 00.202-.623l-.158-.92.827.434a.703.703 0 00.654 0l.828-.435-.158.921a.703.703 0 00.202.623l.67.652-.926.135zm9.589-11.224l-1.934-.47-.709-1.858a.703.703 0 00-1.255-.12l-1.045 1.695-1.987.1a.703.703 0 00-.5 1.157l1.288 1.517-.52 1.92a.702.702 0 00.947.834l1.84-.756 1.667 1.087a.704.704 0 001.085-.642l-.15-1.984 1.548-1.25a.702.702 0 00-.275-1.23zM54.842 19.7a.702.702 0 00-.26.6l.07.932-.782-.51a.702.702 0 00-.652-.062l-.864.355.243-.902a.705.705 0 00-.142-.639l-.605-.712.933-.047a.704.704 0 00.563-.333l.49-.796.334.874a.703.703 0 00.49.432l.91.221-.728.587zM46.946 6.652l-.52 1.92a.703.703 0 00.947.835l1.84-.757 1.666 1.088a.703.703 0 001.085-.643l-.15-1.984 1.548-1.248a.704.704 0 00-.275-1.231l-1.933-.47-.71-1.859a.704.704 0 00-1.255-.118l-1.044 1.693-1.987.1a.703.703 0 00-.501 1.158l1.289 1.516zm1.64-1.388a.703.703 0 00.562-.333l.49-.796.334.874a.703.703 0 00.49.432l.909.221-.727.587a.703.703 0 00-.26.6l.07.932-.783-.51a.703.703 0 00-.651-.062l-.865.355.244-.902a.704.704 0 00-.143-.639l-.605-.712.934-.047z" fill="#525A68"/><path d="M34.19 27.871c-1.588 1-2.364 2.21-2.396 2.26a.703.703 0 101.187.754c.106-.164 2.65-4.01 8.187-2.64a.703.703 0 00.338-1.365c-3.407-.843-5.86.074-7.317.991zm13.342-7.446a.703.703 0 00.539-1.3c-5.006-2.077-8.644-.521-10.814 1.15a13.182 13.182 0 00-3.5 4.13.703.703 0 101.259.626 11.86 11.86 0 013.098-3.642c2.73-2.1 5.898-2.425 9.418-.964zm-7.902-5.209a.703.703 0 00.453.885c.968.286 1.972.43 2.98.431 1.177 0 2.535-.212 3.753-.934 1.593-.944 2.615-2.553 3.039-4.781a.703.703 0 10-1.382-.263c-.344 1.812-1.14 3.101-2.368 3.831-2.335 1.39-5.54.395-5.59.379a.703.703 0 00-.885.452zm-9.294 18.168a1.266 1.266 0 100-2.532 1.266 1.266 0 000 2.532zm0-1.406a.14.14 0 01.1.239.14.14 0 01-.24-.1.14.14 0 01.14-.139zm9.963-21.563a1.267 1.267 0 100-2.533 1.267 1.267 0 000 2.534zm0-1.406a.14.14 0 01.099.24.14.14 0 11-.099-.24zm17.849.441a1.267 1.267 0 100 2.533 1.267 1.267 0 000-2.533zm0 1.406a.14.14 0 01-.138-.167.14.14 0 11.138.167zm-28.33 15.398a1.266 1.266 0 10-2.533 0 1.266 1.266 0 002.533 0zm-1.266.14a.14.14 0 01-.137-.167.14.14 0 01.277.027.14.14 0 01-.14.14zm27.51.654a1.266 1.266 0 100 2.531 1.266 1.266 0 000-2.531zm0 1.406a.14.14 0 110-.28.14.14 0 010 .28z" fill="#525A68"/></svg>