<svg width="60" height="60" viewBox="0 0 60 60" fill="none" xmlns="http://www.w3.org/2000/svg">
<path d="M47.8125 22.5H26.25V1.875H47.8125C53.5078 1.875 58.125 6.49219 58.125 12.1875C58.125 17.8828 53.5078 22.5 47.8125 22.5Z" fill="white"/>
<path d="M54.375 24.3751V20.1423C52.5919 21.6151 50.3053 22.5001 47.8125 22.5001H33.75V26.2501H37.5L42.1875 41.2501H55.3125L50.625 28.1251L54.375 24.3751Z" fill="#FFDD4D"/>
<path d="M33.75 37.5H41.0156L38.6719 30H33.75L34.2994 30.5494C35.1478 31.3978 35.625 32.5491 35.625 33.75C35.625 34.9509 35.1478 36.1022 34.2994 36.9506L33.75 37.5Z" fill="white"/>
<path d="M26.25 3.75L20.625 5.625V18.75L26.25 20.625V3.75Z" fill="#FFDD4D"/>
<path d="M16.875 7.5H20.625V16.875H16.875V7.5Z" fill="white"/>
<path d="M13.125 18.75H16.875V5.625H13.125L5.625 9.375V15L13.125 18.75Z" fill="#FFDD4D"/>
<path d="M48.75 1.92188V22.4531C54.0056 21.9788 58.125 17.5669 58.125 12.1875C58.125 6.80813 54.0056 2.39625 48.75 1.92188Z" fill="white"/>
<path d="M48.75 5.69141C51.93 6.14609 54.375 8.88172 54.375 12.1873C54.375 15.493 51.93 18.2286 48.75 18.6833V5.69141Z" fill="#FFC80A"/>
<path d="M30 15.9375H35.625V19.6875H30V15.9375Z" fill="#FFC80A"/>
<path d="M30 1.875H45V7.5H30V1.875Z" fill="#FFC80A"/>
<path d="M39.375 41.25H58.125V46.875H39.375V41.25Z" fill="white"/>
<path d="M20.625 58.125H17.8125V52.5H20.625C22.1784 52.5 23.4375 53.7591 23.4375 55.3125C23.4375 56.8659 22.1784 58.125 20.625 58.125Z" fill="white"/>
<path d="M35.625 15H30C29.4816 15 29.0625 15.42 29.0625 15.9375V19.6875C29.0625 20.205 29.4816 20.625 30 20.625H35.625C36.1434 20.625 36.5625 20.205 36.5625 19.6875V15.9375C36.5625 15.42 36.1434 15 35.625 15ZM34.6875 18.75H30.9375V16.875H34.6875V18.75Z" fill="#273142"/>
<path d="M58.125 40.3125H55.9725L51.7069 28.3687L55.0378 25.0378C55.2141 24.8625 55.3125 24.6234 55.3125 24.375V20.625H55.2291C57.5728 18.5616 59.0625 15.5484 59.0625 12.1875C59.0625 5.98406 54.0159 0.9375 47.8125 0.9375H26.25C25.7316 0.9375 25.3125 1.3575 25.3125 1.875V3.07406L20.3288 4.73531C19.9453 4.86375 19.6875 5.22094 19.6875 5.625V6.5625H17.8125V5.625C17.8125 5.1075 17.3934 4.6875 16.875 4.6875H13.125C12.9797 4.6875 12.8353 4.72125 12.7059 4.78594L5.20594 8.53594C4.88812 8.69531 4.6875 9.01969 4.6875 9.375H0.9375V11.25H4.6875V13.125H0.9375V15H4.6875C4.6875 15.3553 4.88812 15.6797 5.20594 15.8391L12.7059 19.5891C12.8353 19.6538 12.9797 19.6875 13.125 19.6875H16.875C17.3934 19.6875 17.8125 19.2675 17.8125 18.75V17.8125H19.6875V18.75C19.6875 19.1541 19.9453 19.5112 20.3288 19.6397L25.3125 21.3009V22.5C25.3125 23.0175 25.7316 23.4375 26.25 23.4375H32.8125V26.25C32.8125 26.7675 33.2316 27.1875 33.75 27.1875H36.8109L37.3969 29.0625H33.75C33.3713 29.0625 33.0281 29.2913 32.8838 29.6409C32.7384 29.9916 32.8191 30.3947 33.0872 30.6628L33.6366 31.2122C34.3144 31.89 34.6875 32.7919 34.6875 33.75C34.6875 34.7081 34.3144 35.61 33.6366 36.2878L33.0872 36.8372C32.8191 37.1053 32.7384 37.5084 32.8838 37.8591C33.0281 38.2087 33.3713 38.4375 33.75 38.4375H40.3125V38.3925L40.9125 40.3125H39.375C38.8566 40.3125 38.4375 40.7325 38.4375 41.25V44.0625H29.5312C27.2053 44.0625 25.3125 45.9553 25.3125 48.2812C25.3125 50.6072 27.2053 52.5 29.5312 52.5H39.375C39.8925 52.5 40.3125 52.9209 40.3125 53.4375C40.3125 53.9541 39.8925 54.375 39.375 54.375H24.2419C23.8228 52.7625 22.3678 51.5625 20.625 51.5625H17.8125C17.2941 51.5625 16.875 51.9825 16.875 52.5H15V54.375H16.875V56.25H15V58.125H16.875C16.875 58.6425 17.2941 59.0625 17.8125 59.0625H20.625C22.3678 59.0625 23.8228 57.8625 24.2419 56.25H39.375C40.9256 56.25 42.1875 54.9881 42.1875 53.4375C42.1875 51.8869 40.9256 50.625 39.375 50.625H29.5312C28.2384 50.625 27.1875 49.5731 27.1875 48.2812C27.1875 46.9894 28.2384 45.9375 29.5312 45.9375H38.4375V46.875C38.4375 47.3925 38.8566 47.8125 39.375 47.8125H58.125C58.6434 47.8125 59.0625 47.3925 59.0625 46.875V41.25C59.0625 40.7325 58.6434 40.3125 58.125 40.3125ZM6.5625 9.95438L12.1875 7.14188V17.2331L6.5625 14.4206V9.95438ZM15.9375 17.8125H14.0625V6.5625H15.9375V17.8125ZM20.625 57.1875H18.75V53.4375H20.625C21.6591 53.4375 22.5 54.2784 22.5 55.3125C22.5 56.3466 21.6591 57.1875 20.625 57.1875ZM57.1875 12.1875C57.1875 16.7147 53.9616 20.5022 49.6875 21.3731V19.4447C52.9444 18.6019 55.3125 15.6169 55.3125 12.1866C55.3125 8.75625 52.9444 5.77219 49.6875 4.92844V3.00187C53.9616 3.87281 57.1875 7.66031 57.1875 12.1875ZM49.6875 16.875H50.8781C50.5069 17.1197 50.1141 17.3325 49.6875 17.4844V16.875ZM52.6697 15H49.6875V13.125H53.3512C53.2359 13.7953 53.0034 14.4272 52.6697 15ZM49.6875 11.25V9.375H52.6697C53.0025 9.94781 53.2359 10.5797 53.3503 11.25H49.6875ZM49.6875 7.5V6.89062C50.1141 7.0425 50.5069 7.25531 50.8781 7.5H49.6875ZM30.9375 2.8125H44.0625V6.5625H30.9375V2.8125ZM17.8125 15.9375V8.4375H19.6875V15.9375H17.8125ZM21.5625 18.0741V6.30094L25.3125 5.05125V19.3247L21.5625 18.0741ZM27.1875 2.8125H29.0625V7.5C29.0625 8.0175 29.4816 8.4375 30 8.4375H45C45.5184 8.4375 45.9375 8.0175 45.9375 7.5V2.8125H47.8125V21.5625H27.1875V2.8125ZM35.7853 36.5625C36.2925 35.7225 36.5625 34.7569 36.5625 33.75C36.5625 32.7431 36.2925 31.7775 35.7853 30.9375H37.9828L39.7406 36.5625H35.7853ZM38.3944 25.9706C38.2725 25.5788 37.9097 25.3125 37.5 25.3125H34.6875V23.4375H47.8125C49.8628 23.4375 51.7809 22.8769 53.4375 21.915V23.9869L49.9622 27.4622C49.7062 27.7181 49.6209 28.0988 49.7428 28.44L53.9822 40.3125H42.8766L38.3944 25.9706ZM57.1875 45.9375H40.3125V42.1875H57.1875V45.9375Z" fill="#273142"/>
</svg>
